<?xml version="1.0" encoding="utf-8"?>
<svg xmlns="http://www.w3.org/2000/svg" fill="none" height="40" viewBox="0 0 100 40" width="100">
<path clip-rule="evenodd" d="M12.8002 5.11899C12.1456 5.48263 11.4184 5.48262 10.9093 5.33717C10.182 6.28262 9.45473 7.15534 8.87291 8.1008C10.3275 7.15534 12.5093 6.93716 13.3093 8.82807C11.8547 9.62807 9.60016 10.5735 8.43652 8.6826C7.78198 9.70079 7.2729 10.5735 6.76381 11.519C7.92744 10.4281 9.81837 10.2826 10.6911 11.6644C9.45473 12.6826 7.63654 13.9917 6.182 12.6826C5.60018 14.0644 5.16379 15.4462 5.01833 16.6826C6.03651 15.3735 7.782 14.5008 9.23655 15.7372C8.21837 17.0463 6.69108 18.719 4.94562 17.7008C4.8729 18.9372 4.8729 20.1008 5.09109 21.1917C5.52745 19.519 6.90927 17.9917 8.72745 18.719C8.21836 20.319 7.34561 22.5008 5.38197 22.0644C5.74561 23.2281 6.18199 24.3917 6.76381 25.4099C6.76381 23.7372 7.78199 21.9917 9.6729 22.2826C9.60017 23.8826 9.23652 26.0644 7.34561 26.3553C8.00016 27.3735 8.80015 28.1735 9.74561 28.9735C9.30924 27.3008 9.74564 25.1917 11.782 24.9008C12.1456 26.5735 12.2911 28.9008 10.3275 29.4826C12.4366 31.3008 14.9093 32.5371 17.0911 33.2644C18.2547 35.7371 10.8365 31.0826 9.74561 30.1372C8.6547 31.8826 6.54563 31.0826 5.09109 30.3553C5.60018 28.9735 7.20019 28.3917 8.50928 29.0462C7.85473 28.3917 7.20016 27.6644 6.61834 26.7917C5.23652 28.3917 3.20019 27.1553 1.96382 26.0644C2.982 24.6099 4.87288 24.7554 6.10924 25.8463C5.52742 24.7554 5.01836 23.6644 4.72745 22.5008C2.982 23.519 1.45471 21.8463 0.436523 20.6099C1.67289 19.4463 3.5638 20.0281 4.43652 21.3372C4.29107 20.2463 4.21833 19.0826 4.29106 17.8463C2.32742 18.2826 1.38199 16.1008 0.945623 14.5008C2.61835 13.8462 4.07291 15.0826 4.50928 16.7554C4.72746 15.4463 5.09106 14.1372 5.74561 12.6826C3.70924 12.6826 3.20019 10.3553 3.05473 8.6826C5.01837 8.31897 6.03651 10.1372 6.10924 11.8826C6.47288 10.6463 7.12744 9.55536 7.85471 8.39172C5.96381 7.88263 6.10928 5.55534 6.32746 4.1008C8.00019 4.17352 8.94563 5.77354 8.72745 7.30081C10.0365 5.55536 12.0729 1.7008 14.6183 3.15535C14.5456 3.08262 14.1093 4.46442 12.9456 5.04624L12.8002 5.11899ZM87.2002 5.11899C87.8547 5.48263 88.582 5.48262 89.091 5.33717C89.8183 6.28262 90.5456 7.15534 91.1274 8.1008C89.6729 7.15534 87.4911 6.93716 86.6911 8.82807C88.1456 9.62807 90.4002 10.5735 91.5638 8.6826C92.2183 9.70079 92.7275 10.5735 93.2365 11.519C92.0729 10.4281 90.182 10.2826 89.3093 11.6644C90.5456 12.6826 92.3638 13.9917 93.8183 12.6826C94.4001 14.0644 94.8366 15.4462 94.982 16.6826C94.1093 15.3008 92.2184 14.4281 90.7638 15.6644C91.782 16.9735 93.3093 18.6462 95.0547 17.6281C95.1275 18.8644 95.1274 20.0281 94.9092 21.119C94.4729 19.4463 93.091 17.919 91.2729 18.6463C91.782 20.2463 92.6548 22.4281 94.6184 21.9917C94.2548 23.1553 93.8184 24.319 93.2365 25.3372C93.2365 23.6644 92.2184 21.919 90.3275 22.2099C90.4002 23.8099 90.7638 25.9917 92.6547 26.2826C92.0002 27.3008 91.2002 28.1008 90.2548 28.9008C90.6911 27.2281 90.2547 25.119 88.2184 24.8281C87.8547 26.5008 87.7093 28.8281 89.6729 29.4099C87.5638 31.2281 85.091 32.4644 82.9092 33.1917C81.7456 35.6644 89.1638 31.0099 90.2548 30.0644C91.3457 31.8099 93.4547 31.0099 94.9092 30.2826C94.4001 28.9008 92.8002 28.319 91.4911 28.9735C92.1456 28.319 92.8002 27.5917 93.382 26.719C94.7638 28.319 96.8002 27.0826 98.0365 25.9917C97.0184 24.5371 95.1275 24.6826 93.8911 25.7735C94.4729 24.6826 94.982 23.5917 95.2729 22.4281C97.0183 23.4463 98.5456 21.7735 99.5638 20.5371C98.3274 19.3735 96.4365 19.9553 95.5638 21.2644C95.7092 20.1735 95.782 19.0099 95.7093 17.7735C97.6729 18.2099 98.6184 16.0281 99.0547 14.4281C97.382 13.7735 95.9274 15.0099 95.4911 16.6826C95.2729 15.3735 94.9093 14.0644 94.2548 12.6099C96.2911 12.6099 96.8002 10.2826 96.9456 8.6099C94.982 8.24626 93.9638 10.0644 93.8911 11.8099C93.382 10.719 92.8002 9.62808 92.0729 8.6099C93.8911 8.02808 93.8184 5.77351 93.6002 4.31897C91.9275 4.3917 90.982 5.99171 91.2002 7.51899C89.8911 5.77353 87.8547 1.91898 85.3093 3.37352C85.4547 3.15534 85.8911 4.53718 87.0547 5.11899H87.2002Z" fill="#ADBDCC" fill-rule="evenodd"/>
<path d="M64.3867 5.35362L65.1809 4.22781C65.5998 4.64672 66.2456 4.99581 67.0398 4.99581C67.5547 4.99581 67.8689 4.77763 67.8689 4.49835C67.8689 4.16672 67.4936 4.03581 66.874 3.9049C65.914 3.7129 64.57 3.46853 64.57 2.08963C64.57 1.11217 65.3991 0.265625 66.8914 0.265625C67.8253 0.265625 68.6369 0.544898 69.2565 1.07726L68.4362 2.15072C67.9474 1.74926 67.3104 1.54853 66.7954 1.54853C66.298 1.54853 66.106 1.74926 66.106 2.00235C66.106 2.30781 66.4638 2.41253 67.1096 2.53472C68.0696 2.73544 69.3962 3.01472 69.3962 4.33253C69.3962 5.50199 68.5322 6.27872 66.97 6.27872C65.7918 6.27872 64.9714 5.91217 64.3867 5.35362Z" fill="white"/>
<path d="M62.9941 3.04963L62.4355 2.59581C62.7148 2.45617 63.0814 2.0809 63.1774 1.75799C63.1337 1.77544 63.0552 1.7929 62.9766 1.7929C62.6014 1.7929 62.2959 1.5049 62.2959 1.06853C62.2959 0.623443 62.6624 0.265625 63.0988 0.265625C63.5701 0.265625 63.989 0.632171 63.989 1.27799C63.989 1.9849 63.605 2.61326 62.9941 3.04963Z" fill="white"/>
<path d="M61.7353 6.17461H60.0161L59.0386 4.20224H58.2706V6.17461H56.7695V0.353516H59.6844C60.9761 0.353516 61.7092 1.20879 61.7092 2.29097C61.7092 3.30333 61.0895 3.84442 60.5484 4.03642L61.7353 6.17461ZM60.1819 2.27352C60.1819 1.87206 59.8503 1.61897 59.4575 1.61897H58.2706V2.92806H59.4575C59.8503 2.92806 60.1819 2.67497 60.1819 2.27352Z" fill="white"/>
<path d="M55.8975 6.17461H51.6299V0.353516H55.8975V1.61897H53.131V2.5877H55.8364V3.86188H53.131V4.90915H55.8975V6.17461Z" fill="white"/>
<path d="M49.0011 6.17461H47.5V3.82697L45.292 0.353516H46.9851L48.2505 2.50042L49.4985 0.353516H51.2004L49.0011 3.82697V6.17461Z" fill="white"/>
<path d="M46.0776 6.17461H44.4456L44.1489 5.29315H41.7315L41.4347 6.17461H39.8027L41.9933 0.353516H43.8784L46.0776 6.17461ZM43.7562 4.0277L42.9358 1.66261L42.1242 4.0277H43.7562Z" fill="white"/>
<path d="M39.6437 6.17461H35.8037V0.353516H37.3048V4.86552H39.6437V6.17461Z" fill="white"/>
<path d="M31.6964 6.17461H30.1953V0.353516H33.1102C34.4193 0.353516 35.1349 1.23497 35.1349 2.29097C35.1349 3.33824 34.4193 4.20224 33.1102 4.20224H31.6964V6.17461ZM33.6077 2.28224C33.6077 1.88079 33.3109 1.61897 32.9095 1.61897H31.6964V2.92806H32.9095C33.3109 2.92806 33.6077 2.67497 33.6077 2.28224Z" fill="white"/>
<path d="M77.898 14.9006H73.3336V13.7311C75.8558 11.9071 76.3271 11.5056 76.3271 10.9296C76.3271 10.5282 75.9518 10.3187 75.498 10.3187C74.8783 10.3187 74.3896 10.5631 73.9707 10.9558L73.1416 9.96091C73.7612 9.28019 74.6863 8.99219 75.498 8.99219C76.8681 8.99219 77.8543 9.76019 77.8543 10.9296C77.8543 11.8198 77.2172 12.5791 75.6551 13.5915H77.898V14.9006Z" fill="white"/>
<path d="M72.5962 14.9006H68.0318V13.7311C70.554 11.9071 71.0253 11.5056 71.0253 10.9296C71.0253 10.5282 70.65 10.3187 70.1962 10.3187C69.5766 10.3187 69.0878 10.5631 68.6689 10.9558L67.8398 9.96091C68.4595 9.28019 69.3846 8.99219 70.1962 8.99219C71.5664 8.99219 72.5526 9.76019 72.5526 10.9296C72.5526 11.8198 71.9155 12.5791 70.3533 13.5915H72.5962V14.9006Z" fill="white"/>
<path d="M62.4287 11.9944C62.4287 10.4584 63.2229 8.99219 64.9247 8.99219C66.6265 8.99219 67.4207 10.4584 67.4207 11.9944C67.4207 13.5304 66.6265 15.0053 64.9247 15.0053C63.2229 15.0053 62.4287 13.5304 62.4287 11.9944ZM65.9022 11.9944C65.9022 10.9646 65.6229 10.3187 64.9247 10.3187C64.2265 10.3187 63.9473 10.9646 63.9473 11.9944C63.9473 13.0242 64.2265 13.6787 64.9247 13.6787C65.6229 13.6787 65.9022 13.0242 65.9022 11.9944Z" fill="white"/>
<path d="M61.8491 14.9006H57.2848V13.7311C59.807 11.9071 60.2782 11.5056 60.2782 10.9296C60.2782 10.5282 59.903 10.3187 59.4491 10.3187C58.8295 10.3187 58.3408 10.5631 57.9219 10.9558L57.0928 9.96091C57.7124 9.28019 58.6375 8.99219 59.4491 8.99219C60.8193 8.99219 61.8055 9.76019 61.8055 10.9296C61.8055 11.8198 61.1684 12.5791 59.6062 13.5915H61.8491V14.9006Z" fill="white"/>
<path d="M54.3204 14.9012H50.0527V9.08008H54.3204V10.3455H51.5538V11.3143H54.2593V12.5884H51.5538V13.6357H54.3204V14.9012Z" fill="white"/>
<path d="M46.8198 15.0062C45.0743 15.0062 43.7129 13.7844 43.7129 11.9953C43.7129 10.1975 45.0743 8.98438 46.8198 8.98438C48.2685 8.98438 49.0191 9.77856 49.4031 10.5466L48.1114 11.1575C47.9194 10.6949 47.422 10.3109 46.8198 10.3109C45.9122 10.3109 45.2402 11.044 45.2402 11.9953C45.2402 12.9466 45.9122 13.6796 46.8198 13.6796C47.422 13.6796 47.9194 13.2956 48.1114 12.8331L49.4031 13.444C49.0278 14.1946 48.2685 15.0062 46.8198 15.0062Z" fill="white"/>
<path d="M42.963 14.9012H41.4619V9.08008H42.963V14.9012Z" fill="white"/>
<path d="M34.4834 11.9953C34.4834 10.2236 35.8187 8.98438 37.599 8.98438C39.3794 8.98438 40.7059 10.2236 40.7059 11.9953C40.7059 13.7669 39.3794 15.0062 37.599 15.0062C35.8187 15.0062 34.4834 13.7669 34.4834 11.9953ZM39.1787 11.9953C39.1787 11.044 38.559 10.3109 37.599 10.3109C36.6303 10.3109 36.0107 11.044 36.0107 11.9953C36.0107 12.9378 36.6303 13.6796 37.599 13.6796C38.559 13.6796 39.1787 12.9378 39.1787 11.9953Z" fill="white"/>
<path d="M33.7302 14.9012H32.2291V12.5623H29.8116V14.9012H28.3105V9.08008H29.8116V11.2532H32.2291V9.08008H33.7302V14.9012Z" fill="white"/>
<path d="M25.0786 15.0062C23.3331 15.0062 21.9717 13.7844 21.9717 11.9953C21.9717 10.1975 23.3331 8.98438 25.0786 8.98438C26.5273 8.98438 27.2779 9.77856 27.6619 10.5466L26.3702 11.1575C26.1782 10.6949 25.6808 10.3109 25.0786 10.3109C24.171 10.3109 23.499 11.044 23.499 11.9953C23.499 12.9466 24.171 13.6796 25.0786 13.6796C25.6808 13.6796 26.1782 13.2956 26.3702 12.8331L27.6619 13.444C27.2866 14.1946 26.5273 15.0062 25.0786 15.0062Z" fill="white"/>
<path d="M71.8411 24.534H68.1494V18.7129H71.8411V19.1667H68.6469V21.3223H71.78V21.7762H68.6469V24.0802H71.8411V24.534Z" fill="white"/>
<path d="M65.026 24.639C63.3765 24.639 62.0762 23.4172 62.0762 21.6281C62.0762 19.839 63.3765 18.6172 65.026 18.6172C65.9511 18.6172 66.658 19.0274 67.1467 19.647L66.7278 19.9176C66.3613 19.4114 65.7242 19.071 65.026 19.071C63.6645 19.071 62.5998 20.1096 62.5998 21.6281C62.5998 23.1292 63.6645 24.1852 65.026 24.1852C65.7242 24.1852 66.3613 23.8448 66.7278 23.3386L67.1554 23.6005C66.6318 24.2376 65.9511 24.639 65.026 24.639Z" fill="white"/>
<path d="M61.7754 24.534H61.1994L60.6234 23.1027H57.5426L56.9666 24.534H56.3906L58.7732 18.7129H59.3928L61.7754 24.534ZM60.4575 22.6489L59.0874 19.2453L57.7084 22.6489H60.4575Z" fill="white"/>
<path d="M55.9599 24.534H52.6348V18.7129H53.1409V24.0802H55.9599V24.534Z" fill="white"/>
<path d="M48.2689 24.534H47.7715V18.7129H49.9533C51.0704 18.7129 51.7075 19.4983 51.7075 20.4147C51.7075 21.3311 51.0617 22.1165 49.9533 22.1165H48.2689V24.534ZM49.9009 21.6627C50.6777 21.6627 51.1838 21.1391 51.1838 20.4147C51.1838 19.6816 50.6777 19.1667 49.9009 19.1667H48.2689V21.6627H49.9009Z" fill="white"/>
<path d="M41.3286 24.534H39.4697V18.7129H41.3286C43.1352 18.7129 44.2697 20.0307 44.2697 21.6278C44.2697 23.2423 43.1352 24.534 41.3286 24.534ZM41.3286 24.0802C42.8646 24.0802 43.7461 22.9893 43.7461 21.6278C43.7461 20.2663 42.8734 19.1667 41.3286 19.1667H39.9672V24.0802H41.3286Z" fill="white"/>
<path d="M38.0198 24.534H37.5311L33.8656 19.5333V24.534H33.3682V18.7129H33.8743L37.5223 23.6438V18.7129H38.0198V24.534Z" fill="white"/>
<path d="M31.8927 24.5334H28.0527V24.1232C30.0338 22.5261 31.3604 21.3915 31.3604 20.2657C31.3604 19.4279 30.6709 19.0788 30.0338 19.0788C29.3095 19.0788 28.7509 19.393 28.4367 19.8381L28.0964 19.5239C28.5066 18.9654 29.2135 18.625 30.0338 18.625C30.8891 18.625 31.8666 19.1137 31.8666 20.2657C31.8666 21.5486 30.5138 22.7181 28.8295 24.0795H31.8927V24.5334Z" fill="white"/>
<path clip-rule="evenodd" d="M22.4003 28.0293H77.5276L80.4367 33.8475L77.5276 39.5929H22.4003L19.4912 33.8475L22.4003 28.0293ZM31.0548 36.6838L30.8366 35.6657H29.6729L29.4548 36.6838H28.2911L29.6729 30.7202H30.9093L32.3639 36.6838H31.1275H31.0548ZM30.5093 33.9202C30.5593 34.1868 30.6093 34.4535 30.6733 34.7202H29.8911C29.9257 34.5298 29.9644 34.3395 30.0034 34.1482C30.128 33.5354 30.2547 32.9126 30.2547 32.2475C30.3275 32.5384 30.3275 32.7565 30.3275 33.0475C30.4002 33.3384 30.4548 33.6293 30.5093 33.9202ZM34.4002 31.8111C34.7638 31.8111 35.0548 31.9565 35.2729 32.1747H35.3457V31.0111C35.278 30.9604 35.2379 30.9175 35.2043 30.8816C35.0933 30.763 35.0532 30.7202 34.3275 30.7202C33.382 30.7202 32.8002 31.5929 32.8002 32.4656C32.8002 33.3384 33.2366 33.7748 33.8911 34.2111C33.9143 34.2266 33.9391 34.2428 33.965 34.2598L33.965 34.2598C34.1832 34.4029 34.4807 34.5979 34.5457 34.7929V35.0838C34.5457 35.5202 34.1093 35.7384 33.8184 35.7384C33.5275 35.7384 33.2366 35.5929 32.9457 35.4475L32.9457 35.4474V36.6111C33.025 36.6706 33.0557 36.7193 33.0805 36.7587C33.1464 36.8635 33.1706 36.902 33.9639 36.902C35.0548 36.902 35.6366 36.7565 35.6366 35.0838C35.6366 34.1442 35.0629 33.7324 34.56 33.3714C34.1676 33.0898 33.8184 32.8392 33.8184 32.3929C33.8184 32.0293 34.0366 31.8111 34.4002 31.8111ZM38.182 36.6838L37.0911 33.6293V36.6838H35.9275V30.7202H37.0911V33.4111L38.1093 30.7202H39.3457L38.2547 33.4838L39.4911 36.6838H38.2547H38.182ZM43.782 33.9202V33.4838V33.3384H41.8912V34.4293H42.6184C42.6184 34.4906 42.6205 34.5561 42.6227 34.624V34.624V34.624V34.6241V34.6241V34.6241V34.6242V34.6242V34.6242C42.6387 35.1197 42.6586 35.7384 41.8912 35.7384C41.0184 35.7384 41.0184 34.2838 41.0184 33.702C41.0184 33.1202 41.0912 31.6657 41.8912 31.6657C42.3275 31.6657 42.4729 32.102 42.4729 32.4656L43.6365 32.0293C43.606 31.9174 43.5826 31.8098 43.5604 31.7074C43.4235 31.0779 43.3299 30.6475 41.8912 30.6475C40.2184 30.6475 39.782 32.4656 39.782 33.7747C39.782 35.0838 40.2912 36.8293 41.8912 36.8293C42.9093 36.8293 43.4912 36.102 43.7093 35.1566C43.782 34.793 43.782 34.3568 43.782 33.9205V33.9202ZM46.9093 36.6838L46.6911 35.6657H45.5275L45.3093 36.6838H44.1457L45.5275 30.7202H46.7638L48.2184 36.6838H46.9821H46.9093ZM46.3638 33.9202C46.4138 34.1868 46.4638 34.4535 46.5278 34.7202H45.7456C45.7802 34.5302 45.8188 34.3403 45.8577 34.1494L45.8578 34.1485L45.8579 34.1484L45.8579 34.1483L45.8579 34.1482C45.9826 33.5354 46.1093 32.9126 46.1093 32.2475C46.182 32.5383 46.182 32.7564 46.182 33.0472V33.0475C46.2547 33.3384 46.3093 33.6293 46.3638 33.9202ZM52.3638 32.3929L52.6547 36.6838H53.8912L53.3093 30.7202H51.7093L51.2002 34.2838L50.6184 30.7202H49.0911L48.582 36.6838H49.8184L50.1093 32.3929V33.1202C50.1093 33.2657 50.1457 33.4111 50.182 33.5566C50.2184 33.702 50.2548 33.8474 50.2548 33.9929L50.8366 36.6838H51.7093L52.2184 33.7747C52.2911 33.3384 52.3638 32.8293 52.3638 32.3929ZM55.4184 30.7202C55.7093 30.7202 56.2911 30.7202 56.6547 31.1566C56.9456 31.4475 57.1639 31.9566 57.1639 32.4656C57.1639 32.9747 57.1639 33.0475 56.873 33.3384C56.8002 33.4838 56.6547 33.6293 56.3638 33.702C56.6718 33.8252 56.8754 34.0527 56.9747 34.1637C56.9927 34.1837 57.0072 34.2 57.0184 34.2111C57.1638 34.502 57.2366 34.8656 57.2366 35.0838C57.2366 35.5202 57.0912 35.9566 56.8002 36.2475C56.3639 36.6838 55.7093 36.7566 55.4184 36.7566H54.182V30.7929H55.4184V30.7202ZM55.3457 33.1929C55.5639 33.1929 55.782 33.1202 55.8548 32.9747C56.0002 32.8293 56.073 32.5384 56.073 32.3929C56.073 32.2475 56.0729 32.0293 55.8548 31.8838C55.782 31.8111 55.5639 31.7384 55.3457 31.7384V33.1929ZM55.3457 35.6657C55.5639 35.6657 55.782 35.6656 55.8548 35.4474C56.0002 35.302 56.073 35.1565 56.073 34.8656C56.073 34.5747 56.0002 34.3566 55.8548 34.2111C55.7093 34.0657 55.4912 33.9929 55.3457 33.9929V35.5929V35.6657ZM57.6002 30.7202V36.6838H60.0002V35.5929H58.7639V30.7202H57.6002ZM60.2911 36.6838V30.7202H62.6911V31.8111H61.5275V33.1202H62.5456V34.2838H61.5275V35.5929H62.7638V36.6838H60.3638H60.2911ZM64.2184 33.9202L65.2366 36.6838H65.3093H66.5456L65.5275 33.9929C66.1093 33.6293 66.4002 33.0475 66.4002 32.4656C66.4002 31.8838 66.182 31.302 65.6729 31.0111C65.3093 30.7202 64.8002 30.7202 64.3638 30.7202H63.0548V36.6838H64.2184V33.9202ZM64.4366 33.3384H64.2184V31.7384H64.4366C64.9457 31.7384 65.1639 32.102 65.1639 32.5384C65.1639 32.9747 64.9457 33.3384 64.4366 33.3384ZM69.4547 32.1747C69.2365 31.9565 68.9457 31.8111 68.582 31.8111C68.2184 31.8111 68.0002 32.0293 68.0002 32.3929C68.0002 32.8392 68.3494 33.0898 68.7417 33.3714C69.2446 33.7324 69.8184 34.1442 69.8184 35.0838C69.8184 36.7565 69.2366 36.902 68.1457 36.902C67.3524 36.902 67.3283 36.8635 67.2623 36.7587C67.2375 36.7193 67.2069 36.6706 67.1275 36.6111V35.4474L67.1277 35.4475C67.4185 35.593 67.7093 35.7384 68.0002 35.7384C68.2911 35.7384 68.7275 35.5202 68.7275 35.0838V34.7929C68.6624 34.5979 68.365 34.4028 68.1467 34.2597C68.1209 34.2428 68.0961 34.2265 68.073 34.2111C67.4184 33.7748 66.9821 33.3384 66.9821 32.4656C66.9821 31.5929 67.5639 30.7202 68.5093 30.7202C69.235 30.7202 69.2752 30.763 69.3862 30.8816C69.4198 30.9175 69.4599 30.9604 69.5275 31.0111V32.1747H69.4547ZM71.6365 31.5202C71.6365 31.9566 71.2729 32.3202 70.8366 32.3202C70.4002 32.3202 70.0366 31.9566 70.0366 31.5202C70.0366 31.0838 70.4002 30.7202 70.8366 30.7202C71.2729 30.7202 71.6365 31.0838 71.6365 31.5202Z" fill="#ADBDCC" fill-rule="evenodd"/>
</svg>