<?xml version="1.0" encoding="utf-8"?>
<svg xmlns="http://www.w3.org/2000/svg" fill="none" height="40" viewBox="0 0 100 40" width="100">
<path clip-rule="evenodd" d="M12.8002 5.09946C12.1456 5.4631 11.4184 5.46309 10.9093 5.31764C10.182 6.26309 9.45469 7.13581 8.87287 8.08126C10.3274 7.13581 12.5093 6.91763 13.3093 8.80854C11.8547 9.60854 9.60016 10.554 8.43652 8.66307C7.78198 9.68126 7.2729 10.554 6.76381 11.4995C7.92744 10.4085 9.81832 10.2631 10.6911 11.6449C9.45469 12.6631 7.63654 13.9722 6.182 12.6631C5.60018 14.0449 5.16379 15.4267 5.01833 16.6631C6.03651 15.354 7.78196 14.4813 9.23651 15.7176C8.21832 17.0267 6.69108 18.6995 4.94562 17.6813C4.8729 18.9176 4.8729 20.0813 5.09109 21.1722C5.52745 19.4994 6.90927 17.9722 8.72745 18.6994C8.21836 20.2994 7.34561 22.4813 5.38197 22.0449C5.74561 23.2085 6.18199 24.3722 6.76381 25.3903C6.76381 23.7176 7.78199 21.9722 9.6729 22.2631C9.60017 23.8631 9.23652 26.0449 7.34561 26.3358C8.00016 27.354 8.80015 28.154 9.74561 28.954C9.30924 27.2813 9.7456 25.1722 11.782 24.8812C12.1456 26.554 12.2911 28.8813 10.3274 29.4631C12.4365 31.2813 14.9093 32.5176 17.0911 33.2449C18.2547 35.7176 10.8365 31.0631 9.74561 30.1176C8.6547 31.8631 6.54563 31.0631 5.09109 30.3358C5.60018 28.954 7.20014 28.3722 8.50923 29.0267C7.85469 28.3722 7.20016 27.6449 6.61834 26.7722C5.23652 28.3722 3.20014 27.1358 1.96378 26.0449C2.98196 24.5904 4.87288 24.7358 6.10924 25.8267C5.52742 24.7358 5.01836 23.6449 4.72745 22.4813C2.982 23.4994 1.45471 21.8267 0.436523 20.5904C1.67289 19.4267 3.5638 20.0085 4.43652 21.3176C4.29107 20.2267 4.21833 19.0631 4.29106 17.8267C2.32742 18.2631 1.38199 16.0813 0.945623 14.4813C2.61835 13.8267 4.07287 15.0631 4.50923 16.7358C4.72742 15.4267 5.09106 14.1176 5.74561 12.6631C3.70924 12.6631 3.20014 10.3358 3.05469 8.66307C5.01832 8.29944 6.03651 10.1176 6.10924 11.8631C6.47288 10.6267 7.12744 9.53583 7.85471 8.37219C5.96381 7.8631 6.10923 5.53581 6.32741 4.08126C8.00014 4.15399 8.94563 5.75401 8.72745 7.28128C10.0365 5.53583 12.0729 1.68127 14.6183 3.13582C14.5456 3.06309 14.1093 4.44489 12.9456 5.02671L12.8002 5.09946ZM87.2002 5.09946C87.8547 5.4631 88.582 5.46309 89.0911 5.31764C89.8184 6.26309 90.5456 7.13581 91.1274 8.08126C89.6729 7.13581 87.4911 6.91763 86.6911 8.80854C88.1456 9.60854 90.4002 10.554 91.5638 8.66307C92.2183 9.68126 92.7274 10.554 93.2365 11.4995C92.0729 10.4085 90.182 10.2631 89.3093 11.6449C90.5456 12.6631 92.3638 13.9722 93.8184 12.6631C94.4002 14.0449 94.8365 15.4267 94.982 16.6631C94.1093 15.2813 92.2184 14.4086 90.7638 15.6449C91.782 16.954 93.3092 18.6267 95.0547 17.6085C95.1274 18.8449 95.1275 20.0086 94.9093 21.0995C94.4729 19.4267 93.0911 17.8994 91.2729 18.6267C91.782 20.2267 92.6547 22.4085 94.6183 21.9722C94.2547 23.1358 93.8183 24.2995 93.2365 25.3176C93.2365 23.6449 92.2183 21.8995 90.3274 22.1904C90.4001 23.7904 90.7638 25.9722 92.6547 26.2631C92.0002 27.2813 91.2002 28.0812 90.2547 28.8812C90.6911 27.2085 90.2547 25.0994 88.2184 24.8085C87.8547 26.4813 87.7093 28.8085 89.6729 29.3903C87.5638 31.2085 85.0911 32.4449 82.9093 33.1722C81.7456 35.6449 89.1638 30.9904 90.2547 30.0449C91.3456 31.7904 93.4547 30.9904 94.9093 30.2631C94.4002 28.8813 92.8002 28.2995 91.4911 28.954C92.1456 28.2995 92.8002 27.5722 93.382 26.6994C94.7638 28.2994 96.8002 27.0631 98.0365 25.9722C97.0184 24.5176 95.1274 24.6631 93.8911 25.754C94.4729 24.6631 94.982 23.5722 95.2729 22.4085C97.0184 23.4267 98.5456 21.754 99.5638 20.5176C98.3274 19.354 96.4365 19.9358 95.5638 21.2449C95.7092 20.154 95.782 18.9903 95.7093 17.754C97.6729 18.1903 98.6183 16.0085 99.0547 14.4085C97.382 13.754 95.9274 14.9903 95.4911 16.6631C95.2729 15.354 94.9093 14.0449 94.2547 12.5904C96.2911 12.5904 96.8002 10.2631 96.9456 8.59036C94.982 8.22673 93.9638 10.0449 93.8911 11.7903C93.382 10.6994 92.8002 9.60855 92.0729 8.59036C93.8911 8.00855 93.8183 5.75398 93.6001 4.29944C91.9274 4.37216 90.982 5.97218 91.2002 7.49945C89.8911 5.754 87.8547 1.89945 85.3093 3.35399C85.4547 3.13581 85.8911 4.51765 87.0547 5.09946H87.2002Z" fill="#ADBDCC" fill-rule="evenodd"/>
<path d="M70.0743 6.19804H68.486L67.6045 2.55004L66.723 6.19804H65.1347L63.4678 0.376953H65.1521L66.0336 4.26059L67.0285 0.376953H68.1805L69.1754 4.26059L70.0481 0.376953H71.7412L70.0743 6.19804Z" fill="white"/>
<path d="M63.1719 6.19804H58.9043V0.376953H63.1719V1.64241H60.4054V2.61114H63.1108V3.88532H60.4054V4.93259H63.1719V6.19804Z" fill="white"/>
<path d="M57.8552 6.19804H56.4065L53.9454 2.68095V6.19804H52.4443V0.376953H53.9891L56.3454 3.72823V0.376953H57.8552V6.19804Z" fill="white"/>
<path d="M47.8733 6.19804H46.3722V1.68604H44.7402V0.376953H49.4966V1.68604H47.8733V6.19804Z" fill="white"/>
<path d="M39.3945 5.37706L40.1887 4.25124C40.6076 4.67015 41.2534 5.01924 42.0476 5.01924C42.5625 5.01924 42.8767 4.80106 42.8767 4.52179C42.8767 4.19015 42.5014 4.05924 41.8818 3.92834C40.9218 3.73634 39.5778 3.49197 39.5778 2.11306C39.5778 1.13561 40.4069 0.289062 41.8993 0.289062C42.8331 0.289062 43.6447 0.568335 44.2643 1.1007L43.444 2.17415C42.9553 1.7727 42.3182 1.57197 41.8033 1.57197C41.3058 1.57197 41.1138 1.7727 41.1138 2.02579C41.1138 2.33124 41.4716 2.43597 42.1174 2.55815C43.0774 2.75888 44.404 3.03815 44.404 4.35597C44.404 5.52543 43.54 6.30215 41.9778 6.30215C40.7996 6.30215 39.9793 5.93561 39.3945 5.37706Z" fill="white"/>
<path d="M38.9415 6.19804H34.6738V0.376953H38.9415V1.64241H36.1749V2.61114H38.8804V3.88532H36.1749V4.93259H38.9415V6.19804Z" fill="white"/>
<path d="M32.1458 6.19804H28.7422V0.376953H32.0411C33.1931 0.376953 33.7429 1.1275 33.7429 1.86059C33.7429 2.58495 33.2978 3.07368 32.748 3.19586C33.3676 3.29186 33.8564 3.88532 33.8564 4.61841C33.8564 5.46495 33.2891 6.19804 32.1458 6.19804ZM30.2433 1.62495V2.62859H31.7007C32.0062 2.62859 32.2156 2.41041 32.2156 2.12241C32.2156 1.83441 32.0062 1.62495 31.7007 1.62495H30.2433ZM30.2433 3.86786V4.95005H31.7531C32.1109 4.95005 32.3291 4.73186 32.3291 4.41768C32.3291 4.12095 32.1196 3.86786 31.7531 3.86786H30.2433Z" fill="white"/>
<path d="M73.1016 14.1124L73.8608 13.1262C74.2797 13.5364 74.943 13.7545 75.4492 13.7545C76.095 13.7545 76.4267 13.4927 76.4267 13.1524C76.4267 12.812 76.1823 12.62 75.3881 12.62C75.135 12.62 74.6899 12.6287 74.6026 12.6374V11.3458C74.7161 11.3545 75.1699 11.3545 75.3881 11.3545C75.9903 11.3545 76.3307 11.18 76.3307 10.8571C76.3307 10.4905 75.9117 10.2985 75.3532 10.2985C74.8208 10.2985 74.2972 10.5167 73.887 10.8745L73.1801 9.95817C73.6688 9.40835 74.4368 9.01562 75.5103 9.01562C76.9939 9.01562 77.823 9.65272 77.823 10.6127C77.823 11.2934 77.2383 11.8084 76.5488 11.9218C77.1685 11.9829 77.919 12.4629 77.919 13.3007C77.919 14.3218 76.959 15.0287 75.5103 15.0287C74.3932 15.0287 73.5554 14.636 73.1016 14.1124Z" fill="white"/>
<path d="M72.6099 14.924H68.0455V13.7545C70.5677 11.9305 71.039 11.5291 71.039 10.9531C71.039 10.5516 70.6637 10.3422 70.2099 10.3422C69.5902 10.3422 69.1015 10.5865 68.6826 10.9793L67.8535 9.98435C68.4732 9.30362 69.3982 9.01562 70.2099 9.01562C71.5801 9.01562 72.5662 9.78363 72.5662 10.9531C72.5662 11.8433 71.9292 12.6025 70.367 13.6149H72.6099V14.924Z" fill="white"/>
<path d="M62.4424 12.0178C62.4424 10.4818 63.2366 9.01562 64.9384 9.01562C66.6402 9.01562 67.4344 10.4818 67.4344 12.0178C67.4344 13.5538 66.6402 15.0287 64.9384 15.0287C63.2366 15.0287 62.4424 13.5538 62.4424 12.0178ZM65.9158 12.0178C65.9158 10.988 65.6366 10.3422 64.9384 10.3422C64.2402 10.3422 63.9609 10.988 63.9609 12.0178C63.9609 13.0476 64.2402 13.7022 64.9384 13.7022C65.6366 13.7022 65.9158 13.0476 65.9158 12.0178Z" fill="white"/>
<path d="M61.8628 14.924H57.2984V13.7545C59.8206 11.9305 60.2919 11.5291 60.2919 10.9531C60.2919 10.5516 59.9166 10.3422 59.4628 10.3422C58.8432 10.3422 58.3544 10.5865 57.9355 10.9793L57.1064 9.98435C57.7261 9.30362 58.6512 9.01562 59.4628 9.01562C60.833 9.01562 61.8192 9.78363 61.8192 10.9531C61.8192 11.8433 61.1821 12.6025 59.6199 13.6149H61.8628V14.924Z" fill="white"/>
<path d="M48.2266 12.0187C48.2266 10.2471 49.5618 9.00781 51.3422 9.00781C53.1226 9.00781 54.4491 10.2471 54.4491 12.0187C54.4491 13.7904 53.1226 15.0296 51.3422 15.0296C49.5618 15.0296 48.2266 13.7904 48.2266 12.0187ZM52.9218 12.0187C52.9218 11.0674 52.3022 10.3344 51.3422 10.3344C50.3735 10.3344 49.7538 11.0674 49.7538 12.0187C49.7538 12.9613 50.3735 13.7031 51.3422 13.7031C52.3022 13.7031 52.9218 12.9613 52.9218 12.0187Z" fill="white"/>
<path d="M47.4734 14.9246H46.0247L43.5636 11.4075V14.9246H42.0625V9.10352H43.6072L45.9636 12.4548V9.10352H47.4734V14.9246Z" fill="white"/>
<path d="M41.0157 14.9246H39.5146V9.10352H41.0157V14.9246Z" fill="white"/>
<path d="M33.8027 14.1036L34.5969 12.9778C35.0158 13.3967 35.6616 13.7458 36.4558 13.7458C36.9707 13.7458 37.2849 13.5276 37.2849 13.2484C37.2849 12.9167 36.9096 12.7858 36.29 12.6549C35.33 12.4629 33.986 12.2185 33.986 10.8396C33.986 9.86217 34.8151 9.01562 36.3075 9.01562C37.2413 9.01562 38.0529 9.2949 38.6726 9.82726L37.8522 10.9007C37.3635 10.4993 36.7264 10.2985 36.2115 10.2985C35.714 10.2985 35.522 10.4993 35.522 10.7524C35.522 11.0578 35.8798 11.1625 36.5256 11.2847C37.4856 11.4854 38.8122 11.7647 38.8122 13.0825C38.8122 14.252 37.9482 15.0287 36.386 15.0287C35.2078 15.0287 34.3875 14.6622 33.8027 14.1036Z" fill="white"/>
<path d="M33.8257 14.9246H32.1937L31.897 14.0432H29.4795L29.1828 14.9246H27.5508L29.7413 9.10352H31.6264L33.8257 14.9246ZM31.5042 12.7777L30.6839 10.4126L29.8722 12.7777H31.5042Z" fill="white"/>
<path d="M25.0063 15.0296C23.2609 15.0296 21.8994 13.8078 21.8994 12.0187C21.8994 10.2209 23.2609 9.00781 25.0063 9.00781C26.4551 9.00781 27.2056 9.80199 27.5896 10.57L26.298 11.1809C26.106 10.7184 25.6085 10.3344 25.0063 10.3344C24.0987 10.3344 23.4267 11.0674 23.4267 12.0187C23.4267 12.97 24.0987 13.7031 25.0063 13.7031C25.6085 13.7031 26.106 13.3191 26.298 12.8565L27.5896 13.4674C27.2143 14.218 26.4551 15.0296 25.0063 15.0296Z" fill="white"/>
<path d="M71.2405 24.577H67.5488V18.7559H71.2405V19.2097H68.0463V21.3653H71.1794V21.8191H68.0463V24.1231H71.2405V24.577Z" fill="white"/>
<path d="M64.4254 24.682C62.7759 24.682 61.4756 23.4602 61.4756 21.6711C61.4756 19.882 62.7759 18.6602 64.4254 18.6602C65.3505 18.6602 66.0574 19.0703 66.5461 19.69L66.1272 19.9605C65.7607 19.4543 65.1236 19.114 64.4254 19.114C63.0639 19.114 61.9992 20.1525 61.9992 21.6711C61.9992 23.1722 63.0639 24.2282 64.4254 24.2282C65.1236 24.2282 65.7607 23.8878 66.1272 23.3816L66.5549 23.6434C66.0312 24.2805 65.3505 24.682 64.4254 24.682Z" fill="white"/>
<path d="M61.1757 24.577H60.5997L60.0237 23.1457H56.943L56.367 24.577H55.791L58.1736 18.7559H58.7932L61.1757 24.577ZM59.8579 22.6919L58.4877 19.2882L57.1088 22.6919H59.8579Z" fill="white"/>
<path d="M55.3602 24.577H52.0352V18.7559H52.5413V24.1231H55.3602V24.577Z" fill="white"/>
<path d="M47.6684 24.577H47.1709V18.7559H49.3527C50.4698 18.7559 51.1069 19.5413 51.1069 20.4577C51.1069 21.374 50.4611 22.1595 49.3527 22.1595H47.6684V24.577ZM49.3004 21.7057C50.0771 21.7057 50.5833 21.182 50.5833 20.4577C50.5833 19.7246 50.0771 19.2097 49.3004 19.2097H47.6684V21.7057H49.3004Z" fill="white"/>
<path d="M40.729 24.577H38.8701V18.7559H40.729C42.5356 18.7559 43.6701 20.0737 43.6701 21.6708C43.6701 23.2853 42.5356 24.577 40.729 24.577ZM40.729 24.1231C42.265 24.1231 43.1465 23.0322 43.1465 21.6708C43.1465 20.3093 42.2738 19.2097 40.729 19.2097H39.3676V24.1231H40.729Z" fill="white"/>
<path d="M37.703 24.577H37.1008L35.4688 22.1682H34.1859V24.577H33.6885V18.7559H35.8616C36.8652 18.7559 37.6332 19.393 37.6332 20.4577C37.6332 21.5137 36.8914 22.0984 36.0187 22.1333L37.703 24.577ZM35.8179 21.7144C36.5947 21.7144 37.1096 21.1908 37.1096 20.4577C37.1096 19.7246 36.5947 19.2097 35.8179 19.2097H34.1859V21.7144H35.8179Z" fill="white"/>
<path d="M30.4772 24.6811C29.5259 24.6811 28.8365 24.236 28.4961 23.7123L28.8365 23.4156C29.1594 23.8782 29.7266 24.2272 30.4685 24.2272C31.3674 24.2272 31.9346 23.756 31.9346 22.988C31.9346 22.1502 31.2452 21.8011 30.3725 21.8011C30.1368 21.8011 29.9186 21.8098 29.8314 21.8185V21.3472C29.9186 21.356 30.1368 21.356 30.3725 21.356C31.1492 21.356 31.8474 21.0243 31.8474 20.2476C31.8474 19.5232 31.2015 19.1218 30.451 19.1218C29.7877 19.1218 29.3165 19.3836 28.8888 19.8636L28.5746 19.5494C28.9848 19.052 29.6306 18.668 30.4772 18.668C31.4895 18.668 32.3535 19.2178 32.3535 20.204C32.3535 21.0942 31.603 21.4782 31.1055 21.5654C31.6117 21.6178 32.4408 22.0542 32.4408 23.0142C32.4408 23.9742 31.7165 24.6811 30.4772 24.6811Z" fill="white"/>
<path clip-rule="evenodd" d="M22.4003 28.0078H77.6003L80.4367 33.826L77.6003 39.5714H22.4003L19.4912 33.826L22.4003 28.0078ZM31.1276 36.6623L30.9094 35.6442H29.7458L29.5276 36.6623H28.364L29.7458 30.6987H30.9822L32.4367 36.6623H31.2003H31.1276ZM30.5094 33.8987C30.5594 34.1654 30.6094 34.432 30.6734 34.6987H29.8912C29.9259 34.5084 29.9646 34.318 30.0035 34.1267C30.1282 33.5139 30.2549 32.8911 30.2549 32.226C30.3276 32.5168 30.3276 32.735 30.3276 33.0258V33.026C30.4003 33.3169 30.4549 33.6078 30.5094 33.8987L30.5094 33.8987ZM34.4003 31.7896C34.764 31.7896 35.0549 31.9351 35.2731 32.1532H35.3458V30.9896C35.2782 30.9389 35.2381 30.8961 35.2045 30.8602L35.2045 30.8601C35.0934 30.7415 35.0533 30.6987 34.3276 30.6987C33.3821 30.6987 32.8003 31.5714 32.8003 32.4442C32.8003 33.3169 33.2367 33.7533 33.8912 34.1896C33.9144 34.2051 33.9392 34.2213 33.9651 34.2383L33.9651 34.2383C34.1834 34.3814 34.4808 34.5764 34.5458 34.7714V35.0623C34.5458 35.4987 34.1094 35.7169 33.8185 35.7169C33.5277 35.7169 33.2368 35.5714 32.9459 35.426L32.9458 35.426V36.5896C33.0252 36.6492 33.0558 36.6979 33.0806 36.7372C33.1466 36.8421 33.1707 36.8805 33.964 36.8805C35.0549 36.8805 35.6367 36.7351 35.6367 35.0623C35.6367 34.1227 35.063 33.7109 34.5601 33.3499C34.1678 33.0683 33.8185 32.8177 33.8185 32.3715C33.8185 32.0078 34.0367 31.7896 34.4003 31.7896ZM38.2549 36.6623L37.164 33.6078V36.6623H36.0004V30.6987H37.164V33.3896L38.1822 30.6987H39.4185L38.3276 33.4624L39.564 36.6623H38.3276H38.2549ZM43.7821 33.899V33.8987V33.4624V33.3169H41.8912V34.4078H42.6185C42.6185 34.4691 42.6206 34.5346 42.6228 34.6025V34.6025V34.6026V34.6026V34.6026V34.6027V34.6027V34.6027V34.6027C42.6388 35.0982 42.6587 35.7169 41.8912 35.7169C41.0185 35.7169 41.0185 34.2624 41.0185 33.6805C41.0185 33.0987 41.0912 31.6442 41.8912 31.6442C42.3276 31.6442 42.4731 32.0805 42.4731 32.4442L43.6367 32.0078C43.6062 31.8959 43.5828 31.7883 43.5606 31.686C43.4237 31.0565 43.33 30.626 41.8912 30.626C40.2185 30.626 39.7821 32.4442 39.7821 33.7532C39.7821 35.0623 40.2912 36.8078 41.8912 36.8078C42.9094 36.8078 43.4912 36.0805 43.7094 35.1351C43.7821 34.7715 43.7821 34.3353 43.7821 33.899ZM46.9822 36.6623L46.764 35.6442H45.6003L45.3821 36.6623H44.2185L45.6003 30.6987H46.8367L48.2912 36.6623H47.0549H46.9822ZM46.364 33.8987C46.414 34.1654 46.464 34.432 46.528 34.6987H45.7458C45.7803 34.5087 45.819 34.3188 45.8578 34.1279L45.858 34.127L45.858 34.1269L45.858 34.1268L45.858 34.1267C45.9827 33.5139 46.1094 32.8911 46.1094 32.226C46.1821 32.5169 46.1822 32.7351 46.1822 33.026C46.2549 33.3169 46.3094 33.6078 46.364 33.8987ZM52.364 32.3715L52.6549 36.6623H53.8913L53.3094 30.6987H51.7094L51.2003 34.2623L50.6185 30.6987H49.0913L48.5822 36.6623H49.8185L50.1094 32.3715V33.0987C50.1094 33.2442 50.1458 33.3896 50.1821 33.535L50.1822 33.5351C50.2185 33.6805 50.2549 33.826 50.2549 33.9714L50.8367 36.6623H51.7094L52.2185 33.7532C52.2913 33.3169 52.364 32.8078 52.364 32.3715ZM55.4185 30.6987C55.7094 30.6987 56.2912 30.6987 56.6549 31.1351C56.9458 31.426 57.164 31.9351 57.164 32.4442C57.164 32.9533 57.164 33.026 56.873 33.3169C56.8003 33.4624 56.6549 33.6078 56.364 33.6805C56.6719 33.8037 56.8755 34.0312 56.9749 34.1422C56.9928 34.1622 57.0074 34.1785 57.0185 34.1896C57.164 34.4805 57.2367 34.8441 57.2367 35.0623C57.2367 35.4987 57.0912 35.9351 56.8003 36.226C56.364 36.6624 55.7094 36.7351 55.4185 36.7351H54.1822V30.7714H55.4185V30.6987ZM55.3458 33.1714C55.564 33.1714 55.7822 33.0987 55.8549 32.9533C56.0003 32.8078 56.0731 32.5169 56.0731 32.3715C56.0731 32.226 56.0731 32.0078 55.8549 31.8624C55.7822 31.7896 55.564 31.7169 55.3458 31.7169V33.1714ZM55.3458 35.6442C55.564 35.6442 55.7822 35.6441 55.8549 35.426C56.0003 35.2805 56.0731 35.1351 56.0731 34.8442C56.0731 34.5532 56.0003 34.3351 55.8549 34.1896C55.7094 34.0442 55.4912 33.9714 55.3458 33.9714V35.5714V35.6442ZM57.6003 30.6987V36.6623H60.0004V35.5714H58.764V30.6987H57.6003ZM60.364 36.6623V30.6987H62.764V31.7896H61.6003V33.0987H62.6185V34.2623H61.6003V35.5714H62.8367V36.6623H60.4367H60.364ZM64.2912 33.8987L65.3094 36.6623H65.3821H66.6185L65.6003 33.9714C66.1821 33.6078 66.4731 33.026 66.4731 32.4442C66.4731 31.8623 66.2549 31.2805 65.7458 30.9896C65.3821 30.6987 64.8731 30.6987 64.4367 30.6987H63.1276V36.6623H64.2912V33.8987ZM64.4367 33.3169H64.2185V31.7169H64.4367C64.9458 31.7169 65.164 32.0805 65.164 32.5169C65.164 32.9532 64.9458 33.3169 64.4367 33.3169ZM69.4549 32.1532C69.2367 31.9351 68.9458 31.7896 68.5822 31.7896C68.2185 31.7896 68.0004 32.0078 68.0004 32.3715C68.0004 32.8177 68.3496 33.0683 68.7419 33.3499C69.2448 33.7109 69.8185 34.1227 69.8185 35.0623C69.8185 36.7351 69.2367 36.8805 68.1458 36.8805C67.3525 36.8805 67.3284 36.8421 67.2624 36.7372C67.2376 36.6979 67.207 36.6492 67.1276 36.5896V35.426L67.1277 35.426C67.4186 35.5714 67.7095 35.7169 68.0004 35.7169C68.2913 35.7169 68.7276 35.4987 68.7276 35.0623V34.7714C68.6626 34.5764 68.3652 34.3814 68.147 34.2383C68.121 34.2213 68.0962 34.2051 68.0731 34.1896C67.4185 33.7533 66.9822 33.3169 66.9822 32.4442C66.9822 31.5714 67.564 30.6987 68.5094 30.6987C69.2351 30.6987 69.2753 30.7415 69.3863 30.8601C69.4199 30.8961 69.46 30.9389 69.5276 30.9896V32.1532H69.4549ZM71.7094 31.4987C71.7094 31.9351 71.3458 32.2987 70.9094 32.2987C70.4731 32.2987 70.1094 31.9351 70.1094 31.4987C70.1094 31.0624 70.4731 30.6987 70.9094 30.6987C71.3458 30.6987 71.7094 31.0624 71.7094 31.4987Z" fill="#ADBDCC" fill-rule="evenodd"/>
</svg>