<?xml version="1.0" encoding="utf-8"?>
<svg xmlns="http://www.w3.org/2000/svg" fill="none" height="40" viewBox="0 0 100 40" width="100">
<path d="M38.8359 6.18537V0.367188H42.1086C43.2723 0.367188 43.7813 1.09446 43.7813 1.82173C43.7813 2.54901 43.345 3.05809 42.7631 3.13082C43.4177 3.20354 43.854 3.78536 43.854 4.58536C43.854 5.38536 43.2723 6.18537 42.1086 6.18537H38.6904H38.8359ZM40.3631 2.62176H41.8177C42.1086 2.62176 42.3268 2.40357 42.3268 2.11266C42.3268 1.82175 42.1086 1.60356 41.8177 1.60356H40.3631V2.62176ZM40.3631 4.949H41.8904C42.254 4.949 42.4723 4.73085 42.4723 4.43994C42.4723 4.14903 42.254 3.85809 41.8904 3.85809H40.3631V4.949Z" fill="white"/>
<path d="M44.7998 6.18537V0.367188H49.0907V1.60356H46.3271V2.54901H49.018V3.85809H46.3271V4.87629H49.0907V6.11266H44.7998V6.18537Z" fill="white"/>
<path d="M50.3269 4.29448C50.7632 4.73084 51.4178 5.09446 52.2178 5.09446C53.0178 5.09446 53.0178 4.87627 53.0178 4.58536C53.0178 4.29445 52.6541 4.14901 51.9996 4.00355C51.0541 3.78537 49.6723 3.56719 49.6723 2.18537C49.6723 0.803551 50.4723 0.367188 51.9996 0.367188C53.5269 0.367188 53.745 0.658123 54.3996 1.16721L53.5996 2.25812C53.0905 1.82176 52.5087 1.67627 51.9269 1.67627C51.3451 1.67627 51.2723 1.89448 51.2723 2.11266C51.2723 2.33084 51.636 2.54903 52.2905 2.62176C53.236 2.83994 54.5451 3.13085 54.5451 4.43994C54.5451 5.74903 53.6723 6.40354 52.1451 6.40354C50.6178 6.40354 50.1814 6.03992 49.5996 5.4581L50.3996 4.36719L50.3269 4.29448Z" fill="white"/>
<path d="M56.5092 6.18537V1.67627H54.9092V0.367188H59.6365V1.67627H58.0364V6.18537H56.5092Z" fill="white"/>
<path d="M32.7998 12.0756C32.7998 10.2574 34.1817 9.09375 35.9271 9.09375C37.6726 9.09375 38.1089 9.89378 38.4726 10.621L37.1634 11.2029C36.9453 10.7665 36.5089 10.3301 35.8544 10.3301C34.9816 10.3301 34.2544 11.0574 34.2544 12.0028C34.2544 12.9483 34.9089 13.6756 35.8544 13.6756C36.7998 13.6756 36.9453 13.312 37.1634 12.8029L38.4726 13.3847C38.1089 14.1119 37.3089 14.9119 35.9271 14.9119C34.5453 14.9119 32.7998 13.6756 32.7998 11.9301V12.0756Z" fill="white"/>
<path d="M43.1267 14.9119L42.8358 14.0392H40.4358L40.1449 14.9119H38.5449L40.7267 9.09375H42.6176L44.7994 14.9119H43.1995H43.1267ZM41.5995 10.4028L40.7994 12.7301H42.3995L41.5995 10.4028Z" fill="white"/>
<path d="M45.5271 13.021C45.9634 13.4574 46.618 13.821 47.418 13.821C48.218 13.821 48.218 13.6028 48.218 13.3119C48.218 13.021 47.8544 12.8756 47.1998 12.7301C46.2544 12.5119 44.8726 12.2938 44.8726 10.9119C44.8726 9.53011 45.6726 9.09375 47.1998 9.09375C48.7271 9.09375 48.9453 9.38469 49.5998 9.89378L48.7998 10.9847C48.2907 10.5483 47.7089 10.4028 47.1271 10.4028C46.5453 10.4028 46.4726 10.621 46.4726 10.8392C46.4726 11.0574 46.8362 11.2756 47.4907 11.3483C48.4362 11.5665 49.7453 11.8574 49.7453 13.1665C49.7453 14.4756 48.8725 15.1301 47.3453 15.1301C45.818 15.1301 45.3816 14.7665 44.7998 14.1847L45.5998 13.0938L45.5271 13.021Z" fill="white"/>
<path d="M50.3994 14.9119V9.09375H51.9267V14.9119H50.3994Z" fill="white"/>
<path d="M56.9453 14.9119L54.4726 11.421V14.9119H52.9453V9.09375H54.4726L56.7998 12.4392V9.09375H58.3271V14.9119H56.8726H56.9453Z" fill="white"/>
<path d="M62.2542 9.02148C63.9997 9.02148 65.3815 10.2578 65.3815 12.0033C65.3815 13.7487 64.0724 14.9851 62.2542 14.9851C60.436 14.9851 59.127 13.7487 59.127 12.0033C59.127 10.2578 60.436 9.02148 62.2542 9.02148ZM62.2542 10.3306C61.3088 10.3306 60.6543 11.0578 60.6543 12.0033C60.6543 12.9487 61.3088 13.676 62.2542 13.676C63.1997 13.676 63.8542 12.9487 63.8542 12.0033C63.8542 11.0578 63.1997 10.3306 62.2542 10.3306Z" fill="white"/>
<path d="M16.2182 23.7837L16.5091 23.4201C16.8728 23.8565 17.5273 24.2928 18.3273 24.2928C19.491 24.2928 19.8546 23.6383 19.8546 23.1292C19.8546 21.3837 16.3637 22.3292 16.3637 20.2928C16.3637 18.2565 17.2364 18.7655 18.2546 18.7655C19.2728 18.7655 19.7819 19.0565 20.2182 19.5656L19.8546 19.9292C19.4182 19.4201 18.8364 19.2019 18.1819 19.2019C17.5273 19.2019 16.8 19.6383 16.8 20.2928C16.8 21.8201 20.291 20.9474 20.291 23.1292C20.291 25.311 19.7818 24.8019 18.2546 24.8019C16.7273 24.8019 16.5819 24.4383 16.1455 23.8565L16.2182 23.7837Z" fill="white"/>
<path d="M25.8178 24.5838V21.8202H22.1087V24.5838H21.5996V18.7656H22.1087V21.3838H25.8178V18.7656H26.3269V24.5838H25.8178Z" fill="white"/>
<path d="M27.5635 21.6752C27.5635 20.0024 28.6544 18.6934 30.3998 18.6934C32.1453 18.6934 33.2362 20.0024 33.2362 21.6752C33.2362 23.3479 32.1453 24.657 30.3998 24.657C28.6544 24.657 27.5635 23.3479 27.5635 21.6752ZM32.6544 21.6752C32.6544 20.2206 31.7816 19.1297 30.3271 19.1297C28.8726 19.1297 27.9998 20.2206 27.9998 21.6752C27.9998 23.1297 28.8726 24.2206 30.3271 24.2206C31.7816 24.2206 32.6544 23.1297 32.6544 21.6752Z" fill="white"/>
<path d="M37.8186 24.5838L36.2186 22.1838H34.9095V24.5838H34.4004V18.7656H36.5822C37.6004 18.7656 38.3277 19.4202 38.3277 20.4384C38.3277 21.4566 37.6004 22.1111 36.7277 22.1111L38.4004 24.5838H37.8186ZM37.8913 20.4384C37.8913 19.7111 37.3822 19.202 36.5822 19.202H34.9822V21.6747H36.5822C37.3822 21.6747 37.8913 21.1657 37.8913 20.4384Z" fill="white"/>
<path d="M41.0179 24.5838V19.202H39.127V18.7656H43.4179V19.202H41.5269V24.5838H41.0179Z" fill="white"/>
<path d="M44.3633 24.5838V18.7656H44.8724V24.1475H47.7087V24.5838H44.3633Z" fill="white"/>
<path d="M48.6543 24.5838V18.7656H49.1634V24.5838H48.6543Z" fill="white"/>
<path d="M50.3276 23.7837L50.6185 23.4201C50.9822 23.8565 51.6367 24.2928 52.4367 24.2928C53.6003 24.2928 53.964 23.6383 53.964 23.1292C53.964 21.3837 50.4731 22.3292 50.4731 20.2928C50.4731 18.2565 51.3458 18.7655 52.364 18.7655C53.3822 18.7655 53.8913 19.0565 54.3276 19.5656L53.964 19.9292C53.5276 19.4201 52.9458 19.2019 52.2913 19.2019C51.6367 19.2019 50.9094 19.6383 50.9094 20.2928C50.9094 21.8201 54.4003 20.9474 54.4003 23.1292C54.4003 25.311 53.8913 24.8019 52.364 24.8019C50.8367 24.8019 50.6912 24.4383 50.2549 23.8565L50.3276 23.7837Z" fill="white"/>
<path d="M57.1634 24.5838V19.202H55.2725V18.7656H59.5634V19.202H57.6725V24.5838H57.1634Z" fill="white"/>
<path d="M62.6186 24.5843V24.1479C64.5822 22.5479 65.8913 21.3843 65.8913 20.2934C65.8913 19.2025 65.2368 19.1297 64.5823 19.1297C63.9277 19.1297 63.2732 19.4206 62.9822 19.857L62.6186 19.5661C63.055 18.9843 63.7095 18.6934 64.5823 18.6934C65.455 18.6934 66.4004 19.2024 66.4004 20.3661C66.4004 21.5297 65.0186 22.8388 63.3459 24.1479H66.4004V24.5843H62.5459H62.6186Z" fill="white"/>
<path d="M67.709 21.6752C67.709 20.2933 68.2908 18.6934 69.8908 18.6934C71.4908 18.6934 72.0726 20.2933 72.0726 21.6752C72.0726 23.057 71.4908 24.657 69.8908 24.657C68.2908 24.657 67.709 23.057 67.709 21.6752ZM71.4908 21.6752C71.4908 20.4388 71.1272 19.1297 69.8908 19.1297C68.6544 19.1297 68.2908 20.4388 68.2908 21.6752C68.2908 22.9115 68.7272 24.2206 69.8908 24.2206C71.0544 24.2206 71.4908 22.8388 71.4908 21.6752Z" fill="white"/>
<path d="M73.0181 24.5843V24.1479C74.9817 22.5479 76.2908 21.3843 76.2908 20.2934C76.2908 19.2025 75.6362 19.1297 74.9817 19.1297C74.3271 19.1297 73.6726 19.4206 73.3817 19.857L73.0181 19.5661C73.4544 18.9843 74.1089 18.6934 74.9817 18.6934C75.8544 18.6934 76.7998 19.2024 76.7998 20.3661C76.7998 21.5297 75.4181 22.8388 73.7453 24.1479H76.7998V24.5843H72.9453H73.0181Z" fill="white"/>
<path d="M80.6543 24.5838V22.9838H77.8906V22.5475L80.4361 18.7656H81.0906V22.5475H81.9634V22.9838H81.0906V24.5838H80.5815H80.6543ZM80.6543 19.2747L78.3997 22.5475H80.6543V19.2747Z" fill="white"/>
<path clip-rule="evenodd" d="M12.8002 5.02134C12.1456 5.38497 11.4184 5.38497 10.9093 5.23951C10.182 6.18497 9.45473 7.05768 8.87291 8.00314C10.3275 7.05768 12.5093 6.8395 13.3093 8.73041C11.8547 9.53041 9.60016 10.4759 8.43652 8.58495C7.78198 9.60313 7.2729 10.4759 6.7638 11.4213C7.92744 10.3304 9.81837 10.185 10.6911 11.5668C9.45473 12.585 7.63654 13.894 6.182 12.5849C5.60018 13.9668 5.16383 15.3486 5.01838 16.5849C6.03656 15.2759 7.782 14.4031 9.23655 15.6395C8.21837 16.9486 6.69108 18.6213 4.94562 17.6031C4.8729 18.8395 4.8729 20.0031 5.09109 21.094C5.52745 19.4213 6.90927 17.8941 8.72745 18.6213C8.21836 20.2213 7.34565 22.4031 5.38201 21.9668C5.74565 23.1304 6.18199 24.294 6.7638 25.3122C6.7638 23.6395 7.78199 21.894 9.6729 22.185C9.60017 23.785 9.23652 25.9668 7.34561 26.2577C8.00016 27.2759 8.80019 28.0759 9.74565 28.8759C9.30929 27.2031 9.74564 25.0941 11.782 24.8032C12.1456 26.4759 12.2911 28.8031 10.3275 29.3849C12.4365 31.2031 14.9093 32.4395 17.0911 33.1668C18.2547 35.6395 10.8366 30.9849 9.74565 30.0395C8.65474 31.7849 6.54563 30.985 5.09109 30.2577C5.60018 28.8759 7.20019 28.294 8.50928 28.9486C7.85473 28.294 7.20016 27.5668 6.61834 26.6941C5.23652 28.2941 3.20019 27.0577 1.96382 25.9668C2.982 24.5122 4.87292 24.6577 6.10929 25.7486C5.52747 24.6577 5.01836 23.5668 4.72745 22.4031C2.982 23.4213 1.45471 21.7486 0.436523 20.5122C1.67289 19.3486 3.5638 19.9304 4.43652 21.2395C4.29107 20.1486 4.21838 18.985 4.2911 17.7486C2.32747 18.185 1.38199 16.0031 0.945623 14.4031C2.61835 13.7486 4.07291 14.985 4.50928 16.6577C4.72746 15.3486 5.0911 14.0395 5.74565 12.5849C3.70929 12.5849 3.20019 10.2577 3.05473 8.58495C5.01837 8.22131 6.03656 10.0395 6.10929 11.785C6.47292 10.5486 7.12744 9.4577 7.85471 8.29407C5.9638 7.78498 6.10928 5.45768 6.32746 4.00314C8.00019 4.07587 8.94563 5.67588 8.72745 7.20316C10.0365 5.4577 12.0729 1.60315 14.6183 3.05769C14.5456 2.98497 14.1093 4.36677 12.9456 4.94858L12.8002 5.02134Z" fill="#ADBDCC" fill-rule="evenodd"/>
<path clip-rule="evenodd" d="M87.2005 5.02192C87.8551 5.38555 88.5823 5.38554 89.0914 5.24009C89.8187 6.18554 90.5459 7.05826 91.1278 8.00372C89.6732 7.05826 87.4914 6.84008 86.6914 8.73099C88.146 9.53099 90.4005 10.4764 91.5641 8.58553C92.2187 9.60371 92.7278 10.4765 93.2369 11.4219C92.0732 10.331 90.1823 10.1856 89.3096 11.5674C90.5459 12.5856 92.3641 13.8946 93.8187 12.5855C94.4005 13.9673 94.8368 15.3492 94.9823 16.5855C94.1096 15.2037 92.2187 14.331 90.7641 15.5674C91.7823 16.8765 93.3096 18.5492 95.055 17.531C95.1278 18.7674 95.1278 19.931 94.9096 21.0219C94.4732 19.3492 93.0914 17.8219 91.2732 18.5492C91.7823 20.1492 92.655 22.331 94.6187 21.8947C94.255 23.0583 93.8187 24.2219 93.2369 25.2401C93.2369 23.5674 92.2187 21.8219 90.3278 22.1128C90.4005 23.7128 90.7641 25.8946 92.6551 26.1855C92.0005 27.2037 91.2005 28.0037 90.255 28.8037C90.6914 27.131 90.255 25.0219 88.2187 24.731C87.855 26.4037 87.7096 28.731 89.6732 29.3128C87.5641 31.131 85.0914 32.3674 82.9096 33.0947C81.7459 35.5674 89.1641 30.9128 90.255 29.9674C91.3459 31.7128 93.455 30.9129 94.9096 30.1856C94.4005 28.8038 92.8005 28.2219 91.4914 28.8765C92.1459 28.2219 92.8005 27.4947 93.3823 26.6219C94.7641 28.2219 96.8005 26.9856 98.0368 25.8947C97.0187 24.4401 95.1277 24.5855 93.8914 25.6764C94.4732 24.5855 94.9823 23.4946 95.2732 22.331C97.0187 23.3492 98.546 21.6765 99.5641 20.4401C98.3278 19.2765 96.4369 19.8583 95.5641 21.1674C95.7096 20.0765 95.7823 18.9128 95.7096 17.6764C97.6732 18.1128 98.6187 15.931 99.055 14.331C97.3823 13.6765 95.9278 14.9128 95.4914 16.5855C95.2732 15.2764 94.9096 13.9674 94.255 12.5128C96.2914 12.5128 96.8005 10.1855 96.9459 8.51282C94.9823 8.14918 93.9641 9.96738 93.8914 11.7128C93.3823 10.6219 92.8005 9.531 92.0732 8.51282C93.8914 7.931 93.8187 5.67643 93.6005 4.22189C91.9278 4.29462 90.9823 5.89463 91.2005 7.42191C89.8914 5.67645 87.855 1.8219 85.3096 3.27644C85.455 3.05826 85.8914 4.4401 87.055 5.02192H87.2005Z" fill="#ADBDCC" fill-rule="evenodd"/>
<path clip-rule="evenodd" d="M22.4013 27.9297H77.5285L80.4376 33.7478L77.5285 39.4933H22.4013L19.4922 33.7478L22.4013 27.9297ZM31.128 36.5853L30.9098 35.5671H29.7462L29.528 36.5853H28.3643L29.7462 30.6217H30.9825L32.4371 36.5853H31.2007H31.128ZM30.5098 33.8218C30.5598 34.0884 30.6098 34.3551 30.6738 34.6217H29.8916C29.9262 34.4314 29.9649 34.2411 30.0038 34.0498C30.1285 33.437 30.2552 32.8141 30.2552 32.149C30.328 32.4399 30.328 32.6581 30.328 32.949C30.4007 33.2399 30.4553 33.5308 30.5098 33.8217L30.5098 33.8218ZM34.4007 31.7126C34.7643 31.7126 35.0553 31.8581 35.2734 32.0763H35.3461V30.9127C35.2785 30.862 35.2384 30.8191 35.2048 30.7832C35.0938 30.6646 35.0537 30.6217 34.328 30.6217C33.3825 30.6217 32.8007 31.4945 32.8007 32.3672C32.8007 33.2399 33.2371 33.6762 33.8916 34.1126C33.9147 34.128 33.9394 34.1442 33.9652 34.1611L33.9654 34.1612C34.1836 34.3043 34.4811 34.4994 34.5462 34.6944V34.9854C34.5462 35.4217 34.1098 35.6399 33.8189 35.6399C33.528 35.6399 33.2371 35.4945 32.9462 35.3491L32.9462 35.349V36.5126C33.0255 36.5722 33.0562 36.6209 33.0809 36.6602C33.1469 36.7651 33.1711 36.8036 33.9644 36.8036C35.0553 36.8036 35.6371 36.6581 35.6371 34.9854C35.6371 34.0457 35.0633 33.6339 34.5605 33.2729C34.1681 32.9913 33.8189 32.7406 33.8189 32.2944C33.8189 31.9308 34.0371 31.7126 34.4007 31.7126ZM38.2552 36.5853L37.1643 33.5308V36.5853H36.0007V30.6217H37.1643V33.3126L38.1825 30.6217H39.4189L38.328 33.3853L39.5644 36.5853H38.328H38.2552ZM43.7098 35.0581C43.7825 34.6945 43.7825 34.2581 43.7825 33.8218V33.3853V33.2399H41.8916V34.3308H42.6189C42.6189 34.3921 42.621 34.4577 42.6232 34.5255V34.5256V34.5256V34.5256V34.5256V34.5257V34.5257V34.5257V34.5258C42.6391 35.0212 42.6591 35.6399 41.8916 35.6399C41.0189 35.6399 41.0189 34.1855 41.0189 33.6036V33.6035C41.0189 33.0217 41.0916 31.5671 41.8916 31.5671C42.328 31.5671 42.4734 32.0036 42.4734 32.3672L43.6371 31.9308C43.6066 31.8189 43.5832 31.7113 43.5609 31.609C43.424 30.9795 43.3304 30.549 41.8916 30.549C40.2189 30.549 39.7825 32.3672 39.7825 33.6763C39.7825 34.9853 40.2916 36.7309 41.8916 36.7309C42.9098 36.7309 43.4916 36.0035 43.7098 35.0581ZM46.9098 36.5853L46.6916 35.5671H45.528L45.3098 36.5853H44.1462L45.528 30.6217H46.7643L48.2189 36.5853H46.9825H46.9098ZM46.3643 33.8217C46.4143 34.0884 46.4643 34.3551 46.5284 34.6217H45.7462C45.7808 34.4314 45.8195 34.2411 45.8584 34.0498C45.9831 33.437 46.1098 32.8141 46.1098 32.149C46.1825 32.4398 46.1825 32.658 46.1825 32.9487V32.949C46.2552 33.2399 46.3098 33.5307 46.3643 33.8216L46.3643 33.8217ZM52.3643 32.2944L52.6553 36.5853H53.8916L53.3098 30.6217H51.7098L51.2007 34.1854L50.6189 30.6217H49.0916L48.5825 36.5853H49.8189L50.1098 32.2944V33.0217C50.1098 33.1671 50.1462 33.3126 50.1825 33.4581C50.2189 33.6035 50.2552 33.749 50.2552 33.8945L50.8371 36.5853H51.7098L52.2189 33.6763C52.2916 33.2399 52.3643 32.7308 52.3643 32.2944ZM55.4189 30.6217H55.4189C55.7099 30.6217 56.2916 30.6217 56.6553 31.0581C56.9462 31.349 57.1643 31.8581 57.1643 32.3672V32.3674C57.1643 32.8763 57.1643 32.949 56.8734 33.2399C56.8007 33.3854 56.6553 33.5308 56.3643 33.6035C56.6723 33.7267 56.876 33.9542 56.9753 34.0652L56.9754 34.0653C56.9933 34.0853 57.0078 34.1015 57.0189 34.1126C57.1644 34.4035 57.2371 34.7672 57.2371 34.9854C57.2371 35.4217 57.0916 35.8581 56.8007 36.149C56.3643 36.5854 55.7098 36.6581 55.4189 36.6581H54.1825V30.6945H55.4189V30.6217ZM55.3461 33.0945C55.5643 33.0945 55.7825 33.0217 55.8552 32.8763C56.0007 32.7308 56.0734 32.4399 56.0734 32.2944C56.0734 32.149 56.0734 31.9308 55.8552 31.7854C55.7825 31.7126 55.5643 31.6399 55.3461 31.6399V33.0945ZM55.3461 35.5671H55.3463C55.5644 35.5671 55.7825 35.5671 55.8552 35.349C56.0007 35.2036 56.0734 35.0581 56.0734 34.7672C56.0734 34.4763 56.0007 34.2581 55.8552 34.1126C55.7098 33.9671 55.4916 33.8945 55.3461 33.8945V35.4944V35.5671ZM58.7643 30.6217H57.6007V36.5853H60.0007V35.4944H58.7643V30.6217ZM60.3643 30.6217H62.7643V31.7126H61.6007V33.0217H62.6189V34.1854H61.6007V35.4944H62.8371V36.5853H60.4371H60.3643V30.6217ZM64.2189 33.8218L65.2371 36.5853H65.3098H66.5462L65.528 33.8945C66.1098 33.5308 66.4007 32.949 66.4007 32.3672C66.4007 31.7854 66.1825 31.2036 65.6734 30.9127C65.3098 30.6218 64.8007 30.6217 64.3643 30.6217H63.0553V36.5853H64.2189V33.8218ZM64.4371 33.2399H64.2189V31.6399H64.4371C64.9461 31.6399 65.1643 32.0036 65.1643 32.4399C65.1643 32.8763 64.9461 33.2399 64.4371 33.2399ZM69.4553 32.0763C69.2371 31.8581 68.9462 31.7126 68.5825 31.7126C68.2189 31.7126 68.0007 31.9308 68.0007 32.2944C68.0007 32.7406 68.3499 32.9913 68.7423 33.2729C69.2452 33.6339 69.8189 34.0457 69.8189 34.9854C69.8189 36.6581 69.2371 36.8036 68.1462 36.8036C67.3529 36.8036 67.3287 36.7651 67.2628 36.6602C67.238 36.6209 67.2074 36.5722 67.128 36.5126V35.349L67.1281 35.3491C67.4189 35.4945 67.7098 35.6399 68.0007 35.6399C68.2916 35.6399 68.728 35.4217 68.728 34.9854V34.6944C68.663 34.4994 68.3654 34.3043 68.1472 34.1612L68.147 34.1611C68.1212 34.1442 68.0965 34.128 68.0734 34.1126C67.4189 33.6762 66.9825 33.2399 66.9825 32.3672C66.9825 31.4945 67.5644 30.6217 68.5098 30.6217C69.2355 30.6217 69.2756 30.6646 69.3866 30.7832C69.4202 30.8191 69.4603 30.862 69.528 30.9127V32.0763H69.4553ZM71.7098 31.4217C71.7098 31.8581 71.3462 32.2217 70.9098 32.2217C70.4734 32.2217 70.1098 31.8581 70.1098 31.4217C70.1098 30.9854 70.4734 30.6217 70.9098 30.6217C71.3462 30.6217 71.7098 30.9854 71.7098 31.4217Z" fill="#ADBDCC" fill-rule="evenodd"/>
</svg>