<?xml version="1.0" encoding="utf-8"?>
<svg xmlns="http://www.w3.org/2000/svg" fill="none" height="41" viewBox="0 0 93 41" width="93">
<g clip-path="url(#clip0_2062_79992)">
<path clip-rule="evenodd" d="M12.6547 5.8397C12.0001 6.20333 11.2729 6.20333 10.7638 6.05787C10.0365 7.00333 9.30918 7.87604 8.72736 8.8215C10.1819 7.87604 12.3637 7.65786 13.1637 9.54877C11.7092 10.3488 9.45465 11.2942 8.29102 9.40331C7.63647 10.4215 7.12734 11.2942 6.61825 12.2397C7.78189 11.1488 9.67282 11.0033 10.5455 12.3852C9.30918 13.4033 7.49103 14.7124 6.03649 13.4033C5.45467 14.7851 5.01824 16.1669 4.87278 17.4033C5.89096 16.0942 7.63645 15.2215 9.091 16.4579C8.07282 17.767 6.54553 19.4397 4.80007 18.4215C4.72734 19.6579 4.7274 20.8215 4.94558 21.9124C5.38194 20.2397 6.76376 18.7124 8.58194 19.4397C8.07285 21.0397 7.20005 23.2215 5.23642 22.7851C5.60005 23.9488 6.03643 25.1124 6.61825 26.1306C6.61825 24.4579 7.63644 22.7124 9.52734 23.0033C9.45462 24.6033 9.09102 26.7851 7.20011 27.076C7.85465 28.0942 8.6546 28.8942 9.60005 29.6942C9.16369 28.0215 9.60009 25.9124 11.6365 25.6215C12.0001 27.2942 12.1455 29.6215 10.1819 30.2033C12.291 32.0215 14.7638 33.2578 16.9456 33.9851C18.1092 36.4578 10.691 31.8034 9.60005 30.8579C8.50914 32.6034 6.40012 31.8033 4.94558 31.076C5.45467 29.6942 7.05463 29.1124 8.36373 29.767C7.70918 29.1124 7.05465 28.3851 6.47283 27.5124C5.09102 29.1124 3.05463 27.8761 1.81827 26.7851C2.83645 25.3306 4.72733 25.4761 5.96369 26.567C5.38187 25.4761 4.87285 24.3851 4.58194 23.2215C2.83649 24.2397 1.3092 22.567 0.291016 21.3306C1.52738 20.167 3.41829 20.7488 4.29102 22.0579C4.14556 20.967 4.07278 19.8033 4.14551 18.567C2.18187 19.0033 1.23643 16.8215 0.800071 15.2215C2.4728 14.5669 3.92736 15.8033 4.36373 17.4761C4.58191 16.167 4.94551 14.8579 5.60005 13.4033C3.56369 13.4033 3.05463 11.076 2.90918 9.40331C4.87282 9.03967 5.89096 10.8579 5.96369 12.6033C6.32733 11.367 6.98189 10.2761 7.70916 9.11243C5.81825 8.60333 5.96373 6.27604 6.18191 4.8215C7.85463 4.89423 8.80012 6.49424 8.58194 8.02152C9.89103 6.27606 11.9274 2.42151 14.4728 3.87605C14.4001 3.80333 13.9637 5.18513 12.8001 5.76694L12.6547 5.8397Z" fill="#ADBDCC" fill-rule="evenodd"/>
<path clip-rule="evenodd" d="M80.1457 5.84028C80.8003 6.20391 81.5276 6.2039 82.0367 6.05845C82.764 7.0039 83.4912 7.87662 84.073 8.82208C82.6185 7.87662 80.4367 7.65844 79.6367 9.54935C81.0912 10.3493 83.3457 11.2948 84.5094 9.40388C85.1639 10.4221 85.673 11.2948 86.1821 12.2403C85.0185 11.1494 83.1276 11.0039 82.2548 12.3857C83.4912 13.4039 85.3094 14.713 86.764 13.4039C87.3458 14.7857 87.7822 16.1675 87.9276 17.4039C87.0549 16.0221 85.1639 15.1494 83.7094 16.3857C84.7276 17.6948 86.2549 19.3675 88.0003 18.3493C88.073 19.5857 88.0731 20.7494 87.8549 21.8403C87.4185 20.1675 86.0367 18.6403 84.2185 19.3675C84.7276 20.9675 85.6003 23.1493 87.564 22.713C87.2003 23.8766 86.7639 25.0403 86.1821 26.0584C86.1821 24.3857 85.1639 22.6403 83.273 22.9312C83.3458 24.5312 83.7094 26.713 85.6003 27.0039C84.9457 28.0221 84.1458 28.8221 83.2003 29.6221C83.6367 27.9493 83.2003 25.8403 81.1639 25.5493C80.8003 27.2221 80.6548 29.5494 82.6185 30.1312C80.5094 31.9494 78.0367 33.1857 75.8549 33.913C74.6913 36.3857 82.1094 31.7311 83.2003 30.7857C84.2912 32.5311 86.4003 31.7312 87.8549 31.0039C87.3458 29.6221 85.7457 29.0402 84.4367 29.6948C85.0912 29.0402 85.7457 28.313 86.3275 27.4402C87.7094 29.0402 89.7458 27.8039 90.9821 26.713C89.9639 25.2584 88.0731 25.4039 86.8367 26.4948C87.4185 25.4039 87.9276 24.313 88.2185 23.1494C89.964 24.1675 91.4912 22.4948 92.5094 21.2584C91.273 20.0948 89.3821 20.6766 88.5094 21.9857C88.6548 20.8948 88.7276 19.7312 88.6549 18.4948C90.6185 18.9312 91.564 16.7494 92.0003 15.1494C90.3276 14.4948 88.873 15.7312 88.4367 17.4039C88.2185 16.0948 87.8549 14.7857 87.2003 13.3312C89.2367 13.3312 89.7458 11.0039 89.8912 9.33117C87.9276 8.96754 86.9094 10.7857 86.8367 12.5311C86.3276 11.4402 85.7458 10.3494 85.0185 9.33117C86.8367 8.74936 86.7639 6.49479 86.5458 5.04025C84.873 5.11298 83.9276 6.71299 84.1457 8.24027C82.8366 6.49481 80.8003 2.64026 78.2548 4.0948C78.4003 3.87662 78.8367 5.25846 80.0003 5.84028H80.1457Z" fill="#ADBDCC" fill-rule="evenodd"/>
<path d="M18.5449 17.914V11.1504H23.4904V12.6049H20.2904V13.7686H23.4176V15.2231H20.2904V16.4595H23.4904V17.914H18.5449Z" fill="white"/>
<path d="M28.8726 17.9145L27.4181 15.66L25.9635 17.9145H23.8545L26.2544 14.4236L23.9999 11.0781H26.0363L27.3453 13.1872L28.6545 11.0781H30.7636L28.5818 14.3509L30.909 17.8418H28.8726V17.9145Z" fill="white"/>
<path d="M30.8359 14.5691C30.8359 12.46 32.4359 11.0781 34.4723 11.0781C36.5087 11.0781 37.0177 12.0236 37.4541 12.8963L35.9268 13.6236C35.7087 13.1145 35.1269 12.6054 34.3996 12.6054C33.3087 12.6054 32.5814 13.4782 32.5814 14.5691C32.5814 15.66 33.3814 16.5327 34.3996 16.5327C35.4178 16.5327 35.7087 16.0963 35.9268 15.5145L37.4541 16.2418C37.0177 17.1145 36.145 18.06 34.4723 18.06C32.7996 18.06 30.8359 16.6054 30.8359 14.5691Z" fill="white"/>
<path d="M38.1816 17.914V11.1504H43.1271V12.6049H39.9271V13.7686H43.0543V15.2231H39.9271V16.4595H43.1271V17.914H38.1816Z" fill="white"/>
<path d="M44.2178 17.914V11.1504H45.9632V16.3868H48.7268V17.914H44.2178Z" fill="white"/>
<path d="M49.5996 17.914V11.1504H51.3451V16.3868H54.1088V17.914H49.5996Z" fill="white"/>
<path d="M54.9814 17.914V11.1504H59.9269V12.6049H56.7269V13.7686H59.8542V15.2231H56.7269V16.4595H59.9269V17.914H54.9814Z" fill="white"/>
<path d="M65.5993 17.914L62.7631 13.8413V17.914H61.0176V11.1504H62.8358L65.5993 15.0776V11.1504H67.3448V17.914H65.6721H65.5993Z" fill="white"/>
<path d="M70.0355 17.914V12.6776H68.1445V11.1504H73.6719V12.6776H71.7809V17.914H70.0355Z" fill="white"/>
<path d="M23.3453 25.8421C23.8544 26.3512 24.5817 26.7148 25.5272 26.7148C26.4726 26.7148 26.4727 26.4239 26.4727 26.1329C26.4727 25.842 26.0363 25.6239 25.309 25.4057C24.2181 25.1875 22.6181 24.8966 22.6181 23.2966C22.6181 21.6966 23.5636 21.1875 25.309 21.1875C27.0545 21.1875 27.3453 21.4784 28.0726 22.1329L27.1272 23.3693C26.5454 22.933 25.8181 22.642 25.2362 22.642C24.6544 22.642 24.4363 22.8602 24.4363 23.1511C24.4363 23.4421 24.8726 23.6602 25.5999 23.8057C26.6908 24.0238 28.2908 24.3875 28.2908 25.9148C28.2908 27.442 27.2726 28.1693 25.4545 28.1693C23.6363 28.1693 23.1272 27.7329 22.4727 27.0784L23.4181 25.7693L23.3453 25.8421Z" fill="white"/>
<path d="M29.0908 21.3325H30.909V25.3325C30.909 26.1325 31.3454 26.7143 32.2908 26.7143C33.2363 26.7143 33.6727 26.1325 33.6727 25.3325V21.3325H35.4909V25.3325C35.4909 27.0052 34.5454 28.2416 32.3635 28.2416C30.1817 28.2416 29.2362 27.0052 29.2362 25.3325V21.2598L29.0908 21.3325Z" fill="white"/>
<path d="M36.6543 28.0957V21.332H40.0724C41.5997 21.332 42.3998 22.3502 42.3998 23.5866C42.3998 24.8229 41.5997 25.8411 40.0724 25.8411H38.3998V28.1684H36.6543V28.0957ZM39.7815 22.7866H38.3998V24.3138H39.7815C40.2179 24.3138 40.5816 24.0229 40.5816 23.5866C40.5816 23.1502 40.2179 22.7866 39.7815 22.7866Z" fill="white"/>
<path d="M43.1992 28.0957V21.332H46.6174C48.1446 21.332 48.9447 22.3502 48.9447 23.5866C48.9447 24.8229 48.1446 25.8411 46.6174 25.8411H44.9447V28.1684H43.1992V28.0957ZM46.3264 22.7866H44.9447V24.3138H46.3264C46.7628 24.3138 47.1265 24.0229 47.1265 23.5866C47.1265 23.1502 46.7628 22.7866 46.3264 22.7866Z" fill="white"/>
<path d="M53.0172 21.2598C55.1263 21.2598 56.6536 22.7143 56.6536 24.7507C56.6536 26.7871 55.1263 28.2416 53.0172 28.2416C50.9081 28.2416 49.3809 26.7871 49.3809 24.7507C49.3809 22.7143 50.9081 21.2598 53.0172 21.2598ZM53.0172 22.7871C51.8536 22.7871 51.199 23.6598 51.199 24.7507C51.199 25.8416 51.9263 26.7143 53.0172 26.7143C54.1081 26.7143 54.8354 25.8416 54.8354 24.7507C54.8354 23.6598 54.1081 22.7871 53.0172 22.7871Z" fill="white"/>
<path d="M61.3082 28.0957L60.1445 25.7684H59.2718V28.0957H57.5264V21.332H60.9446C62.4719 21.332 63.2718 22.3502 63.2718 23.5866C63.2718 24.8229 62.5445 25.4047 61.89 25.6229L63.2718 28.0957H61.2354H61.3082ZM60.6537 22.7866H59.2718V24.3138H60.6537C61.09 24.3138 61.5264 24.0229 61.5264 23.5138C61.5264 23.0048 61.1628 22.7866 60.6537 22.7866Z" fill="white"/>
<path d="M65.6722 28.0957V22.8593H63.7812V21.332H69.3086V22.8593H67.4176V28.0957H65.6722Z" fill="white"/>
<path d="M37.0913 32.5332C37.2367 32.5332 37.3094 32.5332 37.4549 32.6059C37.6004 32.6059 37.6731 32.7514 37.7458 32.8241C37.8186 32.8969 37.8912 33.0423 37.964 33.1151C37.964 33.2605 38.0368 33.3332 38.0368 33.4787V39.3696C38.0368 39.515 38.0367 39.6605 37.964 39.7332C37.964 39.8787 37.8186 39.9514 37.7458 40.0241C37.6731 40.0969 37.5276 40.1695 37.4549 40.2423C37.3094 40.2423 37.2367 40.315 37.0913 40.2423H31.3458C31.2003 40.2423 31.1276 40.2423 30.9822 40.2423C30.8367 40.2423 30.764 40.0969 30.6912 40.0241C30.6185 39.9514 30.5458 39.8059 30.4731 39.7332C30.4731 39.5878 30.4004 39.515 30.4004 39.3696V33.4787C30.4004 33.3332 30.4004 33.1878 30.4731 33.1151C30.4731 32.9696 30.6185 32.8969 30.6912 32.8241C30.764 32.7514 30.9094 32.6786 30.9822 32.6059C31.1276 32.6059 31.2003 32.5332 31.3458 32.6059H37.0913V32.5332ZM31.6367 37.9877C31.6367 37.9877 31.4913 37.9877 31.4913 38.0605C31.4913 38.0605 31.4913 38.0605 31.4913 38.1333C31.4913 38.1333 31.4913 38.1332 31.4913 38.206C31.4913 38.206 31.4913 38.2059 31.4913 38.2787C31.4913 38.2787 31.4913 38.2787 31.4913 38.3514C31.4913 38.3514 32.4367 39.2242 34.1822 39.2242C35.9276 39.2242 36.873 38.4241 36.873 38.3514C36.873 38.3514 36.9458 38.2787 36.9458 38.206C36.9458 38.206 36.9458 38.0605 36.9458 37.9877C36.9458 37.9877 36.8731 37.915 36.8003 37.915C36.8003 37.915 36.6549 37.915 36.5822 37.915C36.5822 37.915 35.7094 38.6423 34.1822 38.6423C32.6549 38.6423 31.7821 37.915 31.7821 37.915C31.7821 37.915 31.6367 37.915 31.564 37.915L31.6367 37.9877ZM56.6549 35.0059C57.4549 35.0059 57.8185 35.5878 57.8185 36.4605C57.8185 37.3332 57.4549 37.915 56.6549 37.915C55.8549 37.915 55.4913 37.4059 55.4913 36.4605C55.4913 35.515 55.8549 35.0059 56.6549 35.0059ZM34.2549 33.5514C34.2549 33.5514 34.1095 33.5514 34.1095 33.6241C34.1095 33.6241 34.0368 33.7696 34.0368 33.8423V37.6241C34.0368 37.6241 34.0367 37.7696 34.1095 37.8423L34.2549 37.915C34.2549 37.915 34.4004 37.9151 34.4004 37.8423C34.4004 37.8423 34.4731 37.6968 34.4731 37.6241V33.8423C34.4731 33.8423 34.4731 33.6968 34.4004 33.6241L34.2549 33.5514ZM53.964 35.0059C54.2549 35.0059 54.473 35.006 54.6912 35.2242C54.8367 35.3696 54.9822 35.515 54.9822 35.8059C54.9822 35.9514 54.9822 36.0969 54.764 36.0969C54.6186 36.0969 54.5458 36.0968 54.4731 35.8786C54.4731 35.7332 54.4003 35.6605 54.3276 35.5878C54.2549 35.5151 54.1094 35.4423 53.964 35.4423C53.8185 35.4423 53.6731 35.4423 53.5276 35.5878C53.3822 35.7333 53.3095 36.0241 53.3095 36.3878C53.3095 36.7514 53.3094 37.0423 53.5276 37.1878C53.6003 37.3332 53.7458 37.3332 53.964 37.3332C54.1821 37.3332 54.2549 37.3332 54.4004 37.1878C54.4004 37.1878 54.4731 37.0423 54.5458 36.9695C54.5458 36.8241 54.6913 36.7514 54.8367 36.8241C54.9822 36.8241 55.0549 36.9696 54.9822 37.1151C54.9822 37.3332 54.764 37.4787 54.6185 37.6241C54.4731 37.7696 54.2549 37.8423 53.964 37.8423C53.673 37.8423 53.3821 37.7696 53.2367 37.6241C52.9458 37.3332 52.8003 36.9696 52.8003 36.4605C52.8003 35.9514 52.9458 35.5151 53.2367 35.2969C53.3821 35.1514 53.673 35.0059 53.964 35.0059ZM50.4731 35.0059H51.3458C51.9276 35.0059 52.2186 35.4423 52.2186 35.8059C52.2186 36.1696 52.0004 36.4605 51.6367 36.6059L52.0731 37.4787C52.0731 37.6241 52.0731 37.7696 52.0004 37.8423C51.8549 37.8423 51.7094 37.8423 51.7094 37.7696L51.2004 36.7514H50.6912V37.6241C50.6912 37.7696 50.6186 37.8423 50.4731 37.8423C50.3276 37.8423 50.2549 37.7696 50.2549 37.6241V35.3696C50.2549 35.1514 50.3276 35.0787 50.5458 35.0787L50.4731 35.0059ZM42.5458 35.0059C42.764 35.0059 42.9094 35.1514 42.9822 35.3696L43.4185 36.3151L43.7821 37.2605V36.3878V35.2969C43.7821 35.1514 43.8549 35.0787 44.0004 35.0787C44.1458 35.0787 44.2186 35.1514 44.2186 35.2969V37.406C44.2186 37.6969 44.0731 37.8423 43.8549 37.8423C43.6368 37.8423 43.564 37.6969 43.4185 37.4787L42.9822 36.5332L42.5458 35.515V36.4605V37.5514C42.5458 37.6969 42.473 37.7696 42.3276 37.7696C42.1821 37.7696 42.1095 37.6241 42.1095 37.5514V35.4423C42.1095 35.1514 42.2549 35.0059 42.5458 35.0059ZM41.0186 35.0059C41.164 35.0059 41.2367 35.1514 41.2367 35.2242V37.5514C41.2367 37.6969 41.164 37.7696 41.0186 37.7696C40.8731 37.7696 40.8003 37.6241 40.8003 37.5514V35.2242C40.8003 35.0787 40.8731 35.0059 41.0186 35.0059ZM61.0186 35.0059C61.3095 35.0059 61.4549 35.1514 61.4549 35.4423V37.5514C61.4549 37.6969 61.3821 37.7696 61.2367 37.7696C61.0912 37.7696 61.0186 37.6241 61.0186 37.5514V35.515L60.7276 36.5332L60.364 37.5514C60.364 37.6969 60.2185 37.7696 60.0731 37.7696C59.9276 37.7696 59.7821 37.6969 59.7821 37.5514L59.4185 36.5332L59.1277 35.515V36.5332V37.5514C59.1277 37.6969 59.0549 37.7696 58.9094 37.7696C58.764 37.7696 58.6912 37.6241 58.6912 37.5514V35.4423C58.6912 35.1514 58.8368 35.0059 59.1277 35.0059C59.4186 35.0059 59.4913 35.1514 59.564 35.3696L59.9276 36.4605L60.1458 37.1878L60.364 36.4605L60.7276 35.3696C60.8004 35.1514 60.9458 35.0059 61.164 35.0059H61.0186ZM46.764 35.0059C46.9095 35.0059 46.9822 35.0787 46.9822 35.2242C46.9822 35.3696 46.9095 35.4423 46.764 35.4423H46.1822V37.5514C46.1822 37.6969 46.1094 37.7696 45.964 37.7696C45.8185 37.7696 45.7458 37.6241 45.7458 37.5514V35.4423H45.164C45.0185 35.4423 44.9458 35.3696 44.9458 35.2242C44.9458 35.0787 45.0185 35.0059 45.164 35.0059H46.764ZM47.8549 35.0059H49.2367C49.3821 35.0059 49.4549 35.0787 49.4549 35.2242C49.4549 35.3696 49.3821 35.4423 49.2367 35.4423H48.0731V36.0969H49.0913C49.2367 36.0969 49.3095 36.1696 49.3095 36.3151C49.3095 36.4605 49.2367 36.5332 49.0913 36.5332H48.0731V37.3332H49.2367C49.3821 37.3332 49.4549 37.4059 49.4549 37.5514C49.4549 37.6969 49.3821 37.7696 49.2367 37.7696H47.8549C47.6368 37.7696 47.564 37.6241 47.564 37.4787V35.2969C47.564 35.0787 47.6368 35.0059 47.8549 35.0059ZM32.9458 33.6968C32.9458 33.6968 32.8004 33.6968 32.7276 33.6968C32.7276 33.6968 32.6549 33.8423 32.6549 33.915V37.406C32.6549 37.406 32.6549 37.5514 32.7276 37.6241L32.873 37.6968C32.873 37.6968 33.0186 37.6968 33.0186 37.6241C33.0186 37.6241 33.0913 37.4787 33.0913 37.406V33.915C33.0913 33.915 33.0913 33.7696 33.0186 33.7696C33.0186 33.7696 32.9458 33.6968 32.873 33.6968H32.9458ZM35.4913 33.6968C35.4913 33.6968 35.3458 33.6969 35.3458 33.7696C35.3458 33.7696 35.2731 33.915 35.2731 33.9877V37.4787C35.2731 37.4787 35.2731 37.6241 35.3458 37.6968L35.4913 37.7696C35.4913 37.7696 35.6367 37.7695 35.6367 37.6968C35.6367 37.6968 35.7094 37.5514 35.7094 37.4787V33.9877C35.7094 33.9877 35.7094 33.8423 35.6367 33.7696L35.4913 33.6968ZM56.6549 35.4423C56.2186 35.4423 56.0004 35.7332 56.0004 36.4605C56.0004 37.1878 56.2186 37.4787 56.6549 37.4787C57.0913 37.4787 57.3095 37.1878 57.3095 36.4605C57.3095 35.7332 57.0913 35.4423 56.6549 35.4423ZM36.8003 34.206C36.8003 34.206 36.6549 34.2059 36.6549 34.2787C36.6549 34.2787 36.5822 34.4242 36.5822 34.4969V36.8241C36.5822 36.8241 36.5822 36.9696 36.6549 37.0423L36.8003 37.1151C36.8003 37.1151 36.9458 37.1151 36.9458 37.0423C36.9458 37.0423 37.0186 36.8969 37.0186 36.8241V34.4969C37.0186 34.4969 37.0186 34.3514 36.9458 34.2787L36.8003 34.206ZM31.7094 34.206C31.7094 34.206 31.564 34.206 31.4913 34.206C31.4913 34.206 31.4185 34.3514 31.4185 34.4241V36.7514C31.4185 36.7514 31.4186 36.8968 31.4913 36.9695L31.6367 37.0423C31.6367 37.0423 31.7821 37.0423 31.7821 36.9695C31.7821 36.9695 31.8549 36.8241 31.8549 36.7514V34.4241C31.8549 34.4241 31.8549 34.2787 31.7821 34.2787C31.7821 34.2787 31.7094 34.206 31.6367 34.206H31.7094ZM51.4185 35.515H50.6912V36.3151H51.4185C51.6367 36.3151 51.7821 36.1695 51.7821 35.8786C51.7821 35.5877 51.6367 35.4423 51.4185 35.4423V35.515Z" fill="#ADBDCC"/>
<path d="M29.696 2.68155L30.2631 1.32299L30.8301 2.68155C30.9139 2.88241 31.1029 3.01968 31.3198 3.03734L32.7871 3.15681L31.6702 4.11591C31.5051 4.25771 31.433 4.47982 31.4832 4.6916L31.823 6.12399L30.5657 5.35819C30.3798 5.24496 30.1463 5.24496 29.9604 5.35819L28.7031 6.12399L29.0429 4.6916C29.0932 4.47982 29.021 4.25771 28.8559 4.11591L27.739 3.15681L29.2063 3.03734C29.4232 3.01968 29.6122 2.88241 29.696 2.68155Z" fill="#ADBDCC" stroke="#ADBDCC" stroke-width="0.727273"/>
<path d="M37.6189 2.68155L38.1859 1.32299L38.7529 2.68155C38.8368 2.88241 39.0257 3.01968 39.2427 3.03734L40.7099 3.15681L39.5931 4.11591C39.428 4.25771 39.3558 4.47982 39.406 4.6916L39.7458 6.12399L38.4886 5.35819C38.3027 5.24496 38.0691 5.24496 37.8832 5.35819L36.626 6.12399L36.9658 4.6916C37.016 4.47982 36.9438 4.25771 36.7787 4.11591L35.6619 3.15681L37.1292 3.03734C37.3461 3.01968 37.535 2.88241 37.6189 2.68155Z" fill="#ADBDCC" stroke="#ADBDCC" stroke-width="0.727273"/>
<path d="M45.5427 2.68155L46.1097 1.32299L46.6768 2.68155C46.7606 2.88241 46.9495 3.01968 47.1665 3.03734L48.6338 3.15681L47.5169 4.11591C47.3518 4.25771 47.2796 4.47982 47.3299 4.6916L47.6697 6.12399L46.4124 5.35819C46.2265 5.24496 45.993 5.24496 45.8071 5.35819L44.5498 6.12399L44.8896 4.6916C44.9398 4.47982 44.8677 4.25771 44.7025 4.11591L43.5857 3.15681L45.053 3.03734C45.2699 3.01968 45.4589 2.88241 45.5427 2.68155Z" fill="#ADBDCC" stroke="#ADBDCC" stroke-width="0.727273"/>
<path d="M53.4655 2.68155L54.0326 1.32299L54.5996 2.68155C54.6835 2.88241 54.8724 3.01968 55.0893 3.03734L56.5566 3.15681L55.4398 4.11591C55.2747 4.25771 55.2025 4.47982 55.2527 4.6916L55.5925 6.12399L54.3352 5.35819C54.1494 5.24496 53.9158 5.24496 53.7299 5.35819L52.4726 6.12399L52.8124 4.6916C52.8627 4.47982 52.7905 4.25771 52.6254 4.11591L51.5085 3.15681L52.9758 3.03734C53.1928 3.01968 53.3817 2.88241 53.4655 2.68155Z" fill="#ADBDCC" stroke="#ADBDCC" stroke-width="0.727273"/>
<path d="M61.9027 0.922944C61.9226 0.875249 61.9902 0.875248 62.0101 0.922944L62.7114 2.60311C62.7659 2.73367 62.8887 2.8229 63.0297 2.83438L64.8443 2.98212C64.8958 2.98632 64.9167 3.05058 64.8775 3.08425L63.4963 4.2704C63.3889 4.36257 63.342 4.50694 63.3747 4.6446L63.7949 6.41607C63.8069 6.46636 63.7522 6.50608 63.7081 6.47919L62.1531 5.5321C62.0323 5.45851 61.8805 5.45851 61.7597 5.5321L60.2048 6.47919C60.1606 6.50608 60.106 6.46636 60.1179 6.41607L60.5381 4.6446C60.5708 4.50694 60.5239 4.36257 60.4165 4.2704L59.0353 3.08425C58.9961 3.05058 59.017 2.98632 59.0685 2.98212L60.8831 2.83438C61.0241 2.8229 61.147 2.73367 61.2015 2.60311L61.9027 0.922944Z" stroke="#ADBDCC" stroke-width="0.32"/>
<mask fill="white" id="path-25-inside-1_2062_79992">
<path clip-rule="evenodd" d="M61.905 0.732422V5.64234C61.8834 5.64756 61.8623 5.65615 61.8427 5.66811L60.2878 6.6152C60.1222 6.71602 59.9172 6.56708 59.962 6.3785L60.3822 4.60703C60.4011 4.52761 60.374 4.44432 60.3121 4.39114L58.9308 3.205C58.7838 3.07873 58.8621 2.83774 59.0553 2.82201L60.8699 2.67427C60.9513 2.66765 61.0221 2.61617 61.0536 2.54084L61.7548 0.860677C61.7843 0.789984 61.8418 0.747233 61.905 0.732422Z" fill-rule="evenodd"/>
</mask>
<path clip-rule="evenodd" d="M61.905 0.732422V5.64234C61.8834 5.64756 61.8623 5.65615 61.8427 5.66811L60.2878 6.6152C60.1222 6.71602 59.9172 6.56708 59.962 6.3785L60.3822 4.60703C60.4011 4.52761 60.374 4.44432 60.3121 4.39114L58.9308 3.205C58.7838 3.07873 58.8621 2.83774 59.0553 2.82201L60.8699 2.67427C60.9513 2.66765 61.0221 2.61617 61.0536 2.54084L61.7548 0.860677C61.7843 0.789984 61.8418 0.747233 61.905 0.732422Z" fill="#ADBDCC" fill-rule="evenodd"/>
<path d="M61.905 0.732422H62.1959V0.365561L61.8387 0.449168L61.905 0.732422ZM61.905 5.64234L61.9732 5.92515L62.1959 5.87148V5.64234H61.905ZM61.8427 5.66811L61.994 5.91656H61.994L61.8427 5.66811ZM60.2878 6.6152L60.4391 6.86365L60.2878 6.6152ZM59.962 6.3785L60.245 6.44565L59.962 6.3785ZM60.3822 4.60703L60.0992 4.53988V4.53988L60.3822 4.60703ZM60.3121 4.39114L60.1225 4.61184L60.1225 4.61184L60.3121 4.39114ZM58.9308 3.205L58.7413 3.4257H58.7413L58.9308 3.205ZM59.0553 2.82201L59.0317 2.53206H59.0317L59.0553 2.82201ZM60.8699 2.67427L60.8935 2.96422H60.8935L60.8699 2.67427ZM61.0536 2.54084L60.7851 2.42879L60.7851 2.42879L61.0536 2.54084ZM61.7548 0.860677L61.4864 0.748626V0.748626L61.7548 0.860677ZM61.6141 0.732422V5.64234H62.1959V0.732422H61.6141ZM61.8369 5.35953C61.7863 5.37173 61.7371 5.3918 61.6913 5.41966L61.994 5.91656C61.9875 5.92051 61.9805 5.9234 61.9732 5.92515L61.8369 5.35953ZM61.6913 5.41966L60.1364 6.36675L60.4391 6.86365L61.994 5.91656L61.6913 5.41966ZM60.1364 6.36675C60.1916 6.33315 60.2599 6.38279 60.245 6.44565L59.6789 6.31136C59.5745 6.75137 60.0529 7.0989 60.4391 6.86365L60.1364 6.36675ZM60.245 6.44565L60.6653 4.67417L60.0992 4.53988L59.6789 6.31136L60.245 6.44565ZM60.6653 4.67417C60.7092 4.48887 60.6461 4.29452 60.5016 4.17044L60.1225 4.61184C60.1019 4.59412 60.0929 4.56635 60.0992 4.53988L60.6653 4.67417ZM60.5016 4.17044L59.1204 2.9843L58.7413 3.4257L60.1225 4.61184L60.5016 4.17044ZM59.1204 2.9843C59.1694 3.02639 59.1433 3.10672 59.0789 3.11196L59.0317 2.53206C58.5809 2.56876 58.3982 3.13107 58.7413 3.4257L59.1204 2.9843ZM59.0789 3.11196L60.8935 2.96422L60.8463 2.38432L59.0317 2.53206L59.0789 3.11196ZM60.8935 2.96422C61.0833 2.94876 61.2487 2.82865 61.322 2.6529L60.7851 2.42879C60.7956 2.40369 60.8192 2.38653 60.8463 2.38432L60.8935 2.96422ZM61.322 2.6529L62.0233 0.972728L61.4864 0.748626L60.7851 2.42879L61.322 2.6529ZM62.0233 0.972728C62.0198 0.981031 62.0129 0.991322 62.0022 1.00015C61.992 1.00855 61.9811 1.01339 61.9713 1.01568L61.8387 0.449168C61.6904 0.483892 61.5541 0.586276 61.4864 0.748626L62.0233 0.972728Z" fill="#ADBDCC" mask="url(#path-25-inside-1_2062_79992)"/>
</g>
<defs>
<clipPath id="clip0_2062_79992">
<rect fill="white" height="40" transform="translate(0 0.326172)" width="92.8"/>
</clipPath>
</defs>
</svg>