<?xml version="1.0" encoding="utf-8"?>
<svg xmlns="http://www.w3.org/2000/svg" fill="none" height="32" viewBox="0 0 32 32" width="32">
<path clip-rule="evenodd" d="M11.7826 3.99505C12.7322 2.72885 14.2333 1.94629 15.9441 1.94629C17.6857 1.94629 19.1754 2.81859 20.1057 4.05908L20.11 4.06472L20.1141 4.07044C20.7094 4.88895 21.1499 6.00542 21.0016 7.1391C20.9861 8.29232 20.5932 9.29142 19.9934 10.1198C19.0969 11.416 17.5783 12.1901 15.8801 12.1901C14.2253 12.1901 12.7274 11.4011 11.7826 10.1414L11.7783 10.1357L11.7742 10.13C11.158 9.2827 10.7582 8.25617 10.7582 7.0682C10.7582 5.88024 11.158 4.8537 11.7742 4.00641L11.7783 4.0007L11.7826 3.99505ZM13.3233 5.14192C12.9177 5.70175 12.6789 6.33797 12.6789 7.0682C12.6789 7.79844 12.9177 8.43466 13.3233 8.99449C13.9153 9.78026 14.8483 10.2694 15.8801 10.2694C16.9944 10.2694 17.905 9.76723 18.418 9.02106L18.4252 9.01057L18.4327 9.00028C18.8409 8.43904 19.0813 7.80095 19.0813 7.0682V6.99476L19.0925 6.92217C19.17 6.41858 18.978 5.77637 18.5649 5.20586C17.9585 4.40074 17.0171 3.86701 15.9441 3.86701C14.8405 3.86701 13.9105 4.36257 13.3233 5.14192Z" fill="#83E774" fill-rule="evenodd" opacity="0.3"/>
<path d="M18.249 7.13268C18.249 8.09303 18.6332 8.92534 19.2734 9.62961C19.7856 8.92534 20.1057 8.09303 20.1057 7.13268C20.1057 6.17232 19.7856 5.34001 19.2734 4.63574C18.6332 5.34001 18.249 6.17232 18.249 7.13268Z" fill="#83E774"/>
<path d="M11.7826 7.13268C11.7826 8.09303 12.1027 8.92534 12.6149 9.62961C13.2552 8.92534 13.7033 8.09303 13.7033 7.13268C13.7033 6.17232 13.3192 5.27598 12.6149 4.63574C12.0387 5.34001 11.7826 6.17232 11.7826 7.13268Z" fill="#83E774"/>
<path clip-rule="evenodd" d="M22.4999 8.88586C23.3568 8.029 24.5525 7.45215 25.804 7.45215C27.0483 7.45215 28.2616 8.02445 29.0742 8.91746C29.9341 9.85624 30.3714 11.0727 30.2823 12.1416L30.2807 12.1614L30.2783 12.181C30.1198 13.4489 29.4815 14.5857 28.493 15.3271L28.4896 15.3296L12.6853 27.0889C12.7125 27.9012 12.3922 28.6866 11.7372 29.2792C11.1417 29.8632 10.4384 30.0526 9.79788 30.0526C9.04229 30.0526 8.25692 29.7649 7.67165 29.0903L6.98987 28.3465C6.39277 27.74 6.21252 27.027 6.21252 26.3392V26.2709L6.22218 26.2034C6.30363 25.6332 6.55845 24.8596 7.18923 24.3286C7.79334 23.8041 8.56091 23.5798 9.30947 23.6366L22.481 8.90478L22.4999 8.88586ZM23.8758 10.2264L9.97893 25.77L9.39388 25.5944C9.047 25.4904 8.69135 25.5664 8.44553 25.7815L8.43682 25.7891L8.42794 25.7965C8.30618 25.898 8.18753 26.118 8.1344 26.4086C8.14422 26.6951 8.21732 26.8578 8.36416 27.0046L8.37891 27.0194L9.10809 27.8148L9.11851 27.827C9.30035 28.0391 9.53403 28.1319 9.79788 28.1319C10.0464 28.1319 10.2308 28.0695 10.3993 27.901L10.4192 27.881L10.4403 27.8623C10.7391 27.5967 10.8258 27.2704 10.7281 26.912L10.5558 26.2805L27.3406 13.7905C27.341 13.7902 27.3415 13.7898 27.342 13.7894C27.8843 13.382 28.2679 12.7347 28.3697 11.9638C28.4019 11.4968 28.1977 10.8037 27.657 10.2139L27.6543 10.211C27.1864 9.69628 26.4797 9.37287 25.804 9.37287C25.1419 9.37287 24.4252 9.68556 23.8758 10.2264Z" fill="#83E774" fill-rule="evenodd" opacity="0.3"/>
<path d="M23.051 28.1317L23.7552 27.3634C24.2034 26.8512 24.2034 26.0189 23.6912 25.5707C23.179 25.1225 22.3467 25.1225 21.8985 25.6347L21.1942 26.403C20.7461 26.9152 20.7461 27.7475 21.2583 28.1957C21.8345 28.7079 22.6028 28.6439 23.051 28.1317Z" fill="#83E774" stroke="#83E774" stroke-miterlimit="10" stroke-width="1.92072"/>
<path d="M22.3466 24.8672L18.2491 20.3215C18.121 20.1935 17.929 20.2575 17.929 20.4495V24.9952C17.929 25.1233 17.993 25.1873 18.057 25.2513L20.3619 26.98C20.618 27.1721 20.9381 27.2361 21.1942 27.2361C21.5783 27.2361 21.9625 27.108 22.2186 26.7879C22.8588 26.2117 22.8588 25.4434 22.3466 24.8672Z" fill="#83E774"/>
<path d="M16.0722 18.1447C16.0722 17.9526 16.0082 17.6966 15.8161 17.5685L8.77347 9.56552C8.13323 8.79723 7.17286 8.41309 6.14847 8.41309C5.18811 8.41309 4.22774 8.86125 3.5875 9.56552C2.94726 10.2698 2.56311 11.2942 2.69116 12.2545C2.75518 13.2149 3.26738 14.1112 4.09969 14.7515L15.7521 23.3947C15.9442 23.5227 16.2003 23.3947 16.2003 23.2026V18.1447H16.0722Z" fill="#83E774"/>
</svg>