<?xml version="1.0" encoding="utf-8"?>
<svg xmlns="http://www.w3.org/2000/svg" fill="none" height="32" viewBox="0 0 32 32" width="32">
<path clip-rule="evenodd" d="M10.6088 4.92538C12.2371 4.13119 14.0666 3.68555 16.0001 3.68555C16.459 3.68555 16.9121 3.71065 17.3579 3.75955C17.6089 3.78862 17.8584 3.82567 18.1077 3.87067C18.1645 4.63161 18.1799 5.40194 18.1799 6.20436C18.1799 7.70999 18.079 9.19192 17.8836 10.6437C16.9926 10.3558 16.0743 10.129 15.1336 9.96822C14.6448 6.82768 11.9283 5.43261 10.6088 4.92538ZM20.1439 4.4169C20.1717 5.01469 20.1799 5.6098 20.1799 6.20436C20.1799 7.9609 20.0503 9.68735 19.8001 11.3744C20.4399 11.6571 21.0622 11.9725 21.6646 12.3183C22.6049 10.0161 24.8589 9.29872 26.2478 9.23013C24.8014 7.03494 22.6669 5.31486 20.1439 4.4169ZM15.1138 11.9971C15.9481 12.1554 16.7622 12.3715 17.5517 12.6412C16.6273 17.3088 14.7162 21.6188 12.0415 25.3411C10.8776 24.5738 9.49314 22.4611 9.86293 20.4537C10.3048 18.0676 11.5421 16.8303 12.744 15.6461L12.7812 15.6089C13.7743 14.6159 14.7906 13.5999 15.1138 11.9971ZM5.47567 12.8119C7.43233 12.0792 9.55142 11.6829 11.7589 11.6829C12.3547 11.6829 12.9438 11.7121 13.5249 11.7691C13.2881 12.8699 12.5435 13.601 11.6229 14.5048L11.6127 14.5148L11.5884 14.5388C10.2862 15.8233 8.79925 17.2901 8.28984 20.1709C7.79493 22.9105 9.59778 25.5618 11.0471 26.6046C10.9853 26.6842 10.919 26.7593 10.8527 26.8344L10.8527 26.8344L10.8527 26.8345L10.8527 26.8345C10.7864 26.9096 10.7201 26.9847 10.6583 27.0642L10.6446 27.0915C6.52635 25.0994 3.68591 20.8813 3.68591 15.9998C3.68591 15.1765 3.7667 14.3721 3.92078 13.5941L4.41894 13.2952C4.76708 13.1211 5.11941 12.96 5.47567 12.8119ZM12.9187 27.5092C12.8296 27.6243 12.7398 27.7387 12.6493 27.8526C13.7147 28.1532 14.8386 28.314 16.0001 28.314C16.5682 28.314 17.1273 28.2755 17.6749 28.201C22.0345 27.5938 25.6638 24.7034 27.3084 20.7721L27.0609 20.2772C27.0147 20.1951 26.9678 20.1136 26.9204 20.0325C25.8087 18.2804 24.4008 16.7334 22.7677 15.4621C22.7764 15.9145 22.8146 16.3754 22.8535 16.8446L22.8535 16.8448C22.8658 16.9924 22.8781 17.1408 22.8896 17.29C23.031 18.7924 23.1724 20.3479 22.8189 22.08C22.2002 25.1378 20.1145 27.0291 16.6149 27.7008C16.1199 27.7891 15.6251 27.8422 15.1301 27.8422C14.3772 27.8422 13.6367 27.7312 12.9187 27.5092ZM13.9536 26.1013C14.3423 26.1777 14.745 26.2159 15.1478 26.2159C15.519 26.2336 15.9255 26.1982 16.3144 26.1275C19.1601 25.5973 20.7685 24.1656 21.2635 21.7618C21.5639 20.2594 21.4402 18.8277 21.3165 17.4313C21.2169 16.3859 21.1329 15.3871 21.2108 14.3766C20.6399 14.0218 20.0477 13.6981 19.4366 13.4079C18.4642 18.0467 16.5709 22.3461 13.9536 26.1013Z" fill="#FFA26E" fill-rule="evenodd"/>
<path clip-rule="evenodd" d="M16.0001 3.68555C11.0024 3.68555 6.69996 6.66286 4.76985 10.9406C6.95029 10.1235 9.30832 9.68294 11.7589 9.68294C13.8949 9.68294 15.9533 10.0201 17.8836 10.6437C18.079 9.19192 18.1799 7.70999 18.1799 6.20436C18.1799 5.39999 18.1644 4.62787 18.1072 3.86512C17.4226 3.74706 16.7185 3.68555 16.0001 3.68555ZM20.1431 4.39984C20.1716 5.00337 20.1799 5.60414 20.1799 6.20436C20.1799 7.9609 20.0503 9.68735 19.8001 11.3744C23.1604 12.8591 26.0349 15.2441 28.1149 18.2193C28.2459 17.4994 28.3144 16.7576 28.3144 15.9998C28.3144 10.6524 24.9059 6.10108 20.1431 4.39984ZM17.5517 12.6412C15.7336 12.0201 13.7848 11.6829 11.7589 11.6829C8.96271 11.6829 6.30835 12.3187 3.94628 13.4687C3.77563 14.2856 3.68591 15.1322 3.68591 15.9998C3.68591 20.8947 6.5419 25.1225 10.6784 27.1078C14.0691 23.0097 16.4771 18.0671 17.5517 12.6412ZM12.6493 27.8526C15.9447 23.7065 18.3094 18.7852 19.4366 13.4079C22.7709 14.9912 25.542 17.5722 27.3595 20.7624C25.4974 25.1985 21.1126 28.314 16.0001 28.314C14.8386 28.314 13.7147 28.1532 12.6493 27.8526ZM1.68591 15.9998C1.68591 8.09425 8.09462 1.68555 16.0001 1.68555C23.9057 1.68555 30.3144 8.09425 30.3144 15.9998C30.3144 23.9053 23.9056 30.314 16.0001 30.314C8.09462 30.314 1.68591 23.9053 1.68591 15.9998Z" fill="#FFA26E" fill-opacity="0.3" fill-rule="evenodd"/>
</svg>