<?xml version="1.0" encoding="utf-8"?>
<svg xmlns="http://www.w3.org/2000/svg" fill="none" height="24" viewBox="0 0 24 24" width="24">
<path d="M18.5302 5.43749L18.7349 5.26874L19.4791 5.54999C19.7209 5.60624 19.9628 5.69999 20.1861 5.84999C20.4093 5.99999 20.5768 6.20624 20.707 6.43124L21.2465 7.14374L21.1721 7.25624C21.1721 7.27499 21.1349 7.29374 21.1163 7.33124C20.6512 7.98749 19.6837 8.09999 18.9582 7.57499C18.2326 7.04999 18.0279 6.09374 18.4744 5.43749C18.4744 5.43749 18.4744 5.43749 18.493 5.39999L18.5302 5.43749Z" fill="#FF9A22"/>
<path clip-rule="evenodd" d="M18.251 6.3187L18.6231 5.7937L18.7161 6.22495L18.344 6.7687C18.2882 6.6187 18.2696 6.4687 18.2696 6.33745L18.251 6.3187ZM18.8463 7.49995L19.2184 6.97495L19.4975 7.16245L19.1254 7.68745C19.0696 7.64995 19.0324 7.6312 18.9766 7.5937C18.9393 7.5562 18.8835 7.53745 18.8463 7.49995ZM20.0556 7.9312L20.4463 7.38745L20.8928 7.2937L20.5021 7.83745C20.3719 7.8937 20.2231 7.91245 20.0742 7.9312H20.0556Z" fill="#EA7A00" fill-rule="evenodd"/>
<path d="M19.1071 7.40622C18.3815 6.88122 18.1768 5.92497 18.6234 5.26872C19.0885 4.61247 20.0559 4.49997 20.7815 5.02497C21.5071 5.54997 21.7117 6.50622 21.2466 7.16247C20.7815 7.81872 19.8141 7.93122 19.0885 7.40622H19.1071Z" fill="#FFE25D"/>
<path d="M19.2745 7.1812C18.6792 6.7687 18.5117 5.9812 18.8838 5.4562C19.2559 4.9312 20.0373 4.83745 20.6327 5.24995C21.228 5.66245 21.3955 6.44995 21.0234 6.97495C20.6513 7.49995 19.8699 7.5937 19.2745 7.1812Z" fill="#FFB902"/>
<path d="M17.6929 1.53746L17.3022 1.27496L16.7255 2.15621C16.4836 2.34371 16.2604 2.56871 16.0743 2.84996C15.8883 3.13121 15.7767 3.43121 15.7022 3.73121L15.1255 4.63121L15.479 4.85621C15.4976 4.85621 15.5162 4.89371 15.5534 4.91246C16.2418 5.36246 17.3022 4.98746 17.8976 4.04996C18.4929 3.11246 18.4185 2.00621 17.7301 1.53746C17.7301 1.53746 17.7115 1.53746 17.6929 1.53746Z" fill="#FF9A22"/>
<path clip-rule="evenodd" d="M18.2512 2.325L17.6931 1.96875L17.7303 2.45625L18.2884 2.83125C18.2884 2.6625 18.2884 2.475 18.2326 2.325H18.2512ZM18.0094 3.88125L17.4512 3.525L17.228 3.8625L17.7861 4.21875C17.8233 4.1625 17.8605 4.10625 17.9163 4.05C17.9536 3.99375 17.9908 3.9375 18.028 3.88125H18.0094ZM16.8745 4.96875L16.2977 4.59375L15.7954 4.725L16.3722 5.1C16.5396 5.1 16.707 5.04375 16.8559 4.96875H16.8745Z" fill="#EA7A00" fill-rule="evenodd"/>
<path d="M17.5254 3.82498C18.1207 2.88748 18.0463 1.78123 17.3579 1.31248C16.6696 0.862477 15.6091 1.23748 15.0138 2.17498C14.4184 3.11248 14.4928 4.21873 15.1812 4.68748C15.8696 5.13748 16.93 4.76248 17.5254 3.82498Z" fill="#FFE25D"/>
<path d="M17.3024 3.67496C17.7861 2.92496 17.7303 2.00621 17.1722 1.64996C16.614 1.27496 15.7582 1.59371 15.2745 2.34371C14.7908 3.09371 14.8466 4.01246 15.4047 4.36871C15.9629 4.74371 16.8187 4.42496 17.3024 3.67496Z" fill="#FFB902"/>
<path d="M1.11621 14.4937C1.11621 14.4937 2.73482 16.05 3.19993 18.4687C3.38598 19.4812 3.42319 20.2875 3.36737 20.8687L4.52086 22.2937L10.5302 22.8562L17.972 23.55L19.6837 21.9562L19.5534 19.8937L19.4232 16.125L10.2697 15.3187L1.13482 14.5125L1.11621 14.4937Z" fill="#F49A26"/>
<path d="M4.70705 18.9187C4.78147 19.3875 4.83728 19.8375 4.85589 20.2125C4.85589 20.2125 6.13961 21.7125 6.13961 21.6937L15.4791 22.6125L16.9303 21.4312V17.4375L3.60938 16.1625C3.60938 16.1625 4.40938 17.2125 4.70705 18.9187Z" fill="#BC6818"/>
<path d="M5.56252 18.6563C5.63694 19.0688 5.69275 19.4625 5.71136 19.7813C5.71136 19.7813 6.71601 20.9063 6.80903 21.0188L16.3346 21.8813L17.7858 20.775V17.3438L4.46484 16.2188C4.46484 16.2188 5.26484 17.1375 5.56252 18.6375V18.6563Z" fill="#EEE9FF"/>
<path d="M14.2324 12.4125L5.09756 11.6062L1.13477 14.5125L19.4231 16.125L23.3859 13.2187L14.2324 12.4125Z" fill="#B44515"/>
<path d="M14.0094 12.5625L5.78618 11.8312L2.6792 14.0812L19.1257 15.525L22.2327 13.275L14.0094 12.5437V12.5625Z" fill="#632105"/>
<path d="M19.4234 16.1062L23.3862 13.2C23.3862 13.2 22.8652 15.7687 22.7722 17.7937C22.6606 19.8187 22.7722 20.4 22.7722 20.4L17.9536 23.5312C18.5304 22.9874 19.4234 22.0875 19.4234 22.0875C19.3304 21.45 19.2559 20.8687 19.2559 19.8937C19.2559 17.6625 19.4234 16.0875 19.4234 16.0875V16.1062Z" fill="#BC6818"/>
<path d="M20.2046 15.525L18.7349 16.05L19.386 16.6125L20.2046 15.5437V15.525Z" fill="#B44415"/>
<path d="M16.3535 4.51874L20.2047 7.79999C20.8372 8.34374 21.3954 8.98124 21.8791 9.69374C22.5861 10.7437 23.107 11.9625 23.3861 13.2937L19.5721 9.99374C19.2744 8.66249 18.7535 7.46249 18.0651 6.41249C17.5814 5.69999 17.0047 5.08124 16.3721 4.53749L16.3535 4.51874Z" fill="#BC6818"/>
<path d="M1.28371 8.30622C1.99068 7.06872 2.88371 5.98122 3.90696 5.08122C6.0465 3.20622 8.74417 2.15622 11.5163 2.41872C14.2698 2.66247 16.5767 4.16247 18.0465 6.37497C18.7535 7.42497 19.2558 8.64372 19.5535 9.95622C19.5535 9.99372 1.2651 8.32497 1.28371 8.30622Z" fill="#EEE9FF"/>
<path d="M1.28371 8.30622C1.99068 7.06872 2.88371 5.98122 3.90696 5.08122C6.0465 3.20622 8.74417 2.15622 11.5163 2.41872C14.2698 2.66247 16.5767 4.16247 18.0465 6.37497C18.7535 7.42497 19.2558 8.64372 19.5535 9.95622C19.5535 9.99372 1.2651 8.32497 1.28371 8.30622Z" fill="#BC6818"/>
<path d="M19.5535 9.97495L9.58137 9.0937L1.28369 8.32495C1.28369 8.32495 4.46509 9.2812 5.09764 11.625C5.06044 11.625 23.3674 13.2937 23.3674 13.2937L19.5535 9.9937V9.97495Z" fill="#B44515"/>
<path d="M18.102 6.31875C16.5579 4.0125 14.1765 2.45625 11.2927 2.19375C11.0137 2.175 10.716 2.15625 10.4369 2.15625C7.86948 2.15625 5.39507 3.20625 3.38576 4.96875C2.3253 5.90625 1.39506 7.03125 0.650879 8.325L19.6834 10.05C19.6834 10.05 18.8276 7.425 18.102 6.31875ZM4.03693 6.825C4.20437 6.65625 4.39041 6.4875 4.55786 6.3375C6.28809 4.81875 8.37181 3.975 10.4369 3.975C10.6602 3.975 10.902 3.975 11.1253 3.99375C13.3579 4.2 15.3113 5.38125 16.5951 7.33125C16.7067 7.48125 16.8183 7.725 16.9486 8.00625C12.6881 7.6125 7.34855 7.14375 4.01832 6.84375L4.03693 6.825Z" fill="#F49A26"/>
<path clip-rule="evenodd" d="M13.0978 9.46875L13.5257 7.875L12.4095 6.24375L10.2327 6.1875L8.27922 7.74375L7.94434 9C8.63271 9.05625 9.33968 9.13125 10.0653 9.1875L10.2885 8.79375C10.1211 8.6625 10.0467 8.41875 10.1025 8.15625C10.2141 7.7625 10.6048 7.44375 10.9769 7.4625C11.3676 7.4625 11.5908 7.8 11.4792 8.19375C11.4048 8.45625 11.2002 8.68125 10.9583 8.8125V9.28125C11.6839 9.3375 12.3908 9.4125 13.0792 9.46875H13.0978Z" fill="#BC6818" fill-rule="evenodd"/>
<path d="M10.3068 6.26249L10.8278 6.78749C10.7347 6.69374 10.6045 6.63749 10.4557 6.63749C10.3812 6.63749 10.2882 6.63749 10.2138 6.67499L9.69287 6.14999C9.76729 6.13124 9.86031 6.11249 9.93473 6.11249C10.0836 6.11249 10.2138 6.16874 10.3068 6.26249Z" fill="#53386F"/>
<path d="M9.67452 6.14996L10.1954 6.67496C10.1768 6.67496 10.1396 6.69371 10.121 6.71246L9.6001 6.18746C9.6187 6.16871 9.65591 6.14996 9.67452 6.14996Z" fill="#563A74"/>
<path d="M9.59976 6.1687L10.1207 6.6937C10.1021 6.6937 10.0649 6.71245 10.0649 6.7312L9.54395 6.2062C9.54395 6.2062 9.58115 6.18745 9.59976 6.1687Z" fill="#593C78"/>
<path d="M9.5441 6.20624L10.065 6.73124C10.0464 6.73124 10.0278 6.74999 10.0092 6.76874L9.48828 6.24374C9.50689 6.24374 9.52549 6.22499 9.5441 6.20624Z" fill="#5C3E7C"/>
<path d="M9.46988 6.22498L9.99081 6.74998C9.99081 6.74998 9.9536 6.76873 9.93499 6.78748L9.41406 6.26248C9.41406 6.26248 9.45127 6.24373 9.46988 6.22498Z" fill="#5F4080"/>
<path d="M9.43228 6.26245L9.95321 6.78745C9.95321 6.78745 9.916 6.8062 9.8974 6.82495L9.37646 6.29995C9.39507 6.29995 9.41367 6.2812 9.43228 6.26245Z" fill="#634285"/>
<path d="M9.37662 6.29999L9.89754 6.82499C9.89754 6.82499 9.87894 6.84374 9.84173 6.86249L9.3208 6.33749C9.33941 6.33749 9.35801 6.31874 9.37662 6.29999Z" fill="#664489"/>
<path d="M9.33946 6.33746L9.86039 6.86246C9.86039 6.86246 9.84178 6.88121 9.82318 6.89996L9.30225 6.37496C9.30225 6.37496 9.32085 6.35621 9.33946 6.33746Z" fill="#69478D"/>
<path d="M9.30235 6.375L9.82328 6.9C9.82328 6.9 9.80467 6.91875 9.78607 6.9375L9.26514 6.4125C9.26514 6.4125 9.28374 6.39375 9.30235 6.375Z" fill="#6C4992"/>
<path d="M9.26524 6.41248L9.78617 6.93748C9.78617 6.93748 9.76756 6.95623 9.74896 6.99373L9.22803 6.46873C9.22803 6.46873 9.24663 6.43123 9.26524 6.41248Z" fill="#6F4B96"/>
<path d="M9.22764 6.46875L9.74857 6.99375C9.74857 6.99375 9.72996 7.03125 9.71136 7.05L9.19043 6.525C9.19043 6.50625 9.20903 6.4875 9.22764 6.46875Z" fill="#724D9A"/>
<path d="M9.19053 6.50623L9.71146 7.03123C9.71146 7.03123 9.69285 7.06873 9.67425 7.08748L9.15332 6.56248C9.15332 6.56248 9.17193 6.52498 9.19053 6.50623Z" fill="#764F9E"/>
<path d="M9.15337 6.5625L9.6929 7.10625C9.6929 7.125 9.6743 7.14375 9.6557 7.1625L9.13477 6.6375C9.13477 6.61875 9.13477 6.58125 9.15337 6.5625Z" fill="#7951A3"/>
<path d="M9.11631 6.63745L9.63724 7.16245C9.63724 7.1812 9.61864 7.2187 9.60003 7.23745L9.0791 6.71245C9.0791 6.67495 9.09771 6.6562 9.11631 6.63745Z" fill="#7C53A7"/>
<path d="M9.07876 6.71246L9.59969 7.23746C9.59969 7.27496 9.58109 7.29371 9.56248 7.33121C9.54388 7.40621 9.54388 7.48121 9.54388 7.55621L9.02295 7.03121C9.02295 6.95621 9.02295 6.88121 9.04155 6.80621C9.04155 6.76871 9.06016 6.73121 9.07876 6.71246Z" fill="#7F56AB"/>
<path d="M9.02295 7.03125L9.54388 7.55625C9.54388 7.575 9.54388 7.6125 9.54388 7.63125L9.02295 7.10625C9.02295 7.0875 9.02295 7.05 9.02295 7.03125Z" fill="#7C53A7"/>
<path d="M9.04199 7.125L9.56292 7.65C9.56292 7.66875 9.56292 7.6875 9.56292 7.70625L9.04199 7.18125C9.04199 7.1625 9.04199 7.14375 9.04199 7.125Z" fill="#7951A3"/>
<path d="M9.04199 7.18121L9.56292 7.70621C9.56292 7.70621 9.56292 7.74371 9.56292 7.76246L9.04199 7.23746C9.04199 7.23746 9.04199 7.19996 9.04199 7.18121Z" fill="#764F9E"/>
<path d="M9.06055 7.23749L9.58148 7.76249C9.58148 7.76249 9.58148 7.78124 9.60008 7.81874L9.07915 7.29374C9.07915 7.27499 9.07915 7.25624 9.06055 7.23749Z" fill="#724D9A"/>
<path d="M9.0791 7.27496L9.60003 7.79996C9.60003 7.79996 9.60003 7.81871 9.61864 7.83746L9.09771 7.31246C9.09771 7.31246 9.09771 7.29371 9.0791 7.27496Z" fill="#6F4B96"/>
<path d="M9.09766 7.3125L9.61859 7.8375C9.61859 7.8375 9.61859 7.85625 9.63719 7.875L9.11626 7.35C9.11626 7.35 9.11626 7.33125 9.09766 7.3125Z" fill="#6C4992"/>
<path d="M9.13477 7.34998L9.6557 7.87498C9.6557 7.87498 9.6557 7.89373 9.6743 7.91248L9.15337 7.38748C9.15337 7.38748 9.15337 7.36873 9.13477 7.34998Z" fill="#69478D"/>
<path d="M9.22803 7.42499L9.76756 7.94999C9.76756 7.96874 9.22803 7.44374 9.22803 7.44374V7.42499Z" fill="#1E0930"/>
<path d="M9.22769 7.4437L9.74862 7.9687C9.73002 7.9687 9.71141 7.9312 9.69281 7.91245L9.17188 7.38745C9.19048 7.38745 9.22769 7.4062 9.22769 7.4437Z" fill="#13061F"/>
<path d="M10.3071 6.26245L10.8281 6.78745C10.8281 6.78745 10.8467 6.8062 10.8467 6.82495L10.3257 6.29995C10.3257 6.29995 10.3257 6.2812 10.3071 6.26245Z" fill="#180727"/>
<path d="M10.3257 6.29999L10.8466 6.82499C10.8466 6.82499 10.8466 6.84374 10.8652 6.86249L10.3443 6.33749C10.3443 6.33749 10.3443 6.31874 10.3257 6.29999Z" fill="#190728"/>
<path d="M10.3628 6.33746L10.8837 6.86246C10.8837 6.86246 10.8837 6.88121 10.9023 6.89996L10.3814 6.37496C10.3814 6.37496 10.3814 6.35621 10.3628 6.33746Z" fill="#1A0829"/>
<path d="M10.3813 6.375L10.9023 6.9C10.9023 6.9 10.9023 6.91875 10.9209 6.95625L10.4 6.43125C10.4 6.4125 10.4 6.39375 10.3813 6.375Z" fill="#1B082A"/>
<path d="M10.3999 6.41248L10.9208 6.93748C10.9208 6.93748 10.9208 6.97498 10.9208 6.99373L10.3999 6.46873C10.3999 6.46873 10.3999 6.44998 10.3999 6.41248Z" fill="#1B082C"/>
<path d="M10.4185 6.46875L10.9394 6.99375C10.9394 7.0125 10.9394 7.03125 10.9394 7.05L10.4185 6.525C10.4185 6.50625 10.4185 6.46875 10.4185 6.46875Z" fill="#1C082D"/>
<path d="M10.437 6.52496L10.9579 7.04996C10.9579 7.06871 10.9579 7.10621 10.9579 7.12496L10.437 6.59996C10.437 6.56246 10.437 6.54371 10.437 6.52496Z" fill="#1D092E"/>
<path d="M10.4371 6.59998L10.958 7.12498C10.958 7.19998 10.958 7.27498 10.9394 7.34998L10.4185 6.82498C10.4371 6.74998 10.4557 6.67498 10.4371 6.59998Z" fill="#1E092F"/>
<path d="M9.8978 7.44374L10.4187 7.96874H9.76756L9.22803 7.42499H9.8978V7.44374Z" fill="#13061E"/>
<path d="M9.22798 7.44373L9.76752 7.96873L8.85589 9.59998L8.33496 9.05623L9.24659 7.44373H9.22798Z" fill="#8258B0"/>
<path d="M10.4184 6.84373C10.344 7.10623 10.1393 7.34998 9.89746 7.46248C9.89746 7.44373 9.22769 7.42498 9.22769 7.42498C9.04164 7.31248 8.98583 7.08748 9.04164 6.80623C9.15327 6.41248 9.54397 6.09373 9.91606 6.11248C10.2882 6.11248 10.5114 6.44998 10.3998 6.84373H10.4184Z" fill="#1C082D"/>
<path d="M10.4186 6.84375L10.9395 7.36875C10.9395 7.40625 10.9209 7.44375 10.9023 7.4625L10.3813 6.9375C10.4 6.9 10.4 6.8625 10.4186 6.84375Z" fill="#1E092F"/>
<path d="M10.3814 6.9375L10.9024 7.4625C10.9024 7.48125 10.8838 7.51875 10.8652 7.5375L10.3442 7.0125C10.3442 6.99375 10.3628 6.95625 10.3814 6.9375Z" fill="#1D092E"/>
<path d="M10.3443 7.03125L10.8653 7.55625C10.8653 7.575 10.8467 7.6125 10.8281 7.6125L10.3071 7.0875C10.3071 7.0875 10.3257 7.05 10.3443 7.03125Z" fill="#1C082D"/>
<path d="M10.3067 7.08746L10.8277 7.61246C10.8277 7.63121 10.8091 7.64996 10.7905 7.66871L10.2695 7.14371C10.2695 7.14371 10.2881 7.12496 10.3067 7.08746Z" fill="#1B082C"/>
<path d="M10.2696 7.14374L10.7906 7.66874C10.7906 7.66874 10.772 7.70624 10.7534 7.72499L10.2324 7.19999C10.2324 7.18124 10.251 7.16249 10.2696 7.14374Z" fill="#1B082A"/>
<path d="M10.2325 7.19995L10.7535 7.72495C10.7535 7.72495 10.7348 7.7437 10.7162 7.7812L10.1953 7.2562C10.1953 7.23745 10.2139 7.2187 10.2325 7.19995Z" fill="#1A0829"/>
<path d="M10.1954 7.23749L10.7163 7.76249C10.7163 7.76249 10.6977 7.78124 10.6791 7.79999L10.1582 7.27499C10.1582 7.27499 10.1768 7.25624 10.1954 7.23749Z" fill="#190728"/>
<path d="M10.1583 7.27496L10.6792 7.79996C10.6792 7.79996 10.6606 7.81871 10.642 7.83746L10.1211 7.31246C10.1211 7.31246 10.1397 7.29371 10.1583 7.27496Z" fill="#180727"/>
<path d="M10.1208 7.3125L10.6417 7.8375C10.6417 7.8375 10.6231 7.85625 10.5859 7.875L10.0649 7.35C10.0835 7.35 10.1022 7.33125 10.1208 7.3125Z" fill="#180726"/>
<path d="M10.0836 7.34998L10.6046 7.87498C10.6046 7.87498 10.586 7.89373 10.5488 7.91248L10.0278 7.38748C10.0278 7.36873 10.065 7.36873 10.0836 7.34998Z" fill="#170725"/>
<path d="M10.028 7.36871L10.5489 7.89371C10.5489 7.89371 10.5117 7.91246 10.4931 7.93121L9.97217 7.40621C9.97217 7.40621 10.0094 7.38746 10.028 7.36871Z" fill="#160723"/>
<path d="M9.99082 7.40625L10.5304 7.93125C10.5304 7.93125 10.4931 7.95 10.4745 7.96875L9.95361 7.44375C9.95361 7.44375 9.99082 7.425 10.0094 7.40625H9.99082Z" fill="#150622"/>
<path d="M9.93467 7.44373L10.4556 7.96873C10.4556 7.96873 10.437 7.96873 10.4184 7.96873L9.89746 7.44373C9.89746 7.44373 9.91607 7.44373 9.93467 7.44373Z" fill="#150621"/>
<path d="M11.3301 4.89374L11.8696 5.41874L12.9673 7.04999L12.4464 6.52499L11.3301 4.89374Z" fill="#C3DBCF"/>
<path d="M9.89751 7.46246L10.4184 7.98746L10.4743 9.63746L9.93472 9.09371L9.87891 7.46246H9.89751Z" fill="#1F0932"/>
<path d="M9.95362 9.0937L8.31641 9.0562L9.22803 7.4437C9.22803 7.42495 9.8978 7.4437 9.8978 7.4437C9.8978 7.46245 9.95362 9.11245 9.95362 9.11245V9.0937Z" fill="#1C082D"/>
<path d="M9.95362 9.09371L10.4932 9.63746L8.83734 9.59996L8.31641 9.05621L9.95362 9.09371Z" fill="#13061E"/>
<path d="M9.87884 10.35L10.4184 10.875L8.24163 10.8187L7.7207 10.2937L9.87884 10.35Z" fill="#596D5F"/>
<path d="M11.8324 8.77496L12.3534 9.31871L10.3999 10.875L9.86035 10.35L11.8324 8.77496Z" fill="#6A8A76"/>
<path d="M11.851 8.77498L9.89752 10.3312L7.72077 10.275L6.60449 8.64373L7.19984 6.37498L9.15333 4.81873L11.3301 4.87498L12.4464 6.50623L11.851 8.77498ZM8.31612 9.05623L9.97193 9.09373L9.91612 7.46248C10.158 7.34998 10.3626 7.10623 10.4371 6.84373C10.5487 6.44998 10.3254 6.13123 9.93473 6.11248C9.54403 6.11248 9.15333 6.41248 9.06031 6.80623C8.98589 7.06873 9.06031 7.31248 9.24635 7.44373L8.35333 9.05623H8.31612Z" fill="#32D698"/>
<path d="M12.4464 6.52498L12.9674 7.04998L12.372 9.31873L11.8511 8.77498L12.4464 6.50623V6.52498Z" fill="#C3DBCF"/>
<path d="M9.56264 12.3375L9.26496 12.1125L8.2045 12.525C7.86962 12.6 7.51613 12.7312 7.19985 12.9562C6.88357 13.1812 6.64171 13.4625 6.45566 13.7625L5.69287 14.775L5.78589 14.925C5.8045 14.9625 5.8231 14.9812 5.86031 15.0187C6.51148 15.9562 7.88822 16.1062 8.91148 15.375C9.93473 14.6437 10.251 13.275 9.58124 12.3562C9.58124 12.3562 9.56264 12.3375 9.54403 12.3187L9.56264 12.3375Z" fill="#FF9A22"/>
<path clip-rule="evenodd" d="M9.95335 13.575L9.43242 12.8438L9.30219 13.4437L9.84172 14.2125C9.91614 14.0063 9.95335 13.8 9.95335 13.5938V13.575ZM9.11614 15.2625L8.59521 14.5125L8.20451 14.7938L8.72545 15.5438C8.79986 15.5063 8.85568 15.45 8.9301 15.4125C8.98591 15.375 9.06033 15.3188 9.11614 15.2625ZM7.40451 15.8625L6.86498 15.0938L6.23242 14.9437L6.79056 15.7313C6.99521 15.8063 7.19986 15.8438 7.40451 15.8625Z" fill="#EA7A00" fill-rule="evenodd"/>
<path d="M8.74401 15.1312C9.76727 14.4 10.0835 13.0312 9.41378 12.1125C8.76262 11.175 7.38587 11.025 6.36262 11.7562C5.33936 12.4875 5.02308 13.8562 5.69285 14.775C6.34401 15.7125 7.72076 15.8625 8.74401 15.1312Z" fill="#FFE25D"/>
<path d="M8.50223 14.8125C9.33944 14.2125 9.5813 13.125 9.04176 12.3562C8.50223 11.6062 7.40455 11.475 6.56734 12.075C5.73013 12.675 5.48827 13.7625 6.02781 14.5312C6.56734 15.2812 7.66502 15.4125 8.50223 14.8125Z" fill="#FFB902"/>
<path d="M4.24178 11.7937L4.83713 11.475L4.13016 10.125C4.07434 9.69373 3.94411 9.24373 3.72085 8.83123C3.4976 8.39998 3.19992 8.04373 2.90225 7.76248L2.19527 6.41248L1.67434 6.69373C1.63713 6.69373 1.59992 6.73123 1.56272 6.74998C0.520855 7.29373 0.26039 8.88748 0.985971 10.275C1.71155 11.6812 3.14411 12.3562 4.20458 11.8125C4.20458 11.8125 4.24178 11.7937 4.24178 11.775V11.7937Z" fill="#FF9A22"/>
<path clip-rule="evenodd" d="M2.88359 11.9437L3.7208 11.5125L3.08824 11.2125L2.23242 11.6625C2.45568 11.7937 2.67894 11.8875 2.90219 11.9437H2.88359ZM1.13475 10.5375L1.97196 10.0875L1.69289 9.56245L0.85568 10.0125C0.892889 10.1062 0.930099 10.2 0.985913 10.2937C1.02312 10.3875 1.07894 10.4625 1.13475 10.5375ZM0.595215 8.36245L1.45103 7.91245L1.63708 7.19995L0.762657 7.6687C0.669633 7.87495 0.613819 8.1187 0.595215 8.36245Z" fill="#EA7A00" fill-rule="evenodd"/>
<path d="M1.54408 9.9937C2.26966 11.4 3.70222 12.075 4.76268 11.5312C5.82315 10.9875 6.06501 9.3937 5.33943 8.0062C4.61384 6.59995 3.18129 5.92495 2.12082 6.4687C1.07896 7.01245 0.818495 8.6062 1.54408 9.9937Z" fill="#FFE25D"/>
<path d="M1.89751 9.8062C2.49286 10.9312 3.64635 11.4937 4.50216 11.0437C5.35798 10.5937 5.56263 9.3187 4.96728 8.17495C4.37193 7.04995 3.21844 6.48745 2.36263 6.93745C1.50681 7.38745 1.30216 8.66245 1.89751 9.8062Z" fill="#FFB902"/>
<path d="M2.43715 9.52497C2.84645 10.2937 3.64645 10.6687 4.2604 10.35C4.85575 10.0312 5.02319 9.14997 4.6325 8.38122C4.22319 7.61247 3.42319 7.23747 2.80924 7.55622C2.21389 7.87497 2.04645 8.75622 2.43715 9.52497Z" fill="#FFB902"/>
<path d="M15.2186 13.7812L14.9209 13.2562L16.4651 12.375C16.8372 12.075 17.2651 11.7563 17.7488 11.475C18.2325 11.1938 18.7162 10.9875 19.1628 10.8188L20.7069 9.9375L20.986 10.425C20.986 10.425 21.0046 10.4625 21.0232 10.4813C21.3581 11.0625 20.3162 12.2813 18.7162 13.1813C17.1162 14.1 15.5535 14.3625 15.2186 13.7812C15.2186 13.7812 15.2186 13.7625 15.2186 13.7438V13.7812Z" fill="#FF9A22"/>
<path d="M18.4373 12.6938C16.8373 13.6125 15.2745 13.875 14.9396 13.2938C14.6047 12.7125 15.6466 11.4938 17.2466 10.5938C18.8466 9.675 20.4094 9.4125 20.7443 9.99375C21.0791 10.575 20.0373 11.7938 18.4373 12.6938Z" fill="#FFE25D"/>
<path d="M18.3256 12.4875C17.0232 13.2375 15.7581 13.4438 15.4977 12.975C15.2372 12.5063 16.0744 11.5125 17.3767 10.7813C18.6791 10.0313 19.9442 9.82501 20.2046 10.2938C20.4651 10.7625 19.6279 11.7563 18.3256 12.4875Z" fill="#FFB902"/>
<path d="M20.5022 11.8312L20.2417 11.3062L20.651 10.7437L20.9115 11.2687C20.7998 11.4562 20.6696 11.625 20.5022 11.8125V11.8312Z" fill="#EA7A00"/>
<path d="M16.8185 13.9875C16.5581 14.0437 16.3348 14.0812 16.1301 14.1L15.8511 13.6125L16.5394 13.5L16.8185 14.0062V13.9875Z" fill="#EA7A00"/>
<path d="M19.0512 12.9937C18.9395 13.05 18.8279 13.125 18.7163 13.2C18.6419 13.2562 18.5489 13.2937 18.4558 13.35L18.1768 12.8437L18.7721 12.5062L19.0512 13.0125V12.9937Z" fill="#EA7A00"/>
<path d="M3.88825 7.78125C4.03708 7.74375 4.18592 7.725 4.33476 7.6875C4.35336 8.4375 4.40918 9.20625 4.46499 9.95625C4.31615 9.99375 4.14871 10.0313 3.99988 10.0688C3.81383 9.675 3.62778 9.28125 3.44174 8.8875C3.49755 9.31875 3.55336 9.73125 3.62778 10.1625C3.47895 10.2188 3.33011 10.2562 3.18127 10.3125C2.80918 9.65625 2.43708 9 2.04639 8.34375C2.21383 8.26875 2.38127 8.19375 2.54871 8.1375C2.75336 8.55 2.95801 8.9625 3.16267 9.375C3.10685 8.90625 3.03243 8.45625 2.97662 7.9875C3.08825 7.95 3.21848 7.9125 3.33011 7.875C3.53476 8.30625 3.73941 8.71875 3.94406 9.13125C3.88825 8.68125 3.83243 8.2125 3.77662 7.7625C3.81383 7.7625 3.83243 7.74375 3.86964 7.74375L3.88825 7.78125Z" fill="#F7F7F7"/>
<path d="M8.61376 12.7875C8.7812 12.825 8.94864 12.8813 9.09748 12.9188C8.70678 13.4438 8.35329 13.9875 7.9998 14.5125C7.81376 14.475 7.64631 14.4188 7.47887 14.3813C7.51608 14.025 7.53469 13.6875 7.5719 13.3313C7.40445 13.65 7.21841 13.9688 7.05097 14.2875C6.86492 14.25 6.69748 14.2125 6.51143 14.1938C6.51143 13.575 6.47422 12.9563 6.43701 12.3375C6.64166 12.3563 6.84631 12.3938 7.05097 12.4313C7.05097 12.8063 7.01376 13.1813 6.99515 13.5563C7.1812 13.2188 7.36724 12.8813 7.5719 12.525C7.72073 12.5438 7.85097 12.5813 7.9812 12.6188C7.9812 12.9938 7.94399 13.3875 7.90678 13.7625C8.09283 13.425 8.29748 13.0875 8.48352 12.75C8.52073 12.75 8.55794 12.75 8.59515 12.7688L8.61376 12.7875Z" fill="white"/>
<path d="M17.0604 2.5875C17.1906 2.64375 17.3209 2.7 17.4511 2.775C17.0976 3.16875 16.7627 3.5625 16.4278 3.95625C16.3162 3.9 16.2046 3.8625 16.093 3.80625C16.1674 3.525 16.2418 3.24375 16.3348 2.98125C16.1674 3.225 15.9999 3.45 15.8325 3.69375C15.7209 3.65625 15.5906 3.61875 15.479 3.5625C15.572 3.05625 15.6651 2.56875 15.7395 2.0625C15.8883 2.1 16.0185 2.1375 16.1488 2.19375C16.0744 2.49375 15.9999 2.79375 15.9255 3.09375C16.1116 2.83125 16.2976 2.56875 16.4837 2.325C16.5767 2.3625 16.6697 2.4 16.7441 2.4375C16.6697 2.7375 16.5953 3.0375 16.5023 3.3375C16.6883 3.075 16.8744 2.83125 17.0604 2.56875V2.5875Z" fill="white"/>
<path d="M20.3909 5.68123C20.5211 5.68123 20.6699 5.68123 20.8002 5.69998C20.6699 6.09373 20.5583 6.46872 20.4653 6.86247C20.3536 6.86247 20.2234 6.86247 20.1118 6.86247C20.056 6.63747 20.0002 6.41248 19.9443 6.18748C19.9071 6.41248 19.8699 6.63747 19.8327 6.86247C19.7211 6.86247 19.5909 6.86247 19.4792 6.86247C19.3304 6.46872 19.2002 6.07498 19.0327 5.69998C19.1629 5.69998 19.2932 5.68123 19.442 5.68123C19.5164 5.92498 19.5909 6.16873 19.6467 6.39372C19.6839 6.14998 19.7397 5.90623 19.7769 5.66248C19.8699 5.66248 19.9629 5.66248 20.056 5.66248C20.1304 5.90623 20.1862 6.14998 20.2606 6.39372C20.2978 6.14998 20.3536 5.90623 20.3909 5.68123Z" fill="white"/>
<path d="M19.1441 11.4562C19.1999 11.55 19.2371 11.625 19.2743 11.7187C18.4743 12.0187 17.6743 12.3375 16.893 12.6562C16.8371 12.5625 16.7813 12.4687 16.7255 12.3937C17.1348 12.1312 17.5255 11.85 17.9348 11.5875C17.4883 11.7937 17.0418 11.9812 16.5953 12.1875C16.5209 12.1125 16.465 12.0187 16.3906 11.9437C17.0604 11.4375 17.7302 10.9312 18.3813 10.425C18.4743 10.5187 18.5488 10.5937 18.6232 10.6875C18.1953 10.9875 17.7674 11.2875 17.3581 11.5687C17.8418 11.3437 18.3255 11.1375 18.8092 10.9312C18.865 10.9875 18.9023 11.0625 18.9581 11.1375C18.5302 11.4375 18.1023 11.7375 17.6557 12.0375C18.1395 11.8312 18.6232 11.6062 19.1069 11.4C19.1069 11.4 19.1255 11.4375 19.1441 11.4562Z" fill="white"/>
<path d="M13.6931 17.85C13.3583 17.7937 13.042 17.7375 12.7071 17.7C12.6513 17.7 12.5955 17.7 12.5397 17.7L12.3536 17.8312C12.2234 18.3187 12.1117 18.8062 11.9815 19.2937C11.8513 18.7312 11.721 18.15 11.5722 17.5875C11.3117 17.5687 11.0699 17.5312 10.7908 17.5125L10.6048 17.6437C10.4745 18.1312 10.3629 18.6375 10.2513 19.125C10.121 18.5625 9.97221 18 9.82337 17.4375C9.45128 17.4187 9.06058 17.4 8.68849 17.3812L8.50244 17.5125C8.89314 18.6187 9.26523 19.7062 9.61872 20.8125C9.9536 20.8125 10.2699 20.85 10.6048 20.8687L10.7908 20.7375C10.8838 20.2875 10.9769 19.8562 11.0885 19.425C11.2001 19.9312 11.3117 20.4562 11.4234 20.9625C11.7583 21 12.0745 21.0375 12.428 21.075L12.6141 20.9437C12.949 19.9125 13.321 18.9 13.7117 17.8875L13.6931 17.85ZM11.4048 17.6812C11.2745 17.6812 11.1443 17.6625 11.0141 17.6437C11.1443 17.6437 11.2745 17.6625 11.4048 17.6812C11.4978 18.0187 11.5722 18.3562 11.6466 18.7125C11.5722 18.375 11.4792 18.0375 11.4048 17.6812Z" fill="#B44515"/>
<path d="M12.5396 17.8312C12.8745 17.8687 13.1908 17.925 13.5256 17.9813C13.1349 19.0125 12.7629 20.025 12.428 21.0563C12.0931 21.0188 11.7582 20.9813 11.4233 20.9438C11.2931 20.3063 11.1629 19.6875 11.014 19.0687C10.8652 19.6688 10.7349 20.2688 10.6233 20.8688C10.2884 20.85 9.95355 20.8313 9.63728 20.8125C9.28379 19.7063 8.91169 18.6188 8.521 17.5312C8.89309 17.5312 9.28379 17.5312 9.65588 17.5687C9.84193 18.2437 10.0094 18.9188 10.1582 19.5938C10.307 18.9375 10.4559 18.3 10.6233 17.6437C10.8838 17.6437 11.1443 17.6813 11.4047 17.7188C11.5722 18.4125 11.7396 19.0875 11.8884 19.7625C12.0373 19.125 12.2047 18.4875 12.3722 17.85C12.428 17.85 12.4838 17.85 12.5396 17.85V17.8312Z" fill="#CE7717"/>
</svg>