<?xml version="1.0" encoding="utf-8"?>
<svg xmlns="http://www.w3.org/2000/svg" fill="none" height="32" viewBox="0 0 32 32" width="32">
<path clip-rule="evenodd" d="M14.981 26.9424V21.2227H16.981V26.9424H14.981Z" fill="#80D474" fill-opacity="0.3" fill-rule="evenodd"/>
<path clip-rule="evenodd" d="M14.981 10.8349V5.01953H16.981V10.8349H14.981Z" fill="#80D474" fill-opacity="0.3" fill-rule="evenodd"/>
<path clip-rule="evenodd" d="M25.0113 22.2819L19.9229 19.3742L20.9151 17.6377L26.0036 20.5454L25.0113 22.2819Z" fill="#80D474" fill-opacity="0.3" fill-rule="evenodd"/>
<path clip-rule="evenodd" d="M10.954 14.2682L5.96118 11.437L6.94771 9.69727L11.9405 12.5285L10.954 14.2682Z" fill="#80D474" fill-opacity="0.3" fill-rule="evenodd"/>
<path clip-rule="evenodd" d="M25.9867 11.3774L21.2617 14.0939L20.2649 12.36L24.9899 9.64355L25.9867 11.3774Z" fill="#80D474" fill-opacity="0.3" fill-rule="evenodd"/>
<path clip-rule="evenodd" d="M11.9661 19.4687L6.99236 22.3381L5.99292 20.6058L10.9666 17.7363L11.9661 19.4687Z" fill="#80D474" fill-opacity="0.3" fill-rule="evenodd"/>
<path d="M10.7922 13.7478V18.233C10.7922 18.7007 11.0473 19.1258 11.4512 19.3596L15.3412 21.5916C15.7451 21.8254 16.2553 21.8254 16.6591 21.5916L20.5491 19.3596C20.953 19.1258 21.2081 18.7007 21.2081 18.233V13.7478C21.2081 13.2802 20.953 12.855 20.5491 12.6212L16.6591 10.3892C16.2553 10.1554 15.7451 10.1554 15.3412 10.3892L11.4512 12.6212C11.0473 12.855 10.7922 13.2802 10.7922 13.7478Z" fill="#83E774"/>
<path clip-rule="evenodd" d="M16.0001 3.66699C9.18857 3.66699 3.66675 9.18883 3.66675 16.0003C3.66675 22.8118 9.18857 28.3337 16.0001 28.3337C22.8116 28.3337 28.3334 22.8118 28.3334 16.0003C28.3334 9.18883 22.8116 3.66699 16.0001 3.66699ZM1.66675 16.0003C1.66675 8.08426 8.084 1.66699 16.0001 1.66699C23.9162 1.66699 30.3334 8.08426 30.3334 16.0003C30.3334 23.9164 23.9162 30.3337 16.0001 30.3337C8.084 30.3337 1.66675 23.9164 1.66675 16.0003Z" fill="#80D474" fill-opacity="0.3" fill-rule="evenodd"/>
<path d="M3.92383 12.864L6.6093 11.296C7.02384 11.0437 7.29419 10.5931 7.29419 10.1065L7.27617 7.06055C5.67209 8.6466 4.50057 10.6292 3.92383 12.864Z" fill="#83E774"/>
<path d="M7.2042 24.8315L7.18618 21.9478C7.18618 21.4612 6.91583 21.0106 6.50129 20.7583L3.97803 19.3164C4.55477 21.4432 5.69025 23.3356 7.2042 24.8315Z" fill="#83E774"/>
<path d="M24.939 21.8034L24.957 24.6691C26.4169 23.1551 27.4983 21.2987 28.057 19.208L25.6238 20.6138C25.1913 20.8662 24.939 21.3167 24.939 21.8034Z" fill="#83E774"/>
<path d="M24.7046 7.09668L24.7226 10.1066C24.7226 10.5932 24.993 11.0438 25.4075 11.2961L28.0209 12.792C27.4441 10.5932 26.2906 8.62866 24.7046 7.09668Z" fill="#83E774"/>
<path d="M19.0815 3.92438C18.0902 3.67206 17.0628 3.5459 15.9995 3.5459C14.9361 3.5459 13.8907 3.67206 12.9175 3.92438L15.3146 5.31217C15.7291 5.5645 16.2518 5.5645 16.6843 5.31217L19.0815 3.92438Z" fill="#83E774"/>
<path d="M15.3145 26.4179L12.593 27.986C13.6744 28.2924 14.8099 28.4546 15.9994 28.4546C17.189 28.4546 18.3244 28.2924 19.4058 27.986L16.6843 26.4179C16.2517 26.1836 15.7291 26.1836 15.3145 26.4179Z" fill="#83E774"/>
</svg>