<?xml version="1.0" encoding="utf-8"?>
<svg xmlns="http://www.w3.org/2000/svg" fill="none" height="33" viewBox="0 0 32 33" width="32">
<path clip-rule="evenodd" d="M16.6421 14.923C15.6703 10.838 12.6375 8.8384 9.48583 8.53279C6.42335 8.23583 3.12258 9.53164 1.50255 12.1271C0.870752 13.0782 0.439726 14.4545 0.506884 15.8367C0.566183 17.0572 1.02224 18.3335 2.11458 19.2865C1.04175 20.1353 0.438322 21.5105 0.681904 22.9577L0.729863 23.2429L0.734346 23.2703C0.750601 23.3695 0.770882 23.4907 0.78376 23.567L0.792017 23.6158C0.793942 23.6271 0.796074 23.6396 0.797514 23.6477L0.798629 23.6539C0.798911 23.6555 0.80014 23.6622 0.801759 23.6703L0.804045 23.6815C0.805032 23.6862 0.807665 23.6981 0.809348 23.7054C0.812512 23.7185 0.824363 23.7622 0.833815 23.7926C0.844778 23.8191 0.892227 23.8595 0.967424 23.9027C1.43908 25.0095 2.29626 25.9144 3.33602 26.4789L3.33914 26.4806C4.09953 26.89 4.8591 27.1202 5.42391 27.2492C5.42549 27.4015 5.44377 27.5553 5.47992 27.708L5.48092 27.7122L5.48195 27.7164L5.88827 29.3707C6.15964 30.5044 7.3054 31.1542 8.39309 30.8966L8.39718 30.8956L8.40126 30.8946L14.6801 29.354C15.814 29.0826 16.4637 27.9368 16.2061 26.8491L16.2053 26.8457L16.2045 26.8423L15.9136 25.6498C15.7772 25.0902 15.2128 24.7471 14.6532 24.8836C14.0935 25.0201 13.7505 25.5845 13.887 26.1441L14.1761 27.3297L7.91253 28.8666L7.50993 27.2274L13.2883 25.8045C13.8476 25.6668 14.1894 25.1017 14.0517 24.5424C13.9185 24.0014 13.3856 23.664 12.8448 23.7669C12.793 23.7716 12.741 23.7802 12.689 23.7929L6.45555 25.3195L6.43324 25.3164C6.30901 25.2992 6.12591 25.2691 5.90481 25.2192C5.45787 25.1183 4.8826 24.9421 4.32979 24.6447C3.5512 24.2216 2.9706 23.5106 2.75427 22.702L2.73905 22.6115C2.58698 21.708 3.17554 20.8079 4.12796 20.5686L7.51348 19.7404L7.51763 19.7394L7.52177 19.7383C8.04934 19.6047 8.58297 19.9287 8.70903 20.454L8.71056 20.4604L8.71217 20.4667C8.84583 20.9943 8.52177 21.528 7.99654 21.654L7.99385 21.6547L7.99117 21.6553L5.50443 22.2661C4.945 22.4035 4.60289 22.9684 4.74029 23.5278C4.8777 24.0873 5.44259 24.4294 6.00202 24.292L8.4864 23.6818C10.1386 23.2835 11.1505 21.6115 10.736 19.9608C10.7344 19.9543 10.7328 19.9478 10.7312 19.9414C11.5074 19.547 12.2122 18.9927 12.7355 18.24C13.5068 17.1307 13.8008 15.7096 13.4985 14.0214C13.3969 13.4543 12.8549 13.077 12.2879 13.1786C11.7208 13.2801 11.3435 13.8221 11.4451 14.3891C11.6662 15.624 11.4294 16.4642 11.0228 17.0491C10.6874 17.5315 10.1823 17.9172 9.5451 18.1955C8.8391 17.6901 7.92327 17.4861 7.01405 17.715L4.46261 18.3392C4.45174 18.3388 4.44083 18.3387 4.42988 18.3387L4.41586 18.3386C4.41147 18.3375 4.40368 18.3354 4.39223 18.3314C4.33988 18.3131 4.18986 18.249 3.9317 18.043L3.88745 18.0076L3.83964 17.9773C2.98986 17.4384 2.63391 16.6287 2.5905 15.7354C2.54533 14.8056 2.85092 13.8625 3.24603 13.2726L3.25614 13.2575L3.26573 13.2421C4.38305 11.4412 6.84141 10.3722 9.28449 10.6091C11.6443 10.838 13.8685 12.2777 14.6127 15.4058C15.3592 18.5438 14.9231 21.1626 14.6682 22.6928C14.642 22.85 14.6178 22.9958 14.5969 23.1294C14.508 23.6985 14.8973 24.232 15.4664 24.3209C16.0356 24.4099 16.569 24.0206 16.658 23.4514C16.6774 23.327 16.701 23.1868 16.7271 23.0317C16.9858 21.4936 17.4908 18.4905 16.6421 14.923Z" fill="#FF715E" fill-rule="evenodd" opacity="0.3"/>
<path d="M22.7696 23.9265L14.7691 21.8723C14.2168 21.7305 13.6541 22.0633 13.5123 22.6156L12.8902 25.0383C12.7484 25.5907 13.0812 26.1534 13.6335 26.2952L21.634 28.3494C22.1863 28.4912 22.749 28.1584 22.8909 27.6061L23.5129 25.1834C23.6547 24.6311 23.3219 24.0683 22.7696 23.9265Z" fill="#FF715E"/>
<path clip-rule="evenodd" d="M15.2985 8.25563C15.345 8.31452 15.3921 8.37391 15.4395 8.43377L15.4395 8.43379C16.0467 9.20067 16.7138 10.0433 17.2323 10.8738C17.9563 12.0338 18.561 13.4187 18.3256 14.9134C18.122 16.2062 17.3605 16.9822 16.6798 17.4101C16.346 17.62 16.0281 17.7501 15.7932 17.8285C15.6746 17.8681 15.5739 17.8956 15.4985 17.9139C15.4607 17.9231 15.429 17.9301 15.4043 17.9353L15.3724 17.9416L15.3606 17.9438L15.3557 17.9447L15.3535 17.9451L15.3525 17.9453C15.352 17.9454 15.3515 17.9454 15.1721 16.9179L15.3515 17.9454C14.784 18.0445 14.2437 17.6648 14.1446 17.0974C14.0461 16.5335 14.4204 15.9964 14.982 15.8924C14.9849 15.8918 14.9926 15.8901 15.0043 15.8872C15.0303 15.8809 15.075 15.869 15.1327 15.8497C15.2504 15.8104 15.4088 15.7451 15.5695 15.6441C15.8776 15.4504 16.1777 15.1429 16.2649 14.5888C16.3815 13.8486 16.1035 13.0052 15.4627 11.9785C15.271 11.6715 15.0621 11.3701 14.841 11.0694C13.542 11.2137 12.3876 12.0711 11.9583 13.3702C11.951 13.3993 11.9401 13.432 11.9292 13.4647C11.9183 13.4974 11.9074 13.5301 11.9001 13.5592C11.5656 14.9262 11.6383 16.0169 12.6417 17.5439C13.1555 18.3256 13.7721 18.9397 14.2516 19.3528C14.7515 19.7836 15.3669 20.0412 16.0062 20.2047L23.3904 22.0932C24.1483 22.287 24.9506 22.3446 25.6431 21.9806C27.0819 21.2243 29.5956 19.0926 31.154 13.1666C33.4372 4.4847 23.8684 -0.183444 18.4296 2.94319C16.8478 3.78061 15.08 5.911 15.2985 8.25563Z" fill="#FF715E" fill-rule="evenodd"/>
</svg>