<?xml version="1.0" encoding="utf-8"?>
<svg xmlns="http://www.w3.org/2000/svg" fill="none" height="86" viewBox="0 0 86 86" width="86">
<path d="M64.3568 83.8176C63.1347 83.8176 61.9125 83.5312 60.824 82.9965L43.0074 74.1741L25.1909 82.9774C24.1024 83.5121 22.8802 83.7985 21.6581 83.7985C19.3475 83.7985 17.1514 82.7865 15.6237 81.0296C14.1152 79.2728 13.4468 76.9622 13.7714 74.6706L16.6549 55.0017L2.77211 40.7943C0.690644 38.6746 -0.0159067 35.6002 0.900703 32.774C1.81731 29.9478 4.20432 27.8854 7.14511 27.3889L26.7376 24.0471L35.961 6.44055C37.3359 3.80529 40.0476 2.18213 43.0074 2.18213C45.9864 2.18213 48.679 3.82439 50.0539 6.44055L59.2773 24.0471L78.8698 27.3889C81.7915 27.8854 84.1976 29.9478 85.1142 32.774C86.0308 35.6002 85.3051 38.6746 83.2428 40.7943L69.36 55.0017L72.2435 74.6706C72.5872 76.9622 71.8997 79.2728 70.3911 81.0296C68.8635 82.8055 66.6674 83.8176 64.3568 83.8176Z" fill="url(#paint0_linear_3172_12102)"/>
<path d="M41.3843 9.32375C42.0717 8.02522 43.924 8.02522 44.6115 9.32375L54.8279 28.8208C55.0952 29.3173 55.5726 29.6801 56.1264 29.7756L77.8195 33.4611C79.2708 33.7094 79.8437 35.4853 78.8125 36.5165L63.4211 52.2516C63.0201 52.6526 62.8482 53.2255 62.9246 53.7793L66.1136 75.5679C66.3237 77.0192 64.8151 78.1076 63.4975 77.4584L43.8095 67.7003C43.2939 67.4521 42.7019 67.4521 42.1863 67.7003L22.4601 77.4584C21.1425 78.1076 19.6339 77.0192 19.844 75.5679L23.033 53.7793C23.1094 53.2255 22.9375 52.6526 22.5365 52.2516L7.14509 36.5165C6.11391 35.4662 6.68679 33.6903 8.13809 33.4611L29.8694 29.7565C30.4231 29.661 30.9196 29.3173 31.1679 28.8017L41.3843 9.32375Z" fill="#F5B084"/>
<path d="M79.0607 34.2441C78.7933 33.8431 78.3923 33.5566 77.8576 33.4611L56.1645 29.7756C55.6107 29.6801 55.1143 29.3364 54.866 28.8208L44.6496 9.32375C43.9622 8.02522 42.1099 8.02522 41.4224 9.32375L31.206 28.8208C30.9387 29.3173 30.4613 29.6801 29.9075 29.7756L8.2144 33.4611C7.67971 33.5566 7.2596 33.8621 7.01135 34.2441C7.06864 34.3395 7.14503 34.435 7.22142 34.5114L22.6128 50.2465C23.0138 50.6475 23.5485 51.4305 23.4721 52.0034L23.3194 52.9964C23.4721 53.3019 23.1475 53.4547 23.1093 53.7984L20.0539 74.594C20.455 75.4724 21.5434 75.9498 22.5173 75.4724L42.2435 65.7143C42.7591 65.4661 43.3511 65.4661 43.8667 65.7143L63.5929 75.4724C64.5668 75.9498 65.6553 75.4724 66.0563 74.594L63.0009 53.7984C62.9436 53.4547 62.6572 53.4356 62.7909 53.13L62.6381 52.137C62.5617 51.5833 62.7336 51.0104 63.1346 50.6094L78.8697 34.5114C78.927 34.435 78.9843 34.3395 79.0607 34.2441Z" fill="url(#paint1_linear_3172_12102)"/>
<path d="M62.9819 54.0468L62.9246 53.6267L62.6382 52.1563C62.5618 51.6025 62.7337 51.0297 63.1347 50.6286L77.6859 35.6764L54.8852 31.8C54.3314 31.7045 53.8349 31.3608 53.5867 30.8452L43.3703 11.3481C42.8356 10.2405 42.9693 10.2787 42.2818 11.5773L32.2373 31.0361C31.97 31.5326 31.4926 31.8954 30.9388 31.9909L8.29089 35.6764L22.5556 50.2658C22.9566 50.6668 23.4149 51.3543 23.3195 51.9081C23.3195 51.9081 23.0712 53.3403 23.0521 53.6267C23.0712 53.7604 22.823 55.0398 22.823 55.0398L19.9777 74.5941C20.436 75.5871 21.5817 75.9118 22.441 75.4535L42.1672 65.6954C42.6828 65.4472 43.2748 65.4472 43.7904 65.6954L63.5166 75.4535C64.3186 75.8545 65.5026 75.6444 65.98 74.5941L63.3065 55.9946C63.2492 55.6509 63.1156 54.9825 63.1156 54.9825L62.9819 54.0468Z" fill="url(#paint2_linear_3172_12102)"/>
<g opacity="0.4">
<mask height="66" id="mask0_3172_12102" maskUnits="userSpaceOnUse" style="mask-type:alpha" width="70" x="8" y="10">
<path d="M62.9819 54.0446L62.9246 53.6245L62.6382 52.1541C62.5618 51.6003 62.7337 51.0275 63.1347 50.6264L77.6859 35.6743L54.8852 31.7978C54.3314 31.7023 53.8349 31.3586 53.5867 30.843L43.3703 11.3459C42.8356 10.2383 42.9693 10.2765 42.2818 11.5751L32.2373 31.0339C31.97 31.5304 31.4926 31.8932 30.9388 31.9887L8.29089 35.6743L22.5556 50.2636C22.9566 50.6646 23.4149 51.3521 23.3195 51.9059C23.3195 51.9059 23.0712 53.3381 23.0521 53.6245C23.0712 53.7582 22.823 55.0376 22.823 55.0376L19.9777 74.5919C20.436 75.5849 21.5817 75.9096 22.441 75.4513L42.1672 65.6932C42.6828 65.445 43.2748 65.445 43.7904 65.6932L63.5166 75.4513C64.3186 75.8523 65.5026 75.6422 65.98 74.5919L63.3065 55.9924C63.2492 55.6487 63.1156 54.9803 63.1156 54.9803L62.9819 54.0446Z" fill="url(#paint3_linear_3172_12102)"/>
</mask>
<g mask="url(#mask0_3172_12102)">
<rect fill="#D9D9D9" height="90.678" opacity="0.4" transform="rotate(45 45.7294 -22.1157)" width="45.1934" x="45.7294" y="-22.1157"/>
</g>
</g>
<defs>
<linearGradient gradientUnits="userSpaceOnUse" id="paint0_linear_3172_12102" x1="1.89999" x2="93.359" y1="2.18217" y2="6.35125">
<stop offset="0.0370422" stop-color="#F0AE83"/>
<stop offset="1" stop-color="#B46F46"/>
</linearGradient>
<linearGradient gradientUnits="userSpaceOnUse" id="paint1_linear_3172_12102" x1="8.19238" x2="85.7092" y1="8.34988" y2="11.9825">
<stop offset="0.0370422" stop-color="#C1835A"/>
<stop offset="0.684195" stop-color="#B46F46"/>
</linearGradient>
<linearGradient gradientUnits="userSpaceOnUse" id="paint2_linear_3172_12102" x1="9.42841" x2="84.0908" y1="10.5576" y2="14.0421">
<stop offset="0.0370422" stop-color="#E99966"/>
<stop offset="1" stop-color="#9D5E38"/>
</linearGradient>
<linearGradient gradientUnits="userSpaceOnUse" id="paint3_linear_3172_12102" x1="9.42841" x2="84.0908" y1="10.5554" y2="14.0399">
<stop offset="0.0370422" stop-color="#C6C6C6"/>
<stop offset="1" stop-color="#A6A6A6"/>
</linearGradient>
</defs>
</svg>