<?xml version="1.0" encoding="utf-8"?>
<svg xmlns="http://www.w3.org/2000/svg" fill="none" viewBox="0 0 32 32">
  <g clip-path="url(#a)">
    <path d="M25.883 9.11s.745 2.014.63 4.358c-.116 2.344-2.7.52-2.7.52l.856 2.802s3.724.311 3.302-3.478c-.423-3.79-1.534-4.743-1.534-4.743l-.554.54Z" fill="#F7BA4A"/>
    <path d="M27.175 9.275c.59-.748.47-1.84-.265-2.44a1.688 1.688 0 0 0-2.4.27c-.588.748-.47 1.84.266 2.44.736.6 1.81.478 2.4-.27Z" fill="#CB4E74"/>
    <path d="M27.256 7.778c.022.197-.013.396-.102.572a.994.994 0 0 1-.398.418.97.97 0 0 1-1.09-.09 1.017 1.017 0 0 1-.026-1.548.976.976 0 0 1 1.25-.022c.204.165.336.406.366.67Z" fill="#FFD587"/>
    <path d="M4.348 2.785s.96 6.166.578 13.84c-.381 7.674-1.759 12.669-1.759 12.669l10.348 3.817 15.318-3.624s0-6.018-1.175-10.347c-1.174-4.33-5.286-11.932-5.286-11.932l3.9-8.319-14.744.633-7.18 3.263Z" fill="#CB4E74"/>
    <path d="m8.315 8.378 3.22-8.857h-.008l-7.18 3.264s.943 5.428.58 13.66c-.294 6.63-1.76 12.849-1.76 12.849l10.346 3.815s0-5.517-.693-11.158C12.127 16.31 8.315 8.378 8.315 8.378Z" fill="#704761"/>
    <path d="m13.132 1.475-2.124 5.574 9.812-.543 2.374-5.38-10.062.349ZM11.093 10.15l3.137 9.561 11.063-1.69-3.835-8.809-10.365.938Z" fill="#704761"/>
    <path d="m15.085 12.12-2.732.255 1.787 5.014 2.902-.4-1.957-4.868ZM18.39 11.732l-2.732.255 1.964 4.954 2.902-.4-2.135-4.809ZM21.697 11.344l-2.731.254 1.985 4.923 2.901-.4-2.155-4.777Z" fill="#FFF4E7"/>
    <path d="M18.08 22.52c.064.378-.552.797-1.374.94-.823.143-1.541-.047-1.604-.423-.063-.376.552-.796 1.375-.94.822-.142 1.54.047 1.604.423Z" fill="#EFE1BB"/>
    <path d="M17.38 22.337c.035.213-.315.452-.78.533-.466.081-.874-.026-.91-.24-.036-.213.314-.451.78-.532.466-.081.874.025.91.24Z" fill="#F7BA4A"/>
    <path d="M22.243 21.772c.063.378-.542.906-1.375.94-.707.029-1.457-.128-1.604-.422-.17-.341.553-.797 1.375-.94.823-.143 1.54.046 1.604.422Z" fill="#EFE1BB"/>
    <path d="M21.573 21.577c.035.208-.306.441-.761.52-.456.08-.854-.025-.889-.233-.035-.209.307-.442.762-.52.455-.08.853.025.888.233Z" fill="#F7BA4A"/>
    <path d="M26.407 21.027c.063.377-.553.797-1.376.94-.822.142-1.54-.046-1.604-.423-.063-.376.553-.797 1.376-.94.822-.142 1.54.047 1.604.423Z" fill="#EFE1BB"/>
    <path d="M25.717 20.82c.034.2-.297.427-.738.503-.44.077-.825-.025-.86-.227-.033-.201.297-.427.738-.503.441-.077.826.025.86.226Z" fill="#F7BA4A"/>
    <path d="m14.583 25.19.165 1.737 4.4-.773-.197-1.737-4.368.774Z" fill="#EFE1BB"/>
    <path d="m15.016 25.113.102 1.128 3.556-.666-.104-1.08-3.554.618Z" fill="#F7BA4A"/>
    <path d="m22.977 23.684.166 1.737 4.4-.773-.198-1.737-4.367.773Z" fill="#EFE1BB"/>
    <path d="m23.423 23.605.1 1.11 3.533-.62-.105-1.111-3.528.62Z" fill="#F7BA4A"/>
  </g>
  <defs>
    <clipPath id="a">
      <path d="M0 0h32v32H0z" fill="#fff"/>
    </clipPath>
  </defs>
</svg>