<?xml version="1.0" encoding="utf-8"?>
<svg xmlns="http://www.w3.org/2000/svg" fill="none" viewBox="0 0 24 24">
<g clip-path="url(#clip0_670_28811)">
<rect fill="url(#paint0_linear_670_28811)" fill-opacity="0.6" height="15.8153" opacity="0.6" rx="2.21538" width="17.5743" x="1.28448" y="5.61548"/>
<path d="M9.8678 0.629026C9.93217 0.481087 10.142 0.481088 10.2064 0.629027L11.4163 3.40964C11.4431 3.47114 11.5011 3.51329 11.5679 3.51974L14.5863 3.81121C14.7469 3.82672 14.8117 4.02627 14.6909 4.1332L12.4203 6.14319C12.37 6.18764 12.3479 6.25584 12.3624 6.32133L13.0179 9.28208C13.0528 9.43961 12.883 9.56293 12.744 9.48109L10.1307 7.94271C10.0729 7.90868 10.0012 7.90868 9.94343 7.94271L7.33016 9.48109C7.19112 9.56293 7.02138 9.4396 7.05625 9.28208L7.71179 6.32133C7.72629 6.25584 7.70413 6.18764 7.65391 6.14319L5.38328 4.1332C5.26248 4.02627 5.32731 3.82672 5.4879 3.81121L8.50632 3.51974C8.57308 3.51329 8.6311 3.47114 8.65786 3.40964L9.8678 0.629026Z" fill="white"/>
<path clip-rule="evenodd" d="M3.94482 12.2112C3.94482 11.6584 4.39299 11.2102 4.94584 11.2102H6.18134C6.73419 11.2102 7.18236 11.6584 7.18236 12.2112V17.4134C7.18236 17.9663 6.73419 18.4144 6.18134 18.4144H4.94584C4.39299 18.4144 3.94482 17.9663 3.94482 17.4134V12.2112ZM8.45573 12.2113C8.45573 11.6584 8.9039 11.2102 9.45675 11.2102H10.688C11.2408 11.2102 11.689 11.6584 11.689 12.2113V17.4135C11.689 17.9663 11.2408 18.4145 10.688 18.4145H9.45674C8.9039 18.4145 8.45573 17.9663 8.45573 17.4135V12.2113ZM13.9633 11.2102C13.4104 11.2102 12.9622 11.6584 12.9622 12.2113V17.4135C12.9622 17.9663 13.4104 18.4145 13.9633 18.4145H15.1976C15.7504 18.4145 16.1986 17.9663 16.1986 17.4135V12.2113C16.1986 11.6584 15.7504 11.2102 15.1976 11.2102H13.9633Z" fill="#80D474" fill-rule="evenodd"/>
<path clip-rule="evenodd" d="M22.1763 8.40488C22.1764 8.40487 22.1764 8.40486 22.1764 8.40485V12.3872C22.1764 13.9461 20.9127 15.2098 19.3539 15.2098H18.5041C18.3338 15.2098 18.1798 15.1402 18.069 15.028C18.1798 15.1402 18.3338 15.2097 18.504 15.2097H19.3538C20.9126 15.2097 22.1763 13.946 22.1763 12.3871V8.40488ZM20.5454 8.22908V12.3872C20.5454 13.0453 20.0119 13.5788 19.3539 13.5788H18.5041C17.9411 13.5788 17.4847 14.0352 17.4847 14.5981C17.4847 15.1611 17.9411 15.6175 18.5041 15.6175H19.3539C21.1379 15.6175 22.5842 14.1713 22.5842 12.3872V8.22857C23.2111 7.87289 23.6341 7.19938 23.6341 6.42708C23.6341 5.38359 22.8619 4.52046 21.8578 4.37794C21.765 4.35014 21.6666 4.33521 21.5648 4.33521C21.4632 4.33521 21.3651 4.35006 21.2726 4.3777C20.2676 4.51949 19.4946 5.383 19.4946 6.42708C19.4946 7.19974 19.918 7.87353 20.5454 8.22908Z" fill="#80D474" fill-rule="evenodd"/>
<path d="M9.8678 0.629271C9.93217 0.481332 10.142 0.481332 10.2064 0.629271L11.4163 3.40989C11.4431 3.47139 11.5011 3.51354 11.5679 3.51998L14.5863 3.81145C14.7469 3.82696 14.8117 4.02651 14.6909 4.13345L12.4203 6.14343C12.37 6.18789 12.3479 6.25609 12.3624 6.32157L13.0179 9.28233C13.0528 9.43985 12.883 9.56318 12.744 9.48133L10.1307 7.94295C10.0729 7.90893 10.0012 7.90893 9.94343 7.94295L7.33016 9.48133C7.19112 9.56318 7.02138 9.43985 7.05625 9.28233L7.71179 6.32157C7.72629 6.25609 7.70413 6.18789 7.65391 6.14343L5.38328 4.13345C5.26248 4.02651 5.32731 3.82696 5.4879 3.81145L8.50632 3.51998C8.57308 3.51354 8.6311 3.47139 8.65786 3.40988L9.8678 0.629271Z" fill="#80D474" opacity="0.6"/>
</g>
<defs>
<linearGradient gradientUnits="userSpaceOnUse" id="paint0_linear_670_28811" x1="-8.93122" x2="24.7159" y1="-3.06866" y2="33.7958">
<stop stop-color="#C9ECC4"/>
<stop offset="0.997776" stop-color="#A6E09E"/>
</linearGradient>
<clipPath id="clip0_670_28811">
<rect fill="white" height="24" width="24"/>
</clipPath>
</defs>
</svg>