<?xml version="1.0" encoding="utf-8"?>
<svg xmlns="http://www.w3.org/2000/svg" fill="none" height="20" viewBox="0 0 20 20" width="20">
<g clip-path="url(#clip0_752_1106)">
<path clip-rule="evenodd" d="M14.6076 11.4263L6.20419 1.92627C5.6541 1.31146 4.88827 0.933942 4.06852 0.890797L0.918945 0.729004L1.10231 3.85701C1.14546 4.66598 1.52297 5.4318 2.127 5.97111L11.7412 14.4674L11.0253 15.5823C10.8527 15.8519 10.8958 16.1971 11.1116 16.4236L12.2333 17.5454L14.325 15.4537L16.2682 17.1435C16.2393 17.2692 16.224 17.4002 16.224 17.5347C16.224 18.4938 17.0015 19.2713 17.9606 19.2713C18.9197 19.2713 19.6972 18.4938 19.6972 17.5347C19.6972 16.5756 18.9197 15.7981 17.9606 15.7981C17.8324 15.7981 17.7074 15.812 17.5872 15.8383L15.891 13.8877L18.0363 11.7424L16.9038 10.6206C16.688 10.4049 16.3429 10.3617 16.0732 10.5235L14.6076 11.4263Z" fill="#ABAAFF" fill-rule="evenodd"/>
<path clip-rule="evenodd" d="M5.11734 11.2496C5.25423 11.3339 5.32268 11.376 5.39482 11.3653C5.46696 11.3546 5.52022 11.2944 5.62673 11.174L13.7215 2.02246C14.3256 1.34292 15.1777 0.933048 16.0837 0.889903L18.6481 0.761224C18.8558 0.750801 18.9597 0.745589 19.0226 0.808908C19.0854 0.872228 19.0794 0.976054 19.0675 1.18371L18.9205 3.73747C18.8666 4.63272 18.4567 5.47405 17.788 6.06729L8.52776 14.2399C8.40495 14.3483 8.34354 14.4025 8.33332 14.4758C8.3231 14.5492 8.36735 14.6181 8.45586 14.7559L8.98647 15.5822C9.15905 15.8519 9.1159 16.197 8.90018 16.4235L8.05046 17.2652C7.91708 17.3973 7.85039 17.4633 7.76782 17.4631C7.68526 17.4629 7.61889 17.3966 7.48614 17.2638L5.94463 15.7223C5.81956 15.5972 5.75702 15.5347 5.67828 15.532C5.59953 15.5292 5.53279 15.5873 5.39932 15.7033L3.91469 16.9943C3.83174 17.0664 3.79026 17.1025 3.77227 17.1468C3.75428 17.1911 3.75976 17.2564 3.77072 17.3869C3.7748 17.4354 3.77687 17.4846 3.77687 17.5342C3.77687 18.4932 2.99938 19.2707 2.04029 19.2707C1.08121 19.2707 0.303711 18.4932 0.303711 17.5342C0.303711 16.5751 1.08121 15.7976 2.04029 15.7976C2.08977 15.7976 2.13876 15.7996 2.18718 15.8037C2.31766 15.8146 2.3829 15.8201 2.42719 15.8021C2.47149 15.7841 2.50755 15.7426 2.57967 15.6597L3.87085 14.1748C3.98692 14.0414 4.04495 13.9746 4.04221 13.8959C4.03946 13.8171 3.97692 13.7546 3.85185 13.6295L2.25019 12.0279C2.11569 11.8934 2.04844 11.8261 2.04884 11.7427C2.04924 11.6593 2.11712 11.5927 2.2529 11.4595L3.10798 10.6206C3.3237 10.4048 3.66886 10.3617 3.93852 10.5235L5.11734 11.2496Z" fill="url(#paint0_linear_752_1106)" fill-opacity="0.6" fill-rule="evenodd" opacity="0.6"/>
</g>
<defs>
<linearGradient gradientUnits="userSpaceOnUse" id="paint0_linear_752_1106" x1="6.86644" x2="5.41761" y1="31.8145" y2="-30.88">
<stop offset="0.0926412" stop-color="#CBC9FF"/>
<stop offset="0.730406" stop-color="#ABAAFF"/>
</linearGradient>
<clipPath id="clip0_752_1106">
<rect fill="white" height="20" width="20"/>
</clipPath>
</defs>
</svg>