<?xml version="1.0" encoding="utf-8"?>
<svg xmlns="http://www.w3.org/2000/svg" fill="none" height="32" viewBox="0 0 32 32" width="32">
<path d="M15.8333 7.86699C15.0999 7.86699 14.5666 7.26699 14.5666 6.60033V3.93366C14.5666 3.20033 15.1666 2.66699 15.8333 2.66699C16.5666 2.66699 17.0999 3.26699 17.0999 3.93366V6.60033C17.0999 7.33366 16.5666 7.86699 15.8333 7.86699Z" fill="#FF715E"/>
<path d="M15.8333 29.3338C15.0999 29.3338 14.5666 28.7338 14.5666 28.0671V25.4005C14.5666 24.6671 15.1666 24.1338 15.8333 24.1338C16.5666 24.1338 17.0999 24.7338 17.0999 25.4005V28.0671C17.0999 28.7338 16.5666 29.3338 15.8333 29.3338Z" fill="#FF715E"/>
<path clip-rule="evenodd" d="M12.6156 3.76293C12.9104 3.96931 13.0333 4.29392 13.0333 4.60074V6.93408C13.0333 7.28292 12.8552 7.66845 12.4648 7.86369L12.4495 7.87133L12.4338 7.87818C11.4453 8.31068 10.5103 8.93115 9.62934 9.7475C8.82766 10.5514 8.21031 11.4784 7.77738 12.468L7.77053 12.4836L7.7629 12.4989C7.56983 12.885 7.1907 13.0634 6.84492 13.0673L4.44253 13.1341H4.43327C4.05268 13.1341 3.74912 12.9341 3.57916 12.667C3.42051 12.4177 3.3664 12.0932 3.46748 11.7899L3.46991 11.7827C4.09949 9.96385 5.08346 8.2744 6.56186 6.79601C8.03774 5.32013 9.79462 4.26646 11.6891 3.63495L11.7134 3.62686L11.7383 3.62065C12.0048 3.55402 12.3334 3.56541 12.6156 3.76293ZM11.6999 5.04507C10.1522 5.62376 8.72181 6.52168 7.50467 7.73881C6.29914 8.94435 5.45878 10.3071 4.88753 11.7879L6.6433 11.7391C7.13674 10.6717 7.82069 9.67053 8.69521 8.79601L8.70393 8.78728L8.71298 8.77888C9.63851 7.91946 10.6341 7.23975 11.6999 6.74642V5.04507Z" fill="#FF715E" fill-rule="evenodd" opacity="0.3"/>
<path clip-rule="evenodd" d="M3.59544 19.0847C3.80181 18.7899 4.12642 18.667 4.43326 18.667H5.09993V18.7337H6.83327C7.18213 18.7337 7.56765 18.9117 7.76288 19.3022L7.77378 19.324L7.78305 19.3465C8.22013 20.408 8.84048 21.3981 9.70468 22.2623C10.5091 23.0667 11.4352 23.6841 12.4871 24.1172L12.5096 24.1265L12.5314 24.1374C12.9219 24.3326 13.0999 24.7181 13.0999 25.067V27.4003C13.0999 27.7809 12.8999 28.0845 12.6329 28.2544C12.3835 28.4131 12.059 28.4672 11.7558 28.3661C9.86128 27.7346 8.1044 26.6809 6.62852 25.2051C5.14708 23.7236 4.0963 21.8976 3.46747 20.0111L3.45938 19.9869L3.45317 19.962C3.38653 19.6955 3.39794 19.3668 3.59544 19.0847ZM4.90211 20.067C5.48389 21.6064 6.37579 23.0667 7.57133 24.2623C8.78847 25.4794 10.2188 26.3773 11.7666 26.956V25.2596C10.6389 24.765 9.63614 24.0793 8.76187 23.2051C7.81859 22.2618 7.13162 21.1939 6.64034 20.067H4.90211Z" fill="#FF715E" fill-rule="evenodd" opacity="0.3"/>
<path clip-rule="evenodd" d="M24.037 19.2355C24.2322 18.8451 24.6177 18.667 24.9666 18.667H27.3C27.6862 18.667 27.9638 18.9047 28.1058 19.0999C28.2483 19.2959 28.3864 19.6307 28.2702 19.9975C27.7026 21.9081 26.6425 23.6673 25.1047 25.2051C23.6288 26.6809 21.872 27.7346 19.9774 28.3661L19.9532 28.3742L19.9283 28.3804C19.6618 28.4471 19.3331 28.4357 19.051 28.2381C18.7562 28.0318 18.6333 27.7072 18.6333 27.4003V26.7337H18.7V25.0003C18.7 24.6514 18.8781 24.2659 19.2685 24.0707L19.2838 24.0631L19.2994 24.0562C20.288 23.6237 21.2229 23.0033 22.1039 22.1869C22.9636 21.3248 23.5812 20.3378 24.0168 19.2798L24.0261 19.2573L24.037 19.2355ZM20.0333 26.9309C21.5555 26.3514 22.9623 25.4619 24.1619 24.2623C25.4475 22.9766 26.3464 21.5395 26.8702 20.0003H25.1596C24.6683 21.1272 23.9813 22.1951 23.038 23.1384L23.0293 23.1471L23.0203 23.1555C22.0947 24.015 21.0992 24.6947 20.0333 25.188V26.9309Z" fill="#FF715E" fill-rule="evenodd" opacity="0.3"/>
<path clip-rule="evenodd" d="M19.9666 5.04553V6.74577C21.0176 7.2255 22.0254 7.85003 22.9714 8.79601C23.8459 9.67053 24.5298 10.6717 25.0233 11.7391L26.779 11.7879C26.2087 10.3093 25.37 8.94847 24.1674 7.74429C22.8795 6.51622 21.4965 5.62096 19.9666 5.04553ZM19.051 3.76293C19.3331 3.56541 19.6618 3.55402 19.9283 3.62065L19.9532 3.62686L19.9774 3.63495C21.8808 4.26939 23.564 5.32508 25.0936 6.78517L25.0992 6.79052L25.1047 6.79601C26.5831 8.2744 27.567 9.96386 28.1966 11.7827L28.1991 11.7899C28.3002 12.0932 28.2461 12.4177 28.0874 12.667C27.9175 12.9341 27.6139 13.1341 27.2333 13.1341H27.224L24.8217 13.0673C24.4759 13.0634 24.0967 12.885 23.9037 12.4989L23.896 12.4836L23.8892 12.468C23.4547 11.4748 22.8345 10.5447 22.0286 9.73881C21.1676 8.87781 20.243 8.32018 19.2327 7.87818L19.2171 7.87133L19.2018 7.86369C18.8113 7.66845 18.6333 7.28292 18.6333 6.93408V4.60074C18.6333 4.29392 18.7562 3.96931 19.051 3.76293Z" fill="#FF715E" fill-rule="evenodd" opacity="0.3"/>
<path d="M7.89996 15.8673C7.89996 16.6006 7.29997 17.1339 6.6333 17.1339H3.96663C3.2333 17.1339 2.69995 16.5339 2.69995 15.8673C2.69995 15.1339 3.29997 14.6006 3.96663 14.6006H6.6333C7.29997 14.6006 7.89996 15.1339 7.89996 15.8673Z" fill="#FF715E"/>
<path d="M29.3 15.8673C29.3 16.6006 28.7 17.1339 28.0333 17.1339H25.3666C24.6333 17.1339 24.1 16.5339 24.1 15.8673C24.1 15.1339 24.7 14.6006 25.3666 14.6006H28.0333C28.7 14.6006 29.3 15.1339 29.3 15.8673Z" fill="#FF715E"/>
<g opacity="0.3">
<path clip-rule="evenodd" d="M15.9 9.33398C16.4522 9.33398 16.9 9.7817 16.9 10.334V21.534C16.9 22.0863 16.4522 22.534 15.9 22.534C15.3477 22.534 14.9 22.0863 14.9 21.534V10.334C14.9 9.7817 15.3477 9.33398 15.9 9.33398Z" fill="#FF715E" fill-rule="evenodd"/>
<path clip-rule="evenodd" d="M9.29999 15.9336C9.29999 15.3813 9.7477 14.9336 10.3 14.9336H21.5C22.0523 14.9336 22.5 15.3813 22.5 15.9336C22.5 16.4859 22.0523 16.9336 21.5 16.9336H10.3C9.7477 16.9336 9.29999 16.4859 9.29999 15.9336Z" fill="#FF715E" fill-rule="evenodd"/>
</g>
</svg>