<?xml version="1.0" encoding="utf-8"?>
<svg xmlns="http://www.w3.org/2000/svg" fill="none" height="32" viewBox="0 0 32 32" width="32">
<path clip-rule="evenodd" d="M15.9908 27.3334C16.0247 27.0234 16.2027 26.7338 16.4953 26.5695C17.2437 26.149 17.9815 25.6808 18.7017 25.1646C19.1506 24.8429 19.7753 24.9459 20.0971 25.3948C20.3538 25.753 20.34 26.2232 20.0959 26.562C23.1671 25.3602 25.5993 22.8516 26.6973 19.7313C26.6834 19.7518 26.6694 19.7723 26.6553 19.7927C26.343 20.2482 25.7205 20.3642 25.2651 20.0519C24.8096 19.7395 24.6936 19.1171 25.0059 18.6616C25.6346 17.7449 26.2103 16.767 26.7171 15.7077C26.8392 15.4525 27.0554 15.2727 27.3043 15.1901C27.1748 13.3817 26.6151 11.6865 25.7279 10.2072C25.0999 13.9025 23.3668 17.709 20.2671 20.7562C17.5362 23.4871 14.1279 25.2088 10.7816 26.0654C12.3384 26.8739 14.1088 27.3319 15.9908 27.3334ZM15.9831 29.3334C15.7463 29.3331 15.5109 29.3266 15.2773 29.3142C15.2761 29.3154 15.275 29.3167 15.2739 29.3179C15.4919 29.3282 15.7117 29.3335 15.9332 29.3335C15.9499 29.3335 15.9665 29.3334 15.9831 29.3334ZM12.3171 28.8197C10.6961 28.3557 9.20393 27.5931 7.90206 26.5962C7.89022 26.5975 7.8784 26.5988 7.86658 26.6001C9.19631 27.617 10.6866 28.3815 12.3107 28.8397C12.3127 28.833 12.3149 28.8263 12.3171 28.8197ZM7.98475 24.0148C8.33313 23.8781 8.57689 23.5359 8.56967 23.1398C8.56038 22.6309 8.14031 22.2258 7.6314 22.2351C7.2454 22.2422 6.8682 22.2259 6.50183 22.1865C6.93227 22.8466 7.42972 23.4593 7.98475 24.0148ZM21.2266 5.9541C21.9793 6.34889 22.683 6.82587 23.3255 7.37286C23.3259 7.37879 23.3263 7.38473 23.3268 7.39067C23.3629 7.89837 22.9807 8.33929 22.473 8.37548C21.9653 8.41167 21.5244 8.02943 21.4882 7.52172C21.4497 6.98164 21.3635 6.46176 21.2302 5.96766C21.2289 5.96314 21.2278 5.95862 21.2266 5.9541ZM22.9917 11.1544C23.1102 10.6594 22.805 10.162 22.31 10.0435C21.815 9.92493 21.3177 10.2301 21.1991 10.7251C20.9553 11.7433 20.5695 12.7789 20.0449 13.7965C19.8117 14.2489 19.9894 14.8048 20.4418 15.038C20.8942 15.2712 21.45 15.0936 21.6833 14.6411C22.2721 13.499 22.7115 12.3244 22.9917 11.1544ZM19.649 17.7287C19.9715 17.3348 19.9136 16.7542 19.5197 16.4317C19.1259 16.1093 18.5452 16.1672 18.2228 16.561C17.8766 16.9839 17.5042 17.396 17.106 17.7942C16.7363 18.1638 16.3547 18.5116 15.9634 18.8371C15.5722 19.1626 15.5189 19.7437 15.8444 20.135C16.17 20.5262 16.7511 20.5795 17.1423 20.254C17.5766 19.8926 17.9999 19.507 18.4093 19.0975C18.8507 18.6561 19.2642 18.1987 19.649 17.7287ZM14.3073 22.1911C14.7534 21.946 14.9164 21.3856 14.6712 20.9395C14.4261 20.4934 13.8658 20.3305 13.4197 20.5756C12.4886 21.0872 11.5394 21.4829 10.6003 21.7595C10.1121 21.9033 9.83286 22.4157 9.97667 22.904C10.1205 23.3922 10.6329 23.6715 11.1211 23.5277C12.1934 23.2118 13.2652 22.7636 14.3073 22.1911ZM24.3667 22.6952C24.7342 22.2829 24.6978 21.6507 24.2855 21.2833C23.8732 20.9158 23.2411 20.9522 22.8736 21.3645C22.4886 21.7965 22.093 22.2173 21.689 22.6303C21.3794 22.9397 21.0636 23.2384 20.7423 23.5265C20.3311 23.8952 20.2966 24.5274 20.6653 24.9386C21.034 25.3498 21.6662 25.3843 22.0774 25.0156C22.4269 24.7023 22.7704 24.3773 23.107 24.0407L23.1108 24.0369L23.1146 24.033C23.5386 23.5998 23.9571 23.1548 24.3667 22.6952Z" fill="#FFA26E" fill-rule="evenodd"/>
<path clip-rule="evenodd" d="M16 27.3337C22.2287 27.3337 27.3333 22.2291 27.3333 16.0003C27.3333 9.77156 22.2287 4.66699 16 4.66699C9.7712 4.66699 4.66663 9.77156 4.66663 16.0003C4.66663 22.2356 9.71104 27.3337 16 27.3337ZM29.3333 16.0003C29.3333 23.3337 23.3333 29.3337 16 29.3337C8.59996 29.3337 2.66663 23.3337 2.66663 16.0003C2.66663 8.66699 8.66663 2.66699 16 2.66699C23.3333 2.66699 29.3333 8.66699 29.3333 16.0003Z" fill="#FFA26E" fill-rule="evenodd" opacity="0.3"/>
</svg>