<?xml version="1.0" encoding="utf-8"?>
<svg xmlns="http://www.w3.org/2000/svg" fill="none" height="86" viewBox="0 0 86 86" width="86">
<path d="M64.2182 83.8176C63.0047 83.8176 61.7913 83.5336 60.6811 82.9914L42.8666 74.1616L25.0522 82.9914C23.942 83.5336 22.7286 83.8176 21.5151 83.8176C19.1915 83.8176 16.997 82.8107 15.4737 81.0551C13.9504 79.2994 13.2792 76.9758 13.6148 74.7038L16.5064 55.0305L2.61632 40.8047C0.550872 38.6876 -0.172046 35.5895 0.731586 32.7753C1.66104 29.9611 4.0363 27.8699 6.97956 27.3793L26.5755 24.0488L35.7925 6.44089C37.1609 3.80745 39.8718 2.18091 42.8408 2.18091C45.8099 2.18091 48.5208 3.80745 49.8892 6.44089L59.1062 24.0488L78.7021 27.3793C81.6454 27.8699 84.0206 29.9353 84.9501 32.7753C85.8795 35.6153 85.1566 38.6876 83.0654 40.8047L69.1752 55.0305L72.0669 74.7038C72.4025 77.0016 71.7312 79.3252 70.208 81.0551C68.7363 82.8107 66.516 83.8176 64.2182 83.8176Z" fill="url(#paint0_linear_3172_12832)"/>
<path d="M41.24 9.3068C41.9113 8.0159 43.7702 8.0159 44.4673 9.3068L54.6912 28.7994C54.9494 29.29 55.44 29.6514 56.008 29.7547L77.7209 33.4467C79.1668 33.7049 79.7347 35.4605 78.7278 36.519L63.3403 52.268C62.953 52.6811 62.7464 53.2491 62.8497 53.7913L66.0512 75.5817C66.2577 77.0276 64.7603 78.1377 63.4436 77.4665L43.7186 67.7072C43.2022 67.4491 42.6084 67.4491 42.092 67.7072L22.367 77.4665C21.0503 78.1119 19.5529 77.0276 19.7594 75.5817L22.9608 53.7913C23.0383 53.2233 22.8576 52.6553 22.4703 52.268L7.08275 36.519C6.05003 35.4605 6.64383 33.7049 8.08964 33.4467L29.8026 29.7547C30.3706 29.6514 30.8353 29.3158 31.1193 28.7994L41.24 9.3068Z" fill="#C2E5FF"/>
<path d="M78.9344 34.2212C78.6762 33.834 78.2631 33.5241 77.721 33.4467L56.008 29.7547C55.44 29.6514 54.9752 29.3158 54.6912 28.7994L44.4673 9.3068C43.796 8.0159 41.9371 8.0159 41.24 9.3068L31.0161 28.7994C30.7579 29.29 30.2674 29.6514 29.6994 29.7547L7.9864 33.4467C7.44422 33.55 7.03113 33.834 6.77295 34.2212C6.82459 34.3245 6.90204 34.4019 6.97949 34.4794L22.3671 50.2284C22.7543 50.6415 23.2965 51.416 23.219 51.984L23.0641 52.9651C23.219 53.2749 22.9092 53.4299 22.8576 53.7655L19.8111 74.5748C20.2242 75.4527 21.3085 75.9432 22.2638 75.4527L41.9888 65.6934C42.5051 65.4352 43.0989 65.4352 43.6153 65.6934L63.3403 75.4527C64.3214 75.9432 65.4057 75.4527 65.793 74.5748L62.7465 53.7655C62.6949 53.404 62.385 53.404 62.5399 53.0942L62.385 52.1131C62.3076 51.5451 62.4883 50.9771 62.8756 50.5899L78.6246 34.4794C78.7795 34.4019 78.8569 34.3245 78.9344 34.2212Z" fill="#73AFF8"/>
<path d="M62.8498 54.0495L62.7982 53.6364L62.5142 52.1647C62.4367 51.5967 62.6175 51.0287 63.0047 50.6415L77.5661 35.6928L54.7429 31.8201C54.1749 31.7168 53.7102 31.3812 53.4262 30.8648L43.2281 11.3206C42.6859 10.2104 42.8408 10.262 42.1437 11.5529L32.1005 31.0197C31.8423 31.5103 31.3518 31.8717 30.7838 31.975L8.14136 35.667L22.3929 50.2542C22.7802 50.6673 23.2449 51.3386 23.1675 51.9066C23.1675 51.9066 22.9351 53.3266 22.9093 53.6364C22.9093 53.7655 22.6769 55.0564 22.6769 55.0564L19.8369 74.6264C20.3017 75.6075 21.4377 75.9432 22.3155 75.4784L42.0405 65.7192C42.5568 65.461 43.1506 65.461 43.667 65.7192L63.392 75.4784C64.1924 75.8915 65.38 75.685 65.8705 74.6264L63.1854 56.0374C63.1338 55.676 63.0047 55.0305 63.0047 55.0305L62.8498 54.0495Z" fill="#B7B7B7"/>
<path d="M42.6859 10.4685V45.8909L31.6616 31.6135L42.6859 10.4685Z" fill="#C2E5FF"/>
<path d="M42.6859 10.4944V45.9168L53.891 31.407L53.5553 31.0714L42.6859 10.4944Z" fill="#F0F2F5"/>
<path d="M8.1156 35.6411L42.686 45.8651L23.245 51.6483L8.1156 35.6411Z" fill="#F0F2F5"/>
<path d="M8.1156 35.6411L42.686 45.865L31.6358 31.5876L8.1156 35.6411Z" fill="#C2E5FF"/>
<path d="M77.5403 35.6411L42.6859 45.8909L62.4625 51.9323L77.5403 35.6411Z" fill="#F0F2F5"/>
<path d="M77.5661 35.6411L42.6859 45.9167L53.891 31.3811L54.2266 31.6135L77.5661 35.6411Z" fill="#8FC1FF"/>
<path d="M20.7405 75.5041L42.6859 45.865L23.1933 51.6224L19.8369 74.6005C19.8369 74.6005 19.9144 74.9103 20.1984 75.1427C20.4824 75.375 20.7405 75.5041 20.7405 75.5041Z" fill="#C2E5FF"/>
<path d="M20.7147 75.5299L42.6859 45.865V65.5125L21.8249 76.1238C21.8249 76.1238 21.5151 76.1237 21.2053 75.943C20.8955 75.7365 20.7147 75.5299 20.7147 75.5299Z" fill="#79B1F7"/>
<path d="M65.0959 75.4525L42.66 45.8909L62.4883 51.9323L63.0563 55.0821L65.8963 74.6005C65.8963 74.6005 65.793 74.8587 65.5865 75.0911C65.3283 75.3234 65.0959 75.4525 65.0959 75.4525Z" fill="#79B1F7"/>
<path d="M65.096 75.4267L42.6859 45.865V65.5383C42.6859 65.5383 42.7634 65.4093 43.3572 65.6674C43.9252 65.8998 63.3662 75.4783 63.3662 75.4783C63.3662 75.4783 63.7535 75.6848 64.2956 75.659C64.8378 75.659 65.096 75.4267 65.096 75.4267Z" fill="#8FC1FF"/>
<path d="M65.0959 21.6782L66.4338 30.0432L74.7988 31.3811L66.4338 32.719L65.0959 41.084L63.7581 32.719L55.3931 31.3811L63.7581 30.0432L65.0959 21.6782Z" fill="#F0F2F5"/>
<defs>
<linearGradient gradientUnits="userSpaceOnUse" id="paint0_linear_3172_12832" x1="67.662" x2="8.00815" y1="71.9637" y2="20.5341">
<stop stop-color="#79B1F7"/>
<stop offset="1" stop-color="#C4E9FF"/>
</linearGradient>
</defs>
</svg>