<?xml version="1.0" encoding="utf-8"?>
<svg xmlns="http://www.w3.org/2000/svg" fill="none" height="16" viewBox="0 0 16 16" width="16">
<path d="M8.00004 1.33333C4.32004 1.33333 1.33337 4.31999 1.33337 8C1.33337 11.68 4.32004 14.6667 8.00004 14.6667C11.68 14.6667 14.6667 11.68 14.6667 8C14.6667 4.31999 11.68 1.33333 8.00004 1.33333ZM8.58671 11.84V12.6667H7.42004V11.8067C6.92671 11.6867 5.82671 11.2933 5.40671 9.83333L6.50671 9.38666C6.54671 9.53333 6.89337 10.78 8.10671 10.78C8.72671 10.78 9.42671 10.46 9.42671 9.70666C9.42671 9.06666 8.96004 8.73333 7.90671 8.35333C7.17337 8.09333 5.67337 7.66666 5.67337 6.14666C5.67337 6.08 5.68004 4.54666 7.42004 4.17333V3.33333H8.58671V4.15999C9.81337 4.37333 10.26 5.35333 10.36 5.64666L9.30671 6.09333C9.23337 5.86 8.91337 5.2 8.04004 5.2C7.57337 5.2 6.83337 5.44666 6.83337 6.12666C6.83337 6.75999 7.40671 7 8.59337 7.39333C10.1934 7.94666 10.6 8.75999 10.6 9.69333C10.6 11.4467 8.93337 11.78 8.58671 11.84Z" fill="#3FC02F"/>
</svg>