<?xml version="1.0" encoding="utf-8"?>
<svg xmlns="http://www.w3.org/2000/svg" fill="none" height="32" viewBox="0 0 32 32" width="32">
<path clip-rule="evenodd" d="M4.94173 3.66699C4.27164 3.66699 3.72333 4.21529 3.72333 4.88545V27.1152C3.72333 27.7854 4.27164 28.3337 4.94173 28.3337H27.0584C27.7284 28.3337 28.2768 27.7854 28.2768 27.1152V4.88545C28.2768 4.21529 27.7284 3.66699 27.0584 3.66699H4.94173ZM1.72333 4.88545C1.72333 3.11079 3.167 1.66699 4.94173 1.66699H27.0584C28.8331 1.66699 30.2768 3.11079 30.2768 4.88545V27.1152C30.2768 28.8899 28.8331 30.3337 27.0584 30.3337H4.94173C3.167 30.3337 1.72333 28.8899 1.72333 27.1152V4.88545Z" fill="#FF715E" fill-opacity="0.3" fill-rule="evenodd"/>
<path clip-rule="evenodd" d="M18.1844 7.46557L24.1154 13.4192C24.4776 13.7814 25.0888 13.5323 25.0888 13.0117L25.1115 9.45766C25.1115 9.20865 25.021 8.95964 24.8399 8.77854L22.8251 6.76382C22.644 6.58273 22.395 6.49219 22.146 6.49219L18.6146 6.51482C18.0713 6.49218 17.8222 7.10338 18.1844 7.46557ZM7.68078 18.5354L13.1817 23.9231C13.5892 24.3305 13.3175 25.0323 12.7289 25.0323H9.92184C9.51437 25.0323 9.12961 24.8738 8.85796 24.5796L7.04698 22.7459C6.77534 22.4743 6.6169 22.1121 6.6169 21.7046L6.57158 18.9881C6.54894 18.4222 7.25067 18.1279 7.68078 18.5354ZM7.90716 7.23945L7.34123 7.80538C6.97903 8.14494 6.95646 8.73353 7.29602 9.18627L16.2377 19.7352C16.3509 19.8937 16.5094 19.9842 16.6905 20.0521L17.8675 20.4596C18.0713 20.5275 18.2298 20.7086 18.2751 20.9123L18.5693 22.2706C18.6146 22.4517 18.7052 22.6328 18.841 22.7912L20.4482 24.5569C20.7651 24.8965 21.2178 25.1002 21.6932 25.0776L23.3005 25.0097C23.7985 24.987 24.2286 24.6022 24.2965 24.1042L24.8399 20.2332C24.9531 19.5088 24.6587 18.7845 24.0701 18.3544L9.17486 7.14892C8.79003 6.85464 8.24671 6.89989 7.90716 7.23945Z" fill="#FF715E" fill-rule="evenodd"/>
</svg>