<?xml version="1.0" encoding="utf-8"?>
<svg xmlns="http://www.w3.org/2000/svg" fill="none" height="32" viewBox="0 0 32 32" width="32">
<path d="M10.8462 23.6168C10.8462 24.0463 10.4948 24.3977 10.0654 24.3977H6.39531C5.96583 24.3977 5.61444 24.0463 5.61444 23.6168C5.61444 23.1873 5.96583 22.8359 6.39531 22.8359H10.0654C10.5144 22.8359 10.8462 23.1873 10.8462 23.6168Z" fill="#FF8FD7"/>
<path d="M8.24986 21C8.67934 21 9.03073 21.3514 9.03073 21.7809V25.451C9.03073 25.8805 8.67934 26.2319 8.24986 26.2319C7.82038 26.2319 7.46899 25.8805 7.46899 25.451V21.7809C7.46899 21.3514 7.82038 21 8.24986 21Z" fill="#FF8FD7"/>
<path d="M22.9497 26.4275C23.6397 26.4275 24.1991 25.8681 24.1991 25.1781C24.1991 24.4881 23.6397 23.9287 22.9497 23.9287C22.2597 23.9287 21.7003 24.4881 21.7003 25.1781C21.7003 25.8681 22.2597 26.4275 22.9497 26.4275Z" fill="#FF8FD7"/>
<path d="M25.3118 23.8113C26.0018 23.8113 26.5612 23.2519 26.5612 22.5619C26.5612 21.8719 26.0018 21.3125 25.3118 21.3125C24.6218 21.3125 24.0624 21.8719 24.0624 22.5619C24.0624 23.2519 24.6218 23.8113 25.3118 23.8113Z" fill="#FF8FD7"/>
<path clip-rule="evenodd" d="M17.6905 3.94437C17.1435 3.83545 16.5779 3.77832 15.999 3.77832C15.431 3.77832 14.8758 3.83331 14.3385 3.93824L15.5194 4.61303C15.8322 4.80072 16.2075 4.80072 16.5203 4.61303L17.6905 3.94437ZM7.78046 9.80777C8.17047 8.5657 8.83427 7.44487 9.70114 6.51599V8.13691C9.70114 8.49143 9.51348 8.80426 9.20067 8.99195L7.78046 9.80777ZM9.6116 18.1687C8.81945 17.2935 8.20468 16.2547 7.82398 15.109L9.09644 15.832C9.40925 15.9988 9.59691 16.3325 9.59691 16.687L9.6116 18.1687ZM17.9514 20.7816C17.3241 20.927 16.6705 21.0038 15.999 21.0038C15.3275 21.0038 14.6739 20.927 14.0466 20.7816L15.4985 19.941C15.8113 19.7533 16.1867 19.7533 16.4995 19.941L17.9514 20.7816ZM24.1991 15.0325C23.8393 16.1501 23.2575 17.1681 22.5055 18.0344V16.5835C22.5055 16.229 22.6931 15.9162 23.0059 15.7285L24.1991 15.0325ZM22.3448 6.56786C23.171 7.46771 23.8083 8.54378 24.1938 9.73322L22.8601 8.97108C22.5473 8.80424 22.3595 8.47058 22.3595 8.11606L22.3448 6.56786Z" fill="#FF8FD7" fill-rule="evenodd"/>
<path d="M13.0884 11.1349V13.647C13.0884 13.9135 13.2216 14.1609 13.45 14.2941L15.6386 15.5502C15.867 15.6834 16.1524 15.6834 16.3808 15.5502L18.5694 14.2941C18.7978 14.1609 18.9311 13.9135 18.9311 13.647V11.1349C18.9311 10.8685 18.7978 10.621 18.5694 10.4878L16.3808 9.23175C16.1524 9.09853 15.867 9.09853 15.6386 9.23175L13.45 10.4878C13.2216 10.621 13.0884 10.8685 13.0884 11.1349Z" fill="#FF8FD7" stroke="#FF8FD7" stroke-miterlimit="10" stroke-width="2.00001"/>
<path clip-rule="evenodd" d="M7.46745 12.391C7.46745 7.67853 11.2875 3.8584 15.9999 3.8584C20.7122 3.8584 24.5324 7.67855 24.5324 12.391C24.5324 13.9459 24.1164 15.4038 23.3897 16.6593L23.3231 16.7704C21.831 19.2599 19.1091 20.9225 16 20.9225C12.8909 20.9225 10.1691 19.2599 8.67698 16.7704L8.60334 16.6476C7.88082 15.3947 7.46745 13.9411 7.46745 12.391ZM6.31404 16.5351C5.76914 15.2632 5.46745 13.8623 5.46745 12.391C5.46745 6.57399 10.1829 1.8584 15.9999 1.8584C21.8168 1.8584 26.5324 6.57398 26.5324 12.391C26.5324 13.8621 26.2308 15.2627 25.6861 16.5345C28.7585 17.39 31 20.2103 31 23.538C31 27.5663 27.7316 30.8075 23.7306 30.8075C21.12 30.8075 18.8552 29.4386 17.573 27.3912H14.427C13.1448 29.4386 10.88 30.8075 8.26944 30.8075C4.24115 30.8075 1 27.5391 1 23.538C1 20.191 3.25592 17.388 6.31404 16.5351ZM7.31711 18.3545C4.86763 18.8019 3 20.9461 3 23.538C3 26.4392 5.35041 28.8075 8.26944 28.8075C10.3196 28.8075 12.0789 27.6443 12.9565 25.9345L13.2354 25.3912H18.7646L19.0435 25.9345C19.9211 27.6443 21.6804 28.8075 23.7306 28.8075C26.6317 28.8075 29 26.4571 29 23.538C29 20.9603 27.1438 18.8026 24.6829 18.3542C22.7839 21.114 19.6032 22.9235 15.9999 22.9235C12.3967 22.9235 9.2161 21.1142 7.31711 18.3545Z" fill="#FF8FD7" fill-rule="evenodd" opacity="0.3"/>
</svg>