<?xml version="1.0" encoding="utf-8"?>
<svg xmlns="http://www.w3.org/2000/svg" fill="none" viewBox="0 0 24 24">
<g clip-path="url(#clip0_712_21601)">
<path d="M7.62821 23.9083L3.75434 23.7342C3.83455 23.7203 3.93873 23.7057 4.05314 23.645L7.91493 23.8405C7.81972 23.8898 7.73217 23.9149 7.62821 23.9083Z" fill="#E2721D"/>
<path d="M16.1186 0.110422L19.9977 0.298872C20.1017 0.305459 20.198 0.33612 20.303 0.422592L16.4392 0.230614C16.3342 0.144141 16.2226 0.117009 16.1186 0.110422Z" fill="#FDD891"/>
<path d="M16.6379 1.77438L20.4997 1.96995L16.1566 11.1131L12.2949 10.9176L16.6379 1.77438Z" fill="#E2721D"/>
<path d="M15.9697 16.089L19.8379 16.2889L7.91487 23.8405L4.05308 23.6449L15.9697 16.089Z" fill="#E2721D"/>
<path d="M12.2948 10.9176L16.1566 11.1132L19.9471 14.3706L16.1126 14.2147L12.2948 10.9176Z" fill="#E2721D"/>
<path d="M16.4412 0.227006L20.303 0.422584C20.6345 0.713739 20.7875 1.39881 20.4996 1.96998L16.6378 1.77441C16.9017 1.19557 16.7486 0.510496 16.4412 0.227006Z" fill="#FDD891"/>
<path d="M16.0776 14.1679L19.9394 14.3635C20.4405 14.7882 20.3681 15.9317 19.8296 16.2906L15.9678 16.095C16.5063 15.7362 16.5788 14.5926 16.0776 14.1679Z" fill="#FDD891"/>
<path d="M16.4412 0.227003C16.7727 0.518158 16.9258 1.20323 16.6379 1.7744L12.2948 10.9176L16.086 14.1663C16.5871 14.591 16.5146 15.7345 15.9762 16.0934L4.05316 23.645C3.82333 23.7839 3.62308 23.7466 3.45348 23.6131C3.12197 23.3219 2.9689 22.6369 3.25682 22.0657L7.59983 12.9225L3.8087 9.67381C3.30759 9.24912 3.38005 8.10558 3.91853 7.74675L15.8339 0.219219C16.0714 0.0562147 16.2716 0.093462 16.4412 0.227003Z" fill="#F6BA4A"/>
<path d="M8.93827 12.6328L4.56506 8.88059C4.53991 8.79304 4.55416 8.665 4.57716 8.59278L15.4943 1.70194L10.9729 11.239L15.3461 14.9912C15.3712 15.0788 15.357 15.2068 15.334 15.279L4.4168 22.1699L8.93827 12.6328Z" fill="#FBEC33"/>
<path d="M8.93814 12.6328L4.56494 8.88055C4.53979 8.793 4.55404 8.66497 4.57704 8.59275L15.4942 1.70191L10.9728 11.239L15.346 14.9912C15.3711 15.0788 15.3569 15.2068 15.3339 15.279L4.41668 22.1699L8.93814 12.6328Z" fill="#F9EA4A"/>
<path clip-rule="evenodd" d="M8.92302 12.6198L8.93814 12.6328L4.41668 22.1699L5.06866 21.7583L8.93815 13.5964L8.93814 12.6328L8.93815 12.6294L8.92302 12.6198ZM5.02393 9.27437L4.56494 8.88055C4.53979 8.793 4.55404 8.66497 4.57704 8.59275L15.4942 1.70191L14.8422 3.07711L5.02393 9.27437ZM10.9728 11.2391L10.9728 11.2392L11.361 12.4701L14.892 15.5579L15.3339 15.279C15.3569 15.2068 15.3711 15.0788 15.346 14.9912L10.9728 11.2391Z" fill="#EB983F" fill-rule="evenodd"/>
</g>
<defs>
<clipPath id="clip0_712_21601">
<rect fill="white" height="24" width="24"/>
</clipPath>
</defs>
</svg>