<?xml version="1.0" encoding="utf-8"?>
<svg xmlns="http://www.w3.org/2000/svg" fill="none" height="33" viewBox="0 0 30 33" width="30">
<g clip-path="url(#clip0_1527_20760)">
<path clip-rule="evenodd" d="M13.8902 22.2488V19.7103C14.3994 19.795 14.8236 19.795 15.3328 19.795C18.2179 19.795 20.7636 19.0334 22.6305 17.7642L18.9816 17.9335C18.5574 18.0181 18.3028 17.8488 18.0482 17.595C17.7936 17.3412 17.6239 17.0873 17.7088 16.6642C17.7088 15.9873 18.2179 15.5643 18.8968 15.5643H27.637C28.0613 15.5643 28.4007 15.7335 28.7402 16.1566C28.9947 16.495 29.0796 16.9181 28.9099 17.3412L27.5522 22.418C27.2976 23.1795 26.5339 23.6872 25.6853 23.518L25.261 23.4334C24.8368 23.3487 24.4973 23.0949 24.2428 22.6718C23.9882 22.3334 23.9033 21.8257 24.073 21.4026L24.667 19.8796C22.291 21.318 18.9816 22.2488 15.4176 22.2488H13.8902ZM13.8902 6.59519V4.8183H15.4176C18.5574 4.8183 21.5273 5.49521 23.8185 6.76442C24.1579 6.93365 24.3276 7.18749 24.3276 7.52595C24.4125 7.8644 24.3276 8.11824 24.073 8.37209L23.9033 8.4567C23.5639 8.79515 23.0548 8.87977 22.6305 8.62593C20.7636 7.35672 18.2179 6.51058 15.3328 6.51058C14.8236 6.51058 14.3994 6.59519 13.8902 6.59519ZM2.51941 0.756836H13.8902V25.9718H2.51941C1.41627 25.9718 0.482849 25.1256 0.482849 24.0257V2.78757C0.482849 1.68759 1.41627 0.756836 2.51941 0.756836ZM13.8902 4.8183V6.59519C8.96853 7.01826 5.14997 9.81052 5.14997 13.1951C5.14997 16.495 8.96853 19.2873 13.8902 19.7103V22.2488C7.18654 21.7411 2.01027 18.0181 2.01027 13.5335C2.01027 9.049 7.18654 5.32599 13.8902 4.8183ZM5.14997 30.3717H2.43456V31.0486H4.38626C4.30141 31.3024 4.04683 31.6409 3.79226 31.8101C3.53769 31.9794 3.19827 32.1486 2.77398 32.064C1.1617 31.8947 0.822276 29.6948 2.17999 28.9333C2.60427 28.6794 3.28312 28.6794 3.79226 29.0179C4.38626 29.3563 3.62255 29.3563 4.8954 29.3563C4.81055 28.9333 4.30141 28.4256 3.87712 28.2563C3.28312 28.0871 2.60427 28.0871 2.01027 28.2563C1.1617 28.6794 0.397992 29.6948 0.73742 31.0486C0.99199 32.064 2.01027 32.9101 3.28312 32.7409C4.13169 32.5717 4.72569 31.9794 4.98026 31.3024C5.06512 31.1332 5.23483 30.6255 5.14997 30.3717ZM24.3276 30.2871V29.1871C24.8368 29.1871 25.3459 29.1871 25.3459 29.6948C25.3459 30.2871 24.8368 30.2871 24.3276 30.2871ZM23.2245 32.6563H24.3276V31.2178C24.4125 31.3024 25.0913 32.487 25.1762 32.6563H26.5339C26.449 32.5717 25.6005 31.3871 25.4307 31.1332C25.6005 31.0486 25.7702 31.0486 26.0247 30.7948C26.1096 30.7101 26.2793 30.5409 26.3642 30.2871C26.6187 29.4409 26.2793 28.2563 25.0065 28.2563C24.4973 28.1717 23.8185 28.1717 23.2245 28.1717V32.6563ZM18.9816 30.964C17.4542 30.964 17.9634 30.8794 17.6239 31.3024C17.2845 31.5563 16.9451 31.7255 16.4359 31.5563C15.3328 31.2178 15.3328 29.5256 16.5208 29.2717C16.9451 29.1871 17.2845 29.2717 17.6239 29.6102C17.9634 29.9486 17.4542 29.864 18.9816 29.864C18.9816 29.6102 18.8119 29.2717 18.6422 29.1025C18.2179 28.4256 17.4542 28.0871 16.5208 28.1717C15.4176 28.2563 14.4842 29.1871 14.4842 30.3717C14.4842 31.6409 15.3328 32.5717 16.4359 32.7409C17.3694 32.8255 18.1331 32.487 18.6422 31.7255C18.7271 31.5563 18.9816 31.2178 18.9816 30.964ZM9.47767 32.6563H10.0717V28.8486C10.1565 28.9333 11.0051 31.3024 11.09 31.7255C11.1748 31.8947 11.4294 32.5717 11.5142 32.6563H11.9385C12.1082 32.2332 12.4477 31.2178 12.6174 30.7101C12.7871 30.4563 12.8719 30.1179 13.0417 29.7794L13.3811 28.8486L13.2962 32.6563H13.9751V28.1717H12.9568C12.8719 28.5948 12.1931 30.2871 12.0234 30.7948C12.0234 30.8794 11.7688 31.5563 11.6839 31.6409L10.4111 28.2563L9.47767 28.1717V32.6563ZM20.9333 29.6948C20.9333 29.7794 21.3576 31.0486 21.3576 31.0486H20.5091L20.9333 29.6948ZM18.8119 32.6563H19.9151L20.1696 31.9794H21.6122L21.8668 32.6563H23.0548C23.0548 32.5717 22.291 30.6255 22.2062 30.4563C22.0365 30.0332 21.9516 29.6948 21.7819 29.3563C21.6971 29.1025 21.4425 28.341 21.3576 28.1717H20.5091L19.6605 30.4563C19.4908 30.7101 18.8119 32.487 18.8119 32.6563ZM29.3342 29.864L28.0613 29.9486V29.1871H29.3342V28.2563H26.9582V32.6563H29.3342V31.6409H28.0613V30.8794H29.3342V29.864ZM7.10168 29.1025C7.10168 29.1871 7.69568 30.6255 7.69568 30.7101H6.42283C6.42283 30.6255 7.01682 29.1871 7.10168 29.1025ZM4.98026 32.6563H5.65911L6.16826 31.3871H7.95025C8.03511 31.5563 8.11996 31.8101 8.20482 31.9794C8.20482 32.1486 8.37453 32.5717 8.45939 32.6563H9.13824C9.13824 32.487 8.37453 30.7101 8.28968 30.4563C8.11996 30.2025 7.44111 28.341 7.35625 28.1717H6.76225L4.98026 32.6563ZM29.3342 29.864V30.8794H28.0613V31.6409H29.3342V32.6563H26.9582V28.2563H29.3342V29.1871C29.419 29.1871 29.419 29.1871 29.419 28.9333C29.419 28.764 29.419 28.341 29.3342 28.1717H26.9582C26.9582 28.2563 26.8733 32.487 26.9582 32.6563H29.3342L29.419 31.6409H28.0613V30.8794H29.3342C29.419 30.7948 29.419 30.5409 29.419 30.3717C29.419 30.2871 29.419 29.9486 29.3342 29.864Z" fill="#0B2233" fill-rule="evenodd"/>
<path clip-rule="evenodd" d="M13.8902 22.2488V19.7103C14.3994 19.795 14.8236 19.795 15.3328 19.795C18.2179 19.795 20.7636 19.0334 22.6305 17.7642L18.9816 17.9335C18.5574 18.0181 18.3028 17.8488 18.0482 17.595C17.7936 17.3412 17.6239 17.0873 17.7088 16.6642C17.7088 15.9873 18.2179 15.5643 18.8968 15.5643H27.637C28.0613 15.5643 28.4007 15.7335 28.7402 16.1566C28.9947 16.495 29.0796 16.9181 28.9099 17.3412L27.5522 22.418C27.2976 23.1795 26.5339 23.6872 25.6853 23.518L25.261 23.4334C24.8368 23.3487 24.4973 23.0949 24.2428 22.6718C23.9882 22.3334 23.9033 21.8257 24.073 21.4026L24.667 19.8796C22.291 21.318 18.9816 22.2488 15.4176 22.2488H13.8902ZM13.8902 6.59519V4.8183H15.4176C18.5574 4.8183 21.5273 5.49521 23.8185 6.76442C24.1579 6.93365 24.3276 7.18749 24.3276 7.52595C24.4125 7.8644 24.3276 8.11824 24.073 8.37209L23.9033 8.4567C23.5639 8.79515 23.0548 8.87977 22.6305 8.62593C20.7636 7.35672 18.2179 6.51058 15.3328 6.51058C14.8236 6.51058 14.3994 6.59519 13.8902 6.59519ZM2.51941 0.756836H13.8902V25.9718H2.51941C1.41627 25.9718 0.482849 25.1256 0.482849 24.0257V2.78757C0.482849 1.68759 1.41627 0.756836 2.51941 0.756836ZM13.8902 4.8183V6.59519C8.96853 7.01826 5.14997 9.81052 5.14997 13.1951C5.14997 16.495 8.96853 19.2873 13.8902 19.7103V22.2488C7.18654 21.7411 2.01027 18.0181 2.01027 13.5335C2.01027 9.049 7.18654 5.32599 13.8902 4.8183ZM5.14997 30.3717H2.43456V31.0486H4.38626C4.30141 31.3024 4.04683 31.6409 3.79226 31.8101C3.53769 31.9794 3.19827 32.1486 2.77398 32.064C1.1617 31.8947 0.822276 29.6948 2.17999 28.9333C2.60427 28.6794 3.28312 28.6794 3.79226 29.0179C4.38626 29.3563 3.62255 29.3563 4.8954 29.3563C4.81055 28.9333 4.30141 28.4256 3.87712 28.2563C3.28312 28.0871 2.60427 28.0871 2.01027 28.2563C1.1617 28.6794 0.397992 29.6948 0.73742 31.0486C0.99199 32.064 2.01027 32.9101 3.28312 32.7409C4.13169 32.5717 4.72569 31.9794 4.98026 31.3024C5.06512 31.1332 5.23483 30.6255 5.14997 30.3717ZM24.3276 30.2871V29.1871C24.8368 29.1871 25.3459 29.1871 25.3459 29.6948C25.3459 30.2871 24.8368 30.2871 24.3276 30.2871ZM23.2245 32.6563H24.3276V31.2178C24.4125 31.3024 25.0913 32.487 25.1762 32.6563H26.5339C26.449 32.5717 25.6005 31.3871 25.4307 31.1332C25.6005 31.0486 25.7702 31.0486 26.0247 30.7948C26.1096 30.7101 26.2793 30.5409 26.3642 30.2871C26.6187 29.4409 26.2793 28.2563 25.0065 28.2563C24.4973 28.1717 23.8185 28.1717 23.2245 28.1717V32.6563ZM18.9816 30.964C17.4542 30.964 17.9634 30.8794 17.6239 31.3024C17.2845 31.5563 16.9451 31.7255 16.4359 31.5563C15.3328 31.2178 15.3328 29.5256 16.5208 29.2717C16.9451 29.1871 17.2845 29.2717 17.6239 29.6102C17.9634 29.9486 17.4542 29.864 18.9816 29.864C18.9816 29.6102 18.8119 29.2717 18.6422 29.1025C18.2179 28.4256 17.4542 28.0871 16.5208 28.1717C15.4176 28.2563 14.4842 29.1871 14.4842 30.3717C14.4842 31.6409 15.3328 32.5717 16.4359 32.7409C17.3694 32.8255 18.1331 32.487 18.6422 31.7255C18.7271 31.5563 18.9816 31.2178 18.9816 30.964ZM9.47767 32.6563H10.0717V28.8486C10.1565 28.9333 11.0051 31.3024 11.09 31.7255C11.1748 31.8947 11.4294 32.5717 11.5142 32.6563H11.9385C12.1082 32.2332 12.4477 31.2178 12.6174 30.7101C12.7871 30.4563 12.8719 30.1179 13.0417 29.7794L13.3811 28.8486L13.2962 32.6563H13.9751V28.1717H12.9568C12.8719 28.5948 12.1931 30.2871 12.0234 30.7948C12.0234 30.8794 11.7688 31.5563 11.6839 31.6409L10.4111 28.2563L9.47767 28.1717V32.6563ZM20.9333 29.6948C20.9333 29.7794 21.3576 31.0486 21.3576 31.0486H20.5091L20.9333 29.6948ZM18.8119 32.6563H19.9151L20.1696 31.9794H21.6122L21.8668 32.6563H23.0548C23.0548 32.5717 22.291 30.6255 22.2062 30.4563C22.0365 30.0332 21.9516 29.6948 21.7819 29.3563C21.6971 29.1025 21.4425 28.341 21.3576 28.1717H20.5091L19.6605 30.4563C19.4908 30.7101 18.8119 32.487 18.8119 32.6563ZM29.3342 29.864L28.0613 29.9486V29.1871H29.3342V28.2563H26.9582V32.6563H29.3342V31.6409H28.0613V30.8794H29.3342V29.864ZM7.10168 29.1025C7.10168 29.1871 7.69568 30.6255 7.69568 30.7101H6.42283C6.42283 30.6255 7.01682 29.1871 7.10168 29.1025ZM4.98026 32.6563H5.65911L6.16826 31.3871H7.95025C8.03511 31.5563 8.11996 31.8101 8.20482 31.9794C8.20482 32.1486 8.37453 32.5717 8.45939 32.6563H9.13824C9.13824 32.487 8.37453 30.7101 8.28968 30.4563C8.11996 30.2025 7.44111 28.341 7.35625 28.1717H6.76225L4.98026 32.6563ZM29.3342 29.864V30.8794H28.0613V31.6409H29.3342V32.6563H26.9582V28.2563H29.3342V29.1871C29.419 29.1871 29.419 29.1871 29.419 28.9333C29.419 28.764 29.419 28.341 29.3342 28.1717H26.9582C26.9582 28.2563 26.8733 32.487 26.9582 32.6563H29.3342L29.419 31.6409H28.0613V30.8794H29.3342C29.419 30.7948 29.419 30.5409 29.419 30.3717C29.419 30.2871 29.419 29.9486 29.3342 29.864Z" fill="white" fill-opacity="0.12" fill-rule="evenodd"/>
</g>
<defs>
<clipPath id="clip0_1527_20760">
<rect fill="white" height="32" transform="translate(0.482849 0.749023)" width="28.9362"/>
</clipPath>
</defs>
</svg>