<?xml version="1.0" encoding="utf-8"?>
<svg xmlns="http://www.w3.org/2000/svg" fill="none" height="33" viewBox="0 0 117 33" width="117">
<path clip-rule="evenodd" d="M34.4627 25.0887H36.7382V16.1457H28.751V18.3303H34.4627V18.6716C34.1593 19.9763 33.5373 21.0458 32.5967 21.8802C31.6713 22.6994 30.4956 23.109 29.0696 23.109C27.8104 23.109 26.7713 22.8132 25.9521 22.2215C25.1328 21.6299 24.5336 20.8562 24.1544 19.9004C23.7751 18.9447 23.5855 17.8979 23.5855 16.7601C23.5855 15.6224 23.7751 14.5756 24.1544 13.6199C24.5336 12.649 25.1328 11.8677 25.9521 11.276C26.7713 10.6844 27.8104 10.3886 29.0696 10.3886C31.1783 10.3886 32.7105 11.2988 33.6662 13.1192L36.3742 12.3455C35.7218 11.0257 34.7737 9.99412 33.5297 9.25077C32.2857 8.50742 30.799 8.13574 29.0696 8.13574C27.3402 8.13574 25.8534 8.50742 24.6095 9.25077C23.6119 9.84687 22.8046 10.6234 22.1875 11.5805V8.40899H16.2028H13.6996C12.1522 8.40899 10.8855 8.80342 9.89943 9.59229C8.91335 10.366 8.42031 11.5872 8.42031 13.256C8.42031 14.6971 8.79957 15.8046 9.55809 16.5783C10.3166 17.3368 11.3255 17.8147 12.5846 18.0119L7.80591 25.0889H10.7641L15.338 18.1257H16.2028H19.7071V25.0889H22.1875V21.9317C22.8046 22.879 23.6119 23.6507 24.6095 24.2468C25.8534 24.9901 27.3402 25.3618 29.0696 25.3618C31.421 25.3618 33.2187 24.5578 34.4627 22.9497V25.0887ZM19.7071 15.9184V10.5935H15.1105C14.2609 10.5935 13.5555 10.639 12.9942 10.7301C12.4177 10.8211 11.9323 11.0638 11.5378 11.4583C11.1282 11.8527 10.9234 12.4519 10.9234 13.256C10.9234 14.06 11.1282 14.6592 11.5378 15.0537C11.9323 15.4481 12.4177 15.6908 12.9942 15.7818C13.5555 15.8729 14.2609 15.9184 15.1105 15.9184H19.7071Z" fill="#0B2233" fill-rule="evenodd"/>
<path clip-rule="evenodd" d="M34.4627 25.0887H36.7382V16.1457H28.751V18.3303H34.4627V18.6716C34.1593 19.9763 33.5373 21.0458 32.5967 21.8802C31.6713 22.6994 30.4956 23.109 29.0696 23.109C27.8104 23.109 26.7713 22.8132 25.9521 22.2215C25.1328 21.6299 24.5336 20.8562 24.1544 19.9004C23.7751 18.9447 23.5855 17.8979 23.5855 16.7601C23.5855 15.6224 23.7751 14.5756 24.1544 13.6199C24.5336 12.649 25.1328 11.8677 25.9521 11.276C26.7713 10.6844 27.8104 10.3886 29.0696 10.3886C31.1783 10.3886 32.7105 11.2988 33.6662 13.1192L36.3742 12.3455C35.7218 11.0257 34.7737 9.99412 33.5297 9.25077C32.2857 8.50742 30.799 8.13574 29.0696 8.13574C27.3402 8.13574 25.8534 8.50742 24.6095 9.25077C23.6119 9.84687 22.8046 10.6234 22.1875 11.5805V8.40899H16.2028H13.6996C12.1522 8.40899 10.8855 8.80342 9.89943 9.59229C8.91335 10.366 8.42031 11.5872 8.42031 13.256C8.42031 14.6971 8.79957 15.8046 9.55809 16.5783C10.3166 17.3368 11.3255 17.8147 12.5846 18.0119L7.80591 25.0889H10.7641L15.338 18.1257H16.2028H19.7071V25.0889H22.1875V21.9317C22.8046 22.879 23.6119 23.6507 24.6095 24.2468C25.8534 24.9901 27.3402 25.3618 29.0696 25.3618C31.421 25.3618 33.2187 24.5578 34.4627 22.9497V25.0887ZM19.7071 15.9184V10.5935H15.1105C14.2609 10.5935 13.5555 10.639 12.9942 10.7301C12.4177 10.8211 11.9323 11.0638 11.5378 11.4583C11.1282 11.8527 10.9234 12.4519 10.9234 13.256C10.9234 14.06 11.1282 14.6592 11.5378 15.0537C11.9323 15.4481 12.4177 15.6908 12.9942 15.7818C13.5555 15.8729 14.2609 15.9184 15.1105 15.9184H19.7071Z" fill="white" fill-opacity="0.2" fill-rule="evenodd"/>
<path d="M47.2207 14.6871H46.0775L44.31 12.1988H43.9758H42.6216V14.6871H41.6631V8.72649H43.9758H44.9431C45.5411 8.72649 46.0306 8.86744 46.4117 9.14934C46.7927 9.42583 46.9832 9.86224 46.9832 10.4586C46.9832 10.9736 46.8367 11.3693 46.5436 11.6458C46.2504 11.9169 45.8606 12.0877 45.374 12.1581L47.2207 14.6871ZM42.6216 9.50715V11.41H44.3979C44.7262 11.41 44.9988 11.3937 45.2157 11.3612C45.4385 11.3287 45.6261 11.2419 45.7785 11.101C45.9368 10.96 46.0159 10.7459 46.0159 10.4586C46.0159 10.1712 45.9368 9.95711 45.7785 9.81616C45.6261 9.6752 45.4385 9.58846 45.2157 9.55594C44.9988 9.52341 44.7262 9.50715 44.3979 9.50715H42.6216Z" fill="#0B2233"/>
<path d="M47.2207 14.6871H46.0775L44.31 12.1988H43.9758H42.6216V14.6871H41.6631V8.72649H43.9758H44.9431C45.5411 8.72649 46.0306 8.86744 46.4117 9.14934C46.7927 9.42583 46.9832 9.86224 46.9832 10.4586C46.9832 10.9736 46.8367 11.3693 46.5436 11.6458C46.2504 11.9169 45.8606 12.0877 45.374 12.1581L47.2207 14.6871ZM42.6216 9.50715V11.41H44.3979C44.7262 11.41 44.9988 11.3937 45.2157 11.3612C45.4385 11.3287 45.6261 11.2419 45.7785 11.101C45.9368 10.96 46.0159 10.7459 46.0159 10.4586C46.0159 10.1712 45.9368 9.95711 45.7785 9.81616C45.6261 9.6752 45.4385 9.58846 45.2157 9.55594C44.9988 9.52341 44.7262 9.50715 44.3979 9.50715H42.6216Z" fill="white" fill-opacity="0.2"/>
<path d="M53.2542 8.72649V9.50715H49.1739V11.2067H51.7416V11.9874H49.1739V13.9065H53.2542V14.6871H48.2154V8.72649H53.2542Z" fill="#0B2233"/>
<path d="M53.2542 8.72649V9.50715H49.1739V11.2067H51.7416V11.9874H49.1739V13.9065H53.2542V14.6871H48.2154V8.72649H53.2542Z" fill="white" fill-opacity="0.2"/>
<path d="M56.9635 14.7847C56.1779 14.7847 55.5565 14.66 55.0992 14.4107C54.6478 14.1559 54.3225 13.8496 54.1231 13.4918L54.9234 12.9307C55.2927 13.6246 55.9845 13.9715 56.9987 13.9715C57.4032 13.9715 57.7461 13.9038 58.0275 13.7682C58.3148 13.6327 58.4584 13.4159 58.4584 13.1177C58.4584 12.8954 58.3764 12.7219 58.2122 12.5972C58.0539 12.4726 57.8077 12.3614 57.4735 12.2638C57.1687 12.1771 56.9782 12.1256 56.9019 12.1093C56.3978 11.9738 56.0343 11.8681 55.8115 11.7922C55.2487 11.597 54.8765 11.3721 54.6947 11.1173C54.513 10.8625 54.4221 10.5968 54.4221 10.3203C54.4221 10.0926 54.4983 9.84868 54.6508 9.58846C54.8091 9.32282 55.0553 9.09784 55.3894 8.91352C55.7295 8.72378 56.1545 8.62891 56.6645 8.62891C57.2332 8.62891 57.708 8.69938 58.0891 8.84033C58.4701 8.98129 58.8395 9.21982 59.1971 9.55594L58.3089 10.1008C57.9513 9.67249 57.4296 9.45836 56.7437 9.45836C56.3919 9.45836 56.1193 9.50715 55.9258 9.60473C55.7383 9.70231 55.6122 9.81073 55.5477 9.93C55.4891 10.0493 55.4598 10.155 55.4598 10.2471C55.4598 10.4423 55.5419 10.5995 55.706 10.7188C55.8702 10.8381 56.1134 10.9465 56.4359 11.0441C56.4652 11.0549 56.6909 11.1173 57.113 11.2311C57.3768 11.2962 57.6494 11.3693 57.9308 11.4507C58.5464 11.6404 58.9567 11.8816 59.1619 12.1744C59.373 12.4671 59.4785 12.749 59.4785 13.0201C59.4785 13.3129 59.4023 13.592 59.2499 13.8577C59.1033 14.1233 58.8424 14.3456 58.4672 14.5245C58.0979 14.698 57.5966 14.7847 56.9635 14.7847Z" fill="#0B2233"/>
<path d="M56.9635 14.7847C56.1779 14.7847 55.5565 14.66 55.0992 14.4107C54.6478 14.1559 54.3225 13.8496 54.1231 13.4918L54.9234 12.9307C55.2927 13.6246 55.9845 13.9715 56.9987 13.9715C57.4032 13.9715 57.7461 13.9038 58.0275 13.7682C58.3148 13.6327 58.4584 13.4159 58.4584 13.1177C58.4584 12.8954 58.3764 12.7219 58.2122 12.5972C58.0539 12.4726 57.8077 12.3614 57.4735 12.2638C57.1687 12.1771 56.9782 12.1256 56.9019 12.1093C56.3978 11.9738 56.0343 11.8681 55.8115 11.7922C55.2487 11.597 54.8765 11.3721 54.6947 11.1173C54.513 10.8625 54.4221 10.5968 54.4221 10.3203C54.4221 10.0926 54.4983 9.84868 54.6508 9.58846C54.8091 9.32282 55.0553 9.09784 55.3894 8.91352C55.7295 8.72378 56.1545 8.62891 56.6645 8.62891C57.2332 8.62891 57.708 8.69938 58.0891 8.84033C58.4701 8.98129 58.8395 9.21982 59.1971 9.55594L58.3089 10.1008C57.9513 9.67249 57.4296 9.45836 56.7437 9.45836C56.3919 9.45836 56.1193 9.50715 55.9258 9.60473C55.7383 9.70231 55.6122 9.81073 55.5477 9.93C55.4891 10.0493 55.4598 10.155 55.4598 10.2471C55.4598 10.4423 55.5419 10.5995 55.706 10.7188C55.8702 10.8381 56.1134 10.9465 56.4359 11.0441C56.4652 11.0549 56.6909 11.1173 57.113 11.2311C57.3768 11.2962 57.6494 11.3693 57.9308 11.4507C58.5464 11.6404 58.9567 11.8816 59.1619 12.1744C59.373 12.4671 59.4785 12.749 59.4785 13.0201C59.4785 13.3129 59.4023 13.592 59.2499 13.8577C59.1033 14.1233 58.8424 14.3456 58.4672 14.5245C58.0979 14.698 57.5966 14.7847 56.9635 14.7847Z" fill="white" fill-opacity="0.2"/>
<path d="M63.7284 8.72649C64.3263 8.72649 64.8159 8.86744 65.1969 9.14934C65.578 9.42583 65.7685 9.86224 65.7685 10.4586C65.7685 11.0495 65.578 11.4832 65.1969 11.7597C64.8217 12.0362 64.3322 12.1798 63.7284 12.1907C63.5935 12.1961 62.8812 12.1988 61.5915 12.1988V14.6871H60.633V8.72649H61.5915H63.7284ZM63.1832 11.41C63.5115 11.41 63.7841 11.3937 64.001 11.3612C64.2237 11.3287 64.4113 11.2419 64.5638 11.101C64.7221 10.96 64.8012 10.7459 64.8012 10.4586C64.8012 10.1712 64.7221 9.95711 64.5638 9.81616C64.4113 9.6752 64.2237 9.58846 64.001 9.55594C63.7841 9.52341 63.5115 9.50715 63.1832 9.50715H61.5915V11.41H63.1832Z" fill="#0B2233"/>
<path d="M63.7284 8.72649C64.3263 8.72649 64.8159 8.86744 65.1969 9.14934C65.578 9.42583 65.7685 9.86224 65.7685 10.4586C65.7685 11.0495 65.578 11.4832 65.1969 11.7597C64.8217 12.0362 64.3322 12.1798 63.7284 12.1907C63.5935 12.1961 62.8812 12.1988 61.5915 12.1988V14.6871H60.633V8.72649H61.5915H63.7284ZM63.1832 11.41C63.5115 11.41 63.7841 11.3937 64.001 11.3612C64.2237 11.3287 64.4113 11.2419 64.5638 11.101C64.7221 10.96 64.8012 10.7459 64.8012 10.4586C64.8012 10.1712 64.7221 9.95711 64.5638 9.81616C64.4113 9.6752 64.2237 9.58846 64.001 9.55594C63.7841 9.52341 63.5115 9.50715 63.1832 9.50715H61.5915V11.41H63.1832Z" fill="white" fill-opacity="0.2"/>
<path d="M69.829 14.7847C69.1665 14.7847 68.5979 14.6519 68.123 14.3863C67.6481 14.1206 67.2876 13.7547 67.0414 13.2885C66.7952 12.8222 66.672 12.2937 66.672 11.7027C66.672 11.1118 66.7952 10.586 67.0414 10.1252C67.2876 9.65894 67.6481 9.29301 68.123 9.02737C68.5979 8.76173 69.1665 8.62891 69.829 8.62891C70.4914 8.62891 71.0601 8.76173 71.5349 9.02737C72.0157 9.29301 72.3791 9.65894 72.6254 10.1252C72.8716 10.586 72.9947 11.1118 72.9947 11.7027C72.9947 12.2937 72.8716 12.8222 72.6254 13.2885C72.3791 13.7547 72.0186 14.1206 71.5437 14.3863C71.0689 14.6519 70.4973 14.7847 69.829 14.7847ZM69.829 13.9797C70.3156 13.9797 70.7171 13.8739 71.0337 13.6625C71.3561 13.4511 71.5936 13.1746 71.746 12.8331C71.8984 12.4861 71.9746 12.1093 71.9746 11.7027C71.9746 11.3016 71.8984 10.9302 71.746 10.5887C71.5936 10.2417 71.3561 9.96253 71.0337 9.7511C70.7171 9.53967 70.3156 9.43396 69.829 9.43396C69.3482 9.43396 68.9467 9.53967 68.6242 9.7511C68.3018 9.96253 68.0644 10.2417 67.912 10.5887C67.7654 10.9302 67.6921 11.3016 67.6921 11.7027C67.6921 12.1093 67.7654 12.4861 67.912 12.8331C68.0644 13.1746 68.3018 13.4511 68.6242 13.6625C68.9467 13.8739 69.3482 13.9797 69.829 13.9797Z" fill="#0B2233"/>
<path d="M69.829 14.7847C69.1665 14.7847 68.5979 14.6519 68.123 14.3863C67.6481 14.1206 67.2876 13.7547 67.0414 13.2885C66.7952 12.8222 66.672 12.2937 66.672 11.7027C66.672 11.1118 66.7952 10.586 67.0414 10.1252C67.2876 9.65894 67.6481 9.29301 68.123 9.02737C68.5979 8.76173 69.1665 8.62891 69.829 8.62891C70.4914 8.62891 71.0601 8.76173 71.5349 9.02737C72.0157 9.29301 72.3791 9.65894 72.6254 10.1252C72.8716 10.586 72.9947 11.1118 72.9947 11.7027C72.9947 12.2937 72.8716 12.8222 72.6254 13.2885C72.3791 13.7547 72.0186 14.1206 71.5437 14.3863C71.0689 14.6519 70.4973 14.7847 69.829 14.7847ZM69.829 13.9797C70.3156 13.9797 70.7171 13.8739 71.0337 13.6625C71.3561 13.4511 71.5936 13.1746 71.746 12.8331C71.8984 12.4861 71.9746 12.1093 71.9746 11.7027C71.9746 11.3016 71.8984 10.9302 71.746 10.5887C71.5936 10.2417 71.3561 9.96253 71.0337 9.7511C70.7171 9.53967 70.3156 9.43396 69.829 9.43396C69.3482 9.43396 68.9467 9.53967 68.6242 9.7511C68.3018 9.96253 68.0644 10.2417 67.912 10.5887C67.7654 10.9302 67.6921 11.3016 67.6921 11.7027C67.6921 12.1093 67.7654 12.4861 67.912 12.8331C68.0644 13.1746 68.3018 13.4511 68.6242 13.6625C68.9467 13.8739 69.3482 13.9797 69.829 13.9797Z" fill="white" fill-opacity="0.2"/>
<path d="M78.7986 13.3129V8.72649H79.7131V14.6871H78.7722L75.1844 10.1008V14.6871H74.261V8.72649H75.2283L78.7986 13.3129Z" fill="#0B2233"/>
<path d="M78.7986 13.3129V8.72649H79.7131V14.6871H78.7722L75.1844 10.1008V14.6871H74.261V8.72649H75.2283L78.7986 13.3129Z" fill="white" fill-opacity="0.2"/>
<path d="M83.7309 14.7847C82.9454 14.7847 82.3239 14.66 81.8667 14.4107C81.4153 14.1559 81.0899 13.8496 80.8906 13.4918L81.6908 12.9307C82.0601 13.6246 82.7519 13.9715 83.7661 13.9715C84.1706 13.9715 84.5135 13.9038 84.7949 13.7682C85.0822 13.6327 85.2258 13.4159 85.2258 13.1177C85.2258 12.8954 85.1438 12.7219 84.9796 12.5972C84.8213 12.4726 84.5751 12.3614 84.2409 12.2638C83.9361 12.1771 83.7456 12.1256 83.6694 12.1093C83.1652 11.9738 82.8017 11.8681 82.5789 11.7922C82.0162 11.597 81.6439 11.3721 81.4622 11.1173C81.2804 10.8625 81.1896 10.5968 81.1896 10.3203C81.1896 10.0926 81.2658 9.84868 81.4182 9.58846C81.5765 9.32282 81.8227 9.09784 82.1569 8.91352C82.4969 8.72378 82.9219 8.62891 83.4319 8.62891C84.0006 8.62891 84.4754 8.69938 84.8565 8.84033C85.2376 8.98129 85.6069 9.21982 85.9645 9.55594L85.0763 10.1008C84.7187 9.67249 84.197 9.45836 83.5111 9.45836C83.1593 9.45836 82.8867 9.50715 82.6933 9.60473C82.5057 9.70231 82.3796 9.81073 82.3151 9.93C82.2565 10.0493 82.2272 10.155 82.2272 10.2471C82.2272 10.4423 82.3093 10.5995 82.4734 10.7188C82.6376 10.8381 82.8809 10.9465 83.2033 11.0441C83.2326 11.0549 83.4583 11.1173 83.8804 11.2311C84.1442 11.2962 84.4168 11.3693 84.6982 11.4507C85.3138 11.6404 85.7241 11.8816 85.9293 12.1744C86.1404 12.4671 86.2459 12.749 86.2459 13.0201C86.2459 13.3129 86.1697 13.592 86.0173 13.8577C85.8707 14.1233 85.6098 14.3456 85.2346 14.5245C84.8653 14.698 84.3641 14.7847 83.7309 14.7847Z" fill="#0B2233"/>
<path d="M83.7309 14.7847C82.9454 14.7847 82.3239 14.66 81.8667 14.4107C81.4153 14.1559 81.0899 13.8496 80.8906 13.4918L81.6908 12.9307C82.0601 13.6246 82.7519 13.9715 83.7661 13.9715C84.1706 13.9715 84.5135 13.9038 84.7949 13.7682C85.0822 13.6327 85.2258 13.4159 85.2258 13.1177C85.2258 12.8954 85.1438 12.7219 84.9796 12.5972C84.8213 12.4726 84.5751 12.3614 84.2409 12.2638C83.9361 12.1771 83.7456 12.1256 83.6694 12.1093C83.1652 11.9738 82.8017 11.8681 82.5789 11.7922C82.0162 11.597 81.6439 11.3721 81.4622 11.1173C81.2804 10.8625 81.1896 10.5968 81.1896 10.3203C81.1896 10.0926 81.2658 9.84868 81.4182 9.58846C81.5765 9.32282 81.8227 9.09784 82.1569 8.91352C82.4969 8.72378 82.9219 8.62891 83.4319 8.62891C84.0006 8.62891 84.4754 8.69938 84.8565 8.84033C85.2376 8.98129 85.6069 9.21982 85.9645 9.55594L85.0763 10.1008C84.7187 9.67249 84.197 9.45836 83.5111 9.45836C83.1593 9.45836 82.8867 9.50715 82.6933 9.60473C82.5057 9.70231 82.3796 9.81073 82.3151 9.93C82.2565 10.0493 82.2272 10.155 82.2272 10.2471C82.2272 10.4423 82.3093 10.5995 82.4734 10.7188C82.6376 10.8381 82.8809 10.9465 83.2033 11.0441C83.2326 11.0549 83.4583 11.1173 83.8804 11.2311C84.1442 11.2962 84.4168 11.3693 84.6982 11.4507C85.3138 11.6404 85.7241 11.8816 85.9293 12.1744C86.1404 12.4671 86.2459 12.749 86.2459 13.0201C86.2459 13.3129 86.1697 13.592 86.0173 13.8577C85.8707 14.1233 85.6098 14.3456 85.2346 14.5245C84.8653 14.698 84.3641 14.7847 83.7309 14.7847Z" fill="white" fill-opacity="0.2"/>
<path d="M88.4293 14.6871H87.4708V8.72649H88.4293V14.6871Z" fill="#0B2233"/>
<path d="M88.4293 14.6871H87.4708V8.72649H88.4293V14.6871Z" fill="white" fill-opacity="0.2"/>
<path d="M94.5915 11.5808C94.9139 11.6729 95.1807 11.8329 95.3917 12.0605C95.6028 12.2882 95.7083 12.5837 95.7083 12.9469C95.7083 14.1071 94.9931 14.6871 93.5626 14.6871H90.054V8.72649H93.2373C93.9759 8.72649 94.5417 8.84304 94.9344 9.07616C95.3331 9.30385 95.5324 9.70231 95.5324 10.2715C95.5324 10.5318 95.4562 10.792 95.3038 11.0522C95.1514 11.307 94.9139 11.4832 94.5915 11.5808ZM93.2373 9.51528C93.1142 9.50986 92.3726 9.50715 91.0125 9.50715V11.2067H93.2373C93.7473 11.2067 94.0815 11.1308 94.2398 10.979C94.4039 10.8272 94.486 10.6212 94.486 10.361C94.486 10.1225 94.4244 9.94356 94.3013 9.82429C94.1782 9.6996 94.0316 9.62099 93.8616 9.58846C93.6916 9.55052 93.4835 9.52612 93.2373 9.51528ZM93.079 13.9065C93.3897 13.9065 93.6506 13.8902 93.8616 13.8577C94.0785 13.8252 94.2632 13.7384 94.4156 13.5975C94.5739 13.4565 94.6531 13.2397 94.6531 12.9469C94.6531 12.6542 94.5768 12.4373 94.4244 12.2964C94.272 12.1554 94.099 12.0687 93.9056 12.0362C93.7121 12.0036 93.4894 11.9874 93.2373 11.9874H91.0125V13.9065H93.079Z" fill="#0B2233"/>
<path d="M94.5915 11.5808C94.9139 11.6729 95.1807 11.8329 95.3917 12.0605C95.6028 12.2882 95.7083 12.5837 95.7083 12.9469C95.7083 14.1071 94.9931 14.6871 93.5626 14.6871H90.054V8.72649H93.2373C93.9759 8.72649 94.5417 8.84304 94.9344 9.07616C95.3331 9.30385 95.5324 9.70231 95.5324 10.2715C95.5324 10.5318 95.4562 10.792 95.3038 11.0522C95.1514 11.307 94.9139 11.4832 94.5915 11.5808ZM93.2373 9.51528C93.1142 9.50986 92.3726 9.50715 91.0125 9.50715V11.2067H93.2373C93.7473 11.2067 94.0815 11.1308 94.2398 10.979C94.4039 10.8272 94.486 10.6212 94.486 10.361C94.486 10.1225 94.4244 9.94356 94.3013 9.82429C94.1782 9.6996 94.0316 9.62099 93.8616 9.58846C93.6916 9.55052 93.4835 9.52612 93.2373 9.51528ZM93.079 13.9065C93.3897 13.9065 93.6506 13.8902 93.8616 13.8577C94.0785 13.8252 94.2632 13.7384 94.4156 13.5975C94.5739 13.4565 94.6531 13.2397 94.6531 12.9469C94.6531 12.6542 94.5768 12.4373 94.4244 12.2964C94.272 12.1554 94.099 12.0687 93.9056 12.0362C93.7121 12.0036 93.4894 11.9874 93.2373 11.9874H91.0125V13.9065H93.079Z" fill="white" fill-opacity="0.2"/>
<path d="M97.7279 8.72649V13.8983H102.063V14.6871H96.7694V8.72649H97.7279Z" fill="#0B2233"/>
<path d="M97.7279 8.72649V13.8983H102.063V14.6871H96.7694V8.72649H97.7279Z" fill="white" fill-opacity="0.2"/>
<path d="M108.146 8.72649V9.50715H104.066V11.2067H106.633V11.9874H104.066V13.9065H108.146V14.6871H103.107V8.72649H108.146Z" fill="#0B2233"/>
<path d="M108.146 8.72649V9.50715H104.066V11.2067H106.633V11.9874H104.066V13.9065H108.146V14.6871H103.107V8.72649H108.146Z" fill="white" fill-opacity="0.2"/>
<path d="M49.8503 24.7292H48.6806V23.6297C48.0413 24.4563 47.1173 24.8695 45.9087 24.8695C45.0198 24.8695 44.2556 24.6785 43.6163 24.2964C42.9769 23.9144 42.4895 23.3919 42.1543 22.7292C41.8268 22.0586 41.663 21.2983 41.663 20.4484C41.663 19.5985 41.8268 18.8383 42.1543 18.1677C42.4895 17.4971 42.9769 16.9708 43.6163 16.5887C44.2556 16.2067 45.0198 16.0156 45.9087 16.0156C46.7976 16.0156 47.5617 16.2067 48.2011 16.5887C48.8405 16.9708 49.3278 17.501 49.6631 18.1794L48.2713 18.5771C47.7801 17.6414 46.9925 17.1735 45.9087 17.1735C45.2615 17.1735 44.7274 17.3256 44.3063 17.6297C43.8853 17.9338 43.5773 18.3353 43.3823 18.8344C43.1874 19.3256 43.0899 19.8636 43.0899 20.4484C43.0899 21.0332 43.1874 21.5712 43.3823 22.0625C43.5773 22.5537 43.8853 22.9514 44.3063 23.2555C44.7274 23.5596 45.2615 23.7116 45.9087 23.7116C46.6416 23.7116 47.2459 23.5011 47.7216 23.08C48.205 22.6512 48.5247 22.1015 48.6806 21.4309V21.2555H45.7449V20.1326H49.8503V24.7292Z" fill="#0B2233"/>
<path d="M49.8503 24.7292H48.6806V23.6297C48.0413 24.4563 47.1173 24.8695 45.9087 24.8695C45.0198 24.8695 44.2556 24.6785 43.6163 24.2964C42.9769 23.9144 42.4895 23.3919 42.1543 22.7292C41.8268 22.0586 41.663 21.2983 41.663 20.4484C41.663 19.5985 41.8268 18.8383 42.1543 18.1677C42.4895 17.4971 42.9769 16.9708 43.6163 16.5887C44.2556 16.2067 45.0198 16.0156 45.9087 16.0156C46.7976 16.0156 47.5617 16.2067 48.2011 16.5887C48.8405 16.9708 49.3278 17.501 49.6631 18.1794L48.2713 18.5771C47.7801 17.6414 46.9925 17.1735 45.9087 17.1735C45.2615 17.1735 44.7274 17.3256 44.3063 17.6297C43.8853 17.9338 43.5773 18.3353 43.3823 18.8344C43.1874 19.3256 43.0899 19.8636 43.0899 20.4484C43.0899 21.0332 43.1874 21.5712 43.3823 22.0625C43.5773 22.5537 43.8853 22.9514 44.3063 23.2555C44.7274 23.5596 45.2615 23.7116 45.9087 23.7116C46.6416 23.7116 47.2459 23.5011 47.7216 23.08C48.205 22.6512 48.5247 22.1015 48.6806 21.4309V21.2555H45.7449V20.1326H49.8503V24.7292Z" fill="white" fill-opacity="0.2"/>
<path d="M58.8927 24.7292H57.3957L56.4834 22.1794H53.0915L52.1792 24.7292H50.6821L53.9687 16.156H55.6062L58.8927 24.7292ZM54.7874 17.4308L53.5009 21.0449H56.074L54.7874 17.4308Z" fill="#0B2233"/>
<path d="M58.8927 24.7292H57.3957L56.4834 22.1794H53.0915L52.1792 24.7292H50.6821L53.9687 16.156H55.6062L58.8927 24.7292ZM54.7874 17.4308L53.5009 21.0449H56.074L54.7874 17.4308Z" fill="white" fill-opacity="0.2"/>
<path d="M68.7425 16.156V24.7292H67.5262V18.2262L64.8127 24.7292H63.8536L61.1284 18.2262V24.7292H59.912V16.156H61.5846L64.3331 22.7759L67.0817 16.156H68.7425Z" fill="#0B2233"/>
<path d="M68.7425 16.156V24.7292H67.5262V18.2262L64.8127 24.7292H63.8536L61.1284 18.2262V24.7292H59.912V16.156H61.5846L64.3331 22.7759L67.0817 16.156H68.7425Z" fill="white" fill-opacity="0.2"/>
<path d="M76.7529 20.2613C77.1817 20.3938 77.5365 20.6239 77.8172 20.9514C78.0979 21.2788 78.2383 21.7038 78.2383 22.2262C78.2383 23.8949 77.287 24.7292 75.3844 24.7292H70.7177V16.156H74.9517C75.9341 16.156 76.6866 16.3236 77.209 16.6589C77.7392 16.9864 78.0043 17.5595 78.0043 18.3782C78.0043 18.7525 77.903 19.1268 77.7002 19.501C77.4975 19.8675 77.1817 20.1209 76.7529 20.2613ZM74.9517 17.2905C74.7879 17.2827 73.8016 17.2788 71.9926 17.2788V19.7233H74.9517C75.6301 19.7233 76.0745 19.6141 76.285 19.3958C76.5034 19.1775 76.6125 18.8812 76.6125 18.5069C76.6125 18.1638 76.5306 17.9065 76.3669 17.7349C76.2032 17.5556 76.0082 17.4425 75.7821 17.3958C75.556 17.3412 75.2792 17.3061 74.9517 17.2905ZM74.7412 23.6064C75.1544 23.6064 75.5014 23.583 75.7821 23.5362C76.0706 23.4894 76.3162 23.3646 76.519 23.1619C76.7295 22.9592 76.8347 22.6473 76.8347 22.2262C76.8347 21.8052 76.7334 21.4933 76.5306 21.2905C76.3279 21.0878 76.0979 20.963 75.8406 20.9163C75.5833 20.8695 75.287 20.8461 74.9517 20.8461H71.9926V23.6064H74.7412Z" fill="#0B2233"/>
<path d="M76.7529 20.2613C77.1817 20.3938 77.5365 20.6239 77.8172 20.9514C78.0979 21.2788 78.2383 21.7038 78.2383 22.2262C78.2383 23.8949 77.287 24.7292 75.3844 24.7292H70.7177V16.156H74.9517C75.9341 16.156 76.6866 16.3236 77.209 16.6589C77.7392 16.9864 78.0043 17.5595 78.0043 18.3782C78.0043 18.7525 77.903 19.1268 77.7002 19.501C77.4975 19.8675 77.1817 20.1209 76.7529 20.2613ZM74.9517 17.2905C74.7879 17.2827 73.8016 17.2788 71.9926 17.2788V19.7233H74.9517C75.6301 19.7233 76.0745 19.6141 76.285 19.3958C76.5034 19.1775 76.6125 18.8812 76.6125 18.5069C76.6125 18.1638 76.5306 17.9065 76.3669 17.7349C76.2032 17.5556 76.0082 17.4425 75.7821 17.3958C75.556 17.3412 75.2792 17.3061 74.9517 17.2905ZM74.7412 23.6064C75.1544 23.6064 75.5014 23.583 75.7821 23.5362C76.0706 23.4894 76.3162 23.3646 76.519 23.1619C76.7295 22.9592 76.8347 22.6473 76.8347 22.2262C76.8347 21.8052 76.7334 21.4933 76.5306 21.2905C76.3279 21.0878 76.0979 20.963 75.8406 20.9163C75.5833 20.8695 75.287 20.8461 74.9517 20.8461H71.9926V23.6064H74.7412Z" fill="white" fill-opacity="0.2"/>
<path d="M80.9245 16.156V23.5947H86.6907V24.7292H79.6497V16.156H80.9245Z" fill="#0B2233"/>
<path d="M80.9245 16.156V23.5947H86.6907V24.7292H79.6497V16.156H80.9245Z" fill="white" fill-opacity="0.2"/>
<path d="M89.4475 24.7292H88.1726V16.156H89.4475V24.7292Z" fill="#0B2233"/>
<path d="M89.4475 24.7292H88.1726V16.156H89.4475V24.7292Z" fill="white" fill-opacity="0.2"/>
<path d="M97.6202 22.7525V16.156H98.8365V24.7292H97.5851L92.8131 18.1326V24.7292H91.585V16.156H92.8716L97.6202 22.7525Z" fill="#0B2233"/>
<path d="M97.6202 22.7525V16.156H98.8365V24.7292H97.5851L92.8131 18.1326V24.7292H91.585V16.156H92.8716L97.6202 22.7525Z" fill="white" fill-opacity="0.2"/>
<path d="M108.73 24.7292H107.561V23.6297C106.921 24.4563 105.997 24.8695 104.789 24.8695C103.9 24.8695 103.136 24.6785 102.496 24.2964C101.857 23.9144 101.369 23.3919 101.034 22.7292C100.707 22.0586 100.543 21.2983 100.543 20.4484C100.543 19.5985 100.707 18.8383 101.034 18.1677C101.369 17.4971 101.857 16.9708 102.496 16.5887C103.136 16.2067 103.9 16.0156 104.789 16.0156C105.678 16.0156 106.442 16.2067 107.081 16.5887C107.72 16.9708 108.208 17.501 108.543 18.1794L107.151 18.5771C106.66 17.6414 105.872 17.1735 104.789 17.1735C104.141 17.1735 103.607 17.3256 103.186 17.6297C102.765 17.9338 102.457 18.3353 102.262 18.8344C102.067 19.3256 101.97 19.8636 101.97 20.4484C101.97 21.0332 102.067 21.5712 102.262 22.0625C102.457 22.5537 102.765 22.9514 103.186 23.2555C103.607 23.5596 104.141 23.7116 104.789 23.7116C105.522 23.7116 106.126 23.5011 106.602 23.08C107.085 22.6512 107.405 22.1015 107.561 21.4309V21.2555H104.625V20.1326H108.73V24.7292Z" fill="#0B2233"/>
<path d="M108.73 24.7292H107.561V23.6297C106.921 24.4563 105.997 24.8695 104.789 24.8695C103.9 24.8695 103.136 24.6785 102.496 24.2964C101.857 23.9144 101.369 23.3919 101.034 22.7292C100.707 22.0586 100.543 21.2983 100.543 20.4484C100.543 19.5985 100.707 18.8383 101.034 18.1677C101.369 17.4971 101.857 16.9708 102.496 16.5887C103.136 16.2067 103.9 16.0156 104.789 16.0156C105.678 16.0156 106.442 16.2067 107.081 16.5887C107.72 16.9708 108.208 17.501 108.543 18.1794L107.151 18.5771C106.66 17.6414 105.872 17.1735 104.789 17.1735C104.141 17.1735 103.607 17.3256 103.186 17.6297C102.765 17.9338 102.457 18.3353 102.262 18.8344C102.067 19.3256 101.97 19.8636 101.97 20.4484C101.97 21.0332 102.067 21.5712 102.262 22.0625C102.457 22.5537 102.765 22.9514 103.186 23.2555C103.607 23.5596 104.141 23.7116 104.789 23.7116C105.522 23.7116 106.126 23.5011 106.602 23.08C107.085 22.6512 107.405 22.1015 107.561 21.4309V21.2555H104.625V20.1326H108.73V24.7292Z" fill="white" fill-opacity="0.2"/>
<rect height="31.3844" rx="7.07918" stroke="#F2F2F4" stroke-opacity="0.1" stroke-width="0.615581" width="115.083" x="0.726797" y="1.05681"/>
</svg>