<?xml version="1.0" encoding="utf-8"?>
<svg xmlns="http://www.w3.org/2000/svg" fill="none" height="33" viewBox="0 0 95 33" width="95">
<path clip-rule="evenodd" d="M27.8334 27.0831V0.249023H34.1473L48.4971 27.0831H44.1922L39.6002 18.4732H31.8514V27.0831H27.8334ZM31.8514 15.0293V4.69745L37.7348 15.0293H31.8514ZM26.5419 11.8723H22.9545V3.83647H20.9455L10.3267 23.0652H22.9545V18.6167H16.2101L18.0756 15.1728H26.5419V27.0831H3.4388L17.6451 0.392521H26.5419V11.8723ZM2.86481 28.0876L0.568848 32.249H51.5105L49.3581 28.0876H2.86481ZM70.3304 24.0697C69.8564 24.0697 69.4937 23.9352 69.2421 23.6663C68.9904 23.3973 68.8646 23.0173 68.8646 22.5263V19.2991C68.8646 18.8081 68.9904 18.4281 69.2421 18.1591C69.4937 17.8902 69.8564 17.7558 70.3304 17.7558C70.8044 17.7558 71.1671 17.8902 71.4187 18.1591C71.6704 18.4281 71.7962 18.8081 71.7962 19.2991V22.5263C71.7962 23.0173 71.6704 23.3973 71.4187 23.6663C71.1671 23.9352 70.8044 24.0697 70.3304 24.0697ZM70.3304 23.1927C70.6639 23.1927 70.8307 22.991 70.8307 22.5876V19.2378C70.8307 18.8344 70.6639 18.6327 70.3304 18.6327C69.9969 18.6327 69.8301 18.8344 69.8301 19.2378V22.5876C69.8301 22.991 69.9969 23.1927 70.3304 23.1927ZM63.7202 17.8434H62.4125L61.4119 23.982H62.3071L62.4827 22.7806H63.5798V22.763L63.7553 23.982H64.7208L63.7202 17.8434ZM63.0356 18.9133L63.4657 21.9475H62.5968L63.0181 18.9133H63.0356ZM66.4004 17.8434H65.1892V23.982H66.0494V19.5008H66.0669L67.2255 23.982H68.2173V17.8434H67.3571V21.5178H67.3396L66.4004 17.8434ZM73.6603 17.8434H72.4491V23.982H73.3092V19.5008H73.3268L74.4853 23.982H75.4771V17.8434H74.617V21.5178H74.5994L73.6603 17.8434ZM77.0812 21.3687L75.9139 17.8434H76.9408L77.599 20.0972H77.6166L78.2749 17.8434H79.214L78.0467 21.3687V23.982H77.0812V21.3687ZM81.0269 17.8434H79.6489V23.982H80.4915V19.3342H80.5091L81.2113 23.982H82.0187L82.7209 19.3342H82.7384V23.982H83.6513V17.8434H82.2733L81.6589 22.2369H81.6413L81.0269 17.8434ZM85.7673 24.0697C85.2933 24.0697 84.9305 23.9352 84.6789 23.6663C84.4273 23.3973 84.3015 23.0173 84.3015 22.5263V19.2991C84.3015 18.8081 84.4273 18.4281 84.6789 18.1591C84.9305 17.8902 85.2933 17.7558 85.7673 17.7558C86.2412 17.7558 86.604 17.8902 86.8556 18.1591C87.1072 18.4281 87.233 18.8081 87.233 19.2991V22.5263C87.233 23.0173 87.1072 23.3973 86.8556 23.6663C86.604 23.9352 86.2412 24.0697 85.7673 24.0697ZM85.7673 23.1927C86.1008 23.1927 86.2675 22.991 86.2675 22.5876V19.2378C86.2675 18.8344 86.1008 18.6327 85.7673 18.6327C85.4337 18.6327 85.267 18.8344 85.267 19.2378V22.5876C85.267 22.991 85.4337 23.1927 85.7673 23.1927ZM88.2195 23.675C88.4652 23.9381 88.8221 24.0697 89.2903 24.0697C89.7584 24.0697 90.1153 23.9381 90.361 23.675C90.6068 23.4061 90.7297 23.0232 90.7297 22.5263V17.8434H89.7993V22.5964C89.7993 22.8069 89.7554 22.9589 89.6677 23.0524C89.5857 23.146 89.4658 23.1927 89.3078 23.1927C89.1498 23.1927 89.0269 23.146 88.9392 23.0524C88.8573 22.9589 88.8163 22.8069 88.8163 22.5964V17.8434H87.8508V22.5263C87.8508 23.0232 87.9737 23.4061 88.2195 23.675ZM92.6724 24.0697C92.2043 24.0697 91.8503 23.9381 91.6104 23.675C91.3705 23.4061 91.2505 23.0232 91.2505 22.5263V22.1755H92.1633V22.5964C92.1633 22.9939 92.3301 23.1927 92.6636 23.1927C92.8275 23.1927 92.9503 23.146 93.0323 23.0524C93.12 22.953 93.1639 22.7952 93.1639 22.5789C93.1639 22.3216 93.1054 22.0966 92.9884 21.9036C92.8714 21.7049 92.6549 21.4681 92.3389 21.1933C91.941 20.8425 91.6631 20.5269 91.5051 20.2462C91.3471 19.9598 91.2681 19.6382 91.2681 19.2816C91.2681 18.7964 91.391 18.4222 91.6367 18.1591C91.8825 17.8902 92.2394 17.7558 92.7075 17.7558C93.1698 17.7558 93.5179 17.8902 93.752 18.1591C93.9919 18.4222 94.1118 18.8022 94.1118 19.2991V19.5535H93.199V19.2378C93.199 19.0273 93.1581 18.8753 93.0761 18.7818C92.9942 18.6824 92.8743 18.6327 92.7163 18.6327C92.3945 18.6327 92.2336 18.8285 92.2336 19.2202C92.2336 19.4424 92.2921 19.6499 92.4091 19.8428C92.532 20.0358 92.7514 20.2696 93.0674 20.5444C93.4711 20.8952 93.749 21.2138 93.9012 21.5002C94.0533 21.7867 94.1294 22.1229 94.1294 22.5087C94.1294 23.0115 94.0036 23.3973 93.752 23.6663C93.5062 23.9352 93.1464 24.0697 92.6724 24.0697ZM45.9768 14.4912C46.4013 14.9456 47.0177 15.1728 47.8262 15.1728C48.6347 15.1728 49.2511 14.9456 49.6756 14.4912C50.1 14.0267 50.3123 13.3653 50.3123 12.5069V9.03826H47.902V10.553H48.7357V12.6281C48.7357 13.3148 48.4477 13.6581 47.8717 13.6581C47.2956 13.6581 47.0076 13.3148 47.0076 12.6281V6.8268C47.0076 6.13004 47.2956 5.78166 47.8717 5.78166C48.4477 5.78166 48.7357 6.13004 48.7357 6.8268V7.84165H50.3123V6.93283C50.3123 6.0745 50.1 5.41813 49.6756 4.96372C49.2511 4.49921 48.6347 4.26696 47.8262 4.26696C47.0177 4.26696 46.4013 4.49921 45.9768 4.96372C45.5524 5.41813 45.3401 6.0745 45.3401 6.93283V12.5069C45.3401 13.3653 45.5524 14.0267 45.9768 14.4912ZM54.93 4.41843H52.6714L50.9433 15.0213H52.4895L52.7926 12.9462H54.6875V12.9159L54.9907 15.0213H56.6582L54.93 4.41843ZM53.7476 6.26636L54.4904 11.5072H52.9897L53.7173 6.26636H53.7476ZM57.4671 4.41843H59.8471L60.9082 12.0071H60.9385L61.9996 4.41843H64.3796V15.0213H62.8031V6.99342H62.7728L61.56 15.0213H60.1654L58.9527 6.99342H58.9224V15.0213H57.4671V4.41843ZM68.1403 4.41843H65.6239V15.0213H68.2464C69.0751 15.0213 69.7017 14.8093 70.1261 14.3851C70.5607 13.9509 70.7779 13.3249 70.7779 12.5069V11.5981C70.7779 10.4065 70.3636 9.66939 69.5349 9.38664V9.35635C69.8987 9.20488 70.1665 8.95748 70.3383 8.61415C70.5202 8.27081 70.6112 7.8265 70.6112 7.28121V6.8571C70.6112 6.02906 70.4141 5.41813 70.02 5.02431C69.6259 4.62039 68.9993 4.41843 68.1403 4.41843ZM68.686 8.47782C68.5243 8.64949 68.2767 8.73532 67.9432 8.73532H67.2914V5.93313H68.0948C68.3879 5.93313 68.6001 6.01896 68.7315 6.19063C68.873 6.36229 68.9437 6.63999 68.9437 7.02371V7.61444C68.9437 8.01836 68.8578 8.30616 68.686 8.47782ZM68.8982 13.2794C68.7568 13.4309 68.5395 13.5066 68.2464 13.5066H67.2914V10.25H68.0342C68.4182 10.25 68.6911 10.346 68.8528 10.5378C69.0246 10.7196 69.1105 11.0528 69.1105 11.5375V12.4615C69.1105 12.8452 69.0397 13.1179 68.8982 13.2794ZM71.7526 4.41843H73.4201V13.5066H76.1638V15.0213H71.7526V4.41843ZM81.5111 4.41843H76.9635V15.0213H81.5111V13.5066H78.631V10.25H80.9199V8.73532H78.631V5.93313H81.5111V4.41843ZM82.4704 4.41843H84.9413C85.8003 4.41843 86.4269 4.62039 86.821 5.02431C87.2151 5.41813 87.4122 6.02906 87.4122 6.8571V7.50842C87.4122 8.6091 87.0484 9.30586 86.3208 9.5987V9.62899C86.725 9.75017 87.008 9.99757 87.1697 10.3712C87.3415 10.7448 87.4274 11.2447 87.4274 11.8707V13.7338C87.4274 14.0368 87.4375 14.2842 87.4577 14.476C87.4779 14.6578 87.5284 14.8396 87.6093 15.0213H85.9115C85.8508 14.8497 85.8104 14.6881 85.7902 14.5366C85.77 14.3851 85.7599 14.1125 85.7599 13.7187V11.7799C85.7599 11.2952 85.679 10.9569 85.5174 10.765C85.3658 10.5732 85.098 10.4772 84.7139 10.4772H84.1379V15.0213H82.4704V4.41843ZM84.7443 8.96253C85.0778 8.96253 85.3253 8.87669 85.487 8.70503C85.6588 8.53336 85.7447 8.24557 85.7447 7.84165V7.02371C85.7447 6.63999 85.674 6.36229 85.5325 6.19063C85.4011 6.01896 85.1889 5.93313 84.8958 5.93313H84.1379V8.96253H84.7443ZM88.9178 14.4912C89.3321 14.9456 89.9436 15.1728 90.752 15.1728C91.5706 15.1728 92.1921 14.9405 92.6166 14.476C93.0511 14.0115 93.2684 13.3451 93.2684 12.4766C93.2684 11.8102 93.137 11.2295 92.8743 10.7347C92.6115 10.2399 92.1315 9.68958 91.4342 9.0837C90.8885 8.6091 90.5095 8.20518 90.2973 7.87194C90.0951 7.53871 89.9941 7.18023 89.9941 6.79651C89.9941 6.11994 90.272 5.78166 90.8278 5.78166C91.1007 5.78166 91.3079 5.86749 91.4493 6.03916C91.5908 6.20073 91.6616 6.46327 91.6616 6.8268V7.37209H93.2381V6.93283C93.2381 6.0745 93.0309 5.41813 92.6166 4.96372C92.2123 4.49921 91.611 4.26696 90.8127 4.26696C90.0042 4.26696 89.3877 4.49921 88.9633 4.96372C88.5388 5.41813 88.3266 6.0644 88.3266 6.90254C88.3266 7.51851 88.463 8.0739 88.7359 8.5687C89.0088 9.05341 89.4888 9.5987 90.176 10.2046C90.7217 10.6792 91.0956 11.0882 91.2977 11.4315C91.4999 11.7647 91.6009 12.1535 91.6009 12.5978C91.6009 12.9714 91.5251 13.2441 91.3735 13.4157C91.2321 13.5773 91.0198 13.6581 90.7369 13.6581C90.1608 13.6581 89.8728 13.3148 89.8728 12.6281V11.901H88.2963V12.5069C88.2963 13.3653 88.5035 14.0267 88.9178 14.4912Z" fill="#0B2233" fill-rule="evenodd"/>
<path clip-rule="evenodd" d="M27.8334 27.0831V0.249023H34.1473L48.4971 27.0831H44.1922L39.6002 18.4732H31.8514V27.0831H27.8334ZM31.8514 15.0293V4.69745L37.7348 15.0293H31.8514ZM26.5419 11.8723H22.9545V3.83647H20.9455L10.3267 23.0652H22.9545V18.6167H16.2101L18.0756 15.1728H26.5419V27.0831H3.4388L17.6451 0.392521H26.5419V11.8723ZM2.86481 28.0876L0.568848 32.249H51.5105L49.3581 28.0876H2.86481ZM70.3304 24.0697C69.8564 24.0697 69.4937 23.9352 69.2421 23.6663C68.9904 23.3973 68.8646 23.0173 68.8646 22.5263V19.2991C68.8646 18.8081 68.9904 18.4281 69.2421 18.1591C69.4937 17.8902 69.8564 17.7558 70.3304 17.7558C70.8044 17.7558 71.1671 17.8902 71.4187 18.1591C71.6704 18.4281 71.7962 18.8081 71.7962 19.2991V22.5263C71.7962 23.0173 71.6704 23.3973 71.4187 23.6663C71.1671 23.9352 70.8044 24.0697 70.3304 24.0697ZM70.3304 23.1927C70.6639 23.1927 70.8307 22.991 70.8307 22.5876V19.2378C70.8307 18.8344 70.6639 18.6327 70.3304 18.6327C69.9969 18.6327 69.8301 18.8344 69.8301 19.2378V22.5876C69.8301 22.991 69.9969 23.1927 70.3304 23.1927ZM63.7202 17.8434H62.4125L61.4119 23.982H62.3071L62.4827 22.7806H63.5798V22.763L63.7553 23.982H64.7208L63.7202 17.8434ZM63.0356 18.9133L63.4657 21.9475H62.5968L63.0181 18.9133H63.0356ZM66.4004 17.8434H65.1892V23.982H66.0494V19.5008H66.0669L67.2255 23.982H68.2173V17.8434H67.3571V21.5178H67.3396L66.4004 17.8434ZM73.6603 17.8434H72.4491V23.982H73.3092V19.5008H73.3268L74.4853 23.982H75.4771V17.8434H74.617V21.5178H74.5994L73.6603 17.8434ZM77.0812 21.3687L75.9139 17.8434H76.9408L77.599 20.0972H77.6166L78.2749 17.8434H79.214L78.0467 21.3687V23.982H77.0812V21.3687ZM81.0269 17.8434H79.6489V23.982H80.4915V19.3342H80.5091L81.2113 23.982H82.0187L82.7209 19.3342H82.7384V23.982H83.6513V17.8434H82.2733L81.6589 22.2369H81.6413L81.0269 17.8434ZM85.7673 24.0697C85.2933 24.0697 84.9305 23.9352 84.6789 23.6663C84.4273 23.3973 84.3015 23.0173 84.3015 22.5263V19.2991C84.3015 18.8081 84.4273 18.4281 84.6789 18.1591C84.9305 17.8902 85.2933 17.7558 85.7673 17.7558C86.2412 17.7558 86.604 17.8902 86.8556 18.1591C87.1072 18.4281 87.233 18.8081 87.233 19.2991V22.5263C87.233 23.0173 87.1072 23.3973 86.8556 23.6663C86.604 23.9352 86.2412 24.0697 85.7673 24.0697ZM85.7673 23.1927C86.1008 23.1927 86.2675 22.991 86.2675 22.5876V19.2378C86.2675 18.8344 86.1008 18.6327 85.7673 18.6327C85.4337 18.6327 85.267 18.8344 85.267 19.2378V22.5876C85.267 22.991 85.4337 23.1927 85.7673 23.1927ZM88.2195 23.675C88.4652 23.9381 88.8221 24.0697 89.2903 24.0697C89.7584 24.0697 90.1153 23.9381 90.361 23.675C90.6068 23.4061 90.7297 23.0232 90.7297 22.5263V17.8434H89.7993V22.5964C89.7993 22.8069 89.7554 22.9589 89.6677 23.0524C89.5857 23.146 89.4658 23.1927 89.3078 23.1927C89.1498 23.1927 89.0269 23.146 88.9392 23.0524C88.8573 22.9589 88.8163 22.8069 88.8163 22.5964V17.8434H87.8508V22.5263C87.8508 23.0232 87.9737 23.4061 88.2195 23.675ZM92.6724 24.0697C92.2043 24.0697 91.8503 23.9381 91.6104 23.675C91.3705 23.4061 91.2505 23.0232 91.2505 22.5263V22.1755H92.1633V22.5964C92.1633 22.9939 92.3301 23.1927 92.6636 23.1927C92.8275 23.1927 92.9503 23.146 93.0323 23.0524C93.12 22.953 93.1639 22.7952 93.1639 22.5789C93.1639 22.3216 93.1054 22.0966 92.9884 21.9036C92.8714 21.7049 92.6549 21.4681 92.3389 21.1933C91.941 20.8425 91.6631 20.5269 91.5051 20.2462C91.3471 19.9598 91.2681 19.6382 91.2681 19.2816C91.2681 18.7964 91.391 18.4222 91.6367 18.1591C91.8825 17.8902 92.2394 17.7558 92.7075 17.7558C93.1698 17.7558 93.5179 17.8902 93.752 18.1591C93.9919 18.4222 94.1118 18.8022 94.1118 19.2991V19.5535H93.199V19.2378C93.199 19.0273 93.1581 18.8753 93.0761 18.7818C92.9942 18.6824 92.8743 18.6327 92.7163 18.6327C92.3945 18.6327 92.2336 18.8285 92.2336 19.2202C92.2336 19.4424 92.2921 19.6499 92.4091 19.8428C92.532 20.0358 92.7514 20.2696 93.0674 20.5444C93.4711 20.8952 93.749 21.2138 93.9012 21.5002C94.0533 21.7867 94.1294 22.1229 94.1294 22.5087C94.1294 23.0115 94.0036 23.3973 93.752 23.6663C93.5062 23.9352 93.1464 24.0697 92.6724 24.0697ZM45.9768 14.4912C46.4013 14.9456 47.0177 15.1728 47.8262 15.1728C48.6347 15.1728 49.2511 14.9456 49.6756 14.4912C50.1 14.0267 50.3123 13.3653 50.3123 12.5069V9.03826H47.902V10.553H48.7357V12.6281C48.7357 13.3148 48.4477 13.6581 47.8717 13.6581C47.2956 13.6581 47.0076 13.3148 47.0076 12.6281V6.8268C47.0076 6.13004 47.2956 5.78166 47.8717 5.78166C48.4477 5.78166 48.7357 6.13004 48.7357 6.8268V7.84165H50.3123V6.93283C50.3123 6.0745 50.1 5.41813 49.6756 4.96372C49.2511 4.49921 48.6347 4.26696 47.8262 4.26696C47.0177 4.26696 46.4013 4.49921 45.9768 4.96372C45.5524 5.41813 45.3401 6.0745 45.3401 6.93283V12.5069C45.3401 13.3653 45.5524 14.0267 45.9768 14.4912ZM54.93 4.41843H52.6714L50.9433 15.0213H52.4895L52.7926 12.9462H54.6875V12.9159L54.9907 15.0213H56.6582L54.93 4.41843ZM53.7476 6.26636L54.4904 11.5072H52.9897L53.7173 6.26636H53.7476ZM57.4671 4.41843H59.8471L60.9082 12.0071H60.9385L61.9996 4.41843H64.3796V15.0213H62.8031V6.99342H62.7728L61.56 15.0213H60.1654L58.9527 6.99342H58.9224V15.0213H57.4671V4.41843ZM68.1403 4.41843H65.6239V15.0213H68.2464C69.0751 15.0213 69.7017 14.8093 70.1261 14.3851C70.5607 13.9509 70.7779 13.3249 70.7779 12.5069V11.5981C70.7779 10.4065 70.3636 9.66939 69.5349 9.38664V9.35635C69.8987 9.20488 70.1665 8.95748 70.3383 8.61415C70.5202 8.27081 70.6112 7.8265 70.6112 7.28121V6.8571C70.6112 6.02906 70.4141 5.41813 70.02 5.02431C69.6259 4.62039 68.9993 4.41843 68.1403 4.41843ZM68.686 8.47782C68.5243 8.64949 68.2767 8.73532 67.9432 8.73532H67.2914V5.93313H68.0948C68.3879 5.93313 68.6001 6.01896 68.7315 6.19063C68.873 6.36229 68.9437 6.63999 68.9437 7.02371V7.61444C68.9437 8.01836 68.8578 8.30616 68.686 8.47782ZM68.8982 13.2794C68.7568 13.4309 68.5395 13.5066 68.2464 13.5066H67.2914V10.25H68.0342C68.4182 10.25 68.6911 10.346 68.8528 10.5378C69.0246 10.7196 69.1105 11.0528 69.1105 11.5375V12.4615C69.1105 12.8452 69.0397 13.1179 68.8982 13.2794ZM71.7526 4.41843H73.4201V13.5066H76.1638V15.0213H71.7526V4.41843ZM81.5111 4.41843H76.9635V15.0213H81.5111V13.5066H78.631V10.25H80.9199V8.73532H78.631V5.93313H81.5111V4.41843ZM82.4704 4.41843H84.9413C85.8003 4.41843 86.4269 4.62039 86.821 5.02431C87.2151 5.41813 87.4122 6.02906 87.4122 6.8571V7.50842C87.4122 8.6091 87.0484 9.30586 86.3208 9.5987V9.62899C86.725 9.75017 87.008 9.99757 87.1697 10.3712C87.3415 10.7448 87.4274 11.2447 87.4274 11.8707V13.7338C87.4274 14.0368 87.4375 14.2842 87.4577 14.476C87.4779 14.6578 87.5284 14.8396 87.6093 15.0213H85.9115C85.8508 14.8497 85.8104 14.6881 85.7902 14.5366C85.77 14.3851 85.7599 14.1125 85.7599 13.7187V11.7799C85.7599 11.2952 85.679 10.9569 85.5174 10.765C85.3658 10.5732 85.098 10.4772 84.7139 10.4772H84.1379V15.0213H82.4704V4.41843ZM84.7443 8.96253C85.0778 8.96253 85.3253 8.87669 85.487 8.70503C85.6588 8.53336 85.7447 8.24557 85.7447 7.84165V7.02371C85.7447 6.63999 85.674 6.36229 85.5325 6.19063C85.4011 6.01896 85.1889 5.93313 84.8958 5.93313H84.1379V8.96253H84.7443ZM88.9178 14.4912C89.3321 14.9456 89.9436 15.1728 90.752 15.1728C91.5706 15.1728 92.1921 14.9405 92.6166 14.476C93.0511 14.0115 93.2684 13.3451 93.2684 12.4766C93.2684 11.8102 93.137 11.2295 92.8743 10.7347C92.6115 10.2399 92.1315 9.68958 91.4342 9.0837C90.8885 8.6091 90.5095 8.20518 90.2973 7.87194C90.0951 7.53871 89.9941 7.18023 89.9941 6.79651C89.9941 6.11994 90.272 5.78166 90.8278 5.78166C91.1007 5.78166 91.3079 5.86749 91.4493 6.03916C91.5908 6.20073 91.6616 6.46327 91.6616 6.8268V7.37209H93.2381V6.93283C93.2381 6.0745 93.0309 5.41813 92.6166 4.96372C92.2123 4.49921 91.611 4.26696 90.8127 4.26696C90.0042 4.26696 89.3877 4.49921 88.9633 4.96372C88.5388 5.41813 88.3266 6.0644 88.3266 6.90254C88.3266 7.51851 88.463 8.0739 88.7359 8.5687C89.0088 9.05341 89.4888 9.5987 90.176 10.2046C90.7217 10.6792 91.0956 11.0882 91.2977 11.4315C91.4999 11.7647 91.6009 12.1535 91.6009 12.5978C91.6009 12.9714 91.5251 13.2441 91.3735 13.4157C91.2321 13.5773 91.0198 13.6581 90.7369 13.6581C90.1608 13.6581 89.8728 13.3148 89.8728 12.6281V11.901H88.2963V12.5069C88.2963 13.3653 88.5035 14.0267 88.9178 14.4912Z" fill="white" fill-opacity="0.12" fill-rule="evenodd"/>
</svg>