<?xml version="1.0" encoding="utf-8"?>
<svg xmlns="http://www.w3.org/2000/svg" fill="none" height="36" viewBox="0 0 36 36" width="36">
<path d="M11.8091 1.53064C15.3957 0.076894 19.3632 -0.146958 23.0904 0.894104L22.3427 3.57148C19.2074 2.69579 15.8703 2.88408 12.8533 4.10691C9.83657 5.32971 7.3099 7.51807 5.66927 10.3296C4.02864 13.1411 3.36608 16.4172 3.78544 19.6454C4.2048 22.8735 5.68242 25.8716 7.98692 28.1706C10.2918 30.4696 13.2933 31.9397 16.5227 32.3511C19.7517 32.7625 23.0263 32.0919 25.8337 30.4442C28.641 28.7965 30.8233 26.2646 32.0386 23.2447C33.254 20.2248 33.4341 16.8873 32.5507 13.7542L35.2262 12.9998C36.2763 16.7245 36.0623 20.6924 34.6176 24.2826C33.1725 27.8728 30.5784 30.8827 27.2406 32.8416C23.9032 34.8005 20.0103 35.5978 16.1713 35.1087C12.3324 34.6196 8.76353 32.8718 6.02389 30.1387C3.28392 27.4055 1.52728 23.8413 1.02871 20.0035C0.530147 16.1657 1.3176 12.2709 3.26847 8.92846C5.21902 5.58598 8.22256 2.98438 11.8091 1.53064Z" fill="#0B2233"/>
<path d="M11.8091 1.53064C15.3957 0.076894 19.3632 -0.146958 23.0904 0.894104L22.3427 3.57148C19.2074 2.69579 15.8703 2.88408 12.8533 4.10691C9.83657 5.32971 7.3099 7.51807 5.66927 10.3296C4.02864 13.1411 3.36608 16.4172 3.78544 19.6454C4.2048 22.8735 5.68242 25.8716 7.98692 28.1706C10.2918 30.4696 13.2933 31.9397 16.5227 32.3511C19.7517 32.7625 23.0263 32.0919 25.8337 30.4442C28.641 28.7965 30.8233 26.2646 32.0386 23.2447C33.254 20.2248 33.4341 16.8873 32.5507 13.7542L35.2262 12.9998C36.2763 16.7245 36.0623 20.6924 34.6176 24.2826C33.1725 27.8728 30.5784 30.8827 27.2406 32.8416C23.9032 34.8005 20.0103 35.5978 16.1713 35.1087C12.3324 34.6196 8.76353 32.8718 6.02389 30.1387C3.28392 27.4055 1.52728 23.8413 1.02871 20.0035C0.530147 16.1657 1.3176 12.2709 3.26847 8.92846C5.21902 5.58598 8.22256 2.98438 11.8091 1.53064Z" fill="white" fill-opacity="0.12"/>
<path d="M34.5367 7.79856H31.3383V11.0182H28.9667V7.79856H25.7867V5.48794H28.9667V2.26825H31.3383V5.48794H34.5367V7.79856Z" fill="#0B2233"/>
<path d="M34.5367 7.79856H31.3383V11.0182H28.9667V7.79856H25.7867V5.48794H28.9667V2.26825H31.3383V5.48794H34.5367V7.79856Z" fill="white" fill-opacity="0.12"/>
<path clip-rule="evenodd" d="M24.9996 17.8621C25.5596 18.1421 25.9849 18.5082 26.2757 18.9605C26.5771 19.4128 26.7279 19.9351 26.7279 20.5275C26.7279 21.2275 26.5288 21.8413 26.1301 22.369C25.7318 22.8859 25.1718 23.2898 24.4504 23.5805C23.7287 23.8605 22.8942 24.0005 21.9464 24.0005C20.9986 24.0005 20.1641 23.8605 19.4424 23.5805C18.7319 23.2898 18.1771 22.8859 17.7788 22.369C17.391 21.8413 17.1971 21.2275 17.1971 20.5275C17.1971 19.9351 17.3426 19.4128 17.6332 18.9605C17.9349 18.5082 18.3601 18.1421 18.9093 17.8621C18.4893 17.6036 18.1662 17.2805 17.9401 16.8928C17.714 16.4944 17.601 16.0421 17.601 15.5359C17.601 14.879 17.784 14.3082 18.1501 13.8236C18.5163 13.339 19.028 12.9675 19.6849 12.709C20.3419 12.4398 21.0955 12.3052 21.9464 12.3052C22.8078 12.3052 23.5673 12.4398 24.224 12.709C24.8918 12.9675 25.4087 13.339 25.7749 13.8236C26.141 14.3082 26.324 14.879 26.324 15.5359C26.324 16.0421 26.211 16.4944 25.9849 16.8928C25.7588 17.2805 25.4301 17.6036 24.9996 17.8621ZM21.9464 14.2275C21.4186 14.2275 20.9933 14.3567 20.6702 14.6152C20.358 14.8628 20.2019 15.2075 20.2019 15.649C20.2019 16.0798 20.358 16.419 20.6702 16.6667C20.9825 16.9144 21.4081 17.0382 21.9464 17.0382C22.4847 17.0382 22.9156 16.9144 23.2387 16.6667C23.5617 16.419 23.7234 16.0798 23.7234 15.649C23.7234 15.2075 23.5617 14.8628 23.2387 14.6152C22.9156 14.3567 22.4847 14.2275 21.9464 14.2275ZM21.9464 22.0782C22.6034 22.0782 23.1203 21.9328 23.4973 21.6421C23.8848 21.3405 24.0787 20.9421 24.0787 20.4467C24.0787 19.9513 23.8848 19.5582 23.4973 19.2675C23.1203 18.9767 22.6034 18.8313 21.9464 18.8313C21.3003 18.8313 20.7886 18.9767 20.4119 19.2675C20.035 19.5582 19.8463 19.9513 19.8463 20.4467C19.8463 20.9528 20.035 21.3513 20.4119 21.6421C20.7886 21.9328 21.3003 22.0782 21.9464 22.0782Z" fill="#0B2233" fill-rule="evenodd"/>
<path clip-rule="evenodd" d="M24.9996 17.8621C25.5596 18.1421 25.9849 18.5082 26.2757 18.9605C26.5771 19.4128 26.7279 19.9351 26.7279 20.5275C26.7279 21.2275 26.5288 21.8413 26.1301 22.369C25.7318 22.8859 25.1718 23.2898 24.4504 23.5805C23.7287 23.8605 22.8942 24.0005 21.9464 24.0005C20.9986 24.0005 20.1641 23.8605 19.4424 23.5805C18.7319 23.2898 18.1771 22.8859 17.7788 22.369C17.391 21.8413 17.1971 21.2275 17.1971 20.5275C17.1971 19.9351 17.3426 19.4128 17.6332 18.9605C17.9349 18.5082 18.3601 18.1421 18.9093 17.8621C18.4893 17.6036 18.1662 17.2805 17.9401 16.8928C17.714 16.4944 17.601 16.0421 17.601 15.5359C17.601 14.879 17.784 14.3082 18.1501 13.8236C18.5163 13.339 19.028 12.9675 19.6849 12.709C20.3419 12.4398 21.0955 12.3052 21.9464 12.3052C22.8078 12.3052 23.5673 12.4398 24.224 12.709C24.8918 12.9675 25.4087 13.339 25.7749 13.8236C26.141 14.3082 26.324 14.879 26.324 15.5359C26.324 16.0421 26.211 16.4944 25.9849 16.8928C25.7588 17.2805 25.4301 17.6036 24.9996 17.8621ZM21.9464 14.2275C21.4186 14.2275 20.9933 14.3567 20.6702 14.6152C20.358 14.8628 20.2019 15.2075 20.2019 15.649C20.2019 16.0798 20.358 16.419 20.6702 16.6667C20.9825 16.9144 21.4081 17.0382 21.9464 17.0382C22.4847 17.0382 22.9156 16.9144 23.2387 16.6667C23.5617 16.419 23.7234 16.0798 23.7234 15.649C23.7234 15.2075 23.5617 14.8628 23.2387 14.6152C22.9156 14.3567 22.4847 14.2275 21.9464 14.2275ZM21.9464 22.0782C22.6034 22.0782 23.1203 21.9328 23.4973 21.6421C23.8848 21.3405 24.0787 20.9421 24.0787 20.4467C24.0787 19.9513 23.8848 19.5582 23.4973 19.2675C23.1203 18.9767 22.6034 18.8313 21.9464 18.8313C21.3003 18.8313 20.7886 18.9767 20.4119 19.2675C20.035 19.5582 19.8463 19.9513 19.8463 20.4467C19.8463 20.9528 20.035 21.3513 20.4119 21.6421C20.7886 21.9328 21.3003 22.0782 21.9464 22.0782Z" fill="white" fill-opacity="0.12" fill-rule="evenodd"/>
<path d="M15.2974 12.499V23.8067H12.6804V14.599H10.4189V12.499H15.2974Z" fill="#0B2233"/>
<path d="M15.2974 12.499V23.8067H12.6804V14.599H10.4189V12.499H15.2974Z" fill="white" fill-opacity="0.12"/>
</svg>