<?xml version="1.0" encoding="utf-8"?>
<svg xmlns="http://www.w3.org/2000/svg" id="Layer_1" style="enable-background:new 0 0 902 218;" viewBox="0 0 902 218" x="0px" y="0px"> <style type="text/css"> .st0{fill:#fcfcfc;} </style> <g> <path class="st0" d="M469.8,5.7C469.5,3,467.3,1,464.6,1h-62.9c-2.7,0-4.9,2.1-5.2,4.7l-18.4,205.7c-0.3,3,2.1,5.7,5.2,5.7h30.1 c2.7,0,5-2.1,5.2-4.9l1.9-27.8c0.1-1.3,1.1-2.3,2.4-2.3h20.4c1.3,0,2.3,1,2.4,2.3l1.9,27.8c0.2,2.7,2.5,4.9,5.2,4.9H483 c3.1,0,5.5-2.6,5.2-5.7L469.8,5.7z M426.1,147.6c-1.4,0-2.5-1.2-2.4-2.6l7.5-101c0.1-0.8,0.7-1.3,1.4-1.3h1c0.8,0,1.4,0.6,1.4,1.3 l7.5,101c0.1,1.4-1,2.6-2.4,2.6H426.1z" fill="#ffffff"/> <path class="st0" d="M882.6,5.7C882.4,3,880.1,1,877.4,1h-62.9c-2.7,0-4.9,2.1-5.2,4.7L791,211.4c-0.3,3,2.1,5.7,5.2,5.7h30.1 c2.7,0,5-2.1,5.2-4.9l1.9-27.8c0.1-1.3,1.1-2.3,2.4-2.3h20.4c1.3,0,2.3,1,2.4,2.3l1.9,27.8c0.2,2.7,2.5,4.9,5.2,4.9h30.1 c3.1,0,5.5-2.6,5.2-5.7L882.6,5.7z M838.9,147.6c-1.4,0-2.5-1.2-2.4-2.6l7.5-101c0.1-0.8,0.7-1.3,1.4-1.3h1c0.8,0,1.4,0.6,1.4,1.3 l7.5,101c0.1,1.4-1,2.6-2.4,2.6H838.9z" fill="#ffffff"/> <path class="st0" d="M182.7,127.9v44.7c0,1.3,1.1,2.4,2.4,2.4h34.2c2.9,0,5.2,2.3,5.2,5.2v31.6c0,2.9-2.3,5.2-5.2,5.2h-72.2 c-2.9,0-5.2-2.3-5.2-5.2V6.2c0-2.9,2.3-5.2,5.2-5.2h72.2c2.9,0,5.2,2.3,5.2,5.2v31.4c0,2.9-2.3,5.2-5.2,5.2h-34.2 c-1.3,0-2.4,1.1-2.4,2.4v43.1c0,1.3,1.1,2.4,2.4,2.4h27.3c2.9,0,5.2,2.3,5.2,5.2v24.4c0,2.9-2.3,5.2-5.2,5.2h-27.3 C183.8,125.5,182.7,126.6,182.7,127.9z" fill="#ffffff"/> <g> <path class="st0" d="M607.5,1h-89.3c-2.9,0-5.2,2.3-5.2,5.2v31.4c0,2.9,2.3,5.2,5.2,5.2h21.9c1.3,0,2.4,1.1,2.4,2.4v166.7 c0,2.9,2.3,5.2,5.2,5.2H578c2.9,0,5.2-2.3,5.2-5.2V45.1c0-1.3,1.1-2.4,2.4-2.4h21.9c2.9,0,5.2-2.3,5.2-5.2V6.2 C612.7,3.3,610.4,1,607.5,1z" fill="#ffffff"/> </g> <path class="st0" d="M341,175h-30.9c-1.3,0-2.4-1.1-2.4-2.4V6.2c0-2.9-2.3-5.2-5.2-5.2h-30.3c-2.9,0-5.2,2.3-5.2,5.2v205.7 c0,2.9,2.3,5.2,5.2,5.2H341c2.9,0,5.2-2.3,5.2-5.2v-31.6C346.2,177.4,343.9,175,341,175z" fill="#ffffff"/> <path class="st0" d="M731.7,115v-1.3c0-0.6,0.4-1.1,0.9-1.3c10.9-4.2,18.6-14.8,18.6-27.1l0-45C751.3,18.6,733.7,1,712,1l-55,0 c-2.9,0-5.2,2.3-5.2,5.2v205.7c0,2.9,2.3,5.2,5.2,5.2h30.3c2.9,0,5.2-2.3,5.2-5.2v-74.9c0-1.3,1.1-2.4,2.4-2.4h7.1 c4.8,0,8.7,3.9,8.7,8.7v68.7c0,2.9,2.3,5.2,5.2,5.2h30.3c2.9,0,5.2-2.3,5.2-5.2v-68.4c0-12.4-7.7-22.9-18.6-27.1 C732.1,116.1,731.7,115.6,731.7,115z M710.6,91c0,4.8-3.9,8.7-8.7,8.7h-7.1c-1.3,0-2.4-1.1-2.4-2.4V45.1c0-1.3,1.1-2.4,2.4-2.4h7.1 c4.8,0,8.7,3.9,8.7,8.7V91z" fill="#ffffff"/> <path class="st0" d="M100.6,40.3C100.6,18.6,83,1,61.2,1h-55C3.3,1,1,3.3,1,6.2v205.7c0,2.9,2.3,5.2,5.2,5.2H73 c15.2,0,27.5-12.3,27.5-27.5v-52.3c0-12.4-7.7-22.9-18.6-27.1c-0.6-0.2-0.9-0.7-0.9-1.3v-1.3c0-0.6,0.4-1.1,0.9-1.3 c10.9-4.2,18.6-14.8,18.6-27.1L100.6,40.3z M59.9,166.4c0,4.8-3.9,8.7-8.7,8.7h-7.1c-1.3,0-2.4-1.1-2.4-2.4v-44.7 c0-1.3,1.1-2.4,2.4-2.4h7.1c4.8,0,8.7,3.9,8.7,8.7V166.4z M59.9,82c0,4.8-3.9,8.7-8.7,8.7h-7.1c-1.3,0-2.4-1.1-2.4-2.4V45.1 c0-1.3,1.1-2.4,2.4-2.4h7.1c4.8,0,8.7,3.9,8.7,8.7V82z" fill="#ffffff"/> </g> </svg>