<?xml version="1.0" encoding="utf-8"?>
<svg xmlns="http://www.w3.org/2000/svg" id="Layer_2" viewBox="0 0 1017.01 288.19">
  <defs>
    <style>.cls-1{fill:#fff;}</style>
  </defs>
  <g id="Layer_1-2">
    <path class="cls-1" d="M660.41,59.21c-.41,.55-1.19,.66-1.74,.24-.06-.05-.12-.1-.17-.15-9.89-10.76-23.51-18.58-38.67-15.47-5.61,1.15-9.29,5.2-9.3,10.98-.01,7.59,8.08,11.58,14.81,13.37,26.36,6.98,55.89,11.73,62.18,43.4,2.91,14.62,1.78,28.92-3.41,42.89-.17,.47-.63,.77-1.13,.76l-115.87-2.99c-.89-.03-1.08-.4-.57-1.13l20.27-28.76c.33-.47,.88-.54,1.66-.21,.41,.17,.97,.6,1.29,1.05,10.64,14.85,29.22,29.6,48.75,22.84,4.61-1.6,7.38-4.76,8.31-9.49,2.03-10.34-6.09-15.08-14.81-17.32-26.78-6.88-56.09-10.32-62.67-43.65-1.87-9.47-2.09-18.97-.67-28.52,5.19-34.92,33.54-49.31,66.27-46.76,18.67,1.46,34.9,10.35,46.84,24.73,1.67,2.01,1.16,2.97-.16,4.87-6.9,9.87-13.97,19.64-21.21,29.32Z"/>
    <path class="cls-1" d="M295.31,77.32c5.72-36.6,29.4-71.01,68.23-76.05,13.13-1.7,25.86-.47,38.21,3.7,.92,.31,1.55,1.17,1.55,2.15V57.28c0,.34-.28,.62-.62,.62-.18,0-.35-.08-.47-.22-8.95-10.65-18.84-15.48-33.15-12.04-24.41,5.86-27.18,40.12-25.09,59.76,1.73,16.34,7.06,35.31,25.06,40.41,.56,.16,.98,.47,1.25,.94,.08,.14,.04,.32-.1,.4-.05,.03-.11,.04-.16,.04l-66.42-1.74c-.4,0-.68-.2-.84-.57-9.03-21.49-11.03-44.63-7.45-67.56Z"/>
    <path class="cls-1" d="M95.64,116.32h-27.78c-.31,0-.56,.25-.56,.56v21.44c0,.66-.33,.98-1,.97l-43.79-1.1c-.4-.01-.71-.33-.71-.73V7.25c0-.9,.73-1.63,1.63-1.63h42.23c.91-.01,1.64,.72,1.64,1.62v63.33c0,.28,.22,.5,.5,.5h27.99c.28,0,.51-.23,.51-.51h0c0-20.57,0-41.14,.01-61.69,0-2.42,.8-3.18,3.17-3.21,13.85-.19,27.69-.16,41.5,.09,.85,.01,1.54,.71,1.54,1.57l.04,132.7c0,.68-.55,1.24-1.24,1.24-.01,0-.02,0-.03,0l-44.21-1.18c-.43-.01-.78-.37-.78-.8v-22.3c0-.44-.22-.66-.66-.66Z"/>
    <path class="cls-1" d="M286.59,145.09l-125.17-3.3c-.49-.01-.66-.26-.53-.73,12.83-44.66,25.65-89.3,38.48-133.92,.33-1.16,1.42-1.74,3.25-1.73,14.39,.06,28.79,.13,43.19,.2,3.18,.02,2.97,1.36,3.77,4.2,12.57,44.82,25.14,89.61,37.72,134.37,.11,.38-.12,.78-.5,.88-.07,.02-.14,.03-.21,.03Zm-74.57-25c-.03,.22,.12,.42,.34,.46,.02,0,.04,0,.06,0h22.6c.22,.01,.4-.16,.4-.39,0-.02,0-.04,0-.06l-11.15-72.44c-.03-.22-.24-.37-.46-.33-.17,.03-.3,.16-.33,.33l-11.46,72.43Z"/>
    <path class="cls-1" d="M466.19,72.47L507.21,6.56c.39-.62,1.06-.99,1.79-.99h47.24c.77,0,1.5,.39,1.96,1.05,.36,.51,.22,1.24-.42,2.17-14.7,21.53-29.38,42.98-44.05,64.35-.38,.57-.45,1.29-.17,1.91l34.24,76.02c.1,.24,0,.51-.24,.62-.06,.03-.13,.04-.2,.04l-46.21-1.22c-.35-.01-.59-.18-.72-.5l-14.54-35.03c-.13-.31-.48-.45-.79-.32-.11,.05-.2,.12-.27,.22l-18.98,27.85c-.2,.3-.3,.63-.3,.99v4.88c0,.69-.35,1.03-1.04,1.01l-41.15-1.12c-.3-.01-.54-.26-.54-.56-.02-46.52-.05-93.06-.08-139.61,0-2.85,1.92-2.63,4.31-2.67,12.47-.2,24.51-.15,36.12,.16,1.32,.03,2.37,1.12,2.37,2.44,.01,18.95,.02,37.85,.01,56.72,0,1.78-.48,4.82,.04,7.39,.11,.54,.31,.58,.6,.11Z"/>
    <path class="cls-1" d="M735.99,8.51c.59-2.04,1.79-3.06,3.62-3.06,13.89,.02,27.79,.08,41.7,.17,2.05,.02,3.96-.33,4.62,2.02,14.11,50.31,28.19,100.45,42.23,150.43,.16,.55-.05,.82-.63,.81l-133.53-3.43c-.14,0-.26-.12-.25-.26,0-.02,0-.04,0-.06,14.01-48.91,28.09-97.78,42.23-146.62Zm24.45,39.35l-11.35,71.33c-.11,.69,.19,1.05,.89,1.06l21.6,.37c.38,0,.69-.3,.7-.69,0-.04,0-.07,0-.11-3.6-23.95-7.28-47.86-11.05-71.74-.07-.42-.25-.58-.56-.48-.13,.04-.2,.13-.22,.26Z"/>
    <path class="cls-1" d="M873.58,95.82c.03,.17,.2,.29,.38,.25,.13-.03,.23-.13,.25-.26,5.71-29.53,11.48-59.03,17.32-88.5,.25-1.25,1.23-1.88,2.95-1.87,11.78,.03,23.55,.09,35.32,.19,2.44,.02,3.32,.44,3.81,2.95,5.78,29.17,11.5,58.39,17.15,87.64,.04,.14,.18,.22,.32,.19,.09-.02,.16-.09,.18-.18,7.17-29.68,14.29-59.38,21.37-89.09,.27-1.1,1.26-1.65,2.99-1.65,12.79,.01,25.57,.13,38.36,.35,.66,.01,1.19,0,1.58-.02,.75-.05,1.4,.52,1.45,1.27,.01,.15,0,.31-.05,.45l-43.29,154.81c-.06,.23-.28,.39-.51,.38l-48.18-1.23c-.43-.01-.68-.24-.75-.67l-11.4-72.49c-.03-.21-.23-.36-.45-.32-.17,.03-.3,.16-.32,.32l-11.35,72.12c-.05,.28-.29,.47-.56,.46l-49.07-1.29c-.37-.01-.62-.2-.75-.55-.21-.6-.44-1.37-.71-2.32-13.78-49.31-27.57-98.62-41.38-147.92-.26-.93-.29-1.55-.1-1.84,.61-.95,1.22-1.42,1.84-1.42,13.49-.01,26.93-.02,40.33-.01,.96,0,1.6,.67,1.92,2.02,7.01,29.41,14.13,58.82,21.35,88.23Z"/>
    <path class="cls-1" d="M401.38,134.04c1.07-1.38,1.62-1.2,1.67,.54l.32,12.62c.01,.52-.24,.77-.76,.76l-19.12-.48c-.23,0-.41-.17-.44-.4-.08-.69,.3-1.17,.97-1.34,6.94-1.79,12.73-5.69,17.36-11.7Z"/>
    <path class="cls-1" d="M0,145.96c0-.12,.09-.21,.21-.21h0l41.92-.07c2.01,0,3.64,1.06,3.65,2.37l.08,42.36c0,1.31-1.62,2.38-3.64,2.39,0,0,0,0,0,0l-41.92,.07c-.12,0-.21-.09-.21-.21H.08L0,145.96Z"/>
    <path class="cls-1" d="M74.67,147.82c0-.14,.12-.26,.26-.26l41.73,.22c2.22,.01,4.02,1.12,4.01,2.48l-.21,40.22c0,1.36-1.81,2.45-4.04,2.44l-41.73-.22c-.14,0-.26-.12-.26-.26h0s.24-44.62,.24-44.62Z"/>
    <path class="cls-1" d="M139.48,148.79l125.64,3.22c.41,.01,.67,.22,.78,.61l10.53,37.69c.3,1.05-.31,2.14-1.35,2.43-.18,.05-.36,.08-.55,.08h-42.04c-.41,0-.73-.16-.96-.49-.6-.84-1.08-2.01-1.45-3.52-1.61-6.75-3.18-13.54-4.69-20.37-.11-.51-.56-.87-1.08-.87h-45.12c-.55,0-1.02,.38-1.14,.91l-5.26,22.96c-.18,.81-.9,1.38-1.72,1.38h-42.57c-.93,0-1.68-.75-1.68-1.68,0-.16,.02-.31,.06-.46l11.86-41.35c.11-.37,.35-.55,.74-.54Z"/>
    <path class="cls-1" d="M381.3,194.01c0,.79-.51,1.49-1.27,1.73-40.11,12.42-80.91-3.51-98.5-42.5-.12-.27,0-.59,.27-.71,.07-.03,.15-.05,.23-.05l98.61,2.5c.44,0,.66,.23,.66,.68v38.35Z"/>
    <path class="cls-1" d="M401.13,156.16c0-.12,.1-.22,.22-.22h0l39.44,.21c1.72,0,3.11,.86,3.11,1.9l-.18,33c0,1.04-1.4,1.89-3.12,1.88,0,0,0,0-.01,0l-39.44-.21c-.12,0-.21-.1-.21-.22l.19-36.34Z"/>
    <path class="cls-1" d="M525.37,158.78c.54,.01,1.02,.34,1.24,.83,4.45,9.92,8.93,19.91,13.45,29.96,.89,1.98,.38,3.23-1.92,3.23-14.43,.03-28.88,.03-43.36,.01-.77,0-1.46-.47-1.76-1.18l-13.9-33.53c-.09-.21,0-.45,.22-.54,.05-.02,.11-.03,.17-.03l45.86,1.25Z"/>
    <path class="cls-1" d="M543.45,160c.33-.51,.8-.76,1.41-.75l116.62,3.1c.27,0,.48,.23,.48,.51,0,.07-.02,.14-.05,.2-23.36,49.49-89.65,43.81-120.38,5.55-.61-.76-1.09-1.6-1.43-2.51-.13-.37-.09-.73,.12-1.06l3.23-5.04Z"/>
    <path class="cls-1" d="M671.7,163.31c.14-.47,.58-.79,1.07-.78l132.88,3.44c.64,.01,1.05,.33,1.22,.94l6.53,23.37c.29,1.07-.33,2.18-1.4,2.47-.17,.05-.35,.07-.53,.07h-41.43c-1.29,0-2.12-.75-2.49-2.25-1.81-7.37-3.57-14.79-5.27-22.24-.11-.45-.5-.76-.95-.76h-45.03c-.65,0-1.21,.45-1.35,1.08-1.68,7.55-3.41,14.93-5.19,22.16-.39,1.57-1.28,2.01-2.89,2.01h-40.42c-2.64,0-2.86-.98-2.21-3.32,2.41-8.75,4.89-17.48,7.46-26.19Z"/>
    <path class="cls-1" d="M875.11,191.27c-.14,.89-.91,1.55-1.81,1.55h-36.04c-.4,0-.69-.17-.88-.52-.55-.99-1.09-2.4-1.61-4.22-1.99-6.95-3.95-13.89-5.9-20.84-.07-.25,.07-.5,.31-.56,.04-.01,.09-.02,.14-.02l48.76,1.25c.34,0,.6,.28,.6,.62,0,.03,0,.06,0,.09l-3.56,22.65Z"/>
    <path class="cls-1" d="M902.77,169.48c-.1-.62,.16-.92,.78-.9l46.92,1.26c.77,.03,1.06,.41,.85,1.15l-5.58,20.12c-.28,1.01-1.2,1.71-2.24,1.71h-35.19c-1.01,0-1.88-.74-2.04-1.74l-3.5-21.6Z"/>
    <path class="cls-1" d="M39.56,243.12v33.29c-.01,.66,.52,1.19,1.18,1.19,.01,0,.02,0,.03,0l5.31-.13c.48-.01,.72-.26,.72-.73v-9.13c0-.6-.49-1.08-1.08-1.08-.04,0-.09,0-.13,0l-2.58,.3c-.47,.05-.71-.16-.71-.63v-8.13c0-.99,.5-1.48,1.49-1.49l18.51-.03c.48,0,.87,.39,.87,.87,0,0,0,0,0,.01-.13,5.99-.17,11.98-.13,17.97,.07,9.77-4.05,12.86-13.37,12.55-5.4-.18-16.58,1.19-21.1-1.17-3.48-1.81-5.3-4.9-5.46-9.26-.24-6.75-.22-17.89,.05-33.44,.11-6.41,2.1-11.64,8.9-12.27,6.54-.6,13.64-.61,21.3-.04,10.9,.82,10.44,10.73,9.84,18.7-.03,.36-.22,.54-.58,.55l-15.33,.13c-.26,0-.47-.2-.48-.46,0,0,0,0,0-.01l-.02-7.71c0-.52-.42-.94-.94-.94-.01,0-.02,0-.03,0l-5.33,.13c-.62,.01-.93,.33-.93,.95Z"/>
    <path class="cls-1" d="M233.31,231.85l14.82,55.39c.06,.23-.08,.46-.31,.53-.04,0-.08,.01-.11,.01l-15.39,.12c-.2,0-.38-.14-.42-.34l-1.61-7.65c-.04-.2-.22-.34-.42-.34h-13.2c-.2,0-.38,.14-.42,.34l-1.63,7.68c-.04,.2-.22,.34-.42,.34l-15.07-.16c-.24,0-.43-.2-.42-.44,0-.04,0-.07,.01-.1l14.79-55.41c.05-.19,.22-.32,.42-.32l18.96,.03c.2,0,.37,.13,.42,.32Zm-14.19,35.88c-.06,.26,.1,.53,.37,.59,.04,0,.07,.01,.11,.01l7.45-.02c.27,0,.49-.23,.48-.5,0-.03,0-.06-.01-.09l-3.75-16.96c-.05-.27-.31-.44-.58-.38-.19,.04-.34,.19-.38,.38l-3.69,16.97Z"/>
    <path class="cls-1" d="M398.84,255.82l.23,31.66c0,.19-.15,.34-.34,.34h-13.84c-.19,0-.34-.15-.34-.34v-55.7c0-.19,.15-.34,.34-.34h0l17.02,.13c.15,0,.28,.09,.33,.23l9.19,28.31c.06,.18,.25,.28,.43,.22,.11-.03,.19-.12,.22-.23l8.71-28.4c.04-.14,.17-.24,.32-.24l17.1,.16c.19,0,.34,.15,.34,.34v55.52c0,.19-.15,.34-.34,.34h-13.85c-.19,0-.34-.15-.34-.34l.03-32.28c0-.19-.14-.34-.33-.35-.16,0-.3,.1-.34,.26l-6.11,20.47c-.04,.14-.17,.24-.32,.24h-10.93c-.15-.01-.28-.11-.32-.25l-6.2-19.86c-.06-.18-.26-.27-.43-.21-.13,.05-.22,.17-.23,.32Z"/>
    <rect class="cls-1" height="56.26" rx=".44" ry=".44" width="16.26" x="578.31" y="231.55"/>
    <path class="cls-1" d="M761.05,259.19v-27.32c0-.19,.15-.34,.34-.34h14.31c.19,0,.34,.14,.34,.33l.02,55.74c0,.19-.15,.34-.34,.34h0l-13.52-.18c-.13,0-.25-.08-.31-.2l-11.95-27.13c-.08-.17-.28-.25-.45-.17-.12,.05-.2,.18-.2,.31l.04,26.91c0,.19-.15,.34-.34,.34h-14.1c-.19,0-.34-.15-.34-.34h0v-55.72c0-.19,.15-.34,.34-.34,0,0,0,0,.01,0l13.38,.22c.13,0,.25,.08,.31,.2l11.81,27.48c.08,.17,.28,.25,.45,.17,.12-.05,.2-.17,.2-.3Z"/>
    <path class="cls-1" d="M932.53,277.5l5.47,.1c.41,0,.66-.19,.77-.58,.63-2.32,.73-4.64,.32-6.95-.05-.27-.03-.54,.06-.81,.31-.89,.21-1.65-.32-2.28-.19-.24-.45-.37-.76-.38l-2.78-.08c-.41-.01-.62-.23-.61-.64l.08-8.39c0-.51,.42-.92,.93-.92h18.77c.6,0,1.09,.49,1.09,1.09h0c.01,6.13,0,12.43-.04,18.92-.05,8.65-5.39,11.64-13.21,11.37-4.72-.15-9.44-.18-14.17-.08-8.6,.19-12.6-3.28-12.58-11.89,.02-9.86,.01-19.71-.02-29.55-.03-8.55,1.15-14.46,10.81-14.74,5.78-.17,11.59-.19,17.43-.04,12.89,.32,11.84,9.27,11.77,18.91,0,.32-.16,.48-.49,.48l-15.08,.09c-.36,0-.64-.28-.65-.64l-.05-6.6c-.01-1.01-.83-1.82-1.84-1.82h-4.16c-.81,0-1.46,.65-1.46,1.46v33.22c-.01,.49,.23,.74,.72,.75Z"/>
  </g>
</svg>