<?xml version="1.0" encoding="utf-8"?>
<svg xmlns="http://www.w3.org/2000/svg" id="Layer_1" style="enable-background:new 0 0 1453.5 549;" version="1.1" viewBox="0 0 1453.5 549" x="0px" y="0px">
<style type="text/css">
	.st0{fill:#FFFFFF;}
</style>
<g>
	<g>
		<g>
			<path class="st0" d="M363.3,394h70.6v83.8c-10.2,7.4-21,12.9-32.5,16.2c-11.5,3.4-23.5,5-36,5c-16.3,0-31.2-2.6-44.6-7.7&#xA;				s-24.9-12.2-34.4-21.2s-16.9-19.7-22.1-32.1s-7.8-25.9-7.8-40.4c0-14.8,2.5-28.4,7.4-40.8s11.9-23.1,21-32.1s20.2-16,33.1-21&#xA;				s27.4-7.5,43.4-7.5c8.3,0,16,0.7,23.3,2c7.3,1.4,14,3.2,20.1,5.6s11.7,5.2,16.8,8.4c5.1,3.3,9.6,6.8,13.6,10.6l-13.3,20.3&#xA;				c-2.1,3.2-4.8,5.1-8.1,5.9c-3.3,0.7-6.9-0.1-10.7-2.5c-3.6-2.2-7.1-4.1-10.3-5.7c-3.2-1.6-6.5-2.9-9.9-3.9s-6.9-1.7-10.6-2.2&#xA;				s-7.9-0.7-12.5-0.7c-8.6,0-16.4,1.5-23.3,4.6c-6.9,3-12.8,7.3-17.6,12.9c-4.9,5.5-8.6,12.2-11.2,20s-3.9,16.4-3.9,25.9&#xA;				c0,10.5,1.5,19.9,4.4,28.1s7,15.1,12.3,20.7s11.7,9.9,19.1,12.9c7.4,2.9,15.6,4.4,24.6,4.4c5.5,0,10.6-0.5,15.1-1.6&#xA;				s8.9-2.5,13.1-4.4v-30.1h-19.6c-2.9,0-5.2-0.8-6.8-2.3c-1.6-1.5-2.5-3.5-2.5-5.9V394H363.3z"/>
		</g>
		<g>
			<path class="st0" d="M639.8,496.8h-35.7c-4,0-7.2-0.9-9.7-2.8s-4.3-4.2-5.6-7.2l-11.7-34.6h-75.5L490,486.9&#xA;				c-1,2.5-2.8,4.8-5.4,6.9c-2.6,2-5.8,3.1-9.6,3.1h-36l76.8-198.5H563L639.8,496.8z M566.7,421l-18.4-54.3&#xA;				c-1.4-3.4-2.8-7.5-4.4-12.2c-1.5-4.7-3.1-9.7-4.6-15.2c-1.4,5.5-2.8,10.7-4.4,15.4c-1.5,4.7-3,8.8-4.4,12.3l-18.1,54H566.7z"/>
		</g>
		<g>
			<path class="st0" d="M878.6,298.4v198.5H838V382.7c0-2.6,0.1-5.5,0.2-8.6s0.4-6.2,0.7-9.4l-52.7,102c-1.6,3.2-3.8,5.6-6.6,7.2&#xA;				s-5.9,2.5-9.5,2.5h-6.3c-3.5,0-6.7-0.8-9.5-2.5c-2.8-1.6-5-4-6.6-7.2L695,364.4c0.3,3.3,0.5,6.5,0.7,9.6s0.3,6,0.3,8.6v114.1&#xA;				h-40.6V298.4h35.1c2,0,3.7,0,5.2,0.1s2.8,0.4,4,0.8s2.2,1.2,3.2,2.1c1,1,1.9,2.3,2.8,4L757,406.1c1.8,3.5,3.6,7,5.2,10.8&#xA;				c1.7,3.7,3.3,7.5,4.8,11.4c1.5-4,3.2-7.9,4.8-11.7c1.7-3.8,3.5-7.4,5.4-10.9l50.9-100.3c0.9-1.7,1.8-3.1,2.8-4c1-1,2-1.7,3.2-2.1&#xA;				c1.2-0.5,2.5-0.7,4-0.8c1.5-0.1,3.2-0.1,5.2-0.1L878.6,298.4L878.6,298.4z"/>
		</g>
		<g>
			<path class="st0" d="M963.3,333.8v46.3h62.4v34.1h-62.4v47.3h81.5v35.4H917V298.4h127.8v35.4H963.3z"/>
		</g>
		<g>
			<path class="st0" d="M1182.8,338.7c-1.4,2.2-2.8,3.8-4.3,4.9s-3.4,1.6-5.8,1.6c-2.1,0-4.3-0.7-6.7-2c-2.4-1.3-5.1-2.8-8.2-4.4&#xA;				c-3-1.6-6.5-3.1-10.4-4.4s-8.4-2-13.4-2c-8.6,0-15.1,1.8-19.3,5.5c-4.2,3.7-6.3,8.6-6.3,14.9c0,4,1.3,7.3,3.8,9.9s5.9,4.9,10,6.8&#xA;				s8.9,3.7,14.2,5.2c5.3,1.6,10.7,3.4,16.3,5.3c5.5,2,11,4.2,16.3,6.9c5.3,2.6,10,6,14.2,10.1c4.1,4.1,7.5,9.1,10,14.9&#xA;				c2.5,5.9,3.8,12.9,3.8,21.2c0,9.2-1.6,17.8-4.8,25.7c-3.2,8-7.8,15-13.8,20.9s-13.5,10.6-22.3,14c-8.9,3.4-18.9,5.1-30.2,5.1&#xA;				c-6.2,0-12.5-0.6-18.9-1.9s-12.6-3.1-18.6-5.4s-11.6-5.1-16.9-8.2c-5.3-3.2-9.9-6.7-13.8-10.6l13.6-21.5c1.1-1.5,2.5-2.8,4.3-3.9&#xA;				c1.8-1,3.7-1.6,5.8-1.6c2.7,0,5.5,0.9,8.2,2.6c2.8,1.7,5.9,3.6,9.4,5.7s7.5,4,12.1,5.7c4.5,1.7,9.9,2.6,16.1,2.6&#xA;				c8.4,0,14.8-1.8,19.5-5.5c4.6-3.7,6.9-9.5,6.9-17.5c0-4.6-1.3-8.4-3.8-11.3s-5.9-5.3-10-7.2c-4.1-1.9-8.8-3.6-14.1-5&#xA;				c-5.3-1.5-10.7-3.1-16.2-4.8c-5.5-1.8-10.9-3.9-16.2-6.5c-5.3-2.6-10-6-14.1-10.2s-7.5-9.5-10-15.8s-3.8-14.1-3.8-23.4&#xA;				c0-7.4,1.5-14.7,4.5-21.8c3-7.1,7.4-13.4,13.2-18.9c5.8-5.5,12.9-10,21.4-13.3c8.4-3.3,18.1-5,29-5c6.1,0,12,0.5,17.8,1.4&#xA;				s11.2,2.4,16.4,4.2c5.2,1.9,10,4.1,14.5,6.7s8.5,5.5,12.1,8.8L1182.8,338.7z"/>
		</g>
	</g>
	<g>
		<g>
			<path class="st0" d="M124.1,52.1c13.7,0,25.4,1.3,35,3.8s17.5,6.1,23.6,10.8S193.2,77,196,83.6s4.2,14,4.2,22.2&#xA;				c0,4.5-0.6,8.7-1.9,12.9c-1.3,4.1-3.3,8-6,11.6c-2.7,3.6-6.2,6.9-10.5,9.9s-9.4,5.6-15.4,7.8c13.1,3.2,22.7,8.3,29,15.4&#xA;				c6.3,7.1,9.4,16.3,9.4,27.5c0,8.4-1.6,16.3-4.9,23.6c-3.3,7.3-8.1,13.6-14.4,19c-6.3,5.4-14.1,9.6-23.4,12.7&#xA;				c-9.3,3-19.8,4.6-31.7,4.6H51.1V52.1H124.1z M97.1,86.6v49h24c5.1,0,9.7-0.4,13.8-1.1c4.1-0.7,7.6-2,10.4-3.8&#xA;				c2.9-1.8,5-4.3,6.5-7.5s2.2-7.2,2.2-12c0-4.7-0.6-8.6-1.8-11.8c-1.2-3.1-3-5.7-5.4-7.6c-2.5-1.9-5.6-3.3-9.3-4.1&#xA;				c-3.8-0.8-8.2-1.2-13.4-1.2L97.1,86.6L97.1,86.6z M129.5,215.9c6.1,0,11.1-0.8,14.9-2.3c3.9-1.5,6.9-3.5,9.1-6&#xA;				c2.2-2.5,3.7-5.2,4.5-8.3s1.2-6.2,1.2-9.4c0-3.6-0.5-6.9-1.4-9.8c-1-2.9-2.6-5.4-4.9-7.4c-2.3-2-5.4-3.5-9.2-4.6&#xA;				s-8.6-1.6-14.4-1.6H97.1v49.4H129.5z"/>
		</g>
		<g>
			<path class="st0" d="M900.3,52.1v198.5h-40.6V136.5c0-2.6,0.1-5.5,0.2-8.6c0.1-3.1,0.4-6.2,0.7-9.4l-52.7,102&#xA;				c-1.6,3.2-3.8,5.6-6.6,7.2c-2.8,1.6-5.9,2.5-9.5,2.5h-6.3c-3.5,0-6.7-0.8-9.5-2.5c-2.8-1.6-5-4-6.6-7.2l-52.7-102.3&#xA;				c0.3,3.3,0.5,6.5,0.7,9.6s0.3,6,0.3,8.6v114.1h-40.6V52.1h35.1c2,0,3.7,0,5.2,0.1s2.8,0.4,4,0.8c1.2,0.5,2.2,1.2,3.2,2.1&#xA;				c1,1,1.9,2.3,2.8,4l51.1,100.7c1.8,3.5,3.6,7,5.2,10.8c1.7,3.7,3.3,7.5,4.8,11.4c1.5-4,3.2-7.9,4.8-11.7&#xA;				c1.7-3.8,3.5-7.4,5.4-10.9l50.9-100.3c0.9-1.7,1.8-3.1,2.8-4c1-1,2-1.7,3.2-2.1c1.2-0.5,2.5-0.7,4-0.8s3.2-0.1,5.2-0.1&#xA;				C864.8,52.1,900.3,52.1,900.3,52.1z"/>
		</g>
		<g>
			<path class="st0" d="M985.1,250.6h-46.3V52.1h46.3V250.6z"/>
		</g>
		<g>
			<path class="st0" d="M1196.7,52.1v198.5h-24c-3.5,0-6.5-0.6-8.9-1.7c-2.4-1.1-4.8-3.1-7.2-5.9L1063,124.6c0.4,3.5,0.6,7,0.7,10.3&#xA;				s0.2,6.4,0.2,9.3v106.4h-40.6V52.1h24.2c2,0,3.7,0.1,5,0.3c1.4,0.2,2.6,0.5,3.7,1s2.1,1.2,3.1,2.1c1,0.9,2.1,2.1,3.4,3.7&#xA;				l94.4,119.2c-0.5-3.8-0.8-7.5-1-11.1s-0.3-7-0.3-10.1v-105L1196.7,52.1L1196.7,52.1z"/>
		</g>
		<g>
			<path class="st0" d="M1330.5,147.8h70.6v83.8c-10.2,7.4-21,12.9-32.5,16.2c-11.5,3.4-23.5,5-36,5c-16.3,0-31.2-2.6-44.6-7.7&#xA;				c-13.4-5.1-24.9-12.2-34.4-21.2s-16.9-19.7-22.1-32.1s-7.8-25.9-7.8-40.4c0-14.8,2.5-28.4,7.4-40.8s11.9-23.1,21-32.1&#xA;				s20.2-16,33.1-21s27.4-7.5,43.4-7.5c8.3,0,16,0.7,23.3,2c7.3,1.4,14,3.2,20.1,5.6c6.1,2.4,11.7,5.2,16.8,8.4&#xA;				c5.1,3.3,9.6,6.8,13.6,10.6L1389.1,97c-2.1,3.2-4.8,5.1-8.1,5.9c-3.3,0.7-6.9-0.1-10.7-2.5c-3.6-2.2-7.1-4.1-10.3-5.7&#xA;				c-3.2-1.6-6.5-2.9-9.9-3.9s-6.9-1.7-10.6-2.2s-7.9-0.7-12.5-0.7c-8.6,0-16.4,1.5-23.3,4.6c-6.9,3-12.8,7.3-17.6,12.9&#xA;				c-4.9,5.5-8.6,12.2-11.2,20s-3.9,16.4-3.9,25.9c0,10.5,1.5,19.9,4.4,28.1c2.9,8.2,7,15.1,12.3,20.7c5.3,5.6,11.7,9.9,19.1,12.9&#xA;				c7.4,2.9,15.6,4.4,24.6,4.4c5.5,0,10.6-0.5,15.1-1.6s8.9-2.5,13.1-4.4v-30.1H1340c-2.9,0-5.2-0.8-6.8-2.3&#xA;				c-1.6-1.5-2.5-3.5-2.5-5.9v-25.3H1330.5z"/>
		</g>
		<g>
			<path class="st0" d="M609.8,161.2c-5.6,30.3-32,52.2-62.8,52.2c-0.5,0-1,0-1.4,0c-4.5-0.1-9.3,0-21.3-5.1&#xA;				c-11.9-5.1-14.5-8.1-23.2-14.9c-5-3.9-12.2-11.4-19.3-17.7c-7,7.6-22.9,25.2-24.3,26.6c6.1,6.6,21,19.6,27,24.2l-0.9-0.8&#xA;				c13.2,11,29.3,18.7,47,21.6c5.5,0.9,10.3,1.3,14.9,1.3c5,0,9.1-0.2,13.5-0.7c39.5-4.8,72.6-32.9,83.4-71.4L609.8,161.2z"/>
			<path class="st0" d="M498.8,107.6c11.7-13.5,28.9-22,48.1-22c15,0,29.1,5.2,40.3,14.3L572,110.8l70.1,32.2l-7.2-76.8L616.8,79&#xA;				c-18.3-18.3-43.2-28.7-69.8-28.7c-30.7,0-58.1,14-76.3,36l0,0c0,0,0,0,0,0.1c-0.7,0.9-55.6,68-78.2,90.2&#xA;				c-1.2,1.2-2.5,2.3-3.8,3.4c-0.2,0.2-0.5,0.4-0.7,0.6c-1.6,1.4-3.2,2.8-4.8,4.1c-0.3,0.3-0.7,0.6-1,0.8c-1.5,1.2-3,2.4-4.4,3.5&#xA;				c-0.4,0.3-0.8,0.6-1.1,0.9c-1,0.8-2,1.5-2.9,2.2c-0.4,0.3-0.8,0.6-1.1,0.9c-0.4,0.3-0.8,0.6-1.2,0.8c-1.3,0.9-2.6,1.8-3.8,2.7&#xA;				c-0.4,0.3-0.7,0.5-1.1,0.7c-1.2,0.8-2.4,1.6-3.6,2.4c-0.3,0.2-0.6,0.4-1,0.6c-1.1,0.7-2.1,1.3-3.1,1.9c-0.4,0.2-0.8,0.5-1.2,0.7&#xA;				c-1,0.6-1.9,1.1-2.8,1.6c-6.6,3.6-12.1,5.9-16.7,7.3c-4.6,1.4-8.2,2.1-15.5,2.1c-35.4-1.7-63.4-32.3-60.7-68.6&#xA;				c2.3-31.4,28-56.8,59.4-58.9c20.1-1.3,37.8,7.3,51,20.2c2.2,2.1,20.1,21.4,23.9,26.1c6.8-7.3,23.1-26.5,23.7-27.2&#xA;				c-3.2-4.2-16.7-18.4-17.6-19.4c-19.2-21.5-46.9-35.5-78-35.1c-51.7,0.7-94.9,42-97.7,93.6c-3,55,39,101,92.4,104.6&#xA;				c1.9,0.1,10.4,0.4,14.9-0.1c4.6-0.5,8.7-1.5,12.2-2.3c5.6-1.3,11.3-4.3,11.4-4.3c0.3-0.1,0.6-0.3,0.9-0.4c1.1-0.5,2.3-1,3.5-1.6&#xA;				c0.5-0.2,1.1-0.5,1.6-0.8c1.2-0.6,2.5-1.2,3.8-1.9c0.5-0.2,0.9-0.5,1.4-0.7c3.5-1.9,7.3-4,11.1-6.4c0.5-0.3,1.1-0.7,1.6-1&#xA;				c1.4-0.9,2.8-1.8,4.3-2.8c0.6-0.4,1.3-0.9,2-1.3c1.4-1,2.9-2,4.4-3.1c0.6-0.5,1.2-0.9,1.9-1.4c1.5-1.1,3-2.3,4.5-3.4&#xA;				c0.4-0.3,0.8-0.6,1.1-0.9c0.3-0.2,0.5-0.4,0.8-0.6c2.2-1.7,4.4-3.6,6.7-5.5c0.5-0.4,1.1-0.9,1.6-1.4c1.7-1.5,3.5-3,5.3-4.6&#xA;				c0.8-0.7,1.5-1.4,2.3-2c0.3-0.3,0.7-0.6,1-0.9c1.3-1.2,2.6-2.4,4-3.7c0.8-0.7,20.8-20.3,34.3-36.7S483.8,125.3,498.8,107.6z"/>
		</g>
	</g>
</g>
</svg>