<?xml version="1.0" encoding="utf-8"?>
<svg xmlns="http://www.w3.org/2000/svg" fill="none" viewBox="0 0 48 49">
  <path d="m12.8145 7.754 3.0543-.503.208 1.0084-3.052.503-.2103-1.0084Z" fill="#EDEDED"/>
  <path d="m15.1041 21.3526 3.0543-.503-.6602 1.6928-3.0519.5031.6578-1.6929Z" fill="#303336"/>
  <path d="m13.7134 12.17 3.0519-.503.2032 1.0205-3.052.503-.2031-1.0205Z" fill="#EDEDED"/>
  <path d="m13.0244 8.7623 3.052-.503.6698.5707-3.0543.503-.6675-.5707Z" fill="#DCDCDC"/>
  <path d="m14.1052 11.3575 3.0519-.5006-.3918.8102-3.0519.503.3918-.8126ZM13.6923 5.9357l3.052-.5006-.8755 1.8161-3.0543.503.8778-1.8185Z" fill="#A8A8A8"/>
  <path d="m13.9165 13.1905 3.052-.503 1.4969 1.2841-3.0544.5006-1.4945-1.2817Z" fill="#DCDCDC"/>
  <path d="m14.4725 5.7638 3.052-.503-.7811.174-3.052.5007.7811-.1717Z" fill="#7C7C7C"/>
  <path d="m17.2201 20.627 3.0519-.503-2.1136.7255-3.0544.503 2.1161-.7255ZM16.1826 14.2887l3.0544-.5031-.7715.1863-3.0544.5006.7715-.1838Z" fill="#222426"/>
  <path d="m14.4727 5.7638 3.0519-.503.6675.573-3.0544.5031-.665-.5731Z" fill="#3B4043"/>
  <path d="m13.6914 9.3336 3.0544-.503 2.2224.561-3.0519.503-2.2249-.561Z" fill="#A9A9A9"/>
  <path d="m15.9241 9.8917 3.0519-.503-1.8186 1.4679-3.0519.5006 1.8186-1.4655Z" fill="#818181"/>
  <path d="m16.5749 13.4781 3.0519-.503-.3893.8101-3.0544.5031.3918-.8102Z" fill="#2D3133"/>
  <path d="m19.2611 25.6228 5.7291-1.1487 1.318.2153-8.8995 1.7533 1.8524-.8199Z" fill="#646BCC"/>
  <path d="m15.1377 6.3375 3.0544-.503 1.301 2.4594-3.0543.503-1.3011-2.4594Z" fill="#42464A"/>
  <path d="m14.4734 5.7642.6651.5731 1.3011 2.4595-.5224 1.0979-2.2249-.561-.6675-.5708-.2103-1.0084.8778-1.8186.7811-.1717Z" fill="#ED0049"/>
  <path d="m16.4389 8.7965 3.0543-.503-.5247 1.0979-3.052.503.5224-1.098Z" fill="#2E3134"/>
  <path d="m15.9233 9.8917 3.052-.503.873.7472-3.0544.5031-.8706-.7473Z" fill="#3B4043"/>
  <path d="m16.8185 10.6949 3.0543-.5006-.2466 2.7811-3.052.503.2443-2.7835Z" fill="#393D41"/>
  <path d="m16.7944 10.6392 3.0544-.503.0242.0581-3.0544.5006-.0242-.0557Z" fill="#42474B"/>
  <path d="m15.9237 9.892.8707.7474.0241.0556-.2442 2.7835-.3918.8101-.7714.1838-1.4946-1.2817-.2031-1.0205.3918-.8126 1.8185-1.4655Z" fill="#ED0049"/>
  <path d="m16.6851 6.0128 3.052-.503-.2443 2.7835-3.0543.503.2466-2.7835Z" fill="#D4D4D4"/>
  <path d="m17.3095 9.5753 3.052-.503-.5127 1.064-3.0544.5031.5151-1.0641Z" fill="#A8A8A8"/>
  <path d="m16.4385 8.8136 3.0519-.503.8706.7617-3.0519.503-.8706-.7617Z" fill="#DDD"/>
  <path d="m16.8184 10.6949 3.0543-.5006 1.2769 2.4135-3.0519.5031-1.2793-2.416Z" fill="#F3F3F3"/>
  <path d="m18.0981 13.1109 3.052-.503.6675.5732-3.0544.503-.6651-.5732Z" fill="#DCDCDC"/>
  <path d="m17.3193 9.5557 3.052-.503.0556.0121-3.0519.503-.0557-.012Z" fill="#2E3134"/>
  <path d="m17.0773 5.2027 3.052-.503-.3918.8102-3.052.503.3918-.8102Z" fill="#A8A8A8"/>
  <path d="m9.6045 18.3735 3.0544-.503 10.2683-.5272-3.052.503-10.2707.5272Z" fill="#26292B"/>
  <path d="m17.8481 5.0167 3.052-.503-.7715.1862-3.0519.503.7714-.1862Z" fill="#7C7C7C"/>
  <path d="m19.5467 13.5123 3.052-.503-.7811.1717-3.0544.503.7835-.1717Z" fill="#222426"/>
  <path d="m19.1549 8.1314 3.0544-.503L20.427 9.065l-3.052.503 1.7799-1.4365Z" fill="#232628"/>
  <path d="m17.375 9.568 3.052-.503 2.1692.5465-3.0519.503-2.1693-.5465Z" fill="#2E3134"/>
  <path d="m17.8491 5.0167 3.052-.503 1.4969 1.2865-3.0519.5006-1.497-1.2841Z" fill="#3B4043"/>
  <path d="m17.8483 5.0166 1.497 1.2841.2007 1.0206-.3917.8101-1.7799 1.4365-.0557-.012-.0096.0193-.8731-.7473.0025-.0145.2466-2.8004.3918-.8102.7714-.1862Z" fill="#ED0049"/>
  <path d="m19.3457 6.3009 3.052-.5006.2031 1.0181-3.0544.503-.2007-1.0205Z" fill="#404548"/>
  <path d="m19.5461 7.3214 3.0543-.503-.3917.8101-3.0544.503.3918-.8101Z" fill="#2D3133"/>
  <path d="m19.5444 10.1143 3.052-.503.6699.5732-3.0544.503-.6675-.5732Z" fill="#3B4043"/>
  <path d="m20.4242 11.6935 3.052-.5006-.8779 1.8161-3.0519.5031.8778-1.8186Z" fill="#2D3133"/>
  <path d="m20.2114 10.6876 3.0544-.503.2104 1.0084-3.052.5006-.2128-1.006Z" fill="#404549"/>
  <path d="m23.7181 9.8677-3.8428 7.9805-10.2683.5248-3.9685.2032-3.2671-1.9976-2.329-5.1728 2.2298-4.0556c3.4751-2.9431 7.3639-4.919 11.9273-5.671l.9939-.104 2.4522.1886 5.1463 4.4135.9262 3.6904Zm-4.1717 3.6444.8779-1.8161-.2128-1.0085-.6675-.5731-2.1765-.5442 1.7799-1.4365.3918-.8125-.2007-1.0181-1.497-1.2866-.7715.1862-.3917.8102-.2418 2.7835-1.3011-2.4595-.6675-.5731-.7811.174-.8779 1.8163.2104 1.0084.6675.5708 2.2249.561.5223-1.081.8707.7618-.5152 1.0665-.8706-.7497-1.8185 1.4679-.3918.8102.2031 1.0205 1.4945 1.2842.7715-.1863.3918-.8101.2418-2.7811 1.2769 2.4183.6675.5708.7811-.1717" fill="#EFE4EF"/>
  <path d="m19.5441 10.1143.6674.5731.2128 1.0061-.8778 1.8186-.7836.1717-.665-.5732-1.2793-2.4159-.0266-.0508.5175-1.0689.0097-.0193.0556.012 2.1693.5466Z" fill="#ED0049"/>
  <path d="m17.363 9.5654-.0437-.0097-.0097.0194.0534-.0097Z" fill="#2D3133"/>
  <path d="m20.2257 23.1438 5.7314-1.1487-.9673 2.4788-5.7291 1.1487.965-2.4788Z" fill="#646BCC"/>
  <path d="m15.1934 1.5753 3.0543-.503 2.4498.1886-3.0519.503-2.4522-.1886Z" fill="#C8C4D5"/>
  <path d="m20.9834 18.8399 3.0544-.503.7061 2.8271-3.0519.503-.7086-2.8271Z" fill="#414549"/>
  <path d="m21.6914 21.6671 3.052-.503 1.035.8875-3.0544.503-1.0326-.8875Z" fill="#3B4043"/>
  <path d="m23.8604 28.2471 3.0519-.503 1.2019-.1572-3.0519.503-1.2019.1572ZM25.063 28.0901l3.0519-.503 1.0012-.133-3.0519.503-1.0012.133Z" fill="#878787"/>
  <path d="m24.5234 24.0973 3.0544-.5006 1.0738.919-3.052.503-1.0762-.9214Z" fill="#3B4043"/>
  <path d="m17.6455 1.7638 3.052-.503 5.1462 4.4134-3.0544.503-5.1438-4.4134Z" fill="#C8C4D5"/>
  <path d="m23.7158 9.8678 3.0544-.503-3.8428 7.9781-3.0519.503 3.8403-7.9781Z" fill="#A8A8A8"/>
  <path d="m24.2603 12.0567 3.0519-.503-3.2744 6.7835-3.0544.503 3.2769-6.7835Z" fill="#2D3133"/>
  <path d="m23.7203 9.8823.5393 2.1741-3.2769 6.7835 1.9976 2.2787 1.0326.8875.2467-.1064-3.8162.6216.0895-.9867-2.8204 1.2311-1.5163.5102-2.7904 3.451-4.0933-3.1622.2919-5.1916 10.2707-.5272 3.8452-7.9636Z" fill="#325778"/>
  <path d="m25.9573 21.9952-3.4268-2.1378-3.052.5006.4788 1.8162h.0073l.2612.9698 5.7315-1.1488Z" fill="#646BCC"/>
  <path d="m17.0073 19.1781 4.6989-.7762.8246 1.4558-3.0519.5006-2.4716-1.1802Z" fill="#646BCC"/>
  <path clip-rule="evenodd" d="m22.7891 6.1773 3.0543-.503.9069 3.6131h.0004l.7213 2.8298 1.0344 3.6394-3.052.503-.9809-3.451-.0053.0009-.0482-.1894-.1602-.5636.0158-.0026-.5573-2.1867-.003.0005-.9262-3.6904Z" fill="#CDC8D8" fill-rule="evenodd"/>
  <path d="m25.5991 25.0186 3.052-.503 2.4473-.2055-3.0519.503-2.4474.2055Z" fill="#25282A"/>
  <path d="m29.1768 25.8238 3.0543-.503 4.0604 13.2187-3.0543.5006-4.0604-13.2163Z" fill="#41464A"/>
  <path d="m31.375 17.921 3.052-.503-3.3277 6.8923-3.0519.503 3.3276-6.8923Z" fill="#A8A8A8"/>
  <path d="m33.0727 17.7564 3.0544-.503-3.896 8.0676-3.0543.503 3.8959-8.0676Z" fill="#2D3133"/>
  <path d="m33.0723 17.7563 3.0543-.503.1355-.0145-3.0544.503-.1354.0145Z" fill="#888"/>
  <path d="m33.0449 25.6934 3.052-.503.0459.0363-3.0519.503-.046-.0363Z" fill="#CBCBCB"/>
  <path d="m33.0908 25.7296 3.052-.503.058.0435-3.0544.5151-.0556-.0435" fill="#C6C6C6"/>
  <path d="m33.146 25.7852 3.0544-.503a.4422.4422 0 0 0 .0556.0363l-3.0543.503-.0557-.0363Z" fill="#C1C1C1"/>
  <path d="m33.2021 25.8097 3.0544-.5031.0459.0266-3.0519.5031-.0459-.0266" fill="#BCBCBC"/>
  <path d="m33.2578 25.8433 3.0519-.503.0581.0291-3.0544.503-.0556-.0291" fill="#B8B8B8"/>
  <path d="m33.3135 25.8722 3.0543-.5031.0556.0266-3.0543.5031-.0556-.0266Z" fill="#B3B3B3"/>
  <path d="m33.3691 25.899 3.0544-.503.058.0242-3.0543.503-.0581-.0242Z" fill="#AEAEAE"/>
  <path d="m33.4277 25.9234 3.0543-.503.0581.0194-3.0617.503-.058-.0194" fill="#A9A9A9"/>
  <path d="m33.478 25.9425 3.0544-.503.0604.0169-3.0543.503-.0605-.0169Z" fill="#A4A4A4"/>
  <path d="m33.5454 25.9596 3.0544-.5031.0628.0146-3.0519.503-.0653-.0145" fill="#9F9F9F"/>
  <path d="m33.6108 25.9737 3.052-.503h.0677l-3.0519.503h-.0678Z" fill="#9A9A9A"/>
  <path d="m33.6787 25.9835 3.0519-.503h.0726l-3.0543.503h-.0702Z" fill="#959595"/>
  <path d="m33.7485 25.9884 3.0544-.503h.0798l-3.0544.503h-.0798Z" fill="#909090"/>
  <path d="m33.8286 25.9884 3.0544-.503h.0895l-3.052.503h-.0919Z" fill="#8B8B8B"/>
  <path d="m33.9204 25.981 3.0519-.503h.0267l-3.0544.503h-.0242Z" fill="#868686"/>
  <path d="m33.2359 39.0431-3.1051-10.1135-.9553-3.1076 3.896-8.0676h.0145l-1.7146.1717-3.4136 6.3943-1.6023.1989-.9805-.4355 4.2781 3.292 3.4185-.259 1.0012-.133-5.1115 5.2456L27 32.9727l-1.9927 3.179 4.5112 3.2809 3.7174-.3895Z" fill="#325778"/>
  <path d="m27.2528 33.995 4.6577-.8295.537.5938-6.2829.9249 1.0882-.6892Z" fill="#646BCC"/>
  <path d="m28.184 32.3558 3.8984-.682.5696 1.6183-5.3991.7033.9311-1.6396ZM25.0698 27.5493l4.7494-.8891 1.1195 2.1797-3.1922.5248-2.6767-1.8154Z" fill="#646BCC"/>
  <path d="m27.7461 29.3646 3.1922-.5248.4353 2.9915-3.1898.5248-.4377-2.9915Z" fill="#646BCC"/>
  <path d="m33.4199 22.7716 3.0544-.503a1.0203 1.0203 0 0 0-.5635.2974l-3.0544.503a1.0303 1.0303 0 0 1 .5635-.2974" fill="#818181"/>
  <path d="m32.8561 23.0694 3.0544-.503a1.6865 1.6865 0 0 0-.0871.0943l-3.0519.503a1.0502 1.0502 0 0 1 .0846-.0943" fill="#868686"/>
  <path d="m32.7714 23.1632 3.0519-.503c-.0193.0266-.0411.0532-.0604.0822l-3.052.503a1.0354 1.0354 0 0 1 .0605-.0822Z" fill="#8B8B8B"/>
  <path d="m32.7109 23.2457 3.052-.503a.7774.7774 0 0 0-.0484.0749l-3.0543.5031.0507-.075Z" fill="#909090"/>
  <path d="m32.6608 23.3204 3.0543-.503c-.0145.0242-.029.0483-.0411.0725l-3.0544.503c.0145-.0241.0291-.0483.0412-.0725Z" fill="#959595"/>
  <path d="m32.6199 23.3931 3.0544-.503-.0242.0484a.1954.1954 0 0 0 0 .0242l-3.052.503a.0756.0756 0 0 1 0-.0242l.0218-.0484" fill="#9A9A9A"/>
  <path d="m32.5857 23.4654 3.0519-.503-.029.0677-3.052.503.0291-.0677Z" fill="#9F9F9F"/>
  <path d="m32.5559 23.5333 3.0519-.503c0 .0217-.0169.0459-.0266.0677l-3.0519.5103a.5478.5478 0 0 1 .0266-.0678" fill="#A4A4A4"/>
  <path d="m32.5296 23.6085 3.052-.503-.0218.0701-3.0471.4933c0-.0217.0145-.0459.0242-.0677" fill="#A9A9A9"/>
  <path d="m32.513 23.6686 3.0544-.5006a.5447.5447 0 0 0-.0193.0677l-3.0544.503.0193-.0701" fill="#AEAEAE"/>
  <path d="m32.4861 23.7389 3.0544-.5031c0 .0242-.0121.046-.0169.0702l-3.0544.503c0-.0242 0-.0484.0169-.0701Z" fill="#B3B3B3"/>
  <path d="m32.4696 23.8092 3.0543-.503a.3346.3346 0 0 0-.0145.0701l-3.0543.503.0145-.0701Z" fill="#B8B8B8"/>
  <path d="m32.4551 23.879 3.0543-.503v.0725l-3.0543.503c0-.0241 0-.0483.0121-.0725" fill="#BCBCBC"/>
  <path d="m32.4429 23.9518 3.0544-.5031v.075l-3.0544.503v-.0749Z" fill="#C1C1C1"/>
  <path d="m32.4331 24.0269 3.0544-.503v.0798l-3.052.503v-.0798" fill="#C6C6C6"/>
  <path d="m32.4277 24.106 3.052-.503v.0823l-3.0544.503v-.0823" fill="#CBCBCB"/>
  <path d="m32.4233 24.189 3.0544-.503a.5277.5277 0 0 0 0 .0871l-3.0544.503v-.0871Z" fill="#D0D0D0"/>
  <path d="m32.4233 24.2755 3.0544-.503v.0991l-3.0519.5006v-.0967" fill="#D5D5D5"/>
  <path d="m32.4282 24.3727 3.052-.5006c0 .0362 0 .0725.0121.1088l-3.0544.503v-.1112" fill="#DADADA"/>
  <path d="m32.438 24.4835 3.0544-.503c0 .0435-.0001.0846.0193.1281l-3.0543.5031c0-.0436-.0146-.0871-.0194-.1282Z" fill="#DFDFDF"/>
  <path d="m32.457 24.6119 3.0544-.503c.01.0604.0237.1202.0411.1789l-3.0544.5031a3.9094 3.9094 0 0 1-.0411-.179Z" fill="#E4E4E4"/>
  <path d="m32.4985 24.7906 3.0544-.503c.0417.1561.1027.3063.1814.4474l-3.0544.5006a2.003 2.003 0 0 1-.1814-.445" fill="#E9E9E9"/>
  <path d="m32.6797 25.2359 3.0544-.5005c.0274.051.0581.1003.0919.1475l-3.0544.5006a2.2035 2.2035 0 0 1-.0919-.1476Z" fill="#E4E4E4"/>
  <path d="m32.7715 25.3834 3.0543-.5006c.0218.0339.046.0653.0726.0992l-3.052.5006c-.0266-.0315-.0507-.0653-.0749-.0992" fill="#DFDFDF"/>
  <path d="m32.8467 25.4825 3.052-.5006.0653.075-3.052.503a.6351.6351 0 0 1-.0653-.0774Z" fill="#DADADA"/>
  <path d="m32.9116 25.5601 3.052-.503a.8075.8075 0 0 0 .0629.0653l-3.052.503-.0629-.0653Z" fill="#D5D5D5"/>
  <path d="m32.9741 25.6251 3.052-.503a.6778.6778 0 0 0 .0605.0556l-3.0544.503-.0581-.0556Z" fill="#D0D0D0"/>
  <path d="m33.0326 25.6808 3.0544-.5031v.0121l-3.052.503-.0145-.012" fill="#CBCBCB"/>
  <path d="m34.2534 26.9459 3.052-.503a1.0159 1.0159 0 0 0-.5611.2974l-3.0544.4958a1.0332 1.0332 0 0 1 .5635-.2951" fill="#818181"/>
  <path d="m33.6892 27.2361 3.0543-.4837a1.0654 1.0654 0 0 0-.0871.0944l-3.0519.503a1.5937 1.5937 0 0 1 .0847-.0968" fill="#868686"/>
  <path d="m33.6049 27.3375 3.0519-.503-.0604.0798-3.052.503a.6887.6887 0 0 1 .0605-.0798" fill="#8B8B8B"/>
  <path d="m33.5449 27.4176 3.052-.503-.0484.0749-3.0519.503a.796.796 0 0 1 .0483-.0749" fill="#909090"/>
  <path d="m33.4962 27.4923 3.052-.503-.0411.0725-3.052.503c0-.0242.0266-.0483.0411-.0725Z" fill="#959595"/>
  <path d="m33.4548 27.5645 3.052-.503-.0242.0508v.0218l-3.0544.5006.0121-.0218a.4648.4648 0 0 1 .0242-.0484" fill="#9A9A9A"/>
  <path d="m33.4187 27.6349 3.0543-.5006c-.0121.0217-.0217.0459-.0314.0677l-3.052.503.0291-.0701" fill="#9F9F9F"/>
  <path d="m33.3894 27.7052 3.0519-.5031-.0266.0702-3.0519.503c0-.0242.0169-.0459.0266-.0701Z" fill="#A4A4A4"/>
  <path d="m33.3631 27.775 3.0519-.503-.0217.0677-3.0544.503.0242-.0677" fill="#A9A9A9"/>
  <path d="m33.3386 27.8429 3.0544-.5031c0 .0242-.0145.046-.0193.0702l-3.0544.5006c0-.0218.0145-.046.0193-.0677" fill="#AEAEAE"/>
  <path d="m33.3197 27.9108 3.0543-.5006a.6764.6764 0 0 0-.0169.0677l-3.0544.503c0-.0218.0121-.046.017-.0701" fill="#B3B3B3"/>
  <path d="m33.3031 27.9806 3.0543-.5031-.0144.0726-3.0544.503.0145-.0725Z" fill="#B8B8B8"/>
  <path d="m33.2885 28.0533 3.0544-.503c0 .0242 0 .0484-.0121.0725l-3.0544.5031c0-.0242 0-.0484.0121-.0726Z" fill="#BCBCBC"/>
  <path d="m33.2758 28.1261 3.0544-.5031v.075l-3.0616.5054v-.0749" fill="#C1C1C1"/>
  <path d="m33.2694 28.2032 3.052-.503v.0798l-3.052.5006a.417.417 0 0 1 0-.0774" fill="#C6C6C6"/>
  <path d="m33.2612 28.2779 3.0519-.5006v.0823l-3.0543.503v-.0847" fill="#CBCBCB"/>
  <path d="m33.2568 28.3634 3.0544-.503v.087l-3.0544.4982v-.0871" fill="#D0D0D0"/>
  <path d="m33.2568 28.4454 3.0544-.503v.0967l-3.0544.503v-.0967Z" fill="#D5D5D5"/>
  <path d="m33.2617 28.547 3.0544-.5031v.1113l-3.0544.503v-.1112Z" fill="#DADADA"/>
  <path d="m33.2715 28.6578 3.0544-.503c0 .0435.0121.0846.0193.1282l-3.0543.503c0-.0436-.0146-.0871-.0194-.1282Z" fill="#DFDFDF"/>
  <path d="m33.2905 28.7862 3.0544-.503c.0103.0612.024.1218.0411.1814l-3.0544.5006a3.9094 3.9094 0 0 1-.0411-.179Z" fill="#E4E4E4"/>
  <path d="m33.332 28.965 3.0544-.5006c.0428.1549.1037.3043.1814.4449l-3.0544.503a2.0227 2.0227 0 0 1-.1814-.4473" fill="#E9E9E9"/>
  <path d="m33.5132 29.4127 3.0544-.503c.029.0508.058.1015.0919.1499l-3.052.5006a1.5358 1.5358 0 0 1-.0943-.1475" fill="#E4E4E4"/>
  <path d="m33.6074 29.5602 3.0519-.5006.075.0991-3.0543.4958a1.0374 1.0374 0 0 1-.0726-.0992" fill="#DFDFDF"/>
  <path d="m33.6802 29.6544 3.0543-.5006.0653.0774-3.0519.503-.0677-.0798Z" fill="#DADADA"/>
  <path d="m33.7476 29.7389 3.0519-.5031.0629.0653-3.052.5006-.0628-.0628Z" fill="#D5D5D5"/>
  <path d="m33.8105 29.8019 3.052-.5006.0604.0556-3.0543.5006-.0581-.0556Z" fill="#D0D0D0"/>
  <path d="m33.8682 29.8575 3.0543-.5006.0459.0363-3.0422.503-.046-.0387" fill="#CBCBCB"/>
  <path d="m33.9268 29.8966 3.0519-.503.0556.0411-3.0519.503-.0556-.0411Z" fill="#C6C6C6"/>
  <path d="m33.9819 29.9469 3.052-.5031.0556.0387-3.0519.5031-.0557-.0387Z" fill="#C1C1C1"/>
  <path d="m34.0386 29.9854 3.0519-.503.046.029-3.052.5006a.2797.2797 0 0 1-.0459-.0266Z" fill="#BCBCBC"/>
  <path d="m34.0933 30.0172 3.0519-.5006.0556.029-3.0519.503a.411.411 0 0 1-.0556-.0314" fill="#B8B8B8"/>
  <path d="m34.1494 30.0484 3.0519-.503.0581.0266-3.0544.503-.0556-.0266Z" fill="#B3B3B3"/>
  <path d="m34.2051 30.0753 3.0543-.503.0557.0217-3.052.503-.058-.0217" fill="#AEAEAE"/>
  <path d="m34.2632 30.0968 3.052-.503.058.0217-3.052.5006-.058-.0193Z" fill="#A9A9A9"/>
  <path d="m34.3208 30.1163 3.052-.5006.0629.017-3.0544.5054-.0605-.0169" fill="#A4A4A4"/>
  <path d="m34.3813 30.1383 3.0544-.5006h.0629l-3.052.5006-.0653-.0145" fill="#9F9F9F"/>
  <path d="m34.4468 30.1383 3.052-.503h.0676l-3.0543.503h-.0653Z" fill="#9A9A9A"/>
  <path d="m34.5122 30.1573 3.0544-.503h.0701l-3.0519.5006h-.0726" fill="#959595"/>
  <path d="m34.5845 30.1622 3.0519-.5006h.0798l-3.052.5006h-.0797Z" fill="#909090"/>
  <path d="m34.6646 30.1622 3.0519-.5006h.0919l-3.0519.503h-.0919" fill="#8B8B8B"/>
  <path d="m34.7559 30.1549 3.0519-.5006h.0242l-3.052.5006h-.0241Z" fill="#868686"/>
  <path d="m33.417 22.773 3.0543-.503h.0242l-3.0519.503h-.0266Z" fill="#242729"/>
  <path d="m33.4438 22.768 3.052-.503a.5874.5874 0 0 1 .0919 0l-3.052.503a.564.564 0 0 0-.0919 0" fill="#26282B"/>
  <path d="m33.5356 22.7607 3.052-.503a.4431.4431 0 0 1 .0798 0l-3.0544.503h-.0774" fill="#272A2C"/>
  <path d="m33.6133 22.7608 3.0543-.503h.0702l-3.052.503h-.0725Z" fill="#282B2E"/>
  <path d="m33.6855 22.7657 3.052-.503h.0677l-3.052.503h-.0677Z" fill="#2A2D2F"/>
  <path d="m33.7529 22.775 3.052-.503.0629.0145-3.052.503-.0629-.0145Z" fill="#2B2E31"/>
  <path d="m33.8164 22.7896 3.052-.503.0629.017-3.0544.5005-.0605-.0145Z" fill="#2C3032"/>
  <path d="m33.8765 22.8043 3.0544-.5006.058.0194-3.0544.503-.058-.0218Z" fill="#2E3134"/>
  <path d="m33.9351 22.8258 3.0544-.503.0556.0217-3.052.503-.058-.0217" fill="#2F3235"/>
  <path d="m33.9927 22.8477 3.052-.503.0556.0266-3.0519.5127-.0557-.0266" fill="#303437"/>
  <path d="m34.0483 22.8839 3.052-.503a.411.411 0 0 1 .0556.0314l-3.0519.5006-.0557-.029Z" fill="#323538"/>
  <path d="m34.1035 22.9034 3.0519-.5006.0484.0266-3.0543.503-.046-.029" fill="#33373A"/>
  <path d="m34.2534 26.9459 3.052-.503h.0266l-3.0544.503h-.0242Z" fill="#242729"/>
  <path d="m34.2773 26.941 3.0544-.503h.0919l-3.0544.503h-.0919Z" fill="#26282B"/>
  <path d="m34.3696 26.9337 3.0544-.503h.0798l-3.0568.503h-.0798" fill="#272A2C"/>
  <path d="m34.4473 26.9337 3.0543-.503h.0701l-3.0519.503h-.0725Z" fill="#282B2E"/>
  <path d="m34.522 26.9381 3.0519-.503h.0677l-3.0519.503h-.0677Z" fill="#2A2D2F"/>
  <path d="m34.5894 26.9483 3.0519-.503.0653.0145-3.0544.503-.0628-.0145" fill="#2B2E31"/>
  <path d="m34.6528 26.963 3.0544-.503.0604.0169-3.0543.503-.0605-.0169Z" fill="#2C3032"/>
  <path d="m34.7129 26.9796 3.0543-.503.0581.0193-3.052.4982-.0604-.0194" fill="#2E3134"/>
  <path d="m34.7734 26.9942 3.052-.503.058.0242-3.0543.5006-.0557-.0218" fill="#2F3235"/>
  <path d="m34.8291 27.0211 3.0543-.5006.0557.0266-3.0544.5006-.0556-.0266Z" fill="#303437"/>
  <path d="m34.8847 27.0475 3.0543-.5006a.2999.2999 0 0 1 .0556.029l-3.064.503a.411.411 0 0 0-.0556-.0314" fill="#323538"/>
  <path d="m34.9312 27.0787 3.0543-.503.046.0266-3.052.503-.0483-.0266" fill="#33373A"/>
  <path d="M34.1503 22.9318c.0591.0373.1157.0785.1693.1233a1.9877 1.9877 0 0 1 .4499 2.2515c-.3193.6626-.9868.8658-1.5575.5103a1.3491 1.3491 0 0 1-.1669-.1234 1.9829 1.9829 0 0 1-.4497-2.2514c.3192-.6627.9866-.8658 1.5549-.5103Z" fill="#007C56"/>
  <path d="m34.1494 22.9317 3.0544-.503-3.052.503" fill="#33373A"/>
  <path d="m34.1592 22.9366 3.0519-.503a.4452.4452 0 0 1 .0556.0387l-3.0519.503-.0556-.0387Z" fill="#34383B"/>
  <path d="m34.2158 22.9752 3.0519-.503.0581.0411-3.0544.503-.0556-.0411" fill="#363A3D"/>
  <path d="m34.2705 23.0162 3.0543-.503.046.0411h.0145l-3.0543.503-.0121-.0121-.0484-.0387" fill="#373B3E"/>
  <path d="m34.3311 23.067 3.0543-.503.058.0556-3.0519.5054a.6754.6754 0 0 0-.0604-.0556" fill="#383C40"/>
  <path d="m34.392 23.1251 3.0519-.503.0629.0653-3.0616.5006a.7913.7913 0 0 0-.0629-.0653" fill="#3A3E41"/>
  <path d="m34.4448 23.1881 3.052-.503.0652.0773-3.0519.5006-.0653-.0749Z" fill="#3B3F43"/>
  <path d="m34.52 23.2633 3.0519-.5006a1.483 1.483 0 0 1 .075.0967l-3.0543.5079-.0726-.0992" fill="#3C4144"/>
  <path d="m34.5923 23.3673 3.0543-.503c.0315.0483.0629.0967.092.1475l-3.052.4982a1.8575 1.8575 0 0 0-.0919-.1476" fill="#3E4246"/>
  <path d="m34.6865 23.5098 3.0544-.503c.0775.1405.1377.29.179.445l-3.052.503a2.045 2.045 0 0 0-.1814-.445" fill="#3F4447"/>
  <path d="m34.8657 23.9547 3.052-.503c.0171.0596.0309.1201.0411.1813l-3.052.5006c0-.0604-.0241-.1185-.0411-.1789Z" fill="#3E4246"/>
  <path d="m34.9072 24.1334 3.052-.5006c.009.0423.0155.0851.0194.1282l-3.0496.503c0-.0435 0-.0871-.0194-.1306" fill="#3C4144"/>
  <path d="m34.9292 24.2642 3.052-.503v.1089l-3.052.503v-.1089" fill="#3B3F43"/>
  <path d="m34.9292 24.3731 3.0543-.503v.0992l-3.0519.503v-.0992" fill="#3A3E41"/>
  <path d="m34.9409 24.4723 3.0519-.5031a.5067.5067 0 0 1 0 .0871l-3.0519.503v-.087Z" fill="#383C40"/>
  <path d="m34.9413 24.5597 3.0519-.5031v.0823l-3.064.503v-.0822" fill="#373B3E"/>
  <path d="m34.9292 24.6417 3.0543-.503v.0798l-3.0543.503v-.0798" fill="#363A3D"/>
  <path d="m34.9292 24.7213 3.052-.503v.0749l-3.052.503v-.0749Z" fill="#34383B"/>
  <path d="m34.9286 24.7965 3.052-.503c0 .0241 0 .0483-.0121.0725l-3.052.503v-.0725" fill="#33373A"/>
  <path d="m34.909 24.8687 3.052-.503a.6204.6204 0 0 1-.0121.0702l-3.0544.503.0145-.0702" fill="#323538"/>
  <path d="m34.8949 24.939 3.0543-.503c0 .0242 0 .0484-.0194.0702l-3.0519.503c0-.0242.0121-.046.017-.0702" fill="#303437"/>
  <path d="m34.8773 25.0089 3.0519-.503c0 .0241 0 .0459-.0193.0701l-3.052.5006c0-.0218.0121-.046.0194-.0677" fill="#2F3235"/>
  <path d="m34.8581 25.0768 3.052-.5006-.0218.0677-3.0543.503c0-.0242.0169-.0459.0241-.0701" fill="#2E3134"/>
  <path d="m34.8347 25.1471 3.0544-.5031c0 .0242-.017.046-.0267.0678l-3.0543.503c0-.0218.0194-.046.0266-.0677Z" fill="#2C3032"/>
  <path d="m34.8079 25.2149 3.0543-.503a.6194.6194 0 0 1-.0314.0701l-3.052.5031.0291-.0702Z" fill="#2B2E31"/>
  <path d="m34.7785 25.2848 3.052-.5031a.0883.0883 0 0 1 0 .0218l-.0242.0508-3.0543.503.0265-.0508a.0875.0875 0 0 1 0-.0217Z" fill="#2A2D2F"/>
  <path d="m34.7423 25.3575 3.0544-.503-.0412.0725-3.0543.5031c.0145-.0242.029-.0484.0411-.0726Z" fill="#282B2E"/>
  <path d="m34.7012 25.4298 3.0543-.503-.0483.0749-3.0544.503.0484-.0749Z" fill="#272A2C"/>
  <path d="m34.6527 25.505 3.0544-.503-.0605.0798-3.0543.503.0604-.0798Z" fill="#26282B"/>
  <path d="m34.5925 25.5846 3.0543-.5031a1.0654 1.0654 0 0 1-.0871.0944l-3.0519.503a1.0652 1.0652 0 0 0 .0847-.0943Z" fill="#242729"/>
  <path d="m34.5078 25.6793 3.0519-.503a1.0156 1.0156 0 0 1-.561.2974l-3.0544.503a1.0372 1.0372 0 0 0 .5635-.2974" fill="#232528"/>
  <path d="m34.9873 27.1065 3.052-.503-3.0544.5006" fill="#33373A"/>
  <path d="m34.9946 27.1114 3.0544-.5006.0556.0363-3.0544.503a.456.456 0 0 0-.0556-.0387" fill="#34383B"/>
  <path d="m35.0503 27.15 3.0543-.503.0557.0411-3.0544.503-.0556-.0411Z" fill="#363A3D"/>
  <path d="m35.106 27.191 3.0544-.503.0459.0387v.0121l-3.035.4981h-.0146l-.0459-.0386" fill="#373B3E"/>
  <path d="m35.1714 27.2374 3.052-.503a.648.648 0 0 1 .0604.0556l-3.052.5006-.0604-.0532Z" fill="#383C40"/>
  <path d="m35.2266 27.2955 3.0519-.5006c.0218.0194.0412.0411.0629.0629l-3.0544.503-.0604-.0653Z" fill="#3A3E41"/>
  <path d="m35.2871 27.3604 3.0544-.503.0652.0774-3.0519.503-.0677-.0774Z" fill="#3B3F43"/>
  <path d="m35.3555 27.4381 3.0519-.503.075.0991-3.0544.503-.0725-.0991" fill="#3C4144"/>
  <path d="m35.4277 27.5372 3.0544-.503c.0314.0483.0629.0967.0919.1475l-3.0544.503a1.8557 1.8557 0 0 0-.0919-.1475Z" fill="#3E4246"/>
  <path d="m35.52 27.6847 3.0544-.5031c.0776.1405.1377.29.179.445l-3.052.503a2.0472 2.0472 0 0 0-.1814-.4449" fill="#3F4447"/>
  <path d="m35.7012 28.1295 3.0519-.503c.0172.0596.0309.1201.0411.1813l-3.0519.5006a2.4017 2.4017 0 0 0-.0411-.1789Z" fill="#3E4246"/>
  <path d="m35.7427 28.3082 3.0519-.5006c0 .0411.0145.0847.0218.1282l-3.0544.5103c0-.0436-.0121-.0871-.0193-.1306" fill="#3C4144"/>
  <path d="m35.7617 28.4464 3.0544-.503v.1088l-3.0544.503v-.1088Z" fill="#3B3F43"/>
  <path d="m35.7715 28.5479 3.0544-.503v.0992l-3.0544.5006v-.0968" fill="#3A3E41"/>
  <path d="m35.7759 28.6446 3.0543-.5006v.0871l-3.0519.5006v-.0871" fill="#383C40"/>
  <path d="m35.7759 28.732 3.052-.5006v.0823l-3.052.503v-.0847" fill="#373B3E"/>
  <path d="m35.7734 28.8165 3.052-.503v.0798l-3.052.503v-.0798Z" fill="#363A3D"/>
  <path d="m35.7666 28.8961 3.052-.503v.0749l-3.052.5006v-.0725Z" fill="#34383B"/>
  <path d="m35.7563 28.9689 3.052-.5006v.0725l-3.0544.503c0-.0242 0-.0508.0121-.0749" fill="#33373A"/>
  <path d="m35.7445 29.0435 3.0543-.503-.0145.0702-3.0543.503.0145-.0702Z" fill="#323538"/>
  <path d="m35.7303 29.1139 3.0544-.5031c0 .0242-.0121.046-.0169.0702l-3.0544.503c0-.0242.0121-.046.0169-.0701Z" fill="#303437"/>
  <path d="m35.7127 29.1837 3.0544-.503-.0218.0677-3.0519.503c0-.0218.0145-.046.0193-.0677Z" fill="#2F3235"/>
  <path d="m35.6936 29.2515 3.052-.503-.0218.0702-3.0544.503c0-.0242.0169-.046.0242-.0702" fill="#2E3134"/>
  <path d="m35.6693 29.3219 3.0544-.5031c0 .0218-.0169.046-.0266.0678l-3.0423.503.0242-.0677" fill="#2C3032"/>
  <path d="m35.6554 29.3897 3.052-.503a.6028.6028 0 0 1-.0315.0701l-3.0519.5031c0-.0242.0218-.046.0314-.0702Z" fill="#2B2E31"/>
  <path d="m35.614 29.4596 3.052-.5031a.0883.0883 0 0 1 0 .0218l-.0242.0508-3.0544.503.0266-.0508v-.0217Z" fill="#2A2D2F"/>
  <path d="m35.5777 29.5323 3.0544-.503-.0411.0725-3.0544.5031c.0145-.0242.029-.0484.0411-.0726Z" fill="#282B2E"/>
  <path d="m35.5366 29.6046 3.0544-.503-.0484.0749-3.0543.5031.0483-.075Z" fill="#272A2C"/>
  <path d="m35.4882 29.6798 3.0543-.503c-.0193.029-.0411.0556-.0628.0822l-3.052.5006a.9955.9955 0 0 0 .0605-.0798" fill="#26282B"/>
  <path d="m35.4279 29.7599 3.0519-.5006a1.0502 1.0502 0 0 1-.0846.0943l-3.0519.503c.029-.0314.058-.0629.0846-.0967Z" fill="#242729"/>
  <path d="m35.3433 29.8565 3.052-.503a1.028 1.028 0 0 1-.5635.3023l-3.052.5006a1.04 1.04 0 0 0 .5635-.295" fill="#232528"/>
  <path d="M34.9875 27.1056c.0581.0366.113.0779.1644.1233a1.9832 1.9832 0 0 1 .4523 2.2515c-.3216.6627-.9891.8658-1.5574.5103a1.138 1.138 0 0 1-.1669-.1233 1.9856 1.9856 0 0 1-.4498-2.2539c.3192-.6602.9867-.861 1.5574-.5079Z" fill="#007C56"/>
  <path d="m36.6216 22.0538 3.0544-.503a1.0308 1.0308 0 0 0-.5611.2974l-3.0544.5031a1.0157 1.0157 0 0 1 .5611-.2975" fill="#818181"/>
  <path d="m36.0509 22.3516 3.0544-.503a1.1103 1.1103 0 0 0-.0871.0943l-3.0519.5031a1.0813 1.0813 0 0 1 .0846-.0944" fill="#868686"/>
  <path d="m35.9661 22.4454 3.052-.503-.0605.0798-3.0616.503a.9955.9955 0 0 1 .0605-.0798" fill="#8B8B8B"/>
  <path d="m35.8965 22.5255 3.052-.503c-.0169.0241-.0315.0507-.0484.0773l-3.052.5006.0484-.0749Z" fill="#909090"/>
  <path d="m35.858 22.6002 3.052-.5006c-.0145.0218-.0266.046-.0411.0726l-3.052.5006c0-.0242.0266-.0484.0411-.0726Z" fill="#959595"/>
  <path d="m35.8166 22.673 3.052-.5006c0 .0145-.017.0314-.0242.0483l-3.0544.503.0266-.0507ZM35.7886 22.7242l3.0543-.503a.0883.0883 0 0 0 0 .0218l-3.0543.503a.0883.0883 0 0 0 0-.0218" fill="#9A9A9A"/>
  <path d="m35.779 22.7462 3.0544-.503a.8818.8818 0 0 0-.0314.0701l-3.052.503.029-.0701Z" fill="#9F9F9F"/>
  <path d="m35.7497 22.816 3.052-.503-.0266.0701-3.052.5006c0-.0218.0169-.0459.0266-.0677Z" fill="#A4A4A4"/>
  <path d="m35.7234 22.8839 3.0519-.5006-.0217.0677-3.0544.503c0-.0242.0146-.0459.0242-.0701" fill="#A9A9A9"/>
  <path d="m35.699 22.9542 3.0544-.503-.0218.0677-3.0519.503c0-.0218-.0001-.0459.0193-.0677Z" fill="#AEAEAE"/>
  <path d="m35.6804 23.0216 3.052-.503a.6015.6015 0 0 1-.017.0701l-3.0616.503c0-.0242 0-.0459.017-.0701" fill="#B3B3B3"/>
  <path d="m35.6538 23.0919 3.052-.503-.0145.0725-3.0375.5006.0145-.0701" fill="#B8B8B8"/>
  <path d="m35.6533 23.1622 3.052-.5006v.0726l-3.0544.503c0-.0242 0-.0508.0121-.075" fill="#BCBCBC"/>
  <path d="m35.6367 23.2369 3.0544-.503a.7216.7216 0 0 0 0 .075l-3.0544.5006v-.0726Z" fill="#C1C1C1"/>
  <path d="m35.6265 23.3092 3.0544-.5006v.0798l-3.0544.5006v-.0798Z" fill="#C6C6C6"/>
  <path d="m35.6191 23.3893 3.0544-.5006v.0822l-3.0544.503v-.0846" fill="#CBCBCB"/>
  <path d="m35.6172 23.4737 3.0543-.503v.0871l-3.0519.503v-.0871" fill="#D0D0D0"/>
  <path d="m35.6172 23.5611 3.0519-.503v.0967l-3.0519.5031v-.0968Z" fill="#D5D5D5"/>
  <path d="m35.6221 23.6578 3.0519-.503c0 .0363 0 .0725.0121.1112l-3.0544.5006v-.1088" fill="#DADADA"/>
  <path d="m35.6318 23.7667 3.0544-.5006c.0043.043.0108.0858.0194.1282l-3.052.503c0-.0435-.0145-.0871-.0193-.1306" fill="#DFDFDF"/>
  <path d="m35.6538 23.8971 3.0543-.5031c.01.0605.0238.1203.0412.179l-3.0544.503c-.0169-.058-.029-.1185-.0411-.1789Z" fill="#E4E4E4"/>
  <path d="m35.6924 24.0763 3.0544-.5031c.0404.1554.1006.3049.1789.445l-3.0519.503a1.9947 1.9947 0 0 1-.1814-.4449" fill="#E9E9E9"/>
  <path d="m35.8735 24.5211 3.052-.503c.029.0508.0604.1015.0919.1475l-3.0519.503a1.8864 1.8864 0 0 1-.092-.1475Z" fill="#E4E4E4"/>
  <path d="m35.9648 24.6685 3.052-.503c.0241.0339.0483.0677.0749.0992l-3.0543.503c-.0242-.0314-.0508-.0653-.0726-.0992" fill="#DFDFDF"/>
  <path d="m36.0381 24.7677 3.0543-.5031c.0205.0269.0423.0528.0653.0774l-3.0543.5031-.0653-.0774Z" fill="#DADADA"/>
  <path d="m36.1035 24.8448 3.0544-.503.0628.0653-3.0543.5006-.0629-.0629Z" fill="#D5D5D5"/>
  <path d="m36.166 24.9078 3.0544-.5006.058.0532-3.0519.5031a.6642.6642 0 0 1-.0605-.0557" fill="#D0D0D0"/>
  <path d="m36.2266 24.9635 3.0519-.5031.0145.0121.0435.0363-3.0519.503-.046-.0362h-.012" fill="#CBCBCB"/>
  <path d="m36.2847 25.0118 3.0519-.503.058.0435-3.0543.5079-.0556-.0436" fill="#C6C6C6"/>
  <path d="m36.3403 25.0606 3.0544-.503.0556.0387-3.0544.5006-.0556-.0363" fill="#C1C1C1"/>
  <path d="m36.396 25.0919 3.0543-.5006.0484.0266-3.0543.503-.046-.0266" fill="#BCBCBC"/>
  <path d="m36.4517 25.1256 3.0543-.503a.411.411 0 0 0 .0556.0314l-3.0543.5006a.6109.6109 0 0 1-.0556-.029" fill="#B8B8B8"/>
  <path d="m36.5068 25.1544 3.0544-.5006.0556.0242-3.0543.503-.0557-.0266Z" fill="#B3B3B3"/>
  <path d="m36.5625 25.1812 3.0543-.503.0581.0242-3.0544.503-.058-.0242Z" fill="#AEAEAE"/>
  <path d="m36.6206 25.2057 3.0543-.5031.0581.0194-3.0544.503-.058-.0193Z" fill="#A9A9A9"/>
  <path d="m36.6792 25.2247 3.0544-.503.0605.0169-3.052.503-.0629-.0169Z" fill="#A4A4A4"/>
  <path d="m36.7417 25.2418 3.052-.503.0628.0145-3.0519.503-.0629-.0145Z" fill="#9F9F9F"/>
  <path d="m36.8041 25.2559 3.0519-.503h.0678l-3.0616.5127h-.0678" fill="#9A9A9A"/>
  <path d="m36.8628 25.2662 3.052-.503h.0725l-3.0544.503h-.0701Z" fill="#959595"/>
  <path d="m36.9429 25.2711 3.0543-.503h.0798l-3.0544.503h-.0797Z" fill="#909090"/>
  <path d="m37.0218 25.2711 3.0544-.503h.0919l-3.064.4957h-.0919" fill="#8B8B8B"/>
  <path d="m37.1045 25.2638 3.0543-.5031h.0242l-3.0519.5031h-.0266Z" fill="#868686"/>
  <path d="m37.4492 26.2286 3.052-.503a1.0304 1.0304 0 0 0-.5611.2974l-3.0544.5031a1.0377 1.0377 0 0 1 .5635-.2975" fill="#818181"/>
  <path d="m36.885 26.5265 3.0543-.5031-.087.0943-3.052.5031a1.0513 1.0513 0 0 1 .0847-.0943" fill="#868686"/>
  <path d="m36.8007 26.6202 3.052-.503c-.0194.0266-.0411.0532-.0605.0822l-3.052.503a1.0354 1.0354 0 0 1 .0605-.0822Z" fill="#8B8B8B"/>
  <path d="m36.7407 26.7027 3.052-.503-.0484.075-3.0519.503a.7975.7975 0 0 1 .0483-.075" fill="#909090"/>
  <path d="m36.692 26.7774 3.0519-.503-.0411.0726-3.0519.503a.6832.6832 0 0 1 .0411-.0726Z" fill="#959595"/>
  <path d="m36.6511 26.8502 3.0519-.503-.0242.0508v.0217l-3.0567.503v-.0217l.0266-.0508" fill="#9A9A9A"/>
  <path d="m36.6212 26.9225 3.052-.5031-.0291.0702-3.0616.5054.0314-.0677" fill="#9F9F9F"/>
  <path d="m36.5828 26.9952 3.0543-.5006a.5687.5687 0 0 0-.0265.0677l-3.052.5031c0-.0242.0169-.046.0242-.0702" fill="#A4A4A4"/>
  <path d="m36.5589 27.0606 3.052-.503-.0218.0677-3.0544.503c0-.0217.0145-.0459.0242-.0677" fill="#A9A9A9"/>
  <path d="m36.5344 27.128 3.0544-.503-.0217.0701-3.052.503c0-.0241.0121-.0459.0193-.0701Z" fill="#AEAEAE"/>
  <path d="m36.5155 27.1983 3.0519-.503c0 .0218 0 .046-.0169.0701l-3.052.5006a.6908.6908 0 0 1 .017-.0677" fill="#B3B3B3"/>
  <path d="m36.4979 27.2662 3.052-.5006-.0145.0702-3.052.503.0145-.0726Z" fill="#B8B8B8"/>
  <path d="m36.4843 27.339 3.052-.5031c0 .0242-.0001.0484-.0122.0726l-3.0519.503v-.0725" fill="#BCBCBC"/>
  <path d="m36.4715 27.4112 3.052-.503v.075l-3.0616.4957v-.0749" fill="#C1C1C1"/>
  <path d="m36.4619 27.4788 3.0616-.4837v.0798l-3.0543.5006v-.0774" fill="#C6C6C6"/>
  <path d="m36.4546 27.5636 3.0543-.5006v.0822l-3.0519.503v-.0846" fill="#CBCBCB"/>
  <path d="m36.4526 27.6485 3.052-.503v.0919l-3.052.503v-.087" fill="#D0D0D0"/>
  <path d="m36.4526 27.7354 3.052-.503v.0992l-3.052.5006v-.0968" fill="#D5D5D5"/>
  <path d="m36.4575 27.8316 3.0519-.5005v.1088l-3.0519.503v-.1113Z" fill="#DADADA"/>
  <path d="m36.4673 27.943 3.0519-.5031c0 .0436.0121.0871.0218.1282l-3.0544.503c0-.0435-.0145-.0846-.0193-.1281Z" fill="#DFDFDF"/>
  <path d="m36.4863 28.0714 3.0544-.503c.01.0612.0237.1218.0411.1813l-3.0543.5031a2.4767 2.4767 0 0 1-.0412-.1814Z" fill="#E4E4E4"/>
  <path d="m36.5278 28.2525 3.0544-.503c.0412.1589.103.3118.1838.4547l-3.0568.4836a2.0986 2.0986 0 0 1-.1814-.4449" fill="#E9E9E9"/>
  <path d="m36.709 28.6883 3.0567-.4837c.0291.0508.0605.0991.0919.1475l-3.0519.503a1.8378 1.8378 0 0 1-.0919-.1475" fill="#E4E4E4"/>
  <path d="m36.8012 28.8453 3.052-.503c.0242.0338.0483.0677.0749.0991l-3.064.5031-.0726-.0992" fill="#DFDFDF"/>
  <path d="m36.8638 28.9449 3.0543-.503c.0194.0266.0435.0508.0653.0774l-3.0543.5006-.0653-.075Z" fill="#DADADA"/>
  <path d="m36.939 29.0192 3.0543-.5006.0629.0628-3.0544.5031-.0628-.0653Z" fill="#D5D5D5"/>
  <path d="m37.0015 29.0846 3.0543-.5031.058.0557-3.0519.503-.0604-.0556Z" fill="#D0D0D0"/>
  <path d="m37.062 29.1402 3.0519-.503.046.0363-3.052.503-.0459-.0387" fill="#CBCBCB"/>
  <path d="m37.1201 29.1886 3.0519-.5031.0581.0436-3.0544.5006-.0556-.0411" fill="#C6C6C6"/>
  <path d="m37.1758 29.2296 3.0543-.5006.0556.0363-3.0543.503-.0556-.0387" fill="#C1C1C1"/>
  <path d="m37.2314 29.2686 3.0544-.503.046.029-3.052.5031-.0459-.0291" fill="#BCBCBC"/>
  <path d="m37.2871 29.3023 3.052-.503.058.029-3.0495.5031-.0556-.0291" fill="#B8B8B8"/>
  <path d="m37.3472 29.3311 3.0543-.503.0557.0266-3.0544.503-.0556-.0266Z" fill="#B3B3B3"/>
  <path d="m37.3979 29.358 3.0544-.503.0557.0242-3.052.5006-.0581-.0218" fill="#AEAEAE"/>
  <path d="m37.4561 29.38 3.0519-.5006.0605.0193-3.0544.5151-.058-.0217" fill="#A9A9A9"/>
  <path d="m37.5146 29.4137 3.0544-.5031.0605.017-3.0544.4861-.0605-.017" fill="#A4A4A4"/>
  <path d="m37.5752 29.4137 3.0544-.5031.0629.0121-3.052.503-.0653-.012" fill="#9F9F9F"/>
  <path d="m37.6406 29.4308 3.052-.5031h.0677l-3.0544.5031h-.0653Z" fill="#9A9A9A"/>
  <path d="m37.7051 29.44 3.0544-.503h.0725l-3.0544.503h-.0725Z" fill="#959595"/>
  <path d="m37.7783 29.4474 3.0544-.5031h.0774l-3.052.5006h-.0798" fill="#909090"/>
  <path d="m37.8574 29.4449 3.0519-.5006h.092l-3.052.5031a.5874.5874 0 0 1-.0919 0" fill="#8B8B8B"/>
  <path d="m37.9497 29.4376 3.052-.503h.0266l-3.0544.503h-.0242Z" fill="#868686"/>
  <path d="m36.6216 22.0533 3.0543-.503h.0242l-3.0519.5006h-.0266" fill="#242729"/>
  <path d="m36.6387 22.0484 3.0519-.5005h.0919l-3.052.503h-.0918" fill="#26282B"/>
  <path d="m36.7305 22.0411 3.052-.503h.0797l-3.0543.503h-.0774" fill="#272A2C"/>
  <path d="m36.8076 22.0411 3.0544-.503a.6305.6305 0 0 1 .0701 0l-3.0519.5006h-.0726" fill="#282B2E"/>
  <path d="m36.8804 22.046 3.0519-.5006H40l-3.0519.5006h-.0677Z" fill="#2A2D2F"/>
  <path d="m36.9478 22.0558 3.0519-.5006.0653.0121-3.0544.503-.0628-.0145" fill="#2B2E31"/>
  <path d="m37.0107 22.0699 3.0544-.503.0604.0169-3.0543.503-.0605-.0169Z" fill="#2C3032"/>
  <path d="m37.0713 22.087 3.0543-.503.0581.0193-3.052.503-.0604-.0193Z" fill="#2E3134"/>
  <path d="m37.1318 22.1065 3.052-.503.058.0242-3.0543.503-.0557-.0242" fill="#2F3235"/>
  <path d="m37.1875 22.1305 3.0543-.5031.0557.0266-3.052.5031-.058-.0266Z" fill="#303437"/>
  <path d="m37.2456 22.1573 3.0519-.503.0556.029-3.0519.503-.0556-.029Z" fill="#323538"/>
  <path d="m37.3013 22.1861 3.0519-.503.046.029-3.052.503-.0459-.029Z" fill="#33373A"/>
  <path d="m37.4492 26.2271 3.052-.503h.0266l-3.0544.5006h-.0242" fill="#242729"/>
  <path d="m37.4731 26.2228 3.0544-.5006h.0919l-3.0544.503h-.0919" fill="#26282B"/>
  <path d="m37.5654 26.2154 3.0544-.503h.0774l-3.0519.503h-.0799" fill="#272A2C"/>
  <path d="m37.6455 26.2154 3.052-.503h.0725l-3.0519.503h-.0726Z" fill="#282B2E"/>
  <path d="m37.7178 26.2198 3.0519-.503h.0677l-3.0543.5006h-.0653" fill="#2A2D2F"/>
  <path d="m37.7832 26.2301 3.0543-.5006.0629.0121-3.0519.503-.0653-.0145" fill="#2B2E31"/>
  <path d="m37.8486 26.2447 3.052-.503.0604.0169-3.0519.5103-.0605-.0169" fill="#2C3032"/>
  <path d="m37.9087 26.2686 3.0519-.503.0605.0194-3.0544.503-.058-.0194Z" fill="#2E3134"/>
  <path d="m37.9673 26.2804 3.0543-.5031.0556.0242-3.0519.503-.058-.0241" fill="#2F3235"/>
  <path d="m38.0244 26.3053 3.0519-.5031.058.0266-3.0616.5031-.0556-.0266" fill="#303437"/>
  <path d="m38.0732 26.3311 3.0544-.503.0557.029-3.0544.5031-.0557-.0291Z" fill="#323538"/>
  <path d="m38.1357 26.3604 3.0544-.503.046.029-3.0544.5006-.046-.0266Z" fill="#33373A"/>
  <path d="M37.3481 22.2162a1.454 1.454 0 0 1 .1668.1209 1.983 1.983 0 0 1 .4499 2.2515c-.3193.6626-.9867.8658-1.5574.5103a1.8475 1.8475 0 0 1-.1669-.1234 1.985 1.985 0 0 1-.4498-2.2515c.3216-.6626.9866-.8657 1.5574-.5078Z" fill="#007C56"/>
  <path d="m37.3467 22.2149 3.052-.503-3.052.5079" fill="#33373A"/>
  <path d="m37.3467 22.2193 3.052-.503a.4605.4605 0 0 1 .0556.0387l-3.052.5006-.0556-.0363" fill="#34383B"/>
  <path d="m37.4121 22.256 3.0519-.5006.0581.0411-3.0544.503-.0556-.0435" fill="#363A3D"/>
  <path d="m37.4678 22.2994 3.0543-.503.0436.0387h.0145l-3.052.503-.0145-.0121-.0459-.0363" fill="#373B3E"/>
  <path d="m37.5283 22.3477 3.052-.503.0605.0557-3.052.4981-.0581-.0556" fill="#383C40"/>
  <path d="m37.5884 22.3985 3.0543-.503.0629.0653-3.0543.503-.0629-.0653Z" fill="#3A3E41"/>
  <path d="m37.6489 22.4688 3.0544-.503.0653.0774-3.0544.503a.9823.9823 0 0 0-.0653-.0774" fill="#3B3F43"/>
  <path d="m37.7144 22.5465 3.0543-.503c.0242.0314.0508.0653.0726.0991l-3.052.4982a1.4972 1.4972 0 0 0-.0749-.0992" fill="#3C4144"/>
  <path d="m37.7896 22.6407 3.0519-.503c.0337.0471.0645.0964.0919.1475l-3.052.503a2.2002 2.2002 0 0 0-.0918-.1475Z" fill="#3E4246"/>
  <path d="m37.8818 22.7931 3.052-.5031c.0782.1405.1391.2899.1814.445l-3.0423.503a1.9927 1.9927 0 0 0-.1814-.4449" fill="#3F4447"/>
  <path d="m38.0728 23.2379 3.0519-.503c.017.058.029.1185.0411.1789l-3.0544.503c0-.0604-.0241-.1209-.0386-.1789Z" fill="#3E4246"/>
  <path d="m38.1016 23.4166 3.0543-.503c0 .0435.0145.0846.0194.1281l-3.052.5031c0-.0436-.0121-.0871-.0217-.1282Z" fill="#3C4144"/>
  <path d="m38.1235 23.545 3.052-.503v.1088l-3.052.503v-.1088Z" fill="#3B3F43"/>
  <path d="m38.1333 23.6539 3.052-.503v.0991l-3.052.5006v-.0967" fill="#3A3E41"/>
  <path d="m38.1377 23.7506 3.0519-.5006v.0871l-3.0519.5127v-.0871" fill="#383C40"/>
  <path d="m38.1377 23.8497 3.0519-.5006v.0822l-3.0543.5031v-.0847" fill="#373B3E"/>
  <path d="m38.1333 23.922 3.0543-.5031v.0774l-3.0543.503v-.0773Z" fill="#363A3D"/>
  <path d="m38.1265 23.9996 3.0544-.503v.075l-3.052.503v-.075" fill="#34383B"/>
  <path d="m38.1187 24.0748 3.0519-.503v.0725l-3.0519.503c0-.0241 0-.0483.0121-.0725" fill="#33373A"/>
  <path d="m38.1063 24.1476 3.0519-.5031-.0145.0726-3.0519.5006.0145-.0701Z" fill="#323538"/>
  <path d="m38.0921 24.2174 3.0519-.5006a.6903.6903 0 0 1-.0169.0677l-3.0543.503c0-.0217 0-.0459.0169-.0701" fill="#303437"/>
  <path d="m38.0726 24.2877 3.052-.503c0 .0242-.0121.0459-.0194.0701l-3.052.5006c0-.0218.0121-.0435.0194-.0677" fill="#2F3235"/>
  <path d="m38.0554 24.3551 3.052-.5006-.0218.0677-3.0544.503c0-.0242.0169-.0459.0242-.0701" fill="#2E3134"/>
  <path d="m38.032 24.4254 3.0543-.503c0 .0241-.0193.0459-.0265.0701l-3.0544.5006c0-.0218.0193-.046.0266-.0677" fill="#2C3032"/>
  <path d="m38.0046 24.4928 3.0544-.5006c0 .0218-.0218.0459-.0315.0701l-3.0544.5127c0-.0242.0218-.0484.0315-.0725" fill="#2B2E31"/>
  <path d="m37.9734 24.5748 3.0544-.503v.0217l-.0242.0508-3.0544.503.0266-.0507v-.0218" fill="#2A2D2F"/>
  <path d="m37.9371 24.6378 3.0544-.503-.0411.0725-3.052.503.0387-.0725Z" fill="#282B2E"/>
  <path d="m37.8985 24.7105 3.0519-.503a.7985.7985 0 0 1-.0484.075l-3.0519.503.0484-.075Z" fill="#272A2C"/>
  <path d="m37.8505 24.7857 3.0519-.503a.6887.6887 0 0 1-.0605.0798l-3.0543.503.0629-.0798Z" fill="#26282B"/>
  <path d="m37.7873 24.8653 3.0543-.503a1.5605 1.5605 0 0 1-.0846.0967l-3.0544.5006a1.0513 1.0513 0 0 0 .0847-.0943" fill="#242729"/>
  <path d="m37.7027 24.9601 3.0544-.5006a1.0324 1.0324 0 0 1-.5635.295l-3.052.503a1.0159 1.0159 0 0 0 .5611-.2974" fill="#232528"/>
  <path d="m38.1831 26.3873 3.0544-.5006-3.052.503" fill="#33373A"/>
  <path d="m38.1929 26.3941 3.052-.503.0556.0363-3.052.503-.0556-.0363Z" fill="#34383B"/>
  <path d="m38.2476 26.4308 3.0519-.5031.0581.0436-3.0423.503-.0556-.0435" fill="#363A3D"/>
  <path d="m38.3159 26.4742 3.0544-.503.046.0363.0121.0121-3.052.503-.0145-.0121-.046-.0363" fill="#373B3E"/>
  <path d="m38.3643 26.5225 3.0519-.503.0605.0557-3.0544.503-.058-.0557Z" fill="#383C40"/>
  <path d="m38.4219 26.5782 3.0544-.503.0629.0653-3.0544.503a.5467.5467 0 0 0-.0629-.0653" fill="#3A3E41"/>
  <path d="m38.4854 26.6436 3.0544-.503.0653.0774-3.0472.5006a.9905.9905 0 0 0-.0653-.075" fill="#3B3F43"/>
  <path d="m38.5576 26.7189 3.0544-.5006c.0241.0314.0508.0628.0725.0967l-3.0519.503-.075-.0991" fill="#3C4144"/>
  <path d="m38.625 26.818 3.0519-.5031c.0339.0484.0629.0968.0919.1476l-3.0519.503a3.0754 3.0754 0 0 0-.0919-.1475Z" fill="#3E4246"/>
  <path d="m38.7173 26.9654 3.052-.503a2.097 2.097 0 0 1 .1813.445l-3.0544.503a1.9717 1.9717 0 0 0-.1789-.445" fill="#3F4447"/>
  <path d="m38.8965 27.4102 3.0544-.503c.0169.0605.029.1209.0411.1814l-3.0544.503a1.6345 1.6345 0 0 0-.0411-.1814Z" fill="#3E4246"/>
  <path d="m38.938 27.5914 3.0543-.503c0 .0435.0146.0846.0194.1282l-3.052.503c0-.0436.0001-.0871-.0217-.1282" fill="#3C4144"/>
  <path d="m38.96 27.7198 3.0519-.503v.1088l-3.0519.503v-.1088Z" fill="#3B3F43"/>
  <path d="m38.9688 27.8287 3.0519-.503v.0991l-3.0519.5006v-.0967" fill="#3A3E41"/>
  <path d="m38.9736 27.9254 3.052-.5006v.0871l-3.052.5006v-.0871Z" fill="#383C40"/>
  <path d="m38.9736 28.0123 3.052-.5006v.0822l-3.0544.5031v-.0847" fill="#373B3E"/>
  <path d="m38.9688 28.0968 3.0544-.503v.0798l-3.0544.5006v-.0774Z" fill="#363A3D"/>
  <path d="m38.9619 28.1744 3.0544-.5006v.0726l-3.052.503v-.075" fill="#34383B"/>
  <path d="m38.9544 28.2496 3.052-.503c0 .0242 0 .0484-.0121.0725l-3.0519.503v-.0725" fill="#33373A"/>
  <path d="m38.9427 28.3223 3.052-.503-.0146.0726-3.0519.5006.0145-.0702Z" fill="#323538"/>
  <path d="m38.9276 28.3922 3.0519-.5006a.6903.6903 0 0 1-.0169.0677l-3.052.503c0-.0217.0122-.0459.017-.0701" fill="#303437"/>
  <path d="m38.911 28.4625 3.0519-.503a.5547.5547 0 0 1-.0193.0677l-3.052.503c0-.0218 0-.0435.0194-.0677Z" fill="#2F3235"/>
  <path d="m38.8913 28.5299 3.052-.503-.0218.0701-3.0543.503c0-.0242.0169-.0459.0241-.0701" fill="#2E3134"/>
  <path d="m38.8674 28.6002 3.0544-.503c0 .0217-.0169.0459-.0266.0677l-3.0544.503c0-.0218.0194-.0459.0266-.0677Z" fill="#2C3032"/>
  <path d="m38.8404 28.6681 3.0544-.5031-.0315.0726-3.064.503a.9233.9233 0 0 0 .0314-.0725" fill="#2B2E31"/>
  <path d="m38.7999 28.7403 3.0544-.503-.0121.0218-.0242.0508-3.0543.503.0265-.0508v-.0218" fill="#2A2D2F"/>
  <path d="m38.773 28.8126 3.0544-.503-.0411.0725-3.0544.503a1.0836 1.0836 0 0 0 .0411-.0725Z" fill="#282B2E"/>
  <path d="m38.7319 28.8853 3.0545-.503-.0485.075-3.0543.503a.7975.7975 0 0 0 .0483-.075" fill="#272A2C"/>
  <path d="m38.6835 28.9605 3.0543-.503c-.0193.029-.0411.0556-.0604.0822l-3.0544.5006a.6803.6803 0 0 0 .0605-.0798" fill="#26282B"/>
  <path d="m38.6232 29.0401 3.0544-.5005a1.1091 1.1091 0 0 1-.087.0943l-3.052.503c.03-.0306.0583-.0629.0846-.0968" fill="#242729"/>
  <path d="m38.5385 29.1373 3.052-.503a1.0304 1.0304 0 0 1-.5611.2974l-3.0543.503a1.0363 1.0363 0 0 0 .5634-.2974" fill="#232528"/>
  <path d="M38.1823 26.3875c.0587.0367.1145.078.1668.1233a1.983 1.983 0 0 1 .4499 2.2515c-.3192.6626-.9867.8658-1.5574.5103a.9917.9917 0 0 1-.1669-.1234 1.983 1.983 0 0 1-.4498-2.249c.3216-.6651.9867-.8731 1.5574-.5127Z" fill="#007C56"/>
  <path d="m42.2189 24.7768.8706 2.2781a30.7297 30.7297 0 0 1 1.2382 17.8715l-2.3724 2.0895-4.6601-.4837-2.7183-3.1438-1.3397-4.353-4.0604-13.2187 3.8959-8.0676.1378-.0145 2.7255-.2878 5.1463 4.4135 1.1366 2.9165Zm-6.6142 4.7037a1.9829 1.9829 0 0 0-.4522-2.2515 1.2674 1.2674 0 0 0-.1645-.1234c-.5707-.3554-1.2381-.1523-1.5574.5079a1.9855 1.9855 0 0 0 .4498 2.2539c.0518.0461.1077.0874.1669.1233.5683.3555 1.2358.1524 1.5574-.5102Zm-2.5586-3.7872c.0524.0454.1082.0866.1669.1234.5707.3555 1.2382.1523 1.5574-.5103a1.9882 1.9882 0 0 0-.4498-2.2515 1.5839 1.5839 0 0 0-.1693-.1233c-.5683-.3555-1.2357-.1524-1.555.5103a1.983 1.983 0 0 0 .4498 2.2514Zm5.7533 3.0689a1.9829 1.9829 0 0 0-.4499-2.2515 1.35 1.35 0 0 0-.1668-.1233c-.5708-.3555-1.2358-.1524-1.5574.5127a1.9825 1.9825 0 0 0 .4498 2.2491.9967.9967 0 0 0 .1669.1233c.5707.3555 1.2381.1523 1.5574-.5103Zm-3.0084-6.0458a1.9848 1.9848 0 0 0 .4497 2.2514 1.876 1.876 0 0 0 .1669.1234c.5708.3555 1.2382.1523 1.5574-.5103a1.9825 1.9825 0 0 0-.4498-2.2515 1.454 1.454 0 0 0-.1668-.1209c-.5708-.3579-1.2358-.1548-1.5574.5079ZM24.2603 12.0562l1.1946 4.203 2.3168 1.9879.0363.0315 3.567-.358-3.3276 6.8923-2.4474.2056-1.0761-.9214-1.7993-1.5429-1.0326-.8875-.7086-2.8271 3.2769-6.7834Z" fill="#EFE4EF"/>
  <path clip-rule="evenodd" d="m28.5065 15.7563-3.0519.5031 2.3452 2.0146.0017-.0002.006.0052 3.0544-.5006-.0091-.0086.0071-.0011-2.3534-2.0124Z" fill="#A49EBA" fill-rule="evenodd"/>
  <path clip-rule="evenodd" d="m36.2621 17.239-3.0543.503 2.7279-.2902 3.0543-.5006-2.7279.2878Zm-8.4545 1.0395 3.0544-.5006.0985-.0098 3.4661-.3504-.0651.0108 1.9007-.1899-3.0544.5031-5.2698.5239-.1304.0131.0019-.0003-.0019.0001Z" fill="#CDC8D8" fill-rule="evenodd"/>
  <path d="m44.3342 44.9141 3.0544-.503-2.3821 2.1016-3.0519.503 2.3796-2.1016Z" fill="#C6C2D3"/>
  <path d="m35.936 17.4518 3.0544-.5006 5.1438 4.4135-3.0543.503-5.1439-4.4159Z" fill="#C8C4D5"/>
  <path clip-rule="evenodd" d="m44.1335 21.3647-3.0544.5031 1.1717 2.9613c1.1499 3.0397 1.6206 6.0002 2.0833 9.2217.5042 3.5467.7362 7.3574 0 10.8633l3.0544-.503s.549-6.2201.0871-10.4038c-.424-3.8403-1.9197-8.8419-2.1625-9.6372l.0089-.0015-.0418-.1056-.0005-.0015h-.0001l-1.1461-2.8968Z" fill="#CDC8D8" fill-rule="evenodd"/>
  <path d="M17.3891 26.4649c1.6428 0 2.9746-1.6382 2.9746-3.659 0-2.0208-1.3318-3.6589-2.9746-3.6589s-2.9745 1.6381-2.9745 3.6589c0 2.0208 1.3317 3.659 2.9745 3.659ZM25.567 34.7519c1.6335 0 2.9576-1.6284 2.9576-3.6372 0-2.0087-1.3241-3.6372-2.9576-3.6372-1.6334 0-2.9576 1.6285-2.9576 3.6372 0 2.0088 1.3242 3.6372 2.9576 3.6372Z" fill="#9481FF"/>
</svg>