<?xml version="1.0" encoding="utf-8"?>
<svg xmlns="http://www.w3.org/2000/svg" fill="none" height="86" viewBox="0 0 86 86" width="86">
<path d="M64.3529 83.8176C63.1307 83.8176 61.9086 83.5312 60.8201 82.9965L43.0035 74.1741L25.1869 82.9774C24.0985 83.5121 22.8763 83.7985 21.6542 83.7985C19.3436 83.7985 17.1475 82.7865 15.6198 81.0296C14.1113 79.2728 13.4429 76.9622 13.7675 74.6706L16.651 55.0017L2.7682 40.7943C0.686738 38.6746 -0.0198129 35.6002 0.896796 32.774C1.81341 29.9478 4.20041 27.8854 7.1412 27.3889L26.7337 24.0471L35.9571 6.44055C37.332 3.80529 40.0437 2.18213 43.0035 2.18213C45.9825 2.18213 48.6751 3.82439 50.05 6.44055L59.2733 24.0471L78.8659 27.3889C81.7876 27.8854 84.1937 29.9478 85.1103 32.774C86.0269 35.6002 85.3012 38.6746 83.2389 40.7943L69.3561 55.0017L72.2396 74.6706C72.5833 76.9622 71.8958 79.2728 70.3872 81.0296C68.8595 82.8055 66.6635 83.8176 64.3529 83.8176Z" fill="url(#paint0_linear_3172_12202)"/>
<path d="M41.3804 9.32375C42.0678 8.02522 43.9201 8.02522 44.6076 9.32375L54.824 28.8208C55.0913 29.3173 55.5687 29.6801 56.1225 29.7756L77.8156 33.4611C79.2669 33.7094 79.8398 35.4853 78.8086 36.5165L63.4172 52.2516C63.0161 52.6526 62.8443 53.2255 62.9207 53.7793L66.1097 75.5679C66.3198 77.0192 64.8112 78.1076 63.4936 77.4584L43.8056 67.7003C43.29 67.4521 42.698 67.4521 42.1824 67.7003L22.4562 77.4584C21.1386 78.1076 19.63 77.0192 19.84 75.5679L23.0291 53.7793C23.1055 53.2255 22.9336 52.6526 22.5326 52.2516L7.14119 36.5165C6.11 35.4662 6.68289 33.6903 8.13418 33.4611L29.8655 29.7565C30.4192 29.661 30.9157 29.3173 31.164 28.8017L41.3804 9.32375Z" fill="#FFF132"/>
<path d="M79.0567 34.2441C78.7894 33.8431 78.3884 33.5566 77.8537 33.4611L67.0072 31.6184L56.1606 29.7756C55.6068 29.6801 55.1103 29.3364 54.8621 28.8208L44.6457 9.32375C43.9583 8.02522 42.1059 8.02522 41.4185 9.32375L31.2021 28.8208C30.9348 29.3173 30.4574 29.6801 29.9036 29.7756L8.21049 33.4611C7.6758 33.5566 7.25569 33.8621 7.00745 34.2441C7.06473 34.3395 7.14113 34.435 7.21751 34.5114L22.6089 50.2465C23.0099 50.6475 23.5446 51.4305 23.4682 52.0034L23.3155 52.9964C23.4682 53.3019 23.1436 53.4547 23.1054 53.7984L20.05 74.594C20.451 75.4724 21.5395 75.9498 22.5134 75.4724L42.2396 65.7143C42.7552 65.4661 43.3472 65.4661 43.8628 65.7143L63.589 75.4724C64.5629 75.9498 65.6513 75.4724 66.0524 74.594L62.997 53.7984C62.9397 53.4547 62.6533 53.4356 62.7869 53.13L62.6342 52.137C62.5578 51.5833 62.7296 51.0104 63.1307 50.6094L78.8658 34.5114C78.9231 34.435 78.9804 34.3395 79.0567 34.2441Z" fill="#FABB3D"/>
<path d="M62.978 54.0468L62.9207 53.6267L62.6343 52.1563C62.5579 51.6025 62.7297 51.0297 63.1308 50.6286L77.6819 35.6764L54.8813 31.8C54.3275 31.7045 53.831 31.3608 53.5828 30.8452L43.3664 11.3481C42.8317 10.2405 42.9654 10.2787 42.2779 11.5773L32.2334 31.0361C31.9661 31.5326 31.4887 31.8954 30.9349 31.9909L8.28699 35.6764L22.5517 50.2658C22.9527 50.6668 23.411 51.3543 23.3156 51.9081C23.3156 51.9081 23.0673 53.3403 23.0482 53.6267C23.0673 53.7604 22.8191 55.0398 22.8191 55.0398L19.9738 74.5941C20.4321 75.5871 21.5778 75.9118 22.4371 75.4535L42.1633 65.6954C42.6789 65.4472 43.2709 65.4472 43.7865 65.6954L63.5127 75.4535C64.3147 75.8545 65.4987 75.6444 65.9761 74.5941L63.3026 55.9946C63.2453 55.6509 63.1117 54.9825 63.1117 54.9825L62.978 54.0468Z" fill="url(#paint1_linear_3172_12202)"/>
<mask height="66" id="mask0_3172_12202" maskUnits="userSpaceOnUse" style="mask-type:alpha" width="70" x="8" y="10">
<path d="M62.978 54.0468L62.9207 53.6267L62.6343 52.1563C62.5579 51.6025 62.7297 51.0297 63.1308 50.6286L77.6819 35.6764L54.8813 31.8C54.3275 31.7045 53.831 31.3608 53.5828 30.8452L43.3664 11.3481C42.8317 10.2405 42.9654 10.2787 42.2779 11.5773L32.2334 31.0361C31.9661 31.5326 31.4887 31.8954 30.9349 31.9909L8.28699 35.6764L22.5517 50.2658C22.9527 50.6668 23.411 51.3543 23.3156 51.9081C23.3156 51.9081 23.0673 53.3403 23.0482 53.6267C23.0673 53.7604 22.8191 55.0398 22.8191 55.0398L19.9738 74.5941C20.4321 75.5871 21.5778 75.9118 22.4371 75.4535L42.1633 65.6954C42.6789 65.4472 43.2709 65.4472 43.7865 65.6954L63.5127 75.4535C64.3147 75.8545 65.4987 75.6444 65.9761 74.5941L63.3026 55.9946C63.2453 55.6509 63.1117 54.9825 63.1117 54.9825L62.978 54.0468Z" fill="url(#paint2_linear_3172_12202)"/>
</mask>
<g mask="url(#mask0_3172_12202)">
<rect fill="#FFF177" height="90.678" opacity="0.5" transform="rotate(45 45.7255 -22.1135)" width="45.1934" x="45.7255" y="-22.1135"/>
</g>
<defs>
<linearGradient gradientUnits="userSpaceOnUse" id="paint0_linear_3172_12202" x1="106.984" x2="89.9084" y1="128.081" y2="-82.9144">
<stop offset="0.213542" stop-color="#FFAF36"/>
<stop offset="0.558579" stop-color="#FFEA30"/>
<stop offset="0.8125" stop-color="#F7FF46"/>
</linearGradient>
<linearGradient gradientUnits="userSpaceOnUse" id="paint1_linear_3172_12202" x1="15.3858" x2="7.74934" y1="-16.6164" y2="122.344">
<stop stop-color="#CAD931"/>
<stop offset="0.244792" stop-color="#E7F118"/>
<stop offset="0.735184" stop-color="#E78C09"/>
</linearGradient>
<linearGradient gradientUnits="userSpaceOnUse" id="paint2_linear_3172_12202" x1="18.5876" x2="-2.52909" y1="-16.3342" y2="100.5">
<stop stop-color="#CAD931"/>
<stop offset="0.244792" stop-color="#E7F118"/>
<stop offset="0.735184" stop-color="#DF5202"/>
</linearGradient>
</defs>
</svg>