<?xml version="1.0" encoding="utf-8"?>
<svg xmlns="http://www.w3.org/2000/svg" fill="none" height="32" viewBox="0 0 32 32" width="32">
<path clip-rule="evenodd" d="M19.0685 7.01989C19.0685 8.78158 17.6404 10.2097 15.8787 10.2097C14.117 10.2097 12.6888 8.78158 12.6888 7.01989C12.6888 5.2582 14.117 3.83008 15.8787 3.83008C17.6404 3.83008 19.0685 5.2582 19.0685 7.01989ZM17.354 7.01978C17.354 7.83459 16.6935 8.49514 15.8787 8.49514C15.0639 8.49514 14.4033 7.83459 14.4033 7.01978C14.4033 6.20496 15.0639 5.54442 15.8787 5.54442C16.6935 5.54442 17.354 6.20496 17.354 7.01978Z" fill="#74BFF5" fill-rule="evenodd"/>
<path clip-rule="evenodd" d="M24.2866 7.3803L25.8296 5.30651C26.2838 4.69748 27.1499 4.56076 27.7763 5.01655C28.3829 5.47163 28.518 6.33607 28.0623 6.96146L26.4699 9.10218L24.2866 7.3803ZM20.8956 11.9379L16.891 17.3201L15.2864 16.1263L24.2261 4.11117C25.3374 2.62048 27.4488 2.29801 28.9613 3.40536L28.9682 3.41045C30.4589 4.52168 30.7814 6.63309 29.674 8.1456L29.6696 8.1517L28.041 10.3412L28.0442 10.3437L27.7712 10.7039L19.909 21.2739L18.3042 20.0802L23.0743 13.6673L20.8956 11.9379ZM22.1095 10.348L23.1277 9.01346L25.2651 10.6991L24.2458 12.0438L22.1095 10.348Z" fill="#74BFF5" fill-rule="evenodd" opacity="0.3"/>
<path clip-rule="evenodd" d="M13.8724 21.3705L12.184 23.6345L12.1762 23.6444C11.7929 24.1323 11.1875 24.4658 10.5113 24.4658H5.33493C5.12317 24.4658 4.94055 24.6485 4.94055 24.8602V26.8658C4.94055 27.0775 5.12317 27.2601 5.33493 27.2601H12.918C12.9415 27.2601 12.9571 27.255 12.966 27.2507C12.9739 27.2468 12.9817 27.2411 12.9903 27.2294L12.9936 27.2249L15.2475 24.1878L16.8536 25.3797L14.6031 28.4122C14.6024 28.4131 14.6018 28.414 14.6011 28.4148C14.1923 28.9705 13.5616 29.2601 12.918 29.2601H5.33493C4.01862 29.2601 2.94055 28.1821 2.94055 26.8658V24.8602C2.94055 23.5439 4.01862 22.4658 5.33493 22.4658H10.5113C10.5158 22.4658 10.5286 22.4647 10.5479 22.4549C10.5661 22.4456 10.5843 22.4315 10.5992 22.414L12.2692 20.1748L13.8724 21.3705Z" fill="#74BFF5" fill-rule="evenodd" opacity="0.3"/>
<path clip-rule="evenodd" d="M7.51398 4.31312C6.50883 2.94267 4.58104 2.67762 3.23882 3.67623C1.86789 4.68189 1.60333 6.61087 2.60354 7.95309L4.48541 10.4845L9.32618 6.75057L7.51553 4.31523L7.51398 4.31312ZM11.6296 9.84872L9.14837 11.751L6.77797 13.5684L17.6602 28.2067L17.6657 28.2137C17.9913 28.6281 18.5031 28.9078 19.0685 28.9078H26.6516C27.7847 28.9078 28.7364 28.014 28.7127 26.8395V24.8603C28.7127 23.7281 27.7838 22.7993 26.6516 22.7993H21.4753C21.3319 22.7993 21.2119 22.7383 21.1342 22.6324L11.6296 9.84872Z" fill="#74BFF5" fill-rule="evenodd"/>
</svg>