<?xml version="1.0" encoding="utf-8"?>
<svg xmlns="http://www.w3.org/2000/svg" fill="none" height="20" viewBox="0 0 20 20" width="20">
<g clip-path="url(#clip0_769_1128)">
<path clip-rule="evenodd" d="M3.2173 8.66392C3.2173 4.96837 6.26361 1.97254 10.0214 1.97254C13.7584 1.97254 16.7918 4.93526 16.8253 8.60255C16.8159 8.67171 16.811 8.74236 16.811 8.8142V9.10517C16.8105 9.11288 16.81 9.12059 16.8095 9.12829L16.811 9.21613V13.305C16.7966 13.4467 16.8057 13.5837 16.8349 13.7139L13.6297 16.0294C13.3365 15.8497 12.9955 15.7355 12.6266 15.7094C11.4195 15.6242 10.3703 16.5146 10.2834 17.6982C10.1964 18.8818 11.1045 19.9105 12.3116 19.9958C13.5188 20.0811 14.5679 19.1907 14.6549 18.0071C14.6688 17.8174 14.6572 17.6317 14.6229 17.4533L18.1006 14.9409C18.1392 14.9166 18.1751 14.8884 18.2083 14.857C18.2733 14.8645 18.3392 14.8684 18.4055 14.8684C19.2913 14.8684 20 14.1736 20 13.305V8.8142C20 8.05063 19.4523 7.42131 18.7181 7.28032C18.0445 3.15384 14.4073 0.00146484 10.0214 0.00146484C5.63791 0.00146484 2.00227 3.15043 1.32587 7.27362C0.572991 7.40019 0.00674701 8.03779 0.00674701 8.8142V13.305C-0.0818363 14.1736 0.715402 14.8684 1.60124 14.8684C1.69781 14.8684 1.79228 14.8602 1.88396 14.8443C2.4229 16.0994 3.25366 17.2037 4.29263 18.0749C4.69616 18.4133 5.29551 18.3129 5.61501 17.8964C5.96083 17.4455 5.84278 16.8045 5.4188 16.4238C4.05366 15.1984 3.19719 13.4341 3.19719 11.4732V10.1811V9.97441L3.2173 9.2088C3.21002 9.10411 3.21269 8.96113 3.21511 8.83123C3.21623 8.77093 3.2173 8.71345 3.2173 8.66392Z" fill="url(#paint0_linear_769_1128)" fill-opacity="0.6" fill-rule="evenodd" opacity="0.6"/>
<path clip-rule="evenodd" d="M4.51172 8.7057C4.51172 5.66294 6.97837 3.19629 10.0211 3.19629C13.0639 3.19629 15.5306 5.66294 15.5306 8.7057V11.1723C15.5306 12.6191 14.9729 13.9356 14.0607 14.9187C13.6555 14.707 13.1997 14.5732 12.7123 14.5387C11.1966 14.4316 9.84209 15.3193 9.31436 16.6368C6.60539 16.2898 4.51172 13.9755 4.51172 11.1722V8.7057ZM5.88869 11.4438V12.2732H9.49092V11.3436H7.51872V11.3133L8.10088 10.7868C8.45413 10.4854 8.72659 10.2268 8.91827 10.0109C9.11153 9.79502 9.24538 9.59776 9.31984 9.41913C9.39429 9.24051 9.43152 9.06034 9.43152 8.87861C9.43152 8.59281 9.35627 8.34196 9.20578 8.12606C9.05688 7.90861 8.84619 7.7393 8.57373 7.61815C8.30126 7.497 7.98048 7.43642 7.61139 7.43642C7.25338 7.43642 6.93894 7.50088 6.66806 7.6298C6.39877 7.75717 6.18966 7.9389 6.04076 8.17499C5.89185 8.41108 5.8174 8.69144 5.8174 9.01607H6.93181C6.93181 8.87162 6.95953 8.74891 7.01498 8.64795C7.07201 8.54699 7.15121 8.4701 7.25259 8.41729C7.35397 8.36293 7.47199 8.33575 7.60664 8.33575C7.7397 8.33575 7.85772 8.36138 7.96068 8.41263C8.06365 8.46389 8.14444 8.53689 8.20305 8.63164C8.26166 8.72484 8.29097 8.83745 8.29097 8.96947C8.29097 9.08752 8.26641 9.19702 8.21731 9.29798C8.1682 9.39739 8.09692 9.4968 8.00345 9.5962C7.90999 9.69406 7.79673 9.80201 7.66367 9.92005L5.88869 11.4438ZM9.99169 10.5817V11.4811H12.3417V12.2732H13.4656V11.4811H14.0478V10.5724H13.4656V7.50166H12.8003H12.3655H11.9853L9.99169 10.5817ZM12.3655 8.72251H12.3274L11.1608 10.5351V10.5724H12.3655V8.72251Z" fill="#B0AFFF" fill-rule="evenodd"/>
</g>
<defs>
<linearGradient gradientUnits="userSpaceOnUse" id="paint0_linear_769_1128" x1="12.6876" x2="12.3554" y1="22.7485" y2="9.01911">
<stop offset="0.0926412" stop-color="#CBC9FF"/>
<stop offset="0.730406" stop-color="#ABAAFF"/>
</linearGradient>
<clipPath id="clip0_769_1128">
<rect fill="white" height="20" width="20"/>
</clipPath>
</defs>
</svg>