<?xml version="1.0" encoding="utf-8"?>
<svg xmlns="http://www.w3.org/2000/svg" fill="none" height="20" viewBox="0 0 112 20" width="112">
<g clip-path="url(#clip0_1468_130992)">
<path d="M3.43738 10.1737L9.18815 0.625V7.56187L3.43738 10.1737Z" fill="#0B2233"/>
<path d="M3.43738 10.1737L9.18815 0.625V7.56187L3.43738 10.1737Z" fill="white" fill-opacity="0.2"/>
<path d="M9.18815 13.5769L3.43738 10.1743L9.18815 7.5625V13.5769Z" fill="#0B2233"/>
<path d="M9.18815 13.5769L3.43738 10.1743L9.18815 7.5625V13.5769Z" fill="white" fill-opacity="0.2"/>
<path d="M14.9449 10.1737L9.18811 7.56187V0.625L14.9449 10.1737Z" fill="#0B2233"/>
<path d="M14.9449 10.1737L9.18811 7.56187V0.625L14.9449 10.1737Z" fill="white" fill-opacity="0.2"/>
<path d="M9.18811 13.5769V7.5625L14.9449 10.1743L9.18811 13.5769Z" fill="#0B2233"/>
<path d="M9.18811 13.5769V7.5625L14.9449 10.1743L9.18811 13.5769Z" fill="white" fill-opacity="0.2"/>
<path d="M9.18815 19.3755L3.43738 11.2705L9.18815 14.6641V19.3755Z" fill="#0B2233"/>
<path d="M9.18815 19.3755L3.43738 11.2705L9.18815 14.6641V19.3755Z" fill="white" fill-opacity="0.2"/>
<path d="M9.18811 19.3755V14.6641L14.9449 11.2705L9.18811 19.3755Z" fill="#0B2233"/>
<path d="M9.18811 19.3755V14.6641L14.9449 11.2705L9.18811 19.3755Z" fill="white" fill-opacity="0.2"/>
<path d="M26.5304 12.9269C26.3873 11.2316 25.0811 9.67949 23.283 9.67949C21.4803 9.67949 20.21 11.2316 20.031 12.9269H26.5304ZM27.264 13.249C27.2595 13.4503 27.094 13.6113 26.8927 13.6113H20.031C20.2055 15.3066 21.4803 16.8588 23.283 16.8588C24.513 16.8588 25.4255 16.3936 26.1099 15.4095C26.1725 15.3021 26.2844 15.2395 26.4096 15.235C26.593 15.2306 26.7451 15.3737 26.7496 15.5571V15.575C26.7496 15.6376 26.7317 15.7002 26.6959 15.7494C26.0026 16.9482 24.6249 17.5387 23.283 17.5387C20.9749 17.5387 19.3198 15.4676 19.3198 13.2669C19.3198 11.0617 20.9659 8.99512 23.283 8.99512C25.6 8.99512 27.255 11.0438 27.264 13.249Z" fill="#0B2233"/>
<path d="M26.5304 12.9269C26.3873 11.2316 25.0811 9.67949 23.283 9.67949C21.4803 9.67949 20.21 11.2316 20.031 12.9269H26.5304ZM27.264 13.249C27.2595 13.4503 27.094 13.6113 26.8927 13.6113H20.031C20.2055 15.3066 21.4803 16.8588 23.283 16.8588C24.513 16.8588 25.4255 16.3936 26.1099 15.4095C26.1725 15.3021 26.2844 15.2395 26.4096 15.235C26.593 15.2306 26.7451 15.3737 26.7496 15.5571V15.575C26.7496 15.6376 26.7317 15.7002 26.6959 15.7494C26.0026 16.9482 24.6249 17.5387 23.283 17.5387C20.9749 17.5387 19.3198 15.4676 19.3198 13.2669C19.3198 11.0617 20.9659 8.99512 23.283 8.99512C25.6 8.99512 27.255 11.0438 27.264 13.249Z" fill="white" fill-opacity="0.2"/>
<path d="M36.273 9.28553C36.4609 9.29 36.6085 9.44208 36.613 9.62548C36.6174 9.80887 36.4743 9.96096 36.2909 9.96543H34.4301V17.1984C34.4301 17.3862 34.278 17.5383 34.0902 17.5383C33.9023 17.5338 33.7547 17.3818 33.7502 17.1984V9.9699H31.9789C31.7955 9.97438 31.6434 9.83124 31.6389 9.64784V9.62995C31.6389 9.44208 31.791 9.29 31.9789 9.29H33.7502V6.6509C33.7502 6.47197 33.8844 6.31542 34.0588 6.28858C34.2467 6.26174 34.4167 6.39593 34.439 6.57933C34.439 6.59722 34.4435 6.61064 34.439 6.62853V9.29L36.273 9.28553Z" fill="#0B2233"/>
<path d="M36.273 9.28553C36.4609 9.29 36.6085 9.44208 36.613 9.62548C36.6174 9.80887 36.4743 9.96096 36.2909 9.96543H34.4301V17.1984C34.4301 17.3862 34.278 17.5383 34.0902 17.5383C33.9023 17.5338 33.7547 17.3818 33.7502 17.1984V9.9699H31.9789C31.7955 9.97438 31.6434 9.83124 31.6389 9.64784V9.62995C31.6389 9.44208 31.791 9.29 31.9789 9.29H33.7502V6.6509C33.7502 6.47197 33.8844 6.31542 34.0588 6.28858C34.2467 6.26174 34.4167 6.39593 34.439 6.57933C34.439 6.59722 34.4435 6.61064 34.439 6.62853V9.29L36.273 9.28553Z" fill="white" fill-opacity="0.2"/>
<path d="M47.7175 12.8071V17.1862C47.713 17.3741 47.5609 17.5217 47.3775 17.5262C47.1942 17.5307 47.0421 17.3875 47.0376 17.2041V12.8071C47.0376 11.3265 46.2011 9.85937 44.5551 9.85937C42.4438 9.85937 41.5313 11.7023 41.6565 13.5944C41.6565 13.6481 41.6789 13.8628 41.6789 13.8941V17.1728C41.6789 17.3517 41.5492 17.5083 41.3702 17.5351C41.1824 17.562 41.0124 17.4278 40.99 17.2444C40.99 17.2265 40.9856 17.2086 40.99 17.1952V2.80089C40.99 2.61302 41.1421 2.46094 41.33 2.46094C41.5178 2.46541 41.6655 2.61749 41.6699 2.80089V10.9329C42.2604 9.87727 43.316 9.16158 44.5461 9.16158C46.5679 9.16605 47.7175 10.9329 47.7175 12.8071Z" fill="#0B2233"/>
<path d="M47.7175 12.8071V17.1862C47.713 17.3741 47.5609 17.5217 47.3775 17.5262C47.1942 17.5307 47.0421 17.3875 47.0376 17.2041V12.8071C47.0376 11.3265 46.2011 9.85937 44.5551 9.85937C42.4438 9.85937 41.5313 11.7023 41.6565 13.5944C41.6565 13.6481 41.6789 13.8628 41.6789 13.8941V17.1728C41.6789 17.3517 41.5492 17.5083 41.3702 17.5351C41.1824 17.562 41.0124 17.4278 40.99 17.2444C40.99 17.2265 40.9856 17.2086 40.99 17.1952V2.80089C40.99 2.61302 41.1421 2.46094 41.33 2.46094C41.5178 2.46541 41.6655 2.61749 41.6699 2.80089V10.9329C42.2604 9.87727 43.316 9.16158 44.5461 9.16158C46.5679 9.16605 47.7175 10.9329 47.7175 12.8071Z" fill="white" fill-opacity="0.2"/>
<path d="M59.2986 12.9269C59.1555 11.2316 57.8494 9.67949 56.0512 9.67949C54.2485 9.67949 52.9782 11.2316 52.8037 12.9269H59.2986ZM60.0411 13.249C60.0367 13.4503 59.8712 13.6113 59.6699 13.6113H52.8082C52.9827 15.3066 54.2575 16.8588 56.0557 16.8588C57.2857 16.8588 58.1982 16.3936 58.8826 15.4095C58.9497 15.3021 59.0616 15.2395 59.1823 15.235C59.3657 15.2306 59.5178 15.3737 59.5223 15.5571V15.575C59.5223 15.6376 59.5044 15.7002 59.4686 15.7494C58.7753 16.9482 57.3976 17.5387 56.0557 17.5387C53.7476 17.5387 52.0925 15.4676 52.0925 13.2669C52.0925 11.0617 53.7386 8.99512 56.0557 8.99512C58.3548 8.99512 60.0322 11.0438 60.0411 13.249Z" fill="#0B2233"/>
<path d="M59.2986 12.9269C59.1555 11.2316 57.8494 9.67949 56.0512 9.67949C54.2485 9.67949 52.9782 11.2316 52.8037 12.9269H59.2986ZM60.0411 13.249C60.0367 13.4503 59.8712 13.6113 59.6699 13.6113H52.8082C52.9827 15.3066 54.2575 16.8588 56.0557 16.8588C57.2857 16.8588 58.1982 16.3936 58.8826 15.4095C58.9497 15.3021 59.0616 15.2395 59.1823 15.235C59.3657 15.2306 59.5178 15.3737 59.5223 15.5571V15.575C59.5223 15.6376 59.5044 15.7002 59.4686 15.7494C58.7753 16.9482 57.3976 17.5387 56.0557 17.5387C53.7476 17.5387 52.0925 15.4676 52.0925 13.2669C52.0925 11.0617 53.7386 8.99512 56.0557 8.99512C58.3548 8.99512 60.0322 11.0438 60.0411 13.249Z" fill="white" fill-opacity="0.2"/>
<path d="M68.3614 9.658C68.3748 9.85034 68.2317 10.0158 68.0393 10.0293C66.022 10.329 65.1095 11.975 65.1095 13.8895V17.1727C65.1095 17.3517 64.9797 17.5082 64.8008 17.5351C64.613 17.5619 64.443 17.4277 64.4206 17.2443C64.4161 17.2264 64.4161 17.2085 64.4161 17.1951V9.71168C64.4161 9.53275 64.5503 9.3762 64.7248 9.34936C64.9082 9.32252 65.0782 9.45671 65.105 9.64011C65.105 9.658 65.1095 9.67142 65.105 9.68931V11.2101C65.6731 10.2484 66.8047 9.33594 67.9812 9.33594C68.1646 9.33594 68.3614 9.46118 68.3614 9.658Z" fill="#0B2233"/>
<path d="M68.3614 9.658C68.3748 9.85034 68.2317 10.0158 68.0393 10.0293C66.022 10.329 65.1095 11.975 65.1095 13.8895V17.1727C65.1095 17.3517 64.9797 17.5082 64.8008 17.5351C64.613 17.5619 64.443 17.4277 64.4206 17.2443C64.4161 17.2264 64.4161 17.2085 64.4161 17.1951V9.71168C64.4161 9.53275 64.5503 9.3762 64.7248 9.34936C64.9082 9.32252 65.0782 9.45671 65.105 9.64011C65.105 9.658 65.1095 9.67142 65.105 9.68931V11.2101C65.6731 10.2484 66.8047 9.33594 67.9812 9.33594C68.1646 9.33594 68.3614 9.46118 68.3614 9.658Z" fill="white" fill-opacity="0.2"/>
<path d="M79.9522 12.9269C79.8046 11.2316 78.503 9.67949 76.7003 9.67949C74.9021 9.67949 73.6273 11.2316 73.4529 12.9269H79.9522ZM80.6858 13.249C80.6813 13.4503 80.5158 13.6113 80.3145 13.6113H73.4529C73.6273 15.3066 74.9021 16.8588 76.7003 16.8588C77.9304 16.8588 78.8429 16.3936 79.5273 15.4095C79.5899 15.3021 79.7017 15.2395 79.827 15.235C80.0104 15.2306 80.1625 15.3737 80.1669 15.5571V15.575C80.1669 15.6376 80.149 15.7002 80.1133 15.7494C79.4199 16.9482 78.0422 17.5387 76.7003 17.5387C74.3922 17.5387 72.7372 15.4676 72.7372 13.2669C72.7372 11.0617 74.3833 8.99512 76.7003 8.99512C79.0218 8.99512 80.6769 11.0438 80.6858 13.249Z" fill="#0B2233"/>
<path d="M79.9522 12.9269C79.8046 11.2316 78.503 9.67949 76.7003 9.67949C74.9021 9.67949 73.6273 11.2316 73.4529 12.9269H79.9522ZM80.6858 13.249C80.6813 13.4503 80.5158 13.6113 80.3145 13.6113H73.4529C73.6273 15.3066 74.9021 16.8588 76.7003 16.8588C77.9304 16.8588 78.8429 16.3936 79.5273 15.4095C79.5899 15.3021 79.7017 15.2395 79.827 15.235C80.0104 15.2306 80.1625 15.3737 80.1669 15.5571V15.575C80.1669 15.6376 80.149 15.7002 80.1133 15.7494C79.4199 16.9482 78.0422 17.5387 76.7003 17.5387C74.3922 17.5387 72.7372 15.4676 72.7372 13.2669C72.7372 11.0617 74.3833 8.99512 76.7003 8.99512C79.0218 8.99512 80.6769 11.0438 80.6858 13.249Z" fill="white" fill-opacity="0.2"/>
<path d="M91.7614 9.5054V17.0201C91.757 17.208 91.6049 17.3556 91.4215 17.3601C91.2381 17.3646 91.086 17.2214 91.0815 17.038V15.5932C90.5135 16.7204 89.507 17.539 88.2277 17.539C86.188 17.539 85.0608 15.7722 85.0608 13.8979V9.50093C85.0608 9.31306 85.2129 9.16098 85.4007 9.16098C85.5886 9.16545 85.7362 9.31753 85.7407 9.50093V13.8979C85.7407 15.3785 86.5772 16.8457 88.2232 16.8457C90.5313 16.8457 91.0771 14.6852 91.0771 12.2921V9.48751C91.0815 9.29517 91.2381 9.14308 91.4304 9.14756C91.4707 9.14756 91.5065 9.1565 91.5422 9.16992C91.6764 9.22807 91.7614 9.36226 91.7614 9.5054Z" fill="#0B2233"/>
<path d="M91.7614 9.5054V17.0201C91.757 17.208 91.6049 17.3556 91.4215 17.3601C91.2381 17.3646 91.086 17.2214 91.0815 17.038V15.5932C90.5135 16.7204 89.507 17.539 88.2277 17.539C86.188 17.539 85.0608 15.7722 85.0608 13.8979V9.50093C85.0608 9.31306 85.2129 9.16098 85.4007 9.16098C85.5886 9.16545 85.7362 9.31753 85.7407 9.50093V13.8979C85.7407 15.3785 86.5772 16.8457 88.2232 16.8457C90.5313 16.8457 91.0771 14.6852 91.0771 12.2921V9.48751C91.0815 9.29517 91.2381 9.14308 91.4304 9.14756C91.4707 9.14756 91.5065 9.1565 91.5422 9.16992C91.6764 9.22807 91.7614 9.36226 91.7614 9.5054Z" fill="white" fill-opacity="0.2"/>
<path d="M108.885 12.7894V17.1865C108.88 17.3743 108.728 17.5219 108.545 17.5264C108.361 17.5309 108.209 17.3877 108.205 17.2044V12.7894C108.205 11.3089 107.368 9.85959 105.722 9.85959C103.651 9.85959 102.868 12.0738 102.868 13.7914V17.1865C102.864 17.3743 102.712 17.5219 102.528 17.5264C102.345 17.5309 102.193 17.3877 102.189 17.2044V12.7894C102.189 11.3089 101.352 9.85959 99.706 9.85959C97.6171 9.85959 96.7582 11.5057 96.8298 13.6975C96.8298 13.7512 96.8522 13.8406 96.8298 13.8719V17.173C96.8298 17.352 96.7001 17.5085 96.5212 17.5354C96.3333 17.5622 96.1633 17.428 96.141 17.2446C96.1365 17.2267 96.1365 17.2088 96.1365 17.1954V9.69856C96.1365 9.51964 96.2707 9.36308 96.4451 9.33624C96.633 9.30941 96.803 9.4436 96.8253 9.62699C96.8253 9.64489 96.8298 9.6583 96.8253 9.6762V10.9287C97.4158 9.87301 98.4714 9.17969 99.7015 9.17969C101.097 9.17969 102.184 10.0698 102.631 11.3625C103.199 10.0788 104.309 9.17969 105.727 9.17969C107.74 9.17969 108.885 10.9287 108.885 12.7894Z" fill="#0B2233"/>
<path d="M108.885 12.7894V17.1865C108.88 17.3743 108.728 17.5219 108.545 17.5264C108.361 17.5309 108.209 17.3877 108.205 17.2044V12.7894C108.205 11.3089 107.368 9.85959 105.722 9.85959C103.651 9.85959 102.868 12.0738 102.868 13.7914V17.1865C102.864 17.3743 102.712 17.5219 102.528 17.5264C102.345 17.5309 102.193 17.3877 102.189 17.2044V12.7894C102.189 11.3089 101.352 9.85959 99.706 9.85959C97.6171 9.85959 96.7582 11.5057 96.8298 13.6975C96.8298 13.7512 96.8522 13.8406 96.8298 13.8719V17.173C96.8298 17.352 96.7001 17.5085 96.5212 17.5354C96.3333 17.5622 96.1633 17.428 96.141 17.2446C96.1365 17.2267 96.1365 17.2088 96.1365 17.1954V9.69856C96.1365 9.51964 96.2707 9.36308 96.4451 9.33624C96.633 9.30941 96.803 9.4436 96.8253 9.62699C96.8253 9.64489 96.8298 9.6583 96.8253 9.6762V10.9287C97.4158 9.87301 98.4714 9.17969 99.7015 9.17969C101.097 9.17969 102.184 10.0698 102.631 11.3625C103.199 10.0788 104.309 9.17969 105.727 9.17969C107.74 9.17969 108.885 10.9287 108.885 12.7894Z" fill="white" fill-opacity="0.2"/>
</g>
<defs>
<clipPath id="clip0_1468_130992">
<rect fill="white" height="18.7499" transform="translate(3.43738 0.625)" width="105.447"/>
</clipPath>
</defs>
</svg>