<?xml version="1.0" encoding="utf-8"?>
<svg xmlns="http://www.w3.org/2000/svg" fill="none" height="20" viewBox="0 0 99 20" width="99">
<g clip-path="url(#clip0_1468_130995)">
<g clip-path="url(#clip1_1468_130995)">
<path d="M8.54165 9.92824C8.54165 9.95439 8.53791 9.98053 8.53791 10.0067C8.53791 10.7313 9.10191 11.3326 9.82651 11.3737H9.90121C10.6557 11.3737 11.2645 10.7612 11.2645 10.0067C11.2645 9.2522 10.652 8.63965 9.89748 8.63965C9.17287 8.63965 8.57527 9.20364 8.53418 9.92824C8.53791 9.92824 8.54165 9.92824 8.54165 9.92824Z" fill="#0B2233"/>
<path d="M8.54165 9.92824C8.54165 9.95439 8.53791 9.98053 8.53791 10.0067C8.53791 10.7313 9.10191 11.3326 9.82651 11.3737H9.90121C10.6557 11.3737 11.2645 10.7612 11.2645 10.0067C11.2645 9.2522 10.652 8.63965 9.89748 8.63965C9.17287 8.63965 8.57527 9.20364 8.53418 9.92824C8.53791 9.92824 8.54165 9.92824 8.54165 9.92824Z" fill="white" fill-opacity="0.2"/>
<path d="M3.44698 9.58105C3.43951 9.58105 3.43204 9.58105 3.42084 9.58105C3.17806 9.58105 2.9801 9.77901 2.9801 10.0218C2.9801 10.2646 3.17806 10.4625 3.42084 10.4625C3.65615 10.4625 3.84664 10.2795 3.86158 10.0479C3.86158 10.0405 3.86158 10.0293 3.86158 10.0218C3.86531 9.78648 3.68229 9.59599 3.44698 9.58105Z" fill="#0B2233"/>
<path d="M3.44698 9.58105C3.43951 9.58105 3.43204 9.58105 3.42084 9.58105C3.17806 9.58105 2.9801 9.77901 2.9801 10.0218C2.9801 10.2646 3.17806 10.4625 3.42084 10.4625C3.65615 10.4625 3.84664 10.2795 3.86158 10.0479C3.86158 10.0405 3.86158 10.0293 3.86158 10.0218C3.86531 9.78648 3.68229 9.59599 3.44698 9.58105Z" fill="white" fill-opacity="0.2"/>
<path d="M8.45566 1.99991C8.60133 1.92521 8.69471 1.77207 8.69471 1.60773C8.69471 1.36495 8.49675 1.16699 8.25397 1.16699C8.01119 1.16699 7.81323 1.36495 7.81323 1.60773C7.81323 1.67496 7.82817 1.74219 7.85805 1.80569C7.93275 1.95509 8.08589 2.04847 8.25397 2.04847C8.32494 2.04847 8.39217 2.03353 8.45566 1.99991Z" fill="#0B2233"/>
<path d="M8.45566 1.99991C8.60133 1.92521 8.69471 1.77207 8.69471 1.60773C8.69471 1.36495 8.49675 1.16699 8.25397 1.16699C8.01119 1.16699 7.81323 1.36495 7.81323 1.60773C7.81323 1.67496 7.82817 1.74219 7.85805 1.80569C7.93275 1.95509 8.08589 2.04847 8.25397 2.04847C8.32494 2.04847 8.39217 2.03353 8.45566 1.99991Z" fill="white" fill-opacity="0.2"/>
<path d="M9.84143 4.41635C10.073 4.30057 10.2149 4.06526 10.2149 3.80754C10.2149 3.4303 9.90866 3.12402 9.53142 3.12402C9.15418 3.12402 8.8479 3.4303 8.8479 3.80754C8.8479 3.91586 8.87405 4.02044 8.91887 4.11381C9.03465 4.34539 9.26996 4.49106 9.52768 4.49106C9.63973 4.49106 9.74431 4.46491 9.84143 4.41635Z" fill="#0B2233"/>
<path d="M9.84143 4.41635C10.073 4.30057 10.2149 4.06526 10.2149 3.80754C10.2149 3.4303 9.90866 3.12402 9.53142 3.12402C9.15418 3.12402 8.8479 3.4303 8.8479 3.80754C8.8479 3.91586 8.87405 4.02044 8.91887 4.11381C9.03465 4.34539 9.26996 4.49106 9.52768 4.49106C9.63973 4.49106 9.74431 4.46491 9.84143 4.41635Z" fill="white" fill-opacity="0.2"/>
<path d="M5.17635 6.08246C5.26972 6.14222 5.37431 6.17584 5.48636 6.17584C5.79637 6.17584 6.05035 5.92559 6.05035 5.61185C6.05035 5.30184 5.8001 5.04785 5.48636 5.04785C5.29587 5.04785 5.12032 5.14496 5.01574 5.30184C4.95598 5.39148 4.92236 5.49979 4.92236 5.61185C4.92236 5.80233 5.01947 5.97788 5.17635 6.08246Z" fill="#0B2233"/>
<path d="M5.17635 6.08246C5.26972 6.14222 5.37431 6.17584 5.48636 6.17584C5.79637 6.17584 6.05035 5.92559 6.05035 5.61185C6.05035 5.30184 5.8001 5.04785 5.48636 5.04785C5.29587 5.04785 5.12032 5.14496 5.01574 5.30184C4.95598 5.39148 4.92236 5.49979 4.92236 5.61185C4.92236 5.80233 5.01947 5.97788 5.17635 6.08246Z" fill="white" fill-opacity="0.2"/>
<path d="M6.00553 9.33496C5.99433 9.33496 5.97939 9.33496 5.96818 9.33496C5.59094 9.33496 5.28467 9.64124 5.28467 10.0185C5.28467 10.3957 5.59094 10.702 5.96818 10.702C6.33048 10.702 6.62929 10.4181 6.64796 10.0596C6.64796 10.0484 6.64796 10.0334 6.64796 10.0222C6.6517 9.65244 6.36784 9.35364 6.00553 9.33496Z" fill="#0B2233"/>
<path d="M6.00553 9.33496C5.99433 9.33496 5.97939 9.33496 5.96818 9.33496C5.59094 9.33496 5.28467 9.64124 5.28467 10.0185C5.28467 10.3957 5.59094 10.702 5.96818 10.702C6.33048 10.702 6.62929 10.4181 6.64796 10.0596C6.64796 10.0484 6.64796 10.0334 6.64796 10.0222C6.6517 9.65244 6.36784 9.35364 6.00553 9.33496Z" fill="white" fill-opacity="0.2"/>
<path d="M5.25105 13.9219C5.06056 14.019 4.94104 14.2132 4.94104 14.4224C4.94104 14.7324 5.19129 14.9864 5.5013 14.9864C5.81131 14.9864 6.06529 14.7361 6.06529 14.4224C6.06529 14.3328 6.04288 14.2468 6.00553 14.1684C5.90842 13.9779 5.7142 13.8584 5.50503 13.8584C5.41539 13.8621 5.32949 13.8808 5.25105 13.9219Z" fill="#0B2233"/>
<path d="M5.25105 13.9219C5.06056 14.019 4.94104 14.2132 4.94104 14.4224C4.94104 14.7324 5.19129 14.9864 5.5013 14.9864C5.81131 14.9864 6.06529 14.7361 6.06529 14.4224C6.06529 14.3328 6.04288 14.2468 6.00553 14.1684C5.90842 13.9779 5.7142 13.8584 5.50503 13.8584C5.41539 13.8621 5.32949 13.8808 5.25105 13.9219Z" fill="white" fill-opacity="0.2"/>
<path d="M7.90283 7.92261C8.03356 8.00852 8.18669 8.05334 8.34356 8.05334C8.78804 8.05334 9.1466 7.69478 9.1466 7.2503C9.1466 6.80583 8.78804 6.44727 8.34356 6.44727C8.07464 6.44727 7.82066 6.58546 7.67125 6.80957C7.58535 6.94029 7.54053 7.09343 7.54053 7.2503C7.54053 7.52296 7.67499 7.77695 7.90283 7.92261Z" fill="#0B2233"/>
<path d="M7.90283 7.92261C8.03356 8.00852 8.18669 8.05334 8.34356 8.05334C8.78804 8.05334 9.1466 7.69478 9.1466 7.2503C9.1466 6.80583 8.78804 6.44727 8.34356 6.44727C8.07464 6.44727 7.82066 6.58546 7.67125 6.80957C7.58535 6.94029 7.54053 7.09343 7.54053 7.2503C7.54053 7.52296 7.67499 7.77695 7.90283 7.92261Z" fill="white" fill-opacity="0.2"/>
<path d="M16.3179 4.36436C16.43 4.43532 16.557 4.47641 16.6914 4.47641C17.0687 4.47641 17.375 4.17013 17.375 3.79289C17.375 3.41565 17.0687 3.10938 16.6914 3.10938C16.4599 3.10938 16.247 3.22516 16.12 3.41939C16.049 3.53144 16.0079 3.66216 16.0079 3.79289C16.0079 4.02446 16.1237 4.23736 16.3179 4.36436Z" fill="#0B2233"/>
<path d="M16.3179 4.36436C16.43 4.43532 16.557 4.47641 16.6914 4.47641C17.0687 4.47641 17.375 4.17013 17.375 3.79289C17.375 3.41565 17.0687 3.10938 16.6914 3.10938C16.4599 3.10938 16.247 3.22516 16.12 3.41939C16.049 3.53144 16.0079 3.66216 16.0079 3.79289C16.0079 4.02446 16.1237 4.23736 16.3179 4.36436Z" fill="white" fill-opacity="0.2"/>
<path d="M17.7187 1.95406C17.7897 2.00262 17.8756 2.02503 17.9615 2.02503C18.2043 2.02503 18.4022 1.82707 18.4022 1.58429C18.4022 1.34151 18.2043 1.14355 17.9615 1.14355C17.8121 1.14355 17.6739 1.21826 17.5917 1.34525C17.5432 1.41621 17.5208 1.50212 17.5208 1.58803C17.517 1.73369 17.5955 1.87189 17.7187 1.95406Z" fill="#0B2233"/>
<path d="M17.7187 1.95406C17.7897 2.00262 17.8756 2.02503 17.9615 2.02503C18.2043 2.02503 18.4022 1.82707 18.4022 1.58429C18.4022 1.34151 18.2043 1.14355 17.9615 1.14355C17.8121 1.14355 17.6739 1.21826 17.5917 1.34525C17.5432 1.41621 17.5208 1.50212 17.5208 1.58803C17.517 1.73369 17.5955 1.87189 17.7187 1.95406Z" fill="white" fill-opacity="0.2"/>
<path d="M16.4263 8.62874C16.4002 8.62874 16.374 8.625 16.3479 8.625C15.5934 8.625 14.9808 9.23755 14.9808 9.99203C14.9808 10.7166 15.5448 11.3142 16.2694 11.3553C16.2956 11.3553 16.3217 11.3553 16.3479 11.3553C17.1023 11.3553 17.7149 10.7428 17.7149 9.9883C17.7149 9.65214 17.5916 9.32719 17.3675 9.07694C17.1248 8.81175 16.7886 8.64741 16.4263 8.62874Z" fill="#0B2233"/>
<path d="M16.4263 8.62874C16.4002 8.62874 16.374 8.625 16.3479 8.625C15.5934 8.625 14.9808 9.23755 14.9808 9.99203C14.9808 10.7166 15.5448 11.3142 16.2694 11.3553C16.2956 11.3553 16.3217 11.3553 16.3479 11.3553C17.1023 11.3553 17.7149 10.7428 17.7149 9.9883C17.7149 9.65214 17.5916 9.32719 17.3675 9.07694C17.1248 8.81175 16.7886 8.64741 16.4263 8.62874Z" fill="white" fill-opacity="0.2"/>
<path d="M10.2896 7.83017C10.5212 8.28958 10.9918 8.58091 11.5072 8.58091H11.5109C12.2654 8.58091 12.878 7.96836 12.878 7.21388C12.878 7.00098 12.8257 6.78809 12.7323 6.5976C12.5007 6.13819 12.0301 5.85059 11.5184 5.85059C11.5147 5.85059 11.5147 5.85059 11.5109 5.85059C10.7565 5.85059 10.1476 6.46314 10.1476 7.21762C10.1439 7.43052 10.1962 7.63968 10.2896 7.83017Z" fill="#0B2233"/>
<path d="M10.2896 7.83017C10.5212 8.28958 10.9918 8.58091 11.5072 8.58091H11.5109C12.2654 8.58091 12.878 7.96836 12.878 7.21388C12.878 7.00098 12.8257 6.78809 12.7323 6.5976C12.5007 6.13819 12.0301 5.85059 11.5184 5.85059C11.5147 5.85059 11.5147 5.85059 11.5109 5.85059C10.7565 5.85059 10.1476 6.46314 10.1476 7.21762C10.1439 7.43052 10.1962 7.63968 10.2896 7.83017Z" fill="white" fill-opacity="0.2"/>
<path d="M21.0017 6.07736C21.1922 5.98025 21.3118 5.78602 21.3118 5.57686C21.3118 5.26685 21.0615 5.0166 20.7478 5.0166C20.4377 5.0166 20.1875 5.26685 20.1875 5.57686C20.1875 5.66277 20.2062 5.75241 20.2473 5.83084C20.3444 6.02133 20.5386 6.14085 20.7515 6.14085C20.8374 6.13712 20.9233 6.11844 21.0017 6.07736Z" fill="#0B2233"/>
<path d="M21.0017 6.07736C21.1922 5.98025 21.3118 5.78602 21.3118 5.57686C21.3118 5.26685 21.0615 5.0166 20.7478 5.0166C20.4377 5.0166 20.1875 5.26685 20.1875 5.57686C20.1875 5.66277 20.2062 5.75241 20.2473 5.83084C20.3444 6.02133 20.5386 6.14085 20.7515 6.14085C20.8374 6.13712 20.9233 6.11844 21.0017 6.07736Z" fill="white" fill-opacity="0.2"/>
<path d="M17.5394 6.51559C17.2704 6.65379 17.0986 6.93019 17.0986 7.23273C17.0986 7.6772 17.4572 8.03576 17.9017 8.03576C18.3461 8.03576 18.7047 7.6772 18.7047 7.23273C18.7047 7.10573 18.6748 6.98248 18.6188 6.87042C18.4806 6.59777 18.2042 6.42969 17.9017 6.42969C17.7747 6.42969 17.6514 6.45957 17.5394 6.51559Z" fill="#0B2233"/>
<path d="M17.5394 6.51559C17.2704 6.65379 17.0986 6.93019 17.0986 7.23273C17.0986 7.6772 17.4572 8.03576 17.9017 8.03576C18.3461 8.03576 18.7047 7.6772 18.7047 7.23273C18.7047 7.10573 18.6748 6.98248 18.6188 6.87042C18.4806 6.59777 18.2042 6.42969 17.9017 6.42969C17.7747 6.42969 17.6514 6.45957 17.5394 6.51559Z" fill="white" fill-opacity="0.2"/>
<path d="M13.076 1.74925C13.0872 1.74925 13.0984 1.74925 13.1096 1.74925C13.4197 1.74925 13.6736 1.499 13.6736 1.18899C13.6736 0.878984 13.4159 0.625 13.1059 0.625C12.8071 0.625 12.5606 0.856574 12.5457 1.15538C12.5457 1.16658 12.5457 1.17779 12.5457 1.18526C12.5457 1.48406 12.7772 1.73058 13.076 1.74925Z" fill="#0B2233"/>
<path d="M13.076 1.74925C13.0872 1.74925 13.0984 1.74925 13.1096 1.74925C13.4197 1.74925 13.6736 1.499 13.6736 1.18899C13.6736 0.878984 13.4159 0.625 13.1059 0.625C12.8071 0.625 12.5606 0.856574 12.5457 1.15538C12.5457 1.16658 12.5457 1.17779 12.5457 1.18526C12.5457 1.48406 12.7772 1.73058 13.076 1.74925Z" fill="white" fill-opacity="0.2"/>
<path d="M13.0685 5.28674C13.0835 5.28674 13.0984 5.28674 13.1133 5.28674C13.5578 5.28674 13.9164 4.92817 13.9164 4.4837C13.9164 4.03923 13.5578 3.68066 13.1133 3.68066C12.6875 3.68066 12.3364 4.01308 12.3103 4.43888C12.3103 4.45382 12.3103 4.46876 12.3103 4.4837C12.3103 4.9095 12.6427 5.26059 13.0685 5.28674Z" fill="#0B2233"/>
<path d="M13.0685 5.28674C13.0835 5.28674 13.0984 5.28674 13.1133 5.28674C13.5578 5.28674 13.9164 4.92817 13.9164 4.4837C13.9164 4.03923 13.5578 3.68066 13.1133 3.68066C12.6875 3.68066 12.3364 4.01308 12.3103 4.43888C12.3103 4.45382 12.3103 4.46876 12.3103 4.4837C12.3103 4.9095 12.6427 5.26059 13.0685 5.28674Z" fill="white" fill-opacity="0.2"/>
<path d="M8.7171 13.484C8.98602 13.3458 9.15783 13.0694 9.15783 12.7669C9.15783 12.3224 8.79927 11.9639 8.3548 11.9639C7.91032 11.9639 7.55176 12.3224 7.55176 12.7669C7.55176 12.8939 7.58164 13.0172 7.63766 13.1292C7.77586 13.3981 8.05226 13.5699 8.3548 13.5699C8.48179 13.5699 8.60504 13.5401 8.7171 13.484Z" fill="#0B2233"/>
<path d="M8.7171 13.484C8.98602 13.3458 9.15783 13.0694 9.15783 12.7669C9.15783 12.3224 8.79927 11.9639 8.3548 11.9639C7.91032 11.9639 7.55176 12.3224 7.55176 12.7669C7.55176 12.8939 7.58164 13.0172 7.63766 13.1292C7.77586 13.3981 8.05226 13.5699 8.3548 13.5699C8.48179 13.5699 8.60504 13.5401 8.7171 13.484Z" fill="white" fill-opacity="0.2"/>
<path d="M13.5876 6.45889C13.442 6.68299 13.3635 6.94071 13.3635 7.2059C13.3635 7.96038 13.9761 8.57293 14.7306 8.57293C15.485 8.57293 16.0976 7.96038 16.0976 7.2059C16.0976 6.45142 15.4888 5.8426 14.7343 5.83887C14.2711 5.83887 13.8416 6.07418 13.5876 6.45889Z" fill="#0B2233"/>
<path d="M13.5876 6.45889C13.442 6.68299 13.3635 6.94071 13.3635 7.2059C13.3635 7.96038 13.9761 8.57293 14.7306 8.57293C15.485 8.57293 16.0976 7.96038 16.0976 7.2059C16.0976 6.45142 15.4888 5.8426 14.7343 5.83887C14.2711 5.83887 13.8416 6.07418 13.5876 6.45889Z" fill="white" fill-opacity="0.2"/>
<path d="M15.9632 12.1707C15.7316 11.7113 15.261 11.4199 14.7418 11.4199C13.9873 11.4199 13.3748 12.0325 13.3748 12.787C13.3748 13.5414 13.9873 14.154 14.7418 14.154C14.9547 14.154 15.1676 14.1017 15.3581 14.0046C15.8175 13.773 16.1088 13.2987 16.1088 12.7832C16.1088 12.5703 16.0603 12.3612 15.9632 12.1707Z" fill="#0B2233"/>
<path d="M15.9632 12.1707C15.7316 11.7113 15.261 11.4199 14.7418 11.4199C13.9873 11.4199 13.3748 12.0325 13.3748 12.787C13.3748 13.5414 13.9873 14.154 14.7418 14.154C14.9547 14.154 15.1676 14.1017 15.3581 14.0046C15.8175 13.773 16.1088 13.2987 16.1088 12.7832C16.1088 12.5703 16.0603 12.3612 15.9632 12.1707Z" fill="white" fill-opacity="0.2"/>
<path d="M18.3499 12.076C18.2191 11.9901 18.066 11.9453 17.9091 11.9453C17.4646 11.9453 17.1061 12.3039 17.1061 12.7484C17.1061 13.1928 17.4646 13.5514 17.9091 13.5514C18.178 13.5514 18.432 13.4169 18.5814 13.1891C18.6673 13.0584 18.7122 12.9052 18.7122 12.7484C18.7122 12.4757 18.5777 12.2254 18.3499 12.076Z" fill="#0B2233"/>
<path d="M18.3499 12.076C18.2191 11.9901 18.066 11.9453 17.9091 11.9453C17.4646 11.9453 17.1061 12.3039 17.1061 12.7484C17.1061 13.1928 17.4646 13.5514 17.9091 13.5514C18.178 13.5514 18.432 13.4169 18.5814 13.1891C18.6673 13.0584 18.7122 12.9052 18.7122 12.7484C18.7122 12.4757 18.5777 12.2254 18.3499 12.076Z" fill="white" fill-opacity="0.2"/>
<path d="M20.9681 10.0226C20.9681 10.0114 20.9681 9.99648 20.9681 9.98527C20.9681 9.60803 20.6618 9.30176 20.2846 9.30176C19.9073 9.30176 19.6011 9.60803 19.6011 9.98527C19.6011 10.3476 19.8849 10.6464 20.2435 10.6651C20.2547 10.6651 20.2697 10.6651 20.2809 10.6651C20.6469 10.6688 20.9457 10.3849 20.9681 10.0226Z" fill="#0B2233"/>
<path d="M20.9681 10.0226C20.9681 10.0114 20.9681 9.99648 20.9681 9.98527C20.9681 9.60803 20.6618 9.30176 20.2846 9.30176C19.9073 9.30176 19.6011 9.60803 19.6011 9.98527C19.6011 10.3476 19.8849 10.6464 20.2435 10.6651C20.2547 10.6651 20.2697 10.6651 20.2809 10.6651C20.6469 10.6688 20.9457 10.3849 20.9681 10.0226Z" fill="white" fill-opacity="0.2"/>
<path d="M22.8581 9.53711C22.8506 9.53711 22.8394 9.53711 22.832 9.53711C22.5892 9.53711 22.3912 9.73507 22.3912 9.97785C22.3912 10.2206 22.5892 10.4186 22.832 10.4186C23.0673 10.4186 23.2615 10.2356 23.2727 10.0003C23.2727 9.99279 23.2727 9.98532 23.2727 9.97411C23.2727 9.74627 23.0897 9.55205 22.8581 9.53711Z" fill="#0B2233"/>
<path d="M22.8581 9.53711C22.8506 9.53711 22.8394 9.53711 22.832 9.53711C22.5892 9.53711 22.3912 9.73507 22.3912 9.97785C22.3912 10.2206 22.5892 10.4186 22.832 10.4186C23.0673 10.4186 23.2615 10.2356 23.2727 10.0003C23.2727 9.99279 23.2727 9.98532 23.2727 9.97411C23.2727 9.74627 23.0897 9.55205 22.8581 9.53711Z" fill="white" fill-opacity="0.2"/>
<path d="M21.0765 13.9176C20.9869 13.8578 20.8785 13.8242 20.7702 13.8242C20.4602 13.8242 20.21 14.0745 20.21 14.3882C20.21 14.6982 20.4602 14.9522 20.7702 14.9522C20.9607 14.9522 21.1363 14.8551 21.2408 14.6982C21.3006 14.6048 21.3342 14.5003 21.3342 14.3882C21.3305 14.2015 21.2371 14.0222 21.0765 13.9176Z" fill="#0B2233"/>
<path d="M21.0765 13.9176C20.9869 13.8578 20.8785 13.8242 20.7702 13.8242C20.4602 13.8242 20.21 14.0745 20.21 14.3882C20.21 14.6982 20.4602 14.9522 20.7702 14.9522C20.9607 14.9522 21.1363 14.8551 21.2408 14.6982C21.3006 14.6048 21.3342 14.5003 21.3342 14.3882C21.3305 14.2015 21.2371 14.0222 21.0765 13.9176Z" fill="white" fill-opacity="0.2"/>
<path d="M8.5341 18.0456C8.46314 17.997 8.37723 17.9746 8.29132 17.9746C8.04854 17.9746 7.85059 18.1726 7.85059 18.4153C7.85059 18.6581 8.04854 18.8561 8.29132 18.8561C8.44073 18.8561 8.57892 18.7814 8.66109 18.6581C8.70965 18.5872 8.73206 18.5013 8.73206 18.4153C8.7358 18.2659 8.66109 18.1277 8.5341 18.0456Z" fill="#0B2233"/>
<path d="M8.5341 18.0456C8.46314 17.997 8.37723 17.9746 8.29132 17.9746C8.04854 17.9746 7.85059 18.1726 7.85059 18.4153C7.85059 18.6581 8.04854 18.8561 8.29132 18.8561C8.44073 18.8561 8.57892 18.7814 8.66109 18.6581C8.70965 18.5872 8.73206 18.5013 8.73206 18.4153C8.7358 18.2659 8.66109 18.1277 8.5341 18.0456Z" fill="white" fill-opacity="0.2"/>
<path d="M17.7971 18.0005C17.6477 18.0752 17.5543 18.2283 17.5543 18.3964C17.5543 18.6392 17.7523 18.8371 17.9951 18.8371C18.2378 18.8371 18.4358 18.6392 18.4358 18.3964C18.4358 18.3254 18.4209 18.2582 18.3872 18.1984C18.3125 18.049 18.1594 17.9556 17.9913 17.9556C17.9278 17.9519 17.8606 17.9668 17.7971 18.0005Z" fill="#0B2233"/>
<path d="M17.7971 18.0005C17.6477 18.0752 17.5543 18.2283 17.5543 18.3964C17.5543 18.6392 17.7523 18.8371 17.9951 18.8371C18.2378 18.8371 18.4358 18.6392 18.4358 18.3964C18.4358 18.3254 18.4209 18.2582 18.3872 18.1984C18.3125 18.049 18.1594 17.9556 17.9913 17.9556C17.9278 17.9519 17.8606 17.9668 17.7971 18.0005Z" fill="white" fill-opacity="0.2"/>
<path d="M12.6651 13.5408C12.8108 13.3167 12.8892 13.059 12.8892 12.7938C12.8892 12.0393 12.2767 11.4268 11.5222 11.4268C10.7677 11.4268 10.1552 12.0393 10.1552 12.7938C10.1552 13.5483 10.7677 14.1608 11.5184 14.1608H11.5222C11.9853 14.1571 12.4149 13.9255 12.6651 13.5408Z" fill="#0B2233"/>
<path d="M12.6651 13.5408C12.8108 13.3167 12.8892 13.059 12.8892 12.7938C12.8892 12.0393 12.2767 11.4268 11.5222 11.4268C10.7677 11.4268 10.1552 12.0393 10.1552 12.7938C10.1552 13.5483 10.7677 14.1608 11.5184 14.1608H11.5222C11.9853 14.1571 12.4149 13.9255 12.6651 13.5408Z" fill="white" fill-opacity="0.2"/>
<path d="M9.93483 15.6355C9.82278 15.5645 9.69579 15.5234 9.56132 15.5234C9.18408 15.5234 8.87781 15.8297 8.87781 16.207C8.87781 16.5842 9.18408 16.8905 9.56132 16.8905C9.7929 16.8905 10.0058 16.7747 10.1328 16.5805C10.2038 16.4684 10.2448 16.3377 10.2448 16.207C10.2448 15.9754 10.1291 15.7625 9.93483 15.6355Z" fill="#0B2233"/>
<path d="M9.93483 15.6355C9.82278 15.5645 9.69579 15.5234 9.56132 15.5234C9.18408 15.5234 8.87781 15.8297 8.87781 16.207C8.87781 16.5842 9.18408 16.8905 9.56132 16.8905C9.7929 16.8905 10.0058 16.7747 10.1328 16.5805C10.2038 16.4684 10.2448 16.3377 10.2448 16.207C10.2448 15.9754 10.1291 15.7625 9.93483 15.6355Z" fill="white" fill-opacity="0.2"/>
<path d="M13.1208 18.251C13.1096 18.251 13.0984 18.251 13.0872 18.251C12.7772 18.251 12.5232 18.5012 12.5232 18.8112C12.5232 19.1212 12.7734 19.3752 13.0872 19.3752C13.386 19.3752 13.6325 19.1437 13.6474 18.8449C13.6474 18.8336 13.6474 18.8224 13.6474 18.8112C13.6512 18.5162 13.4196 18.2697 13.1208 18.251Z" fill="#0B2233"/>
<path d="M13.1208 18.251C13.1096 18.251 13.0984 18.251 13.0872 18.251C12.7772 18.251 12.5232 18.5012 12.5232 18.8112C12.5232 19.1212 12.7734 19.3752 13.0872 19.3752C13.386 19.3752 13.6325 19.1437 13.6474 18.8449C13.6474 18.8336 13.6474 18.8224 13.6474 18.8112C13.6512 18.5162 13.4196 18.2697 13.1208 18.251Z" fill="white" fill-opacity="0.2"/>
<path d="M13.1282 14.7129C13.1133 14.7129 13.0946 14.7129 13.0796 14.7129C12.6352 14.7129 12.2766 15.0715 12.2766 15.5159C12.2766 15.9604 12.6352 16.319 13.0796 16.319C13.5054 16.319 13.8565 15.9865 13.8827 15.5607C13.8827 15.5458 13.8827 15.5309 13.8827 15.5159C13.8827 15.0901 13.5503 14.739 13.1282 14.7129Z" fill="#0B2233"/>
<path d="M13.1282 14.7129C13.1133 14.7129 13.0946 14.7129 13.0796 14.7129C12.6352 14.7129 12.2766 15.0715 12.2766 15.5159C12.2766 15.9604 12.6352 16.319 13.0796 16.319C13.5054 16.319 13.8565 15.9865 13.8827 15.5607C13.8827 15.5458 13.8827 15.5309 13.8827 15.5159C13.8827 15.0901 13.5503 14.739 13.1282 14.7129Z" fill="white" fill-opacity="0.2"/>
<path d="M16.4113 15.5835C16.1835 15.6993 16.0378 15.9346 16.0378 16.1923C16.0378 16.5695 16.3441 16.8758 16.7214 16.8758C17.0986 16.8758 17.4049 16.5695 17.4049 16.1923C17.4049 16.084 17.3787 15.9794 17.3302 15.8823C17.2144 15.6545 16.9791 15.5088 16.7214 15.5088C16.613 15.5088 16.5085 15.5312 16.4113 15.5835Z" fill="#0B2233"/>
<path d="M16.4113 15.5835C16.1835 15.6993 16.0378 15.9346 16.0378 16.1923C16.0378 16.5695 16.3441 16.8758 16.7214 16.8758C17.0986 16.8758 17.4049 16.5695 17.4049 16.1923C17.4049 16.084 17.3787 15.9794 17.3302 15.8823C17.2144 15.6545 16.9791 15.5088 16.7214 15.5088C16.613 15.5088 16.5085 15.5312 16.4113 15.5835Z" fill="white" fill-opacity="0.2"/>
<path d="M31.4861 6.77232C32.8083 6.77232 33.7346 7.50066 33.7346 8.84902H35.4677C35.4677 6.48099 33.7234 5.3418 31.4599 5.3418C28.681 5.3418 27.0675 6.85076 27.0675 10.0405C27.0675 13.3087 28.681 14.7355 31.4599 14.7355C33.7495 14.7355 35.4677 13.6262 35.4677 11.2544H33.8018C33.8018 12.5766 32.8905 13.3049 31.4861 13.3049C29.6484 13.3049 28.7968 12.2853 28.7968 10.1712V9.90604C28.8006 7.82935 29.6596 6.77232 31.4861 6.77232Z" fill="#0B2233"/>
<path d="M31.4861 6.77232C32.8083 6.77232 33.7346 7.50066 33.7346 8.84902H35.4677C35.4677 6.48099 33.7234 5.3418 31.4599 5.3418C28.681 5.3418 27.0675 6.85076 27.0675 10.0405C27.0675 13.3087 28.681 14.7355 31.4599 14.7355C33.7495 14.7355 35.4677 13.6262 35.4677 11.2544H33.8018C33.8018 12.5766 32.8905 13.3049 31.4861 13.3049C29.6484 13.3049 28.7968 12.2853 28.7968 10.1712V9.90604C28.8006 7.82935 29.6596 6.77232 31.4861 6.77232Z" fill="white" fill-opacity="0.2"/>
<path d="M40.0506 5.50293L36.5172 14.5791H38.2652L38.9936 12.607H43.1432L43.8902 14.5791H45.7167L42.1833 5.50293H40.0506ZM39.5202 11.1765L40.4465 8.68894C40.6332 8.19964 40.9619 7.14262 41.0292 6.95587H41.0964C41.1636 7.14262 41.4923 8.21085 41.6791 8.68894L42.6054 11.1765H39.5202Z" fill="#0B2233"/>
<path d="M40.0506 5.50293L36.5172 14.5791H38.2652L38.9936 12.607H43.1432L43.8902 14.5791H45.7167L42.1833 5.50293H40.0506ZM39.5202 11.1765L40.4465 8.68894C40.6332 8.19964 40.9619 7.14262 41.0292 6.95587H41.0964C41.1636 7.14262 41.4923 8.21085 41.6791 8.68894L42.6054 11.1765H39.5202Z" fill="white" fill-opacity="0.2"/>
<path d="M55.1626 8.25176C55.1626 6.57099 54.1952 5.49902 52.2007 5.49902H47.4124V14.5752H49.1043V11.068H51.9206L53.6387 14.5752H55.4913L53.5491 10.8028C54.621 10.3845 55.1626 9.48433 55.1626 8.25176ZM52.0662 9.6412H49.1043V6.94076H52.0662C52.9776 6.94076 53.4557 7.43005 53.4557 8.25176C53.4557 9.11456 52.9402 9.6412 52.0662 9.6412Z" fill="#0B2233"/>
<path d="M55.1626 8.25176C55.1626 6.57099 54.1952 5.49902 52.2007 5.49902H47.4124V14.5752H49.1043V11.068H51.9206L53.6387 14.5752H55.4913L53.5491 10.8028C54.621 10.3845 55.1626 9.48433 55.1626 8.25176ZM52.0662 9.6412H49.1043V6.94076H52.0662C52.9776 6.94076 53.4557 7.43005 53.4557 8.25176C53.4557 9.11456 52.9402 9.6412 52.0662 9.6412Z" fill="white" fill-opacity="0.2"/>
<path d="M61.1014 5.50293H57.4746V14.5791H61.1014C63.8392 14.5791 65.505 13.1486 65.505 10.041C65.505 6.92972 63.8429 5.50293 61.1014 5.50293ZM63.7757 10.1718C63.7607 12.1551 62.8232 13.1337 61.1014 13.1337H59.1703V6.94466H61.1014C62.8195 6.94466 63.7757 7.92325 63.7757 9.90656V10.1718Z" fill="#0B2233"/>
<path d="M61.1014 5.50293H57.4746V14.5791H61.1014C63.8392 14.5791 65.505 13.1486 65.505 10.041C65.505 6.92972 63.8429 5.50293 61.1014 5.50293ZM63.7757 10.1718C63.7607 12.1551 62.8232 13.1337 61.1014 13.1337H59.1703V6.94466H61.1014C62.8195 6.94466 63.7757 7.92325 63.7757 9.90656V10.1718Z" fill="white" fill-opacity="0.2"/>
<path d="M69.9422 5.50293L66.4089 14.5791H68.1531L68.8815 12.607H73.0349L73.7744 14.5791H75.6009L72.0675 5.50293H69.9422ZM69.4156 11.1765L70.3419 8.68894C70.5286 8.19964 70.8573 7.14262 70.9246 6.95587H70.9918C71.059 7.14262 71.3877 8.21085 71.5745 8.68894L72.5008 11.1765H69.4156Z" fill="#0B2233"/>
<path d="M69.9422 5.50293L66.4089 14.5791H68.1531L68.8815 12.607H73.0349L73.7744 14.5791H75.6009L72.0675 5.50293H69.9422ZM69.4156 11.1765L70.3419 8.68894C70.5286 8.19964 70.8573 7.14262 70.9246 6.95587H70.9918C71.059 7.14262 71.3877 8.21085 71.5745 8.68894L72.5008 11.1765H69.4156Z" fill="white" fill-opacity="0.2"/>
<path d="M83.3474 10.8999C83.3474 11.0717 83.3735 11.5349 83.3735 11.6133L83.3063 11.6395C83.2652 11.5872 83 11.124 82.8581 10.9111L78.9139 5.49902H77.2966V14.5752H78.9251V9.14071C78.9251 8.9166 78.8989 8.4796 78.8989 8.41237L78.9661 8.37128C79.0072 8.42357 79.2052 8.80829 79.4143 9.11083L83.3847 14.5752H84.9721V5.49902H83.3436L83.3474 10.8999Z" fill="#0B2233"/>
<path d="M83.3474 10.8999C83.3474 11.0717 83.3735 11.5349 83.3735 11.6133L83.3063 11.6395C83.2652 11.5872 83 11.124 82.8581 10.9111L78.9139 5.49902H77.2966V14.5752H78.9251V9.14071C78.9251 8.9166 78.8989 8.4796 78.8989 8.41237L78.9661 8.37128C79.0072 8.42357 79.2052 8.80829 79.4143 9.11083L83.3847 14.5752H84.9721V5.49902H83.3436L83.3474 10.8999Z" fill="white" fill-opacity="0.2"/>
<path d="M91.7176 5.3418C88.8715 5.3418 87.1534 6.85076 87.1534 10.0368C87.1534 13.2228 88.8715 14.7317 91.7176 14.7317C94.5637 14.7317 96.2968 13.2228 96.2968 10.0368C96.2968 6.85076 94.5637 5.3418 91.7176 5.3418ZM94.5637 10.1862C94.5637 12.2629 93.5702 13.3087 91.7214 13.3087C89.8837 13.3087 88.8902 12.2629 88.8902 10.1862V9.90977C88.8902 7.83308 89.8949 6.77606 91.7214 6.77606C93.559 6.77606 94.5637 7.83308 94.5637 9.90977V10.1862Z" fill="#0B2233"/>
<path d="M91.7176 5.3418C88.8715 5.3418 87.1534 6.85076 87.1534 10.0368C87.1534 13.2228 88.8715 14.7317 91.7176 14.7317C94.5637 14.7317 96.2968 13.2228 96.2968 10.0368C96.2968 6.85076 94.5637 5.3418 91.7176 5.3418ZM94.5637 10.1862C94.5637 12.2629 93.5702 13.3087 91.7214 13.3087C89.8837 13.3087 88.8902 12.2629 88.8902 10.1862V9.90977C88.8902 7.83308 89.8949 6.77606 91.7214 6.77606C93.559 6.77606 94.5637 7.83308 94.5637 9.90977V10.1862Z" fill="white" fill-opacity="0.2"/>
</g>
</g>
<defs>
<clipPath id="clip0_1468_130995">
<rect fill="white" height="18.75" transform="translate(2.9502 0.625)" width="93.3765"/>
</clipPath>
<clipPath id="clip1_1468_130995">
<rect fill="white" height="18.75" transform="translate(2.9502 0.625)" width="93.3765"/>
</clipPath>
</defs>
</svg>