<?xml version="1.0" encoding="utf-8"?>
<svg xmlns="http://www.w3.org/2000/svg" fill="none" height="20" viewBox="0 0 93 20" width="93">
<g clip-path="url(#clip0_1468_130998)">
<path clip-rule="evenodd" d="M8.24514 0.625H21.3149C21.6424 0.625 21.925 0.811121 22.0629 1.04549L25.8577 7.64933C26.0438 7.97676 25.999 8.44551 25.7163 8.72814L15.2729 19.1302C14.9455 19.4576 14.3837 19.4576 14.0562 19.1302L3.60591 8.77639C3.32328 8.49721 3.27848 8.02846 3.4646 7.69758L7.53857 1.04549C7.68333 0.766314 7.96251 0.625 8.24514 0.625ZM19.6295 3.57536V5.45035H15.9278V6.71528C18.5507 6.85659 20.5188 7.4184 20.5188 8.07327V9.47952C20.5188 10.1344 18.5507 10.7444 15.9278 10.8375V14.0222H13.4462V10.9306C10.8233 10.7893 8.8552 10.2274 8.8552 9.57258V8.16633C8.8552 7.51146 10.8233 6.9014 13.4462 6.80834V5.49516H9.74444V3.62361H19.6295V3.57536ZM14.7111 9.94826C17.5236 9.94826 19.8156 9.47952 20.4257 8.82465C19.9569 8.26284 18.1785 7.8389 15.976 7.74584V9.10383C15.5555 9.10383 15.1799 9.15208 14.7594 9.15208C14.3389 9.15208 13.9149 9.15208 13.5427 9.10383V7.74584C11.3403 7.8389 9.56177 8.30764 9.09302 8.82465C9.55488 9.47952 11.8986 9.94826 14.7111 9.94826Z" fill="#0B2233" fill-rule="evenodd"/>
<path clip-rule="evenodd" d="M8.24514 0.625H21.3149C21.6424 0.625 21.925 0.811121 22.0629 1.04549L25.8577 7.64933C26.0438 7.97676 25.999 8.44551 25.7163 8.72814L15.2729 19.1302C14.9455 19.4576 14.3837 19.4576 14.0562 19.1302L3.60591 8.77639C3.32328 8.49721 3.27848 8.02846 3.4646 7.69758L7.53857 1.04549C7.68333 0.766314 7.96251 0.625 8.24514 0.625ZM19.6295 3.57536V5.45035H15.9278V6.71528C18.5507 6.85659 20.5188 7.4184 20.5188 8.07327V9.47952C20.5188 10.1344 18.5507 10.7444 15.9278 10.8375V14.0222H13.4462V10.9306C10.8233 10.7893 8.8552 10.2274 8.8552 9.57258V8.16633C8.8552 7.51146 10.8233 6.9014 13.4462 6.80834V5.49516H9.74444V3.62361H19.6295V3.57536ZM14.7111 9.94826C17.5236 9.94826 19.8156 9.47952 20.4257 8.82465C19.9569 8.26284 18.1785 7.8389 15.976 7.74584V9.10383C15.5555 9.10383 15.1799 9.15208 14.7594 9.15208C14.3389 9.15208 13.9149 9.15208 13.5427 9.10383V7.74584C11.3403 7.8389 9.56177 8.30764 9.09302 8.82465C9.55488 9.47952 11.8986 9.94826 14.7111 9.94826Z" fill="white" fill-opacity="0.2" fill-rule="evenodd"/>
<path d="M31.0105 4.23368L34.0091 3.90625V6.85661H36.632V9.38647H34.0091V13.3226C34.0091 14.2601 34.3848 14.7288 35.1809 14.7288C35.6979 14.7288 36.1184 14.6358 36.4459 14.4944L37.149 17.0243C36.4459 17.3069 35.7427 17.4448 34.9466 17.4931C33.7299 17.5413 32.7441 17.2587 32.041 16.6038C31.3379 15.9489 31.0105 14.8701 31.0105 13.326V9.38647H29.1837V6.85661H31.0105V4.23368Z" fill="#0B2233"/>
<path d="M31.0105 4.23368L34.0091 3.90625V6.85661H36.632V9.38647H34.0091V13.3226C34.0091 14.2601 34.3848 14.7288 35.1809 14.7288C35.6979 14.7288 36.1184 14.6358 36.4459 14.4944L37.149 17.0243C36.4459 17.3069 35.7427 17.4448 34.9466 17.4931C33.7299 17.5413 32.7441 17.2587 32.041 16.6038C31.3379 15.9489 31.0105 14.8701 31.0105 13.326V9.38647H29.1837V6.85661H31.0105V4.23368Z" fill="white" fill-opacity="0.2"/>
<path d="M47.9681 12.9918H40.3337C40.4268 13.5536 40.7094 13.9775 41.1781 14.3498C41.6469 14.6772 42.3018 14.8633 43.1462 14.8633C44.3181 14.8633 45.2073 14.5807 45.8174 14.0189L47.5028 15.9387C46.5205 16.9692 45.0212 17.4862 43.0979 17.4862C41.2712 17.4862 39.8201 16.9692 38.7896 15.9869C37.8073 15.0046 37.2903 13.5984 37.2903 11.9129C37.2903 10.2723 37.8038 9.0074 38.7896 7.97684C39.7753 6.99454 41.1333 6.47754 42.8188 6.47754C44.6455 6.47754 46.0517 7.03935 47.034 8.16296C47.9681 9.29003 48.299 10.9306 47.9681 12.9918ZM40.3337 10.7893H45.2521C45.2039 10.2723 44.9695 9.85184 44.5007 9.57266C44.032 9.29003 43.4702 9.10391 42.7671 9.10391C42.157 9.10391 41.6434 9.24522 41.2195 9.57266C40.8024 9.85528 40.475 10.2275 40.3337 10.7893Z" fill="#0B2233"/>
<path d="M47.9681 12.9918H40.3337C40.4268 13.5536 40.7094 13.9775 41.1781 14.3498C41.6469 14.6772 42.3018 14.8633 43.1462 14.8633C44.3181 14.8633 45.2073 14.5807 45.8174 14.0189L47.5028 15.9387C46.5205 16.9692 45.0212 17.4862 43.0979 17.4862C41.2712 17.4862 39.8201 16.9692 38.7896 15.9869C37.8073 15.0046 37.2903 13.5984 37.2903 11.9129C37.2903 10.2723 37.8038 9.0074 38.7896 7.97684C39.7753 6.99454 41.1333 6.47754 42.8188 6.47754C44.6455 6.47754 46.0517 7.03935 47.034 8.16296C47.9681 9.29003 48.299 10.9306 47.9681 12.9918ZM40.3337 10.7893H45.2521C45.2039 10.2723 44.9695 9.85184 44.5007 9.57266C44.032 9.29003 43.4702 9.10391 42.7671 9.10391C42.157 9.10391 41.6434 9.24522 41.2195 9.57266C40.8024 9.85528 40.475 10.2275 40.3337 10.7893Z" fill="white" fill-opacity="0.2"/>
<path d="M50.4531 4.23368L53.4517 3.90625V6.85661H56.0746V9.38647H53.4517V13.3226C53.4517 14.2601 53.8274 14.7288 54.6236 14.7288C55.1371 14.7288 55.5611 14.6358 55.8885 14.4944L56.5916 17.0243C55.8885 17.3069 55.1854 17.4448 54.3892 17.4931C53.1725 17.5413 52.1868 17.2587 51.4836 16.6038C50.7805 15.9489 50.4531 14.8701 50.4531 13.326V9.38647H48.6263V6.85661H50.4531V4.23368Z" fill="#0B2233"/>
<path d="M50.4531 4.23368L53.4517 3.90625V6.85661H56.0746V9.38647H53.4517V13.3226C53.4517 14.2601 53.8274 14.7288 54.6236 14.7288C55.1371 14.7288 55.5611 14.6358 55.8885 14.4944L56.5916 17.0243C55.8885 17.3069 55.1854 17.4448 54.3892 17.4931C53.1725 17.5413 52.1868 17.2587 51.4836 16.6038C50.7805 15.9489 50.4531 14.8701 50.4531 13.326V9.38647H48.6263V6.85661H50.4531V4.23368Z" fill="white" fill-opacity="0.2"/>
<path d="M57.7118 2.3584H60.7552V8.02818C61.5031 7.04588 62.5371 6.57713 63.8951 6.57713C66.6594 6.57713 68.0174 8.26256 68.0174 11.6369V17.2584H65.0187V11.6334C65.0187 10.9303 64.8326 10.3685 64.4569 9.94798C64.1295 9.57229 63.6125 9.33792 63.0507 9.33792C62.3958 9.33792 61.834 9.5723 61.4101 10.041C60.9896 10.5098 60.7552 11.1199 60.7552 11.916V17.2101H57.7566V2.3584H57.7118Z" fill="#0B2233"/>
<path d="M57.7118 2.3584H60.7552V8.02818C61.5031 7.04588 62.5371 6.57713 63.8951 6.57713C66.6594 6.57713 68.0174 8.26256 68.0174 11.6369V17.2584H65.0187V11.6334C65.0187 10.9303 64.8326 10.3685 64.4569 9.94798C64.1295 9.57229 63.6125 9.33792 63.0507 9.33792C62.3958 9.33792 61.834 9.5723 61.4101 10.041C60.9896 10.5098 60.7552 11.1199 60.7552 11.916V17.2101H57.7566V2.3584H57.7118Z" fill="white" fill-opacity="0.2"/>
<path d="M79.9188 12.9913H72.2844C72.3774 13.5531 72.6601 13.9771 73.1288 14.3493C73.5976 14.6767 74.2524 14.8628 75.0969 14.8628C76.2687 14.8628 77.158 14.5802 77.7681 14.0184L79.4535 15.9382C78.4229 16.9688 76.9236 17.4823 75.0038 17.4823C73.1771 17.4823 71.726 16.9688 70.6955 15.983C69.6649 15.0007 69.1962 13.5945 69.1962 11.909C69.1962 10.2684 69.7132 9.00349 70.6955 7.97294C71.6778 6.99063 73.0392 6.47363 74.7246 6.47363C76.5514 6.47363 77.9576 7.03544 78.9399 8.15906C79.9188 9.28957 80.2462 10.9302 79.9188 12.9913ZM72.2809 10.7889H77.1994C77.1511 10.2719 76.9167 9.85138 76.4514 9.5722C75.9827 9.28957 75.4209 9.10345 74.7177 9.10345C74.1077 9.10345 73.5941 9.24476 73.1702 9.5722C72.7497 9.85482 72.4223 10.2271 72.2809 10.7889Z" fill="#0B2233"/>
<path d="M79.9188 12.9913H72.2844C72.3774 13.5531 72.6601 13.9771 73.1288 14.3493C73.5976 14.6767 74.2524 14.8628 75.0969 14.8628C76.2687 14.8628 77.158 14.5802 77.7681 14.0184L79.4535 15.9382C78.4229 16.9688 76.9236 17.4823 75.0038 17.4823C73.1771 17.4823 71.726 16.9688 70.6955 15.983C69.6649 15.0007 69.1962 13.5945 69.1962 11.909C69.1962 10.2684 69.7132 9.00349 70.6955 7.97294C71.6778 6.99063 73.0392 6.47363 74.7246 6.47363C76.5514 6.47363 77.9576 7.03544 78.9399 8.15906C79.9188 9.28957 80.2462 10.9302 79.9188 12.9913ZM72.2809 10.7889H77.1994C77.1511 10.2719 76.9167 9.85138 76.4514 9.5722C75.9827 9.28957 75.4209 9.10345 74.7177 9.10345C74.1077 9.10345 73.5941 9.24476 73.1702 9.5722C72.7497 9.85482 72.4223 10.2271 72.2809 10.7889Z" fill="white" fill-opacity="0.2"/>
<path d="M81.1838 6.75976H83.9928L84.2272 7.93164C84.882 6.99414 85.8195 6.52539 86.9914 6.52539C87.9737 6.52539 88.8181 6.85282 89.5213 7.46289L88.2563 9.89969C87.7876 9.524 87.2258 9.38269 86.6157 9.38269C85.9126 9.38269 85.3508 9.61706 84.882 10.0376C84.4133 10.4581 84.1789 11.0681 84.1789 11.8195V17.2997H81.1355V6.75976H81.1838Z" fill="#0B2233"/>
<path d="M81.1838 6.75976H83.9928L84.2272 7.93164C84.882 6.99414 85.8195 6.52539 86.9914 6.52539C87.9737 6.52539 88.8181 6.85282 89.5213 7.46289L88.2563 9.89969C87.7876 9.524 87.2258 9.38269 86.6157 9.38269C85.9126 9.38269 85.3508 9.61706 84.882 10.0376C84.4133 10.4581 84.1789 11.0681 84.1789 11.8195V17.2997H81.1355V6.75976H81.1838Z" fill="white" fill-opacity="0.2"/>
</g>
<defs>
<clipPath id="clip0_1468_130998">
<rect fill="white" height="18.7499" transform="translate(3.35425 0.625)" width="86.1669"/>
</clipPath>
</defs>
</svg>