<?xml version="1.0" encoding="utf-8"?>
<svg xmlns="http://www.w3.org/2000/svg" fill="none" height="20" viewBox="0 0 59 20" width="59">
<g clip-path="url(#clip0_1468_130997)">
<path d="M17.2251 3.23087L3.07666 0.625L10.5216 19.375L20.8976 6.72578L17.2251 3.23087ZM16.9975 4.38L19.162 6.43819L13.2413 7.51104L16.9975 4.38ZM11.9559 7.29597L5.71629 2.118L15.9147 3.99487L11.9559 7.29597ZM11.512 8.21253L10.4941 16.6291L5.00855 2.81448L11.512 8.21253ZM12.4535 8.65893L19.0095 7.47103L11.4907 16.6391L12.4535 8.65893Z" fill="#0B2233"/>
<path d="M17.2251 3.23087L3.07666 0.625L10.5216 19.375L20.8976 6.72578L17.2251 3.23087ZM16.9975 4.38L19.162 6.43819L13.2413 7.51104L16.9975 4.38ZM11.9559 7.29597L5.71629 2.118L15.9147 3.99487L11.9559 7.29597ZM11.512 8.21253L10.4941 16.6291L5.00855 2.81448L11.512 8.21253ZM12.4535 8.65893L19.0095 7.47103L11.4907 16.6391L12.4535 8.65893Z" fill="white" fill-opacity="0.2"/>
<path d="M28.0116 8.50391H27.2201V13.6831H28.0116V8.50391Z" fill="#0B2233"/>
<path d="M28.0116 8.50391H27.2201V13.6831H28.0116V8.50391Z" fill="white" fill-opacity="0.2"/>
<path d="M31.5628 6.31152H25.1006V7.10304H31.5628V6.31152Z" fill="#0B2233"/>
<path d="M31.5628 6.31152H25.1006V7.10304H31.5628V6.31152Z" fill="white" fill-opacity="0.2"/>
<path d="M29.4446 8.50391H28.6531V13.6831H29.4446V8.50391Z" fill="#0B2233"/>
<path d="M29.4446 8.50391H28.6531V13.6831H29.4446V8.50391Z" fill="white" fill-opacity="0.2"/>
<path d="M51.3481 13.6888H52.1484V10.569L51.3481 9.67871V13.6888Z" fill="#0B2233"/>
<path d="M51.3481 13.6888H52.1484V10.569L51.3481 9.67871V13.6888Z" fill="white" fill-opacity="0.2"/>
<path d="M55.5595 6.31095V12.0941L49.9001 5.80078V13.6897H50.7004V7.90273L56.361 14.1986V6.31095H55.5595Z" fill="#0B2233"/>
<path d="M55.5595 6.31095V12.0941L49.9001 5.80078V13.6897H50.7004V7.90273L56.361 14.1986V6.31095H55.5595Z" fill="white" fill-opacity="0.2"/>
<path d="M44.721 6.30566C42.6878 6.30566 41.0335 7.96121 41.0335 9.99564C41.0335 12.0301 42.6878 13.6856 44.721 13.6856C46.7542 13.6856 48.4085 12.0301 48.4085 9.99564C48.4085 7.96121 46.7554 6.30566 44.721 6.30566ZM44.721 12.8904C43.1255 12.8904 41.8275 11.5924 41.8275 9.99439C41.8275 8.39636 43.1242 7.09843 44.721 7.09843C46.3178 7.09843 47.6144 8.39636 47.6144 9.99439C47.6144 11.5924 46.3165 12.8904 44.721 12.8904Z" fill="#0B2233"/>
<path d="M44.721 6.30566C42.6878 6.30566 41.0335 7.96121 41.0335 9.99564C41.0335 12.0301 42.6878 13.6856 44.721 13.6856C46.7542 13.6856 48.4085 12.0301 48.4085 9.99564C48.4085 7.96121 46.7554 6.30566 44.721 6.30566ZM44.721 12.8904C43.1255 12.8904 41.8275 11.5924 41.8275 9.99439C41.8275 8.39636 43.1242 7.09843 44.721 7.09843C46.3178 7.09843 47.6144 8.39636 47.6144 9.99439C47.6144 11.5924 46.3165 12.8904 44.721 12.8904Z" fill="white" fill-opacity="0.2"/>
<path d="M44.721 9.46387C44.4297 9.46387 44.1896 9.7027 44.1896 9.99529C44.1896 10.2879 44.4284 10.5267 44.721 10.5267C45.0136 10.5267 45.2524 10.2866 45.2524 9.99529C45.2524 9.70395 45.0161 9.46387 44.721 9.46387Z" fill="#0B2233"/>
<path d="M44.721 9.46387C44.4297 9.46387 44.1896 9.7027 44.1896 9.99529C44.1896 10.2879 44.4284 10.5267 44.721 10.5267C45.0136 10.5267 45.2524 10.2866 45.2524 9.99529C45.2524 9.70395 45.0161 9.46387 44.721 9.46387Z" fill="white" fill-opacity="0.2"/>
<path d="M39.6455 8.57255C39.6455 7.32464 38.6376 6.31055 37.3997 6.31055H33.1821V13.6893H33.9698V7.11081H37.401C38.195 7.11081 38.8415 7.76728 38.8415 8.5713C38.8415 9.37157 38.2037 10.0255 37.4172 10.0343L34.6175 10.033V13.688H35.4053V10.8333H37.2509L38.7577 13.688H39.6717L38.0987 10.722C39.0128 10.4207 39.6455 9.54413 39.6455 8.57255Z" fill="#0B2233"/>
<path d="M39.6455 8.57255C39.6455 7.32464 38.6376 6.31055 37.3997 6.31055H33.1821V13.6893H33.9698V7.11081H37.401C38.195 7.11081 38.8415 7.76728 38.8415 8.5713C38.8415 9.37157 38.2037 10.0255 37.4172 10.0343L34.6175 10.033V13.688H35.4053V10.8333H37.2509L38.7577 13.688H39.6717L38.0987 10.722C39.0128 10.4207 39.6455 9.54413 39.6455 8.57255Z" fill="white" fill-opacity="0.2"/>
</g>
<defs>
<clipPath id="clip0_1468_130997">
<rect fill="white" height="18.75" transform="translate(3.07666 0.625)" width="53.2844"/>
</clipPath>
</defs>
</svg>