<?xml version="1.0" encoding="utf-8"?>
<svg xmlns="http://www.w3.org/2000/svg" fill="none" height="20" viewBox="0 0 144 20" width="144">
<g clip-path="url(#clip0_1468_130994)">
<path d="M30.3373 19.0945C29.4466 19.0945 28.5503 19.067 27.6705 19.0065C26.7413 18.946 25.8175 18.8141 24.9048 18.6216V2.81889C25.6526 2.67593 26.4829 2.57696 27.3791 2.50548C28.2699 2.434 29.1056 2.39551 29.8754 2.39551C30.9147 2.39551 31.8659 2.47249 32.7347 2.62645C33.6034 2.76941 34.3512 3.02784 34.9836 3.38524C35.6104 3.74814 36.1053 4.21552 36.4572 4.80935C36.8091 5.40319 36.9905 6.129 36.9905 6.98127C36.9905 8.28441 36.3637 9.30714 35.1045 10.0604C36.1437 10.4453 36.8421 10.9897 37.216 11.655C37.5899 12.3313 37.7823 13.0901 37.7823 13.9369C37.7823 15.6524 37.1555 16.9336 35.9073 17.7913C34.6481 18.6711 32.8061 19.0945 30.3373 19.0945ZM28.4788 8.98822H30.2658C31.404 8.98822 32.1958 8.84526 32.6962 8.55384C33.1745 8.26792 33.422 7.79505 33.422 7.15722C33.422 6.4919 33.169 6.03552 32.6742 5.77159C32.1683 5.50767 31.4315 5.3702 30.4638 5.3702C30.1504 5.3702 29.815 5.3702 29.4521 5.3812C29.0892 5.3922 28.7757 5.40869 28.4843 5.44168C28.4788 5.44168 28.4788 8.98822 28.4788 8.98822ZM28.4788 11.7925V16.0043C28.7427 16.0428 29.0342 16.0648 29.3476 16.0758C29.661 16.0923 30.0129 16.1033 30.3868 16.1033C31.4865 16.1033 32.3663 15.9493 33.0426 15.6359C33.7189 15.3225 34.0543 14.7452 34.0543 13.8984C34.0543 13.1506 33.7739 12.6062 33.213 12.2928C32.6467 11.9684 31.8384 11.809 30.7827 11.809H28.4788V11.7925Z" fill="#0B2233"/>
<path d="M30.3373 19.0945C29.4466 19.0945 28.5503 19.067 27.6705 19.0065C26.7413 18.946 25.8175 18.8141 24.9048 18.6216V2.81889C25.6526 2.67593 26.4829 2.57696 27.3791 2.50548C28.2699 2.434 29.1056 2.39551 29.8754 2.39551C30.9147 2.39551 31.8659 2.47249 32.7347 2.62645C33.6034 2.76941 34.3512 3.02784 34.9836 3.38524C35.6104 3.74814 36.1053 4.21552 36.4572 4.80935C36.8091 5.40319 36.9905 6.129 36.9905 6.98127C36.9905 8.28441 36.3637 9.30714 35.1045 10.0604C36.1437 10.4453 36.8421 10.9897 37.216 11.655C37.5899 12.3313 37.7823 13.0901 37.7823 13.9369C37.7823 15.6524 37.1555 16.9336 35.9073 17.7913C34.6481 18.6711 32.8061 19.0945 30.3373 19.0945ZM28.4788 8.98822H30.2658C31.404 8.98822 32.1958 8.84526 32.6962 8.55384C33.1745 8.26792 33.422 7.79505 33.422 7.15722C33.422 6.4919 33.169 6.03552 32.6742 5.77159C32.1683 5.50767 31.4315 5.3702 30.4638 5.3702C30.1504 5.3702 29.815 5.3702 29.4521 5.3812C29.0892 5.3922 28.7757 5.40869 28.4843 5.44168C28.4788 5.44168 28.4788 8.98822 28.4788 8.98822ZM28.4788 11.7925V16.0043C28.7427 16.0428 29.0342 16.0648 29.3476 16.0758C29.661 16.0923 30.0129 16.1033 30.3868 16.1033C31.4865 16.1033 32.3663 15.9493 33.0426 15.6359C33.7189 15.3225 34.0543 14.7452 34.0543 13.8984C34.0543 13.1506 33.7739 12.6062 33.213 12.2928C32.6467 11.9684 31.8384 11.809 30.7827 11.809H28.4788V11.7925Z" fill="white" fill-opacity="0.2"/>
<path d="M43.0167 2.93988C43.0167 3.57771 42.8132 4.08907 42.3898 4.46297C41.9774 4.83687 41.4826 5.01832 40.9162 5.01832C40.3719 5.02382 39.844 4.83137 39.4426 4.46297C39.0302 4.08907 38.8158 3.5942 38.8158 2.93988C38.8158 2.30205 39.0192 1.79069 39.4426 1.41679C39.844 1.05389 40.3719 0.855944 40.9162 0.861443C41.4606 0.855944 41.9884 1.04839 42.3898 1.41679C42.8077 1.79619 43.0167 2.30205 43.0167 2.93988ZM42.6758 18.8911H39.1732V6.51391H42.6758V18.8911Z" fill="#0B2233"/>
<path d="M43.0167 2.93988C43.0167 3.57771 42.8132 4.08907 42.3898 4.46297C41.9774 4.83687 41.4826 5.01832 40.9162 5.01832C40.3719 5.02382 39.844 4.83137 39.4426 4.46297C39.0302 4.08907 38.8158 3.5942 38.8158 2.93988C38.8158 2.30205 39.0192 1.79069 39.4426 1.41679C39.844 1.05389 40.3719 0.855944 40.9162 0.861443C41.4606 0.855944 41.9884 1.04839 42.3898 1.41679C42.8077 1.79619 43.0167 2.30205 43.0167 2.93988ZM42.6758 18.8911H39.1732V6.51391H42.6758V18.8911Z" fill="white" fill-opacity="0.2"/>
<path d="M44.562 3.43451L48.0646 2.86816V6.51368H52.2764V9.43339H48.0646V13.7772C48.0646 14.514 48.1966 15.1079 48.4495 15.5367C48.7024 15.9711 49.2358 16.2021 50.0166 16.2021C50.407 16.1966 50.7918 16.1636 51.1767 16.0921C51.5506 16.0261 51.919 15.9271 52.2764 15.8007L52.7713 18.5279C52.3149 18.7149 51.8366 18.8633 51.3582 18.9733C50.8413 19.0943 50.209 19.1658 49.4502 19.1658C48.4935 19.1658 47.7017 19.0338 47.0694 18.7809C46.4425 18.5279 45.9312 18.165 45.5573 17.6922C45.1834 17.2358 44.9194 16.6694 44.771 16.0151C44.617 15.2948 44.54 14.5635 44.54 13.8322V3.43451H44.562Z" fill="#0B2233"/>
<path d="M44.562 3.43451L48.0646 2.86816V6.51368H52.2764V9.43339H48.0646V13.7772C48.0646 14.514 48.1966 15.1079 48.4495 15.5367C48.7024 15.9711 49.2358 16.2021 50.0166 16.2021C50.407 16.1966 50.7918 16.1636 51.1767 16.0921C51.5506 16.0261 51.919 15.9271 52.2764 15.8007L52.7713 18.5279C52.3149 18.7149 51.8366 18.8633 51.3582 18.9733C50.8413 19.0943 50.209 19.1658 49.4502 19.1658C48.4935 19.1658 47.7017 19.0338 47.0694 18.7809C46.4425 18.5279 45.9312 18.165 45.5573 17.6922C45.1834 17.2358 44.9194 16.6694 44.771 16.0151C44.617 15.2948 44.54 14.5635 44.54 13.8322V3.43451H44.562Z" fill="white" fill-opacity="0.2"/>
<path d="M52.7768 12.7049C52.7713 11.8472 52.9197 10.9894 53.2111 10.1811C53.4861 9.41683 53.9094 8.71302 54.4648 8.11368C55.0092 7.51984 55.68 7.06346 56.4663 6.71706C57.2525 6.36515 58.1433 6.2002 59.144 6.2002C59.8039 6.2002 60.4087 6.26068 60.953 6.38165C61.5029 6.50261 62.0363 6.66757 62.5476 6.88751L61.8218 9.68625C61.4644 9.55429 61.1015 9.44432 60.7331 9.36184C60.2987 9.26287 59.8588 9.21338 59.4135 9.21888C58.3742 9.21888 57.6045 9.54329 57.0986 10.1866C56.5927 10.8244 56.3398 11.6712 56.3398 12.7214C56.3398 13.8321 56.5817 14.7009 57.0491 15.3057C57.533 15.9216 58.3687 16.224 59.5454 16.224C60.0018 16.224 60.4582 16.1855 60.9091 16.103C61.3654 16.0315 61.8218 15.9051 62.2507 15.7291L62.7456 18.5993C62.2507 18.7973 61.7393 18.9457 61.2115 19.0447C60.5407 19.1767 59.8643 19.2427 59.1825 19.2372C58.0443 19.2372 57.0821 19.0667 56.2628 18.7313C55.4435 18.3959 54.7782 17.934 54.2449 17.3567C53.7115 16.7738 53.3376 16.092 53.0957 15.3002C52.8867 14.4535 52.7768 13.5847 52.7768 12.7049Z" fill="#0B2233"/>
<path d="M52.7768 12.7049C52.7713 11.8472 52.9197 10.9894 53.2111 10.1811C53.4861 9.41683 53.9094 8.71302 54.4648 8.11368C55.0092 7.51984 55.68 7.06346 56.4663 6.71706C57.2525 6.36515 58.1433 6.2002 59.144 6.2002C59.8039 6.2002 60.4087 6.26068 60.953 6.38165C61.5029 6.50261 62.0363 6.66757 62.5476 6.88751L61.8218 9.68625C61.4644 9.55429 61.1015 9.44432 60.7331 9.36184C60.2987 9.26287 59.8588 9.21338 59.4135 9.21888C58.3742 9.21888 57.6045 9.54329 57.0986 10.1866C56.5927 10.8244 56.3398 11.6712 56.3398 12.7214C56.3398 13.8321 56.5817 14.7009 57.0491 15.3057C57.533 15.9216 58.3687 16.224 59.5454 16.224C60.0018 16.224 60.4582 16.1855 60.9091 16.103C61.3654 16.0315 61.8218 15.9051 62.2507 15.7291L62.7456 18.5993C62.2507 18.7973 61.7393 18.9457 61.2115 19.0447C60.5407 19.1767 59.8643 19.2427 59.1825 19.2372C58.0443 19.2372 57.0821 19.0667 56.2628 18.7313C55.4435 18.3959 54.7782 17.934 54.2449 17.3567C53.7115 16.7738 53.3376 16.092 53.0957 15.3002C52.8867 14.4535 52.7768 13.5847 52.7768 12.7049Z" fill="white" fill-opacity="0.2"/>
<path d="M74.8148 12.6836C74.8148 13.6623 74.6718 14.5421 74.3914 15.3503C74.1165 16.1586 73.7041 16.8459 73.1762 17.4178C72.6374 17.9896 71.9831 18.4405 71.2573 18.7484C70.504 19.0618 69.6792 19.2213 68.7609 19.2213C67.8537 19.2213 67.0234 19.0673 66.2756 18.7484C65.5443 18.446 64.8955 17.9951 64.3566 17.4178C63.8233 16.8514 63.3999 16.1531 63.114 15.3503C62.8115 14.5421 62.6686 13.6458 62.6686 12.6836C62.6686 11.7048 62.8225 10.8251 63.125 10.0278C63.4274 9.23049 63.8508 8.54318 64.3896 7.98783C64.9395 7.42148 65.5938 6.9706 66.3196 6.66818C67.0674 6.35477 67.8757 6.19531 68.7609 6.19531C69.6517 6.19531 70.4765 6.34927 71.2243 6.66818C71.9721 6.9816 72.6099 7.41598 73.1432 7.98783C73.6931 8.57617 74.1165 9.26898 74.3859 10.0278C74.6608 10.8251 74.8148 11.7048 74.8148 12.6836ZM71.2408 12.6836C71.2408 11.5949 71.0208 10.7536 70.5919 10.1377C70.1576 9.52191 69.5417 9.2085 68.7444 9.2085C67.9472 9.2085 67.3203 9.52191 66.8859 10.1377C66.4516 10.7536 66.2206 11.6113 66.2206 12.6836C66.2206 13.7723 66.4406 14.6245 66.8859 15.2569C67.3203 15.8947 67.9472 16.2136 68.7444 16.2136C69.5417 16.2136 70.1576 15.9002 70.5919 15.2569C71.0263 14.6135 71.2408 13.7558 71.2408 12.6836Z" fill="#0B2233"/>
<path d="M74.8148 12.6836C74.8148 13.6623 74.6718 14.5421 74.3914 15.3503C74.1165 16.1586 73.7041 16.8459 73.1762 17.4178C72.6374 17.9896 71.9831 18.4405 71.2573 18.7484C70.504 19.0618 69.6792 19.2213 68.7609 19.2213C67.8537 19.2213 67.0234 19.0673 66.2756 18.7484C65.5443 18.446 64.8955 17.9951 64.3566 17.4178C63.8233 16.8514 63.3999 16.1531 63.114 15.3503C62.8115 14.5421 62.6686 13.6458 62.6686 12.6836C62.6686 11.7048 62.8225 10.8251 63.125 10.0278C63.4274 9.23049 63.8508 8.54318 64.3896 7.98783C64.9395 7.42148 65.5938 6.9706 66.3196 6.66818C67.0674 6.35477 67.8757 6.19531 68.7609 6.19531C69.6517 6.19531 70.4765 6.34927 71.2243 6.66818C71.9721 6.9816 72.6099 7.41598 73.1432 7.98783C73.6931 8.57617 74.1165 9.26898 74.3859 10.0278C74.6608 10.8251 74.8148 11.7048 74.8148 12.6836ZM71.2408 12.6836C71.2408 11.5949 71.0208 10.7536 70.5919 10.1377C70.1576 9.52191 69.5417 9.2085 68.7444 9.2085C67.9472 9.2085 67.3203 9.52191 66.8859 10.1377C66.4516 10.7536 66.2206 11.6113 66.2206 12.6836C66.2206 13.7723 66.4406 14.6245 66.8859 15.2569C67.3203 15.8947 67.9472 16.2136 68.7444 16.2136C69.5417 16.2136 70.1576 15.9002 70.5919 15.2569C71.0263 14.6135 71.2408 13.7558 71.2408 12.6836Z" fill="white" fill-opacity="0.2"/>
<path d="M80.0601 2.93988C80.0601 3.57771 79.8567 4.08907 79.4333 4.46297C79.0209 4.83687 78.526 5.01832 77.9597 5.01832C77.4153 5.02382 76.8875 4.83137 76.4861 4.46297C76.0737 4.08907 75.8593 3.5942 75.8593 2.93988C75.8593 2.30205 76.0627 1.79069 76.4861 1.41679C76.8875 1.05389 77.4153 0.855944 77.9597 0.861443C78.504 0.855944 79.0319 1.04839 79.4333 1.41679C79.8512 1.79619 80.0601 2.30205 80.0601 2.93988ZM79.7302 18.8911H76.2332V6.51391H79.7357V18.8911H79.7302Z" fill="#0B2233"/>
<path d="M80.0601 2.93988C80.0601 3.57771 79.8567 4.08907 79.4333 4.46297C79.0209 4.83687 78.526 5.01832 77.9597 5.01832C77.4153 5.02382 76.8875 4.83137 76.4861 4.46297C76.0737 4.08907 75.8593 3.5942 75.8593 2.93988C75.8593 2.30205 76.0627 1.79069 76.4861 1.41679C76.8875 1.05389 77.4153 0.855944 77.9597 0.861443C78.504 0.855944 79.0319 1.04839 79.4333 1.41679C79.8512 1.79619 80.0601 2.30205 80.0601 2.93988ZM79.7302 18.8911H76.2332V6.51391H79.7357V18.8911H79.7302Z" fill="white" fill-opacity="0.2"/>
<path d="M81.7212 6.93685C82.315 6.76639 83.0848 6.60144 84.0251 6.45848C85.0038 6.30452 85.988 6.22754 86.9833 6.22754C88.0335 6.22754 88.9022 6.3595 89.6061 6.63993C90.3044 6.91485 90.8597 7.30525 91.2611 7.80011C91.6735 8.30598 91.9594 8.89982 92.1299 9.58713C92.3003 10.2744 92.3828 11.0497 92.3828 11.891V18.8796H88.8803V12.3089C88.8803 11.1707 88.7373 10.3789 88.4349 9.90604C88.1325 9.43317 87.5771 9.20773 86.7688 9.20773C86.5159 9.20773 86.252 9.21873 85.9715 9.24622C85.6911 9.27371 85.4382 9.29571 85.2237 9.3287V18.8796H81.7212V6.93685Z" fill="#0B2233"/>
<path d="M81.7212 6.93685C82.315 6.76639 83.0848 6.60144 84.0251 6.45848C85.0038 6.30452 85.988 6.22754 86.9833 6.22754C88.0335 6.22754 88.9022 6.3595 89.6061 6.63993C90.3044 6.91485 90.8597 7.30525 91.2611 7.80011C91.6735 8.30598 91.9594 8.89982 92.1299 9.58713C92.3003 10.2744 92.3828 11.0497 92.3828 11.891V18.8796H88.8803V12.3089C88.8803 11.1707 88.7373 10.3789 88.4349 9.90604C88.1325 9.43317 87.5771 9.20773 86.7688 9.20773C86.5159 9.20773 86.252 9.21873 85.9715 9.24622C85.6911 9.27371 85.4382 9.29571 85.2237 9.3287V18.8796H81.7212V6.93685Z" fill="white" fill-opacity="0.2"/>
<path d="M101.955 19.2156C99.2996 19.2156 97.2872 18.4788 95.8961 17.0052C94.5104 15.5316 93.8176 13.4422 93.8176 10.7259C93.8176 9.37329 94.0376 8.18011 94.4555 7.1189C94.8788 6.05769 95.4562 5.16693 96.193 4.44113C96.9408 3.70982 97.8425 3.14348 98.8268 2.78607C99.8385 2.41217 100.949 2.21973 102.148 2.21973C102.835 2.21973 103.468 2.26921 104.034 2.37368C104.54 2.45616 105.035 2.57163 105.518 2.72559C105.881 2.83556 106.239 2.97302 106.58 3.13798C106.855 3.28094 107.058 3.39091 107.196 3.46239L106.134 6.42059C105.573 6.13467 104.991 5.90373 104.386 5.74427C103.72 5.55183 102.962 5.46385 102.115 5.46385C101.554 5.46385 100.993 5.56282 100.46 5.74427C99.921 5.93672 99.4316 6.25014 99.0247 6.65153C98.6123 7.06392 98.2769 7.60827 98.024 8.25709C97.7711 8.91692 97.6501 9.7197 97.6501 10.6599C97.6446 11.3693 97.7271 12.0731 97.892 12.7604C98.0625 13.4092 98.3264 13.9646 98.6893 14.4374C99.0742 14.9213 99.5691 15.3062 100.135 15.5591C100.729 15.834 101.455 15.9715 102.296 15.9715C102.775 15.9715 103.253 15.944 103.731 15.878C104.116 15.8285 104.496 15.7516 104.87 15.6471C105.167 15.5756 105.458 15.4766 105.738 15.3612C105.991 15.2512 106.217 15.1412 106.415 15.0588L107.426 18.006C106.91 18.3194 106.184 18.5998 105.244 18.8472C104.287 19.0947 103.187 19.2156 101.955 19.2156Z" fill="#0B2233"/>
<path d="M101.955 19.2156C99.2996 19.2156 97.2872 18.4788 95.8961 17.0052C94.5104 15.5316 93.8176 13.4422 93.8176 10.7259C93.8176 9.37329 94.0376 8.18011 94.4555 7.1189C94.8788 6.05769 95.4562 5.16693 96.193 4.44113C96.9408 3.70982 97.8425 3.14348 98.8268 2.78607C99.8385 2.41217 100.949 2.21973 102.148 2.21973C102.835 2.21973 103.468 2.26921 104.034 2.37368C104.54 2.45616 105.035 2.57163 105.518 2.72559C105.881 2.83556 106.239 2.97302 106.58 3.13798C106.855 3.28094 107.058 3.39091 107.196 3.46239L106.134 6.42059C105.573 6.13467 104.991 5.90373 104.386 5.74427C103.72 5.55183 102.962 5.46385 102.115 5.46385C101.554 5.46385 100.993 5.56282 100.46 5.74427C99.921 5.93672 99.4316 6.25014 99.0247 6.65153C98.6123 7.06392 98.2769 7.60827 98.024 8.25709C97.7711 8.91692 97.6501 9.7197 97.6501 10.6599C97.6446 11.3693 97.7271 12.0731 97.892 12.7604C98.0625 13.4092 98.3264 13.9646 98.6893 14.4374C99.0742 14.9213 99.5691 15.3062 100.135 15.5591C100.729 15.834 101.455 15.9715 102.296 15.9715C102.775 15.9715 103.253 15.944 103.731 15.878C104.116 15.8285 104.496 15.7516 104.87 15.6471C105.167 15.5756 105.458 15.4766 105.738 15.3612C105.991 15.2512 106.217 15.1412 106.415 15.0588L107.426 18.006C106.91 18.3194 106.184 18.5998 105.244 18.8472C104.287 19.0947 103.187 19.2156 101.955 19.2156Z" fill="white" fill-opacity="0.2"/>
<path d="M112.919 6.18945C113.959 6.18945 114.816 6.31042 115.504 6.54136C116.191 6.7723 116.746 7.1077 117.159 7.55308C117.582 8.00396 117.879 8.55381 118.038 9.14765C118.209 9.77448 118.291 10.4783 118.291 11.2371V18.5281C117.785 18.6381 117.098 18.7701 116.202 18.913C115.311 19.056 114.222 19.1439 112.958 19.1439C112.161 19.1439 111.435 19.067 110.786 18.924C110.137 18.781 109.582 18.5501 109.109 18.2367C108.641 17.9178 108.268 17.4889 108.02 16.983C107.767 16.4662 107.646 15.8338 107.646 15.075C107.646 14.3492 107.789 13.7444 108.081 13.2385C108.356 12.7437 108.751 12.3368 109.241 12.0454C109.719 11.743 110.28 11.5285 110.907 11.3965C111.55 11.2591 112.205 11.1931 112.859 11.1931C113.315 11.1931 113.717 11.2206 114.063 11.2536C114.415 11.2921 114.701 11.3361 114.921 11.4075V11.0831C114.921 10.4893 114.739 10.0109 114.376 9.64802C114.014 9.28512 113.387 9.10366 112.49 9.10366C111.902 9.10366 111.314 9.14765 110.731 9.23563C110.148 9.31811 109.642 9.43907 109.219 9.59853L108.773 6.7723C108.977 6.71181 109.23 6.64033 109.532 6.56885C109.835 6.49187 110.17 6.43689 110.533 6.3764C110.896 6.31592 111.27 6.27743 111.671 6.23344C112.1 6.21145 112.507 6.18945 112.919 6.18945ZM113.194 16.4332C113.546 16.4332 113.871 16.4222 114.184 16.4057C114.437 16.4002 114.684 16.3782 114.932 16.3342V13.6784C114.789 13.6399 114.58 13.6179 114.294 13.585C114.041 13.552 113.777 13.5355 113.519 13.5355C113.205 13.541 112.897 13.5575 112.589 13.5959C112.303 13.6344 112.045 13.7059 111.831 13.8269C111.622 13.9259 111.44 14.0798 111.314 14.2723C111.182 14.4812 111.116 14.7231 111.121 14.9706C111.121 15.5149 111.303 15.8998 111.677 16.1088C112.051 16.3397 112.556 16.4332 113.194 16.4332Z" fill="#0B2233"/>
<path d="M112.919 6.18945C113.959 6.18945 114.816 6.31042 115.504 6.54136C116.191 6.7723 116.746 7.1077 117.159 7.55308C117.582 8.00396 117.879 8.55381 118.038 9.14765C118.209 9.77448 118.291 10.4783 118.291 11.2371V18.5281C117.785 18.6381 117.098 18.7701 116.202 18.913C115.311 19.056 114.222 19.1439 112.958 19.1439C112.161 19.1439 111.435 19.067 110.786 18.924C110.137 18.781 109.582 18.5501 109.109 18.2367C108.641 17.9178 108.268 17.4889 108.02 16.983C107.767 16.4662 107.646 15.8338 107.646 15.075C107.646 14.3492 107.789 13.7444 108.081 13.2385C108.356 12.7437 108.751 12.3368 109.241 12.0454C109.719 11.743 110.28 11.5285 110.907 11.3965C111.55 11.2591 112.205 11.1931 112.859 11.1931C113.315 11.1931 113.717 11.2206 114.063 11.2536C114.415 11.2921 114.701 11.3361 114.921 11.4075V11.0831C114.921 10.4893 114.739 10.0109 114.376 9.64802C114.014 9.28512 113.387 9.10366 112.49 9.10366C111.902 9.10366 111.314 9.14765 110.731 9.23563C110.148 9.31811 109.642 9.43907 109.219 9.59853L108.773 6.7723C108.977 6.71181 109.23 6.64033 109.532 6.56885C109.835 6.49187 110.17 6.43689 110.533 6.3764C110.896 6.31592 111.27 6.27743 111.671 6.23344C112.1 6.21145 112.507 6.18945 112.919 6.18945ZM113.194 16.4332C113.546 16.4332 113.871 16.4222 114.184 16.4057C114.437 16.4002 114.684 16.3782 114.932 16.3342V13.6784C114.789 13.6399 114.58 13.6179 114.294 13.585C114.041 13.552 113.777 13.5355 113.519 13.5355C113.205 13.541 112.897 13.5575 112.589 13.5959C112.303 13.6344 112.045 13.7059 111.831 13.8269C111.622 13.9259 111.44 14.0798 111.314 14.2723C111.182 14.4812 111.116 14.7231 111.121 14.9706C111.121 15.5149 111.303 15.8998 111.677 16.1088C112.051 16.3397 112.556 16.4332 113.194 16.4332Z" fill="white" fill-opacity="0.2"/>
<path d="M123.735 16.3782C124.373 16.3782 124.835 16.3177 125.099 16.1857C125.368 16.0648 125.5 15.8118 125.5 15.4599C125.5 15.185 125.33 14.9266 124.983 14.7231C124.631 14.5032 124.114 14.2778 123.405 14.0138C122.861 13.8104 122.355 13.6014 121.91 13.376C121.464 13.1561 121.079 12.8921 120.771 12.5897C120.452 12.2763 120.211 11.9024 120.046 11.49C119.875 11.0666 119.793 10.5608 119.793 9.95593C119.793 8.79575 120.227 7.8775 121.085 7.20118C121.943 6.52486 123.125 6.18945 124.631 6.18945C125.357 6.18945 126.077 6.26093 126.792 6.3929C127.48 6.52486 128.035 6.66782 128.436 6.82728L127.82 9.55454C127.386 9.40058 126.946 9.27962 126.49 9.18064C125.962 9.06518 125.423 9.00469 124.884 9.01019C123.785 9.01019 123.24 9.31261 123.24 9.92844C123.235 10.0604 123.262 10.1814 123.317 10.3023C123.378 10.4288 123.477 10.5388 123.592 10.6158C123.779 10.7422 123.972 10.8467 124.175 10.9402C124.477 11.0886 124.785 11.2151 125.104 11.3251C125.88 11.6165 126.501 11.8914 127.012 12.1663C127.518 12.4413 127.903 12.7492 128.194 13.0571C128.469 13.365 128.684 13.7224 128.81 14.1183C128.931 14.5032 128.992 14.9596 128.992 15.4819C128.992 16.6971 128.535 17.6319 127.617 18.2477C126.699 18.8745 125.407 19.1879 123.73 19.1879C122.63 19.1879 121.712 19.0945 120.991 18.913C120.266 18.7206 119.76 18.5611 119.468 18.4401L120.062 15.5919C120.656 15.8228 121.272 16.0098 121.899 16.1473C122.498 16.3012 123.114 16.3782 123.735 16.3782Z" fill="#0B2233"/>
<path d="M123.735 16.3782C124.373 16.3782 124.835 16.3177 125.099 16.1857C125.368 16.0648 125.5 15.8118 125.5 15.4599C125.5 15.185 125.33 14.9266 124.983 14.7231C124.631 14.5032 124.114 14.2778 123.405 14.0138C122.861 13.8104 122.355 13.6014 121.91 13.376C121.464 13.1561 121.079 12.8921 120.771 12.5897C120.452 12.2763 120.211 11.9024 120.046 11.49C119.875 11.0666 119.793 10.5608 119.793 9.95593C119.793 8.79575 120.227 7.8775 121.085 7.20118C121.943 6.52486 123.125 6.18945 124.631 6.18945C125.357 6.18945 126.077 6.26093 126.792 6.3929C127.48 6.52486 128.035 6.66782 128.436 6.82728L127.82 9.55454C127.386 9.40058 126.946 9.27962 126.49 9.18064C125.962 9.06518 125.423 9.00469 124.884 9.01019C123.785 9.01019 123.24 9.31261 123.24 9.92844C123.235 10.0604 123.262 10.1814 123.317 10.3023C123.378 10.4288 123.477 10.5388 123.592 10.6158C123.779 10.7422 123.972 10.8467 124.175 10.9402C124.477 11.0886 124.785 11.2151 125.104 11.3251C125.88 11.6165 126.501 11.8914 127.012 12.1663C127.518 12.4413 127.903 12.7492 128.194 13.0571C128.469 13.365 128.684 13.7224 128.81 14.1183C128.931 14.5032 128.992 14.9596 128.992 15.4819C128.992 16.6971 128.535 17.6319 127.617 18.2477C126.699 18.8745 125.407 19.1879 123.73 19.1879C122.63 19.1879 121.712 19.0945 120.991 18.913C120.266 18.7206 119.76 18.5611 119.468 18.4401L120.062 15.5919C120.656 15.8228 121.272 16.0098 121.899 16.1473C122.498 16.3012 123.114 16.3782 123.735 16.3782Z" fill="white" fill-opacity="0.2"/>
<path d="M130.289 18.8908V1.20209L133.792 0.635742V6.56314C134.089 6.46966 134.391 6.39268 134.699 6.3322C135.051 6.26072 135.414 6.22223 135.771 6.22223C136.772 6.22223 137.608 6.3542 138.268 6.63462C138.928 6.90954 139.461 7.29444 139.862 7.7948C140.264 8.30067 140.539 8.89451 140.704 9.58182C140.874 10.2691 140.946 11.0444 140.946 11.8857V18.8798H137.443V12.3091C137.443 11.1709 137.3 10.3791 137.009 9.90623C136.717 9.43336 136.178 9.20792 135.403 9.20792C135.106 9.20242 134.809 9.23542 134.523 9.2904C134.243 9.35088 134.006 9.40037 133.786 9.47185V18.8743H130.284L130.289 18.8908Z" fill="#0B2233"/>
<path d="M130.289 18.8908V1.20209L133.792 0.635742V6.56314C134.089 6.46966 134.391 6.39268 134.699 6.3322C135.051 6.26072 135.414 6.22223 135.771 6.22223C136.772 6.22223 137.608 6.3542 138.268 6.63462C138.928 6.90954 139.461 7.29444 139.862 7.7948C140.264 8.30067 140.539 8.89451 140.704 9.58182C140.874 10.2691 140.946 11.0444 140.946 11.8857V18.8798H137.443V12.3091C137.443 11.1709 137.3 10.3791 137.009 9.90623C136.717 9.43336 136.178 9.20792 135.403 9.20792C135.106 9.20242 134.809 9.23542 134.523 9.2904C134.243 9.35088 134.006 9.40037 133.786 9.47185V18.8743H130.284L130.289 18.8908Z" fill="white" fill-opacity="0.2"/>
<path d="M12.7199 19.3634C17.8186 19.3634 21.9519 15.2301 21.9519 10.1314C21.9519 5.03272 17.8186 0.899414 12.7199 0.899414C7.62122 0.899414 3.48792 5.03272 3.48792 10.1314C3.48792 15.2301 7.62122 19.3634 12.7199 19.3634Z" fill="#0B2233"/>
<path d="M12.7199 19.3634C17.8186 19.3634 21.9519 15.2301 21.9519 10.1314C21.9519 5.03272 17.8186 0.899414 12.7199 0.899414C7.62122 0.899414 3.48792 5.03272 3.48792 10.1314C3.48792 15.2301 7.62122 19.3634 12.7199 19.3634Z" fill="white" fill-opacity="0.2"/>
<path d="M15.5954 7.04142C15.1335 5.9912 14.0723 5.77126 12.7691 5.9857L12.3513 4.36914L11.3615 4.62207L11.7739 6.23863C11.5155 6.30462 11.2461 6.3596 10.9876 6.43658L10.5752 4.83102L9.58551 5.08395L10.0034 6.70601C9.79445 6.76649 8.01843 7.22287 8.01843 7.22287L8.29336 8.27858C8.29336 8.27858 9.01916 8.07514 9.01366 8.09163C9.41505 7.98716 9.602 8.18511 9.69548 8.37756L10.8447 12.8204C10.8612 12.9523 10.8392 13.1723 10.5587 13.2437C10.5752 13.2492 9.83844 13.4307 9.83844 13.4307L9.94841 14.6569C9.94841 14.6569 11.7079 14.206 11.9389 14.151L12.3623 15.7895L13.3465 15.5366L12.9231 13.8871C13.198 13.8266 13.4565 13.7551 13.7149 13.6891L14.1383 15.3332L15.128 15.0802L14.7046 13.4417C16.2222 13.0733 17.2944 12.1165 17.0745 10.6539C16.9315 9.77418 15.9693 9.04837 15.1665 8.9659C15.6504 8.50952 15.9033 7.87719 15.5954 7.04142ZM15.117 10.9014C15.315 12.353 13.3025 12.5289 12.6317 12.7049L12.0488 10.5385C12.7252 10.3625 14.7926 9.62572 15.117 10.9014ZM13.9073 7.95417C14.1163 9.24082 12.3952 9.39478 11.8344 9.53774L11.3065 7.56928C11.8619 7.42631 13.484 6.7555 13.9073 7.95417Z" fill="#0B2233"/>
<path d="M15.5954 7.04142C15.1335 5.9912 14.0723 5.77126 12.7691 5.9857L12.3513 4.36914L11.3615 4.62207L11.7739 6.23863C11.5155 6.30462 11.2461 6.3596 10.9876 6.43658L10.5752 4.83102L9.58551 5.08395L10.0034 6.70601C9.79445 6.76649 8.01843 7.22287 8.01843 7.22287L8.29336 8.27858C8.29336 8.27858 9.01916 8.07514 9.01366 8.09163C9.41505 7.98716 9.602 8.18511 9.69548 8.37756L10.8447 12.8204C10.8612 12.9523 10.8392 13.1723 10.5587 13.2437C10.5752 13.2492 9.83844 13.4307 9.83844 13.4307L9.94841 14.6569C9.94841 14.6569 11.7079 14.206 11.9389 14.151L12.3623 15.7895L13.3465 15.5366L12.9231 13.8871C13.198 13.8266 13.4565 13.7551 13.7149 13.6891L14.1383 15.3332L15.128 15.0802L14.7046 13.4417C16.2222 13.0733 17.2944 12.1165 17.0745 10.6539C16.9315 9.77418 15.9693 9.04837 15.1665 8.9659C15.6504 8.50952 15.9033 7.87719 15.5954 7.04142ZM15.117 10.9014C15.315 12.353 13.3025 12.5289 12.6317 12.7049L12.0488 10.5385C12.7252 10.3625 14.7926 9.62572 15.117 10.9014ZM13.9073 7.95417C14.1163 9.24082 12.3952 9.39478 11.8344 9.53774L11.3065 7.56928C11.8619 7.42631 13.484 6.7555 13.9073 7.95417Z" fill="black" fill-opacity="0.2"/>
</g>
<defs>
<clipPath id="clip0_1468_130994">
<rect fill="white" height="18.7499" transform="translate(3.4873 0.625)" width="137.463"/>
</clipPath>
</defs>
</svg>