<?xml version="1.0" encoding="utf-8"?>
<svg xmlns="http://www.w3.org/2000/svg" fill="none" height="21" viewBox="0 0 89 21" width="89">
<g clip-path="url(#clip0_1497_49551)">
<g clip-path="url(#clip1_1497_49551)">
<path d="M27.7525 14.1817C27.4477 14.1817 27.1428 14.1485 26.838 14.1154C26.5331 14.0492 26.3288 14.016 26.1948 13.9829C26.0608 13.9498 25.9234 13.8504 25.8564 13.7477C25.7559 13.6152 25.7224 13.5125 25.7224 13.38V6.10526C25.7224 5.93631 25.7894 5.77067 25.9268 5.66798C26.0608 5.53547 26.1981 5.49903 26.4025 5.49903C27.2835 5.49903 28.1646 5.63154 29.0456 5.86674C29.9267 6.13507 30.7072 6.60548 31.3504 7.30777C31.9936 8.01007 32.332 8.98401 32.332 10.223C32.332 11.1273 32.1276 11.8661 31.7223 12.469C31.3169 13.0719 30.7742 13.5092 30.0942 13.8106C29.4175 14.1121 28.6369 14.2479 27.7894 14.2479L27.7525 14.1817ZM27.7525 12.9063C28.7709 12.9063 29.5481 12.6711 30.1243 12.204C30.7005 11.7369 31.0054 11.0644 31.0054 10.16C31.0054 9.05358 30.6335 8.21546 29.92 7.6788C29.1729 7.14214 28.2249 6.80755 27.0055 6.7413V12.8069C27.3103 12.84 27.5482 12.8731 27.7525 12.8731V12.9063ZM36.7004 14.1154C36.0572 14.1154 35.481 13.9465 34.9718 13.5788C34.4626 13.211 34.0572 12.7406 33.7859 12.1377C33.481 11.5348 33.3437 10.8292 33.3437 10.0606C33.3437 9.1894 33.5145 8.41753 33.8864 7.68211C34.2247 6.97981 34.7004 6.41003 35.3101 5.97275C35.8863 5.57191 36.5295 5.3367 37.2096 5.3367C37.8528 5.3367 38.429 5.50565 38.9382 5.87336C39.4474 6.20795 39.8527 6.71148 40.1576 7.3144C40.4624 7.91731 40.5998 8.62292 40.5998 9.39147C40.5998 10.2627 40.4289 11.0677 40.0571 11.77C39.7187 12.4723 39.243 13.0421 38.6333 13.4794C38.0571 13.8802 37.4106 14.1154 36.7004 14.1154ZM36.7004 12.9063C37.1761 12.9063 37.6149 12.7738 37.9868 12.469C38.3921 12.1675 38.697 11.7667 38.9348 11.2632C39.1727 10.7265 39.2732 10.1567 39.2732 9.48754C39.2732 8.88463 39.1727 8.38109 38.9683 7.94713C38.764 7.51316 38.4926 7.17526 38.1543 6.94006C37.8159 6.70486 37.4776 6.60548 37.1024 6.60548C36.6602 6.60548 36.2213 6.73798 35.8495 7.04275C35.4776 7.34752 35.1728 7.74505 34.9349 8.28171C34.6971 8.81837 34.5966 9.42129 34.5966 10.0573C34.5966 10.6602 34.6971 11.1638 34.8679 11.5977C35.0723 12.035 35.3101 12.3365 35.615 12.5684C35.9198 12.8036 36.2582 12.903 36.6334 12.903H36.7004V12.9063ZM45.5444 14.1485C44.7638 14.1485 44.0871 13.9465 43.4774 13.5456C42.8677 13.1448 42.4255 12.6081 42.0872 11.9688C41.7488 11.3327 41.6115 10.6271 41.6115 9.89169C41.6115 9.15627 41.7823 8.45066 42.1207 7.74505C42.459 7.03944 42.9682 6.47297 43.5779 6.03569C44.1876 5.59841 44.9347 5.36652 45.7487 5.36652C46.4958 5.36652 47.139 5.53547 47.6817 5.83692C48.1909 6.17151 48.5962 6.50609 48.8676 6.94337C49.1389 7.34421 49.2394 7.68211 49.2394 7.914C49.2394 8.08295 49.1724 8.24858 49.0686 8.35128C48.9681 8.45066 48.7972 8.52023 48.6264 8.52023C48.3215 8.52023 48.1172 8.38772 48.0167 8.11939C47.8458 7.71855 47.6113 7.34753 47.2361 7.07919C46.8643 6.81086 46.3886 6.67836 45.7789 6.67836C45.1357 6.67836 44.593 6.88043 44.1843 7.24814C43.7421 7.61586 43.4372 8.05313 43.2362 8.55667C43.0352 9.0602 42.9314 9.49417 42.9314 9.89832C42.9314 10.3687 43.0319 10.8358 43.2362 11.2731C43.4406 11.7435 43.7454 12.1112 44.1508 12.4127C44.5561 12.7141 45.0318 12.8831 45.608 12.8831C46.1507 12.8831 46.6599 12.7506 47.0653 12.4822C47.4706 12.2139 47.7755 11.8131 47.9798 11.3095H47.7755C47.4706 11.3095 47.1658 11.3758 46.7939 11.4785C46.6599 11.5116 46.5226 11.5447 46.4556 11.5447C46.2847 11.5447 46.1507 11.4785 46.0134 11.3758C45.8794 11.2764 45.809 11.1075 45.809 10.9054C45.809 10.6039 45.9799 10.4019 46.2847 10.2693C46.4187 10.2031 46.6566 10.17 46.9949 10.1004C47.3333 10.0673 47.6716 10.0341 48.0133 10.0341C48.5225 10.0341 48.9949 10.1004 49.4706 10.2693C49.7419 10.3687 49.8759 10.5708 49.8759 10.8723C49.8759 11.0048 49.8424 11.1406 49.7419 11.24C49.6414 11.3394 49.5376 11.4089 49.4036 11.4752C49.3366 11.4752 49.2696 11.5083 49.2327 11.5083C48.9949 12.3133 48.556 12.9493 47.9095 13.4529C47.2663 13.9564 46.4857 14.1916 45.5712 14.1916L45.5444 14.1485ZM51.8491 14.0458C51.6782 14.0458 51.5107 13.9796 51.3734 13.8438C51.2394 13.7113 51.169 13.5754 51.169 13.3734V6.06881C51.169 5.89987 51.236 5.73423 51.3734 5.59841C51.5074 5.4659 51.6447 5.39633 51.8491 5.39633H57.0349C57.2057 5.39633 57.3732 5.46259 57.4771 5.59841C57.6111 5.73092 57.6479 5.86674 57.6479 6.06881C57.6479 6.23776 57.5809 6.4034 57.4771 6.53922C57.3431 6.67173 57.2057 6.7413 57.0349 6.7413H52.4923V8.95088H56.4252C56.596 8.95088 56.7635 9.01714 56.8674 9.11983C57.0014 9.25234 57.0382 9.38816 57.0382 9.55711C57.0382 9.72606 56.9712 9.89169 56.8674 10.0275C56.7334 10.16 56.596 10.2296 56.4252 10.2296H52.4923V12.7771H57.0014C57.1722 12.7771 57.3397 12.8433 57.4436 12.9792C57.5776 13.1117 57.6144 13.2475 57.6144 13.4496C57.6144 13.6185 57.5474 13.7841 57.4436 13.92C57.3096 14.0525 57.1722 14.122 57.0014 14.122H51.8491V14.0458ZM62.2207 14.1154C61.544 14.1154 60.8974 13.9465 60.3212 13.645C59.745 13.3435 59.2693 12.8731 58.931 12.3034C58.5926 11.7004 58.4218 11.0313 58.4218 10.2594C58.4218 9.42129 58.6261 8.64942 58.998 7.88087C59.4033 7.10901 59.9125 6.50609 60.5222 6.07213C61.1319 5.60172 61.7751 5.40296 62.4552 5.40296C62.7265 5.40296 62.9979 5.43609 63.2692 5.53547C63.5406 5.63485 63.7784 5.73754 64.0163 5.87005C64.1168 5.77067 64.2541 5.7011 64.3881 5.7011C64.559 5.7011 64.693 5.76736 64.8303 5.87005C64.9308 5.96943 65.0012 6.13838 65.0012 6.27089V7.10901C65.0012 7.27796 64.9342 7.44359 64.7968 7.54629C64.6628 7.6788 64.5255 7.74836 64.3211 7.74836C64.1503 7.74836 64.0163 7.71524 63.8789 7.57942C63.7784 7.48003 63.7081 7.34421 63.7081 7.2117V7.11232C63.4032 6.77774 62.9275 6.60879 62.3178 6.60879C61.8756 6.60879 61.4703 6.77774 61.0314 7.14545C60.6261 7.48003 60.2844 7.95044 60.013 8.52023C59.7417 9.09002 59.6412 9.6598 59.6412 10.2627C59.6412 10.7994 59.7417 11.2698 59.9795 11.6706C60.2174 12.0715 60.5222 12.3729 60.8941 12.575C61.2659 12.7771 61.6746 12.8765 62.147 12.8765C62.9945 12.8765 63.6712 12.5087 64.2139 11.8031C64.2809 11.7038 64.3848 11.6342 64.4518 11.6011C64.5188 11.5679 64.6226 11.5348 64.7231 11.5348C64.894 11.5348 65.0615 11.6011 65.1988 11.7038C65.3328 11.8031 65.4032 11.9721 65.4032 12.1742C65.4032 12.3067 65.3697 12.4425 65.3027 12.5419C64.9643 13.0454 64.4886 13.4131 63.9459 13.6814C63.4032 13.9498 62.7935 14.0492 62.1838 14.0492L62.2207 14.1154ZM69.5773 14.1154C68.9341 14.1154 68.3579 13.9465 67.8487 13.5788C67.3395 13.211 66.9341 12.7406 66.6628 12.1377C66.3579 11.5348 66.2206 10.8292 66.2206 10.0606C66.2206 9.1894 66.3914 8.41753 66.7633 7.68211C67.1016 6.97981 67.5773 6.41003 68.187 5.97275C68.7967 5.57191 69.4064 5.3367 70.0865 5.3367C70.7297 5.3367 71.3059 5.50565 71.8151 5.87336C72.3243 6.20795 72.7296 6.71148 73.0345 7.3144C73.3393 7.91731 73.4767 8.62292 73.4767 9.39147C73.4767 10.2627 73.3058 11.0677 72.934 11.77C72.5956 12.4723 72.1199 13.0421 71.5102 13.4794C70.9307 13.8802 70.2875 14.1154 69.5773 14.1154ZM69.5773 12.9063C70.053 12.9063 70.4583 12.7738 70.8637 12.469C71.269 12.1642 71.5739 11.7667 71.8117 11.2632C72.0496 10.7265 72.1501 10.1567 72.1501 9.48754C72.1501 8.88463 72.0496 8.38109 71.8452 7.94713C71.6409 7.50985 71.3695 7.17526 71.0312 6.94006C70.6928 6.70486 70.3545 6.60548 69.9793 6.60548C69.5371 6.60548 69.0982 6.73798 68.7264 7.04275C68.3545 7.34421 68.0497 7.74505 67.8118 8.28171C67.574 8.81837 67.4735 9.42129 67.4735 10.0573C67.4735 10.6602 67.574 11.1638 67.7448 11.5977C67.9492 12.035 68.187 12.3365 68.4919 12.5684C68.7967 12.8003 69.1351 12.903 69.5103 12.903H69.5773V12.9063ZM74.7296 14.0458C74.5587 14.0458 74.3912 13.9796 74.2539 13.8438C74.1199 13.7113 74.0495 13.5754 74.0495 13.3734C74.0495 13.2044 74.1165 13.0388 74.2539 12.903C74.3879 12.7704 74.5252 12.7009 74.7296 12.7009H75.6441V6.67504H74.7296C74.5587 6.67504 74.3912 6.60879 74.2539 6.47297C74.1199 6.34046 74.0495 6.20464 74.0495 6.00256C74.0495 5.83361 74.1165 5.66798 74.2539 5.56528C74.3879 5.43277 74.5252 5.39633 74.7296 5.39633H77.8484C78.0193 5.39633 78.1868 5.46259 78.2906 5.56528C78.4246 5.69779 78.4615 5.83361 78.4615 6.00256C78.4615 6.17151 78.3945 6.33715 78.2906 6.47297C78.1566 6.60548 78.0193 6.67504 77.8484 6.67504H76.9674V12.7075H77.8484C78.0528 12.7075 78.1868 12.7738 78.3241 12.9096C78.4246 13.0421 78.495 13.1779 78.495 13.38C78.495 13.5489 78.428 13.7146 78.3241 13.8504C78.1901 13.9829 78.0528 14.0525 77.8819 14.0525H74.7966H74.7296V14.0458ZM80.5251 14.1154C80.3542 14.1154 80.2202 14.0492 80.0829 13.9133C79.9489 13.7808 79.8785 13.645 79.8785 13.4761V6.00256C79.8785 5.83361 79.9455 5.7011 80.0494 5.56528C80.1499 5.43277 80.3207 5.36321 80.4916 5.36321C80.5921 5.36321 80.6959 5.39633 80.7964 5.42946C80.8969 5.46259 80.9673 5.52884 81.0343 5.63154L85.1012 11.4288V5.96943C85.1012 5.80048 85.1682 5.63485 85.3055 5.53215C85.4395 5.39965 85.5769 5.33008 85.7812 5.33008C85.9521 5.33008 86.0861 5.39633 86.2234 5.53215C86.3574 5.66466 86.4278 5.80048 86.4278 5.96943V13.4429C86.4278 13.6119 86.3608 13.7775 86.2569 13.8802C86.1229 14.0127 85.9856 14.0492 85.8147 14.0492C85.7142 14.0492 85.6104 14.016 85.5099 13.9829C85.4094 13.9498 85.339 13.8504 85.272 13.7808L81.2386 7.98357V13.4131C81.2386 13.5821 81.1716 13.7477 81.0343 13.8504C80.9003 13.9498 80.7629 14.0193 80.5586 14.0193L80.5251 14.1154Z" fill="#0B2233"/>
<path d="M27.7525 14.1817C27.4477 14.1817 27.1428 14.1485 26.838 14.1154C26.5331 14.0492 26.3288 14.016 26.1948 13.9829C26.0608 13.9498 25.9234 13.8504 25.8564 13.7477C25.7559 13.6152 25.7224 13.5125 25.7224 13.38V6.10526C25.7224 5.93631 25.7894 5.77067 25.9268 5.66798C26.0608 5.53547 26.1981 5.49903 26.4025 5.49903C27.2835 5.49903 28.1646 5.63154 29.0456 5.86674C29.9267 6.13507 30.7072 6.60548 31.3504 7.30777C31.9936 8.01007 32.332 8.98401 32.332 10.223C32.332 11.1273 32.1276 11.8661 31.7223 12.469C31.3169 13.0719 30.7742 13.5092 30.0942 13.8106C29.4175 14.1121 28.6369 14.2479 27.7894 14.2479L27.7525 14.1817ZM27.7525 12.9063C28.7709 12.9063 29.5481 12.6711 30.1243 12.204C30.7005 11.7369 31.0054 11.0644 31.0054 10.16C31.0054 9.05358 30.6335 8.21546 29.92 7.6788C29.1729 7.14214 28.2249 6.80755 27.0055 6.7413V12.8069C27.3103 12.84 27.5482 12.8731 27.7525 12.8731V12.9063ZM36.7004 14.1154C36.0572 14.1154 35.481 13.9465 34.9718 13.5788C34.4626 13.211 34.0572 12.7406 33.7859 12.1377C33.481 11.5348 33.3437 10.8292 33.3437 10.0606C33.3437 9.1894 33.5145 8.41753 33.8864 7.68211C34.2247 6.97981 34.7004 6.41003 35.3101 5.97275C35.8863 5.57191 36.5295 5.3367 37.2096 5.3367C37.8528 5.3367 38.429 5.50565 38.9382 5.87336C39.4474 6.20795 39.8527 6.71148 40.1576 7.3144C40.4624 7.91731 40.5998 8.62292 40.5998 9.39147C40.5998 10.2627 40.4289 11.0677 40.0571 11.77C39.7187 12.4723 39.243 13.0421 38.6333 13.4794C38.0571 13.8802 37.4106 14.1154 36.7004 14.1154ZM36.7004 12.9063C37.1761 12.9063 37.6149 12.7738 37.9868 12.469C38.3921 12.1675 38.697 11.7667 38.9348 11.2632C39.1727 10.7265 39.2732 10.1567 39.2732 9.48754C39.2732 8.88463 39.1727 8.38109 38.9683 7.94713C38.764 7.51316 38.4926 7.17526 38.1543 6.94006C37.8159 6.70486 37.4776 6.60548 37.1024 6.60548C36.6602 6.60548 36.2213 6.73798 35.8495 7.04275C35.4776 7.34752 35.1728 7.74505 34.9349 8.28171C34.6971 8.81837 34.5966 9.42129 34.5966 10.0573C34.5966 10.6602 34.6971 11.1638 34.8679 11.5977C35.0723 12.035 35.3101 12.3365 35.615 12.5684C35.9198 12.8036 36.2582 12.903 36.6334 12.903H36.7004V12.9063ZM45.5444 14.1485C44.7638 14.1485 44.0871 13.9465 43.4774 13.5456C42.8677 13.1448 42.4255 12.6081 42.0872 11.9688C41.7488 11.3327 41.6115 10.6271 41.6115 9.89169C41.6115 9.15627 41.7823 8.45066 42.1207 7.74505C42.459 7.03944 42.9682 6.47297 43.5779 6.03569C44.1876 5.59841 44.9347 5.36652 45.7487 5.36652C46.4958 5.36652 47.139 5.53547 47.6817 5.83692C48.1909 6.17151 48.5962 6.50609 48.8676 6.94337C49.1389 7.34421 49.2394 7.68211 49.2394 7.914C49.2394 8.08295 49.1724 8.24858 49.0686 8.35128C48.9681 8.45066 48.7972 8.52023 48.6264 8.52023C48.3215 8.52023 48.1172 8.38772 48.0167 8.11939C47.8458 7.71855 47.6113 7.34753 47.2361 7.07919C46.8643 6.81086 46.3886 6.67836 45.7789 6.67836C45.1357 6.67836 44.593 6.88043 44.1843 7.24814C43.7421 7.61586 43.4372 8.05313 43.2362 8.55667C43.0352 9.0602 42.9314 9.49417 42.9314 9.89832C42.9314 10.3687 43.0319 10.8358 43.2362 11.2731C43.4406 11.7435 43.7454 12.1112 44.1508 12.4127C44.5561 12.7141 45.0318 12.8831 45.608 12.8831C46.1507 12.8831 46.6599 12.7506 47.0653 12.4822C47.4706 12.2139 47.7755 11.8131 47.9798 11.3095H47.7755C47.4706 11.3095 47.1658 11.3758 46.7939 11.4785C46.6599 11.5116 46.5226 11.5447 46.4556 11.5447C46.2847 11.5447 46.1507 11.4785 46.0134 11.3758C45.8794 11.2764 45.809 11.1075 45.809 10.9054C45.809 10.6039 45.9799 10.4019 46.2847 10.2693C46.4187 10.2031 46.6566 10.17 46.9949 10.1004C47.3333 10.0673 47.6716 10.0341 48.0133 10.0341C48.5225 10.0341 48.9949 10.1004 49.4706 10.2693C49.7419 10.3687 49.8759 10.5708 49.8759 10.8723C49.8759 11.0048 49.8424 11.1406 49.7419 11.24C49.6414 11.3394 49.5376 11.4089 49.4036 11.4752C49.3366 11.4752 49.2696 11.5083 49.2327 11.5083C48.9949 12.3133 48.556 12.9493 47.9095 13.4529C47.2663 13.9564 46.4857 14.1916 45.5712 14.1916L45.5444 14.1485ZM51.8491 14.0458C51.6782 14.0458 51.5107 13.9796 51.3734 13.8438C51.2394 13.7113 51.169 13.5754 51.169 13.3734V6.06881C51.169 5.89987 51.236 5.73423 51.3734 5.59841C51.5074 5.4659 51.6447 5.39633 51.8491 5.39633H57.0349C57.2057 5.39633 57.3732 5.46259 57.4771 5.59841C57.6111 5.73092 57.6479 5.86674 57.6479 6.06881C57.6479 6.23776 57.5809 6.4034 57.4771 6.53922C57.3431 6.67173 57.2057 6.7413 57.0349 6.7413H52.4923V8.95088H56.4252C56.596 8.95088 56.7635 9.01714 56.8674 9.11983C57.0014 9.25234 57.0382 9.38816 57.0382 9.55711C57.0382 9.72606 56.9712 9.89169 56.8674 10.0275C56.7334 10.16 56.596 10.2296 56.4252 10.2296H52.4923V12.7771H57.0014C57.1722 12.7771 57.3397 12.8433 57.4436 12.9792C57.5776 13.1117 57.6144 13.2475 57.6144 13.4496C57.6144 13.6185 57.5474 13.7841 57.4436 13.92C57.3096 14.0525 57.1722 14.122 57.0014 14.122H51.8491V14.0458ZM62.2207 14.1154C61.544 14.1154 60.8974 13.9465 60.3212 13.645C59.745 13.3435 59.2693 12.8731 58.931 12.3034C58.5926 11.7004 58.4218 11.0313 58.4218 10.2594C58.4218 9.42129 58.6261 8.64942 58.998 7.88087C59.4033 7.10901 59.9125 6.50609 60.5222 6.07213C61.1319 5.60172 61.7751 5.40296 62.4552 5.40296C62.7265 5.40296 62.9979 5.43609 63.2692 5.53547C63.5406 5.63485 63.7784 5.73754 64.0163 5.87005C64.1168 5.77067 64.2541 5.7011 64.3881 5.7011C64.559 5.7011 64.693 5.76736 64.8303 5.87005C64.9308 5.96943 65.0012 6.13838 65.0012 6.27089V7.10901C65.0012 7.27796 64.9342 7.44359 64.7968 7.54629C64.6628 7.6788 64.5255 7.74836 64.3211 7.74836C64.1503 7.74836 64.0163 7.71524 63.8789 7.57942C63.7784 7.48003 63.7081 7.34421 63.7081 7.2117V7.11232C63.4032 6.77774 62.9275 6.60879 62.3178 6.60879C61.8756 6.60879 61.4703 6.77774 61.0314 7.14545C60.6261 7.48003 60.2844 7.95044 60.013 8.52023C59.7417 9.09002 59.6412 9.6598 59.6412 10.2627C59.6412 10.7994 59.7417 11.2698 59.9795 11.6706C60.2174 12.0715 60.5222 12.3729 60.8941 12.575C61.2659 12.7771 61.6746 12.8765 62.147 12.8765C62.9945 12.8765 63.6712 12.5087 64.2139 11.8031C64.2809 11.7038 64.3848 11.6342 64.4518 11.6011C64.5188 11.5679 64.6226 11.5348 64.7231 11.5348C64.894 11.5348 65.0615 11.6011 65.1988 11.7038C65.3328 11.8031 65.4032 11.9721 65.4032 12.1742C65.4032 12.3067 65.3697 12.4425 65.3027 12.5419C64.9643 13.0454 64.4886 13.4131 63.9459 13.6814C63.4032 13.9498 62.7935 14.0492 62.1838 14.0492L62.2207 14.1154ZM69.5773 14.1154C68.9341 14.1154 68.3579 13.9465 67.8487 13.5788C67.3395 13.211 66.9341 12.7406 66.6628 12.1377C66.3579 11.5348 66.2206 10.8292 66.2206 10.0606C66.2206 9.1894 66.3914 8.41753 66.7633 7.68211C67.1016 6.97981 67.5773 6.41003 68.187 5.97275C68.7967 5.57191 69.4064 5.3367 70.0865 5.3367C70.7297 5.3367 71.3059 5.50565 71.8151 5.87336C72.3243 6.20795 72.7296 6.71148 73.0345 7.3144C73.3393 7.91731 73.4767 8.62292 73.4767 9.39147C73.4767 10.2627 73.3058 11.0677 72.934 11.77C72.5956 12.4723 72.1199 13.0421 71.5102 13.4794C70.9307 13.8802 70.2875 14.1154 69.5773 14.1154ZM69.5773 12.9063C70.053 12.9063 70.4583 12.7738 70.8637 12.469C71.269 12.1642 71.5739 11.7667 71.8117 11.2632C72.0496 10.7265 72.1501 10.1567 72.1501 9.48754C72.1501 8.88463 72.0496 8.38109 71.8452 7.94713C71.6409 7.50985 71.3695 7.17526 71.0312 6.94006C70.6928 6.70486 70.3545 6.60548 69.9793 6.60548C69.5371 6.60548 69.0982 6.73798 68.7264 7.04275C68.3545 7.34421 68.0497 7.74505 67.8118 8.28171C67.574 8.81837 67.4735 9.42129 67.4735 10.0573C67.4735 10.6602 67.574 11.1638 67.7448 11.5977C67.9492 12.035 68.187 12.3365 68.4919 12.5684C68.7967 12.8003 69.1351 12.903 69.5103 12.903H69.5773V12.9063ZM74.7296 14.0458C74.5587 14.0458 74.3912 13.9796 74.2539 13.8438C74.1199 13.7113 74.0495 13.5754 74.0495 13.3734C74.0495 13.2044 74.1165 13.0388 74.2539 12.903C74.3879 12.7704 74.5252 12.7009 74.7296 12.7009H75.6441V6.67504H74.7296C74.5587 6.67504 74.3912 6.60879 74.2539 6.47297C74.1199 6.34046 74.0495 6.20464 74.0495 6.00256C74.0495 5.83361 74.1165 5.66798 74.2539 5.56528C74.3879 5.43277 74.5252 5.39633 74.7296 5.39633H77.8484C78.0193 5.39633 78.1868 5.46259 78.2906 5.56528C78.4246 5.69779 78.4615 5.83361 78.4615 6.00256C78.4615 6.17151 78.3945 6.33715 78.2906 6.47297C78.1566 6.60548 78.0193 6.67504 77.8484 6.67504H76.9674V12.7075H77.8484C78.0528 12.7075 78.1868 12.7738 78.3241 12.9096C78.4246 13.0421 78.495 13.1779 78.495 13.38C78.495 13.5489 78.428 13.7146 78.3241 13.8504C78.1901 13.9829 78.0528 14.0525 77.8819 14.0525H74.7966H74.7296V14.0458ZM80.5251 14.1154C80.3542 14.1154 80.2202 14.0492 80.0829 13.9133C79.9489 13.7808 79.8785 13.645 79.8785 13.4761V6.00256C79.8785 5.83361 79.9455 5.7011 80.0494 5.56528C80.1499 5.43277 80.3207 5.36321 80.4916 5.36321C80.5921 5.36321 80.6959 5.39633 80.7964 5.42946C80.8969 5.46259 80.9673 5.52884 81.0343 5.63154L85.1012 11.4288V5.96943C85.1012 5.80048 85.1682 5.63485 85.3055 5.53215C85.4395 5.39965 85.5769 5.33008 85.7812 5.33008C85.9521 5.33008 86.0861 5.39633 86.2234 5.53215C86.3574 5.66466 86.4278 5.80048 86.4278 5.96943V13.4429C86.4278 13.6119 86.3608 13.7775 86.2569 13.8802C86.1229 14.0127 85.9856 14.0492 85.8147 14.0492C85.7142 14.0492 85.6104 14.016 85.5099 13.9829C85.4094 13.9498 85.339 13.8504 85.272 13.7808L81.2386 7.98357V13.4131C81.2386 13.5821 81.1716 13.7477 81.0343 13.8504C80.9003 13.9498 80.7629 14.0193 80.5586 14.0193L80.5251 14.1154Z" fill="white" fill-opacity="0.12"/>
<path d="M12.1616 19.6449C17.4031 19.6449 21.6521 15.4431 21.6521 10.2599C21.6521 5.07678 17.4031 0.875 12.1616 0.875C6.92008 0.875 2.67102 5.07678 2.67102 10.2599C2.67102 15.4431 6.92008 19.6449 12.1616 19.6449Z" fill="#0B2233"/>
<path d="M12.1616 19.6449C17.4031 19.6449 21.6521 15.4431 21.6521 10.2599C21.6521 5.07678 17.4031 0.875 12.1616 0.875C6.92008 0.875 2.67102 5.07678 2.67102 10.2599C2.67102 15.4431 6.92008 19.6449 12.1616 19.6449Z" fill="white" fill-opacity="0.2"/>
<path d="M12.1615 19.3437C17.2347 19.3437 21.3472 15.2769 21.3472 10.2602C21.3472 5.24357 17.2347 1.17676 12.1615 1.17676C7.08841 1.17676 2.97583 5.24357 2.97583 10.2602C2.97583 15.2769 7.08841 19.3437 12.1615 19.3437Z" fill="#0B2233"/>
<path d="M12.1615 19.3437C17.2347 19.3437 21.3472 15.2769 21.3472 10.2602C21.3472 5.24357 17.2347 1.17676 12.1615 1.17676C7.08841 1.17676 2.97583 5.24357 2.97583 10.2602C2.97583 15.2769 7.08841 19.3437 12.1615 19.3437Z" fill="white" fill-opacity="0.2"/>
<path d="M12.1615 19.1417C17.1218 19.1417 21.1429 15.1654 21.1429 10.2603C21.1429 5.35525 17.1218 1.37891 12.1615 1.37891C7.20126 1.37891 3.18018 5.35525 3.18018 10.2603C3.18018 15.1654 7.20126 19.1417 12.1615 19.1417Z" fill="#0B2233"/>
<path d="M12.1615 19.1417C17.1218 19.1417 21.1429 15.1654 21.1429 10.2603C21.1429 5.35525 17.1218 1.37891 12.1615 1.37891C7.20126 1.37891 3.18018 5.35525 3.18018 10.2603C3.18018 15.1654 7.20126 19.1417 12.1615 19.1417Z" fill="white" fill-opacity="0.12"/>
<path clip-rule="evenodd" d="M17.3474 7.9484C16.3993 5.5003 14.0242 5.0332 14.0242 5.0332H7.28064L7.31414 7.51443H8.67089V13.0765H7.28064V15.5577H13.8567C15.4513 15.5577 16.7042 13.9809 16.7042 13.9809C18.7376 11.1319 17.3809 7.91527 17.3809 7.91527L17.3474 7.9484ZM13.8567 12.3378C13.8567 12.3378 13.3475 13.0765 12.7713 13.0765H11.6524L11.6189 7.54756H13.0426C13.0426 7.54756 13.7193 7.68007 14.1615 8.98859C14.1615 8.98859 14.7712 10.8669 13.8232 12.3411H13.8567V12.3378Z" fill="#0B2233" fill-rule="evenodd"/>
<path clip-rule="evenodd" d="M17.3474 7.9484C16.3993 5.5003 14.0242 5.0332 14.0242 5.0332H7.28064L7.31414 7.51443H8.67089V13.0765H7.28064V15.5577H13.8567C15.4513 15.5577 16.7042 13.9809 16.7042 13.9809C18.7376 11.1319 17.3809 7.91527 17.3809 7.91527L17.3474 7.9484ZM13.8567 12.3378C13.8567 12.3378 13.3475 13.0765 12.7713 13.0765H11.6524L11.6189 7.54756H13.0426C13.0426 7.54756 13.7193 7.68007 14.1615 8.98859C14.1615 8.98859 14.7712 10.8669 13.8232 12.3411H13.8567V12.3378Z" fill="black" fill-opacity="0.2" fill-rule="evenodd"/>
</g>
</g>
<defs>
<clipPath id="clip0_1497_49551">
<rect fill="white" height="20" transform="translate(0.171021 0.25)" width="88.75"/>
</clipPath>
<clipPath id="clip1_1497_49551">
<rect fill="white" height="18.75" transform="translate(2.67102 0.875)" width="83.75"/>
</clipPath>
</defs>
</svg>