<svg width="1136" height="176" viewBox="0 0 1136 176" fill="none" xmlns="http://www.w3.org/2000/svg">
<path d="M27.4952 166.431C24.7556 163.836 22.7008 160.916 21.331 157.672C19.9612 154.355 19.2763 151.507 19.2763 149.128C19.2763 146.677 19.9251 143.793 21.2229 140.477C22.5206 137.16 24.2869 133.339 26.5219 129.014C28.7569 124.616 31.3523 119.857 34.3083 114.739C37.2642 109.548 40.4364 104.321 43.8249 99.0578L53.9904 83.3769C57.5231 78.2581 60.9837 73.4998 64.3722 69.102C49.953 73.7161 39.2468 78.2221 32.2535 82.6199C25.3323 86.9457 19.9972 90.1179 16.2483 92.1366C12.4993 94.1552 9.39916 95.1646 6.9479 95.1646C2.91054 95.1646 0.891856 92.6412 0.891856 87.5945C0.891856 80.3849 4.64084 71.5172 12.1388 60.9912C19.9251 50.1047 27.9638 43.3638 36.2548 40.7683C44.6179 38.1729 53.9183 35.7216 64.1559 33.4145C74.4656 31.0354 85.1718 28.9807 96.2746 27.2504C120.355 23.5014 142.74 21.6269 163.432 21.6269C187.079 21.6269 202.183 23.8619 208.744 28.3318C214.584 32.2971 218.549 37.7763 220.64 44.7696C221.649 48.1581 222.154 51.799 222.154 55.6921C222.154 59.5853 220.243 63.6587 216.422 67.9124C212.673 72.0939 207.663 76.0592 201.39 79.8082C189.567 87.0178 174.066 93.5064 154.888 99.274C165.775 101.365 173.309 103.78 177.49 106.52C181.744 109.187 184.736 111.891 186.466 114.63C188.197 117.298 189.062 120.723 189.062 124.904C189.062 129.014 187.259 133.267 183.655 137.665C180.05 142.063 175.039 146.172 168.623 149.993C162.278 153.814 154.744 157.275 146.021 160.375C137.369 163.475 127.961 166.107 117.795 168.27C96.599 172.884 74.5377 175.191 51.6112 175.191C41.662 175.191 33.6233 172.271 27.4952 166.431ZM87.7312 85.2154C76.9169 103.96 71.5097 116.938 71.5097 124.147C71.5097 127.463 73.24 130.564 76.7006 133.447C79.9449 136.187 83.3334 137.557 86.8661 137.557C90.3988 137.557 94.2919 137.413 98.5456 137.124C102.799 136.764 107.161 136.295 111.631 135.718C116.101 135.142 120.499 134.457 124.825 133.664C129.15 132.871 133.007 131.969 136.396 130.96C143.894 128.725 147.643 126.454 147.643 124.147C147.643 119.966 141.839 116.505 130.232 113.765C120.787 111.602 111.775 110.521 103.196 110.521C99.8794 110.521 97.5002 109.872 96.0583 108.574C94.6164 107.205 93.8954 105.655 93.8954 103.924C93.8954 102.122 94.7606 100.283 96.4909 98.4089C98.2933 96.4623 100.708 94.8762 103.736 93.6506C128.249 87.5224 148.724 80.6373 165.162 72.9951C173.237 69.2461 177.274 66.3984 177.274 64.4518C177.274 61.64 176.445 59.369 174.787 57.6387C171.831 54.5386 168.551 52.9885 164.946 52.9885C161.341 52.9885 157.232 53.1327 152.617 53.4211C148.003 53.7095 143.029 54.1421 137.694 54.7188C125.942 55.8724 114.299 57.5306 102.763 59.6935C101.105 63.082 98.9061 66.903 96.1664 71.1567L87.7312 85.2154ZM371.392 90.5144C374.853 90.5144 376.583 92.461 376.583 96.3542C376.583 98.9496 375.682 102.23 373.879 106.195C372.149 110.088 369.626 113.765 366.309 117.226C362.993 120.614 359.172 124.147 354.846 127.824C350.592 131.501 345.582 135.358 339.814 139.395C334.119 143.433 327.81 147.434 320.889 151.399C313.968 155.365 306.614 158.933 298.828 162.106C281.597 169.171 264.907 172.704 248.757 172.704C236.429 172.704 225.65 169.495 216.422 163.079C206.761 156.374 201.931 148.227 201.931 138.638C201.931 123.57 210.042 109.259 226.263 95.7053C240.25 84.0258 256.724 74.9778 275.685 68.5612C287.22 64.6681 296.989 62.7215 304.992 62.7215C311.48 62.7215 316.96 64.3076 321.43 67.4798C326.188 70.9404 328.567 75.5906 328.567 81.4303C328.567 90.5865 321.322 100.716 306.83 111.819C304.523 113.621 302.432 115.135 300.558 116.361L296.665 118.956C289.455 124.003 278.497 129.662 263.789 135.935C268.331 138.314 272.549 139.503 276.442 139.503C280.407 139.503 283.94 139.035 287.04 138.098C290.212 137.16 293.781 135.827 297.746 134.096C301.712 132.366 305.929 130.311 310.399 127.932C314.941 125.481 319.519 122.813 324.133 119.929C334.443 113.513 343.383 106.952 350.953 100.247C354.918 96.5704 359.965 93.6506 366.093 91.4877C368.112 90.8388 369.878 90.5144 371.392 90.5144ZM252.11 120.903L258.058 117.875C260.004 116.865 261.734 115.928 263.248 115.063C277.812 106.7 286.103 101.545 288.121 99.5985C290.14 97.6519 291.149 96.3181 291.149 95.5972C291.149 94.8041 290.933 93.9029 290.501 92.8936C290.068 91.8842 289.491 90.983 288.77 90.19C287.04 88.1713 285.202 87.1619 283.255 87.1619C281.308 87.1619 279.146 87.5224 276.766 88.2434C274.459 88.9643 272.116 89.9737 269.737 91.2714C267.358 92.497 265.051 94.011 262.816 95.8134C260.653 97.5437 258.742 99.4182 257.084 101.437C253.263 105.979 251.353 109.908 251.353 113.225C251.353 116.541 251.605 119.1 252.11 120.903ZM470.019 95.9216C477.084 95.9216 480.617 98.3728 480.617 103.275C480.617 107.962 477.301 114.018 470.668 121.443L465.369 126.959C458.952 133.52 451.454 139.972 442.875 146.317C434.368 152.661 426.87 157.672 420.381 161.349C405.313 169.712 391.651 173.893 379.395 173.893C367.859 173.893 358.451 170.433 351.169 163.511C344.897 157.527 341.761 151.219 341.761 144.586C341.761 137.953 342.41 131.357 343.707 124.796C345.005 118.235 346.699 111.819 348.79 105.546C352.972 92.7854 357.55 81.935 362.524 72.9951C363.822 70.5439 364.471 68.9578 364.471 68.2368H350.52C345.257 68.2368 341.184 67.0112 338.3 64.5599C335.416 62.1087 333.974 59.333 333.974 56.2329C333.974 53.1327 334.551 50.8617 335.705 49.4198C336.858 47.9779 338.3 46.9325 340.03 46.2836C342.482 45.2743 346.086 44.7696 350.845 44.7696L377.34 44.8778C377.917 44.6615 379.07 43.1114 380.801 40.2276L387.397 28.8725C390.209 23.8258 393.021 20.1129 395.833 17.7337C398.716 15.3545 402.069 14.165 405.89 14.165C409.783 14.165 413.027 14.5254 415.623 15.2464C418.29 15.9674 420.525 16.8686 422.328 17.95C425.86 20.2571 427.627 22.7804 427.627 25.5201C427.627 26.6736 427.23 28.2236 426.437 30.1702L420.381 44.8778L471.749 44.7696C476.219 44.7696 478.454 47.0767 478.454 51.6908C478.454 62.6494 468.685 68.1287 449.147 68.1287L409.567 68.2368C408.702 68.6694 407.224 70.7602 405.133 74.5091L400.266 83.4851C399.041 85.72 398.176 87.4143 397.671 88.5678L395.292 93.8669C390.461 104.753 388.046 112.612 388.046 117.442C388.046 122.273 389.308 126.31 391.831 129.554C394.427 132.799 397.851 134.421 402.105 134.421C406.359 134.421 410.504 133.592 414.541 131.933C418.651 130.275 422.652 128.257 426.545 125.877C433.611 121.48 439.162 117.406 443.199 113.657C447.237 109.908 450.589 107.06 453.257 105.114C453.257 105.114 455.78 103.347 460.827 99.8148C464.72 97.2193 467.784 95.9216 470.019 95.9216ZM648.672 88.7841C650.98 88.7841 652.133 90.7307 652.133 94.6239C652.133 101.329 647.447 110.016 638.074 120.686L631.91 126.959C613.237 145.632 595.646 158.068 579.136 164.268C568.898 168.089 561.545 167.909 557.075 163.728C553.398 160.195 550.478 154.499 548.315 146.641L545.72 137.232L522.685 151.399L509.383 158.969C493.522 167.621 481.627 171.947 473.696 171.947C463.53 171.947 455.059 168.017 448.282 160.159C441.794 152.733 438.549 144.118 438.549 134.313C438.549 124.652 442.406 116.036 450.121 108.466C461.151 97.6519 478.562 87.7387 502.354 78.7267C524.848 70.2915 543.016 66.0739 556.858 66.0739C561.545 66.0739 563.888 68.381 563.888 72.9951C563.888 76.1673 563.275 78.5465 562.049 80.1326C560.824 81.7187 558.3 83.3409 554.479 84.9991L540.853 90.8388C520.666 99.274 505.887 108.034 496.514 117.118C493.847 119.641 492.513 122.092 492.513 124.472C492.513 126.851 494.424 128.04 498.245 128.04C501.994 128.04 510.717 124.003 524.415 115.928L533.391 110.629C547.306 102.266 558.949 98.0845 568.322 98.0845C576.252 98.0845 581.515 101.581 584.111 108.574C584.76 110.449 585.372 112.359 585.949 114.306C586.526 116.18 587.103 117.875 587.679 119.389C588.977 122.921 590.131 124.688 591.14 124.688C592.221 124.688 593.735 124.183 595.682 123.174C597.629 122.092 599.755 120.759 602.063 119.172C604.442 117.514 606.893 115.712 609.416 113.765L622.502 103.275C634.109 93.6145 642.833 88.7841 648.672 88.7841Z" fill="white"/>
<path d="M810.672 90.0818C813.916 90.0818 815.538 91.74 815.538 95.0564C815.538 100.319 812.078 107.745 805.156 117.334C800.326 124.039 790.377 133.339 775.309 145.235C757.357 159.294 742.938 166.323 732.051 166.323C723.832 166.323 717.632 162.863 713.451 155.941C710.927 151.76 708.872 145.632 707.286 137.557L697.662 144.478C671.202 162.79 651.448 171.947 638.399 171.947C627.512 171.947 618.789 167.981 612.228 160.051C606.46 152.913 603.577 144.37 603.577 134.421C603.577 123.462 607.326 114.811 614.824 108.466C630.108 95.6332 649.105 85.0712 671.815 76.7802C681.043 73.3917 686.883 71.6974 689.335 71.6974C691.786 71.6974 694.021 72.13 696.039 72.9951C698.13 73.7882 700.185 74.8336 702.204 76.1313C706.962 79.3756 709.341 82.5118 709.341 85.5398C709.341 87.991 707.827 89.9737 704.799 91.4877C703.862 91.9924 702.276 92.6773 700.041 93.5424C697.806 94.4076 695.066 95.5972 691.822 97.1112C683.098 101.221 674.591 106.195 666.3 112.035C660.388 117.082 657.432 121.119 657.432 124.147C657.432 127.103 659.523 128.581 663.704 128.581C667.165 128.581 674.086 125.517 684.468 119.389C684.468 119.389 687.532 117.514 693.66 113.765C700.221 109.656 705.484 105.907 709.449 102.518C709.449 102.518 711.107 97.1112 714.424 86.2968C720.552 66.9751 727.365 51.0059 734.863 38.3892C748.129 12.9393 761.466 0.214434 774.876 0.214434C779.779 0.214434 783.672 1.11563 786.556 2.91803C791.747 6.16234 794.342 9.76713 794.342 13.7324C794.342 17.6256 793.621 21.7711 792.179 26.1689C790.737 30.5668 788.827 34.9286 786.448 39.2543C784.14 43.58 781.473 47.8697 778.445 52.1234L759.952 76.5639C756.852 80.5291 754.113 84.3863 751.733 88.1352C747.552 97.1472 745.461 104.861 745.461 111.278C745.461 120.506 748.814 125.12 755.518 125.12C759.34 125.12 766.225 121.119 776.174 113.116L788.935 102.302C794.919 96.967 800.831 93.218 806.67 91.0551C808.329 90.4063 809.662 90.0818 810.672 90.0818ZM906.379 103.383C906.379 107.277 909.695 109.223 916.328 109.223C921.231 109.223 927.647 106.844 935.578 102.086L944.229 97.3275C946.897 95.8134 949.204 95.0564 951.15 95.0564C953.169 95.0564 954.755 95.6692 955.909 96.8949C957.062 98.1205 957.639 99.8148 957.639 101.978C957.639 104.141 956.918 106.664 955.476 109.548C954.034 112.359 952.051 115.351 949.528 118.524C947.005 121.624 944.049 124.724 940.66 127.824C937.272 130.852 933.631 133.592 929.738 136.043C921.086 141.45 913.048 144.154 905.622 144.154C897.763 144.154 891.491 142.82 886.805 140.152C885.363 139.287 883.957 138.386 882.587 137.449C874.873 146.244 863.698 154.319 849.063 161.673C833.49 169.459 819.9 173.352 808.293 173.352C796.108 173.352 786.484 168.558 779.418 158.969C773.723 151.183 770.875 143.289 770.875 135.286C770.875 123.751 777.039 112.756 789.367 102.302C798.451 94.6599 807.211 88.8562 815.646 84.8909C824.154 80.9257 831.832 77.8616 838.681 75.6987C853.172 71.1567 866.221 68.8857 877.829 68.8857C883.02 68.8857 887.634 69.895 891.671 71.9137C895.781 73.8603 898.809 75.8429 900.755 77.8616C905.369 82.4036 907.677 88.2073 907.677 95.2727C907.677 97.3635 907.46 98.9857 907.028 100.139C906.595 101.293 906.379 102.374 906.379 103.383ZM817.917 123.823L817.809 124.147V124.255C817.809 127.355 818.494 129.374 819.864 130.311C823.18 132.33 826.677 132.871 830.354 131.933C834.031 130.924 837.527 129.698 840.844 128.257C849.063 124.724 856.489 120.254 863.121 114.847C861.968 112.54 861.391 110.161 861.391 107.709C861.391 102.518 863.662 97.3275 868.204 92.1366C862.436 92.1366 854.65 94.8401 844.845 100.247C834.031 106.231 825.92 112.395 820.513 118.74C818.782 120.903 817.917 122.597 817.917 123.823ZM932.982 134.313C931.612 134.313 930.279 133.988 928.981 133.339C927.611 132.69 926.349 131.645 925.196 130.203C922.672 127.031 921.411 122.705 921.411 117.226C921.411 111.386 924.907 104.104 931.901 95.3809C938.678 86.9457 946.572 79.664 955.584 73.5358C965.245 66.903 973.536 63.5866 980.457 63.5866C986.585 63.5866 990.731 65.3169 992.894 68.7775L994.408 71.1567C995.561 72.9591 996.715 73.8603 997.868 73.8603C999.022 73.8603 1000.82 73.7521 1003.28 73.5358L1018.63 72.4544C1021.01 72.2381 1022.89 72.13 1024.26 72.13C1025.63 72.13 1027.18 72.6346 1028.91 73.644C1030.71 74.5812 1032.29 75.8429 1033.66 77.429C1036.69 81.0338 1038.21 84.9991 1038.21 89.3248C1038.21 93.7948 1033.27 100.824 1023.39 110.413L1016.25 117.55C1011.13 122.813 1008.57 126.13 1008.57 127.5C1008.57 128.869 1009.22 130.095 1010.52 131.176C1011.82 132.186 1013.22 132.69 1014.74 132.69C1016.25 132.69 1017.95 132.294 1019.82 131.501C1021.77 130.636 1024.15 129.41 1026.96 127.824C1029.77 126.166 1032.98 124.183 1036.58 121.876C1046.46 115.387 1053.06 110.918 1056.37 108.466L1065.35 102.086C1071.48 97.76 1075.84 95.5972 1078.44 95.5972C1081.03 95.5972 1083.16 96.1739 1084.82 97.3275C1086.47 98.4089 1087.3 100.319 1087.3 103.059C1087.3 105.799 1085.9 109.476 1083.09 114.09C1080.27 118.704 1077.21 122.705 1073.89 126.094C1070.65 129.482 1067.48 132.618 1064.38 135.502C1061.28 138.386 1057.6 141.522 1053.35 144.911C1049.16 148.227 1044.51 151.616 1039.4 155.076C1034.28 158.465 1028.87 161.529 1023.17 164.268C1010.27 170.541 998.409 173.677 987.595 173.677C971.806 173.677 962.181 169.603 958.72 161.457C957.639 159.005 957.098 156.266 957.098 153.238C957.098 150.21 957.675 146.965 958.828 143.505C959.982 139.972 961.496 136.475 963.371 133.015C967.119 126.166 971.553 120.11 976.672 114.847C980.998 110.305 983.161 107.601 983.161 106.736C983.161 105.366 982.368 104.501 980.782 104.141C979.268 103.78 976.997 103.6 973.969 103.6C972.671 103.6 969.895 105.474 965.642 109.223L955.043 118.956C943.797 129.194 936.443 134.313 932.982 134.313ZM1133.48 141.017C1134.92 142.964 1135.64 145.632 1135.64 149.02C1135.64 152.337 1134.6 155.509 1132.51 158.537C1130.42 161.493 1127.71 164.016 1124.4 166.107C1117.62 170.505 1109.94 172.704 1101.36 172.704C1093.07 172.704 1087.2 170.577 1083.73 166.323C1081.86 163.944 1080.92 161.132 1080.92 157.888C1080.92 151.471 1084.2 145.776 1090.76 140.801C1097.32 135.827 1105.15 133.339 1114.23 133.339C1123.39 133.339 1129.8 135.899 1133.48 141.017Z" fill="#0C49BE"/>
</svg>
