<?xml version="1.0" encoding="utf-8"?>
<svg xmlns="http://www.w3.org/2000/svg" fill="none" height="20" viewBox="0 0 70 20" width="70">
<g clip-path="url(#clip0_1468_130999)">
<path d="M25.9773 7.73233C25.7966 7.6702 25.4321 7.61118 25.0707 7.61118C23.9833 7.61118 22.8347 8.46853 22.8347 9.57129V14.7806H20.3567V5.52682H22.7122V6.4463C23.2574 5.77222 24.2835 5.34355 25.3709 5.34355C25.7323 5.34355 25.9161 5.40567 26.2163 5.40567L25.9773 7.73233ZM28.7586 0.625C29.604 0.625 30.3299 1.29908 30.3299 2.21856C30.3299 3.13804 29.604 3.81211 28.6973 3.81211C27.7907 3.81211 27.0647 3.13804 27.0647 2.21856C27.126 1.29908 27.8519 0.625 28.7586 0.625ZM29.9654 14.7806H27.4874V5.52682H29.9654V14.7806ZM37.2156 5.34355C36.1895 5.34355 35.2828 5.71009 34.5569 6.26303V5.52682H32.1402V19.3749H34.6181V14.1066C35.3441 14.6595 36.1282 14.9639 37.0961 14.9639C38.4255 14.9639 39.7548 14.352 40.539 13.3704C41.2649 12.513 41.6876 11.4102 41.6876 10.1242C41.6876 7.42791 39.6936 5.34355 37.2156 5.34355ZM36.9154 12.6963C35.4053 12.6963 34.3792 11.6556 34.3792 10.1242C34.3792 8.59279 35.4053 7.55216 36.9154 7.55216C38.2448 7.55216 39.2709 8.71704 39.2709 10.1242C39.2709 11.5935 38.1835 12.6963 36.9154 12.6963ZM54.1327 1.17793H56.6107V14.7806H54.1327V1.17793ZM66.5808 13.3082C65.6742 14.3489 64.2254 14.9639 62.8347 14.9639C60.1148 14.9639 58.0625 13.0659 58.0625 10.1242C58.0625 7.55216 59.8146 5.28452 62.5346 5.28452C65.0708 5.28452 66.8841 7.42791 66.8841 10.0031C66.8841 10.2485 66.8841 10.4939 66.8228 10.7393H60.418C60.5375 12.0253 61.5667 12.9448 62.896 12.9448C63.9221 12.9448 64.7675 12.3328 65.1933 11.9042L66.5808 13.3082ZM64.2836 8.95934C64.2223 8.16411 63.4994 7.30365 62.4702 7.30365C61.4411 7.30365 60.5987 8.09888 60.5375 8.95934H64.2836ZM48.2119 5.34355C47.1857 5.34355 46.2791 5.71009 45.5531 6.26303V5.52682H43.1977V19.3749H45.6757V14.1066C46.4016 14.6595 47.1857 14.9639 48.1537 14.9639C49.483 14.9639 50.8124 14.352 51.5965 13.3704C52.3224 12.513 52.7451 11.4102 52.7451 10.1242C52.6839 7.42791 50.6898 5.34355 48.2119 5.34355ZM47.9117 12.6963C46.4016 12.6963 45.3755 11.6556 45.3755 10.1242C45.3755 8.59279 46.4016 7.55216 47.9117 7.55216C49.241 7.55216 50.2671 8.71704 50.2671 10.1242C50.2671 11.5935 49.1798 12.6963 47.9117 12.6963Z" fill="#0B2233"/>
<path d="M25.9773 7.73233C25.7966 7.6702 25.4321 7.61118 25.0707 7.61118C23.9833 7.61118 22.8347 8.46853 22.8347 9.57129V14.7806H20.3567V5.52682H22.7122V6.4463C23.2574 5.77222 24.2835 5.34355 25.3709 5.34355C25.7323 5.34355 25.9161 5.40567 26.2163 5.40567L25.9773 7.73233ZM28.7586 0.625C29.604 0.625 30.3299 1.29908 30.3299 2.21856C30.3299 3.13804 29.604 3.81211 28.6973 3.81211C27.7907 3.81211 27.0647 3.13804 27.0647 2.21856C27.126 1.29908 27.8519 0.625 28.7586 0.625ZM29.9654 14.7806H27.4874V5.52682H29.9654V14.7806ZM37.2156 5.34355C36.1895 5.34355 35.2828 5.71009 34.5569 6.26303V5.52682H32.1402V19.3749H34.6181V14.1066C35.3441 14.6595 36.1282 14.9639 37.0961 14.9639C38.4255 14.9639 39.7548 14.352 40.539 13.3704C41.2649 12.513 41.6876 11.4102 41.6876 10.1242C41.6876 7.42791 39.6936 5.34355 37.2156 5.34355ZM36.9154 12.6963C35.4053 12.6963 34.3792 11.6556 34.3792 10.1242C34.3792 8.59279 35.4053 7.55216 36.9154 7.55216C38.2448 7.55216 39.2709 8.71704 39.2709 10.1242C39.2709 11.5935 38.1835 12.6963 36.9154 12.6963ZM54.1327 1.17793H56.6107V14.7806H54.1327V1.17793ZM66.5808 13.3082C65.6742 14.3489 64.2254 14.9639 62.8347 14.9639C60.1148 14.9639 58.0625 13.0659 58.0625 10.1242C58.0625 7.55216 59.8146 5.28452 62.5346 5.28452C65.0708 5.28452 66.8841 7.42791 66.8841 10.0031C66.8841 10.2485 66.8841 10.4939 66.8228 10.7393H60.418C60.5375 12.0253 61.5667 12.9448 62.896 12.9448C63.9221 12.9448 64.7675 12.3328 65.1933 11.9042L66.5808 13.3082ZM64.2836 8.95934C64.2223 8.16411 63.4994 7.30365 62.4702 7.30365C61.4411 7.30365 60.5987 8.09888 60.5375 8.95934H64.2836ZM48.2119 5.34355C47.1857 5.34355 46.2791 5.71009 45.5531 6.26303V5.52682H43.1977V19.3749H45.6757V14.1066C46.4016 14.6595 47.1857 14.9639 48.1537 14.9639C49.483 14.9639 50.8124 14.352 51.5965 13.3704C52.3224 12.513 52.7451 11.4102 52.7451 10.1242C52.6839 7.42791 50.6898 5.34355 48.2119 5.34355ZM47.9117 12.6963C46.4016 12.6963 45.3755 11.6556 45.3755 10.1242C45.3755 8.59279 46.4016 7.55216 47.9117 7.55216C49.241 7.55216 50.2671 8.71704 50.2671 10.1242C50.2671 11.5935 49.1798 12.6963 47.9117 12.6963Z" fill="white" fill-opacity="0.2"/>
<mask height="17" id="mask0_1468_130999" maskUnits="userSpaceOnUse" style="mask-type:luminance" width="15" x="2" y="1">
<path d="M12.0833 2.15707C11.0572 2.76902 10.4507 3.87178 10.4507 5.03666C10.4507 5.64861 10.6927 6.26367 10.996 6.81349C11.2379 7.30429 11.3574 8.16165 10.512 8.59032C9.90859 8.95687 9.1214 8.71147 8.75996 8.09952C8.39852 7.60872 7.97582 7.11791 7.43061 6.75136C6.40449 6.13941 5.1946 6.13941 4.16848 6.75136C3.14237 7.36331 2.53589 8.46917 2.53589 9.63406C2.53589 10.7989 3.1393 11.9017 4.16848 12.5136C5.1946 13.1256 6.40449 13.1256 7.43061 12.5136C7.97582 12.2061 8.39852 11.7184 8.6987 11.1655C8.94068 10.7368 9.60535 10.1839 10.4507 10.6747C11.0542 11.0412 11.2349 11.8396 10.9347 12.4515C10.6315 13.0044 10.4507 13.6164 10.4507 14.2283C10.4507 15.3932 11.0542 16.496 12.0833 17.1079C13.1095 17.7199 14.3194 17.7199 15.3455 17.1079C16.3716 16.496 16.9781 15.3932 16.9781 14.2283C16.9781 13.0635 16.3746 11.9607 15.3455 11.3488C14.8002 11.0412 14.1968 10.9201 13.5322 10.9201C12.9869 10.9201 12.2641 10.5535 12.2641 9.63406C12.2641 8.89785 12.8093 8.34803 13.5322 8.34803C14.1356 8.34803 14.8002 8.22688 15.3455 7.91935C16.3716 7.3074 16.9781 6.20465 16.9781 5.03976C16.9781 3.87488 16.3746 2.77213 15.3455 2.16018C14.8615 1.85265 14.2581 1.7315 13.7129 1.7315C13.1707 1.7284 12.5642 1.85265 12.0833 2.15707Z" fill="white"/>
</mask>
<g mask="url(#mask0_1468_130999)">
<path d="M9.78602 -5.625L24.8898 9.75454L9.78602 25.072L-5.37903 9.75454L9.78602 -5.625Z" fill="#0B2233"/>
<path d="M9.78602 -5.625L24.8898 9.75454L9.78602 25.072L-5.37903 9.75454L9.78602 -5.625Z" fill="white" fill-opacity="0.2"/>
</g>
</g>
<defs>
<clipPath id="clip0_1468_130999">
<rect fill="white" height="18.7499" transform="translate(2.52112 0.625)" width="64.3747"/>
</clipPath>
</defs>
</svg>