<?xml version="1.0" encoding="utf-8"?>
<svg xmlns="http://www.w3.org/2000/svg" fill="none" height="20" viewBox="0 0 95 20" width="95">
<g clip-path="url(#clip0_1468_130991)">
<path d="M21.1074 12.2677C19.8552 17.2909 14.7684 20.3466 9.7452 19.0945C4.72462 17.8423 1.66808 12.7552 2.92081 7.73317C4.17237 2.70995 9.25887 -0.346582 14.2803 0.905562C19.303 2.15771 22.3595 7.24538 21.1074 12.2677Z" fill="#0B2233"/>
<path d="M21.1074 12.2677C19.8552 17.2909 14.7684 20.3466 9.7452 19.0945C4.72462 17.8423 1.66808 12.7552 2.92081 7.73317C4.17237 2.70995 9.25887 -0.346582 14.2803 0.905562C19.303 2.15771 22.3595 7.24538 21.1074 12.2677Z" fill="white" fill-opacity="0.2"/>
<path d="M16.1475 8.66434C16.3341 7.41688 15.3843 6.74628 14.0855 6.29892L14.5068 4.60908L13.4782 4.35273L13.0681 5.99804C12.7941 5.93072 12.5195 5.86607 12.2442 5.80409L12.6573 4.14795L11.629 3.8916L11.2077 5.58085C10.9839 5.52988 10.7642 5.47949 10.5509 5.42646L10.5521 5.42119L9.13351 5.06699L8.85988 6.16562C8.85988 6.16562 9.62306 6.34052 9.60695 6.35136C10.0235 6.45536 10.0988 6.73104 10.0862 6.9496L9.60636 8.87469C9.63507 8.88201 9.67228 8.89285 9.7133 8.90896L9.60461 8.88201L8.93195 11.5788C8.88098 11.7053 8.75178 11.8952 8.46027 11.8231C8.47082 11.8381 7.71291 11.6365 7.71291 11.6365L7.20227 12.8142L8.54084 13.1482C8.78986 13.2103 9.0339 13.2756 9.27414 13.3372L8.84846 15.0463L9.87589 15.3027L10.2972 13.6114C10.5778 13.6879 10.8503 13.7579 11.1169 13.8244L10.6968 15.5075L11.7251 15.7638L12.1511 14.0579C13.9051 14.3898 15.224 14.2559 15.7792 12.6698C16.2266 11.3925 15.7569 10.6556 14.8341 10.1749C15.5061 10.0196 16.0124 9.57752 16.1475 8.66434ZM13.797 11.9596C13.4791 13.237 11.3284 12.5467 10.6312 12.3733L11.196 10.109C11.8933 10.2833 14.1292 10.6278 13.797 11.9596ZM14.1151 8.64617C13.8251 9.80779 12.0351 9.21746 11.4544 9.07273L11.9665 7.01903C12.5472 7.16376 14.4172 7.43417 14.1151 8.64617Z" fill="#0B2233"/>
<path d="M16.1475 8.66434C16.3341 7.41688 15.3843 6.74628 14.0855 6.29892L14.5068 4.60908L13.4782 4.35273L13.0681 5.99804C12.7941 5.93072 12.5195 5.86607 12.2442 5.80409L12.6573 4.14795L11.629 3.8916L11.2077 5.58085C10.9839 5.52988 10.7642 5.47949 10.5509 5.42646L10.5521 5.42119L9.13351 5.06699L8.85988 6.16562C8.85988 6.16562 9.62306 6.34052 9.60695 6.35136C10.0235 6.45536 10.0988 6.73104 10.0862 6.9496L9.60636 8.87469C9.63507 8.88201 9.67228 8.89285 9.7133 8.90896L9.60461 8.88201L8.93195 11.5788C8.88098 11.7053 8.75178 11.8952 8.46027 11.8231C8.47082 11.8381 7.71291 11.6365 7.71291 11.6365L7.20227 12.8142L8.54084 13.1482C8.78986 13.2103 9.0339 13.2756 9.27414 13.3372L8.84846 15.0463L9.87589 15.3027L10.2972 13.6114C10.5778 13.6879 10.8503 13.7579 11.1169 13.8244L10.6968 15.5075L11.7251 15.7638L12.1511 14.0579C13.9051 14.3898 15.224 14.2559 15.7792 12.6698C16.2266 11.3925 15.7569 10.6556 14.8341 10.1749C15.5061 10.0196 16.0124 9.57752 16.1475 8.66434ZM13.797 11.9596C13.4791 13.237 11.3284 12.5467 10.6312 12.3733L11.196 10.109C11.8933 10.2833 14.1292 10.6278 13.797 11.9596ZM14.1151 8.64617C13.8251 9.80779 12.0351 9.21746 11.4544 9.07273L11.9665 7.01903C12.5472 7.16376 14.4172 7.43417 14.1151 8.64617Z" fill="black" fill-opacity="0.2"/>
<path d="M30.1132 6.29676C30.8735 6.29676 31.5303 6.43299 32.082 6.70047C32.6368 6.97058 33.0945 7.33445 33.4616 7.79206C33.8237 8.25202 34.0932 8.78962 34.2672 9.40573C34.4401 10.0239 34.5268 10.6878 34.5268 11.3985C34.5268 12.4913 34.3267 13.5225 33.9227 14.4952C33.5184 15.4693 32.9705 16.3145 32.2733 17.0352C31.5766 17.755 30.7539 18.3222 29.8053 18.7414C28.8582 19.161 27.8284 19.3707 26.7227 19.3707C26.5797 19.3707 26.3284 19.3666 25.9733 19.3593C25.6182 19.352 25.2101 19.3154 24.7531 19.2538C24.2618 19.1837 23.7746 19.088 23.2932 18.9673C22.7895 18.8457 22.3001 18.6709 21.8334 18.4458L25.9384 1.19648L29.6152 0.626953L28.1454 6.74793C28.451 6.60978 28.7683 6.4988 29.0934 6.41629C29.4271 6.33517 29.7698 6.29503 30.1132 6.29676ZM27.0292 16.4539C27.5829 16.4539 28.1043 16.3177 28.5948 16.0505C29.0877 15.781 29.5203 15.4135 29.866 14.9706C30.2272 14.5089 30.5114 13.9917 30.7077 13.4393C30.9135 12.8683 31.018 12.2657 31.0164 11.6586C31.0164 10.8993 30.8896 10.3081 30.6368 9.87946C30.3839 9.45319 29.9161 9.23874 29.2364 9.23874C29.0137 9.23874 28.7272 9.28122 28.3715 9.3571C28.0147 9.43766 27.6954 9.60495 27.4091 9.85661L25.8438 16.357C25.9381 16.3737 26.0216 16.3895 26.0928 16.4044C26.1626 16.4205 26.2393 16.432 26.3164 16.4399C26.3975 16.449 26.4904 16.4536 26.6026 16.4536L27.0292 16.4539ZM38.3398 19.0408H34.828L37.7937 6.56131H41.3295L38.3398 19.0408ZM40.0486 5.0408C39.5695 5.04478 39.1025 4.89074 38.7197 4.60252C38.3222 4.3119 38.125 3.86454 38.125 3.26161C38.125 2.92997 38.1924 2.61884 38.3263 2.32529C38.4557 2.04092 38.6371 1.78327 38.8612 1.56562C39.0859 1.3512 39.3467 1.17831 39.6317 1.05498C39.9284 0.928225 40.2479 0.863805 40.5704 0.865722C41.0602 0.865722 41.502 1.01162 41.8981 1.304C42.2925 1.59785 42.4908 2.04521 42.4908 2.64491C42.4927 2.96862 42.4237 3.28882 42.2887 3.583C42.1605 3.86764 41.9796 4.12541 41.7555 4.34266C41.5313 4.55736 41.2703 4.72985 40.985 4.85184C40.6914 4.98016 40.3803 5.0408 40.0486 5.0408ZM44.4071 3.45204L48.0853 2.88222L47.1821 6.56072H51.1213L50.41 9.45465H46.4945L45.4515 13.8199C45.3554 14.1834 45.301 14.5233 45.2857 14.8394C45.2681 15.1567 45.3086 15.4291 45.4035 15.6585C45.4978 15.8885 45.6672 16.0658 45.9133 16.1909C46.1585 16.3183 46.5092 16.3825 46.9691 16.3825C47.3479 16.3825 47.7174 16.3464 48.0736 16.2749C48.4396 16.2024 48.7999 16.1035 49.1517 15.979L49.4142 18.6846C48.9102 18.8671 48.3951 19.0173 47.872 19.1343C47.3175 19.262 46.6609 19.3233 45.9021 19.3233C44.8111 19.3233 43.9653 19.1613 43.3627 18.839C42.7609 18.5144 42.3355 18.0702 42.0809 17.5083C41.8299 16.9488 41.7177 16.3034 41.749 15.5759C41.7812 14.847 41.8914 14.0806 42.0809 13.2741L44.4071 3.45204ZM50.9669 14.0578C50.9669 12.9826 51.141 11.9692 51.4884 11.02C51.8356 10.0702 52.3357 9.23962 52.9843 8.52712C53.6309 7.81814 54.4187 7.25593 55.3462 6.84343C56.2685 6.43328 57.3021 6.22644 58.4406 6.22644C59.1536 6.22644 59.7903 6.29383 60.3507 6.42888C60.9132 6.56511 61.4218 6.74119 61.882 6.96209L60.6712 9.71598C60.3484 9.58626 60.0199 9.47149 59.6865 9.37204C59.3467 9.26745 58.9322 9.21706 58.4414 9.21706C57.269 9.21706 56.3426 9.62135 55.653 10.4264C54.9657 11.2324 54.6197 12.3172 54.6197 13.6784C54.6197 14.4849 54.794 15.1368 55.1432 15.6357C55.4907 16.1346 56.1326 16.383 57.0645 16.383C57.5242 16.383 57.9683 16.335 58.3934 16.2412C58.8217 16.1463 59.1999 16.0268 59.533 15.8856L59.7955 18.7086C59.315 18.8929 58.8238 19.0479 58.3245 19.1727C57.7855 19.3045 57.1448 19.3725 56.4015 19.3725C55.4206 19.3725 54.5898 19.2292 53.9107 18.9462C53.231 18.6594 52.6694 18.2783 52.2267 17.7954C51.782 17.3115 51.4629 16.746 51.2655 16.0977C51.068 15.4494 50.9669 14.7676 50.9669 14.0578ZM66.5675 19.3716C65.7293 19.3716 65.001 19.2439 64.3834 18.991C63.7676 18.7385 63.2578 18.3834 62.8541 17.9235C62.4498 17.4659 62.1478 16.9236 61.9406 16.2987C61.7335 15.6741 61.6339 14.9824 61.6339 14.2245C61.6339 13.2741 61.7862 12.3237 62.095 11.3753C62.4024 10.4261 62.8579 9.57243 63.4603 8.81393C64.0588 8.05427 64.7971 7.43318 65.6654 6.9489C66.5335 6.46785 67.5316 6.22586 68.6534 6.22586C69.4763 6.22586 70.2003 6.35388 70.8266 6.60672C71.4498 6.85896 71.9631 7.21667 72.3688 7.67429C72.7702 8.13425 73.0755 8.67419 73.2799 9.30026C73.4868 9.9234 73.5887 10.6169 73.5887 11.3753C73.5887 12.3228 73.4381 13.2738 73.1396 14.2242C72.8405 15.1705 72.3966 16.0259 71.8107 16.7859C71.226 17.5447 70.495 18.1652 69.6164 18.6474C68.7395 19.1299 67.7221 19.3716 66.5675 19.3716ZM68.3223 9.21735C67.8017 9.21735 67.3415 9.36823 66.9475 9.66676C66.5519 9.96881 66.22 10.3488 65.9522 10.8064C65.6815 11.2664 65.4812 11.7679 65.3455 12.3131C65.2107 12.8595 65.1448 13.3766 65.1448 13.8667C65.1448 14.6586 65.2729 15.2759 65.5236 15.7195C65.7779 16.1607 66.2355 16.383 66.9 16.383C67.4224 16.383 67.8806 16.2328 68.2766 15.9313C68.6698 15.6316 69.0026 15.2516 69.2722 14.7925C69.5411 14.3355 69.7435 13.8322 69.8792 13.2858C70.0119 12.7412 70.0796 12.2217 70.0796 11.7319C70.0796 10.942 69.9524 10.3239 69.6987 9.88063C69.4462 9.43913 68.9865 9.21735 68.3223 9.21735ZM77.4158 19.0408H73.9013L76.867 6.56131H80.4043L77.4158 19.0408ZM79.122 5.0408C78.6433 5.04485 78.1767 4.89079 77.7946 4.60252C77.3985 4.3119 77.1999 3.86454 77.1999 3.26161C77.1999 2.92997 77.2684 2.61884 77.402 2.32529C77.5305 2.04058 77.7119 1.78281 77.9364 1.56562C78.1613 1.35113 78.4225 1.17823 78.7078 1.05498C79.0032 0.9282 79.3217 0.863771 79.6432 0.865722C80.1345 0.865722 80.5778 1.01162 80.973 1.304C81.3682 1.59785 81.5674 2.04521 81.5674 2.64491C81.5674 2.97773 81.4965 3.29003 81.3638 3.583C81.2311 3.87596 81.0527 4.12821 80.8318 4.34266C80.6073 4.55685 80.3463 4.72927 80.0613 4.85184C79.7668 4.98016 79.4557 5.0408 79.122 5.0408ZM82.9353 7.12878C83.2019 7.05085 83.4995 6.9571 83.823 6.85515C84.1828 6.74357 84.5478 6.64932 84.9166 6.57273C85.3177 6.48484 85.7703 6.41306 86.2681 6.35769C86.7655 6.30115 87.333 6.27361 87.9629 6.27361C89.815 6.27361 91.0918 6.81296 91.7967 7.88845C92.501 8.96393 92.6228 10.4355 92.1658 12.3014L90.5504 19.0397H87.0154L88.5814 12.4429C88.6766 12.0313 88.7513 11.6329 88.8069 11.2438C88.8632 10.8583 88.8597 10.5181 88.7946 10.2243C88.7372 9.94256 88.5822 9.69015 88.3569 9.51149C88.1252 9.33014 87.7751 9.23903 87.3005 9.23903C86.8305 9.24088 86.3618 9.28916 85.9013 9.38317L83.5994 19.0388H80.0633L82.9353 7.12878Z" fill="#0B2233"/>
<path d="M30.1132 6.29676C30.8735 6.29676 31.5303 6.43299 32.082 6.70047C32.6368 6.97058 33.0945 7.33445 33.4616 7.79206C33.8237 8.25202 34.0932 8.78962 34.2672 9.40573C34.4401 10.0239 34.5268 10.6878 34.5268 11.3985C34.5268 12.4913 34.3267 13.5225 33.9227 14.4952C33.5184 15.4693 32.9705 16.3145 32.2733 17.0352C31.5766 17.755 30.7539 18.3222 29.8053 18.7414C28.8582 19.161 27.8284 19.3707 26.7227 19.3707C26.5797 19.3707 26.3284 19.3666 25.9733 19.3593C25.6182 19.352 25.2101 19.3154 24.7531 19.2538C24.2618 19.1837 23.7746 19.088 23.2932 18.9673C22.7895 18.8457 22.3001 18.6709 21.8334 18.4458L25.9384 1.19648L29.6152 0.626953L28.1454 6.74793C28.451 6.60978 28.7683 6.4988 29.0934 6.41629C29.4271 6.33517 29.7698 6.29503 30.1132 6.29676ZM27.0292 16.4539C27.5829 16.4539 28.1043 16.3177 28.5948 16.0505C29.0877 15.781 29.5203 15.4135 29.866 14.9706C30.2272 14.5089 30.5114 13.9917 30.7077 13.4393C30.9135 12.8683 31.018 12.2657 31.0164 11.6586C31.0164 10.8993 30.8896 10.3081 30.6368 9.87946C30.3839 9.45319 29.9161 9.23874 29.2364 9.23874C29.0137 9.23874 28.7272 9.28122 28.3715 9.3571C28.0147 9.43766 27.6954 9.60495 27.4091 9.85661L25.8438 16.357C25.9381 16.3737 26.0216 16.3895 26.0928 16.4044C26.1626 16.4205 26.2393 16.432 26.3164 16.4399C26.3975 16.449 26.4904 16.4536 26.6026 16.4536L27.0292 16.4539ZM38.3398 19.0408H34.828L37.7937 6.56131H41.3295L38.3398 19.0408ZM40.0486 5.0408C39.5695 5.04478 39.1025 4.89074 38.7197 4.60252C38.3222 4.3119 38.125 3.86454 38.125 3.26161C38.125 2.92997 38.1924 2.61884 38.3263 2.32529C38.4557 2.04092 38.6371 1.78327 38.8612 1.56562C39.0859 1.3512 39.3467 1.17831 39.6317 1.05498C39.9284 0.928225 40.2479 0.863805 40.5704 0.865722C41.0602 0.865722 41.502 1.01162 41.8981 1.304C42.2925 1.59785 42.4908 2.04521 42.4908 2.64491C42.4927 2.96862 42.4237 3.28882 42.2887 3.583C42.1605 3.86764 41.9796 4.12541 41.7555 4.34266C41.5313 4.55736 41.2703 4.72985 40.985 4.85184C40.6914 4.98016 40.3803 5.0408 40.0486 5.0408ZM44.4071 3.45204L48.0853 2.88222L47.1821 6.56072H51.1213L50.41 9.45465H46.4945L45.4515 13.8199C45.3554 14.1834 45.301 14.5233 45.2857 14.8394C45.2681 15.1567 45.3086 15.4291 45.4035 15.6585C45.4978 15.8885 45.6672 16.0658 45.9133 16.1909C46.1585 16.3183 46.5092 16.3825 46.9691 16.3825C47.3479 16.3825 47.7174 16.3464 48.0736 16.2749C48.4396 16.2024 48.7999 16.1035 49.1517 15.979L49.4142 18.6846C48.9102 18.8671 48.3951 19.0173 47.872 19.1343C47.3175 19.262 46.6609 19.3233 45.9021 19.3233C44.8111 19.3233 43.9653 19.1613 43.3627 18.839C42.7609 18.5144 42.3355 18.0702 42.0809 17.5083C41.8299 16.9488 41.7177 16.3034 41.749 15.5759C41.7812 14.847 41.8914 14.0806 42.0809 13.2741L44.4071 3.45204ZM50.9669 14.0578C50.9669 12.9826 51.141 11.9692 51.4884 11.02C51.8356 10.0702 52.3357 9.23962 52.9843 8.52712C53.6309 7.81814 54.4187 7.25593 55.3462 6.84343C56.2685 6.43328 57.3021 6.22644 58.4406 6.22644C59.1536 6.22644 59.7903 6.29383 60.3507 6.42888C60.9132 6.56511 61.4218 6.74119 61.882 6.96209L60.6712 9.71598C60.3484 9.58626 60.0199 9.47149 59.6865 9.37204C59.3467 9.26745 58.9322 9.21706 58.4414 9.21706C57.269 9.21706 56.3426 9.62135 55.653 10.4264C54.9657 11.2324 54.6197 12.3172 54.6197 13.6784C54.6197 14.4849 54.794 15.1368 55.1432 15.6357C55.4907 16.1346 56.1326 16.383 57.0645 16.383C57.5242 16.383 57.9683 16.335 58.3934 16.2412C58.8217 16.1463 59.1999 16.0268 59.533 15.8856L59.7955 18.7086C59.315 18.8929 58.8238 19.0479 58.3245 19.1727C57.7855 19.3045 57.1448 19.3725 56.4015 19.3725C55.4206 19.3725 54.5898 19.2292 53.9107 18.9462C53.231 18.6594 52.6694 18.2783 52.2267 17.7954C51.782 17.3115 51.4629 16.746 51.2655 16.0977C51.068 15.4494 50.9669 14.7676 50.9669 14.0578ZM66.5675 19.3716C65.7293 19.3716 65.001 19.2439 64.3834 18.991C63.7676 18.7385 63.2578 18.3834 62.8541 17.9235C62.4498 17.4659 62.1478 16.9236 61.9406 16.2987C61.7335 15.6741 61.6339 14.9824 61.6339 14.2245C61.6339 13.2741 61.7862 12.3237 62.095 11.3753C62.4024 10.4261 62.8579 9.57243 63.4603 8.81393C64.0588 8.05427 64.7971 7.43318 65.6654 6.9489C66.5335 6.46785 67.5316 6.22586 68.6534 6.22586C69.4763 6.22586 70.2003 6.35388 70.8266 6.60672C71.4498 6.85896 71.9631 7.21667 72.3688 7.67429C72.7702 8.13425 73.0755 8.67419 73.2799 9.30026C73.4868 9.9234 73.5887 10.6169 73.5887 11.3753C73.5887 12.3228 73.4381 13.2738 73.1396 14.2242C72.8405 15.1705 72.3966 16.0259 71.8107 16.7859C71.226 17.5447 70.495 18.1652 69.6164 18.6474C68.7395 19.1299 67.7221 19.3716 66.5675 19.3716ZM68.3223 9.21735C67.8017 9.21735 67.3415 9.36823 66.9475 9.66676C66.5519 9.96881 66.22 10.3488 65.9522 10.8064C65.6815 11.2664 65.4812 11.7679 65.3455 12.3131C65.2107 12.8595 65.1448 13.3766 65.1448 13.8667C65.1448 14.6586 65.2729 15.2759 65.5236 15.7195C65.7779 16.1607 66.2355 16.383 66.9 16.383C67.4224 16.383 67.8806 16.2328 68.2766 15.9313C68.6698 15.6316 69.0026 15.2516 69.2722 14.7925C69.5411 14.3355 69.7435 13.8322 69.8792 13.2858C70.0119 12.7412 70.0796 12.2217 70.0796 11.7319C70.0796 10.942 69.9524 10.3239 69.6987 9.88063C69.4462 9.43913 68.9865 9.21735 68.3223 9.21735ZM77.4158 19.0408H73.9013L76.867 6.56131H80.4043L77.4158 19.0408ZM79.122 5.0408C78.6433 5.04485 78.1767 4.89079 77.7946 4.60252C77.3985 4.3119 77.1999 3.86454 77.1999 3.26161C77.1999 2.92997 77.2684 2.61884 77.402 2.32529C77.5305 2.04058 77.7119 1.78281 77.9364 1.56562C78.1613 1.35113 78.4225 1.17823 78.7078 1.05498C79.0032 0.9282 79.3217 0.863771 79.6432 0.865722C80.1345 0.865722 80.5778 1.01162 80.973 1.304C81.3682 1.59785 81.5674 2.04521 81.5674 2.64491C81.5674 2.97773 81.4965 3.29003 81.3638 3.583C81.2311 3.87596 81.0527 4.12821 80.8318 4.34266C80.6073 4.55685 80.3463 4.72927 80.0613 4.85184C79.7668 4.98016 79.4557 5.0408 79.122 5.0408ZM82.9353 7.12878C83.2019 7.05085 83.4995 6.9571 83.823 6.85515C84.1828 6.74357 84.5478 6.64932 84.9166 6.57273C85.3177 6.48484 85.7703 6.41306 86.2681 6.35769C86.7655 6.30115 87.333 6.27361 87.9629 6.27361C89.815 6.27361 91.0918 6.81296 91.7967 7.88845C92.501 8.96393 92.6228 10.4355 92.1658 12.3014L90.5504 19.0397H87.0154L88.5814 12.4429C88.6766 12.0313 88.7513 11.6329 88.8069 11.2438C88.8632 10.8583 88.8597 10.5181 88.7946 10.2243C88.7372 9.94256 88.5822 9.69015 88.3569 9.51149C88.1252 9.33014 87.7751 9.23903 87.3005 9.23903C86.8305 9.24088 86.3618 9.28916 85.9013 9.38317L83.5994 19.0388H80.0633L82.9353 7.12878Z" fill="white" fill-opacity="0.2"/>
</g>
<defs>
<clipPath id="clip0_1468_130991">
<rect fill="white" height="18.7499" transform="translate(2.63892 0.625)" width="89.7985"/>
</clipPath>
</defs>
</svg>