<?xml version="1.0" encoding="utf-8"?>
<svg xmlns="http://www.w3.org/2000/svg" fill="none" height="20" viewBox="0 0 86 20" width="86">
<g clip-path="url(#clip0_1468_130993)">
<path d="M12.2596 0.625C7.08207 0.625 2.88464 4.82243 2.88464 9.99996C2.88464 15.1775 7.08207 19.3749 12.2596 19.3749C17.4371 19.3749 21.6346 15.1775 21.6346 9.99996C21.6239 4.82243 17.4345 0.625 12.2596 0.625ZM12.3981 10.3009L11.4286 13.5955H16.6381C16.8219 13.5955 16.9391 13.7686 16.8965 13.939L16.4437 15.4998C16.4011 15.6516 16.2599 15.7581 16.1001 15.7581H8.13675L9.48174 11.2065L7.9956 11.6699L8.31786 10.5939L9.81466 10.1305L11.7083 3.73845C11.7509 3.58664 11.8921 3.4801 12.0519 3.4801H14.0654C14.2491 3.4801 14.3663 3.65322 14.3237 3.82367L12.7204 9.22759L14.2065 8.76417L13.8842 9.85082L12.3981 10.3009Z" fill="#0B2233"/>
<path d="M12.2596 0.625C7.08207 0.625 2.88464 4.82243 2.88464 9.99996C2.88464 15.1775 7.08207 19.3749 12.2596 19.3749C17.4371 19.3749 21.6346 15.1775 21.6346 9.99996C21.6239 4.82243 17.4345 0.625 12.2596 0.625ZM12.3981 10.3009L11.4286 13.5955H16.6381C16.8219 13.5955 16.9391 13.7686 16.8965 13.939L16.4437 15.4998C16.4011 15.6516 16.2599 15.7581 16.1001 15.7581H8.13675L9.48174 11.2065L7.9956 11.6699L8.31786 10.5939L9.81466 10.1305L11.7083 3.73845C11.7509 3.58664 11.8921 3.4801 12.0519 3.4801H14.0654C14.2491 3.4801 14.3663 3.65322 14.3237 3.82367L12.7204 9.22759L14.2065 8.76417L13.8842 9.85082L12.3981 10.3009Z" fill="white" fill-opacity="0.2"/>
<path d="M27.7676 1.34473H27.0043C26.8642 1.34473 26.7627 1.42876 26.7346 1.57232L24.7563 17.2625C24.7423 17.4166 24.7843 17.4901 24.9419 17.4901H25.7052C25.8593 17.4901 25.9468 17.4201 25.9748 17.2625L27.9707 1.56882C28.0092 1.41476 27.9252 1.34473 27.7676 1.34473Z" fill="#0B2233"/>
<path d="M27.7676 1.34473H27.0043C26.8642 1.34473 26.7627 1.42876 26.7346 1.57232L24.7563 17.2625C24.7423 17.4166 24.7843 17.4901 24.9419 17.4901H25.7052C25.8593 17.4901 25.9468 17.4201 25.9748 17.2625L27.9707 1.56882C28.0092 1.41476 27.9252 1.34473 27.7676 1.34473Z" fill="white" fill-opacity="0.2"/>
<path d="M31.7734 5.87305H31.0101C30.87 5.87305 30.7685 5.94308 30.7405 6.10064L29.3259 17.2809C29.3118 17.435 29.3959 17.5085 29.5394 17.5085H30.3028C30.4428 17.5085 30.5444 17.4385 30.5724 17.2809L31.973 6.11465C31.987 5.95708 31.9275 5.87305 31.7734 5.87305Z" fill="#0B2233"/>
<path d="M31.7734 5.87305H31.0101C30.87 5.87305 30.7685 5.94308 30.7405 6.10064L29.3259 17.2809C29.3118 17.435 29.3959 17.5085 29.5394 17.5085H30.3028C30.4428 17.5085 30.5444 17.4385 30.5724 17.2809L31.973 6.11465C31.987 5.95708 31.9275 5.87305 31.7734 5.87305Z" fill="white" fill-opacity="0.2"/>
<path d="M65.2546 5.69043C64.1936 5.69043 63.2728 5.98806 62.4954 6.59732C61.7181 7.20658 61.2069 7.99791 60.9548 8.98884C60.7412 9.79418 60.5591 10.9287 60.4751 11.692C60.363 12.7249 60.2615 13.5723 60.2615 14.3951C60.2755 15.4001 60.6011 16.1914 61.2104 16.8007C61.8336 17.3959 62.681 17.7076 63.756 17.7076C64.8029 17.7076 65.7238 17.4099 66.5011 16.8007C67.2785 16.2054 67.7897 15.4001 68.0453 14.3951C68.2134 13.7299 68.3849 12.837 68.525 11.692C68.6651 10.5015 68.7386 9.5981 68.7386 8.97483C68.7386 7.98391 68.427 7.19257 67.8037 6.59732C67.1664 5.98806 66.3156 5.69043 65.2546 5.69043ZM67.4045 10.5995C67.3345 11.1668 67.2925 11.5344 67.2785 11.6885C67.1384 12.8475 67.0089 13.6703 66.8968 14.164C66.7287 14.8994 66.3576 15.4946 65.8078 15.9463C65.2546 16.398 64.6033 16.6116 63.882 16.6116C63.1467 16.6116 62.5655 16.384 62.1278 15.9463C61.6901 15.5086 61.4765 14.9274 61.4765 14.2061C61.4765 13.8244 61.5185 13.3412 61.5885 12.7775C61.6586 12.2102 61.7006 11.8426 61.7146 11.6885C61.8547 10.5855 61.9842 9.76266 62.0963 9.21293C62.2678 8.47762 62.6355 7.88236 63.1852 7.43067C63.7385 6.97898 64.3897 6.76539 65.111 6.76539C65.8464 6.76539 66.4276 6.99298 66.8653 7.41667C67.303 7.85435 67.5166 8.4356 67.5166 9.15691C67.5201 9.56658 67.4745 10.0323 67.4045 10.5995Z" fill="#0B2233"/>
<path d="M65.2546 5.69043C64.1936 5.69043 63.2728 5.98806 62.4954 6.59732C61.7181 7.20658 61.2069 7.99791 60.9548 8.98884C60.7412 9.79418 60.5591 10.9287 60.4751 11.692C60.363 12.7249 60.2615 13.5723 60.2615 14.3951C60.2755 15.4001 60.6011 16.1914 61.2104 16.8007C61.8336 17.3959 62.681 17.7076 63.756 17.7076C64.8029 17.7076 65.7238 17.4099 66.5011 16.8007C67.2785 16.2054 67.7897 15.4001 68.0453 14.3951C68.2134 13.7299 68.3849 12.837 68.525 11.692C68.6651 10.5015 68.7386 9.5981 68.7386 8.97483C68.7386 7.98391 68.427 7.19257 67.8037 6.59732C67.1664 5.98806 66.3156 5.69043 65.2546 5.69043ZM67.4045 10.5995C67.3345 11.1668 67.2925 11.5344 67.2785 11.6885C67.1384 12.8475 67.0089 13.6703 66.8968 14.164C66.7287 14.8994 66.3576 15.4946 65.8078 15.9463C65.2546 16.398 64.6033 16.6116 63.882 16.6116C63.1467 16.6116 62.5655 16.384 62.1278 15.9463C61.6901 15.5086 61.4765 14.9274 61.4765 14.2061C61.4765 13.8244 61.5185 13.3412 61.5885 12.7775C61.6586 12.2102 61.7006 11.8426 61.7146 11.6885C61.8547 10.5855 61.9842 9.76266 62.0963 9.21293C62.2678 8.47762 62.6355 7.88236 63.1852 7.43067C63.7385 6.97898 64.3897 6.76539 65.111 6.76539C65.8464 6.76539 66.4276 6.99298 66.8653 7.41667C67.303 7.85435 67.5166 8.4356 67.5166 9.15691C67.5201 9.56658 67.4745 10.0323 67.4045 10.5995Z" fill="white" fill-opacity="0.2"/>
<path d="M73.0943 5.87305H72.345C72.2049 5.87305 72.1034 5.95708 72.0754 6.10064L70.6468 17.2809C70.6328 17.435 70.7168 17.5085 70.8604 17.5085H71.6237C71.7638 17.5085 71.8653 17.4385 71.8933 17.2809L73.2939 6.11465C73.3044 5.95708 73.2484 5.87305 73.0943 5.87305Z" fill="#0B2233"/>
<path d="M73.0943 5.87305H72.345C72.2049 5.87305 72.1034 5.95708 72.0754 6.10064L70.6468 17.2809C70.6328 17.435 70.7168 17.5085 70.8604 17.5085H71.6237C71.7638 17.5085 71.8653 17.4385 71.8933 17.2809L73.2939 6.11465C73.3044 5.95708 73.2484 5.87305 73.0943 5.87305Z" fill="white" fill-opacity="0.2"/>
<path d="M82.7447 6.5381C82.2195 5.98486 81.4842 5.71875 80.5213 5.71875C79.898 5.71875 79.3343 5.8308 78.809 6.0724C78.2838 6.314 77.8461 6.66765 77.4785 7.14736C77.4084 7.20338 77.3804 7.18938 77.3804 7.10534L77.4925 6.11442C77.5065 5.97436 77.4505 5.88682 77.3069 5.88682H76.5436C76.4035 5.88682 76.302 5.97086 76.274 6.11442L74.8734 17.2807C74.8594 17.4242 74.9014 17.5083 75.059 17.5083H75.8223C75.9623 17.5083 76.0639 17.4242 76.0779 17.2807L77.0968 9.27276C77.2649 8.52345 77.622 7.91419 78.1438 7.4765C78.669 7.03881 79.2888 6.81121 80.0276 6.81121C80.7069 6.81121 81.2461 7.02481 81.6418 7.44849C82.0374 7.87217 82.237 8.43941 82.237 9.16072C82.237 9.37431 82.223 9.54238 82.209 9.66843L81.2321 17.2807C81.2321 17.3507 81.2321 17.3927 81.2601 17.4347C81.3021 17.4768 81.3581 17.5048 81.4457 17.5048H82.209C82.3491 17.5048 82.4506 17.4347 82.4646 17.2772L83.4415 9.47935C83.4695 9.16772 83.4835 8.94012 83.4835 8.78606C83.5221 7.82665 83.2699 7.07733 82.7447 6.5381Z" fill="#0B2233"/>
<path d="M82.7447 6.5381C82.2195 5.98486 81.4842 5.71875 80.5213 5.71875C79.898 5.71875 79.3343 5.8308 78.809 6.0724C78.2838 6.314 77.8461 6.66765 77.4785 7.14736C77.4084 7.20338 77.3804 7.18938 77.3804 7.10534L77.4925 6.11442C77.5065 5.97436 77.4505 5.88682 77.3069 5.88682H76.5436C76.4035 5.88682 76.302 5.97086 76.274 6.11442L74.8734 17.2807C74.8594 17.4242 74.9014 17.5083 75.059 17.5083H75.8223C75.9623 17.5083 76.0639 17.4242 76.0779 17.2807L77.0968 9.27276C77.2649 8.52345 77.622 7.91419 78.1438 7.4765C78.669 7.03881 79.2888 6.81121 80.0276 6.81121C80.7069 6.81121 81.2461 7.02481 81.6418 7.44849C82.0374 7.87217 82.237 8.43941 82.237 9.16072C82.237 9.37431 82.223 9.54238 82.209 9.66843L81.2321 17.2807C81.2321 17.3507 81.2321 17.3927 81.2601 17.4347C81.3021 17.4768 81.3581 17.5048 81.4457 17.5048H82.209C82.3491 17.5048 82.4506 17.4347 82.4646 17.2772L83.4415 9.47935C83.4695 9.16772 83.4835 8.94012 83.4835 8.78606C83.5221 7.82665 83.2699 7.07733 82.7447 6.5381Z" fill="white" fill-opacity="0.2"/>
<path d="M32.2706 1.35914C31.8189 1.11754 31.2376 1.28911 31.01 1.75481C30.7684 2.2065 30.954 2.78775 31.4057 3.02935C31.8574 3.27095 32.4246 3.08537 32.6662 2.63368C32.9043 2.16448 32.7363 1.60074 32.2706 1.35914Z" fill="#0B2233"/>
<path d="M32.2706 1.35914C31.8189 1.11754 31.2376 1.28911 31.01 1.75481C30.7684 2.2065 30.954 2.78775 31.4057 3.02935C31.8574 3.27095 32.4246 3.08537 32.6662 2.63368C32.9043 2.16448 32.7363 1.60074 32.2706 1.35914Z" fill="white" fill-opacity="0.2"/>
<path d="M73.644 1.35914C73.1923 1.11754 72.611 1.28911 72.3834 1.75481C72.1418 2.2065 72.3274 2.78775 72.7791 3.02935C73.2308 3.27095 73.812 3.08537 74.0536 2.63368C74.2812 2.16448 74.0992 1.60074 73.644 1.35914Z" fill="#0B2233"/>
<path d="M73.644 1.35914C73.1923 1.11754 72.611 1.28911 72.3834 1.75481C72.1418 2.2065 72.3274 2.78775 72.7791 3.02935C73.2308 3.27095 73.812 3.08537 74.0536 2.63368C74.2812 2.16448 74.0992 1.60074 73.644 1.35914Z" fill="white" fill-opacity="0.2"/>
<path d="M55.2929 5.69043C54.232 5.69043 53.3111 6.00206 52.5338 6.59732C51.7564 7.20658 51.2452 7.99791 50.9931 8.98884C50.7795 9.79418 50.5834 11.0687 50.5134 11.692C50.4154 12.5989 50.2998 13.5723 50.2998 14.3951C50.3138 15.4001 50.6394 16.1914 51.2487 16.8007C51.872 17.3959 52.7193 17.7076 53.7978 17.7076C54.8447 17.7076 55.7656 17.4099 56.543 16.8007C57.3203 16.2054 57.8315 15.4001 58.0836 14.3951C58.0976 14.3111 58.1256 14.2236 58.1396 14.1395C58.1537 14.0695 58.0976 14.0135 58.0416 14.0135H57.0927C57.0367 14.0135 56.9666 14.0415 56.9526 14.1255C56.9526 14.1395 56.9386 14.1675 56.9386 14.1675C56.7671 14.9029 56.3994 15.4981 55.8497 15.9498C55.2964 16.4015 54.6452 16.6151 53.9238 16.6151C53.1885 16.6151 52.6073 16.3875 52.1696 15.9498C51.7319 15.5121 51.5183 14.9309 51.5183 14.2096C51.5183 13.8279 51.5603 13.3447 51.6304 12.781C51.6864 12.3012 51.7424 11.8461 51.7564 11.692C51.8965 10.589 52.026 9.76617 52.1381 9.21643C52.3062 8.48112 52.6773 7.88587 53.2271 7.43417C53.7803 6.98248 54.4316 6.76889 55.1529 6.76889C55.8742 6.76889 56.4694 6.98248 56.9071 7.42017C57.3448 7.85785 57.5584 8.4391 57.5584 9.16041V9.17441C57.5584 9.27246 57.6424 9.35999 57.744 9.35999H58.6369C58.7069 9.35999 58.7769 9.30397 58.7769 9.21993C58.7769 9.12189 58.7769 9.03435 58.7769 8.95032C58.7769 7.9594 58.4653 7.16806 57.842 6.57281C57.2012 5.98806 56.3679 5.69043 55.2929 5.69043Z" fill="#0B2233"/>
<path d="M55.2929 5.69043C54.232 5.69043 53.3111 6.00206 52.5338 6.59732C51.7564 7.20658 51.2452 7.99791 50.9931 8.98884C50.7795 9.79418 50.5834 11.0687 50.5134 11.692C50.4154 12.5989 50.2998 13.5723 50.2998 14.3951C50.3138 15.4001 50.6394 16.1914 51.2487 16.8007C51.872 17.3959 52.7193 17.7076 53.7978 17.7076C54.8447 17.7076 55.7656 17.4099 56.543 16.8007C57.3203 16.2054 57.8315 15.4001 58.0836 14.3951C58.0976 14.3111 58.1256 14.2236 58.1396 14.1395C58.1537 14.0695 58.0976 14.0135 58.0416 14.0135H57.0927C57.0367 14.0135 56.9666 14.0415 56.9526 14.1255C56.9526 14.1395 56.9386 14.1675 56.9386 14.1675C56.7671 14.9029 56.3994 15.4981 55.8497 15.9498C55.2964 16.4015 54.6452 16.6151 53.9238 16.6151C53.1885 16.6151 52.6073 16.3875 52.1696 15.9498C51.7319 15.5121 51.5183 14.9309 51.5183 14.2096C51.5183 13.8279 51.5603 13.3447 51.6304 12.781C51.6864 12.3012 51.7424 11.8461 51.7564 11.692C51.8965 10.589 52.026 9.76617 52.1381 9.21643C52.3062 8.48112 52.6773 7.88587 53.2271 7.43417C53.7803 6.98248 54.4316 6.76889 55.1529 6.76889C55.8742 6.76889 56.4694 6.98248 56.9071 7.42017C57.3448 7.85785 57.5584 8.4391 57.5584 9.16041V9.17441C57.5584 9.27246 57.6424 9.35999 57.744 9.35999H58.6369C58.7069 9.35999 58.7769 9.30397 58.7769 9.21993C58.7769 9.12189 58.7769 9.03435 58.7769 8.95032C58.7769 7.9594 58.4653 7.16806 57.842 6.57281C57.2012 5.98806 56.3679 5.69043 55.2929 5.69043Z" fill="white" fill-opacity="0.2"/>
<path d="M47.6072 6.59439C46.984 5.99913 46.1366 5.6875 45.0757 5.6875C44.0147 5.6875 43.0938 5.98513 42.3165 6.59439C41.5391 7.20365 41.0279 7.99498 40.7758 8.98591C40.5622 9.79125 40.4642 10.5161 40.2961 11.6891C40.142 12.8481 40.0825 13.5694 40.0825 14.3922C40.0965 15.3971 40.4222 16.1885 41.0314 16.7977C41.6547 17.393 42.5021 17.7046 43.577 17.7046C44.624 17.7046 45.5448 17.407 46.3222 16.7977C47.0995 16.2025 47.6107 15.3971 47.8628 14.3922C47.8768 14.3082 47.9049 14.2206 47.9189 14.1366C47.9329 14.0666 47.8908 14.0105 47.8208 14.0105H46.8719C46.8159 14.0105 46.7459 14.0386 46.7319 14.1226C46.7319 14.1366 46.7178 14.1646 46.7178 14.1646C46.5498 14.8999 46.1786 15.4952 45.6289 15.9469C45.0756 16.3986 44.4279 16.6122 43.7031 16.6122C42.9677 16.6122 42.3865 16.3846 41.9488 15.9469C41.5111 15.5092 41.2975 14.9279 41.2975 14.2066C41.2975 13.867 41.3256 13.4433 41.3816 12.9601L48.2585 10.8242C48.3986 10.7822 48.4581 10.7121 48.4861 10.5406C48.5281 10.1869 48.5561 9.57766 48.5561 8.95439C48.5421 8.06851 48.2305 7.18964 47.6072 6.59439ZM47.3411 9.80876C47.3411 9.87879 47.2991 9.93481 47.2291 9.94882L41.5251 11.7171C41.5251 11.7031 41.5251 11.7031 41.5251 11.6891C41.6652 10.5861 41.7948 9.76324 41.9068 9.2135C42.0749 8.47819 42.446 7.88294 42.9958 7.43124C43.549 6.97955 44.2003 6.76596 44.9216 6.76596C45.6569 6.76596 46.2381 6.99356 46.6758 7.41724C47.3691 8.13855 47.3831 8.87386 47.3411 9.80876Z" fill="#0B2233"/>
<path d="M47.6072 6.59439C46.984 5.99913 46.1366 5.6875 45.0757 5.6875C44.0147 5.6875 43.0938 5.98513 42.3165 6.59439C41.5391 7.20365 41.0279 7.99498 40.7758 8.98591C40.5622 9.79125 40.4642 10.5161 40.2961 11.6891C40.142 12.8481 40.0825 13.5694 40.0825 14.3922C40.0965 15.3971 40.4222 16.1885 41.0314 16.7977C41.6547 17.393 42.5021 17.7046 43.577 17.7046C44.624 17.7046 45.5448 17.407 46.3222 16.7977C47.0995 16.2025 47.6107 15.3971 47.8628 14.3922C47.8768 14.3082 47.9049 14.2206 47.9189 14.1366C47.9329 14.0666 47.8908 14.0105 47.8208 14.0105H46.8719C46.8159 14.0105 46.7459 14.0386 46.7319 14.1226C46.7319 14.1366 46.7178 14.1646 46.7178 14.1646C46.5498 14.8999 46.1786 15.4952 45.6289 15.9469C45.0756 16.3986 44.4279 16.6122 43.7031 16.6122C42.9677 16.6122 42.3865 16.3846 41.9488 15.9469C41.5111 15.5092 41.2975 14.9279 41.2975 14.2066C41.2975 13.867 41.3256 13.4433 41.3816 12.9601L48.2585 10.8242C48.3986 10.7822 48.4581 10.7121 48.4861 10.5406C48.5281 10.1869 48.5561 9.57766 48.5561 8.95439C48.5421 8.06851 48.2305 7.18964 47.6072 6.59439ZM47.3411 9.80876C47.3411 9.87879 47.2991 9.93481 47.2291 9.94882L41.5251 11.7171C41.5251 11.7031 41.5251 11.7031 41.5251 11.6891C41.6652 10.5861 41.7948 9.76324 41.9068 9.2135C42.0749 8.47819 42.446 7.88294 42.9958 7.43124C43.549 6.97955 44.2003 6.76596 44.9216 6.76596C45.6569 6.76596 46.2381 6.99356 46.6758 7.41724C47.3691 8.13855 47.3831 8.87386 47.3411 9.80876Z" fill="white" fill-opacity="0.2"/>
<path d="M37.4633 16.2755C37.6033 16.2055 37.7609 16.3035 37.7329 16.4611L37.6349 17.2244C37.6209 17.3224 37.5508 17.41 37.4668 17.452C36.7875 17.7076 35.8386 17.8197 35.0753 17.48C34.1964 17.0843 33.9723 16.2195 34.0984 15.1445L35.1033 6.95102L35.2433 5.77802L35.583 3.17291C35.597 3.01884 35.695 2.94531 35.8526 2.94531H36.5879C36.756 2.94531 36.8015 3.04335 36.7735 3.17291L36.3358 6.88099H38.7273C38.8674 6.88099 38.9269 6.96503 38.9269 7.10859L38.8569 7.64782C38.8429 7.73185 38.8289 7.77387 38.7869 7.8334C38.7448 7.87541 38.6608 7.88942 38.6013 7.88942H36.2238L35.3904 14.6123C35.3064 15.3336 35.2083 15.9849 35.576 16.3385C36.0487 16.7272 36.9801 16.4996 37.4633 16.2755Z" fill="#0B2233"/>
<path d="M37.4633 16.2755C37.6033 16.2055 37.7609 16.3035 37.7329 16.4611L37.6349 17.2244C37.6209 17.3224 37.5508 17.41 37.4668 17.452C36.7875 17.7076 35.8386 17.8197 35.0753 17.48C34.1964 17.0843 33.9723 16.2195 34.0984 15.1445L35.1033 6.95102L35.2433 5.77802L35.583 3.17291C35.597 3.01884 35.695 2.94531 35.8526 2.94531H36.5879C36.756 2.94531 36.8015 3.04335 36.7735 3.17291L36.3358 6.88099H38.7273C38.8674 6.88099 38.9269 6.96503 38.9269 7.10859L38.8569 7.64782C38.8429 7.73185 38.8289 7.77387 38.7869 7.8334C38.7448 7.87541 38.6608 7.88942 38.6013 7.88942H36.2238L35.3904 14.6123C35.3064 15.3336 35.2083 15.9849 35.576 16.3385C36.0487 16.7272 36.9801 16.4996 37.4633 16.2755Z" fill="white" fill-opacity="0.2"/>
</g>
<defs>
<clipPath id="clip0_1468_130993">
<rect fill="white" height="18.7499" transform="translate(2.88464 0.625)" width="80.6027"/>
</clipPath>
</defs>
</svg>