<?xml version="1.0" encoding="utf-8"?>
<svg xmlns="http://www.w3.org/2000/svg" fill="none" height="33" viewBox="0 0 32 33" width="32">
<path d="M6.07817 25.3618C4.21476 23.1739 3.08838 20.3417 3.08838 17.2407C3.08838 14.1396 4.18695 11.3677 6.01791 9.19373" opacity="0.3" stroke="#74BFF5" stroke-linecap="round" stroke-width="1.98642"/>
<path d="M16.6421 4.7583C21.2357 5.12913 25.1294 7.98449 26.9835 11.9755C28.9906 16.9353 27.2477 22.4931 26.2326 23.8976" opacity="0.3" stroke="#74BFF5" stroke-linecap="round" stroke-width="1.98642"/>
<path d="M15.5866 25.8356C15.038 25.8356 14.5934 25.3909 14.5934 24.8424V3.09587C14.5934 2.54734 14.1487 2.10266 13.6002 2.10266H8.5767H8.04364H7.62558C6.81469 2.10266 6.34552 3.02187 6.82125 3.67855L7.85476 5.10521C7.97754 5.27468 8.04364 5.47861 8.04364 5.68789V27.051C8.04364 27.2867 7.95976 27.5148 7.80701 27.6944L6.64052 29.066C6.09193 29.711 6.55034 30.7027 7.3971 30.7027H8.1039H22.5708H24.9158C25.2361 30.7027 25.5368 30.5482 25.7233 30.2878L27.7864 27.4071C28.2571 26.7498 27.7873 25.8356 26.9789 25.8356H15.5866Z" fill="#74BFF5"/>
<path d="M17.6216 22.9229V9.05252C21.3088 9.95198 24.0437 13.2772 24.0437 17.2412C24.0437 19.4332 23.212 21.4247 21.8417 22.9229L17.6216 22.9229Z" opacity="0.3" stroke="#74BFF5" stroke-width="1.98642"/>
</svg>