<?xml version="1.0" encoding="utf-8"?>
<svg xmlns="http://www.w3.org/2000/svg" fill="none" height="24" viewBox="0 0 24 24" width="24">
<g clip-path="url(#clip0_3536_12678)">
<path d="M18.3625 19.5525C18.3625 19.5525 18.3561 19.5518 18.3453 19.5542C18.2489 19.5702 18.1065 19.563 17.9255 19.5352C17.9163 19.5335 17.908 19.5336 17.8973 19.5313C17.1007 19.4113 15.6024 18.935 14.0594 18.3558C14.0269 18.3456 13.9949 18.3339 13.9635 18.3207C12.4273 17.7408 10.8614 17.0619 9.91482 16.5279C9.91337 16.5274 9.91337 16.5274 9.91337 16.5274C9.44159 16.2585 9.12374 16.0284 9.0417 15.8653C9.02247 15.8278 9.01142 15.7724 9.00605 15.7016C8.86614 14.0938 11.9497 4.6469 12.7564 4.32019C13.4997 4.01834 15.9294 4.46678 18.1976 5.26649L18.3764 5.33192C20.7444 5.99827 23.3795 7.24969 23.3795 7.24969C23.3795 7.24969 21.7553 14.9832 18.3625 19.5525Z" fill="#CBBCCC"/>
<path d="M18.0549 19.1956C17.3752 19.0896 15.3257 18.8091 14.0592 18.3568C14.0267 18.3465 13.9947 18.3348 13.9633 18.3217C11.8485 17.5621 9.48152 16.537 8.63843 15.9095C8.63749 15.9075 8.63749 15.9075 8.63749 15.9075C8.48463 15.7939 8.38129 15.6935 8.33959 15.6093C8.01769 14.9625 9.61959 9.59979 10.8875 6.36076C10.8875 6.36076 10.888 6.35934 10.889 6.35652C11.4209 4.99782 12.0798 3.85069 12.0798 3.85069C12.0798 3.85069 15.7273 4.34411 18.196 5.26689L18.3747 5.33232C20.5075 6.14178 22.525 7.44611 22.525 7.44611C22.525 7.44611 21.7092 10.445 20.6208 13.3827C19.5279 16.3282 18.1633 19.2145 18.0549 19.1956Z" fill="#EFE4EF"/>
<path d="M22.8565 7.56647C22.6792 7.50158 21.8568 10.6311 20.4432 14.1599C19.0297 17.6887 18.5984 18.3404 18.7304 18.5426C18.8624 18.7448 20.882 15.2936 21.8443 12.5022C22.8072 9.70935 23.2551 7.90473 23.1822 7.82032C23.1092 7.73592 22.8565 7.56647 22.8565 7.56647Z" fill="#CBBCCC"/>
<path d="M12.3607 4.97861L13.4662 5.11209L12.0105 9.08953L10.9925 8.71693L12.3607 4.97861Z" fill="#224461"/>
<path d="M17.4268 6.01826L18.0097 6.23162L16.3785 10.6882L15.7956 10.4748L17.4268 6.01826Z" fill="#224461"/>
<path d="M20.8887 7.58466L21.6149 7.99543L20.1273 12.0603L19.3542 11.7773L20.8887 7.58466Z" fill="#224461"/>
<path d="M19.6924 6.9549L20.5241 7.3762L18.9654 11.6348L18.096 11.3166L19.6924 6.9549Z" fill="#224461"/>
<path d="M13.7911 5.09055L14.0997 5.15835L12.584 9.29942L12.2901 9.19186L13.7911 5.09055Z" fill="#224461"/>
<path d="M14.2289 5.20095L14.7671 5.32361L13.2262 9.53418L12.712 9.34597L14.2289 5.20095Z" fill="#224461"/>
<path d="M15.5014 5.4964L16.0237 5.63144L14.4334 9.97624L13.9293 9.79172L15.5014 5.4964Z" fill="#224461"/>
<path d="M16.3016 5.70986L16.6976 5.80582L15.084 10.2145L14.7038 10.0753L16.3016 5.70986Z" fill="#224461"/>
<path d="M18.8584 6.53302L19.1435 6.66542L17.5182 11.106L17.2241 10.9983L18.8584 6.53302Z" fill="#224461"/>
<circle cx="11.6571" cy="10.98" fill="#F65B7D" r="0.788825" transform="rotate(20.103 11.6571 10.98)"/>
<ellipse cx="10.9521" cy="12.9076" fill="#F65B7D" rx="0.788826" ry="0.788825" transform="rotate(20.103 10.9521 12.9076)"/>
<circle cx="10.246" cy="14.8353" fill="#F65B7D" r="0.788825" transform="rotate(20.103 10.246 14.8353)"/>
<ellipse cx="13.8876" cy="11.7962" fill="#F65B7D" rx="0.788825" ry="0.788826" transform="rotate(20.103 13.8876 11.7962)"/>
<circle cx="13.1816" cy="13.7239" fill="#F65B7D" r="0.788826" transform="rotate(20.103 13.1816 13.7239)"/>
<ellipse cx="12.4765" cy="15.6515" fill="#F65B7D" rx="0.788826" ry="0.788825" transform="rotate(20.103 12.4765 15.6515)"/>
<circle cx="16.1181" cy="12.6126" fill="#F65B7D" r="0.788825" transform="rotate(20.103 16.1181 12.6126)"/>
<circle cx="15.413" cy="14.5403" fill="#F65B7D" r="0.788825" transform="rotate(20.103 15.413 14.5403)"/>
<ellipse cx="14.7069" cy="16.468" fill="#F65B7D" rx="0.788826" ry="0.788825" transform="rotate(20.103 14.7069 16.468)"/>
<ellipse cx="18.3485" cy="13.4289" fill="#F65B7D" rx="0.788826" ry="0.788825" transform="rotate(20.103 18.3485 13.4289)"/>
<ellipse cx="17.6425" cy="15.3566" fill="#F65B7D" rx="0.788826" ry="0.788825" transform="rotate(20.103 17.6425 15.3566)"/>
<ellipse cx="16.9374" cy="17.2843" fill="#F65B7D" rx="0.788825" ry="0.788825" transform="rotate(20.103 16.9374 17.2843)"/>
<path d="M14.1196 15.1598C14.1196 15.1598 14.1143 15.1627 14.1073 15.1704C14.0416 15.235 13.928 15.3066 13.7734 15.3833C13.7653 15.3869 13.759 15.3915 13.7495 15.3955C13.0705 15.7346 11.6575 16.1793 10.1542 16.5689C10.1236 16.5786 10.0926 16.5869 10.0613 16.5938C8.5629 16.9791 6.98802 17.3042 5.96904 17.4054C5.96763 17.4058 5.96763 17.4058 5.96763 17.4058C5.45829 17.4542 5.08857 17.449 4.93698 17.3677C4.90184 17.3492 4.86333 17.3126 4.82078 17.2608C3.8418 16.0973 1.10026 7.14455 1.54513 6.4556C1.95454 5.82019 4.07042 4.84942 6.25211 4.23694L6.42535 4.19052C8.61179 3.42111 11.3211 2.95801 11.3211 2.95801C11.3211 2.95801 14.2592 9.79931 14.1196 15.1598Z" fill="#EA7A00"/>
<path d="M13.6901 15.0511C13.1087 15.3375 11.3769 16.2318 10.1555 16.5694C10.1249 16.579 10.0939 16.5873 10.0626 16.5943C8.02087 17.1546 5.64093 17.6469 4.651 17.6199C4.64922 17.6189 4.64922 17.6189 4.64922 17.6189C4.46982 17.6141 4.33578 17.5928 4.25803 17.5505C3.65943 17.2263 1.98864 12.2246 1.21103 9.04084C1.21103 9.04084 1.21067 9.03947 1.20993 9.03673C0.88378 7.7012 0.770081 6.45999 0.770081 6.45999C0.770081 6.45999 3.84908 4.86404 6.25201 4.2378L6.42525 4.19138C8.50785 3.65978 10.7698 3.57206 10.7698 3.57206C10.7698 3.57206 11.7658 6.32578 12.5184 9.17993C13.2719 12.0427 13.7839 15.0068 13.6901 15.0511Z" fill="#FEC002"/>
<path d="M1.59725 7.17741L2.52174 6.68132L3.55461 10.536L2.56803 10.8004L1.59725 7.17741Z" fill="#224461"/>
<path d="M6.06445 5.23412L6.62938 5.08275L7.78667 9.40181L7.22174 9.55318L6.06445 5.23412Z" fill="#224461"/>
<path d="M9.58203 4.56578L10.3644 4.48891L11.4201 8.42829L10.6709 8.62904L9.58203 4.56578Z" fill="#224461"/>
<path d="M8.31836 4.7288L9.18772 4.60294L10.2936 8.73016L9.45102 8.95593L8.31836 4.7288Z" fill="#224461"/>
<path d="M2.76034 6.48874L3.03494 6.3738L4.1103 10.3871L3.82551 10.4634L2.76034 6.48874Z" fill="#224461"/>
<path d="M3.15667 6.33708L3.63798 6.14003L4.73155 10.2206L4.23321 10.3541L3.15667 6.33708Z" fill="#224461"/>
<path d="M4.298 5.87503L4.77374 5.69617L5.90201 9.90693L5.41343 10.0378L4.298 5.87503Z" fill="#224461"/>
<path d="M5.03075 5.60591L5.38803 5.4653L6.53288 9.73792L6.16438 9.83666L5.03075 5.60591Z" fill="#224461"/>
<path d="M7.44824 4.85508L7.73974 4.80268L8.89287 9.10621L8.6078 9.1826L7.44824 4.85508Z" fill="#224461"/>
<ellipse cx="4.30579" cy="12.1849" fill="#FBFF2F" rx="0.743239" ry="0.743238" transform="rotate(-15 4.30579 12.1849)"/>
<ellipse cx="4.80676" cy="14.0531" fill="#FBFF2F" rx="0.743239" ry="0.743239" transform="rotate(-15 4.80676 14.0531)"/>
<ellipse cx="5.30676" cy="15.9212" fill="#FBFF2F" rx="0.743239" ry="0.743238" transform="rotate(-15 5.30676 15.9212)"/>
<ellipse cx="6.46789" cy="11.6057" fill="#FBFF2F" rx="0.743239" ry="0.743238" transform="rotate(-15 6.46789 11.6057)"/>
<ellipse cx="6.96789" cy="13.4739" fill="#FBFF2F" rx="0.743239" ry="0.743239" transform="rotate(-15 6.96789 13.4739)"/>
<ellipse cx="7.46887" cy="15.3421" fill="#FBFF2F" rx="0.743239" ry="0.743239" transform="rotate(-15 7.46887 15.3421)"/>
<ellipse cx="8.62903" cy="11.0265" fill="#FBFF2F" rx="0.743239" ry="0.743238" transform="rotate(-15 8.62903 11.0265)"/>
<ellipse cx="9.13" cy="12.8946" fill="#FBFF2F" rx="0.743239" ry="0.743238" transform="rotate(-15 9.13 12.8946)"/>
<circle cx="9.63" cy="14.7628" fill="#FBFF2F" r="0.743239" transform="rotate(-15 9.63 14.7628)"/>
<ellipse cx="10.7902" cy="10.4473" fill="#FBFF2F" rx="0.743238" ry="0.743239" transform="rotate(-15 10.7902 10.4473)"/>
<circle cx="11.2911" cy="12.3155" fill="#FBFF2F" r="0.743238" transform="rotate(-15 11.2911 12.3155)"/>
<ellipse cx="11.7921" cy="14.1837" fill="#FBFF2F" rx="0.743238" ry="0.743239" transform="rotate(-15 11.7921 14.1837)"/>
<path d="M7.46832 21.6594C9.53268 21.6594 11.2062 19.9859 11.2062 17.9215C11.2062 15.8572 9.53268 14.1837 7.46832 14.1837C5.40396 14.1837 3.73047 15.8572 3.73047 17.9215C3.73047 19.9859 5.40396 21.6594 7.46832 21.6594Z" fill="#F65B7D"/>
<path d="M7.46832 18.003C6.0655 18.003 4.84368 17.2337 4.21014 16.0934C3.90243 16.6364 3.73047 17.2609 3.73047 17.9216C3.73047 19.9851 5.40481 21.6594 7.46832 21.6594C9.53183 21.6594 11.2062 19.9851 11.2062 17.9216C11.2062 17.2609 11.0342 16.6364 10.7265 16.0934C10.093 17.2337 8.87115 18.003 7.46832 18.003Z" fill="#704760"/>
<path d="M7.44076 20.3381C8.73536 20.3381 9.78483 19.2886 9.78483 17.994C9.78483 16.6994 8.73536 15.6499 7.44076 15.6499C6.14616 15.6499 5.09668 16.6994 5.09668 17.994C5.09668 19.2886 6.14616 20.3381 7.44076 20.3381Z" fill="white"/>
<path d="M7.44149 20.4649C8.80606 20.4649 9.91227 19.3587 9.91227 17.9941C9.91227 16.6295 8.80606 15.5233 7.44149 15.5233C6.07691 15.5233 4.9707 16.6295 4.9707 17.9941C4.9707 19.3587 6.07691 20.4649 7.44149 20.4649Z" fill="white"/>
<path d="M6.53665 18.8874H16.6722V21.6567L11.9644 32.5492H8.86284L13.6629 21.6567H6.53665V18.8874Z" fill="#224461"/>
<path d="M12.6111 23.8044C14.9144 24.5855 17.5822 23.184 18.57 20.6741C19.5577 18.1643 18.4912 15.4964 16.188 14.7153C13.8847 13.9342 11.2169 15.3357 10.2292 17.8456C9.24145 20.3555 10.3079 23.0233 12.6111 23.8044Z" fill="#9481FF"/>
<path d="M14.414 19.3027C12.8347 18.7668 11.8306 17.3558 11.6679 15.714C11.0594 16.263 10.5643 16.9639 10.2453 17.7748C9.24912 20.3078 10.3257 23.0026 12.6488 23.7908C14.9718 24.5791 17.6651 23.1634 18.6613 20.6305C18.9802 19.8195 19.0881 18.9873 19.0039 18.2032C17.7401 19.361 15.9932 19.8385 14.414 19.3027Z" fill="#756AE2"/>
<path d="M13.215 22.1828C14.6594 22.6726 16.3325 21.7937 16.9519 20.2198C17.5713 18.6458 16.9025 16.9727 15.4581 16.4829C14.0137 15.993 12.3406 16.8719 11.7212 18.4459C11.1018 20.0199 11.7706 21.693 13.215 22.1828Z" fill="white"/>
<path d="M13.1541 22.3369C14.6766 22.8532 16.4401 21.9268 17.093 20.2677C17.7459 18.6087 17.0409 16.8452 15.5184 16.3289C13.9959 15.8125 12.2324 16.7389 11.5795 18.398C10.9266 20.0571 11.6316 21.8206 13.1541 22.3369Z" fill="white"/>
<path d="M12.9519 20.0475L24.8099 24.0922L23.5643 27.2758L13.1571 37.9195L9.52836 36.6817L20.0436 26.075L11.7063 23.2311L12.9519 20.0475Z" fill="#224461"/>
<path d="M12.5502 3.50243L12.274 3.29449L11.3041 3.66905C10.9885 3.73355 10.6669 3.86222 10.3826 4.06419C10.0934 4.26964 9.87091 4.52749 9.70612 4.80424L9.00542 5.73185L9.09596 5.87644C9.11481 5.90297 9.13366 5.92951 9.16193 5.96931C9.76508 6.81833 11.0198 6.96494 11.9658 6.29288C12.9119 5.62082 13.1865 4.38777 12.5834 3.53874C12.569 3.52896 12.5596 3.5157 12.5502 3.50243Z" fill="#FF9A22"/>
<path clip-rule="evenodd" d="M12.9068 4.63349L12.4284 3.96017L12.307 4.50556L12.8002 5.19982C12.8634 5.01452 12.8994 4.82361 12.9068 4.63349ZM12.137 6.16661L11.6544 5.48739L11.3015 5.73814L11.7833 6.41643C11.847 6.37971 11.9096 6.33959 11.9709 6.29603C12.0288 6.25491 12.0842 6.2117 12.137 6.16661ZM10.5649 6.71521L10.0682 6.01601L9.49023 5.88765L9.99625 6.59995C10.1765 6.66589 10.3683 6.70458 10.5649 6.71521Z" fill="#EA7A00" fill-rule="evenodd"/>
<path d="M11.7877 6.04873C12.7338 5.37667 13.0084 4.14362 12.4053 3.2946C11.8021 2.44557 10.5474 2.29895 9.60135 2.97101C8.6553 3.64307 8.38068 4.87613 8.98382 5.72516C9.58697 6.57419 10.8417 6.72079 11.7877 6.04873Z" fill="#FFE25D"/>
<path d="M11.5808 5.75679C12.3455 5.21357 12.5722 4.21417 12.0821 3.52433C11.5921 2.8345 10.5738 2.71956 9.80908 3.26278C9.0444 3.806 8.81769 4.80541 9.30774 5.49525C9.79779 6.18508 10.8161 6.30001 11.5808 5.75679Z" fill="#FFB902"/>
<path d="M11.2694 5.31916C11.7939 4.94656 11.9327 4.24912 11.584 3.75827C11.2353 3.26743 10.5262 3.1724 10.0066 3.54151C9.4821 3.91411 9.34327 4.61155 9.69196 5.10239C10.0406 5.59324 10.7449 5.69175 11.2694 5.31916Z" fill="#FFE25D"/>
<path d="M11.1938 5.21306C11.6448 4.8927 11.7813 4.31663 11.4986 3.91865C11.2159 3.52067 10.627 3.45997 10.176 3.78033C9.72504 4.10069 9.58848 4.67676 9.8712 5.07474C10.1445 5.45945 10.7428 5.53342 11.1938 5.21306Z" fill="#FFE25D"/>
<path d="M4.83608 5.53504L5.42793 5.22431L4.72392 3.88335C4.66898 3.45913 4.53807 3.01007 4.31736 2.58966C4.09284 2.162 3.80134 1.80649 3.48335 1.52037L2.77554 0.172163L2.24945 0.448367C2.21657 0.465629 2.18369 0.482892 2.13437 0.508786C1.0822 1.06118 0.820964 2.64075 1.55541 4.03969C2.28986 5.43864 3.7384 6.12058 4.79057 5.56818C4.8032 5.5523 4.81964 5.54367 4.83608 5.53504Z" fill="#FF9A22"/>
<path clip-rule="evenodd" d="M3.46986 5.68869L4.30465 5.25043L3.66395 4.9488L2.80323 5.40068C3.01938 5.53146 3.2441 5.62863 3.46986 5.68869ZM1.69859 4.28844L2.54039 3.84649L2.2664 3.3246L1.42571 3.76596C1.46498 3.85775 1.50836 3.9491 1.55593 4.03969C1.60089 4.12534 1.64853 4.20829 1.69859 4.28844ZM1.15422 2.11485L2.02114 1.65971L2.21387 0.948265L1.33062 1.41197C1.23972 1.6269 1.18045 1.86402 1.15422 2.11485Z" fill="#EA7A00" fill-rule="evenodd"/>
<path d="M2.11066 3.739C2.84511 5.13795 4.29364 5.81987 5.34581 5.26748C6.39798 4.71509 6.65923 3.13552 5.92478 1.73658C5.19033 0.337633 3.74179 -0.344299 2.68962 0.208094C1.63744 0.760487 1.37621 2.34006 2.11066 3.739Z" fill="#FFE25D"/>
<path d="M2.47252 3.54918C3.06617 4.67993 4.23994 5.23797 5.09483 4.78915C5.94972 4.34033 6.15692 3.05728 5.56327 1.92653C4.96962 0.795774 3.79584 0.237731 2.94095 0.68655C2.08606 1.13537 1.87887 2.41843 2.47252 3.54918Z" fill="#FFB902"/>
<path d="M3.01488 3.26432C3.42206 4.0399 4.24253 4.40432 4.85082 4.08497C5.4591 3.76562 5.62123 2.87608 5.21785 2.10775C4.81067 1.33217 3.9902 0.967731 3.38192 1.28708C2.77363 1.60644 2.60769 2.48874 3.01488 3.26432Z" fill="#FFE25D"/>
<path d="M3.14621 3.19524C3.49631 3.86209 4.17248 4.19132 4.66569 3.93239C5.15889 3.67345 5.27185 2.92993 4.92175 2.26307C4.57165 1.59622 3.89548 1.26697 3.40228 1.52591C2.92551 1.77621 2.79611 2.52838 3.14621 3.19524Z" fill="#FFE25D"/>
<path d="M15.1847 6.27314L14.803 5.59989L16.8121 4.46068C17.2911 4.06512 17.866 3.66165 18.4959 3.30449C19.1367 2.94118 19.7672 2.66112 20.3526 2.4532L22.3726 1.30783L22.7277 1.93417C22.741 1.95762 22.7543 1.98108 22.7743 2.01626C23.1998 2.76679 21.8514 4.33723 19.7554 5.52571C17.6593 6.71419 15.6194 7.06502 15.1938 6.31449C15.198 6.2966 15.1914 6.28487 15.1847 6.27314Z" fill="#FF9A22"/>
<path d="M19.3979 4.86979C17.3019 6.05827 15.262 6.40909 14.8364 5.65856C14.4108 4.90803 15.7592 3.33759 17.8553 2.14911C19.9513 0.960636 21.9913 0.609812 22.4168 1.36034C22.8424 2.11088 21.494 3.68132 19.3979 4.86979Z" fill="#FFE25D"/>
<path d="M19.2518 4.6118C17.5576 5.57243 15.8991 5.86195 15.5533 5.25214C15.2076 4.64234 16.3075 3.36775 18.0017 2.40711C19.6959 1.44648 21.3545 1.15696 21.7002 1.76677C22.046 2.37658 20.946 3.65117 19.2518 4.6118Z" fill="#FFB902"/>
<path d="M19.0323 4.22488C17.8702 4.88377 16.7368 5.06153 16.4908 4.62763C16.2447 4.19373 16.9901 3.30619 18.1413 2.65345C19.3033 1.99456 20.4368 1.81678 20.6828 2.25068C20.9288 2.68458 20.1943 3.56598 19.0323 4.22488Z" fill="#FFE25D"/>
<path d="M18.9788 4.131C17.9797 4.69752 17.0164 4.87175 16.8169 4.51994C16.6174 4.16813 17.2615 3.431 18.2607 2.86447C19.2598 2.29795 20.2231 2.1237 20.4225 2.47551C20.6154 2.8156 19.9779 3.56447 18.9788 4.131Z" fill="#FFE25D"/>
<path d="M22.0952 3.74906L21.7508 3.07115L22.2881 2.34809L22.6391 3.03773C22.4992 3.272 22.3135 3.5013 22.0952 3.74906Z" fill="#EA7A00"/>
<path d="M17.2733 6.55873C16.9444 6.63675 16.6414 6.68457 16.3644 6.70218L16.0075 6.06033L16.9098 5.90516L17.2733 6.55873Z" fill="#EA7A00"/>
<path d="M20.1917 5.27095C20.0505 5.35101 19.9051 5.44894 19.7639 5.52899C19.6553 5.59057 19.5358 5.65831 19.4272 5.71989L19.0608 5.06071L19.8428 4.61733L20.2025 5.26479L20.1917 5.27095Z" fill="#EA7A00"/>
</g>
<defs>
<clipPath id="clip0_3536_12678">
<rect fill="white" height="24" width="24"/>
</clipPath>
</defs>
</svg>