<?xml version="1.0" encoding="utf-8"?>
<svg xmlns="http://www.w3.org/2000/svg" fill="none" height="33" viewBox="0 0 32 33" width="32">
<path clip-rule="evenodd" d="M7.54094 9.07754L9.63711 11.8105C9.98273 12.2611 10.6282 12.3462 11.0788 12.0006C11.5294 11.655 11.6145 11.0096 11.2689 10.5589L9.05394 7.67109L9.02493 7.63326L8.99254 7.59828C8.44376 7.00559 7.58698 6.82702 6.85555 7.13533L4.92898 7.93639L4.92026 7.94001L4.91161 7.9438C4.23399 8.24026 3.75996 8.90945 3.75733 9.68158C3.74209 11.1363 3.78896 15.0315 4.89226 18.4042C5.44456 20.0925 6.29624 21.761 7.64069 22.9046C8.17551 23.3595 8.77459 23.7195 9.43868 23.9655C9.40212 24.119 9.38277 24.2791 9.38277 24.4438V27.0399C9.38277 29.3114 11.2242 31.1529 13.4958 31.1529H22.0455C24.317 31.1529 26.1585 29.3114 26.1585 27.0399V24.4438C26.1585 23.8775 25.9296 23.3647 25.5593 22.9928C27.1845 21.8364 28.2447 19.9375 28.2447 17.7913V17.507C28.2447 15.9605 26.9884 14.7221 25.4598 14.7221H11.3351H11.3249V14.7221C9.7831 14.7276 8.55014 15.9817 8.55014 17.507V17.7913C8.55014 19.4255 9.16489 20.9164 10.1757 22.0452C9.71966 21.8795 9.32329 21.636 8.97313 21.3381C8.03856 20.5432 7.34297 19.2814 6.84684 17.7648C5.87626 14.7978 5.8016 11.2801 5.81289 9.79606L7.54094 9.07754ZM11.3351 16.7786C10.932 16.7786 10.6066 17.1064 10.6066 17.507V17.7913C10.6066 20.1784 12.5427 22.1145 14.9297 22.1145H21.8651C24.2521 22.1145 26.1882 20.1784 26.1882 17.7913V17.507C26.1882 17.1039 25.8604 16.7786 25.4598 16.7786H11.3351ZM11.4393 24.4438H24.102V27.0399C24.102 28.1757 23.1812 29.0964 22.0455 29.0964H13.4958C12.36 29.0964 11.4393 28.1757 11.4393 27.0399V24.4438Z" fill="#83E774" fill-rule="evenodd" opacity="0.3"/>
<path clip-rule="evenodd" d="M14.7791 2.9758C14.7791 2.24504 15.3715 1.65265 16.1023 1.65265C16.8277 1.65265 17.4168 2.23645 17.4253 2.95987V4.95911C17.4253 5.49607 17.8606 5.93137 18.3976 5.93137C18.9345 5.93137 19.3698 5.49607 19.3698 4.95911V4.57023V2.9758V2.97419C19.3707 2.24418 19.9628 1.65265 20.693 1.65265C21.4237 1.65265 22.0161 2.24504 22.0161 2.9758V4.57023L22.0161 6.58585C22.0161 7.12281 22.4514 7.55811 22.9884 7.55811C23.5254 7.55811 23.9606 7.12281 23.9606 6.58585V4.68264V3.97059C23.9606 3.31738 24.4902 2.78785 25.1434 2.78785C26.2321 2.78785 27.1146 3.6704 27.1146 4.75908V8.68324V10.8091V11.638C27.1146 13.9096 25.2731 15.751 23.0016 15.751H13.7937C11.5221 15.751 9.68066 13.9096 9.68066 11.638V10.8091V8.68324V4.75907C9.68066 3.6704 10.5632 2.78785 11.6519 2.78785C12.3051 2.78785 12.8346 3.31738 12.8346 3.97059V4.68264L12.8346 6.58585C12.8346 7.12281 13.2699 7.55811 13.8069 7.55811C14.3438 7.55811 14.7791 7.12281 14.7791 6.58585V4.57023V2.9758ZM13.0513 8.418H12.178C11.8135 8.418 11.518 8.71351 11.518 9.07804C11.518 9.44257 11.8135 9.73808 12.178 9.73808H13.0513C13.4158 9.73808 13.7113 9.44257 13.7113 9.07804C13.7113 8.71351 13.4158 8.418 13.0513 8.418ZM16.8288 8.418H15.9555C15.591 8.418 15.2955 8.71351 15.2955 9.07804C15.2955 9.44257 15.591 9.73808 15.9555 9.73808H16.8288C17.1933 9.73808 17.4888 9.44257 17.4888 9.07804C17.4888 8.71351 17.1933 8.418 16.8288 8.418ZM19.7329 8.418H20.6062C20.9707 8.418 21.2662 8.71351 21.2662 9.07804C21.2662 9.44257 20.9707 9.73808 20.6062 9.73808H19.7329C19.3684 9.73808 19.0729 9.44257 19.0729 9.07804C19.0729 8.71351 19.3684 8.418 19.7329 8.418ZM24.3836 8.418H23.5103C23.1458 8.418 22.8503 8.71351 22.8503 9.07804C22.8503 9.44257 23.1458 9.73808 23.5103 9.73808H24.3836C24.7481 9.73808 25.0436 9.44257 25.0436 9.07804C25.0436 8.71351 24.7481 8.418 24.3836 8.418Z" fill="#83E774" fill-rule="evenodd"/>
</svg>