<?xml version="1.0" encoding="utf-8"?>
<svg xmlns="http://www.w3.org/2000/svg" fill="#2d3c4a" height="357" viewBox="0 0 197 357" width="197">
  <g clip-rule="evenodd" fill-rule="evenodd">
    <path d="m139.953 148.056c.654 2.958.998 6.032.998 9.187 0 15.54-8.36 29.127-20.828 36.508-.004.339-.004.678-.001 1.017-.018 8.714 1.859 17.328 5.501 25.245 3.175 6.73 7.521 12.842 12.834 18.052 2.906 6.624 4.395 13.781 4.372 21.014.01 10.205-2.928 20.196-8.462 28.771 10.013-3.521 18.746-9.954 25.078-18.472 6.333-8.519 9.976-18.735 10.462-29.338 6.431-5.659 11.582-12.624 15.108-20.431 3.527-7.806 5.348-16.275 5.342-24.841.023-11.387-3.206-22.543-9.308-32.156-.727-1.94-1.109-3.993-1.128-6.064-.035-3.048.812-6.04 2.439-8.617 1.626-2.577 3.962-4.63 6.728-5.91-3.241-3.367-5.659-7.438-7.064-11.895s-1.76-9.179-1.036-13.796 2.507-9.003 5.209-12.816c2.702-3.8134 6.25-6.9492 10.366-9.1624-.841-.1172-1.69-.1644-2.539-.141-4.689.0168-9.331.9262-13.68 2.6797v-1.1283c-.015-35.219-12.792-69.2395-35.964-95.762 4.082 13.7339 6.172 27.9825 6.206 42.3102.013 14.0432-2.03 28.0127-6.065 41.4639-.398 1.395-.938 2.7195-1.469 4.0235v.0005.0006c-.22.5413-.439 1.079-.646 1.6168-1.135 2.8149-2.123 5.6864-2.962 8.603-2.209 7.8015-3.348 15.8675-3.385 23.9755.005 7.478.957 14.919 2.829 22.147.353 1.086.663 2.192.928 3.315.064.21.127.42.192.63zm.859 79.502c-.716-1.305-1.149-2.747-1.269-4.231-.318-2.951.54-5.909 2.388-8.232 1.848-2.324 4.537-3.825 7.484-4.179 2.209-.2 4.426.29 6.345 1.401s3.447 2.79 4.374 4.805c.427.74.714 1.553.846 2.397 2.515 7.703 2.832 15.956.913 23.829-1.918 7.873-5.995 15.055-11.773 20.738.805-4.133 1.042-8.356.706-12.552-.732-7.49-3.352-14.672-7.616-20.873-.993-.87-1.807-1.923-2.398-3.103zm-42.195 11.267c-3.5029-5.219-5.5465-11.5-5.5465-18.258 0-12.204 6.6648-22.851 16.5535-28.501-2.23-5.375-3.561-11.103-3.919-16.953-.547-8.921 1.187-17.834 5.036-25.899 3.849-8.066 9.688-15.019 16.967-20.205-11.187 2.768-21.436 8.462-29.6962 16.498-8.2598 8.037-14.2326 18.127-17.3056 29.234-3.2576 14.411-10.985 27.415-22.0651 37.162v8.089 1.448h-.0209c-.2931 10.146-3.6579 19.522-9.1969 27.23-7.7458 15.787-11.7195 33.162-11.6032 50.753-.0293 19.95 5.1368 39.563 14.9898 56.91 3.159-27.192 15.9047-52.368 35.9502-71.011l.6351-.635c3.9756-3.837 7.138-8.435 9.2986-13.52 2.1602-5.085 3.2752-10.553 3.2772-16.078.022-1.187-.021-2.375-.127-3.557-.44-4.373-1.527-8.655-3.227-12.707zm-48.6907 87.275c-2.5016-9.397-3.5301-19.125-3.0488-28.837.8915-11.407 3.7271-22.577 8.3842-33.028.127-.318.254-.603.3811-.889.127-.286.254-.572.381-.889 1.0018-2.2 2.5286-4.119 4.4462-5.59 1.5193-1.113 3.2461-1.912 5.0787-2.348 1.8325-.437 3.7338-.502 5.592-.193 3.3574.537 6.4146 2.25 8.6254 4.833s3.431 5.868 3.4427 9.268c.0399 3.63-1.3257 7.135-3.811 9.782h-.0005-.0005c-.7618.635-1.5238 1.27-2.2856 2.032-13.3708 12.283-22.8261 28.233-27.1849 45.859zm1.3045-144.159c0 14.588-6.823 27.582-17.4519 35.966-.079-.01-.1579-.02-.2369-.03-.2865.285-.5703.573-.8515.863-.1041.077-.2085.154-.3132.23v.095c-4.3288 4.527-8 9.643-10.9033 15.199-4.698 8.581-7.5129 18.065-8.2571 27.82-8.59914-12.144-13.21542178-26.659-13.21139359-41.539-.10185071-7.964 1.20996359-15.882 3.87447359-23.387 3.17086-9.383 8.27782-17.996 14.98982-25.279-.0635 0-.1588-.032-.254-.064-.0953-.032-.1906-.063-.2541-.063 2.8453-4.9 4.3359-10.468 4.3191-16.133.012-2.835-.3729-5.657-1.1433-8.385 5.4686-1.346 10.257-4.644 13.4654-9.273.8892-1.905 1.7785-3.684 2.7947-5.462.8019-2.42 1.2302-4.947 1.2703-7.495-.0215-1.063-.1063-2.123-.254-3.176 4.6023-2.136 8.614-5.363 11.6869-9.4 12.6569-17.0559 28.6478-31.3613 47.002-42.0481-14.8817 21.7822-23.7349 47.1141-25.6605 73.4251-3.7633 2.795-6.8164 6.435-8.9128 10.628s-3.1772 8.82-3.1553 13.508v1.397c-3.641 2.815-6.5948 6.42-8.6382 10.544l.0493-.001c.0302.683.0455 1.37.0455 2.06zm-36.9342 49.008c2.3613-10.922 7.6786-20.986 15.371-29.091.7821-.909 1.6314-1.758 2.5406-2.54 1.0317-1.491 1.5653-3.269 1.5244-5.082.0071-1.931-.6002-3.815-1.7341-5.379s-2.7357-2.727-4.5739-3.321c-1.8383-.594-3.8177-.588-5.6523.017s-3.4294 1.777-4.5539 3.348c-.508 1.143-1.0159 2.413-1.5239 3.683l-.0005.001c-2.5789 6.817-3.871 14.053-3.811 21.341.0058 5.757.8052 11.485 2.3755 17.023z"/>
    <path d="m139.953 148.056c.654 2.958.998 6.032.998 9.187 0 15.54-8.36 29.127-20.828 36.508-.004.339-.004.678-.001 1.017-.018 8.714 1.859 17.328 5.501 25.245 3.175 6.73 7.521 12.842 12.834 18.052 2.906 6.624 4.395 13.781 4.372 21.014.01 10.205-2.928 20.196-8.462 28.771 10.013-3.521 18.746-9.954 25.078-18.472 6.333-8.519 9.976-18.735 10.462-29.338 6.431-5.659 11.582-12.624 15.108-20.431 3.527-7.806 5.348-16.275 5.342-24.841.023-11.387-3.206-22.543-9.308-32.156-.727-1.94-1.109-3.993-1.128-6.064-.035-3.048.812-6.04 2.439-8.617 1.626-2.577 3.962-4.63 6.728-5.91-3.241-3.367-5.659-7.438-7.064-11.895s-1.76-9.179-1.036-13.796 2.507-9.003 5.209-12.816c2.702-3.8134 6.25-6.9492 10.366-9.1624-.841-.1172-1.69-.1644-2.539-.141-4.689.0168-9.331.9262-13.68 2.6797v-1.1283c-.015-35.219-12.792-69.2395-35.964-95.762 4.082 13.7339 6.172 27.9825 6.206 42.3102.013 14.0432-2.03 28.0127-6.065 41.4639-.398 1.395-.938 2.7195-1.469 4.0235v.0005.0006c-.22.5413-.439 1.079-.646 1.6168-1.135 2.8149-2.123 5.6864-2.962 8.603-2.209 7.8015-3.348 15.8675-3.385 23.9755.005 7.478.957 14.919 2.829 22.147.353 1.086.663 2.192.928 3.315.064.21.127.42.192.63zm.859 79.502c-.716-1.305-1.149-2.747-1.269-4.231-.318-2.951.54-5.909 2.388-8.232 1.848-2.324 4.537-3.825 7.484-4.179 2.209-.2 4.426.29 6.345 1.401s3.447 2.79 4.374 4.805c.427.74.714 1.553.846 2.397 2.515 7.703 2.832 15.956.913 23.829-1.918 7.873-5.995 15.055-11.773 20.738.805-4.133 1.042-8.356.706-12.552-.732-7.49-3.352-14.672-7.616-20.873-.993-.87-1.807-1.923-2.398-3.103zm-42.195 11.267c-3.5029-5.219-5.5465-11.5-5.5465-18.258 0-12.204 6.6648-22.851 16.5535-28.501-2.23-5.375-3.561-11.103-3.919-16.953-.547-8.921 1.187-17.834 5.036-25.899 3.849-8.066 9.688-15.019 16.967-20.205-11.187 2.768-21.436 8.462-29.6962 16.498-8.2598 8.037-14.2326 18.127-17.3056 29.234-3.2576 14.411-10.985 27.415-22.0651 37.162v8.089 1.448h-.0209c-.2931 10.146-3.6579 19.522-9.1969 27.23-7.7458 15.787-11.7195 33.162-11.6032 50.753-.0293 19.95 5.1368 39.563 14.9898 56.91 3.159-27.192 15.9047-52.368 35.9502-71.011l.6351-.635c3.9756-3.837 7.138-8.435 9.2986-13.52 2.1602-5.085 3.2752-10.553 3.2772-16.078.022-1.187-.021-2.375-.127-3.557-.44-4.373-1.527-8.655-3.227-12.707zm-48.6907 87.275c-2.5016-9.397-3.5301-19.125-3.0488-28.837.8915-11.407 3.7271-22.577 8.3842-33.028.127-.318.254-.603.3811-.889.127-.286.254-.572.381-.889 1.0018-2.2 2.5286-4.119 4.4462-5.59 1.5193-1.113 3.2461-1.912 5.0787-2.348 1.8325-.437 3.7338-.502 5.592-.193 3.3574.537 6.4146 2.25 8.6254 4.833s3.431 5.868 3.4427 9.268c.0399 3.63-1.3257 7.135-3.811 9.782h-.0005-.0005c-.7618.635-1.5238 1.27-2.2856 2.032-13.3708 12.283-22.8261 28.233-27.1849 45.859zm1.3045-144.159c0 14.588-6.823 27.582-17.4519 35.966-.079-.01-.1579-.02-.2369-.03-.2865.285-.5703.573-.8515.863-.1041.077-.2085.154-.3132.23v.095c-4.3288 4.527-8 9.643-10.9033 15.199-4.698 8.581-7.5129 18.065-8.2571 27.82-8.59914-12.144-13.21542178-26.659-13.21139359-41.539-.10185071-7.964 1.20996359-15.882 3.87447359-23.387 3.17086-9.383 8.27782-17.996 14.98982-25.279-.0635 0-.1588-.032-.254-.064-.0953-.032-.1906-.063-.2541-.063 2.8453-4.9 4.3359-10.468 4.3191-16.133.012-2.835-.3729-5.657-1.1433-8.385 5.4686-1.346 10.257-4.644 13.4654-9.273.8892-1.905 1.7785-3.684 2.7947-5.462.8019-2.42 1.2302-4.947 1.2703-7.495-.0215-1.063-.1063-2.123-.254-3.176 4.6023-2.136 8.614-5.363 11.6869-9.4 12.6569-17.0559 28.6478-31.3613 47.002-42.0481-14.8817 21.7822-23.7349 47.1141-25.6605 73.4251-3.7633 2.795-6.8164 6.435-8.9128 10.628s-3.1772 8.82-3.1553 13.508v1.397c-3.641 2.815-6.5948 6.42-8.6382 10.544l.0493-.001c.0302.683.0455 1.37.0455 2.06zm-36.9342 49.008c2.3613-10.922 7.6786-20.986 15.371-29.091.7821-.909 1.6314-1.758 2.5406-2.54 1.0317-1.491 1.5653-3.269 1.5244-5.082.0071-1.931-.6002-3.815-1.7341-5.379s-2.7357-2.727-4.5739-3.321c-1.8383-.594-3.8177-.588-5.6523.017s-3.4294 1.777-4.5539 3.348c-.508 1.143-1.0159 2.413-1.5239 3.683l-.0005.001c-2.5789 6.817-3.871 14.053-3.811 21.341.0058 5.757.8052 11.485 2.3755 17.023z" fill-opacity=".09"/>
  </g>
</svg>