<?xml version="1.0" encoding="utf-8"?>
<svg xmlns="http://www.w3.org/2000/svg" fill="none" height="86" viewBox="0 0 86 86" width="86">
<path d="M64.3509 83.8176C63.1288 83.8176 61.9066 83.5312 60.8182 82.9965L43.0016 74.1741L25.185 82.9774C24.0965 83.5121 22.8744 83.7985 21.6522 83.7985C19.3416 83.7985 17.1456 82.7865 15.6179 81.0296C14.1093 79.2728 13.4409 76.9622 13.7656 74.6706L16.6491 55.0017L2.76625 40.7943C0.684785 38.6746 -0.0217661 35.6002 0.894843 32.774C1.81145 29.9478 4.19846 27.8854 7.13925 27.3889L26.7318 24.0471L35.9552 6.44055C37.3301 3.80529 40.0417 2.18213 43.0016 2.18213C45.9806 2.18213 48.6731 3.82439 50.048 6.44055L59.2714 24.0471L78.8639 27.3889C81.7856 27.8854 84.1917 29.9478 85.1083 32.774C86.0249 35.6002 85.2993 38.6746 83.2369 40.7943L69.3541 55.0017L72.2376 74.6706C72.5813 76.9622 71.8939 79.2728 70.3853 81.0296C68.8576 82.8055 66.6616 83.8176 64.3509 83.8176Z" fill="url(#paint0_linear_3172_12820)"/>
<path d="M41.3784 9.32375C42.0659 8.02522 43.9182 8.02522 44.6056 9.32375L54.822 28.8208C55.0894 29.3173 55.5668 29.6801 56.1205 29.7756L77.8136 33.4611C79.2649 33.7094 79.8378 35.4853 78.8066 36.5165L63.4152 52.2516C63.0142 52.6526 62.8423 53.2255 62.9187 53.7793L66.1078 75.5679C66.3178 77.0192 64.8092 78.1076 63.4916 77.4584L43.8036 67.7003C43.288 67.4521 42.696 67.4521 42.1804 67.7003L22.4542 77.4584C21.1366 78.1076 19.628 77.0192 19.8381 75.5679L23.0271 53.7793C23.1035 53.2255 22.9316 52.6526 22.5306 52.2516L7.13923 36.5165C6.10805 35.4662 6.68093 33.6903 8.13223 33.4611L29.8635 29.7565C30.4173 29.661 30.9138 29.3173 31.162 28.8017L41.3784 9.32375Z" fill="#EDEDED"/>
<path d="M79.0548 34.2441C78.7875 33.8431 78.3865 33.5566 77.8518 33.4611L56.1587 29.7756C55.6049 29.6801 55.1084 29.3364 54.8601 28.8208L44.6438 9.32375C43.9563 8.02522 42.104 8.02522 41.4165 9.32375L31.2002 28.8208C30.9328 29.3173 30.4554 29.6801 29.9016 29.7756L8.20854 33.4611C7.67385 33.5566 7.25374 33.8621 7.00549 34.2441C7.06278 34.3395 7.13917 34.435 7.21556 34.5114L22.6069 50.2465C23.008 50.6475 23.5427 51.4305 23.4663 52.0034L23.3135 52.9964C23.4663 53.3019 23.1416 53.4547 23.1034 53.7984L20.0481 74.594C20.4491 75.4724 21.5376 75.9498 22.5115 75.4724L42.2377 65.7143C42.7533 65.4661 43.3452 65.4661 43.8608 65.7143L63.587 75.4724C64.5609 75.9498 65.6494 75.4724 66.0504 74.594L62.995 53.7984C62.9378 53.4547 62.6513 53.4356 62.785 53.13L62.6322 52.137C62.5558 51.5833 62.7277 51.0104 63.1287 50.6094L78.8638 34.5114C78.9211 34.435 78.9784 34.3395 79.0548 34.2441Z" fill="#C6C7D6"/>
<path d="M62.9761 54.0468L62.9188 53.6267L62.6323 52.1563C62.5559 51.6025 62.7278 51.0297 63.1288 50.6286L77.68 35.6764L54.8793 31.8C54.3256 31.7045 53.8291 31.3608 53.5808 30.8452L43.3644 11.3481C42.8297 10.2405 42.9634 10.2787 42.276 11.5773L32.2315 31.0361C31.9641 31.5326 31.4867 31.8954 30.9329 31.9909L8.28503 35.6764L22.5498 50.2658C22.9508 50.6668 23.4091 51.3543 23.3136 51.9081C23.3136 51.9081 23.0654 53.3403 23.0463 53.6267C23.0654 53.7604 22.8171 55.0398 22.8171 55.0398L19.9718 74.5941C20.4301 75.5871 21.5759 75.9118 22.4352 75.4535L42.1614 65.6954C42.677 65.4472 43.269 65.4472 43.7845 65.6954L63.5107 75.4535C64.3128 75.8545 65.4967 75.6444 65.9741 74.5941L63.3007 55.9946C63.2434 55.6509 63.1097 54.9825 63.1097 54.9825L62.9761 54.0468Z" fill="url(#paint1_linear_3172_12820)"/>
<mask height="66" id="mask0_3172_12820" maskUnits="userSpaceOnUse" style="mask-type:alpha" width="70" x="8" y="10">
<path d="M62.9761 54.0468L62.9188 53.6267L62.6323 52.1563C62.5559 51.6025 62.7278 51.0297 63.1288 50.6286L77.68 35.6764L54.8793 31.8C54.3256 31.7045 53.8291 31.3608 53.5808 30.8452L43.3644 11.3481C42.8297 10.2405 42.9634 10.2787 42.276 11.5773L32.2315 31.0361C31.9641 31.5326 31.4867 31.8954 30.9329 31.9909L8.28503 35.6764L22.5498 50.2658C22.9508 50.6668 23.4091 51.3543 23.3136 51.9081C23.3136 51.9081 23.0654 53.3403 23.0463 53.6267C23.0654 53.7604 22.8171 55.0398 22.8171 55.0398L19.9718 74.5941C20.4301 75.5871 21.5759 75.9118 22.4352 75.4535L42.1614 65.6954C42.677 65.4472 43.269 65.4472 43.7845 65.6954L63.5107 75.4535C64.3128 75.8545 65.4967 75.6444 65.9741 74.5941L63.3007 55.9946C63.2434 55.6509 63.1097 54.9825 63.1097 54.9825L62.9761 54.0468Z" fill="url(#paint2_linear_3172_12820)"/>
</mask>
<g mask="url(#mask0_3172_12820)">
<rect fill="white" height="90.678" opacity="0.5" transform="rotate(45 45.7235 -22.1135)" width="45.1934" x="45.7235" y="-22.1135"/>
</g>
<defs>
<linearGradient gradientUnits="userSpaceOnUse" id="paint0_linear_3172_12820" x1="67.8126" x2="8.15965" y1="71.964" y2="20.5356">
<stop stop-color="#C7CAE4"/>
<stop offset="1" stop-color="white"/>
</linearGradient>
<linearGradient gradientUnits="userSpaceOnUse" id="paint1_linear_3172_12820" x1="63.2403" x2="15.5181" y1="66.205" y2="24.083">
<stop stop-color="#BBBEDD"/>
<stop offset="1" stop-color="white"/>
</linearGradient>
<linearGradient gradientUnits="userSpaceOnUse" id="paint2_linear_3172_12820" x1="9.42255" x2="84.0849" y1="10.5576" y2="14.0421">
<stop offset="0.0370422" stop-color="#C6C6C6"/>
<stop offset="1" stop-color="#A6A6A6"/>
</linearGradient>
</defs>
</svg>