<?xml version="1.0" encoding="utf-8"?>
<svg xmlns="http://www.w3.org/2000/svg" fill="none" viewBox="0 0 24 24">
<path d="M13.8571 14.3821C12.5762 13.8276 11.4864 12.8717 11.4864 11.2085V10.6923H7.3569V11.2085C7.3569 13.082 6.22893 14.0571 4.92889 14.5924C2.55824 15.5292 1.06702 17.8616 1.06702 20.4043V21.3602C1.06702 22.4308 1.92734 23.2911 2.99796 23.2911H4.04946V20.9778C4.04946 20.7675 4.18329 20.5764 4.39359 20.5381C4.66124 20.4999 4.87154 20.6911 4.87154 20.9396V23.272H13.9144V20.9587C13.9144 20.7484 14.0483 20.5572 14.2586 20.519C14.5262 20.4808 14.7365 20.672 14.7365 20.9205V23.2529H15.8645C16.9351 23.2529 17.7954 22.3926 17.7954 21.322V20.1749C17.7954 17.6704 16.2277 15.3953 13.8571 14.3821Z" fill="#C84363"/>
<path d="M17.7955 21.3602V20.2131C17.7955 17.6512 16.2278 15.3762 13.8572 14.382C12.9395 13.9806 12.1174 13.3879 11.735 12.4702L9.24967 12.7952C8.79084 14.4967 7.75845 15.7203 5.88487 16.4659C4.79513 16.9056 3.80099 18.0527 3.53333 19.1233C3.26568 20.194 3.26568 22.4881 3.32304 23.3102H4.0304V20.9969C4.0304 20.7866 4.16424 20.5954 4.37454 20.5572C4.64219 20.519 4.85249 20.7102 4.85249 20.9587V23.2911H13.8954V20.9778C13.8954 20.7675 14.0292 20.5763 14.2395 20.5381C14.5072 20.4999 14.7175 20.691 14.7175 20.9396V23.272H15.8454C16.9352 23.2911 17.7955 22.4308 17.7955 21.3602Z" fill="#FF4C77"/>
<path d="M12.1748 13.1967C12.1748 13.1776 11.563 12.6041 11.4865 11.2276V10.7114H7.35697V11.2276C7.31874 12.4894 6.72607 13.2923 6.72607 13.2923C6.72607 13.2923 6.95549 15.2233 9.51732 15.2233C12.0792 15.2233 12.1748 13.1967 12.1748 13.1967Z" fill="#DEB677"/>
<path d="M11.4865 11.2276V11.1511L8.94378 11.6291V12.2982C8.90555 13.9233 8.1217 14.9748 8.1217 14.9748C8.48495 15.1277 8.94378 15.2233 9.51733 15.2233C12.0792 15.2233 12.1748 13.1968 12.1748 13.1968C12.1748 13.1776 11.563 12.6041 11.4865 11.2276Z" fill="#EBC895"/>
<path d="M9.17316 11.9349C6.85986 11.9349 4.96716 10.0422 4.96716 7.72892V4.30676H13.3792V7.72892C13.3792 10.0613 11.5056 11.9349 9.17316 11.9349Z" fill="#FFDFA6"/>
<path clip-rule="evenodd" d="M10.2629 11.782C8.46579 11.304 7.14664 9.65985 7.14664 7.72892V4.30676H4.96716V7.72892C4.96716 10.0422 6.85986 11.9349 9.17316 11.9349C9.55553 11.9349 9.91878 11.8776 10.2629 11.782Z" fill="#F3CC86" fill-rule="evenodd"/>
<path d="M13.7042 5.01414C13.7042 5.35827 13.5704 5.54946 13.5704 5.54946C10.6644 5.66417 7.03195 4.38325 7.03195 4.38325C7.03195 4.38325 4.96719 6.58184 4.79512 6.04653C4.68042 5.74064 4.68042 5.37739 4.68042 5.03326C4.68042 2.52878 6.70695 0.502258 9.21143 0.502258C11.7159 0.502258 13.7616 2.50966 13.7042 5.01414Z" fill="#325778"/>
<path clip-rule="evenodd" d="M6.03838 5.36112C5.48293 5.86625 4.88438 6.32421 4.79512 6.04653C4.68042 5.74065 4.68042 5.37742 4.68042 5.0333V5.03326C4.68042 2.52878 6.70695 0.502258 9.21143 0.502258C10.1164 0.502258 10.9615 0.764377 11.6691 1.21735C11.3148 1.12955 10.9439 1.08298 10.5625 1.08298C8.14286 1.08298 6.16935 2.9745 6.03838 5.36112Z" fill="#234563" fill-rule="evenodd"/>
<path d="M21.5024 16.8704C21.5024 16.8517 21.5024 16.8517 21.5024 16.8704C21.5774 16.7017 21.7274 16.5892 21.8961 16.5704L22.4369 16.5244C22.6299 16.508 22.7786 16.3474 22.7801 16.1537L22.7961 14.1517L21.9149 14.0579C21.7461 14.0392 21.5961 13.9267 21.5211 13.7579C21.4461 13.5892 21.4836 13.4017 21.5961 13.2704L21.9434 12.8282C21.9953 12.7621 22.0235 12.6806 22.0235 12.5966V11.674L21.3336 11.7517L20.5086 10.9079L19.8336 11.4704C19.7024 11.5829 19.5149 11.6017 19.3461 11.5454C19.1774 11.4704 19.0649 11.3204 19.0649 11.1517L18.9899 10.2704L17.7524 10.2517L16.6461 10.2329L16.5524 11.1142C16.5336 11.2829 16.4211 11.4329 16.2524 11.5079C16.0836 11.5829 15.8961 11.5454 15.7649 11.4329L15.0899 10.8704L14.1711 11.7704L13.5713 11.6118V12.5757C13.5713 12.6577 13.5982 12.7373 13.6477 12.8026L13.9461 13.1954C14.0586 13.3267 14.0774 13.5142 14.0211 13.6829C13.9461 13.8517 13.7961 13.9642 13.6274 13.9642L12.7827 14.0392L12.7666 16.0445C12.7651 16.2368 12.9092 16.399 13.1002 16.4202L13.6086 16.4767C13.7774 16.4954 13.9274 16.6079 14.0024 16.7767C14.0399 16.8892 14.0399 17.0204 14.0024 17.1329L13.5331 16.9601V17.9483C13.5331 18.0458 13.5711 18.1395 13.639 18.2094L14.754 19.3584C14.8906 19.4992 15.1125 19.5109 15.2632 19.3854L15.6711 19.0454C15.8024 18.9329 15.9899 18.9142 16.1586 18.9704C16.3274 19.0454 16.4399 19.1954 16.4399 19.3642L16.4861 19.9074C16.5025 20.0993 16.6615 20.2476 16.8541 20.2505L17.7524 20.2642L18.5165 20.2771C18.7103 20.2804 18.8747 20.1354 18.8956 19.9427L18.9524 19.4204C18.9711 19.2517 19.0836 19.0829 19.2524 19.0267C19.4211 18.9517 19.6086 18.9892 19.7399 19.1017L20.1525 19.4455C20.3012 19.5694 20.5198 19.5598 20.657 19.4233L21.8393 18.2476C21.9101 18.1772 21.9499 18.0815 21.9499 17.9817V17.1094L21.4461 17.1704C21.4461 17.0579 21.4461 16.9642 21.5024 16.8704ZM17.7711 17.6017C17.7524 17.6017 17.7524 17.6017 17.7524 17.6017C16.4586 17.5829 15.4274 16.5329 15.4274 15.2392C15.4461 13.9454 16.4961 12.9329 17.7711 12.9329C17.7899 12.9329 17.7899 12.9329 17.8086 12.9329C19.1024 12.9517 20.1336 14.0017 20.1149 15.2954C20.1149 16.5892 19.0649 17.6017 17.7711 17.6017Z" fill="#294E90"/>
<path d="M22.4506 15.5979C22.6375 15.575 22.7785 15.417 22.78 15.2287L22.7934 13.5541C22.795 13.3612 22.6499 13.1986 22.4581 13.1782L21.9149 13.1204C21.7461 13.1016 21.5961 12.9891 21.5211 12.8204C21.4461 12.6516 21.4836 12.4641 21.5961 12.3329L21.9419 11.918C22.065 11.7702 22.0564 11.5533 21.922 11.4158L20.7695 10.2368C20.6328 10.097 20.4115 10.0857 20.2613 10.2109L19.8524 10.5516C19.7211 10.6641 19.5336 10.6829 19.3649 10.6266C19.1961 10.5516 19.0836 10.4016 19.0836 10.2329L19.0374 9.68966C19.0211 9.49775 18.862 9.34942 18.6694 9.3465L17.7711 9.33289V11.9954C17.7899 11.9954 17.7899 11.9954 17.8086 11.9954C19.1024 12.0141 20.1336 13.0641 20.1149 14.3579C20.0961 15.6516 19.0461 16.6641 17.7711 16.6641V19.3454L18.5352 19.3583C18.729 19.3616 18.8934 19.2166 18.9144 19.0239L18.9711 18.5016C18.9899 18.3329 19.1024 18.1641 19.2711 18.1079C19.4399 18.0329 19.6274 18.0704 19.7586 18.1829L20.1735 18.5286C20.3213 18.6518 20.5382 18.6432 20.6757 18.5087L21.8547 17.3563C21.9945 17.2195 22.0058 16.9983 21.8806 16.848L21.5399 16.4391C21.4274 16.3079 21.4086 16.1204 21.4649 15.9516C21.5399 15.7829 21.6899 15.6704 21.8586 15.6704L22.4506 15.5979Z" fill="#4D7ED5"/>
<path d="M17.7524 16.6641C16.4586 16.6454 15.4274 15.5954 15.4274 14.3016C15.4461 13.0079 16.4961 11.9954 17.7711 11.9954V9.33287L17.0078 9.31994C16.8137 9.31665 16.6491 9.46212 16.6286 9.65522L16.5711 10.1954C16.5524 10.3641 16.4399 10.5141 16.2711 10.5891C16.1024 10.6641 15.9149 10.6266 15.7836 10.5141L15.3687 10.1684C15.221 10.0453 15.004 10.0539 14.8665 10.1883L13.6835 11.3447C13.5453 11.4798 13.5324 11.6977 13.6536 11.8482L13.9836 12.2579C14.0961 12.3891 14.1149 12.5766 14.0586 12.7454C13.9836 12.9141 13.8336 13.0266 13.6649 13.0266L13.1241 13.0727C12.9311 13.0891 12.7824 13.2497 12.7809 13.4433L12.7676 15.1054C12.766 15.2983 12.9111 15.4609 13.1029 15.4813L13.6461 15.5391C13.8149 15.5579 13.9649 15.6704 14.0399 15.8391C14.1149 16.0079 14.0774 16.1954 13.9649 16.3266L13.6191 16.7415C13.496 16.8893 13.5046 17.1062 13.639 17.2437L14.7915 18.4227C14.9282 18.5625 15.1495 18.5738 15.2997 18.4486L15.7086 18.1079C15.8399 17.9954 16.0274 17.9766 16.1961 18.0329C16.3649 18.1079 16.4774 18.2579 16.4774 18.4266L16.5236 18.9699C16.5399 19.1618 16.699 19.3101 16.8916 19.313L17.7899 19.3266V16.6641C17.7711 16.6641 17.7524 16.6641 17.7524 16.6641Z" fill="#77A1FF"/>
</svg>