<?xml version="1.0" encoding="utf-8"?>
<svg xmlns="http://www.w3.org/2000/svg" fill="none" height="20" viewBox="0 0 20 20" width="20">
<g clip-path="url(#clip0_752_1063)">
<path clip-rule="evenodd" d="M12.1604 4.70063C12.4035 4.78967 12.6545 4.90222 12.9066 5.04423C15.5254 6.54846 18.9314 10.5229 18.9012 14.6492C18.8406 20.2797 10.6359 20.0175 10.0001 19.9899C9.3492 20.0175 1.1445 20.2797 1.09908 14.6492C1.05367 10.5091 4.45968 6.53466 7.09366 5.04423C7.44398 4.84328 7.79226 4.70018 8.12012 4.59891C8.00619 4.28519 7.76358 3.73278 7.28696 3.04986C6.93837 2.54384 6.55604 2.1615 6.25242 1.89162C5.90382 1.58801 5.91507 1.02576 6.27491 0.744633C6.57853 0.519732 6.98335 0.294832 7.47813 0.238607C8.29151 0.141001 8.76225 0.340862 9.19973 0.526607C9.51827 0.661852 9.81919 0.789613 10.2219 0.789613C10.6588 0.789613 10.949 0.577897 11.2304 0.372579C11.5573 0.13401 11.8724 -0.0959216 12.3922 0.0249519C13.5729 0.306077 13.1048 1.94306 13.1048 1.94306C13.1048 1.94306 13.5494 1.77644 14.0452 1.64423C14.201 1.60269 14.3472 1.58033 14.4838 1.55944C14.4951 1.55771 14.5063 1.55599 14.5175 1.55427C14.8549 1.50929 15.0123 1.95909 14.7199 2.12777C14.3376 2.35267 13.899 2.65629 13.5055 3.00488C12.7873 3.63754 12.3357 4.3807 12.1604 4.70063Z" fill="url(#paint0_linear_752_1063)" fill-rule="evenodd" opacity="0.3"/>
<path clip-rule="evenodd" d="M9.95422 18.0129C12.8657 18.0129 15.2258 15.6528 15.2258 12.7413C15.2258 9.82991 12.8657 7.46973 9.95422 7.46973C7.0428 7.46973 4.68262 9.82991 4.68262 12.7413C4.68262 15.6528 7.0428 18.0129 9.95422 18.0129ZM10.8035 12.0908C11.4606 12.2197 11.9502 12.4516 12.2466 12.7608C12.5429 13.07 12.6975 13.5081 12.6975 14.0621C12.6975 14.526 12.5944 14.9254 12.3625 15.2733C12.1435 15.6211 11.8214 15.8788 11.4091 16.0721C11.1514 16.1881 10.855 16.2782 10.5329 16.3169V16.6648C10.5329 16.9096 10.3268 17.1157 10.082 17.1157C9.83719 17.1157 9.63104 16.9096 9.63104 16.6648V16.3169C9.23162 16.2911 8.87086 16.2009 8.56164 16.0592C8.16222 15.8788 7.853 15.6211 7.63396 15.2862C7.41493 14.9512 7.31186 14.5646 7.31186 14.1137H8.87086C8.87086 14.3971 8.97394 14.6033 9.15432 14.7579C9.28316 14.8481 9.43777 14.9125 9.63104 14.9512C9.7341 14.964 9.8372 14.9769 9.96603 14.9769C10.1722 14.9769 10.3654 14.964 10.5201 14.9125C10.636 14.8739 10.752 14.8352 10.8422 14.7708C11.0612 14.6162 11.1643 14.4358 11.1643 14.191C11.1643 13.8045 10.9452 13.5597 10.5072 13.4566C10.4943 13.4566 10.4846 13.4534 10.475 13.4501C10.4653 13.4469 10.4556 13.4437 10.4428 13.4437L9.60527 13.2762L9.34758 13.2247C8.70336 13.0958 8.21376 12.851 7.89165 12.4903C7.56954 12.1295 7.40205 11.6657 7.40205 11.0987C7.40205 10.6736 7.50512 10.287 7.73704 9.95204C7.96896 9.61704 8.27818 9.35936 8.67759 9.16609C8.96105 9.03725 9.27028 8.94706 9.60527 8.90841V8.54764C9.60527 8.30284 9.81142 8.09669 10.0562 8.09669C10.301 8.09669 10.5072 8.30284 10.5072 8.54764V8.90841C10.8422 8.94706 11.1385 9.02436 11.3962 9.15321C11.7827 9.33359 12.0662 9.59128 12.2723 9.92627C12.4785 10.2484 12.5815 10.6478 12.5815 11.0987H11.0612C11.0612 10.8153 10.971 10.6091 10.7906 10.4545C10.7004 10.3901 10.6102 10.3386 10.5072 10.2999C10.3654 10.2484 10.2108 10.2226 10.0304 10.2226C9.87584 10.2226 9.747 10.2484 9.61816 10.2741C9.47643 10.3128 9.34758 10.3643 9.24451 10.4416C9.05124 10.5834 8.94817 10.7895 8.94817 11.0472C8.94817 11.2662 9.01259 11.4466 9.12855 11.5755C9.23162 11.6914 9.39912 11.7687 9.61815 11.8331C9.63748 11.8396 9.65358 11.8428 9.66969 11.846C9.68579 11.8493 9.7019 11.8525 9.72123 11.8589L10.5201 12.0264L10.8035 12.0908Z" fill="#80D474" fill-rule="evenodd"/>
<path d="M7.45801 4.70837C7.45801 4.35173 7.74712 4.06262 8.10376 4.06262H12.2395C12.5961 4.06262 12.8853 4.35173 12.8853 4.70837C12.8853 5.06501 12.5961 5.35412 12.2395 5.35412H8.10376C7.74712 5.35412 7.45801 5.06501 7.45801 4.70837Z" fill="#80D474"/>
</g>
<defs>
<linearGradient gradientUnits="userSpaceOnUse" id="paint0_linear_752_1063" x1="-7.549" x2="33.8078" y1="-10.6703" y2="22.7553">
<stop stop-color="#C9ECC4"/>
<stop offset="0.997776" stop-color="#A6E09E"/>
</linearGradient>
<clipPath id="clip0_752_1063">
<rect fill="white" height="20" width="20"/>
</clipPath>
</defs>
</svg>