<?xml version="1.0" encoding="utf-8"?>
<svg xmlns="http://www.w3.org/2000/svg" fill="none" height="40" viewBox="0 0 32 40" width="32">
<path d="M8.84675 27.6233C8.88342 27.3734 8.90176 27.1234 8.90176 26.8735C8.90176 25.6052 8.47088 24.4388 7.74664 23.5131C7.7283 23.4946 7.70997 23.4761 7.7008 23.4576V23.4391C7.39827 23.078 7.22408 22.6152 7.22408 22.106C7.22408 21.671 7.3616 21.2636 7.59079 20.9304C7.59079 20.9304 7.59079 20.9304 7.59079 20.9211C6.07813 17.7089 5.23471 14.1171 5.23471 10.3217C5.23471 6.63737 6.03229 3.13817 7.46244 0C4.11626 2.24023 1.91603 6.07268 1.91603 10.4328C1.91603 11.2196 1.98937 11.988 2.12689 12.7378C1.48515 12.4046 0.77008 12.2102 0 12.2009C1.26513 13.5802 2.03521 15.4316 2.03521 17.459C2.03521 18.6439 1.76935 19.764 1.29263 20.7638C1.62267 20.9396 1.85186 21.2822 1.85186 21.6895C1.85186 21.9672 1.74185 22.2079 1.57683 22.393C0.705907 23.3558 0.165016 24.6425 0.165016 26.0588C0.165016 28.188 1.38431 30.0301 3.15366 30.9281C3.46536 33.5386 5.20721 35.7048 7.56329 36.6027C6.87572 35.5196 6.48151 34.2421 6.48151 32.8628C6.48151 32.3167 6.54568 31.789 6.66486 31.2706C7.82915 30.4189 8.6359 29.1229 8.84675 27.6233ZM6.16981 27.901C6.13314 27.9936 6.10563 28.0954 6.06896 28.188C5.61058 29.5117 5.36306 30.9373 5.36306 32.4185C5.36306 32.7517 5.38139 33.085 5.4089 33.409C4.34545 31.789 3.63955 29.9191 3.39202 27.901C3.37368 27.7807 3.36452 27.6603 3.35535 27.5307C3.37368 26.7439 4.00625 26.1144 4.7855 26.1144C5.58308 26.1144 6.22481 26.7624 6.22481 27.5678C6.20648 27.6788 6.19731 27.7899 6.16981 27.901Z" fill="url(#paint0_linear_535_22206)"/>
<path d="M21.9928 31.5481V31.5388C21.9836 31.4555 21.9836 31.3815 21.9744 31.2981C21.9561 31.0852 21.9378 30.8723 21.9194 30.6687C21.9102 30.5761 21.9011 30.4835 21.8827 30.3909C21.8552 30.1688 21.8186 29.9466 21.7819 29.7244C21.7727 29.6781 21.7636 29.6226 21.7544 29.5763C21.7086 29.3541 21.6627 29.132 21.6169 28.9191C21.5985 28.8265 21.571 28.7432 21.5527 28.6506C21.5252 28.5303 21.4885 28.4007 21.4519 28.2803C21.4244 28.1692 21.3969 28.0674 21.3602 27.9656C21.3419 27.9008 21.3144 27.836 21.296 27.7712C21.2135 27.5212 21.131 27.2713 21.0393 27.0306C21.021 26.9751 21.0027 26.9195 20.9752 26.8732C20.5718 25.8364 20.0584 24.8459 19.4442 23.9295C18.9674 22.8927 18.7016 21.7448 18.7016 20.5228C18.7016 19.5694 18.8666 18.6436 19.1691 17.792C19.0133 18.0512 18.7383 18.2271 18.4174 18.2271C17.9498 18.2271 17.5648 17.8568 17.5465 17.3847C17.519 17.1625 17.4823 16.9496 17.4364 16.7367C17.4273 16.7089 17.4273 16.6719 17.4181 16.6441C17.3723 16.4404 17.3264 16.2275 17.2714 16.0331C17.2623 16.0054 17.2531 15.9776 17.2439 15.9406C17.1889 15.7276 17.1248 15.524 17.0606 15.3203C17.0606 15.3111 17.0606 15.3111 17.0514 15.3018C16.9781 15.0796 16.8956 14.8667 16.8131 14.6538C16.7397 14.4687 16.6572 14.2835 16.5655 14.0984C16.5564 14.0799 16.5472 14.0521 16.5289 14.0336C16.3638 13.6818 16.1805 13.3486 15.9696 13.0153C15.9513 12.9875 15.9421 12.9598 15.9238 12.9412C15.8138 12.7746 15.7129 12.608 15.5938 12.4506L15.5846 12.4414C15.4746 12.284 15.3554 12.1266 15.2362 11.9785C15.2271 11.96 15.2087 11.9507 15.1995 11.9322C15.0804 11.7841 14.952 11.636 14.8237 11.4879C14.8053 11.4694 14.7962 11.4508 14.7778 11.4323C14.6495 11.2935 14.5211 11.1546 14.3928 11.025C14.3836 11.0158 14.3745 11.0065 14.3745 11.0065C14.2369 10.8676 14.0994 10.738 13.9619 10.6177C13.9344 10.5899 13.9069 10.5714 13.8794 10.5436C13.6044 10.303 13.311 10.0715 13.0177 9.85861C12.981 9.83084 12.9443 9.80307 12.9076 9.78456C12.7518 9.67347 12.5959 9.57164 12.4401 9.47907C12.4218 9.46981 12.4034 9.46056 12.3851 9.44204C12.2384 9.34947 12.0917 9.26616 11.9359 9.18285C11.9084 9.16433 11.8717 9.14582 11.8442 9.13656C11.6792 9.05325 11.5142 8.96993 11.3491 8.88662C11.3125 8.8681 11.285 8.85884 11.2483 8.84033C11.0925 8.76627 10.9366 8.70147 10.7808 8.63667C10.7533 8.62742 10.7349 8.61816 10.7074 8.6089C10.5332 8.5441 10.359 8.4793 10.1849 8.4145C10.1482 8.40524 10.1024 8.38673 10.0657 8.37747C9.88233 8.32193 9.70815 8.26639 9.51562 8.21085C11.6517 10.2196 12.981 13.0894 12.981 16.2646C12.981 16.8755 12.926 17.468 12.8343 18.0512C13.3477 19.2176 13.6319 20.5136 13.6319 21.8744C13.6319 22.8093 13.4944 23.7165 13.2468 24.5775C13.1735 24.8274 13.1185 25.0773 13.0818 25.3365C13.0727 25.4199 13.0635 25.5032 13.0543 25.568C13.0543 25.5957 13.0452 25.6235 13.0452 25.6513C13.0268 25.8642 13.0177 26.0771 13.0177 26.29C13.0177 26.7807 13.0635 27.2528 13.146 27.7156C13.1368 27.7434 13.1277 27.7712 13.1093 27.7989C13.1277 27.7897 13.1368 27.7804 13.1552 27.7619C13.1918 27.9471 13.2285 28.1322 13.2743 28.3173C13.4027 28.8172 13.5769 29.2986 13.7877 29.7522C14.1361 30.502 14.6128 31.1963 15.1629 31.798C16.153 32.1776 17.0147 32.8163 17.6473 33.6495C17.6473 33.6495 17.6565 33.6495 17.6565 33.6587C17.6748 33.6772 17.684 33.705 17.7023 33.7328C17.8857 33.9827 18.0507 34.2419 18.1974 34.5196C18.7841 35.5101 19.2516 36.5654 19.6092 37.6856C19.8292 38.3798 19.9942 39.1019 20.1134 39.8332C20.1226 39.8888 20.1317 39.9443 20.1409 39.9998C20.1684 39.8888 20.1867 39.7684 20.2051 39.6573C21.0577 38.0558 21.6352 36.2785 21.8736 34.39C21.9011 34.1401 21.9286 33.8901 21.9469 33.6309C21.9561 33.5476 21.9561 33.4643 21.9653 33.381C21.9744 33.2884 21.9744 33.1959 21.9836 33.1033C21.9928 32.8904 22.0019 32.6775 22.0019 32.4645C22.0203 32.1313 22.0111 31.8351 21.9928 31.5481ZM20.5076 34.3622C20.4343 34.8621 20.3426 35.362 20.2234 35.8434C20.1134 35.3065 19.9667 34.7788 19.7742 34.2789C19.1691 32.6682 18.1515 31.2519 16.8589 30.1688C16.758 30.104 16.6755 30.0299 16.5839 29.9559C16.5197 29.9003 16.4647 29.8355 16.4097 29.7707C16.4005 29.7615 16.4005 29.7615 16.3913 29.7522C16.3363 29.6874 16.2905 29.6226 16.2447 29.5578C16.1438 29.4004 16.0613 29.2245 16.0063 29.0394C16.0063 29.0301 15.9971 29.0209 15.9971 29.0116C15.9788 28.9376 15.9605 28.8543 15.9421 28.7802C15.9421 28.7617 15.933 28.7339 15.933 28.7154C15.9238 28.6228 15.9146 28.5303 15.9146 28.4377C15.9146 27.2991 16.8314 26.3733 17.959 26.3733C18.6466 26.3733 19.2608 26.7159 19.6275 27.2435C19.765 27.5768 19.8842 27.9285 19.9942 28.2711C20.0676 28.4932 20.1317 28.7247 20.1867 28.9561C20.1959 29.0024 20.2142 29.0579 20.2234 29.1042C20.2784 29.3356 20.3334 29.5763 20.3793 29.817C20.3793 29.817 20.3793 29.817 20.3793 29.8263C20.4251 30.0762 20.4618 30.3261 20.4984 30.5761C20.4984 30.6039 20.5076 30.6316 20.5076 30.6594C20.5443 30.9186 20.5626 31.1778 20.5809 31.437C20.5901 31.5944 20.5993 31.761 20.6084 31.9184C20.6176 32.085 20.6176 32.2516 20.6176 32.4183C20.6451 33.0848 20.5901 33.7328 20.5076 34.3622Z" fill="url(#paint1_linear_535_22206)"/>
<path clip-rule="evenodd" d="M31.6008 23.8464C31.6008 22.8837 31.2982 21.995 30.8032 21.2544C29.9414 20.5879 29.3822 19.5418 29.3822 18.3569C29.3822 17.8478 29.483 17.3664 29.6664 16.9313C28.1629 16.5333 27.0536 15.1539 27.0536 13.5154C27.0536 13.4877 27.0536 13.4691 27.0536 13.4414C26.7419 13.3858 26.4852 13.1822 26.3569 12.9045C24.3858 9.56263 21.3789 6.91509 17.7852 5.41544C19.8937 8.01669 21.4247 11.1086 22.1856 14.5059C22.314 15.0614 22.4148 15.6261 22.4973 16.1907C23.2949 17.0146 23.7808 18.144 23.7808 19.3845C23.7808 19.7733 23.7258 20.1435 23.6433 20.5046C24.4317 21.3285 24.9267 22.4578 24.9267 23.6983C24.9267 24.3 24.8076 24.8739 24.6059 25.4016C25.1376 25.7811 25.6418 26.1885 26.1277 26.6328C26.2652 26.7809 26.4027 26.9198 26.5586 27.0494C26.9986 27.4937 27.4203 27.9658 27.7962 28.4657C28.9972 30.0302 29.9047 31.8538 30.409 33.8348C31.0965 32.1223 31.4816 30.2431 31.4816 28.2806C31.4816 27.3826 31.3991 26.5032 31.2432 25.6423C31.4724 25.0869 31.6008 24.4851 31.6008 23.8464ZM30.1064 29.7432C29.5747 28.0677 28.5479 26.5587 27.1086 25.4479C27.0903 25.4386 27.0811 25.4201 27.0628 25.4109C26.7328 25.1702 26.5219 24.7906 26.5219 24.3463C26.5219 23.6242 27.1086 23.0318 27.8237 23.0318C28.2454 23.0318 28.6121 23.2354 28.8505 23.5502C28.8871 23.6057 28.9146 23.652 28.9513 23.6983C30.0331 25.4942 30.464 27.6418 30.1064 29.7432Z" fill="url(#paint2_linear_535_22206)" fill-rule="evenodd"/>
<defs>
<linearGradient gradientUnits="userSpaceOnUse" id="paint0_linear_535_22206" x1="7.99347" x2="-13.609" y1="36.6027" y2="29.2196">
<stop stop-color="#00C37A"/>
<stop offset="1" stop-color="#27D84A"/>
</linearGradient>
<linearGradient gradientUnits="userSpaceOnUse" id="paint1_linear_535_22206" x1="20.7369" x2="-5.21183" y1="39.9999" y2="25.6649">
<stop stop-color="#00C37A"/>
<stop offset="1" stop-color="#27D84A"/>
</linearGradient>
<linearGradient gradientUnits="userSpaceOnUse" id="paint2_linear_535_22206" x1="30.1911" x2="4.6625" y1="33.8349" y2="16.3944">
<stop stop-color="#00C37A"/>
<stop offset="1" stop-color="#27D84A"/>
</linearGradient>
</defs>
</svg>