<?xml version="1.0" encoding="utf-8"?>
<svg xmlns="http://www.w3.org/2000/svg" fill="none" height="86" viewBox="0 0 86 86" width="86">
<path d="M64.2162 83.8176C63.0028 83.8176 61.7893 83.5336 60.6792 82.9914L42.8647 74.1616L25.0502 82.9914C23.9401 83.5336 22.7266 83.8176 21.5132 83.8176C19.1895 83.8176 16.995 82.8107 15.4718 81.0551C13.9485 79.2994 13.2772 76.9758 13.6128 74.7038L16.5045 55.0305L2.61436 40.8047C0.548919 38.6876 -0.173999 35.5895 0.729632 32.7753C1.65908 29.9611 4.03435 27.8699 6.9776 27.3793L26.5735 24.0488L35.7906 6.44089C37.1589 3.80745 39.8698 2.18091 42.8389 2.18091C45.808 2.18091 48.5189 3.80745 49.8872 6.44089L59.1043 24.0488L78.7001 27.3793C81.6434 27.8699 84.0187 29.9353 84.9481 32.7753C85.8776 35.6153 85.1547 38.6876 83.0634 40.8047L69.1733 55.0305L72.0649 74.7038C72.4006 77.0016 71.7293 79.3252 70.206 81.0551C68.7344 82.8107 66.514 83.8176 64.2162 83.8176Z" fill="url(#paint0_linear_3173_12939)"/>
<path d="M41.2381 9.3068C41.9093 8.0159 43.7682 8.0159 44.4653 9.3068L54.6893 28.7994C54.9475 29.29 55.438 29.6514 56.006 29.7547L77.719 33.4467C79.1648 33.7049 79.7328 35.4605 78.7259 36.519L63.3383 52.268C62.951 52.6811 62.7445 53.2491 62.8478 53.7913L66.0492 75.5817C66.2558 77.0276 64.7583 78.1377 63.4416 77.4665L43.7166 67.7072C43.2002 67.4491 42.6064 67.4491 42.0901 67.7072L22.3651 77.4665C21.0484 78.1119 19.5509 77.0276 19.7575 75.5817L22.9589 53.7913C23.0364 53.2233 22.8556 52.6553 22.4683 52.268L7.0808 36.519C6.04807 35.4605 6.64188 33.7049 8.08769 33.4467L29.8007 29.7547C30.3687 29.6514 30.8334 29.3158 31.1174 28.7994L41.2381 9.3068Z" fill="#FFB6E0"/>
<path d="M78.9324 34.2212C78.6743 33.834 78.2612 33.5241 77.719 33.4467L56.006 29.7547C55.438 29.6514 54.9733 29.3158 54.6893 28.7994L44.4653 9.3068C43.7941 8.0159 41.9352 8.0159 41.2381 9.3068L31.0142 28.7994C30.756 29.29 30.2654 29.6514 29.6974 29.7547L7.98445 33.4467C7.44227 33.55 7.02918 33.834 6.771 34.2212C6.82263 34.3245 6.90008 34.4019 6.97754 34.4794L22.3651 50.2284C22.7524 50.6415 23.2946 51.416 23.2171 51.984L23.0622 52.9651C23.2171 53.2749 22.9073 53.4299 22.8556 53.7655L19.8091 74.5748C20.2222 75.4527 21.3066 75.9432 22.2618 75.4527L41.9868 65.6934C42.5032 65.4352 43.097 65.4352 43.6134 65.6934L63.3383 75.4527C64.3194 75.9432 65.4038 75.4527 65.7911 74.5748L62.7445 53.7655C62.6929 53.404 62.3831 53.404 62.538 53.0942L62.3831 52.1131C62.3056 51.5451 62.4864 50.9771 62.8736 50.5899L78.6226 34.4794C78.7775 34.4019 78.855 34.3245 78.9324 34.2212Z" fill="#DD4E83" opacity="0.8"/>
<path d="M62.8478 54.0495L62.7962 53.6364L62.5122 52.1647C62.4348 51.5967 62.6155 51.0287 63.0028 50.6415L77.5641 35.6928L54.741 31.8201C54.173 31.7168 53.7083 31.3812 53.4243 30.8648L43.2261 11.3206C42.684 10.2104 42.8389 10.262 42.1418 11.5529L32.0986 31.0197C31.8404 31.5103 31.3498 31.8717 30.7818 31.975L8.1394 35.667L22.391 50.2542C22.7782 50.6673 23.243 51.3386 23.1655 51.9066C23.1655 51.9066 22.9332 53.3266 22.9073 53.6364C22.9073 53.7655 22.675 55.0564 22.675 55.0564L19.835 74.6264C20.2997 75.6075 21.4357 75.9432 22.3135 75.4784L42.0385 65.7192C42.5549 65.461 43.1487 65.461 43.6651 65.7192L63.39 75.4784C64.1904 75.8915 65.378 75.685 65.8686 74.6264L63.1835 56.0374C63.1319 55.676 63.0028 55.0305 63.0028 55.0305L62.8478 54.0495Z" fill="#B7B7B7"/>
<path d="M42.684 10.4685V45.8909L31.6597 31.6135L42.684 10.4685Z" fill="#FFB6E0"/>
<path d="M42.684 10.4944V45.9168L53.889 31.407L53.5534 31.0714L42.684 10.4944Z" fill="#F7DEF0"/>
<path d="M8.11365 35.6411L42.684 45.8651L23.243 51.6483L8.11365 35.6411Z" fill="#F7DEF0"/>
<path d="M8.11365 35.6411L42.684 45.865L31.6339 31.5876L8.11365 35.6411Z" fill="#FFB6E0"/>
<path d="M77.5383 35.6411L42.684 45.8909L62.4606 51.9323L77.5383 35.6411Z" fill="#F7DEF0"/>
<path d="M77.5641 35.6411L42.684 45.9167L53.889 31.3811L54.2246 31.6135L77.5641 35.6411Z" fill="#EE84B8"/>
<path d="M20.7386 75.5041L42.6839 45.865L23.1913 51.6224L19.835 74.6005C19.835 74.6005 19.9124 74.9103 20.1964 75.1427C20.4804 75.375 20.7386 75.5041 20.7386 75.5041Z" fill="#FFB6E0"/>
<path d="M20.7128 75.5299L42.6839 45.865V65.5125L21.8229 76.1238C21.8229 76.1238 21.5131 76.1237 21.2033 75.943C20.8935 75.7365 20.7128 75.5299 20.7128 75.5299Z" fill="#F2629F"/>
<path d="M65.094 75.4525L42.6581 45.8909L62.4864 51.9323L63.0543 55.0821L65.8943 74.6005C65.8943 74.6005 65.7911 74.8587 65.5845 75.0911C65.3263 75.3234 65.094 75.4525 65.094 75.4525Z" fill="#F2629F"/>
<path d="M65.094 75.4267L42.684 45.865V65.5383C42.684 65.5383 42.7614 65.4093 43.3552 65.6674C43.9232 65.8998 63.3642 75.4783 63.3642 75.4783C63.3642 75.4783 63.7515 75.6848 64.2937 75.659C64.8359 75.659 65.094 75.4267 65.094 75.4267Z" fill="#EE84B8"/>
<path d="M65.094 21.6782L66.4319 30.0432L74.7969 31.3811L66.4319 32.719L65.094 41.084L63.7561 32.719L55.3911 31.3811L63.7561 30.0432L65.094 21.6782Z" fill="#F0F2F5"/>
<defs>
<linearGradient gradientUnits="userSpaceOnUse" id="paint0_linear_3173_12939" x1="67.66" x2="8.00619" y1="71.9637" y2="20.5341">
<stop stop-color="#DA457A"/>
<stop offset="1" stop-color="#EE84B8"/>
</linearGradient>
</defs>
</svg>