<?xml version="1.0" encoding="utf-8"?>
<svg xmlns="http://www.w3.org/2000/svg" fill="none" height="33" viewBox="0 0 32 33" width="32">
<path clip-rule="evenodd" d="M8.57346 9.0186C14.9456 2.62635 23.0425 3.18023 26.1053 3.69065L26.1054 3.69065C27.4572 3.91597 28.4988 4.98689 28.6961 6.33556C29.1899 9.63671 29.6211 17.7494 23.3829 23.9473L23.3819 23.9483C16.8823 30.3872 9.00556 29.559 5.87012 28.8999L5.86214 28.8983L5.85419 28.8965C4.63277 28.6188 3.67698 27.667 3.42543 26.4091L3.42472 26.4056C2.80405 23.242 2.14152 15.4513 8.57346 9.0186ZM9.98937 10.4311C14.0651 6.34219 18.9546 5.42242 22.4426 5.4041C20.0725 6.01439 17.2146 7.08322 14.4722 8.96719L14.222 8.64471C13.8834 8.20839 13.2552 8.12917 12.8189 8.46776C12.3826 8.80635 12.3033 9.43454 12.6419 9.87086L12.8762 10.1727C12.6067 10.3962 12.3396 10.6287 12.0755 10.8705L11.8057 10.6047C11.4122 10.2171 10.7791 10.2218 10.3915 10.6153C10.0039 11.0087 10.0087 11.6419 10.4021 12.0295L10.6648 12.2883L10.6107 12.3482C10.3873 12.5961 10.1715 12.845 9.96307 13.0946L9.72977 12.9C9.30566 12.5462 8.67507 12.6032 8.3213 13.0273C7.96754 13.4514 8.02456 14.082 8.44867 14.4358L8.74101 14.6797C6.8471 17.3455 5.72057 20.0171 5.04651 22.3096C5.07315 18.9246 6.03108 14.3896 9.98824 10.4322L9.98937 10.4311ZM14.1032 11.7539C13.9013 11.9225 13.701 12.0965 13.5025 12.2763L14.1181 12.8826C14.5115 13.2702 14.5163 13.9034 14.1287 14.2968C13.7411 14.6903 13.1079 14.695 12.7145 14.3074L12.091 13.6932C11.8868 13.9198 11.6895 14.1474 11.4989 14.3757L12.1396 14.9101C12.5637 15.2639 12.6207 15.8945 12.2669 16.3186C11.9132 16.7427 11.2826 16.7997 10.8585 16.4459L10.282 15.9651C7.29403 20.2312 6.42078 24.4967 6.14655 26.9019C6.19311 26.9188 6.24117 26.9331 6.29056 26.9446C9.18733 27.5519 16.1958 28.2518 21.9739 22.5279C27.4993 17.0377 27.1857 9.79035 26.7226 6.66151C24.5361 6.88458 19.9598 7.66016 15.7009 10.5505L16.0999 11.0647C16.4385 11.501 16.3593 12.1292 15.9229 12.4678C15.4866 12.8063 14.8584 12.7271 14.5198 12.2908L14.1032 11.7539Z" fill="#FF955A" fill-rule="evenodd" opacity="0.3"/>
<path clip-rule="evenodd" d="M27.8299 16.3191L27.0732 16.0983C27.0572 16.0932 27.0411 16.088 27.0251 16.0828C27.4369 14.7793 27.683 13.5001 27.8171 12.3002C27.9457 12.3462 28.0752 12.3902 28.2056 12.4322L28.631 12.5551C28.4885 13.7517 28.2378 15.023 27.8299 16.3191ZM16.0384 28.2773L15.7608 27.4853C14.4437 27.9087 13.1601 28.1453 11.9616 28.2579C11.9901 28.3372 12.0178 28.4169 12.0448 28.497L12.2442 29.0716C13.4455 28.9464 14.7259 28.7006 16.0384 28.2773ZM3.32568 20.2818L3.86842 20.4354C7.62657 21.638 10.6305 24.5517 11.9616 28.2577C13.1601 28.1451 14.4437 27.9085 15.7607 27.4851L15.6915 27.2877C14.0025 22.2972 10.0295 18.3816 5.02002 16.7885L4.11913 16.5287C3.70021 17.8292 3.45412 19.0957 3.32568 20.2818ZM16.0978 4.56452L16.3057 5.23437C17.8938 10.3815 21.9042 14.4224 27.0251 16.0828C27.4369 14.7793 27.683 13.5 27.8171 12.3002C24.0681 10.9583 21.1401 7.92486 19.9525 4.10191L19.8427 3.73389C18.6564 3.88208 17.3917 4.14207 16.0978 4.56452Z" fill="#FF955A" fill-rule="evenodd"/>
</svg>