<?xml version="1.0" encoding="utf-8"?>
<svg xmlns="http://www.w3.org/2000/svg" fill="none" height="86" viewBox="0 0 86 86" width="86">
<path d="M64.2144 83.8176C63.001 83.8176 61.7875 83.5336 60.6773 82.9914L42.8629 74.1616L25.0484 82.9914C23.9382 83.5336 22.7248 83.8176 21.5113 83.8176C19.1877 83.8176 16.9932 82.8107 15.4699 81.0551C13.9467 79.2994 13.2754 76.9758 13.611 74.7038L16.5026 55.0305L2.61253 40.8047C0.547088 38.6876 -0.17583 35.5895 0.727801 32.7753C1.65725 29.9611 4.03252 27.8699 6.97577 27.3793L26.5717 24.0488L35.7887 6.44089C37.1571 3.80745 39.868 2.18091 42.8371 2.18091C45.8061 2.18091 48.517 3.80745 49.8854 6.44089L59.1024 24.0488L78.6983 27.3793C81.6416 27.8699 84.0169 29.9353 84.9463 32.7753C85.8758 35.6153 85.1528 38.6876 83.0616 40.8047L69.1714 55.0305L72.0631 74.7038C72.3987 77.0016 71.7274 79.3252 70.2042 81.0551C68.7325 82.8107 66.5122 83.8176 64.2144 83.8176Z" fill="url(#paint0_linear_3173_12959)"/>
<path d="M41.2363 9.3068C41.9076 8.0159 43.7665 8.0159 44.4636 9.3068L54.6875 28.7994C54.9457 29.29 55.4362 29.6514 56.0042 29.7547L77.7172 33.4467C79.163 33.7049 79.731 35.4605 78.7241 36.519L63.3365 52.268C62.9493 52.6811 62.7427 53.2491 62.846 53.7913L66.0474 75.5817C66.254 77.0276 64.7565 78.1377 63.4398 77.4665L43.7148 67.7072C43.1985 67.4491 42.6047 67.4491 42.0883 67.7072L22.3633 77.4665C21.0466 78.1119 19.5491 77.0276 19.7557 75.5817L22.9571 53.7913C23.0346 53.2233 22.8538 52.6553 22.4666 52.268L7.07903 36.519C6.0463 35.4605 6.64011 33.7049 8.08592 33.4467L29.7989 29.7547C30.3669 29.6514 30.8316 29.3158 31.1156 28.7994L41.2363 9.3068Z" fill="#4972EF"/>
<path d="M78.9307 34.2212C78.6725 33.834 78.2594 33.5241 77.7172 33.4467L56.0042 29.7547C55.4363 29.6514 54.9715 29.3158 54.6875 28.7994L44.4636 9.3068C43.7923 8.0159 41.9334 8.0159 41.2363 9.3068L31.0124 28.7994C30.7542 29.29 30.2636 29.6514 29.6957 29.7547L7.98268 33.4467C7.4405 33.55 7.02741 33.834 6.76923 34.2212C6.82086 34.3245 6.89831 34.4019 6.97577 34.4794L22.3633 50.2284C22.7506 50.6415 23.2928 51.416 23.2153 51.984L23.0604 52.9651C23.2153 53.2749 22.9055 53.4299 22.8539 53.7655L19.8073 74.5748C20.2204 75.4527 21.3048 75.9432 22.2601 75.4527L41.9851 65.6934C42.5014 65.4352 43.0952 65.4352 43.6116 65.6934L63.3366 75.4527C64.3177 75.9432 65.402 75.4527 65.7893 74.5748L62.7428 53.7655C62.6911 53.404 62.3813 53.404 62.5362 53.0942L62.3813 52.1131C62.3039 51.5451 62.4846 50.9771 62.8719 50.5899L78.6209 34.4794C78.7758 34.4019 78.8532 34.3245 78.9307 34.2212Z" fill="#2350D9" opacity="0.8"/>
<path d="M62.846 54.0495L62.7944 53.6364L62.5104 52.1647C62.4329 51.5967 62.6137 51.0287 63.0009 50.6415L77.5623 35.6928L54.7392 31.8201C54.1712 31.7168 53.7064 31.3812 53.4224 30.8648L43.2243 11.3206C42.6821 10.2104 42.837 10.262 42.1399 11.5529L32.0967 31.0197C31.8385 31.5103 31.348 31.8717 30.78 31.975L8.13757 35.667L22.3891 50.2542C22.7764 50.6673 23.2411 51.3386 23.1637 51.9066C23.1637 51.9066 22.9313 53.3266 22.9055 53.6364C22.9055 53.7655 22.6731 55.0564 22.6731 55.0564L19.8331 74.6264C20.2979 75.6075 21.4339 75.9432 22.3117 75.4784L42.0367 65.7192C42.553 65.461 43.1469 65.461 43.6632 65.7192L63.3882 75.4784C64.1886 75.8915 65.3762 75.685 65.8667 74.6264L63.1817 56.0374C63.13 55.676 63.0009 55.0305 63.0009 55.0305L62.846 54.0495Z" fill="#B7B7B7"/>
<path d="M42.6822 10.4685V45.8909L31.6579 31.6135L42.6822 10.4685Z" fill="#446BEB"/>
<path d="M42.6821 10.4944V45.9168L53.8871 31.407L53.5515 31.0714L42.6821 10.4944Z" fill="#6CC2F2"/>
<path d="M8.11176 35.6411L42.6821 45.8651L23.2411 51.6483L8.11176 35.6411Z" fill="#6CC2F2"/>
<path d="M8.11176 35.6411L42.6821 45.865L31.632 31.5876L8.11176 35.6411Z" fill="#446BEB"/>
<path d="M77.5364 35.6411L42.6821 45.8909L62.4587 51.9323L77.5364 35.6411Z" fill="#6CC2F2"/>
<path d="M77.5622 35.6411L42.6821 45.9167L53.8871 31.3811L54.2227 31.6135L77.5622 35.6411Z" fill="#2350D9"/>
<path d="M20.7368 75.5041L42.6821 45.865L23.1895 51.6224L19.8331 74.6005C19.8331 74.6005 19.9106 74.9103 20.1946 75.1427C20.4786 75.375 20.7368 75.5041 20.7368 75.5041Z" fill="#446BEB"/>
<path d="M20.7109 75.5299L42.6821 45.865V65.5125L21.8211 76.1238C21.8211 76.1238 21.5113 76.1237 21.2015 75.943C20.8917 75.7365 20.7109 75.5299 20.7109 75.5299Z" fill="#1935C1"/>
<path d="M65.0922 75.4525L42.6563 45.8909L62.4846 51.9323L63.0526 55.0821L65.8926 74.6005C65.8926 74.6005 65.7893 74.8587 65.5828 75.0911C65.3246 75.3234 65.0922 75.4525 65.0922 75.4525Z" fill="#1935C1"/>
<path d="M65.0921 75.4267L42.6821 45.865V65.5383C42.6821 65.5383 42.7595 65.4093 43.3533 65.6674C43.9213 65.8998 63.3623 75.4783 63.3623 75.4783C63.3623 75.4783 63.7496 75.6848 64.2918 75.659C64.834 75.659 65.0921 75.4267 65.0921 75.4267Z" fill="#2350D9"/>
<path d="M65.0922 21.6782L66.4301 30.0432L74.795 31.3811L66.4301 32.719L65.0922 41.084L63.7543 32.719L55.3893 31.3811L63.7543 30.0432L65.0922 21.6782Z" fill="#F0F2F5"/>
<defs>
<linearGradient gradientUnits="userSpaceOnUse" id="paint0_linear_3173_12959" x1="67.6582" x2="8.00436" y1="71.9637" y2="20.5341">
<stop stop-color="#3453F7"/>
<stop offset="1" stop-color="#6A92FF"/>
</linearGradient>
</defs>
</svg>