<?xml version="1.0" encoding="utf-8"?>
<svg xmlns="http://www.w3.org/2000/svg" fill="none" height="86" viewBox="0 0 86 86" width="86">
<path d="M64.3548 83.8176C63.1327 83.8176 61.9105 83.5312 60.8221 82.9965L43.0055 74.1741L25.1889 82.9774C24.1004 83.5121 22.8783 83.7985 21.6561 83.7985C19.3455 83.7985 17.1495 82.7865 15.6218 81.0296C14.1132 79.2728 13.4448 76.9622 13.7695 74.6706L16.653 55.0017L2.77016 40.7943C0.688691 38.6746 -0.0178598 35.6002 0.89875 32.774C1.81536 29.9478 4.20236 27.8854 7.14315 27.3889L26.7357 24.0471L35.9591 6.44055C37.334 3.80529 40.0456 2.18213 43.0055 2.18213C45.9845 2.18213 48.677 3.82439 50.0519 6.44055L59.2753 24.0471L78.8678 27.3889C81.7895 27.8854 84.1956 29.9478 85.1122 32.774C86.0288 35.6002 85.3032 38.6746 83.2408 40.7943L69.358 55.0017L72.2415 74.6706C72.5852 76.9622 71.8978 79.2728 70.3892 81.0296C68.8615 82.8055 66.6655 83.8176 64.3548 83.8176Z" fill="url(#paint0_linear_3172_12113)"/>
<path d="M41.3823 9.32375C42.0698 8.02522 43.9221 8.02522 44.6095 9.32375L54.8259 28.8208C55.0933 29.3173 55.5707 29.6801 56.1244 29.7756L77.8175 33.4611C79.2688 33.7094 79.8417 35.4853 78.8105 36.5165L63.4191 52.2516C63.0181 52.6526 62.8462 53.2255 62.9226 53.7793L66.1117 75.5679C66.3217 77.0192 64.8131 78.1076 63.4955 77.4584L43.8075 67.7003C43.2919 67.4521 42.6999 67.4521 42.1843 67.7003L22.4582 77.4584C21.1405 78.1076 19.6319 77.0192 19.842 75.5679L23.031 53.7793C23.1074 53.2255 22.9355 52.6526 22.5345 52.2516L7.14314 36.5165C6.11196 35.4662 6.68484 33.6903 8.13614 33.4611L29.8674 29.7565C30.4212 29.661 30.9177 29.3173 31.1659 28.8017L41.3823 9.32375Z" fill="#EDEDED"/>
<path d="M79.0587 34.2441C78.7914 33.8431 78.3904 33.5566 77.8557 33.4611L56.1626 29.7756C55.6088 29.6801 55.1123 29.3364 54.864 28.8208L44.6477 9.32375C43.9602 8.02522 42.1079 8.02522 41.4204 9.32375L31.2041 28.8208C30.9367 29.3173 30.4593 29.6801 29.9055 29.7756L8.21245 33.4611C7.67776 33.5566 7.25765 33.8621 7.0094 34.2441C7.06669 34.3395 7.14308 34.435 7.21946 34.5114L22.6109 50.2465C23.0119 50.6475 23.5466 51.4305 23.4702 52.0034L23.3174 52.9964C23.4702 53.3019 23.1455 53.4547 23.1073 53.7984L20.052 74.594C20.453 75.4724 21.5415 75.9498 22.5154 75.4724L42.2416 65.7143C42.7572 65.4661 43.3491 65.4661 43.8647 65.7143L63.5909 75.4724C64.5648 75.9498 65.6533 75.4724 66.0543 74.594L62.999 53.7984C62.9417 53.4547 62.6552 53.4356 62.7889 53.13L62.6361 52.137C62.5597 51.5833 62.7316 51.0104 63.1326 50.6094L78.8677 34.5114C78.925 34.435 78.9823 34.3395 79.0587 34.2441Z" fill="#A0A0A0"/>
<path d="M62.98 54.0468L62.9227 53.6267L62.6362 52.1563C62.5598 51.6025 62.7317 51.0297 63.1327 50.6286L77.6839 35.6764L54.8832 31.8C54.3295 31.7045 53.833 31.3608 53.5847 30.8452L43.3683 11.3481C42.8337 10.2405 42.9673 10.2787 42.2799 11.5773L32.2354 31.0361C31.968 31.5326 31.4906 31.8954 30.9368 31.9909L8.28894 35.6764L22.5537 50.2658C22.9547 50.6668 23.413 51.3543 23.3175 51.9081C23.3175 51.9081 23.0693 53.3403 23.0502 53.6267C23.0693 53.7604 22.821 55.0398 22.821 55.0398L19.9757 74.5941C20.434 75.5871 21.5798 75.9118 22.4391 75.4535L42.1653 65.6954C42.6809 65.4472 43.2729 65.4472 43.7885 65.6954L63.5146 75.4535C64.3167 75.8545 65.5006 75.6444 65.978 74.5941L63.3046 55.9946C63.2473 55.6509 63.1136 54.9825 63.1136 54.9825L62.98 54.0468Z" fill="url(#paint1_linear_3172_12113)"/>
<mask height="66" id="mask0_3172_12113" maskUnits="userSpaceOnUse" style="mask-type:alpha" width="70" x="8" y="10">
<path d="M62.98 54.0468L62.9227 53.6267L62.6362 52.1563C62.5598 51.6025 62.7317 51.0297 63.1327 50.6286L77.6839 35.6764L54.8832 31.8C54.3295 31.7045 53.833 31.3608 53.5847 30.8452L43.3683 11.3481C42.8337 10.2405 42.9673 10.2787 42.2799 11.5773L32.2354 31.0361C31.968 31.5326 31.4906 31.8954 30.9368 31.9909L8.28894 35.6764L22.5537 50.2658C22.9547 50.6668 23.413 51.3543 23.3175 51.9081C23.3175 51.9081 23.0693 53.3403 23.0502 53.6267C23.0693 53.7604 22.821 55.0398 22.821 55.0398L19.9757 74.5941C20.434 75.5871 21.5798 75.9118 22.4391 75.4535L42.1653 65.6954C42.6809 65.4472 43.2729 65.4472 43.7885 65.6954L63.5146 75.4535C64.3167 75.8545 65.5006 75.6444 65.978 74.5941L63.3046 55.9946C63.2473 55.6509 63.1136 54.9825 63.1136 54.9825L62.98 54.0468Z" fill="url(#paint2_linear_3172_12113)"/>
</mask>
<g mask="url(#mask0_3172_12113)">
<rect fill="#D9D9D9" height="90.678" opacity="0.5" transform="rotate(45 45.7274 -22.1135)" width="45.1934" x="45.7274" y="-22.1135"/>
</g>
<defs>
<linearGradient gradientUnits="userSpaceOnUse" id="paint0_linear_3172_12113" x1="67.8165" x2="8.16356" y1="71.964" y2="20.5356">
<stop stop-color="#BFBFBF"/>
<stop offset="1" stop-color="#D5D5D5"/>
</linearGradient>
<linearGradient gradientUnits="userSpaceOnUse" id="paint1_linear_3172_12113" x1="9.42645" x2="84.0888" y1="10.5576" y2="14.0421">
<stop offset="0.0370422" stop-color="#C6C6C6"/>
<stop offset="1" stop-color="#A6A6A6"/>
</linearGradient>
<linearGradient gradientUnits="userSpaceOnUse" id="paint2_linear_3172_12113" x1="9.42645" x2="84.0888" y1="10.5576" y2="14.0421">
<stop offset="0.0370422" stop-color="#C6C6C6"/>
<stop offset="1" stop-color="#A6A6A6"/>
</linearGradient>
</defs>
</svg>