<?xml version="1.0" encoding="utf-8"?>
<svg xmlns="http://www.w3.org/2000/svg" fill="none" viewBox="0 0 48 48">
<path d="M39.3918 42.9698H8.42784C7.94809 42.9698 7.28843 42.9468 6.30894 41.9793C4.58983 40.2976 0.332031 32.5573 0.332031 23.3887C0.332031 14.3353 4.88967 7.63166 6.28895 5.85784C7.10852 4.79816 8.10801 4.91334 8.58776 4.91334H39.5118C39.9515 4.91334 41.1109 4.95942 41.8106 5.81177C43.0899 7.37826 47.6675 13.3217 47.6675 23.4117C47.6675 33.64 42.7901 41.2651 41.7706 42.0484C40.7711 42.8086 39.8516 42.9698 39.3918 42.9698Z" fill="#6053D9"/>
<path d="M38.5721 42.9701H9.88692C9.44715 42.9701 8.3877 42.7397 7.94793 41.9795C6.70857 39.8371 2.51074 32.5575 2.51074 23.3889C2.51074 14.3355 6.90847 7.67797 7.92794 5.85808C8.30774 5.19001 9.00738 4.91357 9.44716 4.91357H38.4322C38.832 4.91357 39.6315 4.95965 40.2312 5.812C41.3906 7.4476 45.5685 13.3219 45.5685 23.412C45.5685 33.6402 40.9708 41.0811 40.2112 42.0486C39.4117 42.9701 38.9919 42.9701 38.5721 42.9701Z" fill="#EFE4EF"/>
<path d="M4.82959 35.4365C6.02897 38.6156 7.34828 40.9192 7.96796 41.9789C8.40773 42.7391 9.48718 42.9695 9.90696 42.9695H38.5921C39.0119 42.9695 39.4317 42.9695 40.1913 42.025C40.5911 41.5182 42.1103 39.1224 43.4296 35.4365H4.82959Z" fill="#C9BFFF"/>
<path d="M9.44753 4.89014C9.02775 4.89014 8.30812 5.18961 7.94831 5.83464C7.46855 6.71003 6.22919 8.66814 5.0498 11.4556H43.33C42.1306 8.50689 40.7913 6.59484 40.2116 5.78856C39.6119 4.93621 38.8123 4.89014 38.4125 4.89014H9.44753Z" fill="#CEC6FF"/>
<path d="M17.7633 43.0157L29.817 42.9697C29.817 42.9697 32.4757 36.3121 32.4757 24.2409C32.4757 12.1697 30.0969 4.89014 30.0969 4.89014H17.9632C17.9632 4.89014 15.5444 14.266 15.5444 24.2409C15.5444 34.2158 17.7633 43.0157 17.7633 43.0157Z" fill="#9481FF"/>
<path d="M19.4624 42.9697H28.3578C28.3578 42.9697 30.5567 34.354 30.5567 24.2409C30.5567 14.1278 28.5577 4.89014 28.5577 4.89014H19.5823C19.5823 4.89014 17.5034 13.1372 17.5034 24.2409C17.5034 35.3445 19.4624 42.9697 19.4624 42.9697Z" fill="#F2FF88"/>
<path d="M11.6261 17.2465C11.6261 17.4264 11.6061 17.5063 11.6061 17.8662C10.8465 18.8257 8.48774 19.1255 8.48774 19.1255C8.48774 19.1255 8.32782 19.8851 7.24838 21.5043C6.16894 23.1234 3.55029 24.7226 3.55029 24.7226C3.55029 24.7226 4.20995 23.0235 4.18996 21.3444C4.16997 20.4448 4.03004 19.5653 3.9301 19.0855C3.89012 18.8656 4.01005 18.6458 4.18996 18.5458C4.46981 18.3859 4.94957 18.106 5.60923 17.6063C6.36883 17.0466 6.86858 16.6068 7.12844 16.3469C7.26837 16.207 7.48825 16.187 7.66816 16.267C8.22787 16.5668 9.60716 17.1265 11.6261 17.2465Z" fill="#D8EC38"/>
<path d="M7.24841 21.5044C8.32786 19.8852 8.78761 19.6054 8.78761 19.6054C8.78761 19.6054 10.8665 18.8258 11.6062 17.8663C11.6062 17.8063 12.3258 17.3865 11.6062 17.7064C10.047 18.326 7.94805 18.6659 7.94805 18.6659C7.94805 18.6659 6.8886 18.8857 5.42935 19.1056C5.12951 19.1456 4.92961 19.4255 4.96959 19.7053C5.20946 22.6438 3.57031 24.7427 3.57031 24.7427C4.54981 24.163 6.70869 22.304 7.24841 21.5044Z" fill="#A8AB1F"/>
<path d="M11.7462 18.166C11.7462 18.166 12.066 18.0261 12.2459 17.7262C12.9655 16.267 13.4053 14.188 12.6057 11.6094C12.2459 13.0087 11.0065 14.1081 10.3269 14.6278C10.087 14.8077 10.0071 15.1675 10.147 15.4274L11.7462 18.166Z" fill="#D8EC38"/>
<path d="M12.6258 11.6494L11.5264 14.7878C11.4064 15.1076 11.4064 15.4674 11.4864 15.8073L11.9262 17.4264L12.4459 17.3265C13.0256 15.9272 13.3454 13.9882 12.6258 11.6494Z" fill="#A8AB1F"/>
<path d="M12.6855 26.8216L12.0259 26.2219C12.0259 26.2219 12.4057 25.8022 12.7455 25.0026C13.0653 24.283 13.5451 22.4639 13.3852 21.3045C13.2252 20.1451 13.0253 19.5654 12.1058 18.2061C12.0458 18.8658 11.8659 19.6853 11.4062 20.6248C9.98691 23.5034 7.30829 23.7832 7.18836 23.7832L7.1084 22.9037C7.1084 22.9037 7.70809 22.8437 8.42772 22.4839C9.38722 22.0041 10.1268 21.2445 10.6266 20.245C11.2862 18.9057 11.2862 17.8263 11.2463 17.2866C11.2263 17.0467 11.3462 16.8268 11.5661 16.7269C11.786 16.6269 12.0259 16.6869 12.1858 16.8668C12.7455 17.5264 13.8449 18.9857 14.3047 21.1246C14.7644 24.0831 12.7655 26.7417 12.6855 26.8216Z" fill="#704761"/>
<path d="M8.68755 28.1608C10.6465 28.1608 12.2457 26.5616 12.2457 24.6026C12.2457 22.6436 10.6465 21.0444 8.68755 21.0444C6.72856 21.0444 5.12939 22.6436 5.12939 24.6026C5.12939 26.5616 6.72856 28.1608 8.68755 28.1608Z" fill="#F23461"/>
<path d="M6.84871 25.6222C7.14855 24.2629 8.22799 23.1634 9.68724 22.9235C9.74721 22.9235 9.78719 22.9036 9.84716 22.9036L10.3669 22.2639C9.42737 21.6242 8.08807 21.5443 6.90868 22.3838C6.4689 22.7037 6.12908 23.1634 5.96916 23.6832C5.74927 24.4428 5.78926 25.1424 6.02913 25.7221L6.84871 25.6222Z" fill="#E9E7ED"/>
<path d="M9.94704 33.5781C12.2059 33.5781 14.0249 31.7391 14.0249 29.5003C14.0249 27.2414 12.2059 25.4224 9.94704 25.4224C7.6882 25.4224 5.86914 27.2614 5.86914 29.5003C5.86914 31.7391 7.6882 33.5781 9.94704 33.5781Z" fill="#D96090"/>
<path d="M11.8256 26.8016C10.9061 26.142 9.62673 25.9421 8.34739 26.5618C7.76769 26.8416 7.30793 27.3014 7.04806 27.8811C6.60829 28.8006 6.5883 29.7201 6.84816 30.4797L7.52781 30.5197C8.00756 28.8806 9.50678 27.7012 11.2859 27.7012C11.4258 27.7012 11.5657 27.7012 11.7056 27.7212L11.8256 26.8016Z" fill="#E9E7ED"/>
<path d="M12.7052 28.9207C13.0143 28.9207 13.2649 28.6701 13.2649 28.361C13.2649 28.0519 13.0143 27.8013 12.7052 27.8013C12.3961 27.8013 12.1455 28.0519 12.1455 28.361C12.1455 28.6701 12.3961 28.9207 12.7052 28.9207Z" fill="#D9D9D9"/>
<path clip-rule="evenodd" d="M19.582 4.89014C19.582 4.89014 18.9553 7.37596 18.3901 11.4556H29.6501C29.1213 7.49632 28.5573 4.89014 28.5573 4.89014H19.582Z" fill="#E4F463" fill-rule="evenodd"/>
<path d="M26.3385 17.2465C26.3385 17.4264 26.3185 17.5063 26.3185 17.8662C25.5589 18.8257 23.2001 19.1255 23.2001 19.1255C23.2001 19.1255 23.0402 19.8851 21.9608 21.5043C20.8813 23.1234 18.2627 24.7226 18.2627 24.7226C18.2627 24.7226 18.9224 23.0235 18.9024 21.3444C18.8824 20.4448 18.7425 19.5653 18.6425 19.0855C18.6025 18.8656 18.7225 18.6458 18.9024 18.5458C19.1822 18.3859 19.662 18.106 20.3216 17.6063C21.0812 17.0466 21.581 16.6068 21.8408 16.3469C21.9808 16.207 22.2007 16.187 22.3806 16.267C22.9203 16.5468 24.3196 17.1265 26.3385 17.2465Z" fill="#CAD807"/>
<path d="M21.9408 21.4844C23.0202 19.8652 23.48 19.5854 23.48 19.5854C23.48 19.5854 25.5589 18.8058 26.2985 17.8463C26.2985 17.7863 27.0182 17.3665 26.2985 17.6863C24.7393 18.306 22.6404 18.6458 22.6404 18.6458C22.6404 18.6458 21.581 18.8657 20.1217 19.0856C19.8219 19.1256 19.622 19.4054 19.662 19.6853C19.9018 22.6238 18.2627 24.7227 18.2627 24.7227C19.2622 24.143 21.4211 22.284 21.9408 21.4844Z" fill="#9E9E0B"/>
<path d="M25.7587 18.3458C25.7587 18.3458 26.0786 18.2259 26.2985 17.946C27.118 16.5468 27.7177 14.5078 27.118 11.8892C26.6583 13.2485 25.339 14.2679 24.6193 14.7277C24.3595 14.8876 24.2595 15.2274 24.3795 15.5073L25.7587 18.3458Z" fill="#CAD807"/>
<path d="M27.1381 11.9092L25.7988 14.9676C25.6589 15.2874 25.6189 15.6472 25.6788 15.9871L25.9987 17.6462L26.5184 17.5862C27.218 16.207 27.6778 14.3079 27.1381 11.9092Z" fill="#9E9E0B"/>
<path d="M26.958 26.8216L26.2983 26.2219C26.2983 26.2219 26.6781 25.8022 27.0179 25.0026C27.3378 24.283 27.8175 22.4639 27.6576 21.3045C27.4977 20.1451 27.2978 19.5654 26.3783 18.2061C26.3183 18.8658 26.1384 19.6853 25.6786 20.6248C24.2594 23.5034 21.5808 23.7832 21.4608 23.7832L21.3809 22.9037C21.3809 22.9037 21.9806 22.8437 22.7002 22.4839C23.6597 22.0041 24.3993 21.2445 24.899 20.245C25.5587 18.9057 25.5587 17.8263 25.5187 17.2866C25.4987 17.0467 25.6187 16.8268 25.8386 16.7269C26.0584 16.6269 26.2983 16.6869 26.4582 16.8668C27.0179 17.5264 28.1174 18.9857 28.5771 21.1246C29.0369 24.0831 27.0379 26.7417 26.958 26.8216Z" fill="#704761"/>
<path d="M22.96 28.1608C24.919 28.1608 26.5182 26.5616 26.5182 24.6026C26.5182 22.6436 24.919 21.0444 22.96 21.0444C21.001 21.0444 19.4019 22.6436 19.4019 24.6026C19.4019 26.5616 21.001 28.1608 22.96 28.1608Z" fill="#F23461"/>
<path d="M21.1207 25.6222C21.4205 24.2629 22.5 23.1634 23.9592 22.9235C24.0192 22.9235 24.0592 22.9036 24.1191 22.9036L24.6389 22.2639C23.6993 21.6242 22.36 21.5443 21.1806 22.3838C20.7409 22.7037 20.4011 23.1634 20.2411 23.6832C20.0212 24.4428 20.0612 25.1424 20.3011 25.7221L21.1207 25.6222Z" fill="#E9E7ED"/>
<path d="M24.2195 33.5781C26.4783 33.5781 28.2974 31.7391 28.2974 29.5003C28.2974 27.2414 26.4783 25.4224 24.2195 25.4224C21.9607 25.4224 20.1416 27.2614 20.1416 29.5003C20.1416 31.7391 21.9607 33.5781 24.2195 33.5781Z" fill="#D96090"/>
<path d="M26.0985 26.8016C25.179 26.142 23.8997 25.9421 22.6203 26.5618C22.0406 26.8416 21.5809 27.3014 21.321 27.8811C20.8812 28.8006 20.8612 29.7201 21.1211 30.4797L21.8008 30.5197C22.2805 28.8806 23.7797 27.7012 25.5588 27.7012C25.6987 27.7012 25.8387 27.7012 25.9786 27.7212L26.0985 26.8016Z" fill="#E9E7ED"/>
<path d="M26.9777 28.9207C27.2868 28.9207 27.5374 28.6701 27.5374 28.361C27.5374 28.0519 27.2868 27.8013 26.9777 27.8013C26.6686 27.8013 26.418 28.0519 26.418 28.361C26.418 28.6701 26.6686 28.9207 26.9777 28.9207Z" fill="#D9D9D9"/>
<path d="M41.5905 17.1464C41.5905 17.3263 41.5705 17.4062 41.5705 17.7661C40.8109 18.7256 38.4521 19.0254 38.4521 19.0254C38.4521 19.0254 38.2922 19.785 37.2127 21.4042C36.1333 23.0233 33.5146 24.6225 33.5146 24.6225C33.5146 24.6225 34.1743 22.9234 34.1543 21.2443C34.1343 20.3447 33.9944 19.4652 33.8945 18.9854C33.8545 18.7655 33.9744 18.5457 34.1543 18.4457C34.4342 18.2858 34.9139 18.0059 35.5736 17.5062C36.3332 16.9465 36.8329 16.5067 37.0928 16.2468C37.2327 16.1069 37.4526 16.0869 37.6325 16.1669C38.1722 16.4467 39.5715 17.0264 41.5905 17.1464Z" fill="#D8EC38"/>
<path d="M37.1927 21.4043C38.2722 19.7851 38.732 19.5053 38.732 19.5053C38.732 19.5053 40.8109 18.7257 41.5505 17.7662C41.5505 17.7062 42.2701 17.2864 41.5505 17.6063C39.9913 18.2259 37.8924 18.5658 37.8924 18.5658C37.8924 18.5658 36.8329 18.7856 35.3737 19.0055C35.0738 19.0455 34.8739 19.3254 34.9139 19.6052C35.1538 22.5437 33.5146 24.6426 33.5146 24.6426C34.5141 24.0629 36.673 22.2039 37.1927 21.4043Z" fill="#A8AB1F"/>
<path d="M41.1105 18.306C41.1105 18.306 41.4104 18.1261 41.5703 17.8063C42.13 16.2871 42.3299 14.1682 41.2504 11.6895C41.0506 13.1287 39.9511 14.3481 39.3314 14.9478C39.1116 15.1677 39.0716 15.5075 39.2515 15.7673L41.1105 18.306Z" fill="#D8EC38"/>
<path d="M41.2502 11.7295L40.5106 14.9678C40.4307 15.3076 40.4507 15.6675 40.5906 15.9873L41.2103 17.5465L41.71 17.3866C42.1498 15.9273 42.2297 13.9883 41.2502 11.7295Z" fill="#A8AB1F"/>
<path d="M41.9502 26.8216L41.2905 26.2219C41.2905 26.2219 41.6703 25.8022 42.0101 25.0026C42.33 24.283 42.8097 22.4639 42.6498 21.3045C42.4899 20.1451 42.29 19.5654 41.3705 18.2061C41.3105 18.8658 41.1306 19.6853 40.6708 20.6248C39.2516 23.5034 36.5729 23.7832 36.453 23.7832L36.373 22.9037C36.373 22.9037 36.9727 22.8437 37.6924 22.4839C38.6519 22.0041 39.3915 21.2445 39.8912 20.245C40.5509 18.9057 40.5509 17.8263 40.5109 17.2866C40.4909 17.0467 40.6109 16.8268 40.8307 16.7269C41.0506 16.6269 41.2905 16.6869 41.4504 16.8668C42.0101 17.5264 43.1096 18.9857 43.5693 21.1246C44.0091 24.0831 42.0101 26.7417 41.9502 26.8216Z" fill="#704761"/>
<path d="M37.9322 28.1608C39.8912 28.1608 41.4903 26.5616 41.4903 24.6026C41.4903 22.6436 39.8912 21.0444 37.9322 21.0444C35.9732 21.0444 34.374 22.6436 34.374 24.6026C34.394 26.5616 35.9732 28.1608 37.9322 28.1608Z" fill="#F23461"/>
<path d="M36.0933 25.6222C36.3932 24.2629 37.4726 23.1634 38.9319 22.9235C38.9918 22.9235 39.0318 22.9036 39.0918 22.9036L39.6115 22.2639C38.672 21.6242 37.3327 21.5443 36.1533 22.3838C35.7135 22.7037 35.3737 23.1634 35.2138 23.6832C34.9939 24.4428 35.0339 25.1424 35.2738 25.7221L36.0933 25.6222Z" fill="#E9E7ED"/>
<path d="M39.1917 33.5781C41.4505 33.5781 43.2695 31.7391 43.2695 29.5003C43.2695 27.2414 41.4505 25.4224 39.1917 25.4224C36.9328 25.4224 35.1138 27.2614 35.1138 29.5003C35.1138 31.7391 36.9528 33.5781 39.1917 33.5781Z" fill="#D96090"/>
<path d="M41.0907 26.8016C40.1712 26.142 38.8919 25.9421 37.6125 26.5618C37.0328 26.8416 36.5731 27.3014 36.3132 27.8811C35.8734 28.8006 35.8534 29.7201 36.1133 30.4797L36.7929 30.5197C37.2727 28.8806 38.7719 27.7012 40.551 27.7012C40.6909 27.7012 40.8309 27.7012 40.9708 27.7212L41.0907 26.8016Z" fill="#E9E7ED"/>
<path d="M41.9503 28.9207C42.2595 28.9207 42.51 28.6701 42.51 28.361C42.51 28.0519 42.2595 27.8013 41.9503 27.8013C41.6412 27.8013 41.3906 28.0519 41.3906 28.361C41.3906 28.6701 41.6412 28.9207 41.9503 28.9207Z" fill="#D9D9D9"/>
<path clip-rule="evenodd" d="M28.3578 42.9695H19.4624C19.4624 42.9695 18.7373 40.1473 18.1694 35.4365H29.7505C29.1229 39.9714 28.3578 42.9695 28.3578 42.9695Z" fill="#DFEE6B" fill-rule="evenodd"/>
<path d="M39.3918 42.9698H8.42784C7.94809 42.9698 7.28843 42.9468 6.30894 41.9793C4.58983 40.2976 0.332031 32.5573 0.332031 23.3887C0.332031 14.3353 4.88967 7.63166 6.28895 5.85784C7.10852 4.79816 8.10801 4.91334 8.58776 4.91334H39.5118C39.9515 4.91334 41.1109 4.95942 41.8106 5.81177C43.0899 7.37826 47.6675 13.3217 47.6675 23.4117C47.6675 33.64 42.7901 41.2651 41.7706 42.0484C40.7711 42.8086 39.8516 42.9698 39.3918 42.9698Z" fill="#6053D9"/>
<path d="M38.5721 42.9701H9.88692C9.44715 42.9701 8.3877 42.7397 7.94793 41.9795C6.70857 39.8371 2.51074 32.5575 2.51074 23.3889C2.51074 14.3355 6.90847 7.67797 7.92794 5.85808C8.30774 5.19001 9.00738 4.91357 9.44716 4.91357H38.4322C38.832 4.91357 39.6315 4.95965 40.2312 5.812C41.3906 7.4476 45.5685 13.3219 45.5685 23.412C45.5685 33.6402 40.9708 41.0811 40.2112 42.0486C39.4117 42.9701 38.9919 42.9701 38.5721 42.9701Z" fill="#EFE4EF"/>
<path d="M4.82959 35.4365C6.02897 38.6156 7.34828 40.9192 7.96796 41.9789C8.40773 42.7391 9.48718 42.9695 9.90696 42.9695H38.5921C39.0119 42.9695 39.4317 42.9695 40.1913 42.025C40.5911 41.5182 42.1103 39.1224 43.4296 35.4365H4.82959Z" fill="#C9BFFF"/>
<path d="M17.7633 43.0157L29.817 42.9697C29.817 42.9697 32.4757 36.3121 32.4757 24.2409C32.4757 12.1697 29.559 4.89014 29.559 4.89014H18.2259C18.2259 4.89014 15.5444 14.266 15.5444 24.2409C15.5444 34.2157 17.7633 43.0157 17.7633 43.0157Z" fill="#9481FF"/>
<path d="M20.7072 42.9697H26.9863C26.9863 42.9697 29.6505 34.354 29.6505 24.2409C29.6505 14.1278 27.0858 4.89014 27.0858 4.89014H20.7238C20.7238 4.89014 18.4097 13.1372 18.4097 24.2409C18.4097 35.3445 20.7072 42.9697 20.7072 42.9697Z" fill="#F2FF88"/>
<path d="M11.8247 25.6932L11.165 25.0935C11.165 25.0935 11.5448 24.6737 11.8846 23.8742C12.2045 23.1545 12.6842 21.3355 12.5243 20.1761C12.3644 19.0167 12.1645 18.437 11.245 17.0777C11.185 17.7373 11.0051 18.5569 10.5453 19.4964C9.12607 22.3749 6.44745 22.6548 6.32752 22.6548L6.24756 21.7752C6.24756 21.7752 6.84725 21.7153 7.56688 21.3555C8.52638 20.8757 9.266 20.1161 9.76574 19.1166C10.4254 17.7773 10.4254 16.6979 10.3854 16.1582C10.3654 15.9183 10.4854 15.6984 10.7053 15.5984C10.9251 15.4985 11.165 15.5585 11.3249 15.7384C11.8846 16.398 12.9841 17.8573 13.4438 19.9962C13.9036 22.9546 11.9046 25.6133 11.8247 25.6932Z" fill="#704761"/>
<path d="M7.82677 26.3078C9.38685 26.3078 10.6604 25.0343 10.6604 23.4742C10.6604 21.9142 9.38685 20.6406 7.82677 20.6406C6.26669 20.6406 4.99316 21.9142 4.99316 23.4742C4.99316 25.0343 6.26669 26.3078 7.82677 26.3078Z" fill="#ED0049"/>
<path d="M9.0862 32.4497C11.345 32.4497 13.1641 30.6107 13.1641 28.3718C13.1641 26.113 11.345 24.2939 9.0862 24.2939C6.82736 24.2939 5.0083 26.133 5.0083 28.3718C5.0083 30.6107 6.82736 32.4497 9.0862 32.4497Z" fill="#ED0049"/>
<path d="M10.9647 25.6732C10.0452 25.0136 8.76589 24.8137 7.48655 25.4333C6.90685 25.7132 6.44709 26.173 6.18722 26.7527C5.74745 27.6722 5.72746 28.5917 5.98732 29.3513L6.66697 29.3913C7.14672 27.7521 8.64594 26.5727 10.425 26.5727C10.565 26.5727 10.7049 26.5727 10.8448 26.5927L10.9647 25.6732Z" fill="#E9E7ED"/>
<path d="M11.8444 27.7923C12.1535 27.7923 12.4041 27.5417 12.4041 27.2326C12.4041 26.9234 12.1535 26.6729 11.8444 26.6729C11.5353 26.6729 11.2847 26.9234 11.2847 27.2326C11.2847 27.5417 11.5353 27.7923 11.8444 27.7923Z" fill="#D9D9D9"/>
<path d="M26.6118 25.6932L25.9521 25.0935C25.9521 25.0935 26.3319 24.6737 26.6718 23.8742C26.9916 23.1545 27.4713 21.3355 27.3114 20.1761C27.1515 19.0167 26.9516 18.437 26.0321 17.0777C25.9721 17.7373 25.7922 18.5569 25.3324 19.4964C23.9132 22.3749 21.2346 22.6548 21.1146 22.6548L21.0347 21.7752C21.0347 21.7752 21.6344 21.7153 22.354 21.3555C23.3135 20.8757 24.0531 20.1161 24.5528 19.1166C25.2125 17.7773 25.2125 16.6979 25.1725 16.1582C25.1525 15.9183 25.2725 15.6984 25.4924 15.5984C25.7122 15.4985 25.9521 15.5585 26.112 15.7384C26.6718 16.398 27.7712 17.8573 28.2309 19.9962C28.6907 22.9546 26.6917 25.6133 26.6118 25.6932Z" fill="#704761"/>
<path d="M22.6139 26.3078C24.174 26.3078 25.4475 25.0343 25.4475 23.4742C25.4475 21.9142 24.174 20.6406 22.6139 20.6406C21.0538 20.6406 19.7803 21.9142 19.7803 23.4742C19.7803 25.0343 21.0538 26.3078 22.6139 26.3078Z" fill="#ED0049"/>
<path d="M23.8733 32.4497C26.1321 32.4497 27.9512 30.6107 27.9512 28.3718C27.9512 26.113 26.1321 24.2939 23.8733 24.2939C21.6145 24.2939 19.7954 26.133 19.7954 28.3718C19.7954 30.6107 21.6145 32.4497 23.8733 32.4497Z" fill="#ED0049"/>
<path d="M25.7519 25.6732C24.8323 25.0136 23.553 24.8137 22.2737 25.4333C21.694 25.7132 21.2342 26.173 20.9743 26.7527C20.5346 27.6722 20.5146 28.5917 20.7744 29.3513L21.4541 29.3913C21.9338 27.7521 23.4331 26.5727 25.2121 26.5727C25.3521 26.5727 25.492 26.5727 25.6319 26.5927L25.7519 25.6732Z" fill="#E9E7ED"/>
<path d="M26.6315 27.7923C26.9406 27.7923 27.1912 27.5417 27.1912 27.2326C27.1912 26.9234 26.9406 26.6729 26.6315 26.6729C26.3224 26.6729 26.0718 26.9234 26.0718 27.2326C26.0718 27.5417 26.3224 27.7923 26.6315 27.7923Z" fill="#D9D9D9"/>
<path d="M41.0893 25.6932L40.4297 25.0935C40.4297 25.0935 40.8095 24.6737 41.1493 23.8742C41.4691 23.1545 41.9489 21.3355 41.789 20.1761C41.629 19.0167 41.4291 18.437 40.5096 17.0777C40.4497 17.7373 40.2697 18.5569 39.81 19.4964C38.3907 22.3749 35.7121 22.6548 35.5922 22.6548L35.5122 21.7752C35.5122 21.7752 36.1119 21.7153 36.8315 21.3555C37.791 20.8757 38.5306 20.1161 39.0304 19.1166C39.69 17.7773 39.69 16.6979 39.6501 16.1582C39.6301 15.9183 39.75 15.6984 39.9699 15.5984C40.1898 15.4985 40.4297 15.5585 40.5896 15.7384C41.1493 16.398 42.2487 17.8573 42.7085 19.9962C43.1682 22.9546 41.1693 25.6133 41.0893 25.6932Z" fill="#704761"/>
<path d="M37.0914 26.3078C38.6515 26.3078 39.925 25.0343 39.925 23.4742C39.925 21.9142 38.6515 20.6406 37.0914 20.6406C35.5313 20.6406 34.2578 21.9142 34.2578 23.4742C34.2578 25.0343 35.5313 26.3078 37.0914 26.3078Z" fill="#ED0049"/>
<path d="M38.3508 32.4497C40.6097 32.4497 42.4287 30.6107 42.4287 28.3718C42.4287 26.113 40.6097 24.2939 38.3508 24.2939C36.092 24.2939 34.2729 26.133 34.2729 28.3718C34.2729 30.6107 36.092 32.4497 38.3508 32.4497Z" fill="#ED0049"/>
<path d="M40.2294 25.6732C39.3099 25.0136 38.0305 24.8137 36.7512 25.4333C36.1715 25.7132 35.7117 26.173 35.4519 26.7527C35.0121 27.6722 34.9921 28.5917 35.252 29.3513L35.9316 29.3913C36.4114 27.7521 37.9106 26.5727 39.6897 26.5727C39.8296 26.5727 39.9695 26.5727 40.1095 26.5927L40.2294 25.6732Z" fill="#E9E7ED"/>
<path d="M41.109 27.7923C41.4181 27.7923 41.6687 27.5417 41.6687 27.2326C41.6687 26.9234 41.4181 26.6729 41.109 26.6729C40.7999 26.6729 40.5493 26.9234 40.5493 27.2326C40.5493 27.5417 40.7999 27.7923 41.109 27.7923Z" fill="#D9D9D9"/>
<path clip-rule="evenodd" d="M27.519 42.9695H20.3203C20.3203 42.9695 19.7335 40.1473 19.2739 35.4365H28.646C28.1382 39.9714 27.519 42.9695 27.519 42.9695Z" fill="#DFEE6B" fill-rule="evenodd"/>
</svg>