<?xml version="1.0" encoding="utf-8"?>
<svg xmlns="http://www.w3.org/2000/svg" fill="none" height="16" viewBox="0 0 16 16" width="16">
<path d="M15.7303 2.80205C15.6038 2.10774 15.5406 1.76058 15.1424 1.36295C14.7441 0.965326 14.3969 0.902638 13.7023 0.777262C11.4071 0.362934 7.11221 0.19001 3.7469 3.5554C0.547084 6.7553 0.773352 10.9974 1.20583 13.2787C1.33832 13.9776 1.40456 14.327 1.7976 14.7196C2.19064 15.1121 2.54029 15.1779 3.2396 15.3096C5.52097 15.7392 9.76251 15.9617 12.962 12.7707C16.3278 9.39624 16.1484 5.0979 15.7303 2.80205Z" fill="url(#paint0_linear_737_10071)" fill-opacity="0.6" opacity="0.6"/>
<path d="M9.40459 2.48131C8.84872 2.0366 8.42873 1.87601 8.39167 1.86366C8.05815 1.74013 7.69992 1.91307 7.57639 2.2466C7.48992 2.48131 7.55168 2.72837 7.69992 2.90132C7.76168 2.97543 7.84815 3.0372 7.94697 3.07426C7.95932 3.07426 8.03344 3.11131 8.15697 3.17308C7.72462 3.44485 7.31699 3.74132 6.90935 4.0625C6.63759 3.75367 6.48935 3.60543 6.48935 3.59308C6.25465 3.33367 5.84701 3.30896 5.5876 3.54367C5.3282 3.77838 5.30349 4.18603 5.53819 4.44544C5.53819 4.44544 5.67407 4.59368 5.94583 4.9025C5.59995 5.23603 5.26643 5.59427 4.96997 5.96486C4.93291 5.89074 4.89585 5.81662 4.87115 5.73015C4.74762 5.39662 4.37704 5.23603 4.04351 5.35956C3.70999 5.48309 3.54941 5.85368 3.67293 6.18721C3.80881 6.5331 3.95705 6.84193 4.12999 7.12605C3.87058 7.5337 3.63588 7.95369 3.42588 8.38605C3.32706 8.21311 3.24058 8.02781 3.16647 7.83016C3.04294 7.49663 2.67237 7.33604 2.33884 7.45957C2.00532 7.5831 1.84473 7.9537 1.96826 8.28723C2.27708 9.07782 2.69707 9.69547 3.11706 10.1772C3.80881 10.9555 4.48821 11.3261 4.52527 11.3508C4.83408 11.5114 5.22937 11.4002 5.38996 11.0914C5.56289 10.7825 5.43937 10.3872 5.13055 10.2267C5.13055 10.2267 4.8835 10.0908 4.54997 9.80665C4.73526 9.34958 4.94526 8.90488 5.19232 8.47252C5.73584 8.99135 6.19289 9.23841 6.22995 9.25076C6.53876 9.41135 6.93405 9.30018 7.09464 8.99135C7.26758 8.68252 7.14404 8.28723 6.83523 8.12664C6.82287 8.12664 6.40288 7.87958 5.90877 7.37311C6.2423 6.9284 6.61288 6.5084 7.00817 6.1131C7.26757 6.39722 7.55169 6.71839 7.87286 7.08898C8.10756 7.3484 8.5152 7.3731 8.7746 7.15075C9.04636 6.91604 9.07107 6.50839 8.83637 6.24898C8.5152 5.87839 8.23108 5.55721 7.97168 5.27309C8.42873 4.91485 8.89813 4.59368 9.39224 4.30956C9.60224 4.58132 9.82458 4.9025 10.0222 5.2978C10.1828 5.60663 10.5781 5.73015 10.8869 5.56956C11.1957 5.40897 11.3193 5.01368 11.1587 4.70485C10.961 4.33426 10.751 4.01308 10.5534 3.71661C10.5534 3.71661 10.2816 3.34602 9.99753 3.0372C9.72577 2.72837 9.41694 2.48131 9.40459 2.48131Z" fill="#FB8BA1"/>
<path d="M13.542 0.751844C12.8873 0.640667 12.072 0.554199 11.1826 0.554199C11.5408 0.801259 11.9979 1.1595 12.5167 1.64126C13.4555 2.51833 14.7402 3.98833 15.9137 6.18717C15.9878 5.16187 15.9384 4.22304 15.8272 3.43245C15.0367 2.30833 14.2461 1.43126 13.542 0.751844Z" fill="#FB8BA1"/>
<path d="M5.04382 14.7353C3.98149 13.9941 2.46211 12.7094 0.955078 10.6465C0.955078 11.5606 1.04155 12.3883 1.16508 13.0677C2.01741 14.0312 2.8574 14.7724 3.61091 15.3653C4.37678 15.4889 5.32794 15.5753 6.35322 15.5259C5.99499 15.353 5.55029 15.0936 5.04382 14.7353Z" fill="#FB8BA1"/>
<defs>
<linearGradient gradientUnits="userSpaceOnUse" id="paint0_linear_737_10071" x1="15.958" x2="6.08913" y1="20.8268" y2="12.7272">
<stop stop-color="#FDE0F1"/>
<stop offset="0.320987" stop-color="#FDE0F1"/>
<stop offset="0.770645" stop-color="#EEB8D6"/>
<stop offset="1" stop-color="#E6A3C8"/>
</linearGradient>
</defs>
</svg>