<?xml version="1.0" encoding="utf-8"?>
<svg xmlns="http://www.w3.org/2000/svg" fill="none" height="24" viewBox="0 0 24 24" width="24">
<path d="M22.6276 3.70707C22.6927 4.18311 22.7327 5.10521 22.6776 6.42811C22.6225 7.82619 22.432 9.39964 21.9911 10.6925C21.8858 10.9931 21.7756 11.2988 21.6503 11.5995C20.7233 13.8895 19.2651 16.2246 17.7868 17.5826C16.1132 19.121 13.768 21.2056 11.3577 21.832C8.91734 22.4734 6.27653 22.6538 4.56276 22.4834C3.46535 22.3732 2.39801 22.1978 1.80671 21.4361C1.75158 21.3659 1.69646 21.2858 1.65137 21.2056C1.34068 20.6594 1.28556 19.0158 1.28055 18.3994C1.27554 17.9033 1.28556 17.4624 1.31062 17.1868C1.42086 15.919 1.55616 14.566 1.82675 13.3283C2.32284 11.0683 3.82113 8.62795 5.43969 6.98433C7.83997 4.54397 10.6712 2.7851 13.9785 2.04848C14.6449 1.89815 15.3364 1.77789 16.023 1.68268C17.6816 1.45217 19.3653 1.372 20.3274 1.60752C20.9137 1.74782 21.5702 1.98334 22.0211 2.39926C22.3418 2.68989 22.5675 3.26109 22.6276 3.70707Z" fill="#EB7A3B"/>
<path d="M22.5971 3.50194C22.7625 4.37385 22.8076 6.60375 22.4468 8.81862C22.3416 9.47006 22.1912 10.1115 21.9908 10.6927C21.179 13.0529 19.5755 15.9443 17.7866 17.5879C16.1129 19.1263 13.7677 21.2109 11.3574 21.8372C8.91205 22.4736 6.27124 22.654 4.56249 22.4837C3.44002 22.3734 2.21733 22.188 1.65109 21.2008C1.34041 20.6546 1.28528 19.011 1.28027 18.3947C1.65109 18.7755 3.32978 19.928 6.78237 18.3095C10.5657 16.5356 16.3885 10.8932 17.7064 7.43558C19.0243 3.97798 18.0121 2.42958 16.0277 1.67292C17.6863 1.44241 19.37 1.36223 20.3322 1.59775C21.4496 1.86834 22.3817 2.37947 22.5971 3.50194Z" fill="#B85F2D"/>
<path d="M22.6779 6.42822C22.6478 7.18489 22.5776 8.0117 22.4473 8.81848C22.3421 9.46991 22.1918 10.1113 21.9913 10.6926C21.8861 10.9933 21.7759 11.2989 21.6506 11.5996C20.7236 13.8896 19.2754 16.2348 17.7871 17.5827C15.7176 19.4619 13.7683 21.2057 11.358 21.8321C11.1074 21.8972 10.8519 21.9574 10.5963 22.0125C10.1704 22.1077 9.73941 22.1879 9.31348 22.253C9.74943 22.1077 10.1754 21.9473 10.6013 21.7569C12.6207 20.8499 14.4548 19.5821 16.0433 18.0638C16.9503 17.2019 17.7771 16.2548 18.5187 15.2476C20.448 12.6319 21.7959 9.61022 22.6779 6.42822Z" fill="#864722"/>
<path d="M22.4473 8.81845C22.2669 9.90083 22.0464 10.6174 21.6506 11.5996C18.1178 10.1965 14.4698 6.04235 13.3122 3.96779C12.8913 3.21613 12.6357 2.40936 12.6357 2.40435C13.3122 2.18888 14.1591 1.96839 15.4419 1.76294C15.5622 2.67494 16.7097 4.21834 17.286 4.85473C18.0226 5.66652 18.8845 6.6136 19.7414 7.30011C20.4629 7.87638 21.5052 8.48772 22.4473 8.81845Z" fill="#F2C198"/>
<path d="M10.5956 22.0174C9.59841 22.2379 8.57616 22.3833 7.61405 22.4684C6.90249 22.2229 5.16867 21.5414 3.5902 19.6823C2.06185 17.8834 1.84136 17.1367 1.40039 16.1145C1.47556 15.2726 1.71107 13.644 1.96162 12.7471C2.06686 13.3083 2.95381 15.7687 5.50441 18.5198C8.02495 21.2357 10.0093 21.8421 10.5956 22.0174Z" fill="#F2C198"/>
<path clip-rule="evenodd" d="M17.1582 8.57586C18.5315 9.84105 20.102 10.9845 21.6504 11.5994C22.0462 10.6173 22.2667 9.90071 22.4471 8.81833C21.505 8.4876 20.4628 7.87626 19.7412 7.29999C19.214 6.8776 18.6848 6.35657 18.1842 5.8291C18.0882 6.31283 17.9313 6.84645 17.7068 7.43546C17.57 7.79432 17.3847 8.17671 17.1582 8.57586Z" fill="#EB7A3B" fill-rule="evenodd"/>
<path clip-rule="evenodd" d="M21.6521 11.5949C22.0451 10.6192 22.265 9.90506 22.4447 8.83195C22.4451 8.82966 22.4455 8.82737 22.4459 8.82507M22.4469 8.81834C22.4469 8.81835 22.447 8.81836 22.447 8.81837L22.4469 8.81834ZM22.4469 8.81834C22.2931 8.76434 22.1366 8.70285 21.9793 8.63525C21.6592 9.5299 21.2979 10.4063 20.8926 11.2586C21.1451 11.385 21.3979 11.4993 21.6502 11.5995C21.6508 11.5979 21.6515 11.5964 21.6521 11.5949" fill="#99542C" fill-rule="evenodd"/>
<path clip-rule="evenodd" d="M3.13672 19.1322C3.8048 19.1893 4.65821 19.1083 5.71597 18.7444C8.1355 21.2697 10.0257 21.8471 10.5955 22.0176C9.59829 22.2381 8.57605 22.3834 7.61393 22.4686C6.90237 22.223 5.16855 21.5415 3.59009 19.6824C3.42421 19.4872 3.27374 19.3043 3.13672 19.1322Z" fill="#EB7A3B" fill-rule="evenodd"/>
<path d="M13.2651 5.52399C13.2457 5.54338 13.2263 5.55793 13.2021 5.56763C8.32935 8.32641 3.9027 14.3191 3.85906 14.3822C3.74755 14.5325 3.51482 14.5422 3.34027 14.4015C3.16573 14.2609 3.11724 14.0234 3.22876 13.8731C3.23846 13.8585 4.373 12.3216 6.09905 10.4597C7.6942 8.73853 10.1475 6.37732 12.756 4.90339C12.9209 4.81126 13.1536 4.88399 13.2796 5.06823C13.3863 5.22823 13.3718 5.41732 13.2651 5.52399Z" fill="#F2C198"/>
<path d="M6.31133 11.8647C5.9477 11.5302 5.53557 11.1132 5.22527 10.735C5.15739 10.6478 5.15255 10.5266 5.22043 10.4393L5.26406 10.386C5.35618 10.2647 5.53558 10.2647 5.63255 10.3811C5.9283 10.7399 6.33073 11.1811 6.66042 11.4963C6.75739 11.5884 6.75739 11.7484 6.66042 11.8405L6.63618 11.8647C6.54406 11.9472 6.40345 11.9472 6.31133 11.8647Z" fill="#F2C198"/>
<path clip-rule="evenodd" d="M6.12238 12.073L6.12094 12.0717C5.75138 11.7317 5.3292 11.305 5.00788 10.9134L5.00555 10.9106L5.0033 10.9077C4.86331 10.7277 4.8449 10.464 4.99845 10.2666L5.00058 10.2639L5.0438 10.2111C5.2512 9.94423 5.6424 9.95356 5.84864 10.201L5.8496 10.2022C6.13957 10.554 6.53433 10.9866 6.85453 11.2927C7.06681 11.4948 7.06773 11.8381 6.85727 12.0414L6.82957 12.0691L6.82375 12.0743C6.62485 12.2523 6.32272 12.2523 6.12383 12.0743L6.12238 12.073ZM6.66045 11.8405C6.75742 11.7484 6.75742 11.5884 6.66045 11.4962C6.33076 11.1811 5.92833 10.7399 5.63258 10.3811C5.53561 10.2647 5.35622 10.2647 5.26409 10.3859L5.22046 10.4393C5.15258 10.5266 5.15743 10.6478 5.2253 10.735C5.53561 11.1132 5.94773 11.5302 6.31136 11.8647C6.40348 11.9472 6.54409 11.9472 6.63621 11.8647L6.66045 11.8405Z" fill="#F2C198" fill-rule="evenodd"/>
<path d="M4.74981 13.7734C4.38617 13.4389 3.97405 13.0219 3.66375 12.6437C3.59587 12.5565 3.59102 12.4353 3.6589 12.348L3.70254 12.2946C3.79466 12.1734 3.97405 12.1734 4.07102 12.2898C4.36678 12.6486 4.7692 13.0898 5.0989 13.405C5.19587 13.4971 5.19587 13.6571 5.0989 13.7492L5.07466 13.7734C4.98254 13.8559 4.84193 13.8559 4.74981 13.7734Z" fill="#F2C198"/>
<path clip-rule="evenodd" d="M4.56085 13.9817L4.55942 13.9804C4.18986 13.6404 3.76767 13.2137 3.44635 12.8221L3.44403 12.8193L3.44178 12.8164C3.30178 12.6364 3.28338 12.3727 3.43693 12.1753L3.43906 12.1726L3.48227 12.1197C3.68968 11.8529 4.08088 11.8622 4.28712 12.1097L4.28808 12.1109C4.57805 12.4627 4.97281 12.8953 5.29301 13.2014C5.50529 13.4034 5.5062 13.7468 5.29574 13.9501L5.26804 13.9778L5.26222 13.983C5.06333 14.161 4.7612 14.161 4.5623 13.983L4.56085 13.9817ZM5.09893 13.7492C5.1959 13.6571 5.1959 13.4971 5.09893 13.4049C4.76923 13.0898 4.36681 12.6486 4.07105 12.2898C3.97408 12.1734 3.79469 12.1734 3.70257 12.2946L3.65893 12.348C3.59105 12.4352 3.5959 12.5565 3.66378 12.6437C3.97408 13.0219 4.3862 13.4389 4.74984 13.7734C4.84196 13.8558 4.98257 13.8558 5.07469 13.7734L5.09893 13.7492Z" fill="#F2C198" fill-rule="evenodd"/>
<path d="M8.17983 10.1021C7.81135 9.71911 7.34105 9.16638 7.03074 8.74941C6.96287 8.65729 6.97256 8.53123 7.05014 8.44881L7.07923 8.41487C7.18105 8.3082 7.35074 8.3179 7.43802 8.43426C7.74832 8.83184 8.22832 9.37002 8.57741 9.72396C8.67438 9.82093 8.66468 9.97608 8.56286 10.0682L8.50468 10.1215C8.40771 10.1991 8.2671 10.1894 8.17983 10.1021Z" fill="#F2C198"/>
<path clip-rule="evenodd" d="M7.97907 10.2991L7.97719 10.2971C7.60089 9.90596 7.12286 9.34422 6.80515 8.9173L6.80436 8.91623C6.65518 8.71378 6.67692 8.44036 6.84008 8.26174L6.87062 8.2261L6.87582 8.22065C7.09517 7.99086 7.4675 8.00797 7.66111 8.26292C7.96366 8.65033 8.43503 9.17897 8.77714 9.52588C8.99561 9.74528 8.96291 10.0848 8.7524 10.276L8.6878 10.3352L8.68041 10.3411C8.46876 10.5105 8.16707 10.4871 7.981 10.301L7.97907 10.2991ZM8.5629 10.0682C8.66472 9.97606 8.67442 9.82091 8.57745 9.72394C8.22836 9.37 7.74836 8.83182 7.43805 8.43424C7.35078 8.31788 7.18108 8.30818 7.07927 8.41485L7.05018 8.44879C6.9726 8.53121 6.9629 8.65727 7.03078 8.74939C7.34108 9.16636 7.81139 9.71909 8.17987 10.1021C8.26714 10.1894 8.40775 10.1991 8.50472 10.1215L8.5629 10.0682Z" fill="#F2C198" fill-rule="evenodd"/>
<path d="M9.4292 6.6212C9.78314 6.98968 10.2389 7.52301 10.5492 7.93513C10.6316 8.04665 10.6025 8.2018 10.4862 8.27453L10.4377 8.30362C10.3359 8.3715 10.1953 8.3424 10.1225 8.24544C9.83163 7.85756 9.38072 7.34847 9.04132 6.99453C8.9492 6.90241 8.95405 6.75211 9.04617 6.66483L9.09466 6.61635C9.18678 6.52423 9.33708 6.52423 9.4292 6.6212Z" fill="#F2C198"/>
<path clip-rule="evenodd" d="M10.4862 8.27452L10.4377 8.30362C10.3359 8.37149 10.1953 8.3424 10.1225 8.24543C9.83164 7.85755 9.38073 7.34847 9.04134 6.99453C8.94921 6.90241 8.95406 6.7521 9.04619 6.66483L9.09467 6.61635C9.18679 6.52423 9.33709 6.52422 9.42921 6.62119C9.78315 6.98968 10.2389 7.52301 10.5492 7.93513C10.6316 8.04665 10.6025 8.2018 10.4862 8.27452ZM9.63245 6.42678C9.4303 6.21475 9.09845 6.21482 8.8958 6.41747L8.84947 6.4638C8.64902 6.65712 8.63707 6.98525 8.83998 7.1909C9.17486 7.54026 9.6164 8.03932 9.89755 8.41418C10.0522 8.62044 10.3536 8.69248 10.587 8.542L10.6331 8.51438L10.6352 8.51302C10.8924 8.35232 10.9541 8.00969 10.7754 7.76796L10.7739 7.76596C10.4567 7.34474 9.99388 6.80311 9.63245 6.42678Z" fill="#F2C198" fill-rule="evenodd"/>
<path d="M11.4876 5.19163C11.8416 5.55526 12.2828 6.08374 12.5882 6.49587C12.6707 6.60738 12.6416 6.75768 12.5252 6.83526L12.5058 6.8498C12.3991 6.91768 12.2634 6.89344 12.1858 6.79647C11.8997 6.41344 11.4585 5.8995 11.1143 5.54071C11.0173 5.4389 11.0319 5.27405 11.1434 5.19163L11.1676 5.17223C11.2694 5.09465 11.4052 5.10435 11.4876 5.19163Z" fill="#F2C198"/>
<path clip-rule="evenodd" d="M12.1858 6.7964C11.8997 6.41337 11.4585 5.89943 11.1143 5.54064C11.0173 5.43882 11.0319 5.27397 11.1434 5.19155L11.1676 5.17216C11.2694 5.09458 11.4052 5.10428 11.4876 5.19155C11.8416 5.55519 12.2828 6.08367 12.5882 6.49579C12.6706 6.60731 12.6416 6.75761 12.5252 6.83518L12.5058 6.84973C12.3991 6.91761 12.2634 6.89336 12.1858 6.7964ZM12.6888 7.06403L12.6659 7.08121L12.6568 7.08701C12.4273 7.23304 12.1322 7.17964 11.9662 6.97209L11.9633 6.96844L11.9605 6.96469C11.6822 6.59213 11.2487 6.08698 10.9113 5.73536L10.9106 5.73461C10.6992 5.51261 10.7274 5.15402 10.9711 4.96921L10.9945 4.95046L10.9972 4.94844C11.2056 4.78964 11.503 4.8001 11.6904 4.99663C12.0542 5.37064 12.5029 5.90828 12.8142 6.32832L12.8144 6.32862C12.9945 6.57234 12.9269 6.89945 12.6888 7.06403Z" fill="#F2C198" fill-rule="evenodd"/>
</svg>