<?xml version="1.0" encoding="utf-8"?>
<svg xmlns="http://www.w3.org/2000/svg" fill="none" height="32" width="32">
  <g clip-path="url(#a)">
    <path d="M7.556 15.697a7.366 7.366 0 1 0 0-14.731 7.366 7.366 0 0 0 0 14.73Z" fill="#F65B7D"/>
    <path d="M7.556 8.492a7.33 7.33 0 0 1-6.42-3.763A7.284 7.284 0 0 0 .19 8.33c0 4.066 3.3 7.366 7.366 7.366s7.365-3.3 7.365-7.366a7.284 7.284 0 0 0-.945-3.602 7.33 7.33 0 0 1-6.42 3.763Z" fill="#704760"/>
    <path d="M7.502 13.093a4.62 4.62 0 1 0 0-9.238 4.62 4.62 0 0 0 0 9.238Z" fill="#E6EAED"/>
    <path d="M7.502 13.343a4.869 4.869 0 1 0 0-9.738 4.869 4.869 0 0 0 0 9.738Z" fill="#E6EAED"/>
    <path d="M23.642 21.921a8.329 8.329 0 1 0 0-16.657 8.329 8.329 0 0 0 0 16.657Z" fill="#F6BA4A"/>
    <path d="M23.642 16.678a8.303 8.303 0 0 1-7.9-5.707 8.5 8.5 0 0 0-.429 2.621 8.327 8.327 0 0 0 8.33 8.329 8.327 8.327 0 0 0 8.328-8.329c0-.91-.143-1.8-.428-2.621-1.106 3.3-4.227 5.707-7.9 5.707Z" fill="#AE8E99"/>
    <path d="M23.57 19.282a5.19 5.19 0 1 0 0-10.38 5.19 5.19 0 0 0 0 10.38Z" fill="#E6EAED"/>
    <path d="M23.642 16.678c-1.98 0-3.78-.678-5.207-1.837a5.176 5.176 0 0 0 5.136 4.44c2.568 0 4.69-1.872 5.118-4.315a8.323 8.323 0 0 1-5.047 1.712Z" fill="#DBE0E4"/>
    <path d="M8.145 9.259a.33.33 0 0 0 .214-.125.426.426 0 0 0 .124-.232.468.468 0 0 0-.035-.268.348.348 0 0 0-.179-.178c-.089-.036-.178-.054-.267-.036-.054.018-.107.054-.178.072-.054.017-.09.053-.143.071l-.357.785c.214-.054.428-.09.642-.09a.302.302 0 0 1 .179 0ZM7.912 8.01c.232-.053.446-.089.678-.107v-.035a1.54 1.54 0 0 0 .678-.393l.125-.125V6.262H5.38V7.35h2.8l-.268.66ZM7.573 9.919h-.089c-.143 0-.286.017-.428.035l-.75 1.712h1.231l.767-1.783c-.25.053-.481.071-.731.036ZM22.625 14.965c.09-.018.16-.035.25-.035l-.054-3.14a.973.973 0 0 0-.588.41.84.84 0 0 0-.143.536 1.21 1.21 0 0 1-.125.357c-.018.035-.036.053-.053.089a1.039 1.039 0 0 1-.304.32l.036 1.998c.036-.035.071-.053.09-.089a1.84 1.84 0 0 1 .891-.446ZM23.57 12.308l1.337-.018.036 2.55a2.12 2.12 0 0 0 1.088-.552c.036-.036.09-.072.125-.107l-.054-3.068-2.568.036.036 1.16ZM25.622 15.59a.839.839 0 0 0-.143.535c-.018.124-.072.25-.125.356-.018.036-.036.054-.053.09-.09.124-.197.231-.321.32v.107l1.23-.017-.036-1.802a1.06 1.06 0 0 0-.552.41ZM22.893 16.873l-.035-1.622a1.763 1.763 0 0 0-.535.553c-.09.142-.143.303-.179.481a.893.893 0 0 0-.517.125l.018.66 1.141-.018c.054-.054.072-.107.107-.178ZM20.485 12.361c.071-.053.16-.107.232-.16.25-.107.481-.285.66-.517l.018-.036.124-.196c.268-.036.518-.125.75-.268l-2.034.036.018 1.16.232-.019Z" fill="#224461"/>
    <path d="M10.48 31.034c5.772 0 10.451-4.679 10.451-10.45 0-5.772-4.679-10.451-10.45-10.451-5.773 0-10.452 4.679-10.452 10.45 0 5.772 4.68 10.451 10.451 10.451Z" fill="#9481FF"/>
    <path d="M10.587 25.684c-4.904 0-9.024-3.389-10.148-7.954-.25.91-.392 1.872-.392 2.853 0 5.76 4.672 10.451 10.45 10.451 5.761 0 10.452-4.672 10.452-10.45 0-.857-.107-1.695-.304-2.497-1.266 4.387-5.278 7.597-10.058 7.597Z" fill="#756AE2"/>
    <path d="M12.709 23.508a7.298 7.298 0 0 0 1.783-1.338 7.315 7.315 0 0 0 1.302-1.747c.018-.054.054-.09.072-.143-.75-3.05-3.478-5.315-6.76-5.315a6.968 6.968 0 0 0-6.937 6.367 7.772 7.772 0 0 1 3.478-1.123 7.3 7.3 0 0 0-1.784 1.337 7.318 7.318 0 0 0-1.302 1.748 1.734 1.734 0 0 0-.089.196c-.018.036-.018.054-.036.09l-.053.106a6.95 6.95 0 0 0 6.723 5.172c3.656 0 6.653-2.817 6.938-6.42a6.89 6.89 0 0 1-3.335 1.07Z" fill="#E6EAED"/>
    <path d="M10.587 25.684c-2.942 0-5.6-1.213-7.49-3.174-.178.267-.357.535-.517.82a1.734 1.734 0 0 0-.09.196c-.017.036-.017.054-.035.09l-.054.106a6.95 6.95 0 0 0 6.724 5.172 6.942 6.942 0 0 0 6.51-4.512 10.464 10.464 0 0 1-5.048 1.302Z" fill="#B6BCC1"/>
    <path d="M9.178 21.582c-.071.072-.356.303-.66.696.054-.446.464-.981.607-1.16 0 0 .196-.285.463-.57.286-.303.839-.892 1.392-1.766-.09.928-.82 2.033-1.035 2.337a.525.525 0 0 1-.053.07v.019c-.036.035-.072.053-.107.071-.036.018-.072.018-.107.018a1.177 1.177 0 0 0-.5.285Zm.143 2.586a2.189 2.189 0 0 0 1.16-.588c.16-.143.338-.25.534-.34v-3.334a1.122 1.122 0 0 0-.214 1.07l-.018.018c-.16.178-.338.32-.553.41a2.066 2.066 0 0 1-.57.143c-.179.089-.34.196-.464.338l-.018.018v1.588H6.842l2.265-3.335c.071-.143.16-.286.267-.41.197-.232.464-.393.75-.482.053-.018.089-.054.124-.107a.486.486 0 0 0 .107-.214.34.34 0 0 0-.035-.232c.124-.018.25-.054.356-.107a.954.954 0 0 0 .268-.268l.053-.107c.179-.07.5-.214.75-.445.463-.446.624-.785.624-.785s-.643.392-1.32.606a9.84 9.84 0 0 1-1.249.321H8.59L4.79 23.508v1.695H7.52l-.232.588s.606-.178.98-.606c.054-.054.072-.09.072-.125a.982.982 0 0 0 .143-.107c.267-.107.5-.285.66-.553l.017-.036.16-.196Zm2.675-1.747c-.143.748-.553.998-.785 1.39l-.107.161c-.089.16-.142.321-.178.5a.96.96 0 0 0-.874.463.89.89 0 0 0-.143.553c-.017.125-.053.25-.124.375-.018.035-.036.07-.054.089a1.08 1.08 0 0 1-.339.356.602.602 0 0 1-.214.107v.34h1.82v-1.57h1.087V23.49c.054-.357.054-.75-.089-1.07ZM22.804 17.052l-1.926.285.785-.927 1.141.642Z" fill="#224461"/>
  </g>
  <defs>
    <clipPath id="a">
      <path d="M0 0h32v32H0z" fill="#fff"/>
    </clipPath>
  </defs>
</svg>