<?xml version="1.0" encoding="utf-8"?>
<svg xmlns="http://www.w3.org/2000/svg" fill="none" height="32" viewBox="0 0 32 32" width="32">
<path clip-rule="evenodd" d="M15.9808 3.76172C9.19566 3.76172 3.69519 9.26217 3.69519 16.0473C3.69519 22.8325 9.19566 28.3329 15.9808 28.3329C22.766 28.3329 28.2664 22.8325 28.2664 16.0473C28.2664 9.26217 22.766 3.76172 15.9808 3.76172ZM1.69519 16.0473C1.69519 8.1576 8.0911 1.76172 15.9808 1.76172C23.8705 1.76172 30.2664 8.1576 30.2664 16.0473C30.2664 23.937 23.8705 30.3329 15.9808 30.3329C8.09109 30.3329 1.69519 23.937 1.69519 16.0473Z" fill="#F4D220" fill-opacity="0.3" fill-rule="evenodd"/>
<path clip-rule="evenodd" d="M28.245 15.3161C26.0486 11.0843 21.5012 7.84845 17.7941 9.57634C14.7182 11.0215 15.0495 14.5201 15.3918 18.1343L15.3918 18.1343C15.5423 19.7237 15.6949 21.3354 15.5608 22.8047C15.33 25.3147 14.6958 26.9962 13.8807 28.154C14.5631 28.2716 15.2648 28.3328 15.9808 28.3328C22.7659 28.3328 28.2663 22.8323 28.2663 16.0472C28.2663 15.8017 28.2591 15.558 28.245 15.3161ZM6.0448 8.81987C8.2636 8.25556 10.4819 7.36989 11.8767 5.85395C12.2765 5.41952 12.578 4.84654 12.7766 4.18359C10.0348 4.92231 7.67234 6.58621 6.0448 8.81987Z" fill="#F4D220" fill-rule="evenodd"/>
</svg>