<?xml version="1.0" encoding="utf-8"?>
<svg xmlns="http://www.w3.org/2000/svg" fill="none" height="139" viewBox="0 0 292 139" width="292">
<path d="M267.12 29.8669C265.866 24.3686 263.49 19.6266 260.047 15.7831C253.517 8.47876 243.659 4.26162 230.732 3.24737C225.029 2.80253 219.237 2.39327 213.525 2.03739C213.24 2.0196 212.947 2.0107 212.662 2.0107C209.326 2.0107 206.319 3.21179 203.961 5.48939C202.297 7.09973 200.251 9.97344 199.993 14.582L197.947 49.9739C196.745 49.9117 195.553 49.8583 194.352 49.8049L195.829 11.0411C195.927 8.6389 195.055 6.3346 193.391 4.54632C191.131 2.12636 188.062 1.33454 185.642 0.907486C183.542 0.542713 180.918 0.311392 177.608 0.222423H177.599C176.71 0.195732 175.847 0.186836 175.055 0.186836C171.745 0.186836 169.174 0.400361 167.208 0.845206C166.887 0.916382 166.576 0.996455 166.274 1.08542C165.019 0.46264 163.631 0.11566 162.19 0.0978666C157.323 0.0266913 152.394 0 147.528 0C140.882 0 134.147 0.0622789 127.51 0.186836C126.629 0.204629 125.766 0.338083 124.938 0.587197C124.538 0.516021 124.191 0.471536 123.933 0.444845C122.43 0.25801 120.535 0.169041 118.132 0.169041C116.985 0.169041 115.703 0.186836 114.316 0.23132C112.198 0.293599 109.502 0.533815 106.317 0.925279C104.2 1.19219 102.581 1.53027 101.219 2.0107C95.9968 3.84347 94.8669 7.80259 94.6178 9.42183C94.6 9.54638 94.5822 9.67984 94.5733 9.8044C94.5466 10.0624 94.5199 10.3204 94.4933 10.5873C94.2797 9.92005 94.0662 9.25279 93.8527 8.59441C93.7637 8.30971 93.648 8.02501 93.5235 7.74921C92.8117 6.16556 90.9345 3.36303 86.4327 2.40217C85.0892 2.11746 83.4789 1.97511 81.5127 1.97511C80.3383 1.97511 78.9948 2.0285 77.5091 2.12636C74.5108 2.32209 72.162 2.65128 70.3381 3.11392C68.9591 3.46979 67.7936 3.91464 66.7794 4.49294C64.5463 5.7652 62.9715 7.74921 62.322 10.0713C62.2598 10.2848 62.2153 10.5073 62.1708 10.7297C62.1352 10.9076 62.0996 11.0856 62.0729 11.2635C61.4234 9.43962 59.6441 6.3257 54.8575 5.23138C53.4073 4.8933 51.708 4.74205 49.5105 4.74205C47.3307 4.74205 44.5994 4.9022 41.3876 5.22249H41.3787C37.9356 5.56947 35.2932 5.92534 33.3003 6.30791C32.0725 6.54813 31.0672 6.79724 30.2309 7.08194C27.8821 7.88266 26.1294 9.23499 25.0262 11.1033C23.834 13.114 23.5404 15.534 24.1988 17.7493C29.9729 38.2745 35.6135 59.1289 40.9783 79.743C41.0228 79.912 41.0762 80.09 41.1296 80.259C41.7613 82.163 43.6118 85.5527 48.9055 86.8694C50.7116 87.3143 52.8646 87.5456 55.6938 87.5723C55.7294 87.5723 55.7561 87.5723 55.7917 87.5723C55.9163 87.5723 56.0408 87.5723 56.1654 87.5634C58.1761 87.4744 60.2313 87.3854 62.2598 87.2965C62.3843 87.2876 62.5178 87.2876 62.6423 87.2698C65.0178 87.0652 67.4111 86.7538 69.7776 86.3534C69.8666 86.3356 69.9467 86.3267 70.0357 86.3089C72.8026 85.7484 74.8756 85.1256 76.566 84.3516C79.5109 82.9993 81.1301 81.1665 82.0109 79.485C83.212 81.2555 85.3294 83.106 89.075 84.0224C91.1747 84.5384 93.737 84.7787 97.1445 84.7787C98.4791 84.7787 99.9649 84.7431 101.557 84.663C103.968 84.5473 106.985 84.1826 110.766 83.5331C113.132 83.1238 114.938 82.6434 116.451 81.9939C118.542 81.1042 119.947 79.9298 120.899 78.7376C122.75 81.7092 125.775 83.4619 129.102 83.4619C129.165 83.4619 129.218 83.4619 129.28 83.4619C135.339 83.3462 141.478 83.2929 147.537 83.2929C152.11 83.2929 156.754 83.3285 161.327 83.3907C161.371 83.3907 161.416 83.3907 161.46 83.3907C162.839 83.3907 164.183 83.0882 165.419 82.5188C166.879 83.1594 168.471 83.5153 170.161 83.5598C179.877 83.7822 189.726 84.1559 199.441 84.6719C199.61 84.6808 199.779 84.6808 199.939 84.6808C201.221 84.6808 202.439 84.4317 203.578 83.9512C205.153 84.6719 206.941 85.0989 208.925 85.2235C214.308 85.5616 219.771 85.953 225.144 86.3801C226.692 86.5047 228.232 86.5669 229.7 86.5669C240.794 86.5669 249.735 83.0082 256.284 75.9885C259.486 72.5543 262.084 68.2749 264.006 63.2659C265.803 58.5861 267.067 53.1234 267.761 47.0202C267.761 47.0113 267.761 47.0024 267.761 46.9935C268.481 40.6233 268.259 34.867 267.12 29.8669ZM126.415 51.0149C126.691 49.2889 126.967 47.5629 127.243 45.8369L127.305 50.828C127.003 50.8725 126.709 50.9348 126.415 51.0149Z" fill="url(#paint0_linear_1740_46509)"/>
<path d="M260.038 36.9311C260.091 28.8438 258.089 22.4914 253.979 17.8917C248.934 12.2422 240.936 8.89694 230.1 8.04284C224.415 7.59799 218.721 7.19763 213.027 6.84176C211.665 6.75279 210.527 7.15315 209.619 8.02505C208.712 8.89694 208.213 10.1336 208.124 11.7262C207.021 30.8367 205.909 49.9562 204.806 69.0667C204.797 69.2536 204.788 69.4315 204.797 69.6095C204.797 69.6628 204.797 69.7251 204.797 69.7785C204.797 69.8319 204.797 69.8942 204.797 69.9475C204.797 70.0009 204.797 70.0632 204.797 70.1166C204.797 70.17 204.797 70.2322 204.797 70.2856C204.797 70.339 204.797 70.4013 204.797 70.4547C204.797 70.508 204.797 70.5703 204.797 70.6237C204.797 70.6771 204.797 70.7394 204.797 70.7927C204.797 70.8461 204.797 70.9084 204.797 70.9618C204.797 71.0152 204.797 71.0774 204.797 71.1308C204.797 71.1842 204.797 71.2465 204.797 71.2999C204.797 71.3532 204.797 71.4155 204.797 71.4689C204.797 71.5223 204.797 71.5846 204.797 71.6379C204.797 71.6913 204.797 71.7536 204.797 71.807C204.797 71.8604 204.797 71.9227 204.797 71.976C204.797 72.0294 204.797 72.0917 204.797 72.1451C204.797 72.1985 204.797 72.2607 204.797 72.3141C204.797 72.3675 204.797 72.4298 204.797 72.4832C204.797 72.5365 204.797 72.5988 204.797 72.6522C204.797 72.7056 204.797 72.7679 204.797 72.8212C204.779 75.5081 206.327 76.9405 209.441 77.1362C214.904 77.4832 220.358 77.8658 225.811 78.3017C245.758 79.921 257.031 69.5027 259.691 46.1394C259.922 44.0486 260.038 42.0468 260.047 40.1518C260.047 40.0984 260.047 40.045 260.047 39.9827C260.047 39.9294 260.047 39.876 260.047 39.8137C260.047 39.7603 260.047 39.7069 260.047 39.6447C260.047 39.5913 260.047 39.5379 260.047 39.4756C260.047 39.4222 260.047 39.3689 260.047 39.3066C260.047 39.2532 260.047 39.1998 260.047 39.1375C260.047 39.0842 260.047 39.0308 260.047 38.9685C260.047 38.9151 260.047 38.8617 260.047 38.7995C260.047 38.7461 260.047 38.6927 260.047 38.6304C260.047 38.577 260.047 38.5237 260.047 38.4614C260.047 38.408 260.047 38.3546 260.047 38.2923C260.047 38.239 260.047 38.1856 260.047 38.1233C260.047 38.0699 260.047 38.0165 260.047 37.9543C260.047 37.9009 260.047 37.8475 260.047 37.7852C260.047 37.7318 260.047 37.6784 260.047 37.6162C260.047 37.5628 260.047 37.5094 260.047 37.4471C260.047 37.3937 260.047 37.3404 260.047 37.2781C260.047 37.2247 260.047 37.1713 260.047 37.109C260.038 37.0379 260.038 36.9845 260.038 36.9311ZM234.753 54.5292C232.671 56.9758 229.86 58.0435 226.283 57.7677C225.313 57.6876 224.735 57.4741 224.575 57.1093C224.566 57.0826 224.557 57.0559 224.539 57.0292C225.242 47.8031 225.954 38.5681 226.666 29.342C227.004 29.3687 227.333 29.3954 227.671 29.4221C231.959 29.7513 235.011 30.9435 236.817 32.9631C238.009 34.2887 238.685 36.5041 238.854 39.6002C238.819 40.2941 238.774 41.0148 238.703 41.771C238.16 47.8298 236.835 52.0914 234.753 54.5292ZM125.045 6.09442C125.045 6.10331 125.045 6.11221 125.045 6.11221C125.054 6.15669 125.063 6.21008 125.045 6.25456C125.045 6.26346 125.045 6.27235 125.045 6.27235C125.054 6.31684 125.063 6.37022 125.045 6.4147C125.045 6.4236 125.045 6.4325 125.045 6.4325C125.054 6.47698 125.063 6.53036 125.045 6.57485C125.045 6.58375 125.045 6.59264 125.045 6.59264C125.054 6.63713 125.063 6.69051 125.045 6.73499C125.045 6.74389 125.045 6.75279 125.045 6.75279C125.054 6.79727 125.063 6.85065 125.045 6.89514C125.045 6.90403 125.045 6.91293 125.045 6.91293C125.054 6.95742 125.063 7.0108 125.045 7.05528C125.045 7.06418 125.045 7.07308 125.045 7.07308C125.054 7.11756 125.063 7.17094 125.045 7.21543C125.045 7.22432 125.045 7.23322 125.045 7.23322C125.054 7.2777 125.063 7.33109 125.045 7.37557C125.045 7.38447 125.045 7.39336 125.045 7.39336C125.054 7.43785 125.063 7.49123 125.045 7.53572C125.045 7.54461 125.045 7.55351 125.045 7.55351C125.054 7.59799 125.063 7.65137 125.045 7.69586C125.045 7.70476 125.045 7.71365 125.045 7.71365C125.054 7.75814 125.063 7.81152 125.045 7.856C125.045 7.8649 125.045 7.8738 125.045 7.8738C125.054 7.91828 125.063 7.97166 125.045 8.01615C125.045 8.02504 125.045 8.03394 125.045 8.03394C125.054 8.07843 125.063 8.13181 125.045 8.17629C125.045 8.18519 125.045 8.19409 125.045 8.19409C125.054 8.23857 125.063 8.29195 125.045 8.33644C125.045 8.34533 125.045 8.35423 125.045 8.35423C125.054 8.39872 125.063 8.4521 125.045 8.49658C125.045 8.50548 125.045 8.51438 125.045 8.51438C125.054 8.55886 125.063 8.61224 125.045 8.65673C125.045 8.66562 125.045 8.67452 125.045 8.67452C125.054 8.719 125.063 8.77239 125.045 8.81687C125.045 8.82577 125.045 8.83466 125.045 8.83466C125.054 8.87915 125.063 8.93253 125.045 8.97701C125.045 8.98591 125.045 8.99481 125.045 8.99481C125.054 9.03929 125.063 9.09267 125.045 9.13716C125.045 9.14606 125.045 9.15495 125.045 9.15495C125.054 9.19944 125.063 9.25282 125.045 9.2973C121.371 30.5342 117.945 51.7978 114.769 73.0704C114.547 74.0312 112.741 74.7964 109.369 75.3746C105.997 75.9529 103.265 76.2999 101.157 76.3978C93.2386 76.7715 89.0392 76.1487 88.5499 74.3871C85.8541 65.7571 83.0961 57.136 80.2758 48.5327C78.4252 57.4207 76.6369 66.3087 74.9109 75.2056C74.7419 76.3711 72.5621 77.3587 68.3984 78.2039C66.2453 78.5686 64.0834 78.8445 61.9214 79.0313C59.8751 79.1114 57.8289 79.2003 55.7737 79.2982C51.5298 79.2448 49.2166 78.6843 48.843 77.5633C43.4426 56.8958 37.8197 36.1482 32.0011 15.4362C31.9833 15.3828 31.9833 15.3294 32.0011 15.276C32.0011 15.276 32.0011 15.276 32.0011 15.2671C31.9833 15.2137 31.9833 15.1604 32.0011 15.107C32.0011 15.107 32.0011 15.107 32.0011 15.0981C31.9833 15.0447 31.9833 14.9913 32.0011 14.9379C32.0011 14.9379 32.0011 14.9379 32.0011 14.929C31.9833 14.8757 31.9833 14.8223 32.0011 14.7689C32.0011 14.7689 32.0011 14.7689 32.0011 14.76C31.9833 14.7066 31.9833 14.6532 32.0011 14.5999C32.0011 14.5999 32.0011 14.5999 32.0011 14.591C31.9833 14.5376 31.9833 14.4842 32.0011 14.4308C32.0011 14.4308 32.0011 14.4308 32.0011 14.4219C31.9833 14.3685 31.9833 14.3152 32.0011 14.2618C32.0011 14.2618 32.0011 14.2618 32.0011 14.2529C31.9833 14.1995 31.9833 14.1461 32.0011 14.0927C32.0011 14.0927 32.0011 14.0927 32.0011 14.0838C31.9833 14.0305 31.9833 13.9771 32.0011 13.9237C32.0011 13.9237 32.0011 13.9237 32.0011 13.9148C31.9833 13.8614 31.9833 13.808 32.0011 13.7547C32.0011 13.7547 32.0011 13.7547 32.0011 13.7458C31.9833 13.6924 31.9833 13.639 32.0011 13.5856C32.0011 13.5856 32.0011 13.5856 32.0011 13.5767C31.9833 13.5233 31.9833 13.47 32.0011 13.4166C32.0011 13.4166 32.0011 13.4166 32.0011 13.4077C31.9833 13.3543 31.9833 13.3009 32.0011 13.2475C32.0011 13.2475 32.0011 13.2475 32.0011 13.2386C31.9833 13.1853 31.9833 13.1319 32.0011 13.0785C32.0011 13.0785 32.0011 13.0785 32.0011 13.0696C31.9833 13.0162 31.9833 12.9628 32.0011 12.9094C32.0011 12.9094 32.0011 12.9094 32.0011 12.9006C31.9833 12.8472 31.9833 12.7938 32.0011 12.7404C32.0011 12.7404 32.0011 12.7404 32.0011 12.7315C31.9833 12.6781 31.9833 12.6247 32.0011 12.5714C32.0011 12.5714 32.0011 12.5714 32.0011 12.5625C31.9833 12.5091 31.9833 12.4557 32.0011 12.4023C32.0011 12.4023 32.0011 12.4023 32.0011 12.3934C31.9833 12.34 31.9833 12.2867 32.0011 12.2333C32.0011 12.2333 32.0011 12.2333 32.0011 12.2244C31.9833 12.171 31.9833 12.1176 32.0011 12.0642C32.0011 12.0642 32.0011 12.0642 32.0011 12.0553C31.7164 11.3881 35.115 10.6407 42.1881 9.92009C50.0174 9.13716 54.0833 9.40407 54.3946 10.5963C57.2417 23.8882 60.0353 37.1268 62.7666 50.3832C65.0887 36.5485 67.5532 22.7138 70.1689 8.88805C70.4358 7.90939 73.0604 7.23322 78.0426 6.89514C83.016 6.56595 85.7029 6.86845 86.0943 7.74034C90.436 21.2014 94.6354 34.6802 98.7013 48.1946C99.9468 34.5556 101.264 20.9167 102.66 7.2866C102.767 6.58375 104.315 6.03214 107.305 5.66736C110.294 5.29369 112.714 5.08906 114.556 5.03568C121.735 4.80436 125.232 5.20472 125.045 6.09442ZM164.707 12.7849C164.707 12.8383 164.707 12.8917 164.707 12.9539C164.707 13.0073 164.707 13.0607 164.707 13.123C164.707 13.1764 164.707 13.2297 164.707 13.292C164.707 13.3454 164.707 13.3988 164.707 13.4611C164.707 13.5144 164.707 13.5678 164.707 13.6301C164.707 13.6835 164.707 13.7369 164.707 13.7991C164.707 13.8525 164.707 13.9059 164.707 13.9682C164.707 14.0216 164.707 14.0749 164.707 14.1372C164.707 14.1906 164.707 14.244 164.707 14.3063C164.707 14.3596 164.707 14.413 164.707 14.4753C164.707 14.5287 164.707 14.5821 164.707 14.6443C164.707 14.6977 164.707 14.7511 164.707 14.8134C164.707 14.8668 164.707 14.9202 164.707 14.9824C164.707 15.0358 164.707 15.0892 164.707 15.1515C164.707 15.2049 164.707 15.2582 164.707 15.3205C164.707 15.3739 164.707 15.4273 164.707 15.4896C164.707 15.5429 164.707 15.5963 164.707 15.6586C164.707 15.712 164.707 15.7654 164.707 15.8276C164.707 15.881 164.707 15.9344 164.707 15.9967C164.707 16.1835 164.707 16.3615 164.707 16.5483C164.681 17.954 164.529 19.3241 164.236 20.6587C163.782 23.3989 162.99 24.7601 161.852 24.7423C159.601 24.7156 157.35 24.689 155.099 24.6712C155.028 34.9204 154.948 45.1785 154.876 55.4278C157.145 55.4456 159.414 55.4723 161.674 55.499C162.777 55.5168 163.542 56.9047 163.942 59.6538C164.156 60.8727 164.263 62.1094 164.263 63.3816C164.263 63.435 164.263 63.4884 164.263 63.5507C164.263 63.604 164.263 63.6574 164.263 63.7197C164.263 63.7731 164.263 63.8265 164.263 63.8887C164.263 63.9421 164.263 63.9955 164.263 64.0578C164.263 64.1112 164.263 64.1645 164.263 64.2268C164.263 64.2802 164.263 64.3336 164.263 64.3959C164.263 64.4492 164.263 64.5026 164.263 64.5649C164.263 64.6183 164.263 64.6717 164.263 64.7339C164.263 64.7873 164.263 64.8407 164.263 64.903C164.263 64.9564 164.263 65.0098 164.263 65.072C164.263 65.1254 164.263 65.1788 164.263 65.2411C164.263 65.2945 164.263 65.3478 164.263 65.4101C164.263 65.4635 164.263 65.5169 164.263 65.5792C164.263 65.6325 164.263 65.6859 164.263 65.7482C164.263 65.8016 164.263 65.855 164.263 65.9172C164.263 65.9706 164.263 66.024 164.263 66.0863C164.263 66.1397 164.263 66.193 164.263 66.2553C164.263 66.3087 164.263 66.3621 164.263 66.4244C164.263 66.4777 164.263 66.5311 164.263 66.5934C164.263 66.7802 164.263 66.9671 164.263 67.1539C164.236 68.5596 164.085 69.9297 163.809 71.2643C163.311 74.0045 162.528 75.3569 161.442 75.348C150.668 75.1967 139.894 75.2234 129.12 75.4191C128.034 75.4369 127.269 74.0846 126.824 71.3444C126.54 70.0098 126.38 68.6397 126.353 67.234C126.353 67.0383 126.344 66.8336 126.353 66.6379C126.353 66.5845 126.353 66.5311 126.353 66.4688C126.353 66.4155 126.353 66.3621 126.353 66.2998C126.353 66.2464 126.353 66.193 126.353 66.1308C126.353 66.0774 126.353 66.024 126.353 65.9617C126.353 65.9083 126.353 65.855 126.353 65.7927C126.353 65.7393 126.353 65.6859 126.353 65.6236C126.353 65.5703 126.353 65.5169 126.353 65.4546C126.353 65.4012 126.353 65.3478 126.353 65.2856C126.353 65.2322 126.353 65.1788 126.353 65.1165C126.353 65.0631 126.353 65.0098 126.353 64.9475C126.353 64.8941 126.353 64.8407 126.353 64.7784C126.353 64.7251 126.353 64.6717 126.353 64.6094C126.353 64.556 126.353 64.5026 126.353 64.4404C126.353 64.387 126.353 64.3336 126.353 64.2713C126.353 64.2179 126.353 64.1646 126.353 64.1023C126.353 64.0489 126.353 63.9955 126.353 63.9332C126.353 63.8798 126.353 63.8265 126.353 63.7642C126.353 63.7108 126.353 63.6574 126.353 63.5951C126.353 63.5418 126.353 63.4884 126.353 63.4261C126.353 62.1716 126.451 60.935 126.655 59.7339C126.985 56.9847 127.705 55.5968 128.808 55.5701C131.042 55.5256 133.266 55.4901 135.499 55.4634C135.374 45.2141 135.25 34.9649 135.134 24.7068C132.75 24.7334 130.365 24.769 127.981 24.8135C126.842 24.8313 126.006 23.479 125.472 20.7476C125.241 19.4131 125.107 18.043 125.081 16.6373C125.072 16.4237 125.072 16.2102 125.072 15.9967C125.072 15.9433 125.072 15.8899 125.072 15.8276C125.072 15.7743 125.072 15.7209 125.072 15.6586C125.072 15.6052 125.072 15.5518 125.072 15.4896C125.072 15.4362 125.072 15.3828 125.072 15.3205C125.072 15.2671 125.072 15.2137 125.072 15.1515C125.072 15.0981 125.072 15.0447 125.072 14.9824C125.072 14.929 125.072 14.8757 125.072 14.8134C125.072 14.76 125.072 14.7066 125.072 14.6443C125.072 14.591 125.072 14.5376 125.072 14.4753C125.072 14.4219 125.072 14.3685 125.072 14.3063C125.072 14.2529 125.072 14.1995 125.072 14.1372C125.072 14.0838 125.072 14.0305 125.072 13.9682C125.072 13.9148 125.072 13.8614 125.072 13.7991C125.072 13.7458 125.072 13.6924 125.072 13.6301C125.072 13.5767 125.072 13.5233 125.072 13.4611C125.072 13.4077 125.072 13.3543 125.072 13.292C125.072 13.2386 125.072 13.1853 125.072 13.123C125.072 13.0696 125.072 13.0162 125.072 12.9539C125.072 12.9006 125.072 12.8472 125.072 12.7849C125.063 11.5482 125.134 10.3293 125.294 9.13716C125.712 6.38801 126.504 4.9912 127.661 4.97341C139.129 4.75988 150.597 4.72429 162.074 4.88444C163.231 4.90223 163.996 6.28125 164.36 9.03929C164.592 10.2671 164.699 11.5215 164.707 12.7849ZM203.213 62.3763C203.213 62.4296 203.213 62.483 203.213 62.5453C203.213 62.5987 203.213 62.6521 203.213 62.7144C203.213 62.7677 203.213 62.8211 203.213 62.8834C203.213 62.9368 203.213 62.9902 203.213 63.0524C203.213 63.1058 203.213 63.1592 203.213 63.2215C203.213 63.2749 203.213 63.3282 203.213 63.3905C203.213 63.4439 203.213 63.4973 203.213 63.5596C203.213 63.6129 203.213 63.6663 203.213 63.7286C203.213 63.782 203.213 63.8354 203.213 63.8976C203.213 63.951 203.213 64.0044 203.213 64.0667C203.213 64.1201 203.213 64.1734 203.213 64.2357C203.213 64.2891 203.213 64.3425 203.213 64.4048C203.213 64.4581 203.213 64.5115 203.213 64.5738C203.213 64.6272 203.213 64.6806 203.213 64.7429C203.213 64.7962 203.213 64.8496 203.213 64.9119C203.213 64.9653 203.213 65.0187 203.213 65.0809C203.213 65.1343 203.213 65.1877 203.213 65.25C203.213 65.3034 203.213 65.3567 203.213 65.419C203.213 65.4724 203.213 65.5258 203.213 65.5881C203.213 66.2108 203.195 66.8336 203.16 67.4564C203.071 68.9867 202.893 70.5436 202.608 72.1273C201.923 75.1611 201.007 76.638 199.859 76.5757C190.019 76.0508 180.179 75.6771 170.339 75.4547C168.933 75.4191 167.83 74.823 167.021 73.6575C166.229 72.5187 165.837 71.2376 165.846 69.8141C165.846 69.7607 165.846 69.7073 165.846 69.645C165.846 69.5917 165.846 69.5383 165.846 69.476C165.846 69.4226 165.846 69.3692 165.846 69.307C165.846 69.2536 165.846 69.2002 165.846 69.1379C165.846 69.0845 165.846 69.0312 165.846 68.9689C165.846 68.9155 165.846 68.8621 165.846 68.7998C165.846 68.7465 165.846 68.6931 165.846 68.6308C165.846 68.5774 165.846 68.524 165.846 68.4618C165.846 68.4084 165.846 68.355 165.846 68.2927C165.846 68.2393 165.846 68.186 165.846 68.1237C165.846 68.0703 165.846 68.0169 165.846 67.9546C165.846 67.9012 165.846 67.8479 165.846 67.7856C165.846 67.7322 165.846 67.6788 165.846 67.6166C165.846 67.5632 165.846 67.5098 165.846 67.4475C165.846 67.3941 165.846 67.3407 165.846 67.2785C165.846 67.2251 165.846 67.1717 165.846 67.1094C165.846 67.056 165.846 67.0027 165.846 66.9404C165.846 66.887 165.846 66.8336 165.846 66.7713C165.846 66.718 165.846 66.6646 165.846 66.6023C165.846 66.5133 165.846 66.4155 165.846 66.3265C166.211 46.4775 166.576 26.6374 166.949 6.78837C166.976 5.45384 170.446 4.83105 177.377 5.01789C184.307 5.22252 187.742 6.04103 187.697 7.37557C187.697 7.40226 187.697 7.42006 187.697 7.44675C187.697 7.47344 187.697 7.50902 187.697 7.54461C187.697 7.5713 187.697 7.5891 187.697 7.61579C187.697 7.64248 187.697 7.67807 187.697 7.71365C187.697 7.74034 187.697 7.75814 187.697 7.78483C187.697 7.81152 187.697 7.84711 187.697 7.88269C187.697 7.90939 187.697 7.92718 187.697 7.95387C187.697 7.98056 187.697 8.01615 187.697 8.05174C187.697 8.07843 187.697 8.09622 187.697 8.12291C187.697 8.1496 187.697 8.18519 187.697 8.22078C187.697 8.24747 187.697 8.26526 187.697 8.29195C187.697 8.31864 187.697 8.35423 187.697 8.38982C187.697 8.41651 187.697 8.4343 187.697 8.46099C187.697 8.48768 187.697 8.52327 187.697 8.55886C187.697 8.58555 187.697 8.60334 187.697 8.63003C187.697 8.65673 187.697 8.69231 187.697 8.7279C187.697 8.75459 187.697 8.77239 187.697 8.79908C187.697 8.82577 187.697 8.86135 187.697 8.89694C187.697 8.92363 187.697 8.94143 187.697 8.96812C187.697 8.99481 187.697 9.0304 187.697 9.06598C187.697 9.09267 187.697 9.11047 187.697 9.13716C187.697 9.16385 187.697 9.19944 187.697 9.23502C187.697 9.26172 187.697 9.27951 187.697 9.3062C187.697 9.33289 187.697 9.36848 187.697 9.40407C187.697 9.43076 187.697 9.44855 187.697 9.47524C187.697 9.50193 187.697 9.53752 187.697 9.57311C187.697 9.5998 187.697 9.61759 187.697 9.64428C187.697 9.67097 187.697 9.70656 187.697 9.74215C187.697 9.76884 187.697 9.78663 187.697 9.81332C187.697 9.84001 187.697 9.8756 187.697 9.91119C187.697 9.93788 187.697 9.95568 187.697 9.98237C187.697 10.0091 187.697 10.0446 187.697 10.0802C187.697 10.1069 187.697 10.1247 187.697 10.1514C187.697 10.1781 187.697 10.2137 187.697 10.2493C187.697 10.276 187.697 10.2938 187.697 10.3204C187.697 10.3471 187.697 10.3827 187.697 10.4183C187.697 10.445 187.697 10.4628 187.697 10.4895C187.697 10.5162 187.697 10.5518 187.697 10.5874C187.697 10.614 187.697 10.6318 187.697 10.6585C187.697 10.6852 187.697 10.7208 187.697 10.7564C187.145 25.2762 186.585 39.7959 186.033 54.3068C191.007 54.4936 195.971 54.7249 200.936 54.9918C202.11 55.0541 202.84 56.5933 203.124 59.6182C203.195 60.499 203.222 61.4332 203.213 62.3763Z" fill="#B678FF"/>
<path d="M125.045 6.09449C121.371 27.3314 117.945 48.595 114.769 69.8675C114.547 70.8284 112.741 71.5935 109.369 72.1718C105.997 72.7501 103.265 73.0971 101.157 73.195C93.2386 73.5687 89.0392 72.9459 88.5499 71.1843C85.8541 62.5543 83.0961 53.9332 80.2758 45.3299C78.4252 54.2179 76.6369 63.1059 74.9109 72.0028C74.7419 73.1683 72.5621 74.1559 68.3984 75.0011C66.2453 75.3658 64.0834 75.6416 61.9214 75.8285C59.8751 75.9085 57.8289 75.9975 55.7737 76.0954C51.5298 76.042 49.2166 75.4815 48.843 74.3605C43.4426 53.5684 37.8197 32.8208 32.0011 12.1177C31.7164 11.4504 35.115 10.7031 42.1881 9.98244C50.0174 9.19952 54.0833 9.46642 54.3946 10.6586C57.2417 23.8883 60.0353 37.1269 62.7666 50.3833C65.0887 36.5486 67.5532 22.7139 70.1689 8.88812C70.4358 7.90946 73.0604 7.2333 78.0426 6.89522C83.016 6.56603 85.7029 6.86853 86.0943 7.74042C90.436 21.2014 94.6354 34.6803 98.7013 48.1947C99.9468 34.5557 101.264 20.9167 102.66 7.28668C102.767 6.58383 104.315 6.03222 107.305 5.66744C110.294 5.29377 112.714 5.08914 114.556 5.03576C121.735 4.80444 125.232 5.2048 125.045 6.09449ZM162.074 4.90231C150.606 4.74216 139.129 4.76886 127.661 4.99128C126.495 5.00907 125.703 6.40589 125.294 9.15503C125.116 10.4985 125.045 11.8775 125.081 13.2743C125.107 14.68 125.241 16.0501 125.472 17.3847C126.006 20.116 126.833 21.4773 127.981 21.4506C130.365 21.4061 132.75 21.3705 135.134 21.3438C135.268 32.7052 135.41 44.0576 135.543 55.419C133.301 55.4457 131.059 55.4812 128.817 55.5257C127.714 55.5435 126.993 56.9314 126.664 59.6895C126.433 61.0329 126.335 62.4119 126.362 63.8087C126.388 65.2145 126.549 66.5846 126.833 67.9191C127.278 70.6505 128.034 72.0117 129.129 71.9939C139.903 71.7893 150.677 71.7715 161.451 71.9227C162.537 71.9405 163.328 70.5793 163.818 67.839C164.094 66.5045 164.245 65.1344 164.271 63.7287C164.298 62.323 164.191 60.9528 163.951 59.6094C163.542 56.8603 162.786 55.4723 161.682 55.4546C159.405 55.419 157.136 55.4012 154.859 55.3834C154.939 44.022 155.028 32.6607 155.108 21.3082C157.359 21.326 159.609 21.3527 161.86 21.3794C162.999 21.3972 163.791 20.036 164.245 17.2957C164.538 15.9612 164.699 14.591 164.716 13.1853C164.743 11.7796 164.627 10.4095 164.378 9.06606C163.996 6.29912 163.231 4.9201 162.074 4.90231ZM200.936 54.9474C195.927 54.6805 190.918 54.4492 185.909 54.2624C186.505 38.6394 187.101 23.0164 187.697 7.39344C187.75 6.05891 184.307 5.24039 177.377 5.03576C170.446 4.84003 166.967 5.47171 166.949 6.80625C166.585 26.6553 166.22 46.4954 165.846 66.3444C165.82 67.8124 166.211 69.1291 167.021 70.2946C167.83 71.4601 168.933 72.0562 170.339 72.0918C180.179 72.3231 190.028 72.6968 199.859 73.2128C201.007 73.2751 201.923 71.7893 202.608 68.7643C202.884 67.1807 203.071 65.6237 203.16 64.0934C203.249 62.5632 203.231 61.0596 203.124 59.5827C202.84 56.5489 202.101 55.0097 200.936 54.9474ZM259.682 42.7587C257.022 66.1308 245.749 76.5491 225.802 74.921C220.349 74.485 214.895 74.1025 209.432 73.7555C206.176 73.5509 204.637 71.9939 204.806 69.0668C205.909 49.9563 207.021 30.8368 208.124 11.7262C208.213 10.1337 208.712 8.89702 209.619 8.02512C210.527 7.15323 211.665 6.75287 213.027 6.84184C218.721 7.19771 224.406 7.59807 230.1 8.04292C240.936 8.89702 248.934 12.2423 253.979 17.8918C259.032 23.5413 260.892 31.851 259.682 42.7587ZM236.817 29.6268C235.011 27.6161 231.959 26.4239 227.671 26.0859C227.333 26.0592 227.004 26.0325 226.666 26.0058C225.936 35.5166 225.206 45.0363 224.477 54.5471C224.37 55.8816 224.406 56.7357 224.575 57.1005C224.744 57.4653 225.313 57.6877 226.283 57.7589C229.851 58.0435 232.662 56.967 234.753 54.5204C236.835 52.0737 238.16 47.821 238.703 41.7533C239.246 35.6945 238.623 31.6464 236.817 29.6268Z" fill="url(#paint1_linear_1740_46509)"/>
<path d="M289.869 102.902C289.113 102.306 288.126 101.79 286.853 101.318C284.798 100.571 282.512 100.064 280.065 99.8057C279.398 99.7345 278.739 99.6989 278.099 99.6989C275.492 99.6989 273.134 100.268 271.07 101.398C270.341 100.01 269.06 99.1117 267.565 98.9783C261.079 98.3733 254.495 97.8128 247.992 97.3056C247.885 97.2967 247.769 97.2967 247.654 97.2967C247.138 97.2967 246.648 97.3857 246.177 97.5637C245.038 97.1722 243.614 96.9765 241.862 96.8519C241.034 96.7896 240.296 96.7629 239.664 96.7629C238.561 96.7629 237.707 96.8519 236.995 97.0387C235.153 97.5281 234.184 98.7203 233.81 99.9124C233.721 99.7256 233.641 99.5299 233.552 99.343C233.516 99.2719 233.49 99.2007 233.454 99.1384C232.378 97.1099 230.198 96.4782 228.65 96.1846C227.262 95.9177 226.007 95.7487 224.922 95.6864C224.281 95.6508 223.694 95.6241 223.187 95.6241C222.191 95.6241 221.417 95.6953 220.767 95.8554C220.562 95.8999 220.376 95.9622 220.189 96.0245C219.522 95.5885 218.792 95.3661 218.107 95.3305C212.751 95.0369 207.324 94.77 201.968 94.5387C201.888 94.5387 201.808 94.5298 201.737 94.5298C200.527 94.5298 199.459 94.948 198.641 95.6508C198.347 95.4551 198.018 95.2683 197.644 95.117C196.959 94.8323 196.123 94.6277 195.019 94.4675C193.356 94.2362 191.888 94.0939 190.651 94.0494C190.055 94.0316 189.486 94.0227 188.961 94.0227C187.252 94.0227 185.918 94.1294 184.877 94.343C182.786 94.7789 181.416 95.8021 180.802 97.3768C180.784 97.4124 180.776 97.4569 180.758 97.4925C180.366 98.6224 179.966 99.7434 179.574 100.882C179.174 99.6989 178.774 98.5156 178.373 97.3323C178.364 97.3145 178.356 97.2879 178.356 97.2701C177.324 94.4053 173.969 93.9871 172.706 93.8358C170.998 93.6223 169.583 93.5156 168.355 93.4978C168.053 93.4889 167.759 93.4889 167.475 93.4889C165.642 93.4889 164.245 93.5956 163.204 93.8181C159.592 94.5743 159.112 97.0743 159.067 98.0174C158.942 100.5 158.827 102.991 158.702 105.5C157.955 102.555 157.208 99.6188 156.46 96.6918C156.309 95.9889 155.962 95.3483 155.446 94.8234C154.281 93.649 152.768 93.5689 151.309 93.4889C150.206 93.4266 148.64 93.3999 146.656 93.3999C144.672 93.3999 143.106 93.4266 142.003 93.4889C140.544 93.5689 139.04 93.649 137.866 94.8234C137.35 95.3394 137.003 95.98 136.851 96.6651C136.3 98.7647 135.748 100.864 135.197 102.973L135.143 97.964C135.125 96.3359 134.102 94.3786 131.282 93.7736C130.392 93.5778 129.271 93.4889 127.759 93.4889C127.572 93.4889 127.367 93.4889 127.163 93.4978C123.978 93.5423 121.86 93.8536 120.481 95.2771C119.938 95.8377 119.574 96.5138 119.414 97.2434C119.316 97.0654 119.209 96.8875 119.111 96.7096C119.075 96.6384 119.031 96.5761 118.986 96.5138C117.741 94.5921 115.517 94.1561 113.942 93.9871C112.776 93.8714 111.709 93.8092 110.766 93.8092C110.57 93.8092 110.374 93.8092 110.187 93.8181C107.314 93.8981 105.392 94.2095 104.129 95.553C103.728 95.98 103.435 96.4693 103.248 96.9943C100.801 95.3127 97.5004 94.4586 93.4257 94.4586C92.9986 94.4586 92.5538 94.4675 92.1 94.4853C89.2441 94.601 86.3437 94.7344 83.4878 94.8679C82.3045 94.9213 81.4059 95.2594 80.7298 95.6686C80.5518 95.6063 80.3561 95.553 80.1604 95.5085C79.3774 95.3305 78.4077 95.2416 77.1265 95.2416C76.4859 95.2416 75.7475 95.2683 74.9468 95.3038C70.7029 95.5352 68.8613 96.0779 67.6424 97.448C67.4912 97.617 67.3666 97.7861 67.2421 97.964C66.6815 97.3056 65.8452 96.754 64.6797 96.4693C63.9235 96.2914 63.016 96.2024 61.8149 96.2024C61.0943 96.2024 60.258 96.238 59.3149 96.3003C55.0711 96.585 53.2383 97.1455 52.0372 98.5245C51.6013 99.0316 51.2988 99.6099 51.1386 100.233C48.2916 98.2665 44.9375 97.2701 41.1474 97.2701C40.5424 97.2701 39.9107 97.2967 39.288 97.3501C34.9107 97.7149 31.2362 99.2185 28.3448 101.852C28.2469 101.656 28.149 101.478 28.0334 101.3C27.1437 99.8946 25.7469 99.085 24.2166 99.085C24.0831 99.085 23.9497 99.0939 23.8162 99.1028C17.3215 99.7167 10.7467 100.384 4.26082 101.096C2.63268 101.274 1.26256 102.35 0.613083 103.987C0.301691 104.752 0.14155 105.633 0.0881689 106.763C0.0881689 106.781 0.0881689 106.799 0.0881689 106.825C0.0614781 107.644 0.0970669 108.48 0.194933 109.316C0.283902 110.153 0.435149 110.98 0.639778 111.772C0.648675 111.79 0.648671 111.808 0.657568 111.825C0.933372 112.84 1.27146 113.658 1.68961 114.308C2.5882 115.687 3.96722 116.478 5.48859 116.478C5.63984 116.478 5.79998 116.47 5.95123 116.452C6.48504 116.39 7.02776 116.336 7.57047 116.274L9.4833 134.459C9.62566 135.803 10.542 137.457 12.6773 138.08C13.3624 138.276 14.1542 138.374 15.1684 138.374C15.9514 138.374 16.8855 138.32 17.9976 138.205C19.7325 138.027 20.9781 137.813 21.939 137.511C22.713 137.271 23.3447 136.968 23.8607 136.577C25.0796 135.669 25.7202 134.263 25.5778 132.813L24.9372 126.327C25.9871 128.658 27.4106 130.616 29.2167 132.173C32.384 134.904 36.2096 136.292 40.578 136.292C41.1563 136.292 41.7613 136.265 42.3574 136.221C47.4375 135.803 51.5746 133.81 54.6351 130.295C54.9821 129.895 55.3113 129.468 55.6138 129.032C56.3166 129.851 57.1263 130.598 58.0426 131.247C60.8808 133.276 64.3328 134.308 68.3186 134.308C68.799 134.308 69.3061 134.29 69.8044 134.263C74.0838 134.005 77.5714 132.742 80.187 130.509C80.534 131.203 81.0767 131.79 81.7796 132.199C82.2511 132.475 82.785 132.671 83.4166 132.795C84.0928 132.929 84.9113 132.991 86.0145 132.991C86.575 132.991 87.2156 132.973 87.9274 132.938C89.5644 132.867 90.7477 132.733 91.6552 132.546C92.3847 132.395 92.963 132.182 93.4701 131.897C94.0662 131.568 94.5556 131.123 94.9114 130.607C96.157 131.906 97.8563 132.609 99.7958 132.609C99.8937 132.609 100 132.609 100.098 132.6C101.718 132.537 103.435 131.897 105.321 130.651C105.89 131.149 106.655 131.55 107.652 131.763C108.453 131.941 109.449 132.021 110.784 132.021C111.113 132.021 111.469 132.012 111.842 132.004C113.47 131.959 114.663 131.843 115.588 131.639C118.31 131.043 119.156 129.379 119.414 128.267C119.565 128.543 119.716 128.81 119.876 129.085C121.166 131.399 123.951 131.585 126.923 131.585C127.163 131.585 127.421 131.585 127.679 131.577C129.369 131.55 130.606 131.434 131.576 131.203C131.816 131.149 132.038 131.078 132.252 131.007C132.474 131.069 132.732 131.141 133.026 131.203C133.951 131.416 135.117 131.514 136.718 131.514C136.816 131.514 136.914 131.514 137.012 131.514C138.738 131.505 140.099 131.327 141.175 130.972C143.898 130.082 144.645 128.116 144.841 127.208C145.037 126.372 145.232 125.527 145.419 124.69C145.739 124.69 146.505 124.69 146.576 124.69C146.816 125.642 147.056 126.585 147.296 127.537C147.546 128.543 148.364 130.322 151.015 131.123C152.056 131.434 153.364 131.594 155.01 131.603H155.152C156.024 131.603 157.128 131.55 158.533 131.443C159.414 131.372 160.064 131.292 160.597 131.167C160.775 131.132 160.935 131.078 161.087 131.034C161.612 131.221 162.199 131.363 162.893 131.47C162.911 131.47 162.928 131.479 162.946 131.479C163.765 131.594 164.628 131.666 165.508 131.674C165.58 131.674 165.651 131.674 165.722 131.674C166.576 131.674 167.572 131.603 168.756 131.443C170.944 131.158 172.172 130.295 172.848 129.388C173.32 130.26 174.263 131.212 176.158 131.577C176.852 131.71 177.724 131.781 178.889 131.817C179.156 131.826 179.405 131.826 179.646 131.826C180.936 131.826 183.783 131.826 185.117 129.699C185.678 130.651 186.683 131.488 188.302 131.906C189.228 132.146 190.42 132.288 192.03 132.342C192.279 132.351 192.546 132.359 192.813 132.359C193.64 132.359 194.557 132.315 195.536 132.226C196.452 132.146 197.164 132.004 197.778 131.781C197.831 131.763 197.893 131.737 197.947 131.719C198.729 132.253 199.744 132.609 201.007 132.662C205.98 132.875 211.016 133.125 215.981 133.4C216.061 133.4 216.132 133.409 216.212 133.409C216.675 133.409 217.431 133.329 218.205 132.92C218.579 133.098 218.997 133.258 219.486 133.383C220.402 133.614 221.586 133.774 223.214 133.872C223.943 133.916 224.602 133.934 225.171 133.934C226.283 133.934 227.128 133.854 227.84 133.676C229.717 133.205 230.705 132.012 231.088 130.82C231.212 131.105 231.346 131.39 231.47 131.666C232.591 134.174 235.438 134.575 239.032 134.842C239.824 134.904 240.5 134.931 241.114 134.931C242.271 134.931 243.152 134.833 243.908 134.61C245.572 134.13 246.515 133.071 246.942 131.977C247.111 133.071 247.725 134.077 248.677 134.762C249.202 135.144 249.842 135.438 250.616 135.66C251.577 135.936 252.84 136.141 254.566 136.283C255.554 136.372 256.39 136.408 257.12 136.408C258.196 136.408 259.024 136.319 259.727 136.123C261.898 135.518 262.841 133.89 263.001 132.52C263.383 133.205 263.89 133.854 264.504 134.459C265.892 135.811 267.592 136.808 269.54 137.413C271.15 137.911 272.983 138.267 274.967 138.472C274.985 138.472 275.012 138.472 275.029 138.481C275.661 138.534 276.284 138.561 276.88 138.561C280.688 138.561 283.811 137.457 286.168 135.287C288.784 132.875 290.332 129.619 290.777 125.607C291.151 122.208 290.252 119.139 288.179 116.745C288.17 116.736 288.161 116.728 288.152 116.71C287.966 116.505 287.788 116.309 287.61 116.114C288.339 115.5 289.015 114.521 290.021 112.697C291.097 110.758 291.702 109.067 291.871 107.546L291.898 107.288C291.907 107.181 291.916 107.074 291.916 106.977C291.96 106.096 291.72 104.361 289.869 102.902ZM41.6545 119.842C41.4054 120.242 41.272 120.251 41.0495 120.269C41.014 120.269 40.9695 120.277 40.9339 120.277C40.7915 120.277 40.667 120.277 40.409 119.975C40.1421 119.672 39.6616 118.863 39.4926 116.906C39.368 115.464 39.5193 114.325 39.9196 113.685C40.2132 113.222 40.3556 113.204 40.489 113.196C40.5157 113.196 40.5424 113.196 40.5691 113.196C40.6581 113.196 40.8182 113.196 41.1563 113.569C41.4321 113.872 41.9214 114.681 42.0727 116.621C42.2239 118.596 41.877 119.486 41.6545 119.842ZM263.899 122.653L264.549 115.331C264.789 117.012 265.314 118.551 266.106 119.939C266.115 119.957 266.124 119.966 266.132 119.984C265.305 120.58 264.576 121.452 263.899 122.653Z" fill="url(#paint2_linear_1740_46509)"/>
<path d="M266.479 110.651C264.744 110.491 263.001 110.331 261.266 110.179C260.616 117.493 259.967 124.797 259.308 132.11C259.255 132.698 257.787 132.858 254.895 132.609C252.004 132.359 250.58 131.95 250.634 131.372C250.634 131.363 250.634 131.363 250.634 131.354C250.634 131.336 250.634 131.31 250.634 131.292C250.634 131.283 250.634 131.283 250.634 131.274C250.634 131.256 250.634 131.23 250.634 131.212C250.634 131.203 250.634 131.203 250.634 131.194C250.634 131.176 250.634 131.15 250.634 131.132C250.634 131.123 250.634 131.123 250.634 131.114C250.634 131.096 250.634 131.069 250.634 131.052C250.634 131.043 250.634 131.043 250.634 131.034C250.634 131.016 250.634 130.989 250.634 130.972C250.634 130.963 250.634 130.963 250.634 130.954C250.634 130.936 250.634 130.909 250.634 130.891C250.634 130.883 250.634 130.883 250.634 130.874C250.634 130.856 250.634 130.829 250.634 130.811C250.634 130.803 250.634 130.803 250.634 130.794C250.634 130.776 250.634 130.749 250.634 130.731C250.634 130.722 250.634 130.722 250.634 130.714C250.634 130.696 250.634 130.669 250.634 130.651C250.634 130.642 250.634 130.642 250.634 130.633C250.634 130.616 250.634 130.589 250.634 130.571C250.634 130.562 250.634 130.562 250.634 130.553C250.634 130.536 250.634 130.509 250.634 130.491C250.634 130.482 250.634 130.482 250.634 130.473C250.634 130.456 250.634 130.429 250.634 130.411C250.634 130.402 250.634 130.402 250.634 130.393C250.634 130.375 250.634 130.349 250.634 130.331C250.634 130.322 250.634 130.322 250.634 130.313C250.634 130.295 250.634 130.269 250.634 130.251C250.634 130.242 250.634 130.242 250.634 130.233C250.634 130.215 250.634 130.189 250.634 130.171C250.634 130.162 250.634 130.162 250.634 130.153C250.634 130.135 250.634 130.109 250.634 130.091C250.634 130.082 250.634 130.082 250.634 130.073C250.634 130.055 250.634 130.028 250.634 130.011C250.634 130.002 250.634 130.002 250.634 129.993C250.634 129.975 250.634 129.948 250.634 129.931C250.634 129.922 250.634 129.922 250.634 129.913C250.634 129.895 250.634 129.868 250.634 129.851C250.634 129.842 250.634 129.842 250.634 129.833C250.634 129.815 250.634 129.788 250.634 129.77C251.194 122.964 251.755 116.149 252.315 109.343C250.572 109.201 248.828 109.058 247.084 108.925C246.577 108.889 246.274 108.187 246.168 106.834C246.15 106.505 246.141 106.167 246.141 105.838C246.141 105.811 246.141 105.784 246.141 105.758C246.141 105.731 246.141 105.704 246.141 105.678C246.141 105.651 246.141 105.624 246.141 105.598C246.141 105.571 246.141 105.544 246.141 105.517C246.141 105.491 246.141 105.464 246.141 105.437C246.141 105.411 246.141 105.384 246.141 105.357C246.141 105.331 246.141 105.304 246.141 105.277C246.141 105.251 246.141 105.224 246.141 105.197C246.141 105.171 246.141 105.144 246.141 105.117C246.141 105.09 246.141 105.064 246.141 105.037C246.141 105.01 246.141 104.984 246.141 104.957C246.141 104.93 246.141 104.904 246.141 104.877C246.141 104.85 246.141 104.824 246.141 104.797C246.141 104.77 246.141 104.743 246.141 104.717C246.141 104.69 246.141 104.663 246.141 104.637C246.141 104.61 246.141 104.583 246.141 104.557C246.141 104.53 246.141 104.503 246.141 104.477C246.141 104.45 246.141 104.423 246.141 104.396C246.141 104.37 246.141 104.343 246.141 104.316C246.141 103.969 246.159 103.614 246.185 103.258C246.239 102.59 246.328 101.932 246.47 101.3C246.781 99.9747 247.191 99.3341 247.707 99.3697C254.219 99.8769 260.723 100.437 267.227 101.042C267.734 101.087 268.027 101.79 268.116 103.151C268.125 103.329 268.125 103.516 268.125 103.703C268.125 103.729 268.125 103.756 268.125 103.783C268.125 103.809 268.125 103.836 268.125 103.863C268.125 103.889 268.125 103.916 268.125 103.943C268.125 103.969 268.125 103.996 268.125 104.023C268.125 104.05 268.125 104.076 268.125 104.103C268.125 104.13 268.125 104.156 268.125 104.183C268.125 104.21 268.125 104.236 268.125 104.263C268.125 104.29 268.125 104.316 268.125 104.343C268.125 104.37 268.125 104.396 268.125 104.423C268.125 104.45 268.125 104.477 268.125 104.503C268.125 104.53 268.125 104.557 268.125 104.583C268.125 104.61 268.125 104.637 268.125 104.663C268.125 104.69 268.125 104.717 268.125 104.743C268.125 104.77 268.125 104.797 268.125 104.824C268.125 104.85 268.125 104.877 268.125 104.904C268.125 104.93 268.125 104.957 268.125 104.984C268.125 105.01 268.125 105.037 268.125 105.064C268.125 105.09 268.125 105.117 268.125 105.144C268.125 105.171 268.125 105.197 268.125 105.224C268.134 105.722 268.107 106.22 268.063 106.727C268.001 107.395 267.894 108.044 267.743 108.676C267.404 110.064 266.986 110.695 266.479 110.651ZM288.205 105.384C288.223 104.646 287.351 103.952 285.581 103.302C283.81 102.653 281.844 102.217 279.691 102.003C276.524 101.674 273.873 102.306 271.746 103.88C269.62 105.455 268.445 107.519 268.196 110.082C268.152 110.58 268.125 111.06 268.125 111.523C268.125 111.55 268.125 111.576 268.125 111.603C268.125 111.63 268.125 111.656 268.125 111.683C268.125 111.71 268.125 111.736 268.125 111.763C268.125 111.79 268.125 111.817 268.125 111.843C268.125 111.87 268.125 111.897 268.125 111.923C268.125 111.95 268.125 111.977 268.125 112.003C268.125 112.03 268.125 112.057 268.125 112.083C268.125 112.11 268.125 112.137 268.125 112.163C268.125 112.19 268.125 112.217 268.125 112.244C268.125 112.27 268.125 112.297 268.125 112.324C268.125 112.35 268.125 112.377 268.125 112.404C268.125 112.43 268.125 112.457 268.125 112.484C268.125 112.51 268.125 112.537 268.125 112.564C268.125 112.591 268.125 112.617 268.125 112.644C268.125 112.671 268.125 112.697 268.125 112.724C268.125 112.751 268.125 112.777 268.125 112.804C268.125 112.831 268.125 112.857 268.125 112.884C268.125 112.911 268.125 112.938 268.125 112.964C268.125 112.991 268.125 113.018 268.125 113.044C268.116 115.019 268.534 116.728 269.371 118.178C269.727 118.827 270.269 119.477 270.99 120.117C271.719 120.758 272.307 121.229 272.752 121.523C273.196 121.817 273.873 122.226 274.771 122.76C275.67 123.294 276.275 123.747 276.595 124.112C276.684 124.219 276.755 124.317 276.817 124.432C276.524 124.939 275.919 125.144 274.985 125.055C273.739 124.931 272.467 124.423 271.177 123.534C269.887 122.644 268.979 121.95 268.463 121.461C267.929 121.79 267.378 122.528 266.826 123.658C266.275 124.797 265.945 125.963 265.83 127.155C265.812 127.306 265.812 127.457 265.812 127.609C265.812 127.635 265.812 127.662 265.812 127.689C265.812 127.715 265.812 127.742 265.812 127.769C265.812 127.795 265.812 127.822 265.812 127.849C265.812 127.875 265.812 127.902 265.812 127.929C265.812 127.956 265.812 127.982 265.812 128.009C265.812 128.036 265.812 128.062 265.812 128.089C265.812 128.116 265.812 128.142 265.812 128.169C265.812 128.196 265.812 128.222 265.812 128.249C265.812 128.276 265.812 128.302 265.812 128.329C265.812 128.356 265.812 128.383 265.812 128.409C265.812 128.436 265.812 128.463 265.812 128.489C265.812 128.516 265.812 128.543 265.812 128.569C265.812 128.596 265.812 128.623 265.812 128.649C265.812 128.676 265.812 128.703 265.812 128.73C265.812 128.756 265.812 128.783 265.812 128.81C265.812 128.836 265.812 128.863 265.812 128.89C265.812 128.916 265.812 128.943 265.812 128.97C265.812 128.996 265.812 129.023 265.812 129.05C265.812 129.077 265.812 129.103 265.812 129.13C265.812 130.171 266.248 131.114 267.12 131.959C268.09 132.902 269.273 133.587 270.661 134.023C272.049 134.45 273.615 134.753 275.367 134.931C278.962 135.242 281.72 134.504 283.659 132.715C285.599 130.927 286.746 128.48 287.084 125.367C287.138 124.922 287.156 124.486 287.147 124.068C287.147 124.041 287.147 124.014 287.147 123.987C287.147 123.961 287.147 123.934 287.147 123.907C287.147 123.881 287.147 123.854 287.147 123.827C287.147 123.801 287.147 123.774 287.147 123.747C287.147 123.721 287.147 123.694 287.147 123.667C287.147 123.641 287.147 123.614 287.147 123.587C287.147 123.56 287.147 123.534 287.147 123.507C287.147 123.48 287.147 123.454 287.147 123.427C287.147 123.4 287.147 123.374 287.147 123.347C287.147 123.32 287.147 123.294 287.147 123.267C287.147 123.24 287.147 123.213 287.147 123.187C287.147 123.16 287.147 123.133 287.147 123.107C287.147 123.08 287.147 123.053 287.147 123.027C287.147 123 287.147 122.973 287.147 122.947C287.147 122.92 287.147 122.893 287.147 122.866C287.147 122.84 287.147 122.813 287.147 122.786C287.147 122.76 287.147 122.733 287.147 122.706C287.147 122.68 287.147 122.653 287.147 122.626C287.147 122.6 287.147 122.573 287.147 122.546C287.12 120.696 286.533 119.094 285.376 117.76C284.682 116.977 284.024 116.345 283.41 115.847C282.787 115.357 282.209 114.939 281.657 114.601C281.106 114.263 280.625 113.97 280.198 113.72C279.771 113.471 279.451 113.276 279.228 113.133C278.632 112.786 278.223 112.439 277.983 112.083C278.33 111.541 279.059 111.327 280.163 111.443C281.666 111.603 283.312 112.261 285.109 113.418C285.394 113.276 285.946 112.457 286.773 110.971C287.592 109.486 288.063 108.24 288.179 107.217C288.188 107.128 288.197 107.039 288.205 106.959C288.205 106.932 288.205 106.914 288.205 106.888V106.879C288.205 106.852 288.205 106.834 288.205 106.808V106.799C288.205 106.772 288.205 106.754 288.205 106.727V106.719C288.205 106.692 288.205 106.674 288.205 106.647V106.639C288.205 106.612 288.205 106.594 288.205 106.567V106.558C288.205 106.532 288.205 106.514 288.205 106.487V106.478C288.205 106.452 288.205 106.434 288.205 106.407V106.398C288.205 106.372 288.205 106.354 288.205 106.327V106.318C288.205 106.292 288.205 106.274 288.205 106.247V106.238C288.205 106.211 288.205 106.194 288.205 106.167V106.158C288.205 106.131 288.205 106.114 288.205 106.087V106.078C288.205 106.051 288.205 106.034 288.205 106.007V105.998C288.205 105.971 288.205 105.953 288.205 105.927V105.918C288.205 105.891 288.205 105.873 288.205 105.847V105.838C288.205 105.811 288.205 105.793 288.205 105.767V105.758C288.205 105.731 288.205 105.713 288.205 105.687V105.678C288.205 105.651 288.205 105.633 288.205 105.606V105.598C288.205 105.571 288.205 105.553 288.205 105.526V105.517C288.205 105.491 288.205 105.473 288.205 105.446V105.437C288.205 105.437 288.205 105.411 288.205 105.384ZM25.7555 105.171C25.6932 104.503 25.5865 103.854 25.4352 103.222C25.0971 101.905 24.679 101.265 24.1719 101.318C17.6682 101.932 11.1646 102.59 4.66983 103.302C4.1627 103.356 3.878 104.067 3.81572 105.429C3.80682 105.598 3.80682 105.767 3.80682 105.945C3.80682 105.971 3.80682 105.998 3.80682 106.025C3.80682 106.051 3.80682 106.078 3.80682 106.105C3.80682 106.131 3.80682 106.158 3.80682 106.185C3.80682 106.211 3.80682 106.238 3.80682 106.265C3.80682 106.292 3.80682 106.318 3.80682 106.345C3.80682 106.372 3.80682 106.398 3.80682 106.425C3.80682 106.452 3.80682 106.478 3.80682 106.505C3.80682 106.532 3.80682 106.558 3.80682 106.585C3.80682 106.612 3.80682 106.639 3.80682 106.665C3.80682 106.692 3.80682 106.719 3.80682 106.745C3.80682 106.772 3.80682 106.799 3.80682 106.825C3.80682 106.852 3.80682 106.879 3.80682 106.905C3.80682 106.932 3.80682 106.959 3.80682 106.985C3.80682 107.012 3.80682 107.039 3.80682 107.066C3.80682 107.092 3.80682 107.119 3.80682 107.146C3.80682 107.172 3.80682 107.199 3.80682 107.226C3.80682 107.252 3.80682 107.279 3.80682 107.306C3.80682 107.332 3.80682 107.359 3.80682 107.386C3.80682 107.413 3.80682 107.439 3.80682 107.466C3.80682 107.973 3.83351 108.489 3.89579 109.005C3.96697 109.672 4.08263 110.322 4.24277 110.954C4.59865 112.27 5.0257 112.893 5.53283 112.84C7.31221 112.644 9.09159 112.457 10.8799 112.27C11.645 119.566 12.419 126.87 13.1842 134.166C13.2464 134.744 14.7233 134.886 17.6059 134.593C20.4974 134.299 21.912 133.872 21.8498 133.285V133.276C21.8498 133.249 21.8498 133.231 21.8498 133.205V133.196C21.8498 133.169 21.8498 133.151 21.8498 133.125V133.116C21.8498 133.089 21.8498 133.071 21.8498 133.045V133.036C21.8498 133.009 21.8498 132.991 21.8498 132.964V132.956C21.8498 132.929 21.8498 132.911 21.8498 132.884V132.875C21.8498 132.849 21.8498 132.831 21.8498 132.804V132.795C21.8498 132.769 21.8498 132.751 21.8498 132.724V132.715C21.8498 132.689 21.8498 132.671 21.8498 132.644V132.635C21.8498 132.609 21.8498 132.591 21.8498 132.564V132.555C21.8498 132.529 21.8498 132.511 21.8498 132.484V132.475C21.8498 132.448 21.8498 132.431 21.8498 132.404V132.395C21.8498 132.368 21.8498 132.351 21.8498 132.324V132.315C21.8498 132.288 21.8498 132.271 21.8498 132.244V132.235C21.8498 132.208 21.8498 132.19 21.8498 132.164V132.155C21.8498 132.128 21.8498 132.11 21.8498 132.084V132.075C21.8498 132.048 21.8498 132.03 21.8498 132.004V131.995C21.8498 131.968 21.8498 131.95 21.8498 131.924V131.915C21.8498 131.888 21.8498 131.87 21.8498 131.843V131.835C21.8498 131.808 21.8498 131.79 21.8498 131.763V131.754C21.8498 131.728 21.8498 131.71 21.8498 131.683C21.1825 124.886 20.5152 118.08 19.848 111.283C21.5384 111.114 23.2288 110.954 24.9103 110.793C25.4174 110.749 25.711 110.046 25.7911 108.685C25.8 108.507 25.8 108.32 25.8 108.133C25.8 108.106 25.8 108.08 25.8 108.053C25.8 108.026 25.8 108 25.8 107.973C25.8 107.946 25.8 107.92 25.8 107.893C25.8 107.866 25.8 107.84 25.8 107.813C25.8 107.786 25.8 107.76 25.8 107.733C25.8 107.706 25.8 107.679 25.8 107.653C25.8 107.626 25.8 107.599 25.8 107.573C25.8 107.546 25.8 107.519 25.8 107.493C25.8 107.466 25.8 107.439 25.8 107.413C25.8 107.386 25.8 107.359 25.8 107.332C25.8 107.306 25.8 107.279 25.8 107.252C25.8 107.226 25.8 107.199 25.8 107.172C25.8 107.146 25.8 107.119 25.8 107.092C25.8 107.066 25.8 107.039 25.8 107.012C25.8 106.985 25.8 106.959 25.8 106.932C25.8 106.905 25.8 106.879 25.8 106.852C25.8 106.825 25.8 106.799 25.8 106.772C25.8 106.745 25.8 106.719 25.8 106.692C25.8 106.665 25.8 106.639 25.8 106.612C25.8267 106.185 25.8089 105.678 25.7555 105.171ZM54.973 116.22C54.973 116.247 54.973 116.274 54.973 116.301C54.973 116.327 54.973 116.354 54.973 116.381C54.973 116.407 54.973 116.434 54.973 116.461C54.973 116.487 54.973 116.514 54.973 116.541C54.973 116.567 54.973 116.594 54.973 116.621C54.973 116.648 54.973 116.674 54.973 116.701C54.973 116.728 54.973 116.754 54.973 116.781C54.973 116.808 54.973 116.834 54.973 116.861C54.973 116.888 54.973 116.914 54.973 116.941C54.973 116.968 54.973 116.995 54.973 117.021C54.973 117.048 54.973 117.075 54.973 117.101C54.973 117.128 54.973 117.155 54.973 117.181C54.973 117.208 54.973 117.235 54.973 117.261C54.973 117.288 54.973 117.315 54.973 117.341C54.973 117.368 54.973 117.395 54.973 117.422C54.973 117.448 54.973 117.475 54.973 117.502C54.973 117.528 54.973 117.555 54.973 117.582C54.973 117.608 54.973 117.635 54.973 117.662C54.973 117.688 54.973 117.715 54.973 117.742C54.9996 122.101 53.9409 125.5 51.8235 127.929C49.4035 130.705 46.1561 132.253 42.0546 132.591C37.9532 132.929 34.4923 131.888 31.6631 129.441C28.8338 126.995 27.1612 123.213 26.6808 118.071C26.6007 117.244 26.5651 116.452 26.5651 115.687C26.5651 115.66 26.5651 115.633 26.5651 115.607C26.5651 115.58 26.5651 115.553 26.5651 115.527C26.5651 115.5 26.5651 115.473 26.5651 115.446C26.5651 115.42 26.5651 115.393 26.5651 115.366C26.5651 115.34 26.5651 115.313 26.5651 115.286C26.5651 115.26 26.5651 115.233 26.5651 115.206C26.5651 115.18 26.5651 115.153 26.5651 115.126C26.5651 115.099 26.5651 115.073 26.5651 115.046C26.5651 115.019 26.5651 114.993 26.5651 114.966C26.5651 114.939 26.5651 114.913 26.5651 114.886C26.5651 114.859 26.5651 114.833 26.5651 114.806C26.5651 114.779 26.5651 114.752 26.5651 114.726C26.5651 114.699 26.5651 114.672 26.5651 114.646C26.5651 114.619 26.5651 114.592 26.5651 114.566C26.5651 114.539 26.5651 114.512 26.5651 114.486C26.5651 114.459 26.5651 114.432 26.5651 114.406C26.5651 114.379 26.5651 114.352 26.5651 114.325C26.5651 114.299 26.5651 114.272 26.5651 114.245C26.5651 114.219 26.5651 114.192 26.5651 114.165C26.5384 110.117 27.5438 106.87 29.599 104.432C32.0278 101.541 35.3731 99.9124 39.608 99.5655C43.8429 99.2185 47.3661 100.259 50.1597 102.679C52.9534 105.099 54.5281 108.961 54.9018 114.254C54.9463 114.922 54.973 115.58 54.973 116.22ZM44.8216 120.295C45.3999 119.361 45.738 118.178 45.818 116.754C45.8091 116.612 45.8002 116.478 45.7913 116.336C45.6045 114.005 44.9906 112.252 43.923 111.069C42.8554 109.895 41.6098 109.361 40.1863 109.477C38.7628 109.592 37.6151 110.34 36.761 111.701C36.1738 112.644 35.8357 113.809 35.7467 115.206C35.7556 115.366 35.7645 115.527 35.7823 115.696C35.9781 118.009 36.5919 119.753 37.6151 120.909C38.6293 122.066 39.8838 122.591 41.3696 122.466C42.8376 122.35 43.9942 121.621 44.8216 120.295ZM81.1121 118.24C80.774 111.541 80.427 104.841 80.0889 98.1331C80.0622 97.5459 78.4163 97.3412 75.1689 97.5192C71.9127 97.6971 70.3112 98.0886 70.3468 98.6669C70.3468 98.6758 70.3468 98.6847 70.3468 98.6936C70.3468 98.7114 70.3468 98.7292 70.3468 98.7469C70.3468 98.7558 70.3468 98.7647 70.3468 98.7736C70.3468 98.7914 70.3468 98.8092 70.3468 98.827C70.3468 98.8359 70.3468 98.8448 70.3468 98.8537C70.3468 98.8715 70.3468 98.8893 70.3468 98.9071C70.3468 98.916 70.3468 98.9249 70.3468 98.9338C70.3468 98.9516 70.3468 98.9694 70.3468 98.9872C70.3468 98.9961 70.3468 99.005 70.3468 99.0139C70.3468 99.0316 70.3468 99.0494 70.3468 99.0672C70.3468 99.0761 70.3468 99.085 70.3468 99.0939C70.3468 99.1117 70.3468 99.1295 70.3468 99.1473C70.3468 99.1562 70.3468 99.1651 70.3468 99.174C70.3468 99.1918 70.3468 99.2096 70.3468 99.2274C70.3468 99.2363 70.3468 99.2452 70.3468 99.2541C70.3468 99.2719 70.3468 99.2897 70.3468 99.3075C70.3468 99.3163 70.3468 99.3253 70.3468 99.3341C70.3468 99.3519 70.3468 99.3697 70.3468 99.3875C70.3468 99.3964 70.3468 99.4053 70.3468 99.4142C70.3468 99.432 70.3468 99.4498 70.3468 99.4676C70.3468 99.4765 70.3468 99.4854 70.3468 99.4943C70.3468 99.5121 70.3468 99.5299 70.3468 99.5477C70.3468 99.5566 70.3468 99.5655 70.3468 99.5744C70.3468 99.5922 70.3468 99.61 70.3468 99.6277C70.3468 99.6366 70.3468 99.6455 70.3468 99.6544C70.3468 99.6722 70.3468 99.69 70.3468 99.7078C70.3468 99.7167 70.3468 99.7256 70.3468 99.7345C70.3468 99.7523 70.3468 99.7701 70.3468 99.7879C70.3468 99.7968 70.3468 99.8057 70.3468 99.8146C70.3468 99.8324 70.3468 99.8502 70.3468 99.868C70.3468 99.8769 70.3468 99.8858 70.3468 99.8947C70.3468 99.9124 70.3468 99.9302 70.3468 99.948C70.3468 99.9569 70.3468 99.9658 70.3468 99.9747C70.3468 99.9925 70.3468 100.01 70.3468 100.028C70.3468 100.037 70.3468 100.046 70.3468 100.055C70.3468 100.073 70.3468 100.09 70.3468 100.108C70.3468 100.117 70.3468 100.126 70.3468 100.135C70.3468 100.153 70.3468 100.17 70.3468 100.188C70.3468 100.197 70.3468 100.206 70.3468 100.215C70.3468 100.233 70.3468 100.251 70.3468 100.268C70.7116 106.55 71.0853 112.831 71.45 119.112C71.3433 119.486 71.1031 119.797 70.7294 120.037C70.1778 120.393 69.5461 120.589 68.8343 120.633C68.1315 120.678 67.4375 120.544 66.7703 120.233C66.1297 119.922 65.7916 119.477 65.756 118.89C65.3379 112.306 64.9286 105.731 64.5104 99.1473C64.4749 98.569 62.8289 98.3733 59.5816 98.5868C56.3342 98.8003 54.7238 99.2185 54.7683 99.7968C54.7683 99.8057 54.7683 99.8057 54.7683 99.8146C54.7683 99.8324 54.7683 99.8502 54.7683 99.868C54.7683 99.8769 54.7683 99.8769 54.7683 99.8858C54.7683 99.9035 54.7683 99.9213 54.7683 99.9391C54.7683 99.948 54.7683 99.948 54.7683 99.9569C54.7683 99.9747 54.7683 99.9925 54.7683 100.01C54.7683 100.019 54.7683 100.019 54.7683 100.028C54.7683 100.046 54.7683 100.064 54.7683 100.081C54.7683 100.09 54.7683 100.09 54.7683 100.099C54.7683 100.117 54.7683 100.135 54.7683 100.153C54.7683 100.162 54.7683 100.162 54.7683 100.17C54.7683 100.188 54.7683 100.206 54.7683 100.224C54.7683 100.233 54.7683 100.233 54.7683 100.242C54.7683 100.259 54.7683 100.277 54.7683 100.295C54.7683 100.304 54.7683 100.304 54.7683 100.313C54.7683 100.331 54.7683 100.348 54.7683 100.366C54.7683 100.375 54.7683 100.375 54.7683 100.384C54.7683 100.402 54.7683 100.42 54.7683 100.437C54.7683 100.446 54.7683 100.446 54.7683 100.455C54.7683 100.473 54.7683 100.491 54.7683 100.509C54.7683 100.517 54.7683 100.517 54.7683 100.526C54.7683 100.544 54.7683 100.562 54.7683 100.58C54.7683 100.589 54.7683 100.589 54.7683 100.598C54.7683 100.615 54.7683 100.633 54.7683 100.651C54.7683 100.66 54.7683 100.66 54.7683 100.669C54.7683 100.686 54.7683 100.704 54.7683 100.722C54.7683 100.731 54.7683 100.731 54.7683 100.74C54.7683 100.758 54.7683 100.775 54.7683 100.793C54.7683 100.802 54.7683 100.802 54.7683 100.811C54.7683 100.829 54.7683 100.847 54.7683 100.864C54.7683 100.873 54.7683 100.873 54.7683 100.882C54.7683 100.9 54.7683 100.918 54.7683 100.936C54.7683 100.944 54.7683 100.944 54.7683 100.953C54.7683 100.971 54.7683 100.989 54.7683 101.007C54.7683 101.016 54.7683 101.016 54.7683 101.025C54.7683 101.042 54.7683 101.06 54.7683 101.078C54.7683 101.087 54.7683 101.087 54.7683 101.096C54.7683 101.114 54.7683 101.131 54.7683 101.149C54.7683 101.158 54.7683 101.158 54.7683 101.167C54.7683 101.185 54.7683 101.202 54.7683 101.22C55.2221 107.679 55.6758 114.139 56.1385 120.598C56.3698 123.899 57.7399 126.425 60.231 128.205C62.7222 129.984 65.8361 130.758 69.5906 130.527C73.3451 130.295 76.2366 129.192 78.2829 127.199C80.1957 125.322 81.1566 123.018 81.1388 120.269C81.1388 120.242 81.1388 120.215 81.1388 120.189C81.1388 120.162 81.1388 120.135 81.1388 120.108C81.1388 120.082 81.1388 120.055 81.1388 120.028C81.1388 120.002 81.1388 119.975 81.1388 119.948C81.1388 119.922 81.1388 119.895 81.1388 119.868C81.1388 119.842 81.1388 119.815 81.1388 119.788C81.1388 119.761 81.1388 119.735 81.1388 119.708C81.1388 119.681 81.1388 119.655 81.1388 119.628C81.1388 119.601 81.1388 119.575 81.1388 119.548C81.1388 119.521 81.1388 119.495 81.1388 119.468C81.1388 119.441 81.1388 119.414 81.1388 119.388C81.1388 119.361 81.1388 119.334 81.1388 119.308C81.1388 119.281 81.1388 119.254 81.1388 119.228C81.1388 119.201 81.1388 119.174 81.1388 119.148C81.1388 119.121 81.1388 119.094 81.1388 119.067C81.1388 119.041 81.1388 119.014 81.1388 118.987C81.1388 118.961 81.1388 118.934 81.1388 118.907C81.1388 118.881 81.1388 118.854 81.1388 118.827C81.1388 118.801 81.1388 118.774 81.1388 118.747C81.1299 118.64 81.121 118.436 81.1121 118.24ZM106.468 122.858C106.459 122.875 106.459 122.893 106.45 122.911C106.459 122.92 106.459 122.929 106.468 122.938C106.459 122.955 106.459 122.973 106.45 122.991C106.459 123 106.459 123.009 106.468 123.018C106.459 123.036 106.459 123.053 106.45 123.071C106.459 123.08 106.459 123.089 106.468 123.098C106.459 123.116 106.459 123.133 106.45 123.151C106.459 123.16 106.459 123.169 106.468 123.178C106.459 123.196 106.459 123.213 106.45 123.231C106.459 123.24 106.459 123.249 106.468 123.258C106.459 123.276 106.459 123.294 106.45 123.311C106.459 123.32 106.459 123.329 106.468 123.338C106.459 123.356 106.459 123.374 106.45 123.391C106.459 123.4 106.459 123.409 106.468 123.418C106.459 123.436 106.459 123.454 106.45 123.471C106.459 123.48 106.459 123.489 106.468 123.498C106.459 123.516 106.459 123.534 106.45 123.552C106.459 123.56 106.459 123.569 106.468 123.578C106.459 123.596 106.459 123.614 106.45 123.632C106.459 123.641 106.459 123.649 106.468 123.658C106.459 123.676 106.459 123.694 106.45 123.712C106.459 123.721 106.459 123.729 106.468 123.738C106.459 123.756 106.459 123.774 106.45 123.792C106.459 123.801 106.459 123.81 106.468 123.818C106.459 123.836 106.459 123.854 106.45 123.872C106.459 123.881 106.459 123.89 106.468 123.899C106.459 123.916 106.459 123.934 106.45 123.952C106.459 123.961 106.459 123.97 106.468 123.979C106.459 123.996 106.459 124.014 106.45 124.032C106.459 124.041 106.459 124.05 106.468 124.059C106.459 124.076 106.459 124.094 106.45 124.112C106.459 124.121 106.459 124.13 106.468 124.139C106.459 124.157 106.459 124.174 106.45 124.192C106.459 124.201 106.459 124.21 106.468 124.219C106.459 124.237 106.459 124.254 106.45 124.272C106.459 124.281 106.459 124.29 106.468 124.299C106.459 124.317 106.459 124.334 106.45 124.352C106.459 124.361 106.459 124.37 106.468 124.379C106.459 124.397 106.459 124.415 106.45 124.432C106.459 124.441 106.459 124.45 106.468 124.459C106.255 125.171 105.516 125.998 104.253 126.941C102.536 128.258 101.112 128.934 99.9646 128.979C98.8258 129.023 97.9628 128.641 97.3667 127.849C95.8632 124.699 94.3596 121.559 92.8382 118.418C92.4023 118.436 91.9663 118.454 91.5304 118.471C91.6549 121.283 91.7706 124.085 91.8951 126.897C91.8951 126.906 91.8951 126.923 91.8951 126.932C91.8951 126.95 91.8951 126.959 91.8951 126.977C91.8951 126.986 91.8951 127.004 91.8951 127.012C91.8951 127.03 91.8951 127.039 91.8951 127.057C91.8951 127.066 91.8951 127.084 91.8951 127.093C91.8951 127.11 91.8951 127.119 91.8951 127.137C91.8951 127.146 91.8951 127.164 91.8951 127.173C91.8951 127.19 91.8951 127.199 91.8951 127.217C91.8951 127.226 91.8951 127.244 91.8951 127.253C91.8951 127.27 91.8951 127.279 91.8951 127.297C91.8951 127.306 91.8951 127.324 91.8951 127.333C91.8951 127.351 91.8951 127.359 91.8951 127.377C91.8951 127.386 91.8951 127.404 91.8951 127.413C91.8951 127.431 91.8951 127.439 91.8951 127.457C91.8951 127.466 91.8951 127.484 91.8951 127.493C91.8951 127.511 91.8951 127.52 91.8951 127.537C91.8951 127.546 91.8951 127.564 91.8951 127.573C91.8951 127.591 91.8951 127.6 91.8951 127.617C91.8951 127.626 91.8951 127.644 91.8951 127.653C91.8951 127.671 91.8951 127.68 91.8951 127.697C91.8951 127.706 91.8951 127.724 91.8951 127.733C91.8951 127.751 91.8951 127.76 91.8951 127.778C91.8951 127.786 91.8951 127.804 91.8951 127.813C91.8951 127.831 91.8951 127.84 91.8951 127.858C91.8951 127.867 91.8951 127.884 91.8951 127.893C91.8951 127.911 91.8951 127.92 91.8951 127.938C91.8951 127.947 91.8951 127.964 91.8951 127.973C91.8951 127.991 91.8951 128 91.8951 128.018C91.8951 128.027 91.8951 128.044 91.8951 128.053C91.8951 128.071 91.8951 128.08 91.8951 128.098C91.8951 128.107 91.8951 128.125 91.8951 128.133C91.8951 128.151 91.8951 128.16 91.8951 128.178C91.8951 128.187 91.8951 128.205 91.8951 128.214C91.8951 128.231 91.8951 128.24 91.8951 128.258C91.8951 128.267 91.8951 128.285 91.8951 128.294C91.8951 128.311 91.8951 128.32 91.8951 128.338C91.8951 128.347 91.8951 128.365 91.8951 128.374C91.8951 128.391 91.8951 128.4 91.8951 128.418C91.8951 128.427 91.8951 128.445 91.8951 128.454C91.8951 128.472 91.8951 128.48 91.8951 128.498C91.9129 128.97 90.5339 129.254 87.7581 129.388C84.9466 129.521 83.532 129.37 83.5142 128.934C83.0427 119.414 82.5712 109.895 82.0996 100.375C82.0996 100.304 82.0996 100.242 82.0996 100.17C82.0996 100.144 82.0996 100.117 82.0996 100.09C82.0996 100.064 82.0996 100.037 82.0996 100.01C82.0996 99.9836 82.0996 99.9569 82.0996 99.9302C82.0996 99.9035 82.0996 99.8769 82.0996 99.8502C82.0996 99.8235 82.0996 99.7968 82.0996 99.7701C82.0996 99.7434 82.0996 99.7167 82.0996 99.69C82.0996 99.6633 82.0996 99.6366 82.0996 99.6099C82.0996 99.5833 82.0996 99.5566 82.0996 99.5299C82.0996 99.5032 82.0996 99.4765 82.0996 99.4498C82.0996 99.4231 82.0996 99.3964 82.0996 99.3697C82.0996 99.343 82.0996 99.3164 82.0996 99.2897C82.0996 99.263 82.0996 99.2363 82.0996 99.2096C82.0996 99.1829 82.0996 99.1562 82.0996 99.1295C82.0996 99.1028 82.0996 99.0761 82.0996 99.0494C82.0996 99.0228 82.0996 98.9961 82.0996 98.9694C82.0996 98.9427 82.0996 98.916 82.0996 98.8893C82.0996 98.8626 82.0996 98.8359 82.0996 98.8092C82.0996 98.7825 82.0996 98.7558 82.0996 98.7292C82.0996 98.7025 82.0996 98.6758 82.0996 98.6491C82.0996 97.706 82.6246 97.2078 83.6922 97.1544C86.557 97.0121 89.4218 96.8875 92.2777 96.7718C100.169 96.4515 104.208 99.3341 104.395 105.322C104.395 105.455 104.404 105.589 104.404 105.722C104.404 105.749 104.404 105.776 104.404 105.802C104.404 105.829 104.404 105.856 104.404 105.882C104.404 105.909 104.404 105.936 104.404 105.962C104.404 105.989 104.404 106.016 104.404 106.042C104.404 106.069 104.404 106.096 104.404 106.122C104.404 106.149 104.404 106.176 104.404 106.203C104.404 106.229 104.404 106.256 104.404 106.283C104.404 106.309 104.404 106.336 104.404 106.363C104.404 106.389 104.404 106.416 104.404 106.443C104.404 106.469 104.404 106.496 104.404 106.523C104.404 106.55 104.404 106.576 104.404 106.603C104.404 106.63 104.404 106.656 104.404 106.683C104.404 106.71 104.404 106.736 104.404 106.763C104.404 106.79 104.404 106.816 104.404 106.843C104.404 106.87 104.404 106.897 104.404 106.923C104.404 106.95 104.404 106.977 104.404 107.003C104.404 107.03 104.404 107.057 104.404 107.083C104.404 107.11 104.404 107.137 104.404 107.163C104.404 107.19 104.404 107.217 104.404 107.243C104.422 108.934 104.111 110.482 103.488 111.888C102.945 113.115 102.198 114.156 101.246 114.993C102.99 117.502 104.733 120.18 106.468 122.858ZM91.8773 105.998C91.5837 106.007 91.299 106.025 91.0054 106.034C91.0766 107.715 91.1478 109.405 91.219 111.087C91.2901 111.087 91.3702 111.078 91.4414 111.078C93.8436 110.98 95.187 110.082 95.4717 108.382C95.356 107.626 95.0713 107.048 94.6087 106.656C94.0393 106.167 93.1318 105.945 91.8773 105.998ZM131.424 96.4871C131.415 95.9355 130.018 95.6686 127.234 95.7131C124.44 95.7576 123.052 96.0601 123.061 96.6117C123.061 96.6295 123.061 96.6473 123.061 96.674C123.061 96.6829 123.061 96.6829 123.061 96.6918C123.061 96.7096 123.061 96.7274 123.061 96.754C123.061 96.7629 123.061 96.7629 123.061 96.7718C123.061 96.7896 123.061 96.8074 123.061 96.8341C123.061 96.843 123.061 96.843 123.061 96.8519C123.061 96.8697 123.061 96.8875 123.061 96.9142C123.061 96.9231 123.061 96.9231 123.061 96.932C123.061 96.9498 123.061 96.9676 123.061 96.9943C123.061 97.0032 123.061 97.0032 123.061 97.0121C123.061 97.0298 123.061 97.0476 123.061 97.0743C123.061 97.0832 123.061 97.0832 123.061 97.0921C123.061 97.1099 123.061 97.1277 123.061 97.1544C123.061 97.1633 123.061 97.1633 123.061 97.1722C123.061 97.19 123.061 97.2078 123.061 97.2345C123.061 97.2434 123.061 97.2434 123.061 97.2523C123.061 97.2701 123.061 97.2879 123.061 97.3145C123.061 97.3234 123.061 97.3234 123.061 97.3323C123.061 97.3501 123.061 97.3679 123.061 97.3946C123.061 97.4035 123.061 97.4035 123.061 97.4124C123.061 97.4302 123.061 97.448 123.061 97.4747C123.061 97.4836 123.061 97.4836 123.061 97.4925C123.061 97.5103 123.061 97.5281 123.061 97.5548C123.061 97.5637 123.061 97.5637 123.061 97.5726C123.061 97.5903 123.061 97.6081 123.061 97.6348C123.061 97.6437 123.061 97.6437 123.061 97.6526C123.061 97.6704 123.061 97.6882 123.061 97.7149C123.061 97.7238 123.061 97.7238 123.061 97.7327C123.061 97.7505 123.061 97.7683 123.061 97.795C123.061 97.8039 123.061 97.8039 123.061 97.8128C123.061 97.8306 123.061 97.8484 123.061 97.8751C123.061 97.8839 123.061 97.8839 123.061 97.8928C123.061 97.9106 123.061 97.9284 123.061 97.9551C123.061 97.964 123.061 97.964 123.061 97.9729C123.061 97.9907 123.061 98.0085 123.061 98.0352C123.061 98.0441 123.061 98.0441 123.061 98.053C123.061 98.0708 123.061 98.0886 123.061 98.1153C123.061 98.1242 123.061 98.1242 123.061 98.1331C123.061 98.1509 123.061 98.1686 123.061 98.1953C123.061 98.2042 123.061 98.2042 123.061 98.2131C123.132 102.279 123.203 106.345 123.283 110.411C120.837 105.971 118.372 101.532 115.872 97.101C115.597 96.6651 114.831 96.3893 113.577 96.2558C112.331 96.1313 111.237 96.0779 110.312 96.1046C107.945 96.1668 106.762 96.4249 106.78 96.8697C106.78 96.8875 106.78 96.9053 106.78 96.9231C106.78 96.932 106.78 96.9409 106.78 96.9498C106.78 96.9676 106.78 96.9854 106.78 97.0032C106.78 97.0121 106.78 97.0209 106.78 97.0298C106.78 97.0476 106.78 97.0654 106.78 97.0832C106.78 97.0921 106.78 97.101 106.78 97.1099C106.78 97.1277 106.78 97.1455 106.78 97.1633C106.78 97.1722 106.78 97.1811 106.78 97.19C106.78 97.2078 106.78 97.2256 106.78 97.2434C106.78 97.2523 106.78 97.2612 106.78 97.2701C106.78 97.2879 106.78 97.3056 106.78 97.3234C106.78 97.3323 106.78 97.3412 106.78 97.3501C106.78 97.3679 106.78 97.3857 106.78 97.4035C106.78 97.4124 106.78 97.4213 106.78 97.4302C106.78 97.448 106.78 97.4658 106.78 97.4836C106.78 97.4925 106.78 97.5014 106.78 97.5103C106.78 97.5281 106.78 97.5459 106.78 97.5637C106.78 97.5726 106.78 97.5815 106.78 97.5903C106.78 97.6081 106.78 97.6259 106.78 97.6437C106.78 97.6526 106.78 97.6615 106.78 97.6704C106.78 97.6882 106.78 97.706 106.78 97.7238C106.78 97.7327 106.78 97.7416 106.78 97.7505C106.78 97.7683 106.78 97.7861 106.78 97.8039C106.78 97.8128 106.78 97.8217 106.78 97.8306C106.78 97.8484 106.78 97.8662 106.78 97.8839C106.78 97.8928 106.78 97.9017 106.78 97.9106C106.78 97.9284 106.78 97.9462 106.78 97.964C106.78 97.9729 106.78 97.9818 106.78 97.9907C106.78 98.0085 106.78 98.0263 106.78 98.0441C106.78 98.053 106.78 98.0619 106.78 98.0708C106.78 98.0886 106.78 98.1064 106.78 98.1242C106.78 98.1331 106.78 98.142 106.78 98.1509C106.78 98.1686 106.78 98.1864 106.78 98.2042C106.78 98.2131 106.78 98.222 106.78 98.2309C106.78 98.2487 106.78 98.2665 106.78 98.2843C106.78 98.2932 106.78 98.3021 106.78 98.311C106.78 98.3288 106.78 98.3466 106.78 98.3644C106.78 98.3733 106.78 98.3822 106.78 98.3911C106.78 98.4089 106.78 98.4267 106.78 98.4445C106.78 98.4534 106.78 98.4622 106.78 98.4711C107.073 108.249 107.376 118.027 107.669 127.795C107.687 128.32 109.048 128.543 111.753 128.472C114.458 128.4 115.81 128.107 115.801 127.582C115.801 127.564 115.801 127.546 115.801 127.528C115.801 127.52 115.801 127.511 115.801 127.502C115.801 127.484 115.801 127.466 115.801 127.448C115.801 127.439 115.801 127.431 115.801 127.422C115.801 127.404 115.801 127.386 115.801 127.368C115.801 127.359 115.801 127.351 115.801 127.342C115.801 127.324 115.801 127.306 115.801 127.288C115.801 127.279 115.801 127.27 115.801 127.262C115.801 127.244 115.801 127.226 115.801 127.208C115.801 127.199 115.801 127.19 115.801 127.181C115.801 127.164 115.801 127.146 115.801 127.128C115.801 127.119 115.801 127.11 115.801 127.101C115.801 127.084 115.801 127.066 115.801 127.048C115.801 127.039 115.801 127.03 115.801 127.021C115.801 127.004 115.801 126.986 115.801 126.968C115.801 126.959 115.801 126.95 115.801 126.941C115.801 126.923 115.801 126.906 115.801 126.888C115.801 126.879 115.801 126.87 115.801 126.861C115.801 126.843 115.801 126.826 115.801 126.808C115.801 126.799 115.801 126.79 115.801 126.781C115.801 126.763 115.801 126.746 115.801 126.728C115.801 126.719 115.801 126.71 115.801 126.701C115.801 126.683 115.801 126.665 115.801 126.648C115.801 126.639 115.801 126.63 115.801 126.621C115.801 126.603 115.801 126.585 115.801 126.568C115.801 126.559 115.801 126.55 115.801 126.541C115.801 126.523 115.801 126.505 115.801 126.488C115.801 126.479 115.801 126.47 115.801 126.461C115.801 126.443 115.801 126.425 115.801 126.407C115.801 126.399 115.801 126.39 115.801 126.381C115.801 126.363 115.801 126.345 115.801 126.327C115.801 126.318 115.801 126.31 115.801 126.301C115.801 126.283 115.801 126.265 115.801 126.247C115.801 126.238 115.801 126.23 115.801 126.221C115.801 126.203 115.801 126.185 115.801 126.167C115.801 126.158 115.801 126.149 115.801 126.141C115.801 126.123 115.801 126.105 115.801 126.087C115.801 126.078 115.801 126.069 115.801 126.06C115.801 126.043 115.801 126.025 115.801 126.007C115.801 125.998 115.801 125.989 115.801 125.98C115.703 121.968 115.605 117.946 115.508 113.934C118.079 118.409 120.623 122.902 123.141 127.395C123.381 127.831 124.885 128.018 127.634 127.982C130.383 127.947 131.762 127.617 131.753 127.004C131.753 126.986 131.753 126.959 131.753 126.941V126.932C131.753 126.915 131.753 126.888 131.753 126.87V126.861C131.753 126.843 131.753 126.817 131.753 126.799V126.79C131.753 126.772 131.753 126.746 131.753 126.728V126.719C131.753 126.701 131.753 126.674 131.753 126.657V126.648C131.753 126.63 131.753 126.603 131.753 126.585V126.576C131.753 126.559 131.753 126.532 131.753 126.514V126.505C131.753 126.488 131.753 126.461 131.753 126.443V126.434C131.753 126.416 131.753 126.39 131.753 126.372V126.363C131.753 126.345 131.753 126.318 131.753 126.301V126.292C131.753 126.274 131.753 126.247 131.753 126.23V126.221C131.753 126.203 131.753 126.176 131.753 126.158V126.149C131.753 126.132 131.753 126.105 131.753 126.087V126.078C131.753 126.06 131.753 126.034 131.753 126.016V126.007C131.753 125.989 131.753 125.963 131.753 125.945V125.936C131.753 125.918 131.753 125.891 131.753 125.874V125.865C131.753 125.847 131.753 125.82 131.753 125.802V125.794C131.753 125.776 131.753 125.749 131.753 125.731V125.722C131.753 125.705 131.753 125.678 131.753 125.66V125.651C131.753 125.633 131.753 125.607 131.753 125.589V125.58C131.647 115.749 131.531 106.114 131.424 96.4871ZM160.286 125.767C160.286 125.776 160.286 125.794 160.277 125.802C160.277 125.811 160.286 125.829 160.286 125.838C160.286 125.847 160.286 125.865 160.277 125.874C160.277 125.883 160.286 125.9 160.286 125.909C160.286 125.918 160.286 125.936 160.277 125.945C160.277 125.954 160.286 125.971 160.286 125.98C160.286 125.989 160.286 126.007 160.277 126.016C160.277 126.025 160.286 126.043 160.286 126.052C160.286 126.06 160.286 126.078 160.277 126.087C160.277 126.096 160.286 126.114 160.286 126.123C160.286 126.132 160.286 126.149 160.277 126.158C160.277 126.167 160.286 126.185 160.286 126.194C160.286 126.203 160.286 126.221 160.277 126.23C160.277 126.238 160.286 126.256 160.286 126.265C160.286 126.274 160.286 126.292 160.277 126.301C160.277 126.31 160.286 126.327 160.286 126.336C160.286 126.345 160.286 126.363 160.277 126.372C160.277 126.381 160.286 126.399 160.286 126.407C160.286 126.416 160.286 126.434 160.277 126.443C160.277 126.452 160.286 126.47 160.286 126.479C160.286 126.488 160.286 126.505 160.277 126.514C160.277 126.523 160.286 126.541 160.286 126.55C160.286 126.559 160.286 126.576 160.277 126.585C160.277 126.594 160.286 126.612 160.286 126.621C160.286 126.63 160.286 126.648 160.277 126.657C160.277 126.665 160.286 126.683 160.286 126.692C160.286 126.701 160.286 126.719 160.277 126.728C160.277 126.737 160.286 126.754 160.286 126.763C160.286 126.772 160.286 126.79 160.277 126.799C160.277 126.808 160.286 126.826 160.286 126.834C160.286 126.843 160.286 126.861 160.277 126.87C160.277 126.879 160.286 126.897 160.286 126.906C160.286 126.915 160.286 126.932 160.277 126.941C160.277 126.95 160.286 126.968 160.286 126.977C160.286 126.986 160.286 127.004 160.277 127.012C160.277 127.021 160.286 127.039 160.286 127.048C160.286 127.057 160.286 127.075 160.277 127.084C160.277 127.093 160.286 127.11 160.286 127.119C160.286 127.128 160.286 127.146 160.277 127.155C160.277 127.164 160.286 127.181 160.286 127.19C160.286 127.395 159.61 127.546 158.257 127.653C156.905 127.76 155.837 127.804 155.045 127.804C152.501 127.786 151.122 127.377 150.917 126.559C150.437 124.673 149.965 122.786 149.476 120.9C147.136 120.891 144.796 120.891 142.456 120.9C142.038 122.715 141.611 124.53 141.202 126.345C141.033 127.253 139.627 127.706 136.994 127.733C135.588 127.742 134.547 127.671 133.871 127.52C133.195 127.368 132.857 127.244 132.857 127.155C132.857 127.137 132.865 127.119 132.865 127.11C132.857 127.101 132.857 127.093 132.857 127.084C132.857 127.066 132.865 127.048 132.865 127.039C132.857 127.03 132.857 127.021 132.857 127.012C132.857 126.995 132.865 126.977 132.865 126.968C132.857 126.959 132.857 126.95 132.857 126.941C132.857 126.923 132.865 126.906 132.865 126.897C132.857 126.888 132.857 126.879 132.857 126.87C132.857 126.852 132.865 126.834 132.865 126.826C132.857 126.817 132.857 126.808 132.857 126.799C132.857 126.781 132.865 126.763 132.865 126.754C132.857 126.746 132.857 126.737 132.857 126.728C132.857 126.71 132.865 126.692 132.865 126.683C132.857 126.674 132.857 126.665 132.857 126.657C132.857 126.639 132.865 126.621 132.865 126.612C132.857 126.603 132.857 126.594 132.857 126.585C132.857 126.568 132.865 126.55 132.865 126.541C132.857 126.532 132.857 126.523 132.857 126.514C132.857 126.496 132.865 126.479 132.865 126.47C132.857 126.461 132.857 126.452 132.857 126.443C132.857 126.425 132.865 126.407 132.865 126.399C132.857 126.39 132.857 126.381 132.857 126.372C132.857 126.354 132.865 126.336 132.865 126.327C132.857 126.318 132.857 126.31 132.857 126.301C132.857 126.283 132.865 126.265 132.865 126.256C132.857 126.247 132.857 126.238 132.857 126.23C132.857 126.212 132.865 126.194 132.865 126.185C132.857 126.176 132.857 126.167 132.857 126.158C132.857 126.141 132.865 126.123 132.865 126.114C132.857 126.105 132.857 126.096 132.857 126.087C132.857 126.069 132.865 126.052 132.865 126.043C132.857 126.034 132.857 126.025 132.857 126.016C132.857 125.998 132.865 125.98 132.865 125.971C132.857 125.963 132.857 125.954 132.857 125.945C132.857 125.927 132.865 125.909 132.865 125.9C132.857 125.891 132.857 125.883 132.857 125.874C132.857 125.856 132.865 125.838 132.865 125.829C132.857 125.82 132.857 125.811 132.857 125.802C132.857 125.785 132.865 125.767 132.865 125.758C132.857 125.749 132.857 125.74 132.857 125.731C135.348 115.811 137.892 105.891 140.499 95.98C140.499 95.7487 142.554 95.6152 146.665 95.6152C150.775 95.6152 152.83 95.7487 152.83 95.98C155.375 105.9 157.857 115.829 160.286 125.767ZM145.953 106.345C145.285 108.863 144.618 111.381 143.96 113.907C145.268 113.907 146.576 113.907 147.883 113.907C147.332 111.389 146.78 108.872 146.22 106.354C146.131 106.345 146.042 106.345 145.953 106.345ZM196.79 97.5903C196.808 97.1811 196.042 96.8697 194.503 96.6473C192.964 96.4338 191.638 96.3003 190.535 96.2647C186.665 96.1313 184.583 96.4604 184.298 97.2078C182.697 101.781 181.104 106.363 179.539 110.945C177.999 106.3 176.434 101.656 174.859 97.0121C174.69 96.5405 173.827 96.2024 172.27 96.0156C170.713 95.8288 169.396 95.722 168.311 95.7042C164.654 95.6419 162.812 95.9711 162.804 96.674C162.341 106.167 161.878 115.669 161.433 125.171C161.433 125.189 161.433 125.206 161.433 125.224C161.433 125.233 161.433 125.242 161.433 125.242C161.433 125.26 161.433 125.278 161.433 125.295C161.433 125.304 161.433 125.313 161.433 125.313C161.433 125.331 161.433 125.349 161.433 125.367C161.433 125.375 161.433 125.384 161.433 125.384C161.433 125.402 161.433 125.42 161.433 125.438C161.433 125.447 161.433 125.455 161.433 125.455C161.433 125.473 161.433 125.491 161.433 125.509C161.433 125.518 161.433 125.527 161.433 125.527C161.433 125.544 161.433 125.562 161.433 125.58C161.433 125.589 161.433 125.598 161.433 125.598C161.433 125.616 161.433 125.633 161.433 125.651C161.433 125.66 161.433 125.669 161.433 125.669C161.433 125.687 161.433 125.705 161.433 125.722C161.433 125.731 161.433 125.74 161.433 125.74C161.433 125.758 161.433 125.776 161.433 125.794C161.433 125.802 161.433 125.811 161.433 125.811C161.433 125.829 161.433 125.847 161.433 125.865C161.433 125.874 161.433 125.883 161.433 125.883C161.433 125.9 161.433 125.918 161.433 125.936C161.433 125.945 161.433 125.954 161.433 125.954C161.433 125.971 161.433 125.989 161.433 126.007C161.433 126.016 161.433 126.025 161.433 126.025C161.433 126.043 161.433 126.06 161.433 126.078C161.433 126.087 161.433 126.096 161.433 126.096C161.433 126.114 161.433 126.132 161.433 126.149C161.433 126.158 161.433 126.167 161.433 126.167C161.433 126.185 161.433 126.203 161.433 126.221C161.433 126.23 161.433 126.238 161.433 126.238C161.433 126.256 161.433 126.274 161.433 126.292C161.433 126.301 161.433 126.31 161.433 126.31C161.433 126.327 161.433 126.345 161.433 126.363C161.433 126.372 161.433 126.381 161.433 126.381C161.433 126.399 161.433 126.416 161.433 126.434C161.433 126.443 161.433 126.452 161.433 126.452C161.433 126.47 161.433 126.488 161.433 126.505C161.433 126.514 161.433 126.523 161.433 126.523C161.433 126.541 161.433 126.559 161.433 126.576C161.433 126.585 161.433 126.594 161.433 126.594C161.398 127.119 162.083 127.493 163.489 127.715C164.165 127.813 164.859 127.867 165.57 127.875C166.291 127.884 167.19 127.822 168.275 127.68C169.361 127.537 169.921 127.253 169.966 126.808C170.277 120.98 170.597 115.153 170.917 109.325C172.679 115.366 174.405 121.416 176.113 127.466C176.167 127.786 177.128 127.973 179.005 128.018C180.882 128.062 181.878 127.92 182.003 127.573C183.96 121.692 185.935 115.811 187.937 109.939C188.062 115.811 188.178 121.674 188.293 127.546C188.275 128.133 189.565 128.463 192.172 128.56C193.053 128.596 194.067 128.56 195.215 128.454C196.363 128.356 196.941 128.142 196.959 127.822C196.959 127.795 196.959 127.769 196.959 127.751C196.959 127.724 196.959 127.697 196.959 127.68C196.959 127.653 196.959 127.626 196.959 127.609C196.959 127.582 196.959 127.555 196.959 127.537C196.959 127.511 196.959 127.484 196.959 127.466C196.959 127.439 196.959 127.413 196.959 127.395C196.959 127.368 196.959 127.342 196.959 127.324C196.959 127.297 196.959 127.27 196.959 127.253C196.959 127.226 196.959 127.199 196.959 127.181C196.959 127.155 196.959 127.128 196.959 127.11C196.959 127.084 196.959 127.057 196.959 127.039C196.959 127.012 196.959 126.986 196.959 126.968C196.959 126.941 196.959 126.915 196.959 126.897C196.959 126.87 196.959 126.843 196.959 126.826C196.959 126.799 196.959 126.772 196.959 126.754C196.959 126.728 196.959 126.701 196.959 126.683C196.959 126.657 196.959 126.63 196.959 126.612C196.959 126.585 196.959 126.559 196.959 126.541C196.959 126.514 196.959 126.488 196.959 126.47C196.959 126.443 196.959 126.416 196.959 126.399C196.905 116.79 196.852 107.19 196.79 97.5903ZM217.92 97.5281C212.555 97.2345 207.19 96.9676 201.825 96.7451C201.131 96.7185 200.776 97.0832 200.74 97.8395C200.348 107.235 199.957 116.621 199.566 126.016C199.566 126.069 199.566 126.132 199.566 126.185C199.566 126.212 199.566 126.238 199.566 126.265C199.566 126.292 199.566 126.318 199.566 126.345C199.566 126.372 199.566 126.399 199.566 126.425C199.566 126.452 199.566 126.479 199.566 126.505C199.566 126.532 199.566 126.559 199.566 126.585C199.566 126.612 199.566 126.639 199.566 126.665C199.566 126.692 199.566 126.719 199.566 126.746C199.566 126.772 199.566 126.799 199.566 126.826C199.566 126.852 199.566 126.879 199.566 126.906C199.566 126.932 199.566 126.959 199.566 126.986C199.566 127.012 199.566 127.039 199.566 127.066C199.566 127.093 199.566 127.119 199.566 127.146C199.566 127.173 199.566 127.199 199.566 127.226C199.566 127.253 199.566 127.279 199.566 127.306C199.566 127.333 199.566 127.359 199.566 127.386C199.566 127.413 199.566 127.439 199.566 127.466C199.566 127.493 199.566 127.52 199.566 127.546C199.566 127.573 199.566 127.6 199.566 127.626C199.566 127.653 199.566 127.68 199.566 127.706C199.566 128.552 200.099 128.996 201.176 129.041C206.185 129.254 211.185 129.504 216.194 129.779C216.603 129.806 216.923 129.326 217.155 128.338C217.386 127.359 217.52 126.55 217.555 125.918C217.573 125.607 217.582 125.295 217.573 125.002C217.573 124.975 217.573 124.948 217.573 124.922C217.573 124.895 217.573 124.868 217.573 124.842C217.573 124.815 217.573 124.788 217.573 124.762C217.573 124.735 217.573 124.708 217.573 124.681C217.573 124.655 217.573 124.628 217.573 124.601C217.573 124.575 217.573 124.548 217.573 124.521C217.573 124.495 217.573 124.468 217.573 124.441C217.573 124.415 217.573 124.388 217.573 124.361C217.573 124.334 217.573 124.308 217.573 124.281C217.573 124.254 217.573 124.228 217.573 124.201C217.573 124.174 217.573 124.148 217.573 124.121C217.573 124.094 217.573 124.068 217.573 124.041C217.573 124.014 217.573 123.987 217.573 123.961C217.573 123.934 217.573 123.907 217.573 123.881C217.573 123.854 217.573 123.827 217.573 123.801C217.573 123.774 217.573 123.747 217.573 123.721C217.573 123.694 217.573 123.667 217.573 123.641C217.573 123.614 217.573 123.587 217.573 123.56C217.573 123.534 217.573 123.507 217.573 123.48C217.573 123.16 217.555 122.84 217.52 122.537C217.413 121.247 217.11 120.58 216.612 120.553C213.925 120.402 211.247 120.269 208.56 120.135C208.605 119.183 208.649 118.231 208.703 117.27C210.58 117.359 212.457 117.457 214.334 117.555C214.69 117.573 214.957 117.172 215.135 116.345C215.313 115.518 215.42 114.797 215.455 114.192C215.473 113.854 215.482 113.543 215.482 113.258C215.482 113.231 215.482 113.204 215.482 113.178C215.482 113.151 215.482 113.124 215.482 113.098C215.482 113.071 215.482 113.044 215.482 113.018C215.482 112.991 215.482 112.964 215.482 112.938C215.482 112.911 215.482 112.884 215.482 112.857C215.482 112.831 215.482 112.804 215.482 112.777C215.482 112.751 215.482 112.724 215.482 112.697C215.482 112.671 215.482 112.644 215.482 112.617C215.482 112.591 215.482 112.564 215.482 112.537C215.482 112.51 215.482 112.484 215.482 112.457C215.482 112.43 215.482 112.404 215.482 112.377C215.482 112.35 215.482 112.324 215.482 112.297C215.482 112.27 215.482 112.244 215.482 112.217C215.482 112.19 215.482 112.163 215.482 112.137C215.482 112.11 215.482 112.083 215.482 112.057C215.482 112.03 215.482 112.003 215.482 111.977C215.482 111.95 215.482 111.923 215.482 111.897C215.482 111.87 215.482 111.843 215.482 111.817C215.482 111.79 215.482 111.763 215.482 111.736C215.491 110.26 215.251 109.512 214.77 109.486C212.884 109.388 210.989 109.29 209.103 109.201C209.148 108.231 209.201 107.261 209.245 106.292C212.003 106.425 214.761 106.567 217.511 106.719C218.133 106.754 218.525 105.482 218.667 102.893C218.694 102.395 218.712 101.941 218.712 101.541C218.712 101.514 218.712 101.487 218.712 101.461C218.712 101.434 218.712 101.407 218.712 101.38C218.712 101.354 218.712 101.327 218.712 101.3C218.712 101.274 218.712 101.247 218.712 101.22C218.712 101.194 218.712 101.167 218.712 101.14C218.712 101.114 218.712 101.087 218.712 101.06C218.712 101.033 218.712 101.007 218.712 100.98C218.712 100.953 218.712 100.927 218.712 100.9C218.712 100.873 218.712 100.847 218.712 100.82C218.712 100.793 218.712 100.767 218.712 100.74C218.712 100.713 218.712 100.686 218.712 100.66C218.712 100.633 218.712 100.606 218.712 100.58C218.712 100.553 218.712 100.526 218.712 100.5C218.712 100.473 218.712 100.446 218.712 100.42C218.712 100.393 218.712 100.366 218.712 100.339C218.712 100.313 218.712 100.286 218.712 100.259C218.712 100.233 218.712 100.206 218.712 100.179C218.712 100.153 218.712 100.126 218.712 100.099C218.712 100.073 218.712 100.046 218.712 100.019C218.694 98.4445 218.436 97.5548 217.92 97.5281ZM241.595 99.0494C238.81 98.8448 237.395 99.0317 237.36 99.5833C237.039 104.165 236.719 108.738 236.399 113.32C234.344 108.658 232.262 104.014 230.162 99.3608C229.922 98.9071 229.183 98.5601 227.947 98.3199C226.71 98.0797 225.633 97.9373 224.708 97.8751C222.342 97.7327 221.149 97.8839 221.123 98.3199C220.562 108.08 220.002 117.849 219.441 127.609C219.441 127.626 219.441 127.644 219.441 127.662C219.441 127.671 219.441 127.68 219.441 127.689C219.441 127.706 219.441 127.724 219.441 127.742C219.441 127.751 219.441 127.76 219.441 127.769C219.441 127.786 219.441 127.804 219.441 127.822C219.441 127.831 219.441 127.84 219.441 127.849C219.441 127.867 219.441 127.884 219.441 127.902C219.441 127.911 219.441 127.92 219.441 127.929C219.441 127.947 219.441 127.964 219.441 127.982C219.441 127.991 219.441 128 219.441 128.009C219.441 128.027 219.441 128.044 219.441 128.062C219.441 128.071 219.441 128.08 219.441 128.089C219.441 128.107 219.441 128.125 219.441 128.142C219.441 128.151 219.441 128.16 219.441 128.169C219.441 128.187 219.441 128.205 219.441 128.222C219.441 128.231 219.441 128.24 219.441 128.249C219.441 128.267 219.441 128.285 219.441 128.302C219.441 128.311 219.441 128.32 219.441 128.329C219.441 128.347 219.441 128.365 219.441 128.383C219.441 128.391 219.441 128.4 219.441 128.409C219.441 128.427 219.441 128.445 219.441 128.463C219.441 128.472 219.441 128.48 219.441 128.489C219.441 128.507 219.441 128.525 219.441 128.543C219.441 128.552 219.441 128.56 219.441 128.569C219.441 128.587 219.441 128.605 219.441 128.623C219.441 128.632 219.441 128.641 219.441 128.649C219.441 128.667 219.441 128.685 219.441 128.703C219.441 128.712 219.441 128.721 219.441 128.73C219.441 128.747 219.441 128.765 219.441 128.783C219.441 128.792 219.441 128.801 219.441 128.81C219.441 128.827 219.441 128.845 219.441 128.863C219.441 128.872 219.441 128.881 219.441 128.89C219.441 128.907 219.441 128.925 219.441 128.943C219.441 128.952 219.441 128.961 219.441 128.97C219.441 128.988 219.441 129.005 219.441 129.023C219.441 129.032 219.441 129.041 219.441 129.05C219.441 129.068 219.441 129.085 219.441 129.103C219.441 129.112 219.441 129.121 219.441 129.13C219.441 129.148 219.441 129.165 219.441 129.183C219.441 129.192 219.441 129.201 219.441 129.21C219.415 129.735 220.749 130.073 223.454 130.242C226.158 130.402 227.529 130.233 227.564 129.708C227.858 125.171 228.142 120.633 228.436 116.096C230.616 120.802 232.769 125.518 234.895 130.242C235.1 130.696 236.577 131.016 239.326 131.221C242.075 131.425 243.472 131.221 243.516 130.607C244.255 120.998 244.984 111.398 245.723 101.79C245.723 101.772 245.723 101.754 245.723 101.727C245.723 101.719 245.723 101.719 245.723 101.71C245.723 101.692 245.723 101.674 245.723 101.647C245.723 101.638 245.723 101.638 245.723 101.63C245.723 101.612 245.723 101.594 245.723 101.567C245.723 101.558 245.723 101.558 245.723 101.549C245.723 101.532 245.723 101.514 245.723 101.487C245.723 101.478 245.723 101.478 245.723 101.469C245.723 101.452 245.723 101.434 245.723 101.407C245.723 101.398 245.723 101.398 245.723 101.389C245.723 101.372 245.723 101.354 245.723 101.327C245.723 101.318 245.723 101.318 245.723 101.309C245.723 101.291 245.723 101.274 245.723 101.247C245.723 101.238 245.723 101.238 245.723 101.229C245.723 101.211 245.723 101.194 245.723 101.167C245.723 101.158 245.723 101.158 245.723 101.149C245.723 101.131 245.723 101.114 245.723 101.087C245.723 101.078 245.723 101.078 245.723 101.069C245.723 101.051 245.723 101.033 245.723 101.007C245.723 100.998 245.723 100.998 245.723 100.989C245.723 100.971 245.723 100.953 245.723 100.927C245.723 100.918 245.723 100.918 245.723 100.909C245.723 100.891 245.723 100.873 245.723 100.847C245.723 100.838 245.723 100.838 245.723 100.829C245.723 100.811 245.723 100.793 245.723 100.767C245.723 100.758 245.723 100.758 245.723 100.749C245.723 100.731 245.723 100.713 245.723 100.686C245.723 100.678 245.723 100.678 245.723 100.669C245.723 100.651 245.723 100.633 245.723 100.606C245.723 100.598 245.723 100.598 245.723 100.589C245.723 100.571 245.723 100.553 245.723 100.526C245.723 100.517 245.723 100.517 245.723 100.509C245.723 100.491 245.723 100.473 245.723 100.446C245.723 100.437 245.723 100.437 245.723 100.428C245.723 100.411 245.723 100.393 245.723 100.366C245.723 100.357 245.723 100.357 245.723 100.348C245.723 100.331 245.723 100.313 245.723 100.286C245.723 100.277 245.723 100.277 245.723 100.268C245.723 100.251 245.723 100.233 245.723 100.206C245.723 100.197 245.723 100.197 245.723 100.188C245.749 99.6366 244.379 99.2541 241.595 99.0494Z" fill="#B678FF"/>
<path d="M25.7556 105.17C25.8179 105.838 25.8356 106.496 25.809 107.146C25.7289 108.507 25.4353 109.21 24.9282 109.254C23.1933 109.414 21.4495 109.583 19.7146 109.752C20.4352 117.057 21.147 124.361 21.8676 131.665C21.921 132.253 20.5064 132.68 17.6238 132.973C14.7323 133.267 13.2643 133.133 13.202 132.546C12.4369 125.251 11.6629 117.946 10.8977 110.651C9.11835 110.838 7.33897 111.034 5.55069 111.22C5.04356 111.274 4.61651 110.651 4.26064 109.334C4.10049 108.703 3.98483 108.053 3.91366 107.386C3.84248 106.719 3.81579 106.06 3.83358 105.411C3.89586 104.049 4.18057 103.347 4.68769 103.284C11.1824 102.573 17.6861 101.914 24.1897 101.3C24.6968 101.256 25.1239 101.887 25.4531 103.204C25.5865 103.854 25.6933 104.503 25.7556 105.17ZM54.893 114.236C55.2666 119.53 54.2346 123.56 51.8235 126.336C49.4036 129.112 46.1562 130.66 42.0547 130.998C37.9532 131.336 34.4923 130.295 31.6631 127.849C28.8339 125.402 27.1613 121.621 26.6809 116.478C26.2004 111.345 27.1613 107.324 29.5901 104.432C32.019 101.541 35.3642 99.9124 39.5992 99.5654C43.8341 99.2184 47.3573 100.259 50.1509 102.679C52.9445 105.081 54.5193 108.943 54.893 114.236ZM45.7914 114.806C45.6046 112.475 44.9907 110.722 43.9231 109.539C42.8554 108.364 41.6099 107.831 40.1864 107.946C38.7629 108.062 37.6152 108.809 36.7611 110.171C35.9069 111.532 35.5778 113.373 35.7824 115.687C35.9781 118 36.592 119.744 37.6152 120.9C38.6294 122.057 39.8839 122.582 41.3696 122.457C42.8554 122.333 44.012 121.612 44.8394 120.286C45.6491 118.97 45.9694 117.137 45.7914 114.806ZM80.089 98.133C80.0623 97.5458 78.4164 97.3412 75.169 97.5191C71.9127 97.697 70.3113 98.0885 70.3469 98.6668C70.7295 105.259 71.1209 111.861 71.5035 118.454C71.5391 119.094 71.2811 119.592 70.7295 119.948C70.1778 120.304 69.5462 120.5 68.8344 120.544C68.1316 120.589 67.4376 120.455 66.7703 120.144C66.1298 119.833 65.7917 119.388 65.7561 118.801C65.3379 112.217 64.9287 105.642 64.5105 99.0583C64.4749 98.48 62.829 98.2842 59.5816 98.4978C56.3343 98.7113 54.7239 99.1294 54.7684 99.7077C55.2221 106.167 55.6759 112.626 56.1385 119.085C56.3698 122.386 57.74 124.913 60.2311 126.692C62.7222 128.471 65.8362 129.245 69.5907 129.014C73.3451 128.783 76.2366 127.68 78.2829 125.687C80.3203 123.694 81.2723 121.203 81.121 118.222C80.7741 111.532 80.4271 104.832 80.089 98.133ZM100.587 113.836C102.563 116.834 104.52 119.841 106.468 122.858C106.255 123.569 105.516 124.397 104.253 125.34C102.536 126.656 101.112 127.333 99.9647 127.377C98.8259 127.422 97.9629 127.039 97.3668 126.247C95.8632 123.098 94.3596 119.957 92.8383 116.817C92.3845 116.834 91.9219 116.852 91.4682 116.879C91.6105 120.197 91.7529 123.507 91.8952 126.826C91.913 127.297 90.534 127.582 87.7581 127.715C84.9467 127.849 83.5321 127.697 83.5143 127.261C83.0428 117.742 82.5712 108.222 82.0997 98.7024C82.0463 97.6792 82.5801 97.1454 83.6834 97.0921C86.5482 96.9497 89.413 96.8251 92.2689 96.7095C100.16 96.3892 104.2 99.2718 104.386 105.259C104.449 107.074 104.137 108.729 103.479 110.224C102.821 111.701 101.86 112.911 100.587 113.836ZM95.534 107.439C95.4896 106.389 95.1871 105.615 94.6177 105.126C94.0483 104.637 93.1319 104.414 91.8863 104.468C91.5749 104.476 91.2635 104.494 90.9432 104.503C91.0411 106.692 91.1301 108.889 91.2279 111.078C91.2991 111.078 91.3792 111.069 91.4504 111.069C94.2618 110.962 95.623 109.752 95.534 107.439ZM127.225 95.7041C124.431 95.7486 123.043 96.0511 123.052 96.6027C123.132 101.194 123.212 105.784 123.301 110.375C120.846 105.918 118.372 101.46 115.863 97.0209C115.588 96.5849 114.823 96.3091 113.568 96.1757C112.323 96.0511 111.228 95.9977 110.303 96.0244C107.936 96.0867 106.753 96.3447 106.771 96.7896C107.064 106.567 107.367 116.345 107.661 126.114C107.678 126.639 109.04 126.861 111.744 126.79C114.449 126.719 115.801 126.425 115.792 125.9C115.686 121.354 115.57 116.808 115.463 112.261C118.043 116.763 120.606 121.274 123.132 125.785C123.372 126.221 124.876 126.407 127.625 126.372C130.374 126.336 131.753 126.007 131.744 125.393C131.638 115.758 131.522 106.122 131.415 96.496C131.415 95.9266 130.018 95.6685 127.225 95.7041ZM152.83 95.971C155.375 105.9 157.857 115.829 160.286 125.767C160.286 125.971 159.61 126.123 158.257 126.229C156.905 126.336 155.837 126.381 155.045 126.381C152.501 126.363 151.122 125.954 150.917 125.135C150.437 123.249 149.965 121.363 149.476 119.477C147.136 119.468 144.796 119.468 142.456 119.477C142.038 121.292 141.611 123.107 141.202 124.922C141.033 125.829 139.627 126.283 136.994 126.31C135.588 126.318 134.547 126.247 133.871 126.096C133.195 125.945 132.857 125.82 132.857 125.731C135.348 115.811 137.892 105.891 140.499 95.9799C140.499 95.7486 142.554 95.6152 146.665 95.6152C150.775 95.6063 152.83 95.7397 152.83 95.971ZM148.213 113.898C147.554 110.873 146.887 107.848 146.211 104.815C146.122 104.815 146.033 104.815 145.944 104.815C145.143 107.84 144.342 110.864 143.551 113.898C145.108 113.898 146.665 113.898 148.213 113.898ZM194.503 96.6472C192.964 96.4337 191.638 96.3002 190.535 96.2646C186.665 96.1312 184.583 96.4604 184.299 97.2077C182.697 101.781 181.105 106.363 179.539 110.945C177.999 106.3 176.434 101.656 174.859 97.012C174.69 96.5404 173.827 96.2024 172.27 96.0155C170.713 95.8287 169.396 95.7219 168.311 95.7041C164.654 95.6419 162.812 95.971 162.804 96.6739C162.341 106.167 161.878 115.669 161.433 125.171C161.398 125.696 162.083 126.069 163.489 126.292C164.165 126.39 164.859 126.443 165.571 126.452C166.291 126.461 167.19 126.398 168.275 126.256C169.361 126.114 169.921 125.829 169.966 125.384C170.277 119.557 170.597 113.729 170.918 107.902C172.679 113.943 174.405 119.993 176.113 126.043C176.167 126.363 177.128 126.55 179.005 126.594C180.882 126.639 181.879 126.496 182.003 126.149C183.96 120.269 185.936 114.388 187.937 108.516C188.062 114.388 188.178 120.251 188.293 126.123C188.275 126.71 189.565 127.039 192.172 127.137C193.053 127.173 194.067 127.137 195.215 127.03C196.363 126.932 196.941 126.719 196.959 126.398C196.914 116.799 196.861 107.199 196.799 97.5992C196.808 97.181 196.042 96.8696 194.503 96.6472ZM217.92 97.528C212.555 97.2344 207.19 96.9675 201.825 96.7451C201.131 96.7184 200.776 97.0832 200.74 97.8394C200.349 107.235 199.957 116.621 199.566 126.016C199.53 126.923 200.064 127.395 201.176 127.448C206.185 127.662 211.185 127.911 216.194 128.187C216.603 128.213 216.923 127.733 217.155 126.745C217.386 125.767 217.52 124.957 217.555 124.325C217.591 123.694 217.582 123.107 217.52 122.546C217.413 121.256 217.11 120.589 216.612 120.562C213.907 120.411 211.194 120.277 208.489 120.144C208.56 118.685 208.632 117.226 208.703 115.767C210.58 115.856 212.457 115.954 214.334 116.051C214.69 116.069 214.957 115.669 215.135 114.841C215.313 114.014 215.42 113.293 215.455 112.688C215.562 110.642 215.34 109.61 214.77 109.574C212.858 109.477 210.945 109.379 209.023 109.281C209.094 107.804 209.165 106.327 209.237 104.859C211.995 104.993 214.753 105.135 217.502 105.286C218.125 105.322 218.516 104.049 218.658 101.46C218.792 98.8714 218.552 97.5636 217.92 97.528ZM241.595 99.0494C238.81 98.8447 237.395 99.0316 237.36 99.5832C237.039 104.165 236.719 108.738 236.399 113.32C234.344 108.658 232.262 104.014 230.162 99.3608C229.922 98.907 229.183 98.56 227.947 98.3198C226.71 98.0796 225.634 97.9373 224.708 97.875C222.342 97.7326 221.15 97.8839 221.123 98.3198C220.562 108.08 220.002 117.849 219.441 127.608C219.415 128.133 220.749 128.471 223.454 128.64C226.158 128.801 227.529 128.632 227.564 128.107C227.858 123.569 228.143 119.032 228.436 114.494C230.616 119.201 232.769 123.916 234.895 128.64C235.1 129.094 236.577 129.415 239.326 129.619C242.075 129.824 243.472 129.619 243.516 129.005C244.255 119.397 244.984 109.797 245.723 100.188C245.749 99.6366 244.379 99.254 241.595 99.0494ZM267.743 107.217C267.894 106.585 268.001 105.936 268.063 105.268C268.125 104.601 268.143 103.943 268.116 103.293C268.036 101.932 267.734 101.229 267.227 101.185C260.723 100.58 254.219 100.019 247.707 99.512C247.2 99.4764 246.79 100.117 246.47 101.443C246.328 102.074 246.239 102.733 246.185 103.4C246.132 104.067 246.132 104.734 246.168 105.375C246.274 106.736 246.577 107.43 247.084 107.466C248.872 107.608 250.652 107.751 252.44 107.893C251.835 115.206 251.239 122.519 250.634 129.833C250.589 130.42 252.013 130.82 254.895 131.069C257.787 131.318 259.255 131.158 259.308 130.571C259.958 123.258 260.607 115.954 261.266 108.64C263.001 108.791 264.744 108.952 266.479 109.112C266.986 109.174 267.405 108.542 267.743 107.217ZM280.163 109.859C281.666 110.019 283.312 110.678 285.109 111.834C285.394 111.692 285.946 110.873 286.773 109.388C287.592 107.902 288.063 106.656 288.179 105.633C288.188 105.544 288.197 105.455 288.206 105.375C288.223 104.646 287.351 103.952 285.581 103.302C283.81 102.653 281.844 102.217 279.691 102.003C276.524 101.674 273.873 102.306 271.746 103.88C269.62 105.455 268.445 107.519 268.196 110.082C267.956 112.644 268.348 114.806 269.371 116.585C269.727 117.235 270.269 117.884 270.99 118.525C271.72 119.165 272.307 119.637 272.752 119.93C273.196 120.224 273.873 120.633 274.771 121.167C275.67 121.701 276.275 122.155 276.595 122.519C276.915 122.893 277.049 123.293 277.004 123.729C276.906 124.69 276.23 125.108 274.985 124.975C273.739 124.85 272.467 124.343 271.177 123.454C269.887 122.564 268.979 121.87 268.463 121.381C267.929 121.71 267.378 122.448 266.826 123.578C266.275 124.717 265.945 125.882 265.83 127.075C265.714 128.267 266.15 129.334 267.12 130.278C268.09 131.221 269.273 131.906 270.661 132.342C272.049 132.769 273.615 133.071 275.367 133.249C278.962 133.56 281.72 132.822 283.659 131.034C285.599 129.245 286.746 126.799 287.085 123.685C287.351 121.301 286.782 119.299 285.376 117.671C284.682 116.888 284.024 116.256 283.41 115.758C282.787 115.268 282.209 114.85 281.657 114.512C281.106 114.174 280.625 113.881 280.198 113.631C279.771 113.382 279.451 113.187 279.229 113.044C278.179 112.439 277.689 111.816 277.761 111.176C277.858 110.153 278.659 109.699 280.163 109.859Z" fill="url(#paint3_linear_1740_46509)"/>
<defs>
<linearGradient gradientUnits="userSpaceOnUse" id="paint0_linear_1740_46509" x1="146.015" x2="146.015" y1="0" y2="87.5723">
<stop stop-color="#7E71FF"/>
<stop offset="1" stop-color="#9843F6"/>
</linearGradient>
<linearGradient gradientUnits="userSpaceOnUse" id="paint1_linear_1740_46509" x1="76.7089" x2="74.0062" y1="4.80005" y2="90.3909">
<stop stop-color="white"/>
<stop offset="1" stop-color="#CBBCFF"/>
</linearGradient>
<linearGradient gradientUnits="userSpaceOnUse" id="paint2_linear_1740_46509" x1="146" x2="146" y1="93.3999" y2="138.561">
<stop stop-color="#4E3CF5"/>
<stop offset="1" stop-color="#9843F6"/>
</linearGradient>
<linearGradient gradientUnits="userSpaceOnUse" id="paint3_linear_1740_46509" x1="59.5983" x2="58.9916" y1="95.6147" y2="140.915">
<stop stop-color="white"/>
<stop offset="1" stop-color="#CBBCFF"/>
</linearGradient>
</defs>
</svg>