<?xml version="1.0" encoding="utf-8"?>
<svg xmlns="http://www.w3.org/2000/svg" fill="none" height="20" viewBox="0 0 20 20" width="20">
<path clip-rule="evenodd" d="M1.41339 1.35986C0.749115 1.35986 0.107369 1.91759 0.196861 2.69481C0.444939 4.84931 2.04338 6.59616 4.12772 7.06034C4.29442 7.09746 4.37777 7.11602 4.42174 7.17086C4.4657 7.22569 4.4657 7.30624 4.4657 7.46734V8.40138C4.4657 10.8234 6.02025 12.8813 8.18638 13.6318C8.32875 13.6812 8.39994 13.7058 8.437 13.7579C8.47407 13.81 8.47407 13.8814 8.47407 14.0244V14.2354C8.47407 15.1111 7.76415 15.821 6.88841 15.821C6.08003 15.821 5.42711 16.4739 5.42711 17.2823L5.42711 17.8181C5.42711 18.0066 5.42711 18.1009 5.36853 18.1595C5.30996 18.2181 5.21567 18.2181 5.02711 18.2181H4.12876C3.63682 18.2181 3.23801 18.6169 3.23801 19.1088C3.23801 19.6008 3.63681 19.9996 4.12876 19.9996H15.871C16.363 19.9996 16.7618 19.6008 16.7618 19.1088C16.7618 18.6169 16.363 18.2181 15.871 18.2181H14.9732C14.7846 18.2181 14.6903 18.2181 14.6317 18.1595C14.5732 18.1009 14.5732 18.0066 14.5732 17.8181L14.5732 17.2823C14.5732 16.4739 13.9202 15.821 13.1119 15.821C12.2309 15.8262 11.521 15.1163 11.521 14.2354V14.026C11.521 13.883 11.521 13.8115 11.5581 13.7594C11.5952 13.7073 11.6665 13.6826 11.8091 13.6334C13.9775 12.8841 15.5342 10.8251 15.5342 8.40138V7.47642C15.5342 7.31416 15.5342 7.23303 15.5786 7.17806C15.623 7.12308 15.7071 7.10494 15.8754 7.06866C17.9742 6.61602 19.5836 4.8522 19.8094 2.6815C19.8898 1.90905 19.2509 1.35986 18.5917 1.35986H10.0646H9.93506H1.41339ZM15.5342 5.11521C15.5342 5.34717 15.5342 5.46316 15.6193 5.52289C15.7044 5.58262 15.8054 5.54617 16.0074 5.47327C16.9994 5.11521 17.7847 4.32471 18.1362 3.331C18.2074 3.12962 18.243 3.02893 18.1832 2.9444C18.1234 2.85986 18.0081 2.85986 17.7773 2.85986H10.0646H9.93506H2.23676C2.0038 2.85986 1.88731 2.85986 1.8276 2.94524C1.76789 3.03062 1.80493 3.132 1.87899 3.33476C2.23673 4.31411 3.01152 5.09393 3.9889 5.45803C4.19223 5.53377 4.2939 5.57164 4.3798 5.51198C4.4657 5.45231 4.4657 5.33522 4.4657 5.10104V4.66693C4.4657 4.47836 4.4657 4.38408 4.52428 4.3255C4.58286 4.26693 4.67714 4.26693 4.8657 4.26693H15.1342C15.3228 4.26693 15.4171 4.26693 15.4757 4.3255C15.5342 4.38408 15.5342 4.47836 15.5342 4.66693V5.11521Z" fill="url(#paint0_linear_752_1077)" fill-opacity="0.6" fill-rule="evenodd" opacity="0.6"/>
<path clip-rule="evenodd" d="M9.88086 13.9344C9.92049 13.9352 9.96022 13.9356 10 13.9356C13.0574 13.9356 15.5343 11.4587 15.5343 8.40138V7.12994C17.798 6.8037 19.5716 4.9684 19.8095 2.6815C19.8899 1.90905 19.251 1.35986 18.5918 1.35986H10.0647H9.93515H9.88086V2.85986H9.93515H10.0647H18.2666C17.9882 4.23396 16.9081 5.32066 15.5343 5.60728V4.26582H9.88086V13.9344Z" fill="#ABAAFF" fill-rule="evenodd"/>
<defs>
<linearGradient gradientUnits="userSpaceOnUse" id="paint0_linear_752_1077" x1="7.05061" x2="5.64633" y1="32.6273" y2="-30.4891">
<stop offset="0.0926412" stop-color="#CBC9FF"/>
<stop offset="0.730406" stop-color="#ABAAFF"/>
</linearGradient>
</defs>
</svg>