<?xml version="1.0" encoding="utf-8"?>
<svg xmlns="http://www.w3.org/2000/svg" fill="none" height="33" viewBox="0 0 32 33" width="32">
<path clip-rule="evenodd" d="M4.94155 4.06952C4.27146 4.06952 3.72314 4.61782 3.72314 5.28798V27.5177C3.72314 28.1879 4.27146 28.7362 4.94155 28.7362H27.0582C27.7283 28.7362 28.2766 28.1879 28.2766 27.5177V5.28798C28.2766 4.61782 27.7283 4.06952 27.0582 4.06952H4.94155ZM1.72314 5.28798C1.72314 3.51332 3.16682 2.06952 4.94155 2.06952H27.0582C28.8329 2.06952 30.2766 3.51332 30.2766 5.28798V27.5177C30.2766 29.2924 28.8329 30.7362 27.0582 30.7362H4.94155C3.16682 30.7362 1.72314 29.2924 1.72314 27.5177V5.28798Z" fill="#FF715E" fill-opacity="0.3" fill-rule="evenodd"/>
<path d="M7.13083 9.12787L18.5873 23.3336C18.8305 23.6309 18.6143 24.0834 18.2293 24.0834H12.9739C12.8321 24.0834 12.7037 24.0226 12.6159 23.9078L6.4148 16.1463C6.34725 16.0653 6.31348 15.9639 6.31348 15.8626V9.41834C6.31348 8.98602 6.86063 8.79012 7.13083 9.12787Z" fill="#FF715E"/>
<path d="M17.7735 18.1796C17.7756 18.1796 17.7776 18.1787 17.7789 18.177L24.8628 8.90503C25.1263 8.55377 25.6869 8.74291 25.6869 9.18199V16.0383C25.6869 16.1464 25.6464 16.2477 25.5789 16.3355L23.5591 18.7538C23.4713 18.8551 23.343 18.9159 23.2079 18.9159H18.1349C17.7577 18.9159 17.5417 18.4862 17.768 18.1824C17.7693 18.1807 17.7713 18.1796 17.7735 18.1796Z" fill="#FF715E"/>
</svg>